<svg xmlns="http://www.w3.org/2000/svg" width="24" height="24" fill="none" viewBox="0 0 24 24">
  <g clip-path="url(#a)">
    <mask id="b" width="22" height="24" x="1" y="0" maskUnits="userSpaceOnUse"
      style="mask-type:luminance">
      <path fill="#fff" d="M22.609 0H1.39v24h21.22V0Z" />
    </mask>
    <g mask="url(#b)">
      <path fill="#fff"
        d="M12.032 1.49c.058 0 .112.015.166.044l8.765 5.119a.314.314 0 0 1 .162.285l-.034 10.183a.328.328 0 0 1-.167.285l-8.794 5.059a.34.34 0 0 1-.333 0l-8.765-5.118a.314.314 0 0 1-.162-.285l.035-10.183c0-.119.063-.226.166-.285l8.8-5.065a.372.372 0 0 1 .16-.04ZM12.037 0a1.8 1.8 0 0 0-.906.241l-8.795 5.06a1.818 1.818 0 0 0-.91 1.573L1.39 17.057c0 .65.343 1.25.901 1.579l8.765 5.118a1.805 1.805 0 0 0 1.812.006l8.794-5.06c.564-.324.912-.924.912-1.573l.034-10.183c0-.65-.343-1.25-.901-1.579L12.943.246A1.807 1.807 0 0 0 12.037 0Z" />
      <path fill="#fff"
        d="M13.814 5.551h-1.283a.227.227 0 0 0-.215.152L8.183 17.076c-.03.074.03.153.108.153h1.282a.226.226 0 0 0 .216-.153l4.133-11.373c.03-.073-.03-.152-.108-.152Zm-2.247 0h-1.283a.226.226 0 0 0-.216.152L5.94 17.072c-.03.073.03.152.108.152H7.33a.226.226 0 0 0 .215-.152l4.128-11.368a.111.111 0 0 0-.107-.153Zm1.665 4.406a.114.114 0 0 0-.216 0l-.666 1.838a.222.222 0 0 0 0 .158l1.861 5.119a.234.234 0 0 0 .216.152h1.283c.078 0 .137-.079.107-.152l-2.585-7.115Zm4.828 7.115L14.353 6.864a.114.114 0 0 0-.215 0l-.666 1.839a.22.22 0 0 0 0 .157l2.982 8.212a.233.233 0 0 0 .215.152h1.283a.11.11 0 0 0 .108-.152Z" />
    </g>
  </g>
  <defs>
    <clipPath id="a">
      <path fill="#fff" d="M1.391 0h21.217v24H1.391z" />
    </clipPath>
  </defs>
</svg>