<svg xmlns="http://www.w3.org/2000/svg" width="40" height="40"><g><circle data-name="Ellipse 181" cx="20" cy="20" r="20" fill="#2e3148"/><circle data-name="Ellipse 182" cx="11.605" cy="11.605" r="11.605" transform="translate(8.395 8.395)" fill="#1b1e36"/><path data-name="Path 4923" d="M20.041 2.552c-2.159 0-3.909 7.83-3.909 17.49s1.751 17.49 3.909 17.49 3.91-7.83 3.91-17.49-1.749-17.49-3.91-17.49Zm.27 33.993a.31.31 0 0 1-.494.082 9.289 9.289 0 0 1-1.491-3.292c-1.739-5.6-1.325-17.613-1.325-17.613.817-9.54 2.3-11.794 2.81-12.294a.309.309 0 0 1 .4-.032c.734.52 1.35 2.7 1.35 2.7a51.414 51.414 0 0 1 1.653 13.086 67.909 67.909 0 0 1-.911 11.687c-.832 4.687-1.992 5.676-1.992 5.676Z" fill="#6f7390"/><path data-name="Path 4924" d="M35.212 11.338c-1.075-1.873-8.737.505-17.12 5.312S3.792 26.872 4.87 28.745s8.737-.505 17.12-5.312 14.3-10.222 13.221-12.095Zm-29.35 17.15c-.412-.052-.319-.39-.319-.39a9.3 9.3 0 0 1 2.111-2.932c3.991-4.294 14.621-9.914 14.621-9.914 8.681-4.039 11.377-3.868 12.061-3.68a.309.309 0 0 1 .224.329c-.082.9-1.667 2.512-1.667 2.512a51.33 51.33 0 0 1-10.525 7.949 67.787 67.787 0 0 1-10.591 5.026c-4.481 1.615-5.915 1.1-5.915 1.1Z" fill="#6f7390"/><path data-name="Path 4925" d="M35.174 28.807c1.083-1.868-4.815-7.309-13.168-12.152s-16.015-7.251-17.1-5.379 4.815 7.309 13.173 12.152 16.015 7.248 17.095 5.379ZM5.627 11.998a.313.313 0 0 1 .178-.471 9.284 9.284 0 0 1 3.6.361c5.714 1.3 15.9 7.684 15.9 7.684 7.845 5.49 9.049 7.908 9.229 8.594a.309.309 0 0 1-.171.359c-.818.375-3.009-.184-3.009-.184A51.455 51.455 0 0 1 19.2 23.213a67.475 67.475 0 0 1-9.651-6.645c-3.646-3.07-3.92-4.567-3.92-4.567Z" fill="#6f7390"/><circle data-name="Ellipse 183" cx="2.058" cy="2.058" r="2.058" transform="translate(17.943 17.943)" fill="#b7b9c8"/><ellipse data-name="Ellipse 184" cx="1.193" cy="1.235" rx="1.193" ry="1.235" transform="translate(27.243 10.864)" fill="#b7b9c8"/><ellipse data-name="Ellipse 185" cx="1.193" cy="1.235" rx="1.193" ry="1.235" transform="translate(7.654 15.062)" fill="#b7b9c8"/><ellipse data-name="Ellipse 186" cx="1.193" cy="1.235" rx="1.193" ry="1.235" transform="translate(16.379 30.206)" fill="#b7b9c8"/></g></svg>