<svg width="40" height="40" viewBox="0 0 40 40" fill="none" xmlns="http://www.w3.org/2000/svg">
<g clip-path="url(#clip0_227_9)">
<path d="M40 20C40 8.9543 31.0457 0 20 0C8.9543 0 0 8.9543 0 20C0 31.0457 8.9543 40 20 40C31.0457 40 40 31.0457 40 20Z" fill="black"/>
<path d="M26.1768 14.4829C25.8352 14.4829 25.5093 14.3357 25.282 14.0798L24.0912 12.7345C23.914 12.5344 23.6578 12.4186 23.3907 12.4186C23.1233 12.4186 22.8675 12.533 22.6902 12.7345L21.6682 13.8896C21.3335 14.267 20.8532 14.4843 20.3485 14.4843H4.2717C3.81425 15.7895 3.51545 17.1677 3.39682 18.5987H18.5743C18.8417 18.5987 19.0963 18.4898 19.2807 18.297L20.6945 16.823C20.8703 16.6387 21.1148 16.5343 21.3692 16.5343H21.4278C21.6952 16.5343 21.951 16.6487 22.1283 16.8503L23.3192 18.1955C23.5465 18.4513 23.871 18.5987 24.2142 18.5987H36.6025C36.484 17.1677 36.1853 15.7895 35.7278 14.4843L26.1768 14.4829Z" fill="white"/>
<path d="M12.5825 27.2473C12.8498 27.2473 13.1043 27.1387 13.2887 26.9457L14.7025 25.4717C14.8784 25.2873 15.1228 25.183 15.3773 25.183H15.4359C15.7032 25.183 15.9591 25.2973 16.1364 25.4988L17.3273 26.8442C17.5545 27.1 17.879 27.2473 18.222 27.2473H35.0108C35.6398 25.9478 36.1002 24.5525 36.3747 23.093H20.2605C19.9188 23.093 19.593 22.9457 19.3658 22.6898L18.175 21.3447C17.9977 21.1445 17.7418 21.0287 17.4743 21.0287C17.207 21.0287 16.9512 21.143 16.774 21.3447L15.7518 22.4997C15.4173 22.8772 14.937 23.0945 14.4323 23.0945H3.6263C3.90078 24.5555 4.36108 25.9492 4.9901 27.2488L12.5825 27.2473Z" fill="white"/>
<path d="M24.4933 9.98935C24.7605 9.98935 25.015 9.88072 25.1995 9.68772L26.6133 8.21385C26.7892 8.02944 27.0335 7.92509 27.288 7.92509H27.3467C27.6138 7.92509 27.8698 8.03944 28.0472 8.24102L29.238 9.58622C29.4653 9.84212 29.7897 9.98935 30.1328 9.98935H33.325C30.2843 5.948 25.4483 3.33334 20.0017 3.33334C14.5549 3.33334 9.71872 5.948 6.67807 9.98935H24.4933Z" fill="white"/>
<path d="M13.7143 31.3662C13.3726 31.3662 13.0467 31.2188 12.8194 30.963L11.6286 29.6178C11.4513 29.4177 11.1954 29.3018 10.9281 29.3018C10.6608 29.3018 10.4049 29.4162 10.2276 29.6178L9.2055 30.7728C8.87098 31.1503 8.39065 31.3675 7.886 31.3675H7.81738C10.8595 34.627 15.1896 36.6668 20.0002 36.6668C24.8105 36.6668 29.1407 34.627 32.1828 31.3675L13.7143 31.3662Z" fill="white"/>
</g>
<defs>
<clipPath id="clip0_227_9">
<rect width="40" height="40" fill="white"/>
</clipPath>
</defs>
</svg>
