<svg xmlns="http://www.w3.org/2000/svg" width="40" height="40"><defs><linearGradient id="a" x1="1" x2="-.42" y2="1.4" gradientUnits="objectBoundingBox"><stop offset="0" stop-color="#b6509e"/><stop offset="1" stop-color="#2ebac6"/></linearGradient></defs><g transform="translate(259 -342)"><circle data-name="Ellipse 187" cx="20" cy="20" r="20" transform="translate(-259 342)" fill="url(#a)"/><path data-name="Path 4926" d="m-230.135 370.071-6.849-16.559a1.84 1.84 0 0 0-1.717-1.274h-.606a1.84 1.84 0 0 0-1.717 1.274l-2.981 7.215h-2.255a1.235 1.235 0 0 0-1.227 1.227v.016a1.239 1.239 0 0 0 1.227 1.227h1.211l-2.845 6.875a1.436 1.436 0 0 0-.084.47 1.317 1.317 0 0 0 .334.924 1.172 1.172 0 0 0 .908.35 1.215 1.215 0 0 0 .7-.235 1.525 1.525 0 0 0 .491-.621l3.132-7.768h2.172a1.235 1.235 0 0 0 1.227-1.227v-.031a1.239 1.239 0 0 0-1.227-1.227h-1.159l2.391-5.956 6.515 16.2a1.525 1.525 0 0 0 .491.621 1.227 1.227 0 0 0 .7.235 1.18 1.18 0 0 0 .908-.35 1.294 1.294 0 0 0 .334-.924 1.094 1.094 0 0 0-.074-.462Z" fill="#fff"/></g></svg>