<svg width="24" height="24" viewBox="0 0 24 24" fill="none" xmlns="http://www.w3.org/2000/svg">
<g clip-path="url(#clip0_409_209)">
<path d="M23.639 14.9011C23.0659 17.2046 21.8225 19.2865 20.0661 20.8832C18.3096 22.48 16.1191 23.5199 13.7715 23.8715C11.4239 24.2231 9.02477 23.8706 6.87759 22.8585C4.7304 21.8464 2.93163 20.2202 1.70879 18.1857C0.485957 16.1511 -0.105991 13.7996 0.00782394 11.4285C0.121639 9.05751 0.936106 6.77349 2.3482 4.86542C3.76029 2.95734 5.70656 1.51093 7.94081 0.709153C10.1751 -0.0926271 12.5969 -0.213754 14.9 0.361095C17.9864 1.13144 20.6406 3.0957 22.2793 5.82216C23.9179 8.54862 24.407 11.8142 23.639 14.9011Z" fill="#2D374B"/>
<path d="M14.295 11.15L15.795 8.61098L19.828 14.892V16.097L19.809 7.80399C19.8046 7.70354 19.776 7.60565 19.7257 7.5186C19.6754 7.43156 19.6048 7.35794 19.52 7.30399L12.26 3.12799C12.1734 3.08633 12.0785 3.0647 11.9825 3.0647C11.8864 3.0647 11.7915 3.08633 11.705 3.12799C11.6825 3.13928 11.6608 3.15197 11.64 3.16599L11.615 3.18199L4.57096 7.26999L4.54396 7.28199C4.50882 7.29921 4.47535 7.31963 4.44396 7.34299C4.36851 7.39718 4.30605 7.46745 4.26108 7.54874C4.21612 7.63002 4.18978 7.72028 4.18396 7.81298L4.19496 14.572L7.95096 8.74998C8.24272 8.38819 8.62129 8.10612 9.05143 7.93005C9.48156 7.75397 9.94925 7.68962 10.411 7.74298L11.534 7.77299L4.91496 18.38L5.69496 18.829L12.389 7.78299L15.348 7.77198L8.67096 19.097L11.453 20.697L11.785 20.888C11.9283 20.9451 12.0874 20.9482 12.233 20.897L19.595 16.631L18.187 17.447L14.295 11.15ZM14.866 19.371L12.056 14.961L13.771 12.05L17.462 17.867L14.866 19.371Z" fill="#2D374B"/>
<path d="M12.056 14.9609L14.866 19.3709L17.466 17.8709L13.775 12.054L12.056 14.9609Z" fill="#28A0F0"/>
<path d="M19.826 16.0981V14.8931L15.793 8.61206L14.293 11.1511L18.186 17.4511L19.594 16.6351C19.6621 16.5798 19.7177 16.5108 19.7574 16.4326C19.797 16.3543 19.8197 16.2686 19.824 16.1811L19.826 16.0981Z" fill="#28A0F0"/>
<path d="M2.92702 17.2339L4.91503 18.3789L11.529 7.77087L10.406 7.74087C9.94432 7.6875 9.47662 7.75187 9.04649 7.92794C8.61636 8.10402 8.23778 8.38608 7.94603 8.74787L4.19003 14.5699L2.92603 16.5119L2.92702 17.2339Z" fill="white"/>
<path d="M15.346 7.77197L12.387 7.78297L5.69397 18.829L8.03397 20.176L8.66998 19.097L15.346 7.77197Z" fill="white"/>
<path d="M21.072 7.75692C21.0584 7.45157 20.9707 7.15411 20.8165 6.89018C20.6624 6.62625 20.4463 6.40377 20.187 6.24192L12.832 2.01192C12.5694 1.88281 12.2807 1.81567 11.988 1.81567C11.6954 1.81567 11.4066 1.88281 11.144 2.01192C11.083 2.04292 3.99103 6.15592 3.99103 6.15592C3.68611 6.30231 3.42629 6.52816 3.23887 6.80972C3.05146 7.09128 2.94339 7.41814 2.92603 7.75592V16.5159L4.19003 14.5739L4.17903 7.81492C4.18053 7.79043 4.18354 7.76605 4.18803 7.74192C4.21586 7.58078 4.30603 7.43708 4.43903 7.34192C4.47203 7.31792 11.685 3.14192 11.708 3.13192C11.7946 3.09026 11.8894 3.06863 11.9855 3.06863C12.0816 3.06863 12.1765 3.09026 12.263 3.13192L19.523 7.30792C19.6079 7.36188 19.6784 7.4355 19.7287 7.52254C19.7791 7.60958 19.8076 7.70748 19.812 7.80792V16.1809C19.8102 16.2677 19.7899 16.3531 19.7525 16.4313C19.7151 16.5096 19.6614 16.579 19.595 16.6349L18.187 17.4509L17.461 17.8719L14.861 19.3719L12.233 20.8989C12.0875 20.9502 11.9284 20.947 11.785 20.8899L8.67003 19.0989L8.03403 20.1779L10.834 21.7899L11.077 21.9269C11.177 21.9859 11.253 22.0269 11.277 22.0369C11.5112 22.1396 11.7644 22.1917 12.02 22.1899C12.2559 22.1901 12.4897 22.1456 12.709 22.0589L20.355 17.6309C20.5706 17.4631 20.7468 17.25 20.8712 17.0068C20.9956 16.7635 21.0652 16.496 21.075 16.2229L21.072 7.75692Z" fill="#96BEDC"/>
<g clip-path="url(#clip1_409_209)">
<path d="M23.639 14.9011C23.0659 17.2046 21.8225 19.2865 20.0661 20.8832C18.3096 22.48 16.1191 23.5199 13.7715 23.8715C11.4239 24.2231 9.02477 23.8706 6.87759 22.8585C4.7304 21.8464 2.93163 20.2202 1.70879 18.1857C0.485957 16.1511 -0.105991 13.7996 0.00782394 11.4285C0.121639 9.05751 0.936106 6.77349 2.3482 4.86542C3.76029 2.95734 5.70656 1.51093 7.94081 0.709153C10.1751 -0.092627 12.5969 -0.213754 14.9 0.361095C17.9864 1.13144 20.6406 3.0957 22.2793 5.82216C23.9179 8.54862 24.407 11.8142 23.639 14.9011Z" fill="#2D374B"/>
<path d="M3.65601 8.00894V15.9949C3.6561 16.2454 3.72214 16.4913 3.84748 16.7081C3.97281 16.9249 4.15303 17.1049 4.37001 17.2299L11.286 21.2239C11.5029 21.3488 11.7488 21.4145 11.999 21.4145C12.2493 21.4145 12.4951 21.3488 12.712 21.2239L19.628 17.2299C19.845 17.1049 20.0252 16.9249 20.1505 16.7081C20.2759 16.4913 20.3419 16.2454 20.342 15.9949V8.00894C20.3419 7.75852 20.2759 7.51254 20.1505 7.29574C20.0252 7.07894 19.845 6.89898 19.628 6.77394L12.712 2.77994C12.4951 2.65508 12.2493 2.58936 11.999 2.58936C11.7488 2.58936 11.5029 2.65508 11.286 2.77994L4.36801 6.77394C4.15127 6.89907 3.97134 7.07912 3.84634 7.29593C3.72134 7.51275 3.65569 7.75867 3.65601 8.00894Z" fill="#213147"/>
<path d="M13.507 13.551L12.521 16.251C12.4943 16.3264 12.4943 16.4087 12.521 16.484L14.221 21.138L16.184 20.005L13.828 13.547C13.8162 13.5143 13.7946 13.486 13.7662 13.466C13.7377 13.446 13.7038 13.4353 13.669 13.4353C13.6342 13.4353 13.6003 13.446 13.5718 13.466C13.5434 13.486 13.5218 13.5143 13.51 13.547L13.507 13.551Z" fill="#12AAFF"/>
<path d="M15.4849 9.00211C15.4732 8.96939 15.4516 8.9411 15.4231 8.92111C15.3946 8.90111 15.3607 8.89038 15.3259 8.89038C15.2912 8.89038 15.2572 8.90111 15.2288 8.92111C15.2003 8.9411 15.1787 8.96939 15.1669 9.00211L14.1799 11.7021C14.1536 11.7772 14.1536 11.859 14.1799 11.9341L16.9599 19.5541L18.9229 18.4211L15.4839 8.99711L15.4849 9.00211Z" fill="#12AAFF"/>
<path d="M12.001 3.07899C12.05 3.07971 12.0981 3.09241 12.141 3.11599L19.625 7.43699C19.6674 7.46168 19.7025 7.49698 19.7271 7.53942C19.7517 7.58186 19.7647 7.62996 19.765 7.67899V16.317C19.7649 16.3661 19.7519 16.4142 19.7274 16.4567C19.7028 16.4992 19.6675 16.5345 19.625 16.559L12.141 20.88C12.0985 20.9046 12.0501 20.9173 12.001 20.917C11.952 20.9163 11.9039 20.9036 11.861 20.88L4.377 16.562C4.33464 16.5373 4.29945 16.502 4.2749 16.4596C4.25035 16.4171 4.23728 16.369 4.237 16.32V7.67699C4.23698 7.6279 4.24992 7.57968 4.2745 7.53719C4.29908 7.4947 4.33444 7.45944 4.377 7.43499L11.861 3.11399C11.9035 3.08898 11.9517 3.07553 12.001 3.07499M12.001 1.81299C11.7299 1.81275 11.4636 1.88416 11.229 2.01999L3.746 6.33999C3.5113 6.47549 3.3164 6.67038 3.18089 6.90507C3.04538 7.13976 2.97402 7.40598 2.974 7.67699V16.318C2.97402 16.589 3.04538 16.8552 3.18089 17.0899C3.3164 17.3246 3.5113 17.5195 3.746 17.655L11.23 21.976C11.4648 22.1112 11.731 22.1826 12.002 22.183C12.2731 22.1835 12.5395 22.112 12.774 21.976L20.258 17.655C20.4927 17.5195 20.6876 17.3246 20.8231 17.0899C20.9586 16.8552 21.03 16.589 21.03 16.318V7.67699C21.03 7.40598 20.9586 7.13976 20.8231 6.90507C20.6876 6.67038 20.4927 6.47549 20.258 6.33999L12.772 2.01999C12.5373 1.88573 12.2714 1.81571 12.001 1.81699V1.81299Z" fill="#9DCCED"/>
<path d="M7.04797 19.5701L7.73697 17.6841L9.12297 18.8361L7.82297 20.0201L7.04797 19.5701Z" fill="#213147"/>
<path d="M11.368 7.06299H9.46801C9.39859 7.06274 9.33079 7.08393 9.27387 7.12366C9.21695 7.1634 9.17369 7.21974 9.15001 7.28499L5.08301 18.435L7.04601 19.568L11.525 7.28899C11.5343 7.26365 11.5374 7.23644 11.534 7.20966C11.5305 7.18287 11.5207 7.15731 11.5053 7.13514C11.4899 7.11297 11.4694 7.09483 11.4455 7.08227C11.4216 7.06971 11.395 7.0631 11.368 7.06299Z" fill="white"/>
<path d="M14.688 7.06299H12.788C12.7187 7.06288 12.6509 7.08413 12.594 7.12384C12.5372 7.16356 12.4939 7.21982 12.47 7.28499L7.82605 20.017L9.78905 21.15L14.844 7.28999C14.8533 7.26467 14.8564 7.2375 14.853 7.21076C14.8496 7.18401 14.8399 7.15847 14.8246 7.13625C14.8093 7.11403 14.789 7.09579 14.7652 7.08304C14.7415 7.0703 14.715 7.06342 14.688 7.06299Z" fill="white"/>
</g>
</g>
<defs>
<clipPath id="clip0_409_209">
<rect width="24" height="24.003" fill="white"/>
</clipPath>
<clipPath id="clip1_409_209">
<rect width="24" height="24.003" fill="white"/>
</clipPath>
</defs>
</svg>
