<svg height="40.005" viewBox="0 0 40 40.005" width="40" xmlns="http://www.w3.org/2000/svg"><path d="m0 .005h40v40h-40z" fill="none"/><path d="m39.4 24.842a20 20 0 1 1 -14.564-24.242 20 20 0 0 1 14.564 24.242z" fill="#f7931a" transform="translate(0 -.001)"/><path d="m1014 722.587c.386-2.571-1.58-3.953-4.27-4.875l.872-3.483-2.13-.528-.85 3.391c-.56-.139-1.135-.27-1.707-.4l.856-3.413-2.129-.528-.873 3.482c-.464-.105-.919-.209-1.36-.318v-.011l-2.938-.73-.567 2.264s1.581.36 1.547.383a1.129 1.129 0 0 1 .993 1.233l-.994 3.968a1.7 1.7 0 0 1 .222.071l-.225-.055-1.393 5.558a.776.776 0 0 1 -.976.5c.021.031-1.548-.384-1.548-.384l-1.058 2.427 2.772.688c.516.129 1.021.263 1.519.39l-.881 3.523 2.128.528.873-3.485c.581.157 1.146.3 1.7.438l-.87 3.469 2.13.528.881-3.516c3.633.684 6.364.408 7.514-2.862.927-2.633-.046-4.151-1.957-5.141a3.387 3.387 0 0 0 2.72-3.113zm-4.867 6.792c-.658 2.633-5.113 1.209-6.557.853l1.17-4.667c1.444.359 6.075 1.069 5.387 3.814zm.659-6.83c-.6 2.395-4.308 1.178-5.51.88l1.061-4.233c1.2.3 5.075.855 4.45 3.353z" fill="#fff" transform="translate(-985.475 -705.371)"/></svg>