<svg width="40" height="40" viewBox="0 0 40 40" fill="none" xmlns="http://www.w3.org/2000/svg">
<g clip-path="url(#clip0_1208_24675)">
<path fill-rule="evenodd" clip-rule="evenodd" d="M20 0C31.0465 0 40 8.95353 40 20C40 31.0465 31.0465 40 20 40C8.95353 40 0 31.0465 0 20C0 8.95353 8.95353 0 20 0Z" fill="#F0B90B"/>
<path d="M10.992 20L11.0064 25.2884L15.5 27.9327V31.0288L8.3766 26.8509V18.4535L10.992 20ZM10.992 14.7115V17.7932L8.375 16.2452V13.1634L10.992 11.6154L13.6218 13.1634L10.992 14.7115ZM17.3766 13.1634L19.9936 11.6154L22.6234 13.1634L19.9936 14.7115L17.3766 13.1634Z" fill="white"/>
<path d="M12.8831 24.1923V21.0961L15.5 22.6442V25.7259L12.8831 24.1923ZM17.3766 29.0416L19.9936 30.5897L22.6234 29.0416V32.1234L19.9936 33.6714L17.3766 32.1234V29.0416ZM26.3766 13.1634L28.9936 11.6154L31.6234 13.1634V16.2452L28.9936 17.7932V14.7115L26.3766 13.1634ZM28.9936 25.2884L29.0081 20L31.625 18.4519V26.8493L24.5016 31.0272V27.9311L28.9936 25.2884Z" fill="white"/>
<path d="M27.117 24.1923L24.5 25.726V22.6443L27.117 21.0962V24.1923Z" fill="white"/>
<path d="M27.117 15.8077L27.1315 18.9038L22.625 21.548V26.8493L20.0081 28.383L17.3911 26.8493V21.548L12.8847 18.9038V15.8077L15.5129 14.2596L19.992 16.9166L24.4984 14.2596L27.1282 15.8077H27.117ZM12.8831 10.5208L19.9936 6.32849L27.117 10.5208L24.5 12.0689L19.9936 9.41182L15.5 12.0689L12.8831 10.5208Z" fill="white"/>
</g>
<defs>
<clipPath id="clip0_1208_24675">
<rect width="40" height="40" fill="white"/>
</clipPath>
</defs>
</svg>
