<svg width="40" height="40" viewBox="0 0 40 40" fill="none" xmlns="http://www.w3.org/2000/svg">
<g clip-path="url(#clip0_3_58)">
<g clip-path="url(#clip1_3_58)">
<path d="M20 40C31.0457 40 40 31.0457 40 20C40 8.9543 31.0457 0 20 0C8.9543 0 0 8.9543 0 20C0 31.0457 8.9543 40 20 40Z" fill="#50832B"/>
<path d="M20.3047 17.3359C20.3047 17.3359 13.1016 12.8672 7.89062 18.8281C7.89063 18.8203 12.4062 24.7344 20.3047 17.3359Z" fill="white"/>
<path d="M12.7578 21.2734C12.5703 21.2734 12.3828 21.2656 12.1953 21.25C9.32813 21.0156 7.78906 19.0391 7.71875 18.9531L7.60938 18.8125L7.72656 18.6797C8.94531 17.2891 10.3672 16.3438 11.9687 15.8672C13.2422 15.4844 14.6328 15.4063 16.0859 15.625C18.5547 16 20.3438 17.1016 20.4219 17.1406L20.6562 17.2891L20.4531 17.4766C17.7656 20 15.1797 21.2734 12.7578 21.2734ZM8.17187 18.8281C8.5625 19.2656 9.97656 20.6406 12.2344 20.8281C14.6328 21.0234 17.2266 19.8672 19.9375 17.3828C19.3672 17.0781 17.8672 16.3438 16 16.0625C14.6094 15.8516 13.2891 15.9297 12.0781 16.2969C10.6172 16.7188 9.30469 17.5703 8.17187 18.8281Z" fill="black"/>
<path d="M33.4609 14.3047C33.4609 14.3047 30.1875 10.7266 20.75 17.2344L25.9141 18.5234H28.8906L30.9766 17.8281L32.4141 16.7891L33.4609 14.3047Z" fill="white" stroke="black" stroke-width="0.244898" stroke-miterlimit="10"/>
<path d="M18.9609 17.9844C18.9609 19.2187 17.4609 20.2109 15.6094 20.2109C13.7578 20.2109 12.2578 19.2109 12.2578 17.9844C12.2578 16.7578 13.7578 15.7578 15.6094 15.7578C17.4609 15.7578 18.9609 16.75 18.9609 17.9844Z" fill="black"/>
<path d="M12.7188 21.5703C11.8594 21.5703 11.0234 21.4141 10.2422 21.1016C8.95313 20.5938 7.6875 19.6328 6.49219 18.2578C6.42969 18.1875 6.34375 18.0859 6.29688 17.9453C6.16406 17.5313 6.42188 16.9766 7.11719 16.2109C7.69531 15.5703 8.35938 15.0313 8.4375 14.9688C9.39844 14.1953 10.5156 13.7109 11.6719 13.5781C13.5078 13.3672 15.5703 13.9063 17.7813 15.1719C17.8828 15.2266 18.5938 15.7109 19.1953 16.125C20.5781 17.0859 20.5781 17.125 20.6016 17.2813L20.625 17.4297L20.5234 17.5391C19.25 18.8281 18.0234 19.7813 16.7813 20.4609C15.4297 21.1953 14.0469 21.5703 12.7188 21.5703ZM12.4609 14.1328C12.2109 14.1328 11.9766 14.1484 11.7344 14.1719C10.6953 14.2891 9.67969 14.7266 8.8125 15.4297C8.74219 15.4844 8.10938 16 7.5625 16.6094C6.9375 17.2891 6.83594 17.6484 6.86719 17.7578C6.875 17.7813 6.92188 17.8359 6.94532 17.8672C8.07813 19.1719 9.25781 20.0703 10.4609 20.5469C12.2969 21.2734 14.4375 21.0625 16.4844 19.9453C17.6016 19.3359 18.7109 18.4844 19.8672 17.3516C19.2734 16.9063 17.6484 15.7969 17.4844 15.7031C15.6719 14.6563 13.9844 14.1328 12.4609 14.1328Z" fill="black"/>
<path d="M25.2894 18.0451C26.7519 17.8184 27.8394 17.0021 27.7184 16.2218C27.5975 15.4415 26.3138 14.9928 24.8513 15.2195C23.3888 15.4462 22.3013 16.2626 22.4223 17.0428C22.5433 17.8231 23.8269 18.2719 25.2894 18.0451Z" fill="black" stroke="black" stroke-width="0.342857" stroke-miterlimit="10"/>
<path d="M27.2578 18.8594C26.625 18.8594 25.9531 18.8125 25.2422 18.7266C23.4766 18.5078 21.7266 18.0391 20.2266 17.625L20.3906 17.0469C20.2812 17.0156 20.2031 17.0625 20.2031 17.0625C20.4062 16.9375 21.4141 15.8047 21.9062 15.2578C22.2656 14.8516 22.4453 14.6563 22.5156 14.5938C24.5781 12.7031 26.4062 11.5703 28.2578 11.0313C29.1797 10.7578 30.0703 10.6719 30.8906 10.7578C31.2031 10.7891 31.8047 10.875 32.3516 11.0703C33.0391 11.3203 33.4453 11.6719 33.5547 12.125C33.8828 13.5156 33.7969 14.8281 33.2969 15.9297C32.7578 17.125 31.7578 17.9844 30.4062 18.4141C29.4531 18.7109 28.4141 18.8594 27.2578 18.8594ZM20.9297 17.1953C24.0859 18.0547 27.3672 18.7422 30.2187 17.8359C31.3984 17.4609 32.2734 16.7188 32.7422 15.6797C33.1875 14.7031 33.2656 13.5156 32.9609 12.2578C32.8828 11.9375 32.2734 11.5078 30.8125 11.3438C30.0625 11.2656 29.2578 11.3438 28.4062 11.5938C26.6406 12.1094 24.8906 13.2031 22.8984 15.0234C22.8437 15.0703 22.5859 15.3594 22.3359 15.6484C21.9922 16.0313 21.5703 16.5078 21.2109 16.8906C21.1094 17.0078 21.0156 17.1094 20.9297 17.1953Z" fill="black"/>
<path d="M27.5859 21.3125C27.5469 21.3281 27.5078 21.3437 27.4766 21.3516C27.125 21.4687 26.7422 21.4609 26.3672 21.4609C24.875 21.4375 23.3828 21.4141 21.8906 21.3984C21.2344 21.3906 20.5703 21.3828 19.9297 21.5234C18.7344 21.7969 17.7266 22.5703 16.6875 23.2266C15.125 24.2031 13.8594 24.2344 12.0859 24.1016C11.7578 24.0781 11.4219 24.0547 11.1094 23.9375C10.8281 23.8281 10.5859 23.6484 10.3125 23.5234C9.63281 23.2031 8.80469 23.2266 8.14844 23.5859C7.49219 23.9453 7.02344 24.6328 6.9375 25.3828C6.77344 26.6953 7.75781 27.9297 8.96094 28.4766C10.3203 29.0938 11.8281 29 13.2734 28.9453C13.5859 28.9297 13.9062 28.9219 14.2031 28.8203C14.4141 28.75 14.6094 28.6406 14.8047 28.5313C16.1172 27.7891 17.4766 27.1016 18.7812 26.3438C19.9531 25.6641 21.0625 24.7969 22.4141 24.5156C23.3281 24.3281 24.2734 24.4297 25.2109 24.3984C26.0234 24.375 26.8594 24.25 27.625 24.5234C27.9141 24.625 28.1875 24.7812 28.4922 24.7891C28.7031 24.7891 28.9062 24.7187 29.1016 24.6328C29.8437 24.3281 30.5547 23.9375 31.2109 23.4687C31.8047 23.0469 32.3672 22.5391 32.6719 21.8828C32.9766 21.2187 32.9687 20.375 32.5 19.8281C32.0625 19.3203 31.3125 19.1562 30.6562 19.2891C30 19.4297 29.4219 19.8203 28.9219 20.2812C28.5156 20.6562 28.1094 21.1016 27.5859 21.3125Z" fill="#85492D"/>
<path d="M11.8359 29.2812C10.8203 29.2812 9.80469 29.1875 8.84375 28.75C8.1875 28.4531 7.60156 27.9687 7.20313 27.3906C6.75781 26.75 6.5625 26.0391 6.64844 25.3516C6.75 24.5156 7.27344 23.7422 8.01563 23.3359C8.75781 22.9297 9.6875 22.8984 10.4531 23.2578C10.5781 23.3125 10.6875 23.3828 10.8047 23.4453C10.9531 23.5312 11.0859 23.6094 11.2266 23.6641C11.5 23.7656 11.8125 23.7891 12.1172 23.8125C13.7422 23.9297 15.0078 23.9375 16.5391 22.9766C16.7344 22.8516 16.9297 22.7266 17.125 22.6016C17.9766 22.0469 18.8516 21.4687 19.875 21.2422C20.5547 21.0859 21.2422 21.1016 21.9063 21.1094L26.3828 21.1719C26.7266 21.1797 27.0859 21.1797 27.3984 21.0781C27.4297 21.0703 27.4609 21.0547 27.4922 21.0469C27.8672 20.8984 28.1797 20.6016 28.5078 20.2812C28.5859 20.2031 28.6641 20.1328 28.75 20.0547C29.3906 19.4687 30 19.125 30.625 18.9922C31.4453 18.8203 32.2813 19.0703 32.7578 19.625C33.2656 20.2266 33.3594 21.1797 32.9766 22C32.6094 22.7969 31.9141 23.3516 31.4219 23.7031C30.75 24.1875 30.0156 24.5859 29.25 24.8984C29.0391 24.9844 28.7969 25.0781 28.5313 25.0781H28.5234C28.2422 25.0781 27.9922 24.9766 27.7656 24.8828C27.6953 24.8516 27.625 24.8281 27.5547 24.7969C26.9922 24.5937 26.3828 24.6328 25.7344 24.6641C25.5781 24.6719 25.4141 24.6797 25.25 24.6875C24.9531 24.6953 24.6563 24.6953 24.3594 24.6875C23.7109 24.6797 23.1016 24.6719 22.5 24.7969C21.5156 25 20.6406 25.5547 19.7891 26.0859C19.5156 26.2578 19.2422 26.4297 18.9609 26.5937C18.2344 27.0156 17.4844 27.4219 16.75 27.8125C16.1641 28.125 15.5625 28.4531 14.9844 28.7812C14.7813 28.8984 14.5703 29.0156 14.3281 29.0937C13.9844 29.2031 13.6328 29.2187 13.3125 29.2266L13.0859 29.2344C12.6563 29.2656 12.25 29.2812 11.8359 29.2812ZM9.3125 23.6016C8.96094 23.6016 8.61719 23.6875 8.30469 23.8516C7.72656 24.1641 7.32031 24.7656 7.24219 25.4219C7.09375 26.6328 8.0625 27.7344 9.09375 28.2031C10.3125 28.7578 11.7031 28.7031 13.0469 28.6484L13.2734 28.6406C13.5625 28.6328 13.8594 28.6172 14.125 28.5312C14.3125 28.4687 14.4844 28.3672 14.6719 28.2656C15.2578 27.9297 15.8672 27.6094 16.4531 27.2891C17.1797 26.8984 17.9297 26.4922 18.6484 26.0781C18.9219 25.9219 19.1953 25.75 19.4609 25.5859C20.3594 25.0234 21.2813 24.4453 22.3672 24.2187C23.0313 24.0781 23.7031 24.0859 24.3516 24.0937C24.6328 24.0937 24.9297 24.1016 25.2109 24.0937C25.3672 24.0859 25.5234 24.0781 25.6797 24.0703C26.3594 24.0312 27.0625 23.9922 27.7344 24.2344C27.8125 24.2656 27.8984 24.2969 27.9688 24.3281C28.1563 24.4062 28.3359 24.4766 28.5 24.4766C28.6563 24.4766 28.8281 24.4141 28.9922 24.3437C29.7188 24.0469 30.4063 23.6641 31.0391 23.2109C31.4766 22.8984 32.0938 22.4062 32.3984 21.7422C32.7266 21.0312 32.5703 20.3594 32.2656 20C31.9297 19.6094 31.3203 19.4375 30.7109 19.5625C30.1953 19.6719 29.6797 19.9687 29.1172 20.4766C29.0391 20.5469 28.9609 20.625 28.8828 20.6953C28.5234 21.0312 28.1563 21.3828 27.6797 21.5781C27.6328 21.5937 27.5938 21.6094 27.5469 21.625C27.1406 21.7578 26.7109 21.75 26.3359 21.75L21.8594 21.6875C21.2266 21.6797 20.5781 21.6719 19.9688 21.8047C19.0547 22.0156 18.2188 22.5547 17.4141 23.0859C17.2188 23.2109 17.0156 23.3437 16.8203 23.4687C15.1406 24.5234 13.7188 24.5156 12.0391 24.3906C11.7109 24.3672 11.3359 24.3359 10.9766 24.2031C10.7891 24.1328 10.625 24.0391 10.4688 23.9453C10.3594 23.8828 10.2656 23.8281 10.1641 23.7812C9.92188 23.6641 9.61719 23.6016 9.3125 23.6016Z" fill="black"/>
<path d="M8.8125 24.7734C8.88281 25.5625 9.40625 26.2187 10.1172 26.5469C10.8828 26.8984 11.7578 26.9141 12.5859 26.7969C14.1328 26.5859 15.5391 25.8516 16.9062 25.1563C18.2891 24.4531 19.7266 23.7109 21.2969 23.5703C22.2734 23.4844 23.2578 23.5625 24.2422 23.5156C25.2266 23.4688 26.2109 23.3594 27.1875 23.1797C28.9219 22.8672 31.375 22.2656 31.5234 20.1094C31.5469 19.7813 31.0312 19.7813 31.0078 20.1094C30.9531 20.8672 30.4141 21.4844 29.7891 21.8594C29.0469 22.2969 28.1719 22.4766 27.3359 22.6406C26.4219 22.8203 25.5 22.9375 24.5781 22.9922C23.6484 23.0469 22.7187 23 21.7891 23.0312C20.2734 23.0859 18.8828 23.6172 17.5312 24.2734C16.2344 24.9063 14.9609 25.6484 13.5703 26.0625C12.7812 26.2969 11.9141 26.4375 11.0859 26.3047C10.2891 26.1719 9.41406 25.6641 9.33594 24.7734C9.30469 24.4453 8.78906 24.4375 8.8125 24.7734Z" fill="black"/>
<path d="M17.7891 17.7266C17.7656 17.7266 17.75 17.7266 17.7266 17.7266C17.6484 17.7187 17.5703 17.7344 17.5 17.7734C17.3281 17.8594 17.2422 18.0547 17.2891 18.2422C17.3359 18.4141 17.4922 18.5234 17.6562 18.5313C17.7891 18.5625 17.9375 18.5156 18.0312 18.4063C18.1328 18.2969 18.1562 18.1484 18.1094 18.0156C18.0859 17.8594 17.9531 17.7344 17.7891 17.7266Z" fill="white"/>
<path d="M17.4688 17.4531C17.7969 17.4687 17.7969 16.9531 17.4688 16.9375C17.1719 16.9219 16.875 16.9062 16.5781 16.8984C16.4297 16.8906 16.3281 17.0234 16.3203 17.1562L16.2422 18.2812C16.2188 18.6094 16.7344 18.6094 16.7578 18.2812C16.7734 17.9922 16.7969 17.7109 16.8125 17.4219C17.0313 17.4297 17.25 17.4375 17.4688 17.4531Z" fill="white"/>
<path d="M26.3359 16.4531C26.3437 16.3906 26.3516 16.3203 26.3672 16.2578C26.3984 16.0703 26.2734 15.9219 26.0859 15.9375C25.9375 15.8516 25.7266 15.8984 25.5937 15.9766C25.2344 16.1875 25.2109 16.6719 25.5156 16.9453C25.5859 17.0078 25.6641 17.0547 25.75 17.0781C25.7578 17.0781 25.7891 17.0938 25.8203 17.0938C25.7656 17.25 25.8125 17.4609 25.9062 17.5859C25.9766 17.6875 26.0859 17.7422 26.2031 17.75C26.3047 17.7734 26.4297 17.75 26.5 17.6484C26.7344 17.3281 26.7422 16.9297 26.5703 16.5859C26.5312 16.5 26.4297 16.4531 26.3359 16.4531Z" fill="white"/>
<path d="M26.4453 14.4922C26.3984 14.6719 26.3594 14.8438 26.3125 15.0234C26.2344 15.3438 26.7266 15.4844 26.8047 15.1563C26.8516 14.9766 26.8906 14.8047 26.9375 14.625C27.0234 14.3047 26.5234 14.1719 26.4453 14.4922Z" fill="white"/>
</g>
</g>
<defs>
<clipPath id="clip0_3_58">
<rect width="40" height="40" rx="12" fill="white"/>
</clipPath>
<clipPath id="clip1_3_58">
<rect width="40" height="40" fill="white"/>
</clipPath>
</defs>
</svg>
