<svg width="40" height="40" viewBox="0 0 20 20" fill="none" xmlns="http://www.w3.org/2000/svg">
  <circle cx="10" cy="10" r="10" fill="#141414"/>
  <path d="M15.0285 6.25108L15.3936 6.41091L14.2668 8.86398C14.0733 9.28526 13.644 9.55668 13.1709 9.55668H6.7896C6.31662 9.55664 5.88765 9.28521 5.69412 8.86398L4.56738 6.41091L5.29744 6.09126L6.42457 8.54471C6.4891 8.685 6.63203 8.77544 6.7896 8.77549H13.1709C13.3286 8.77549 13.4719 8.68476 13.5364 8.54433L14.6631 6.09126L15.0285 6.25108ZM7.42547 6.98727C7.47997 7.1467 7.63275 7.25426 7.80496 7.25428H12.1802C12.3546 7.25428 12.5089 7.14384 12.5617 6.98155L13.3363 4.59752L14.0992 4.83325L13.3249 7.21766C13.1668 7.70454 12.7035 8.03548 12.1802 8.03548H7.80496C7.2882 8.03546 6.82951 7.71255 6.6661 7.23407L5.84811 4.83897L6.60708 4.5918L7.42547 6.98727Z" fill="#FFD966"/>
  <path d="M13.3327 12.7919C13.1746 12.305 12.7113 11.974 12.188 11.974H7.81277C7.29601 11.9741 6.83733 12.297 6.67392 12.7755L5.85592 15.1706L6.6149 15.4177L7.43328 13.0223C7.48778 12.8628 7.64057 12.7553 7.81277 12.7552H12.188C12.3625 12.7552 12.5168 12.8657 12.5695 13.028L13.3441 15.412L14.107 15.1763L13.3327 12.7919Z" fill="white"/>
  <path d="M14.2668 11.0365C14.0733 10.6152 13.6443 10.3438 13.1713 10.3438H6.78999C6.31695 10.3438 5.88766 10.6152 5.69412 11.0365L4.56738 13.4895L4.93241 13.6494L5.29783 13.8092L6.42457 11.3561C6.48908 11.2157 6.63231 11.1249 6.78999 11.1249H13.1713C13.3289 11.125 13.4718 11.2154 13.5364 11.3557L14.6635 13.8092L15.3936 13.4895L14.2668 11.0365Z" fill="white"/>
  </svg>
  