<svg xmlns="http://www.w3.org/2000/svg" width="40" height="40" fill="none" viewBox="0 0 40 40">
  <g clip-path="url(#a)">
    <path fill="#814625" d="M20 40c11.046 0 20-8.954 20-20S31.046 0 20 0 0 8.954 0 20s8.954 20 20 20Z"/>
    <path fill="#fff" d="M19.254 18.987a1.411 1.411 0 0 1-.05-.203 4.488 4.488 0 0 0-.071-.3c.313-.454 1.804-2.826.107-4.349-1.883-1.69-4.083.525-4.083.525l.007.01a5.439 5.439 0 0 0-3.104-.01c-.013-.013-2.206-2.21-4.084-.525-1.878 1.686.15 4.412.16 4.426-.02.064-.038.13-.05.196-.203 1.167-1.586 1.527-1.586 3.56 0 2.032 1.447 3.703 4.4 3.703h1.212c.006.008.505.689 1.53.688.95 0 1.579-.682 1.584-.688h1.156c2.954 0 4.4-1.632 4.4-3.704 0-1.892-1.199-2.335-1.528-3.329Zm14.114-2.322s.22-1.958-1.45-2.38V13.5h-1.293v.766c-1.761.375-1.534 2.4-1.534 2.4V17s-.227 2.024 1.535 2.4v1.68c-1.857.326-1.622 2.417-1.622 2.417v.336s-.228 2.024 1.534 2.399v.766h1.293v-.786c1.67-.42 1.45-2.38 1.45-2.38a.13.13 0 0 0 .132-.127v-.08a.13.13 0 0 0-.132-.128s.218-1.942-1.429-2.374V19.4h-.02c1.763-.375 1.536-2.399 1.536-2.399a.13.13 0 0 0 .132-.127v-.081a.13.13 0 0 0-.132-.128Zm-1.054 6.833h-.118a.13.13 0 0 0-.132.127v.081c0 .07.059.128.132.128h.118c0 1.215-.419 1.42-.56 1.454-.023.005-.045-.011-.045-.034v-.388c0-.214-.142-.331-.284-.395a.694.694 0 0 0-.566 0c-.142.064-.284.181-.284.395v.388c0 .022-.022.04-.044.034-.14-.034-.561-.237-.561-1.454v-.336c0-1.215.419-1.42.56-1.454.023-.006.046.01.046.034v.387c0 .214.141.332.283.395a.69.69 0 0 0 .566 0c.142-.063.284-.18.284-.395v-.387c0-.023.022-.04.044-.034.14.034.561.237.561 1.454ZM32.284 17h.117c0 1.217-.42 1.42-.56 1.454a.036.036 0 0 1-.045-.034v-.387c0-.214-.142-.332-.284-.395a.694.694 0 0 0-.566 0c-.142.063-.283.18-.283.395v.387c0 .023-.023.04-.046.034-.14-.034-.56-.239-.56-1.454v-.336c0-1.217.42-1.42.56-1.454a.036.036 0 0 1 .046.034v.388c0 .214.141.33.283.395.179.08.387.08.566 0 .142-.064.284-.181.284-.395v-.388c0-.023.022-.04.046-.034.14.035.56.24.56 1.454h-.119a.13.13 0 0 0-.132.128v.08c0 .071.06.128.132.128Zm-5.386 3.124s.228-2.035-1.55-2.402v-1.829c1.73-.39 1.506-2.393 1.506-2.393h-.967c0 1.217-.42 1.42-.56 1.454a.036.036 0 0 1-.045-.034v-.387c0-.214-.142-.332-.284-.395a.694.694 0 0 0-.566 0c-.142.063-.283.18-.283.395v.387c0 .023-.023.04-.046.034-.14-.034-.56-.239-.56-1.454h-.966s-.233 2.078 1.605 2.413v1.806c-1.791.36-1.562 2.405-1.562 2.405v.336s-.23 2.045 1.562 2.405v1.722C22.344 24.922 22.577 27 22.577 27h.966c0-1.217.42-1.42.56-1.454a.036.036 0 0 1 .046.034v.387c0 .214.141.332.283.395a.692.692 0 0 0 .567 0c.141-.063.283-.18.283-.395v-.387c0-.023.022-.04.046-.034.14.034.56.239.56 1.454h.966s.224-2.002-1.506-2.393v-1.745c1.778-.367 1.55-2.402 1.55-2.402a.13.13 0 0 0 .132-.127v-.082a.13.13 0 0 0-.133-.127Zm-1.085.336h.118c0 1.217-.42 1.42-.56 1.454a.036.036 0 0 1-.046-.034v-.387c0-.214-.141-.332-.283-.396a.695.695 0 0 0-.566 0c-.142.064-.284.182-.284.396v.387c0 .023-.022.04-.045.034-.141-.035-.56-.239-.56-1.454v-.336c0-1.217.42-1.42.56-1.454a.036.036 0 0 1 .045.034v.387c0 .215.142.332.284.396.179.08.387.08.566 0 .142-.064.283-.181.283-.395v-.388c0-.023.023-.04.046-.034.141.035.56.24.56 1.454h-.118a.13.13 0 0 0-.133.127v.082c0 .07.06.127.133.127Z"/>
  </g>
  <defs>
    <clipPath id="a">
      <path fill="#fff" d="M0 0h40v40H0z"/>
    </clipPath>
  </defs>
</svg>
