<svg xmlns="http://www.w3.org/2000/svg" width="40" height="40" fill="none" viewBox="0 0 40 40">
  <path fill="#FBD984" d="M36.147 26.376c0 5.386-7.218 9.792-16.093 9.792S3.96 31.762 3.96 26.376v-2.531h32.291v2.531h-.104Z"/>
  <path fill="#CA7D45" d="M10.179 7.688a3.186 3.186 0 0 1 3.104-3.854c1.77 0 3.76 1.437 3.76 3.198v7.25c1.115-.104 1.677-.209 2.896-.209 1.114 0 1.688-.114 2.792 0l.281-7.427c0-1.76 1.698-2.812 3.48-2.812 1.989 0 3.54 1.875 3.218 3.854l-.98 7.917c4.667 1.76 7.407 4.833 7.407 8.354 0 5.385-7.209 9.78-16.083 9.78-8.875 0-16.094-4.395-16.094-9.79 0-3.511 2.458-6.584 7.125-8.344l-.906-7.917Z"/>
  <path fill="#522D0B" d="M15.835 23.646c0 1.406-.688 2.604-1.563 2.604s-1.563-1.198-1.563-2.604c0-1.406.688-2.604 1.563-2.604s1.563 1.198 1.563 2.604Zm11.458 0c0 1.406-.688 2.604-1.563 2.604s-1.562-1.198-1.562-2.604c0-1.406.687-2.604 1.562-2.604s1.563 1.198 1.563 2.604Z"/>
  <path fill="#522D0B" d="M9.583 8.542c-.52-2.709 1.323-5.209 4.063-5.209 2.406 0 4.27 1.98 4.27 4.375l-.343 5.5h2.375c.625 0 1.312 0 2.135.104V7.708c0-2.396 1.646-4.375 4.063-4.375 2.74 0 4.687 2.5 4.27 5.209l-1.041 6.354c4.104 1.77 7.292 4.896 7.292 8.75v2.396c0 3.229-2.105 5.937-5.157 7.708-3.041 1.875-7.03 2.916-11.562 2.916-4.531 0-8.521-1.041-11.563-2.916-2.948-1.771-5.052-4.48-5.052-7.708v-2.396c0-3.854 3.188-7.084 7.292-8.854l-1.042-6.25Zm18.75 7.291 1.042-7.364c.312-1.875-1.125-3.886-3.125-3.886a3.125 3.125 0 0 0-3.146 3.021v6.875c-.875-.135-2.177-.208-3.156-.208-1.094 0-2.375.104-3.26.208l.187-6.77c0-1.667-1.563-3.334-3.23-3.334-1.895 0-3.374 2.083-2.947 3.958l.969 7.5C7.25 17.5 4.375 20.417 4.375 23.75v2.396c0 5.104 7.208 9.479 15.625 9.479s15.625-4.375 15.625-9.48V23.75c.104-3.438-2.77-6.25-7.292-7.917Z"/>
</svg>
