<svg width="1em" height="1em" viewBox="0 0 329 369" fill="none" xmlns="http://www.w3.org/2000/svg">
  <g clip-path="url(#clip0_3084_5797)">
    <path d="M279.498 40.7207L231.656 88.5631L279.498 136.405L327.341 88.5631L279.498 40.7207Z"
      fill="#030206" />
    <path
      d="M279.514 41.9278L326.155 88.5688L279.514 135.21L232.873 88.5688L279.514 41.9278ZM279.514 39.543L230.488 88.5688L279.514 137.595L328.54 88.5688L279.514 39.543Z"
      fill="#F3FF97" />
    <path d="M274.733 36.1602L226.891 84.0026L274.733 131.845L322.576 84.0026L274.733 36.1602Z"
      fill="#030206" />
    <path
      d="M274.745 37.3788L321.386 84.0198L274.745 130.661L228.104 84.0198L274.745 37.3788ZM274.745 34.9941L225.719 84.0198L274.745 133.046L323.77 84.0198L274.745 34.9941Z"
      fill="#F3FF97" />
    <path d="M269.765 31.918L221.922 79.7604L269.765 127.603L317.607 79.7604L269.765 31.918Z"
      fill="#030206" />
    <path
      d="M269.753 33.0539L316.394 79.6949L269.753 126.336L223.112 79.7504L269.753 33.0539ZM269.753 30.7246L220.727 79.7504L269.753 128.777L318.779 79.7504L269.753 30.7246Z"
      fill="#F3FF97" />
    <path d="M264.667 27.9238L216.824 75.7662L264.667 123.609L312.509 75.7662L264.667 27.9238Z"
      fill="#030206" />
    <path
      d="M264.651 29.0598L311.292 75.7008L264.651 122.341L218.01 75.7008L264.651 29.0598ZM264.651 26.7305L215.625 75.7563L264.651 124.782L313.677 75.7563L264.651 26.7305Z"
      fill="#F3FF97" />
    <path d="M259.448 24.1836L211.605 72.0259L259.448 119.868L307.29 72.0259L259.448 24.1836Z"
      fill="#030206" />
    <path
      d="M259.436 25.3449L306.077 71.9859L259.436 118.627L212.795 71.9859L259.436 25.3449ZM259.436 23.0156L210.41 72.0413L259.436 121.067L308.461 72.0413L259.436 23.0156Z"
      fill="#F3FF97" />
    <path d="M254.034 20.709L206.191 68.5514L254.034 116.393L301.876 68.5514L254.034 20.709Z"
      fill="#030206" />
    <path
      d="M254.057 21.9055L300.698 68.5465L254.057 115.187L207.416 68.5465L254.057 21.9055ZM254.057 19.5762L205.031 68.602L254.057 117.628L303.083 68.602L254.057 19.5762Z"
      fill="#F3FF97" />
    <path d="M248.546 17.543L200.703 65.3854L248.546 113.228L296.388 65.3854L248.546 17.543Z"
      fill="#030206" />
    <path
      d="M248.565 18.7452L295.206 65.3863L248.565 112.027L201.924 65.3863L248.565 18.7452ZM248.565 16.416L199.539 65.4417L248.565 114.467L297.59 65.4417L248.565 16.416Z"
      fill="#F3FF97" />
    <path d="M242.944 14.6523L195.102 62.4947L242.944 110.337L290.786 62.4947L242.944 14.6523Z"
      fill="#030206" />
    <path
      d="M242.967 15.8613L289.608 62.5023L242.967 109.143L196.326 62.5023L242.967 15.8613ZM242.967 13.4766L193.941 62.5023L242.967 111.528L291.993 62.5023L242.967 13.4766Z"
      fill="#F3FF97" />
    <path d="M237.229 12.0488L189.387 59.8911L237.229 107.734L285.071 59.8911L237.229 12.0488Z"
      fill="#030206" />
    <path
      d="M237.253 13.2551L283.894 59.8961L237.253 106.537L190.612 59.8961L237.253 13.2551ZM237.253 10.9258L188.227 59.9516L237.253 108.977L286.279 59.9516L237.253 10.9258Z"
      fill="#F3FF97" />
    <path d="M231.409 9.73438L183.566 57.5767L231.409 105.419L279.251 57.5767L231.409 9.73438Z"
      fill="#030206" />
    <path
      d="M231.428 10.925L278.069 57.566L231.428 104.263L184.787 57.6214L231.428 10.925ZM231.428 8.5957L182.402 57.6214L231.428 106.648L280.454 57.6214L231.428 8.5957Z"
      fill="#F3FF97" />
    <path d="M225.569 7.72266L177.727 55.5651L225.569 103.408L273.412 55.565L225.569 7.72266Z"
      fill="#030206" />
    <path
      d="M225.553 8.8742L272.194 55.5152L225.553 102.156L178.912 55.5152L225.553 8.8742ZM225.553 6.54492L176.527 55.5706L225.553 104.597L274.579 55.5706L225.553 6.54492Z"
      fill="#F3FF97" />
    <path d="M219.623 5.9375L171.781 53.7799L219.623 101.622L267.465 53.7799L219.623 5.9375Z"
      fill="#030206" />
    <path
      d="M219.62 7.0988L266.261 53.7399L219.62 100.381L172.979 53.7399L219.62 7.0988ZM219.62 4.76953L170.594 53.7953L219.62 102.821L268.645 53.7953L219.62 4.76953Z"
      fill="#F3FF97" />
    <path d="M213.584 4.46484L165.742 52.3072L213.584 100.15L261.427 52.3072L213.584 4.46484Z"
      fill="#030206" />
    <path
      d="M213.573 5.60076L260.214 52.2418L213.573 98.9382L166.932 52.2972L213.573 5.60076ZM213.573 3.27148L164.547 52.2972L213.573 101.323L262.598 52.2972L213.573 3.27148Z"
      fill="#F3FF97" />
    <path d="M207.527 3.23633L159.684 51.0787L207.527 98.921L255.369 51.0787L207.527 3.23633Z"
      fill="#030206" />
    <path
      d="M207.526 4.43747L254.167 51.0785L207.526 97.7195L160.885 51.0785L207.526 4.43747ZM207.526 2.05273L158.5 51.0785L207.526 100.104L256.552 51.0785L207.526 2.05273Z"
      fill="#F3FF97" />
    <path d="M201.417 2.29492L153.574 50.1373L201.416 97.9797L249.259 50.1373L201.417 2.29492Z"
      fill="#030206" />
    <path
      d="M201.428 3.4941L248.069 50.1351L201.428 96.7761L154.787 50.1351L201.428 3.4941ZM201.428 1.10938L152.402 50.1351L201.428 99.1609L250.453 50.1351L201.428 1.10938Z"
      fill="#F3FF97" />
    <path d="M195.257 1.65234L147.414 49.4947L195.257 97.337L243.099 49.4947L195.257 1.65234Z"
      fill="#030206" />
    <path
      d="M195.272 2.82732L241.913 49.4683L195.272 96.1648L148.631 49.5238L195.272 2.82732ZM195.272 0.498047L146.246 49.5238L195.272 98.5495L244.297 49.5238L195.272 0.498047Z"
      fill="#F3FF97" />
    <path d="M189.171 1.27148L141.328 49.1138L189.171 96.9562L237.013 49.1139L189.171 1.27148Z"
      fill="#030206" />
    <path
      d="M189.171 2.44061L235.812 49.0816L189.171 95.7226L142.53 49.0816L189.171 2.44061ZM189.171 0.111328L140.145 49.1371L189.171 98.1628L238.197 49.1371L189.171 0.111328Z"
      fill="#F3FF97" />
    <path d="M182.963 1.20508L135.121 49.0475L182.963 96.8897L230.805 49.0475L182.963 1.20508Z"
      fill="#030206" />
    <path
      d="M182.958 2.38473L229.599 49.0257L182.958 95.6668L136.317 49.0257L182.958 2.38473ZM182.958 0L133.988 49.0257L183.014 98.0515L231.984 49.0257L182.958 0Z"
      fill="#F3FF97" />
    <path d="M176.791 1.37695L128.949 49.2193L176.791 97.0617L224.633 49.2193L176.791 1.37695Z"
      fill="#030206" />
    <path
      d="M176.802 2.54998L223.443 49.191L176.802 95.832L130.161 49.191L176.802 2.54998ZM176.802 0.220703L127.777 49.2465L176.802 98.2722L225.828 49.2465L176.802 0.220703Z"
      fill="#F3FF97" />
    <path d="M170.701 1.83594L122.859 49.6783L170.701 97.5207L218.544 49.6783L170.701 1.83594Z"
      fill="#030206" />
    <path
      d="M170.701 2.99529L217.342 49.6363L170.701 96.2773L124.06 49.6363L170.701 2.99529ZM170.701 0.666016L121.676 49.6918L170.701 98.7175L219.727 49.6918L170.701 0.666016Z"
      fill="#F3FF97" />
    <path d="M164.537 2.58594L116.695 50.4283L164.537 98.2706L212.38 50.4283L164.537 2.58594Z"
      fill="#030206" />
    <path
      d="M164.546 3.77145L211.187 50.4125L164.546 97.0535L117.905 50.4125L164.546 3.77145ZM164.546 1.38672L115.52 50.4125L164.546 99.4382L213.572 50.4125L164.546 1.38672Z"
      fill="#F3FF97" />
    <path d="M158.464 3.63867L110.621 51.4811L158.464 99.3234L206.306 51.4811L158.464 3.63867Z"
      fill="#030206" />
    <path
      d="M158.448 4.77069L205.089 51.4117L158.448 98.0527L111.807 51.4117L158.448 4.77069ZM158.448 2.44141L109.422 51.4672L158.448 100.493L207.473 51.4672L158.448 2.44141Z"
      fill="#F3FF97" />
    <path d="M152.401 4.92188L104.559 52.7642L152.401 100.607L200.243 52.7642L152.401 4.92188Z"
      fill="#030206" />
    <path
      d="M152.4 6.09958L199.041 52.7406L152.4 99.3816L105.759 52.7406L152.4 6.09958ZM152.4 3.71484L103.375 52.7406L152.4 101.767L201.426 52.7406L152.4 3.71484Z"
      fill="#F3FF97" />
    <path d="M146.428 6.51758L98.5859 54.36L146.428 102.203L194.271 54.36L146.428 6.51758Z"
      fill="#030206" />
    <path
      d="M146.412 7.6535L193.053 54.2945L146.412 100.935L99.7715 54.2945L146.412 7.6535ZM146.412 5.32422L97.3867 54.3499L146.412 103.375L195.438 54.3499L146.412 5.32422Z"
      fill="#F3FF97" />
    <path d="M140.472 8.36133L92.6289 56.2037L140.472 104.046L188.313 56.2037L140.472 8.36133Z"
      fill="#030206" />
    <path
      d="M140.478 9.53904L187.119 56.18L140.478 102.876L93.8378 56.2355L140.478 9.53904ZM140.478 7.1543L91.4531 56.18L140.478 105.206L189.504 56.18L140.478 7.1543Z"
      fill="#F3FF97" />
    <path d="M134.655 10.4941L86.8125 58.3364L134.655 106.179L182.498 58.3364L134.655 10.4941Z"
      fill="#030206" />
    <path
      d="M134.654 11.6457L181.295 58.2867L134.654 104.927L88.0136 58.2867L134.654 11.6457ZM134.654 9.31641L85.6289 58.3422L134.654 107.368L183.68 58.3422L134.654 9.31641Z"
      fill="#F3FF97" />
    <path d="M128.861 12.8848L81.0195 60.7272L128.861 108.569L176.704 60.7272L128.861 12.8848Z"
      fill="#030206" />
    <path
      d="M128.885 14.0871L175.526 60.7281L128.885 107.369L82.2441 60.7281L128.885 14.0871ZM128.885 11.7578L79.8594 60.7836L128.885 109.809L177.911 60.7836L128.885 11.7578Z"
      fill="#F3FF97" />
    <path d="M123.174 15.623L75.332 63.4653L123.174 111.308L171.016 63.4653L123.174 15.623Z"
      fill="#030206" />
    <path
      d="M123.174 16.8028L169.87 63.4438L123.229 110.085L76.5324 63.4438L123.174 16.8028ZM123.174 14.418L74.2031 63.4438L123.229 112.469L172.255 63.4438L123.174 14.418Z"
      fill="#F3FF97" />
    <path d="M117.631 18.5938L69.7891 66.4362L117.631 114.279L165.474 66.4362L117.631 18.5938Z"
      fill="#030206" />
    <path
      d="M117.627 19.7433L164.268 66.3843L117.627 113.025L70.9863 66.3843L117.627 19.7433ZM117.627 17.4141L68.6016 66.4398L117.627 115.466L166.653 66.4398L117.627 17.4141Z"
      fill="#F3FF97" />
    <path d="M112.201 21.8438L64.3594 69.6861L112.201 117.528L160.044 69.6861L112.201 21.8438Z"
      fill="#030206" />
    <path
      d="M112.194 23.0148L158.835 69.6558L112.194 116.352L65.5527 69.7113L112.194 23.0148ZM112.194 20.6855L63.168 69.7113L112.194 118.737L161.22 69.7113L112.194 20.6855Z"
      fill="#F3FF97" />
    <path d="M106.807 25.3848L58.9648 73.2271L106.807 121.07L154.649 73.2271L106.807 25.3848Z"
      fill="#030206" />
    <path
      d="M106.814 26.5644L153.455 73.2054L106.814 119.846L60.173 73.2054L106.814 26.5644ZM106.814 24.1797L57.8438 73.2054L106.87 122.231L155.895 73.2054L106.814 24.1797Z"
      fill="#F3FF97" />
    <path d="M101.643 29.1797L53.8008 77.0221L101.643 124.865L149.486 77.0221L101.643 29.1797Z"
      fill="#030206" />
    <path
      d="M101.655 30.3906L148.296 77.0316L101.655 123.728L55.0137 77.0871L101.655 30.3906ZM101.655 28.0059L52.6289 77.0316L101.655 126.057L150.68 77.0316L101.655 28.0059Z"
      fill="#F3FF97" />
    <path d="M96.6041 33.2793L48.7617 81.1216L96.6041 128.964L144.446 81.1216L96.6041 33.2793Z"
      fill="#030206" />
    <path
      d="M96.6078 34.496L143.249 81.137L96.6078 127.778L49.9668 81.137L96.6078 34.496ZM96.6078 32.1113L47.582 81.137L96.6078 130.163L145.633 81.137L96.6078 32.1113Z"
      fill="#F3FF97" />
    <path d="M91.6862 37.6875L43.8438 85.5298L91.6862 133.372L139.529 85.5298L91.6862 37.6875Z"
      fill="#030206" />
    <path
      d="M91.6742 38.8215L138.315 85.4625L91.6742 132.159L45.0332 85.5179L91.6742 38.8215ZM91.6742 36.4922L42.6484 85.5179L91.6742 134.544L140.7 85.5179L91.6742 36.4922Z"
      fill="#F3FF97" />
    <path d="M86.9752 42.3359L39.1328 90.1783L86.9752 138.02L134.817 90.1783L86.9752 42.3359Z"
      fill="#030206" />
    <path
      d="M86.9594 43.4797L133.601 90.1207L86.9594 136.762L40.3184 90.1207L86.9594 43.4797ZM86.9594 41.1504L37.9336 90.1762L86.9594 139.202L135.985 90.1762L86.9594 41.1504Z"
      fill="#F3FF97" />
    <path d="M82.5221 47.1445L34.6797 94.9869L82.5221 142.829L130.364 94.9869L82.5221 47.1445Z"
      fill="#030206" />
    <path
      d="M82.5218 48.3059L129.162 94.9469L82.5218 141.643L35.8808 95.0023L82.5218 48.3059ZM82.5218 45.9766L33.4961 95.0023L82.5218 144.028L131.547 95.0023L82.5218 45.9766Z"
      fill="#F3FF97" />
    <path d="M78.3071 52.1582L30.4648 100.001L78.3071 147.843L126.149 100.001L78.3071 52.1582Z"
      fill="#030206" />
    <path
      d="M78.3071 53.3515L124.948 99.9925L78.3071 146.634L31.666 99.9925L78.3071 53.3515ZM78.3071 50.9668L29.2812 99.9925L78.3071 149.018L127.332 99.9925L78.3071 50.9668Z"
      fill="#F3FF97" />
    <path d="M74.4244 57.293L26.582 105.135L74.4244 152.978L122.267 105.135L74.4244 57.293Z"
      fill="#030206" />
    <path
      d="M74.4241 58.4542L121.066 105.096L74.4241 151.737L27.7831 105.096L74.4241 58.4542ZM74.4241 56.125L25.3984 105.151L74.4241 154.177L123.45 105.151L74.4241 56.125Z"
      fill="#F3FF97" />
    <path d="M70.7603 62.5918L22.918 110.434L70.7603 158.277L118.602 110.434L70.7603 62.5918Z"
      fill="#030206" />
    <path
      d="M70.768 63.7774L117.409 110.419L70.768 157.06L24.1269 110.419L70.768 63.7774ZM70.768 61.3926L21.7422 110.419L70.768 159.444L119.794 110.419L70.768 61.3926Z"
      fill="#F3FF97" />
    <path d="M67.4361 68.0039L19.5938 115.847L67.4361 163.689L115.279 115.847L67.4361 68.0039Z"
      fill="#030206" />
    <path
      d="M67.436 69.1574L114.077 115.799L67.436 162.44L20.795 115.799L67.436 69.1574ZM67.436 66.8281L18.4102 115.854L67.436 164.88L116.462 115.854L67.436 66.8281Z"
      fill="#F3FF97" />
    <path d="M64.3501 73.5723L16.5078 121.414L64.3501 169.257L112.193 121.414L64.3501 73.5723Z"
      fill="#030206" />
    <path
      d="M64.3343 74.7023L110.976 121.343L64.3343 167.984L17.6933 121.343L64.3343 74.7023ZM64.3343 72.373L15.3086 121.399L64.3343 170.425L113.36 121.399L64.3343 72.373Z"
      fill="#F3FF97" />
    <path d="M61.5415 79.1719L13.6992 127.014L61.5415 174.857L109.384 127.014L61.5415 79.1719Z"
      fill="#030206" />
    <path
      d="M61.5609 80.3605L108.202 127.001L61.5609 173.642L14.9199 127.001L61.5609 80.3605ZM61.5609 78.0312L12.5352 127.057L61.5609 176.082L110.586 127.057L61.5609 78.0312Z"
      fill="#F3FF97" />
    <path d="M59.0572 84.9199L11.2148 132.763L59.0572 180.605L106.899 132.763L59.0572 84.9199Z"
      fill="#030206" />
    <path
      d="M59.0648 86.1269L105.706 132.768L59.0648 179.409L12.3683 132.768L59.0648 86.1269ZM59.0648 83.7422L10.0391 132.768L59.0648 181.793L108.091 132.768L59.0648 83.7422Z"
      fill="#F3FF97" />
    <path d="M56.8346 90.7344L8.99219 138.577L56.8346 186.419L104.677 138.577L56.8346 90.7344Z"
      fill="#030206" />
    <path
      d="M56.846 91.9511L103.487 138.592L56.846 185.233L10.1496 138.592L56.846 91.9511ZM56.846 89.5664L7.82031 138.592L56.846 187.618L105.872 138.592L56.846 89.5664Z"
      fill="#F3FF97" />
    <path d="M54.8658 96.6895L7.02344 144.532L54.8658 192.375L102.708 144.532L54.8658 96.6895Z"
      fill="#030206" />
    <path
      d="M54.85 97.8293L101.491 144.47L54.85 191.111L8.20896 144.47L54.85 97.8293ZM54.85 95.5L5.82422 144.525L54.85 193.551L103.876 144.525L54.85 95.5Z"
      fill="#F3FF97" />
    <path d="M53.1705 102.629L5.32812 150.471L53.1705 198.313L101.013 150.471L53.1705 102.629Z"
      fill="#030206" />
    <path
      d="M53.1859 103.82L99.8269 150.461L53.1859 197.102L6.5449 150.461L53.1859 103.82ZM53.1859 101.436L4.16016 150.461L53.1859 199.487L102.211 150.461L53.1859 101.436Z"
      fill="#F3FF97" />
    <path d="M51.7954 108.662L3.95312 156.504L51.7954 204.347L99.6378 156.504L51.7954 108.662Z"
      fill="#030206" />
    <path
      d="M51.7991 109.864L98.4402 156.505L51.7991 203.202L5.15818 156.505L51.7991 109.864ZM51.7991 107.48L2.77344 156.505L51.7991 205.531L100.824 156.505L51.7991 107.48Z"
      fill="#F3FF97" />
    <path d="M50.6978 114.75L2.85547 162.592L50.6978 210.434L98.5402 162.592L50.6978 114.75Z"
      fill="#030206" />
    <path
      d="M50.6898 115.909L97.3308 162.55L50.6898 209.191L4.04879 162.55L50.6898 115.909ZM50.6898 113.58L1.66406 162.606L50.6898 211.632L99.7156 162.606L50.6898 113.58Z"
      fill="#F3FF97" />
    <path d="M49.8579 120.85L2.01562 168.692L49.8579 216.535L97.7003 168.692L49.8579 120.85Z"
      fill="#030206" />
    <path
      d="M49.8578 122.011L96.4988 168.652L49.8578 215.293L3.21677 168.652L49.8578 122.011ZM49.8578 119.682L0.832031 168.707L49.8578 217.733L98.8836 168.707L49.8578 119.682Z"
      fill="#F3FF97" />
    <path d="M49.315 126.996L1.47266 174.839L49.315 222.681L97.1574 174.839L49.315 126.996Z"
      fill="#030206" />
    <path
      d="M49.3031 128.165L95.9441 174.806L49.3031 221.503L2.66208 174.862L49.3031 128.165ZM49.3031 125.836L0.277344 174.862L49.3031 223.888L98.3288 174.862L49.3031 125.836Z"
      fill="#F3FF97" />
    <path d="M48.9986 133.111L1.15625 180.953L48.9986 228.796L96.841 180.953L48.9986 133.111Z"
      fill="#030206" />
    <path
      d="M49.0258 134.321L95.6668 180.962L49.0258 227.603L2.38474 180.962L49.0258 134.321ZM49.0258 131.992L0 181.017L49.0258 230.043L98.0515 181.017L49.0258 131.992Z"
      fill="#F3FF97" />
    <path d="M49.0338 139.309L1.19141 187.152L49.0338 234.994L96.8762 187.152L49.0338 139.309Z"
      fill="#030206" />
    <path
      d="M49.0258 140.477L95.6668 187.118L49.0258 233.759L2.38474 187.118L49.0258 140.477ZM49.0258 138.148L0 187.174L49.0258 236.199L98.0515 187.174L49.0258 138.148Z"
      fill="#F3FF97" />
    <path d="M49.2759 145.426L1.43359 193.269L49.2759 241.111L97.1183 193.269L49.2759 145.426Z"
      fill="#030206" />
    <path
      d="M49.3031 146.634L95.9441 193.275L49.3031 239.917L2.66208 193.275L49.3031 146.634ZM49.3031 144.305L0.277344 193.331L49.3031 242.357L98.3288 193.331L49.3031 144.305Z"
      fill="#F3FF97" />
    <path d="M49.8463 151.578L2.00391 199.421L49.8463 247.263L97.6886 199.421L49.8463 151.578Z"
      fill="#030206" />
    <path
      d="M49.8578 152.789L96.4988 199.43L49.8578 246.071L3.21677 199.43L49.8578 152.789ZM49.8578 150.404L0.832031 199.43L49.8578 248.456L98.8836 199.43L49.8578 150.404Z"
      fill="#F3FF97" />
    <path d="M50.6705 157.688L2.82812 205.531L50.6705 253.372L98.5129 205.531L50.6705 157.688Z"
      fill="#030206" />
    <path
      d="M50.6898 158.891L97.3308 205.532L50.6898 252.173L4.04879 205.532L50.6898 158.891ZM50.6898 156.506L1.66406 205.532L50.6898 254.558L99.7156 205.532L50.6898 156.506Z"
      fill="#F3FF97" />
    <path d="M51.7994 163.785L3.95703 211.627L51.7994 259.47L99.6417 211.627L51.7994 163.785Z"
      fill="#030206" />
    <path
      d="M51.7991 164.934L98.4402 211.575L51.7991 258.216L5.15818 211.63L51.7991 164.934ZM51.7991 162.605L2.77344 211.63L51.7991 260.656L100.824 211.63L51.7991 162.605Z"
      fill="#F3FF97" />
    <path d="M53.1978 169.832L5.35547 217.675L53.1978 265.517L101.04 217.675L53.1978 169.832Z"
      fill="#030206" />
    <path
      d="M53.1859 170.979L99.8269 217.62L53.1859 264.261L6.5449 217.62L53.1859 170.979ZM53.1859 168.65L4.16016 217.676L53.1859 266.701L102.211 217.676L53.1859 168.65Z"
      fill="#F3FF97" />
    <path d="M54.8385 175.787L6.99609 223.63L54.8385 271.472L102.681 223.63L54.8385 175.787Z"
      fill="#030206" />
    <path
      d="M54.85 176.97L101.491 223.611L54.85 270.307L8.20896 223.666L54.85 176.97ZM54.85 174.641L5.82422 223.666L54.85 272.692L103.876 223.666L54.85 174.641Z"
      fill="#F3FF97" />
    <path d="M56.8424 181.682L9 229.524L56.8424 277.366L104.685 229.524L56.8424 181.682Z"
      fill="#030206" />
    <path
      d="M56.846 182.849L103.487 229.49L56.846 276.131L10.1496 229.546L56.846 182.849ZM56.846 180.52L7.82031 229.546L56.846 278.572L105.872 229.546L56.846 180.52Z"
      fill="#F3FF97" />
    <path d="M59.0572 187.518L11.2148 235.361L59.0572 283.203L106.899 235.361L59.0572 187.518Z"
      fill="#030206" />
    <path
      d="M59.0648 188.727L105.706 235.368L59.0648 282.009L12.3683 235.368L59.0648 188.727ZM59.0648 186.342L10.0391 235.368L59.0648 284.394L108.091 235.368L59.0648 186.342Z"
      fill="#F3FF97" />
    <path d="M61.5768 193.291L13.7344 241.133L61.5768 288.975L109.419 241.133L61.5768 193.291Z"
      fill="#030206" />
    <path
      d="M61.5609 194.438L108.202 241.079L61.5609 287.72L14.9199 241.079L61.5609 194.438ZM61.5609 192.109L12.5352 241.135L61.5609 290.16L110.586 241.135L61.5609 192.109Z"
      fill="#F3FF97" />
    <path d="M64.3267 198.918L16.4844 246.761L64.3267 294.603L112.169 246.761L64.3267 198.918Z"
      fill="#030206" />
    <path
      d="M64.3343 200.096L110.976 246.737L64.3343 293.378L17.6933 246.737L64.3343 200.096ZM64.3343 197.711L15.3086 246.737L64.3343 295.763L113.36 246.737L64.3343 197.711Z"
      fill="#F3FF97" />
    <path d="M67.4282 204.436L19.5859 252.279L67.4282 300.121L115.27 252.279L67.4282 204.436Z"
      fill="#030206" />
    <path
      d="M67.436 205.643L114.077 252.284L67.436 298.925L20.795 252.284L67.436 205.643ZM67.436 203.258L18.4102 252.284L67.436 301.31L116.462 252.284L67.436 203.258Z"
      fill="#F3FF97" />
    <path d="M70.7759 209.883L22.9336 257.726L70.7759 305.568L118.618 257.726L70.7759 209.883Z"
      fill="#030206" />
    <path
      d="M70.768 211.02L117.409 257.661L70.768 304.302L24.1269 257.661L70.768 211.02ZM70.768 208.691L21.7422 257.717L70.768 306.743L119.794 257.717L70.768 208.691Z"
      fill="#F3FF97" />
    <path d="M74.4126 215.135L26.5703 262.978L74.4126 310.82L122.255 262.978L74.4126 215.135Z"
      fill="#030206" />
    <path
      d="M74.4241 216.345L121.066 262.986L74.4241 309.683L27.7831 263.042L74.4241 216.345ZM74.4241 213.961L25.3984 262.986L74.4241 312.012L123.45 262.986L74.4241 213.961Z"
      fill="#F3FF97" />
    <path d="M78.3111 220.307L30.4688 268.15L78.3111 315.992L126.154 268.15L78.3111 220.307Z"
      fill="#030206" />
    <path
      d="M78.3071 221.503L124.948 268.144L78.3071 314.785L31.666 268.144L78.3071 221.503ZM78.3071 219.119L29.2812 268.144L78.3071 317.17L127.332 268.144L78.3071 219.119Z"
      fill="#F3FF97" />
    <path d="M82.5104 225.281L34.668 273.123L82.5104 320.965L130.353 273.123L82.5104 225.281Z"
      fill="#030206" />
    <path
      d="M82.5218 226.494L129.162 273.135L82.5218 319.776L35.8808 273.135L82.5218 226.494ZM82.5218 224.109L33.4961 273.135L82.5218 322.16L131.547 273.135L82.5218 224.109Z"
      fill="#F3FF97" />
    <path d="M86.9439 230.133L39.1016 277.976L86.9439 325.818L134.786 277.976L86.9439 230.133Z"
      fill="#030206" />
    <path
      d="M86.9594 231.319L133.601 277.96L86.9594 324.657L40.3184 278.016L86.9594 231.319ZM86.9594 228.99L37.9336 278.016L86.9594 327.041L135.985 278.016L86.9594 228.99Z"
      fill="#F3FF97" />
    <path d="M91.6705 234.795L43.8281 282.637L91.6705 330.48L139.513 282.637L91.6705 234.795Z"
      fill="#030206" />
    <path
      d="M91.6742 235.978L138.315 282.619L91.6742 329.316L45.0332 282.675L91.6742 235.978ZM91.6742 233.594L42.6484 282.619L91.6742 331.645L140.7 282.619L91.6742 233.594Z"
      fill="#F3FF97" />
    <path d="M96.5963 239.145L48.7539 286.987L96.5963 334.829L144.439 286.987L96.5963 239.145Z"
      fill="#030206" />
    <path
      d="M96.6078 240.36L143.249 287.001L96.6078 333.642L49.9668 287.001L96.6078 240.36ZM96.6078 237.975L47.582 287.001L96.6078 336.027L145.633 287.001L96.6078 237.975Z"
      fill="#F3FF97" />
    <path d="M101.655 243.246L53.8125 291.088L101.655 338.931L149.498 291.088L101.655 243.246Z"
      fill="#030206" />
    <path
      d="M101.655 244.407L148.296 291.048L101.655 337.744L55.0137 291.103L101.655 244.407ZM101.655 242.078L52.6289 291.103L101.655 340.129L150.68 291.103L101.655 242.078Z"
      fill="#F3FF97" />
    <path d="M106.831 247.096L58.9883 294.938L106.831 342.78L154.673 294.938L106.831 247.096Z"
      fill="#030206" />
    <path
      d="M106.814 248.233L153.455 294.874L106.814 341.515L60.173 294.874L106.814 248.233ZM106.814 245.904L57.8438 294.93L106.87 343.955L155.895 294.93L106.814 245.904Z"
      fill="#F3FF97" />
    <path d="M112.167 250.57L64.3242 298.412L112.167 346.255L160.009 298.412L112.167 250.57Z"
      fill="#030206" />
    <path
      d="M112.194 251.783L158.835 298.424L112.194 345.12L65.5527 298.479L112.194 251.783ZM112.194 249.453L63.168 298.479L112.194 347.505L161.22 298.479L112.194 249.453Z"
      fill="#F3FF97" />
    <path d="M117.62 253.852L69.7773 301.695L117.62 349.537L165.462 301.695L117.62 253.852Z"
      fill="#030206" />
    <path
      d="M117.627 255.057L164.268 301.698L117.627 348.339L70.9863 301.698L117.627 255.057ZM117.627 252.672L68.6016 301.698L117.627 350.724L166.653 301.698L117.627 252.672Z"
      fill="#F3FF97" />
    <path d="M123.182 256.863L75.3398 304.706L123.182 352.548L171.024 304.706L123.182 256.863Z"
      fill="#030206" />
    <path
      d="M123.174 257.995L169.87 304.691L123.229 351.332L76.5324 304.691L123.174 257.995ZM123.174 255.666L74.2031 304.691L123.229 353.717L172.255 304.691L123.174 255.666Z"
      fill="#F3FF97" />
    <path d="M128.901 259.549L81.0586 307.391L128.901 355.233L176.743 307.391L128.901 259.549Z"
      fill="#030206" />
    <path
      d="M128.885 260.712L175.526 307.353L128.885 354.05L82.2441 307.409L128.885 260.712ZM128.885 258.383L79.8594 307.409L128.885 356.435L177.911 307.409L128.885 258.383Z"
      fill="#F3FF97" />
    <path d="M134.643 261.949L86.8008 309.791L134.643 357.634L182.486 309.791L134.643 261.949Z"
      fill="#030206" />
    <path
      d="M134.654 263.153L181.295 309.794L134.654 356.435L88.0136 309.794L134.654 263.153ZM134.654 260.768L85.6289 309.794L134.654 358.82L183.68 309.794L134.654 260.768Z"
      fill="#F3FF97" />
    <path d="M140.491 264.127L92.6484 311.97L140.491 359.812L188.333 311.97L140.491 264.127Z"
      fill="#030206" />
    <path
      d="M140.478 265.261L187.119 311.902L140.478 358.599L93.8378 311.958L140.478 265.261ZM140.478 262.932L91.4531 311.958L140.478 360.984L189.504 311.958L140.478 262.932Z"
      fill="#F3FF97" />
    <path d="M146.401 265.965L98.5586 313.807L146.401 361.649L194.243 313.807L146.401 265.965Z"
      fill="#030206" />
    <path
      d="M146.412 267.146L193.053 313.788L146.412 360.429L99.7715 313.788L146.412 267.146ZM146.412 264.762L97.3867 313.788L146.412 362.813L195.438 313.788L146.412 264.762Z"
      fill="#F3FF97" />
    <path d="M152.412 267.568L104.57 315.41L152.412 363.253L200.254 315.41L152.412 267.568Z"
      fill="#030206" />
    <path
      d="M152.4 268.698L199.041 315.339L152.4 361.98L105.759 315.339L152.4 268.698ZM152.4 266.369L103.375 315.395L152.4 364.421L201.426 315.395L152.4 266.369Z"
      fill="#F3FF97" />
    <path d="M158.44 268.85L110.598 316.692L158.44 364.534L206.283 316.692L158.44 268.85Z"
      fill="#030206" />
    <path
      d="M158.448 270.03L205.089 316.671L158.448 363.312L111.807 316.671L158.448 270.03ZM158.448 267.645L109.422 316.671L158.448 365.697L207.473 316.671L158.448 267.645Z"
      fill="#F3FF97" />
    <path d="M164.557 269.891L116.715 317.733L164.557 365.576L212.399 317.733L164.557 269.891Z"
      fill="#030206" />
    <path
      d="M164.546 271.028L211.187 317.669L164.546 364.31L117.905 317.669L164.546 271.028ZM164.546 268.699L115.52 317.724L164.546 366.75L213.572 317.724L164.546 268.699Z"
      fill="#F3FF97" />
    <path d="M170.687 270.594L122.844 318.437L170.687 366.279L218.529 318.437L170.687 270.594Z"
      fill="#030206" />
    <path
      d="M170.701 271.804L217.342 318.445L170.701 365.142L124.06 318.501L170.701 271.804ZM170.701 269.42L121.676 318.445L170.701 367.471L219.727 318.445L170.701 269.42Z"
      fill="#F3FF97" />
    <path d="M176.822 271.111L128.98 318.953L176.822 366.795L224.664 318.953L176.822 271.111Z"
      fill="#030206" />
    <path
      d="M176.802 272.249L223.443 318.89L176.802 365.531L130.161 318.89L176.802 272.249ZM176.802 269.92L127.777 318.945L176.802 367.971L225.828 318.945L176.802 269.92Z"
      fill="#F3FF97" />
    <path d="M182.964 271.287L135.121 319.129L182.964 366.972L230.806 319.129L182.964 271.287Z"
      fill="#030206" />
    <path
      d="M182.958 272.415L229.599 319.056L182.958 365.697L136.317 319.112L182.958 272.415ZM182.958 270.086L133.988 319.112L183.014 368.137L231.984 319.112L182.958 270.086Z"
      fill="#F3FF97" />
    <path d="M189.148 271.143L141.305 318.985L189.148 366.827L236.99 318.985L189.148 271.143Z"
      fill="#030206" />
    <path
      d="M189.171 272.36L235.812 319.001L189.171 365.697L142.53 319.056L189.171 272.36ZM189.171 269.975L140.145 319.001L189.171 368.027L238.197 319.001L189.171 269.975Z"
      fill="#F3FF97" />
    <path d="M195.292 270.834L147.449 318.677L195.292 366.519L243.134 318.677L195.292 270.834Z"
      fill="#030206" />
    <path
      d="M195.272 271.972L241.913 318.613L195.272 365.254L148.631 318.613L195.272 271.972ZM195.272 269.643L146.246 318.668L195.272 367.694L244.297 318.668L195.272 269.643Z"
      fill="#F3FF97" />
    <path d="M201.428 270.154L153.586 317.997L201.428 365.839L249.271 317.997L201.428 270.154Z"
      fill="#030206" />
    <path
      d="M201.428 271.306L248.069 318.003L201.428 364.644L154.787 318.003L201.428 271.306ZM201.428 268.977L152.402 318.003L201.428 367.029L250.453 318.003L201.428 268.977Z"
      fill="#F3FF97" />
    <path d="M207.522 269.217L159.68 317.06L207.522 364.902L255.365 317.06L207.522 269.217Z"
      fill="#030206" />
    <path
      d="M207.526 270.418L254.167 317.059L207.526 363.7L160.885 317.059L207.526 270.418ZM207.526 268.033L158.5 317.059L207.526 366.085L256.552 317.059L207.526 268.033Z"
      fill="#F3FF97" />
    <path d="M213.565 268.01L165.723 315.853L213.565 363.695L261.408 315.853L213.565 268.01Z"
      fill="#030206" />
    <path
      d="M213.573 269.198L260.214 315.839L213.573 362.48L166.932 315.839L213.573 269.198ZM213.573 266.812L164.547 315.839L213.573 364.864L262.598 315.839L213.573 266.812Z"
      fill="#F3FF97" />
    <path d="M219.596 266.494L171.754 314.336L219.596 362.179L267.438 314.336L219.596 266.494Z"
      fill="#030206" />
    <path
      d="M219.62 267.699L266.261 314.34L219.62 360.981L172.979 314.34L219.62 267.699ZM219.62 265.314L170.594 314.34L219.62 363.366L268.645 314.34L219.62 265.314Z"
      fill="#F3FF97" />
    <path d="M225.53 264.73L177.688 312.572L225.53 360.415L273.372 312.572L225.53 264.73Z"
      fill="#030206" />
    <path
      d="M225.553 265.927L272.194 312.568L225.553 359.209L178.912 312.568L225.553 265.927ZM225.553 263.598L176.527 312.568L225.553 361.594L274.579 312.568L225.553 263.598Z"
      fill="#F3FF97" />
    <path d="M231.445 262.721L183.602 310.564L231.445 358.406L279.287 310.564L231.445 262.721Z"
      fill="#030206" />
    <path
      d="M231.428 263.874L278.069 310.515L231.428 357.212L184.787 310.571L231.428 263.874ZM231.428 261.545L182.402 310.571L231.428 359.597L280.454 310.571L231.428 261.545Z"
      fill="#F3FF97" />
    <path d="M237.257 260.381L189.414 308.224L237.257 356.066L285.099 308.224L237.257 260.381Z"
      fill="#030206" />
    <path
      d="M237.253 261.545L283.894 308.186L237.253 354.827L190.612 308.186L237.253 261.545ZM237.253 259.215L188.227 308.241L237.253 357.267L286.279 308.241L237.253 259.215Z"
      fill="#F3FF97" />
    <path d="M242.972 257.773L195.129 305.615L242.972 353.458L290.814 305.615L242.972 257.773Z"
      fill="#030206" />
    <path
      d="M242.967 258.938L289.608 305.579L242.967 352.22L196.326 305.579L242.967 258.938ZM242.967 256.609L193.941 305.635L242.967 354.66L291.993 305.635L242.967 256.609Z"
      fill="#F3FF97" />
    <path d="M248.572 254.893L200.73 302.735L248.572 350.577L296.415 302.735L248.572 254.893Z"
      fill="#030206" />
    <path
      d="M248.565 256.054L295.206 302.695L248.565 349.336L201.924 302.695L248.565 256.054ZM248.565 253.725L199.539 302.751L248.565 351.776L297.59 302.751L248.565 253.725Z"
      fill="#F3FF97" />
    <path d="M254.069 251.734L206.227 299.577L254.069 347.419L301.911 299.577L254.069 251.734Z"
      fill="#030206" />
    <path
      d="M254.057 252.893L300.698 299.533L254.057 346.174L207.416 299.533L254.057 252.893ZM254.057 250.562L205.031 299.588L254.057 348.614L303.083 299.588L254.057 250.562Z"
      fill="#F3FF97" />
    <path d="M259.409 248.254L211.566 296.096L259.409 343.939L307.251 296.096L259.409 248.254Z"
      fill="#030206" />
    <path
      d="M259.436 249.455L306.077 296.096L259.436 342.737L212.795 296.096L259.436 249.455ZM259.436 247.125L210.41 296.151L259.436 345.177L308.461 296.151L259.436 247.125Z"
      fill="#F3FF97" />
    <path d="M264.639 244.557L216.797 292.399L264.639 340.242L312.482 292.399L264.639 244.557Z"
      fill="#030206" />
    <path
      d="M264.651 245.739L311.292 292.38L264.651 339.076L218.01 292.435L264.651 245.739ZM264.651 243.354L215.625 292.38L264.651 341.405L313.677 292.38L264.651 243.354Z"
      fill="#F3FF97" />
    <path d="M269.745 240.562L221.902 288.404L269.745 336.247L317.587 288.404L269.745 240.562Z"
      fill="#030206" />
    <path
      d="M269.753 241.746L316.394 288.387L269.753 335.028L223.112 288.387L269.753 241.746ZM269.753 239.361L220.727 288.387L269.753 337.413L318.779 288.387L269.753 239.361Z"
      fill="#F3FF97" />
    <path d="M274.73 236.256L226.887 284.098L274.73 331.941L322.572 284.098L274.73 236.256Z"
      fill="#030206" />
    <path
      d="M274.745 237.477L321.386 284.118L274.745 330.759L228.104 284.118L274.745 237.477ZM274.745 235.092L225.719 284.118L274.745 333.144L323.77 284.118L274.745 235.092Z"
      fill="#F3FF97" />
    <path d="M279.515 231.717L231.672 279.559L279.515 327.401L327.357 279.559L279.515 231.717Z"
      fill="#030206" />
    <path
      d="M279.514 232.872L326.155 279.513L279.514 326.155L232.873 279.513L279.514 232.872ZM279.514 230.543L230.488 279.569L279.514 328.595L328.54 279.569L279.514 230.543Z"
      fill="#F3FF97" />
  </g>
  <defs>
    <clipPath id="clip0_3084_5797">
      <rect width="329" height="369" fill="white" />
    </clipPath>
  </defs>
</svg>
