<svg xmlns="http://www.w3.org/2000/svg" width="40" height="40" fill="none" xmlns:v="https://vecta.io/nano"><g clip-path="url(#A)"><path d="M20 40c11.046 0 20-8.954 20-20S31.046 0 20 0 0 8.954 0 20s8.954 20 20 20z" fill="#988430"/><path d="M20 39.359c10.692 0 19.359-8.667 19.359-19.359S30.692.641 20 .641.641 9.308.641 20 9.308 39.359 20 39.359z" fill="#7a6a2a"/><path d="M20 38.952c10.467 0 18.952-8.485 18.952-18.952S30.467 1.049 20 1.049 1.049 9.533 1.049 20 9.533 38.952 20 38.952z" fill="#ba9f33"/><g fill-rule="evenodd"><g fill="#cfb66c"><path d="M8.744 17.864l-.343-.311-.336-.311-.337-.32-.168-.159-.175-.152-1.337-1.272 1.359 1.256.159.159.168.159.336.311.337.32.337.32h0zM2.816 17.8l2.417.281 3.032.456-5.45-.738zm0 0l1.369.136.68.071.343.039.337.049 1.359.217.679.113.68.12-.68-.087-.679-.097-1.359-.2-.337-.055-.343-.039-.68-.081-1.369-.184h0zm5.288 1.161l-2.32.609-2.32.689 4.641-1.298h0z"/><path d="M8.103 18.961l-1.159.327-1.159.311-1.152.337-.576.159-.582.159.576-.185.576-.184 1.152-.353 1.168-.295 1.155-.275h0zm-4.398 2.366c.191-.071 2.391-1.097 2.903-1.336.256-.12 1-.384 1-.384l-3.903 1.72z"/><path d="M3.706 21.327c.168-.064.327-.142.489-.217l.479-.223.961-.463.961-.463c.168-.071.337-.129.505-.184l.256-.081.256-.071-.977.43-.977.431-.977.43-.975.411h0zm.213.896l2.679-1.544 1.521-.777-4.201 2.32z"/><path d="M3.919 22.223l1.023-.631.512-.311.521-.304.521-.304a1.87 1.87 0 0 1 .265-.136l.272-.136 1.097-.505-1.049.592-.528.282-.521.295-.521.294-.528.288-1.065.576h0zm4.184-2.065l-1.641 1.256-1.583 1.159 3.223-2.414z"/></g><path d="M15.217 27.832l-.634-1.201.369-1.502 2.631-1.016-1.12-2.298.553-2.32 1.039-2.078 3.21-.505 2.359-2.249 5.094.385 1 5.447-1.925 6.858-1.097 3.55-4.447.168-2.065-1.43-2.418-1.01-2.55-.799z" fill="#e2cc85"/><path d="M23.016 27.793s-.615.282-1.664.217c-.304-.408-2.43-.599-2.43-.599s-.265-.081-.735.113-.919.168-1.336.272-.832-.44-1.152-.553c-.32-.12-.744-.408-.744-.408l-.896-.087-1.799-.761-2.858-2.848-.777 1.216-.24 1.505.864 1.783 2.327 2.12 4.537 1.152 2.689-.792 3.369-1.424.845-.906h0z" fill="#f1d789"/><path d="M6.896 17.728l.576-1.744.686-1.126 2.21-.184-.663 1.935-1.848 3.288.767 2.935-1.359.679-.418-.641-.336-1.469-.023-1.65.408-2.023z" fill="#f4ecb4"/><path d="M9.375 27.673l-.424-.592s-.113-.282-.048-.527.055-.265.023-.359-.304-.418-.288-.696-.023-.375.184-.599c.217-.217.152-.592.152-.592l.282.175.064-.097s.103.081.103.207c.023-.175-.071-.984.142-1.168s.592.864.592.864l-.233-1.521-.599-1.56-1.065-1.424-.064-1.57v-.136s-.489.751-.625 1.344c-.097.408.136.903.087 1.489-.039.583-.087.537.055.768s.489.706.353 1.049c-.12.295-.528.087-.528.087s-.081.239-.191.327c-.039-.142-.081-.233-.159-.32-.007.055-.023.13-.023.13l-.143-.505-.294-1.136-.136.615.055.712.265.977.256.64.249.783.217.526.175.401.152.903.734.777.392.175.285-.146h0z" fill="#f3e19d"/><path d="M7.281 16.304s-.528.896-.679 1.799-.288 1.858-.192 3.087c.097 1.24.282 2 .43 2.544.256.903.919 2.159.919 2.159l.023-.049a3.41 3.41 0 0 1-.265-.663c-.087-.343-.12-.751-.201-.935-.071-.184-.191-.343-.249-.57-.055-.217-.064-.56-.233-.815-.071-.104-.159-.375-.185-.647-.032-.408.016-.864-.023-1.239-.071-.625-.12-1.049-.055-1.376s.401-1.255.609-1.993c.136-.473.055-.871.304-1.282s.402-.767.456-1.016c.064-.226-.66.997-.66.997h.001z" fill="#f2e8b0"/><path d="M9.783 15.945s-.272.081-.401.223c-.129.136-.185.249-.359.479s-.185.417-.327.705c-.142.282-.456.706-.495.858s-.103.864-.184 1.201c-.071.337.081.751.081.751l.184-.039s0 .239.185.401.217-.537.217-.537l.689-2.327 1.039-.705.113-.57-.741-.44h0z" fill="#f5eec0"/><path d="M10.288 17s-.489.032-.728.207c-.097.071-.136.129-.239.217-.191.159-.385.304-.479.512-.104.207-.217.521-.295 1.113l-.055.68c-.032.272-.081.489-.055.64.032.311.353.473.384.825l.663-.336.625-2.463 1.327-.832-.751-.841-.398.277.001.002z" fill="#e6db9d"/><path d="M6.788 33.585l.008-.074.184-1.857c.103-.56.175-.768.159-.977-.023-.337-.048-.582-.016-.841.048-.343.385-.751.375-1.032-.007-.223-.12-.369-.217-.505l-.175-.249s.663-.456.657-2.295c.014.004.027.009.039.016l.327.929.223.272.858 1.599 1.104 1.071 1.631 1.097 1.023 1.113.103 2.968-1.336 1.735-.219.396a19.01 19.01 0 0 1-4.728-3.365h0z" fill="#e5cb7a"/><path d="M10.871 36.424s.023-.369.327-.608c.049.081.081.159.071.217.055-.097.44-.718 1.311-.88s1.081-.793 1.081-.793l1.848-1.68 2.113-1.945 2.57-.903 1.201-.295s.023.087-.023.282c.223-.016.718-.129 1.233-.311.207-.081.401-.113.505-.006.152.142.175.479.184.679.249-.055.537-.294.768-.272.369.039.696.473 1.071.473.495 0 .718-.304 1.065-.544l.673-.44c.401-.295 4.647-1.592 4.647-1.592l1.489.097.239 1.599-.128 4.179-.048.046-6.769 3.535-9.382 1.438a18.82 18.82 0 0 1-5.998-2.063l-.048-.213h-.001z" fill="#d8c173"/><path d="M7.357 34.117l.274-.595.109.929-.383-.334h0z" fill="#f1d789"/><path d="M14.211 38.05l1.213-.337.104.032s.055.032.055.142c.152-.087.282-.071.376-.129.048.103.097.447.311.489.223.049.463-.097.706-.281.239-.191.512-.43.718-.528.076.139.143.283.201.43.272-.217.744-1.097 1.417-1.081.195-.46.52-.852.935-1.129.625-.424 1.016-.456 1.505-.417a2.57 2.57 0 0 1 .706-.631c.081.032.304.168.583.039s.599-.631 1.016-.696a.98.98 0 0 1 .647.136s1.216-1.207 2.055-1.608c-.032-.097-.097-.463.887-1.272.055.049.016.184.055.192.016 0 .256-.104.56-.337.375-.281.825-.576 1.097-.657.512-.152 1.055.159 1.055.159.046-.032.098-.056.152-.071l.294-.064c-.006.168.087.456 0 .706a1.57 1.57 0 0 0 .32.136c-.055.12-.175.424-.375.57.168.081.191.175.43.256-.097.136-.256.369-.327.512l-.44 1.023-.359.768c-.078.088-.359.463-.576.647.192-.071.977-.311 1.311-.401l-1.085 1.609a18.99 18.99 0 0 1-15.546 1.8l.002-.003z" fill="#e0cd81"/><path d="M10.368 16.913s-.281 0-.336.039.282.12.385.159.327.217.385.359c.055.136 2.023.929 2.023.929l1.392-.071.48-.663-.913-.799.64-1.887-.848.136-2.039 1.216-1.023.392-.146.191z" fill="#dfc57c"/><path d="M13.424 17.537a.22.22 0 0 0 .082.077c.034.018.072.027.11.026.288 0 .553.071.663.217.184.233.696.977.696.977l1.223.44.079-1.44-1.337-.929-1.521.56v.071h.003.001z" fill="#e5cc7c"/><path d="M13.184 18.071s.223.016.505-.088.744-.327.945-.239c.281.12.223.495.527.832.184.207.521.201.712.424s.848.12.848.12l.249 1.344-1 1.282-.327 1.592h-1.352l-1.235-.49-.608-1.472.304-1.489.432-1.816z" fill="#d2c281"/><path d="M15.8 18.136c.034.01.068.016.103.016-.039.032-.12.104-.087.288s.136.418.049.56a.7.7 0 0 1 .152.265c.055.159.071.304.43.327a.76.76 0 0 0-.142.113s.249.217.375.417c.129-.006.472-.112.472-.112l.071.049.152-.064s-.142-.055-.039-.401c.097-.304.185-.288.192-.311s.071-.343.071-.473c.048-.168.087-.68.087-.68l-.103-1.129-.582-.353-.474-.457-.447.841-.294.293-.023.728.035.081z" fill="#e2c270"/><path d="M17.201 17.191a3.95 3.95 0 0 0 .142.521.5.5 0 0 0 .023-.136l.097.631c.032-.007.064-.016.071.016s.081.392.064.592c.135-.222.321-.409.544-.544.13-.081.282-.168.44-.175.249-.006.43.159.728.159.718 0 1.369-.528 1.848-.689.353-.12.657-.207.87-.402.104-.087.288-.281.456-.57.223-.384.456-.718.689-.76a1.45 1.45 0 0 1-.32.023s.071-.071.192-.168.265-.217.472-.217c.369 0 .553.055.761.055.207-.006.327-.055.327-.055s.217.152.706.152c.489.006.816.048 1.071.071s1.113-.071 1.359-.064a1.19 1.19 0 0 1 .463.113l-.793-2.304-2.849-2.49-1.696 1.201-2.609 2.608-2.524.935-.528.592v.903h-.006z" fill="#ccb360"/><path d="M22.864 15.871s.071-.071.191-.168.266-.217.473-.217c.369 0 .553.055.761.055.207-.006.327-.055.327-.055s.217.152.706.152c.489.006.816.048 1.071.071s1.113-.071 1.359-.064c.16.006.318.045.463.113l-.359-1.039-.417-.793-1.191-1.304-1.44-.848c-.006-.006-.495-.136-.495-.136l-1.294.783-1.175 3.039-.023.64.76.359c.191-.32.401-.576.599-.608l-.314.02h0z" fill="#d5b457"/><path d="M22.848 16.087c-.113.006-.207-.016-.233-.097-.097-.272-.175-.311-.256-.311s-.191.175-.256.191-.142-.2-.142-.2l-.071-.032s-.418.272-.712.592-.777.864-.994.961-.961.129-1.216.184-.537.24-.576.282.114.087.136.129-.249.023-.272.064c-.016.032.064.217.104.311a.53.53 0 0 1 .223-.055c.249-.006.43.159.728.159.718 0 1.369-.528 1.848-.69.353-.12.657-.207.871-.401a2.29 2.29 0 0 0 .456-.57c.123-.197.243-.382.363-.518l-.001.001z" fill="#d2b257"/><path d="M12.544 32.104s-.064-.24-.657-.858l-.385-.424c-.282-.266-.447-.337-.647-.489-.44-.327-.919-.327-1.288-.728s-.799-1.168-1.097-1.952l-.375-1.055c0-.023.081-.175.185-.152s.103.223.13.272c.052.079.11.154.175.223.152.175.369.384.479.696-.023-.265-.113-.56-.113-.56l1.055.735c.489.375.689.505.832.744l.64 1.055c.161.184 2.368.88 2.368.88l1.05.783.521 1.142-.408.64-.783.168-1.272-.57-.407-.552h0z" fill="#d2b159"/><path d="M9.719 28.168s.265.424.913.825c.583.353 1.505.673 2.327.864.472.113.945.2 1.369.207 1.142.016 1.929-.311 2.903-.418.527-.055 1.175-.097 1.848-.256.864-.207 1.375-.44 2.071-.768l1.343-.631c.527-.311.913-.657 1.359-.76-.055.152-.113.424-.553.705l.553-.023s-.311.184-.858.599c-.337.256-.783.689-1.239.977-.295.185-.615.32-.825.43-.512.282-.718.424-1.055.768.12-.006.13 0 .13 0s-.424.055-.728.217c-.064 0-.175-.023-.369.032-.152.048-.353.159-.56.217-.295.087-.391.049-.391.049l.048.097s-.384-.007-.512.006c.023.006.016.016.016.016-.023.004-.044.011-.064.023-.062.04-.129.069-.2.087l-.12.016c.016.039.142.256.201.384-.049.032-.777.583-.777.583a.55.55 0 0 1 .055.113c.023.071.032.175.055.223.055.097.087.113.087.113l-.239.055c-.129.032-.288.087-.512.12-.069.009-.138.014-.207.016.032.071.175.343-.087.657s-.343.359-.424.56c-.041-.031-.084-.058-.13-.081-.087-.039-.207-.097-.249-.175a2.08 2.08 0 0 1-.097.304c-.081.217-.2.43-.223.592-.087-.097-.249-.288-.473-.249s-.401.343-.44.431c0-.055-.039-.097-.048-.032-.007.071-.13.815-.816 1.417l-.023-.599c-.064.064-.142.158-.608.359-.456.201-.384.401-.384.401s-.039-.32.207-.657l.401-.521c-.004-.026-.015-.051-.032-.071-.032-.032-.097-.071-.097-.097.039-.016.424-.201.401-.583-.023-.343-.168-.521-.272-.647-.016-.016.152-.136.13-.175-.016-.023-.223-.175-.249-.256.006-.048.017-.096.032-.142.023-.071.039-.12.032-.168-.016-.081-.104-.304-.13-.327.023.006.184 0 .184 0s-.129-.207-.152-.304l-.097-.401c.055.006.191.016.191 0 .007-.049-.12-.13-.064-.192.039.006.113.039.184.13-.039-.104-.103-.304-.24-.385.064-.023.282-.081.473.032s.256.272.256.272l.288.217c.2.159.456.384.864.544.087.049.311.049.472.016.071-.017.138-.044.201-.081a.37.37 0 0 1 .071-.032c-.035-.07-.075-.137-.12-.201.055 0 .12.007.12.007s.039-.087-.136-.256c.039-.039.088-.064.088-.13-.055-.006-.152-.087-.175-.12.032-.023.081-.097.136-.12-.049-.039-.168-.201-.223-.217.053-.02.103-.043.152-.071 0 0-.272-.071-.359-.13-.087-.064-.217-.175-.294-.207s-.223-.048-.282-.113c.055.016.142 0 .207 0 .048 0 .071.006.087.006-.006-.023-.006-.071.12-.087.061-.009.12-.028.175-.055 0 0-.12-.006-.256-.136s-.249-.233-.327-.249-.233.055-.327.048c-.13-.016-.184-.081-.184-.081s-.43.039-1.385-.544c-.825-.505-1.185-.951-1.185-.951-.077-.028-.152-.063-.223-.104-.311-.162-.741-.498-.728-.939l-.002.003z" fill="#c2a44d"/><path d="M21.625 8.744a.42.42 0 0 1 .192.129c.152.175.249.505-.097.858.136.048.192.064.311.048-.12.143-.391.447-.408.712-.016.217.12.282.12.282s-.207.239-.217.64a2.59 2.59 0 0 1 .32-.304 8.5 8.5 0 0 1 .793-.544c-.003.057.005.114.023.168 0 0 .417-.343.768-.191.159.071.087.294.087.294s.217-.081.369.071.367.545.477.697c.048.071.175.207.304.418a5.28 5.28 0 0 1 .44.929c.006-.168.049-.43.528-.265s1.023.521 1.479 1.216.569 1.479.799 1.778c.233.288.473.767.489.968s-.071.848.408 2.599c.136-.544.343-1.751.343-1.751l.113-1.065.13-3.295-3.44-2.858-2.689-1.952-1.751.168.11.249h0z" fill="#caa13e"/><path d="M28.016 13.647s-.049-.32-.858-.864c-.809-.537-1.44-.537-2.023-.993-.447-.359-.913-1.185-1.216-1.456-.295-.269-.343-1.045-.343-1.045l.994-.832 1.477-2.136 1.249-1.375.599.832.832.977.463 1.961.168 2.871-1.344 2.061h.002z" fill="#b59544"/><path d="M29.016 17.088a3.65 3.65 0 0 0-.159-1.288c-.213-.664-.68-1.841-.896-2.283-.088-.489-.023-.527.071-.583s.447-.256.64-.961.793-.728.793-.728l.369-.272.56 1.401.489 1.265.152.968.113.825-.265 1.744-1.31 1.184-.557-1.274h0z" fill="#c89d3a"/><path d="M10.728 36.531v-.036c.027-.017.051-.039.071-.064.023-.032.039-.071.055-.081a.61.61 0 0 1 .265-.049c.081.015.295.103.408.097.233-.006.505-.184.935-.103.647.12.799.56 1.175.809.256.175.521.097.56.097h.087c.016 0 .136-.136.201-.129.13.006.142.113.223.12.191.023.56-.097.745-.048.055.017.104.047.145.088s.071.09.088.145a.36.36 0 0 1-.087.359c-.201.184-.391.359-.43.512a1.81 1.81 0 0 1 .142.12 18.84 18.84 0 0 1-4.582-1.835v-.002z" fill="#ceb052"/><path d="M27.961 30.065l.68-1.007c.175-.344-.553-4.696-.553-4.696l1.463-4.793-.039-1.56s.071-1.44.24-2.065c.201.359.825.793.961 1.023.064-.44.281-1.369.249-2.359.12.184.408 2.039.408 2.039l.288 1.249.375 1.327.417 1.401.249.968.142.233.12.408.113.44.327 1.032.192.848.152 1.537a2.35 2.35 0 0 1 .071.359c.006.168-.023.265-.023.295s.055.369.032.625c-.032.256-.032.456-.233.64s-.327 1.282-.327 1.282l-.359-.239s.071-.327-.097-.625a.63.63 0 0 0-.68-.311c-.184.039-.553.097-.673.201-.113.104-.392.424-.647.57-.32.192-.841.207-1.119.272s-.592.256-.919.479c-.256.166-.527.309-.809.427l-.001.001z" fill="#cca847"/><path d="M27.961 37.136l.063.036a19.01 19.01 0 0 0 6.059-4.491l-.069-1.575c-.055-.528-.016-1.065-.032-1.375s-.191-1.576-.272-1.903c-.087-.327-.256-.489-.282-.489-.023.007-.159.615-.159.768s-.032.521-.032.615c-.023-.007-.032-.064-.032-.087l-.088.24c-.016.016.023-.136 0-.168s-.064-.016-.055-.097c.004-.048.011-.096.023-.142 0 0-.097.142-.168.505l-.097.401c-.023.039-.152.168-.159.217-.006.087.12.175.13.223.006.081-.113.456-.152.64s-.023.544-.064.728c-.032.168-.064.265-.175.337l.158.039s.113.479-.175.887c-.103.142-.129.207-.239.337-.217.239-.385.512-.401.689-.011-.052-.019-.105-.023-.159l-.479.615c-.184.288-.44.272-.512.343s-.087.2-.064.304c-.064.016-.184.039-.265.288-.039.129-.136.256-.288.343s-.337.113-.431.136c.081.023.113.023.152.048-.048.081-.272.207-.521.369a1.09 1.09 0 0 0-.431.521c-.064.136-.159.223-.311.24.064.039.159.129.207.158-.071.016-.192.016-.408.201-.227.188-.304.243-.408.259h-.001z" fill="#c39d3c"/><path d="M23.458 38.636a1.83 1.83 0 0 1 .4-.212c.505-.201 1.039-.239 1.249-.304.201-.064.359-.152.608-.201l-.018.16a18.85 18.85 0 0 1-2.24.556h.001z" fill="#d2ba6b"/><path d="M32.768 25.359s-.103.56-.288.913-.384.841-.384.841a1.54 1.54 0 0 1 .039-.327l-.96.608c-.152.136-.408.375-.473.489l.337-1.032c-.233.168-1.321 1.065-1.887 1.657l-1.764 1.427c-.204.11-.413.208-.628.294l-.929.343a1.47 1.47 0 0 1 .343-.521c.168-.159.673-.706.751-.96.071-.265.088-.424-.006-.647-.087.023-.288.033-.424.071s-.282.184-.282.184.104-.592.327-1.152c-.168.006-.456.055-.456.055s.401-.673 1.088-1.142c-.21.045-.416.109-.615.191l-1.168.553c.184-.256 1.479-2.104 2.249-3.825s1.055-2.158 1.223-3.081c.087-.456.064-1.131.087-1.735.023-.599.097-1.136.049-1.495.201.249.951.951.977 2.521s-.718 3.689-1.505 4.832c.192.055.69.12 1.201-.768s.505-1.136.689-1.505c.023.184.016.249.016.249s.745-.903 1.097-2.039c.071.489.282.919-.049 1.816-.294.809-.68 1.007-.68 1.007s.191-.032.472-.201c.049.12.039.256.12.304s.191.129.207.207c.087-.13.223-.295.265-.418-.032.256-.055 1.375.064 1.945.249-.023.505-.039.68-.489a2 2 0 0 0-.039 1.081c.133-.09.252-.252.252-.252h.001z" fill="#c0993a"/><path d="M24.359 7.521s-.249.103-.673.103c-.369 0-.265-.142-.841-.142-.887 0-3.984.512-4.528.505-.353-.006 1.191.152 1.191.152l3.945.055.793-.064.295-.599-.181-.01z" fill="#a88f33"/><path d="M14.129 15.233s-.505.385-.719.68-.327.489-.57.728c.057.002.114-.005.168-.023 0 0 0 .064-.039.081.034-.004.067 0 .099.011s.061.029.085.053c-.071.039-.265.233-.113.463a.5.5 0 0 0 .353.191s-.055.159.175.143c.495-.023 1.049-.239 1.304-.184.256.064.402.087.583.401.192.311.359.359.359.359s.113-.288.088-.719a2.14 2.14 0 0 0 .152-.728l-.168-1.239-.734-.929-.951.528-.071.184v.001z" fill="#e3c571"/><path d="M15.032 15.049s.071.168.369.184c-.032.071-.032.081-.023.136l.016.136c.033-.016.062-.038.087-.064.016.071-.016.184 0 .265a.59.59 0 0 0 .048.142c.005-.011.01-.022.016-.032.006-.016.064.175.223.32 0-.022.005-.044.016-.064.003.041.016.08.039.113-.012-.006-.023-.013-.032-.023 0 0 .016.512.103.777.015-.017.028-.036.039-.055 0-.016-.006.143-.023.256-.023.113-.006.272-.006.272.058-.046.123-.084.191-.113.097-.039.256-.159.353-.424.056-.15.099-.305.13-.463.031.06.053.125.064.192.007.081.159.039.159.039l.032-.353.192-.799.175-.495.841-1.31 1.52-1.171 1.327.304 1.12-1.521-1.929-1.159-1.825.191-1.657 2.294-1.327 2.081-.24.343h0z" fill="#d8b65b"/><path d="M24.592 11.728s-.113.023-.44.192-.553.223-.68.472-.136.447-.136.447.223-.097.353-.13c.136-.032.288-.023.272.033-.016.038-.037.073-.064.103 0 0 .256-.006.249.12s-.048.265-.097.327-.249.159-.272.233c-.055.152.023.159-.007.281-.023.12-.129.353-.479.76-.359.408-.512.696-.512.696s-.175-.327-.265-.608l-.408.223-.796-2.773.016-.184s.071-.087.087-.249c-.12-.039-.136-.071-.295-.223s-.288-.337-.553-.463c-.039-.071-.088-.168-.282-.207l-.311-.071s.104-.039.152-.12c-.12.016-.217.055-.479.049s-.295-.016-.44.006-.32.088-.385-.136c-.071-.055-.223-.006-.353.184s-.175.343-.424.417a.87.87 0 0 1-.113.311c-.071.12-.184.24-.337.418-.24.282-.201.744-.583 1.097s.064-.977.064-.977l.615-1.472 1.751-1.712 2.719-.184.265 1.408 1.327.456.838 1.278v-.002z" fill="#d3ae4d"/><path d="M25.023 12.039l-1.142-1.647-.799-.615-.608-1.081c-.032-.023-.57-.081-.913-.103l.064.159a.42.42 0 0 1 .192.13c.152.175.249.505-.097.858.136.048.192.064.311.048-.12.143-.392.447-.408.712-.016.217.12.281.12.281s-.207.24-.217.64c.098-.11.205-.212.32-.304.239-.192.57-.408.793-.544-.003.057.005.114.023.168 0 0 .417-.343.768-.191.159.071.087.295.087.295s.217-.081.369.071.369.544.479.696c.048.071.175.207.304.417a5.28 5.28 0 0 1 .44.929c.006-.13.032-.311.256-.311l-.34-.608-.001.001z" fill="#caa13e"/><path d="M7.897 16.719s-.081-.201 0-.592.207-.576.249-1.152.418-1.294.418-1.294l1.039-.472.735.201.217.984-.929.512s-.048.217-.311.392-.625.311-.712.489c-.052.109-.09.224-.113.343 0 0-.265-.055-.424.12-.168.178-.162.337-.168.473h0z" fill="#f4efc8"/><path d="M9.994 16.456s-.087.055-.152.192c-.064-.104-.217-.718-.223-1.272s-.039-.691.089-.881.63-.392.559-.735c-.071-.327-.369-.463-.735-.369-.256.064-.447.608-.712.88-.201.207-.44.175-.505.288-.087.152-.007.304-.032.401-.007.032-.087.207-.233.418-.294.424-.793 1.023-.858 1.56.023-.304.007-.311.087-.647l-.049-.081.32-1.049.207-.864.463-1.447.815-1.479.793-.887.825.055.097 1.24.472 2.327.994 1.223-1.592 1.071-.631.055h.001z" fill="#ebcc73"/><path d="M10.489 16.896s-.136.032-.184.007-.097-.055-.081-.087.104-.087.104-.113-.006-.047-.021-.065-.037-.03-.06-.032c-.074-.01-.097.039-.097.039s-.071-.055-.129-.064c.034-.004.069-.006.104-.007-.09-.041-.184-.068-.282-.081.081-.048.24-.191.343-.191s.168-.016.152-.071-.097-.136-.184-.168c.032-.039.055-.097-.023-.256s-.049-.265-.023-.304c.023-.049.103-.136.142-.191s.071-.13.136-.168a1.7 1.7 0 0 1 .24-.104c.113-.039.207-.088.272-.039.071.048.039.113.039.113s.223-.081.424.023c.201.097.689.159.689.159l.175.353-1.159.993-.479.24-.097.016v-.001z" fill="#e5c66b"/><path d="M12.097 15.272s-.359.239-.44.327c.048.007.129.039.097.087-.039.049-.272.217-.401.375-.136.159-.265.359-.311.456-.049.087-.418.343-.544.375.265 0 .799-.327 1-.327-.006.097.055.207.168.217s.44.071.88-.201c.44-.265.295-.463.479-.592.353-.233.495-.44.689-.57s.295-.159.295-.159.006-.097.064-.087c.016.002.031.008.043.018s.022.023.028.037c0 0 .337-.239.768-.304-.01-.005-.018-.012-.023-.023 0 0 .032-.016.039-.032 0 0 .023-.032.039-.016s.039.136.071.184c.071-.032.207-.337.207-.337l.327-.935v-.854l-.256.049-1.92.815-1.165 1.207-.136.288h.001z" fill="#e6bd62"/><path d="M17.625 11.081c.104-.025.203-.066.296-.12-.039.104-.039.217-.207.463s-.175.282-.311.537c-.136.265-.152.647-.282.815a.59.59 0 0 1 .184-.055s-.129.113-.184.233-.152.369-.392.521-.544.249-.871.608l-.832.96c.088-.152.207-.456.24-.657s-.007-.44.048-.705.055-.456.32-.919.719-2.071.719-2.071l.977-.311.295.699v.001z" fill="#b6933f"/><path d="M16.919 10.489s-.294.424-.375.799-.007.343-.055.527c-.029.113-.029.231 0 .343.102-.164.241-.302.407-.401.278-.168.505-.288.64-.43.136-.152.249-.401.544-.592-.12-.016-.288-.071-.32-.064.12-.136.479-.343.841-.592.359-.256.337-.359.919-.615-.191.032-.282-.016-.44 0 .064-.136.288-.201.512-.424s-.142-.553-.142-.553l-1.707 1.032-.825.971.001-.001z" fill="#c49937"/><path d="M12.288 9.718l.039-.311.489-.783.511-1.375v-1.88l-.039-1.087.081-.712.062-.226.065-.087.417.217.576.783.055 1.511-.56 2.385-1.599 1.744-.097-.178z" fill="#dfc068"/><path d="M13.56 3.168s-.256.007-.311 1.071l-.12 2.152c-.039.528-.129.848-.175 1.159s-.071.735-.217.993c-.064.12-.201.495-.521.777-.359.311-.896.528-.977.544-.143.032-.864.103-1.159.265-.103.055-.282.12-.479.304-.392.353-.913.984-1.288 1.744-.576 1.136-1.152 4.343-1.152 4.343l.129-.217s.016-.288.304-.793c.282-.505.201-1.071.592-2.039l.576-1.256c.369-.663.816-1.233 1.266-1.544.735-.505 1.544-.615 1.544-.615l.871-.576.353-.631c.281-.472.64-1 .718-1.767.12-1.136-.168-1.88-.152-2.553s.023-1.168.159-1.288.039-.074.039-.074h0z" fill="#a88f33"/><path d="M13.56 8.249s.384-.945.56-1.783l.113-.472c.081-.793.103-1.12 0-1.553-.081-.32-.392-.608-.553-.832-.159-.233-.233-.32-.201-.369a.36.36 0 0 1 .281-.12c.131.004.259.034.378.089s.225.134.312.231c.249.288.447 1.265.447 1.265l.208 1.29.528 1.625-2.071.631v-.001z" fill="#c99e3d"/><path d="M17.168 7.265s-.071.032-.201 0c.005.053-.004.106-.027.154s-.058.089-.103.118c-.136-.055-1.408.055-1.408.055s-.592-.104-.777-.887c-.129-.521.097-1.239.023-1.712-.113-.696-.272-.832-.288-1.049l-.032-.408c-.071-.016-.113-.039-.184-.039-.016-.064.016-.12-.055-.233.039.016.304.049.615.343.256.24.256.327.295.375.048.048.44.384.608.719s.495 1.401.57 1.576c.023.071.071.143.192.304.188.233.463.619.773.683h-.001z" fill="#b58634"/><path d="M15.071 4c.196.317.372.645.527.984.191.43.304.783.544 1.071l-.495-1.375c-.152-.277-.463-.576-.576-.679h0z" fill="#a88f33"/><path d="M12.871 9.321s-.327.081-.935.401l-.576.272c-.479.217-.994.417-1.401.528l.048.055s0 .159.088.249c-.048.049-.696.489-.505 1.961l.304-.113c.039.007.049.113.097.113s.207-.064.375-.282c-.006.088-.104.968.418 1.56.097-.113.343-.489.343-.489l.006-.12s.023-.418.159-.799.401-.663.401-.663l1.385-1.977-.207-.696h0z" fill="#e6c367"/><path d="M11.576 12.224c-.063.045-.133.08-.207.104a.8.8 0 0 1 .136-.631c.223-.327.712-.751.848-1.088.087-.217.049-.761.825-1.456l1.081-.935 1.256-.631 1.544.608-.767 3.006-.595 1.408-2.368-.447-1.752.063h0z" fill="#dcba5a"/><path d="M12.48 11.408l.295-.369v-.262s.327-.087.68-.447.841-1.049 1.272-1.007c.43.049.472.935.489 1.185s.071.815.159 1.12c.097.304-1.049 1.456-1.049 1.456l-.778.592-1.067-2.268z" fill="#e9ce77"/><path d="M13.392 14.479s.24-.375.064-.456c.104-.233.294-.479.294-.479s.136-.336.576-.751.712-.689.783-.968a2.55 2.55 0 0 0 .071-.553 1.06 1.06 0 0 0 .152.103c.071.032.408.311.359.871s-.256.793-.256.793-.201.2-.343.304c-.152.104-.207.223-.463.233.026-.021.056-.037.088-.049 0 0-.265-.032-.408.097s-.445.528-.598.648l-.32.207h-.001z" fill="#cdae50"/><path d="M24.152 8.184c-.382-.139-.784-.218-1.191-.233-.68-.023-1.673.016-2.647.023-1.049.006-2-.359-3.32-.424-.217-.13-.768-.696-2.489.505.103-.006 1.249-.265 1.647.233s.288 1.337.233 1.537c-.104.447-.44 1.097-.576 1.553s-.104.696-.201 1.016-.311.479-.185.848c.168-.104.256-.104.537-.735s.223-1.081.69-1.615c.456-.537 1.216-1.272 1.505-1.456s2.582-1.375 4.984-.239c.579-.061 1.013-1.013 1.013-1.013h0z" fill="#d2a83e"/><path d="M15.472 7.744a.29.29 0 0 0-.016-.071.52.52 0 0 0-.087-.129s-.57-.103-.858-.071c-.505.055-.961.68-1.175 1s-.479.815-.767 1.071c.003-.025-.003-.05-.016-.071 0 0 .016.023-.016.055s-.032.048-.016.064l.049.048c.016 0 .463-.201 1.071-.768.647-.592 1.142-.896 1.401-1a1.97 1.97 0 0 1 .43-.127h0z" fill="#c29637"/><path d="M26.521 5.311l-.233.272-.984 1-1.032 1.039-.945 1.071c-.104.143-.184.375-.184.495l-.12-.081c.027.051.06.099.097.143l.272.343a1.05 1.05 0 0 1 .168.369c.039.006.288.055.599-.456l.718-1.071.647-.961.408-.815.512-.913.078-.434h-.001z" fill="#ac8132"/><path d="M27.185 4.657s-.392.32-.544.512l-.512.696.13-.016.657-.582.256-.456.013-.152v-.001z" fill="#a88f33"/><path d="M27.065 30.376s-.006-.265.143-.424.537-.392.913-1.265l.417-1.071s-.673.576-1.088.712l.201-.447c-.055-.048-.288-.103-.311-.129.129-.13.2-.447.463-.657l1.429-1.088c.478-.392 1.417-1.304 1.537-1.57.071.103.087.168.087.168l-.718 1.007c-.217.337-.201.528-.201.528l.447-.192s.129.479-.456 1.207c.256-.097.359-.039.505-.12-.239.152-.57.36-.88.929-.304.57-.718 1.233-1.417 1.647l-1.071.764.002.002z" fill="#a67a2e"/><path d="M25.311 8.521s-.265.553-.304.984c-.006.104-.032.185-.032.304-.006.385.023.816-.064 1.016-.032-.081-.049-.136-.081-.168-.048.136-.136.56-.207.718-.032-.104-.104-.463-.097-.887l.016-.592c-.016.129-.103.304-.136.408l-.168-.294c-.039.064-.087.159-.129.207a2.96 2.96 0 0 1-.032-.288l-.006-.431c.016-.087.152-.43.44-.744.343-.375.696-1.097.799-1.32l.544-1.152h.337L25.7 7.395l-.447.832c-.152.224-.473.864-.615 1.113.103-.136.191-.207.295-.337.1-.091.378-.482.378-.482h0z" fill="#8c6228"/><path d="M27.191 4.615c-.055.169-.142.326-.256.463-.201.24-.631.56-.841.815-.192.249-.576.929-.401 1.735.064-.175.185-.521.505-.913s.663-.841.832-1.191.191-.631.191-.631l.064-.081-.039-.185-.055-.013h.001z" fill="#cba94c"/><path d="M33.745 26.081s-.13-.353-.168-.673.064-.384-.055-.751c-.071-.223-.2-.192-.233-.223s-.055-.369-.049-.553-.006-.424-.039-.528c-.048-.039-.081-.071-.152-.311l-.159-.43c-.039-.071-.152-.136-.152-.207 0-.142.13-.217.13-.256-.006-.081-.103-.016-.13-.039-.032-.039.081-.272.039-.304-.016-.016-.13.12-.159.081s-.071-.424-.13-.68l-.12-.505c-.006-.071-.447-1.327-.553-1.631a7.72 7.72 0 0 1-.217-.783l-.071-.431c-.016.033-.006.191-.032.185s-.104-.56-.129-.647-.159-.384-.192-.599l-.152-1.168-.071-.64a3.99 3.99 0 0 0-.039-.706c-.064-.408-.192-.903-.304-1.191l-.896-2.282c0-.087.113-.039.113-.039l.488 1.249.44 1.071c.039.048.343.582.479 1.456l.265 2.217c.039.256.071.528.152.799.087.295.223.599.401 1.065a7.04 7.04 0 0 1 .327 1c.071.359.071.631.113.809l.233.896.472 1.359c.266.705.384 1.294.424 1.608l.123 1.78h.001z" fill="#a88f33"/><path d="M27.207 4.576l-.016.039s.049.016.039.081c.001.089-.005.177-.016.265-.016.113-.048.201-.055.272 0 .152.023.327-.192.761-.064.12-.104.223-.136.294a.87.87 0 0 1-.168.282c.113-.064.521-.32.728-.282-.142.081-.359.24-.495.447.032.006.168.032.384 0 .359-.055.761-.185 1.113-.159.385.023.233-.463.233-.463l-.445-.977-.841-.592-.133.032h0z" fill="#be9c44"/><path d="M29.401 11.897s-.375-.375-.528-1.664c-.152-1.295-.12-3.2-.12-3.2l-.304-.744s-.064-.495-.223-.679l-.615-.647c-.142-.152-.304-.359-.401-.392.049-.081.265-.537 1.097-.544s1.088.456 1.175.625.479.896.625 2.283l.12 1.968c-.016.265-.104.88-.256 1.537-.139.557-.291 1.178-.57 1.46v-.001z" fill="#a17c34"/><path d="M28.224 13c.125.009.25-.019.359-.081.12-.006.553.049.887-.375.023.097.081.359-.071.592.081-.081.201-.113.217-.136.006.12.12.489-.359 1.385.129-.142.281-.136.417-.152.007.168.097.734-.142 1.039-.159.207-.418.142-.418.142a.81.81 0 0 0 0-.136c-.006-.087-.039-.175-.016-.233a1.16 1.16 0 0 1-.337-.233c-.282-.265-.647-.718-.673-1.055-.032-.376.304-.456.304-.456a.36.36 0 0 1-.071-.087c-.016-.055-.032-.142-.097-.213z" fill="#8c6228"/><path d="M25.728 8.929s-.016-.023-.104.081l.039-.295c.041-.087.095-.167.159-.239-.049.097-.081.184-.081.184s.12-.223.295-.359c.12-.097.272-.142.336-.233.071-.097.055-.113.071-.129 0 0 .159-.103.401-.408.032-.039.081-.081.113-.12l.336-.159.447-.256c.217-.097.447-.087.553-.24.081-.023.168-.265.152-.472.12.048.735.43.945 1.265.152.592-.12 1.505-.233 1.945s-.129.767-.288.967c-.201.266-.848.64-1.006.825-.136.152-.544.537-.528.815.016.207.272.32.327.359s.055.088.159.064.142-.071.184-.071c.048.006.048.016.071.016a.23.23 0 0 0 .049-.007s-.016.295-.706.384c-.049.007-.097.023-.159.033.081-.039.13-.039.217-.159l-.447-.055c.023-.039.097-.142.159-.191.055-.048-.006-.064-.055-.039-.083.057-.163.118-.24.184-.081.071-.152.168-.282.256-.039-.13-.032-.376.12-.553-.039.006-.113.12-.184.097a1.03 1.03 0 0 1 .023-.353c.039-.146.249-.401.249-.401l1.016-1.816.217-1.375-2.327.452h0z" fill="#92723a"/><path d="M25.673 9.007s-.055.039.055.113c-.016.023-.055.103-.104.159-.055.064-.113.104-.136.159-.048.113-.087.191-.087.24s-.016.359-.152.56c-.049.071-.104.191-.142.272-.081.142-.152.256-.168.32-.032.113-.055.424-.055.424l.097-.12c-.039.081-.081.168-.142.233l.343-.282c.265-.223.68-.599 1.185-.896-.152.055-.282.055-.385.071.081-.081.809-.935 1.191-1.016.023-.029.035-.066.032-.104l-.327-.032-.663.142-.097-.512-.443.269v.001z" fill="#b18e3e"/><path d="M26.728 11.919s-.088.087-.168.304a1.02 1.02 0 0 1-.159-.217c-.12-.201-.304-.456-.735-.311-.006-.136-.016-.207 0-.304.071-.016.288-.191.505-.447.152-.175.295-.375.392-.631l.32-.223c.207-.142.456-.337.495-.553-.097.039-.304.136-.615.12.12-.055.304-.113.282-.353l.088-.055a.32.32 0 0 0-.113-.016c-.007-.023-.016-.055-.071-.039s-.064.016-.071.039c-.023.007-.097 0-.152.039s-.207.168-.265.191l.055-.097s-.159.016-.272.064c-.207.071-.447.201-.689.327.023-.039.032-.064.048-.071s.055-.016.055-.023-.016-.064-.006-.087a2.97 2.97 0 0 1 .256-.44c.113-.152.136-.369.136-.369l.495-.249 1.392-.32.903.055-.113.625-.533 1.091-.456.993-.521.609-.479.349h0z" fill="#543e26"/><path d="M28.984 9.216s-.544.673-.696.777l.913-1.783c-.048-.039-.113-.039.039-.64-.129.304-.175.463-.281.544s-.12.055-.192.055c.014-.025.019-.053.016-.081l-.768-.055c-.312 0-.929.168-1.272.304-.272.113-.424.113-.521.184-.097.081-.152.168-.201.191-.039.023-.223.081-.265.142s-.104.136-.104.152-.016.039.032.023c.016-.006.136-.071.272-.152l.57-.294c.463-.185.608-.152.815-.191.217-.039.528-.13.735-.13a6.16 6.16 0 0 1 .69.016c-.039.032-.071.071-.055.207 0 .039-.033.081-.064.175l-.384.929c-.142.304-.304.56-.384.718s-.256.576-.43.799l-.32.408c-.055.049-.447.336-.418.44.071-.023.521-.192.848-.56s.392-.592.647-.793.456-.537.576-.815c.1-.259.078-.34.204-.57l-.001-.001z" fill="#806031"/><path d="M17.265 14.24s-.071.294-.233.44-.44.265-.472.505c-.039.239.282.359.282.359s-.175.288-.175.505c0 .223-.006.265.016.479-.026.017-.047.038-.064.064a.53.53 0 0 0 .175.336c.159.129.294.207.375.175.012.026.023.053.032.081l.201-.57c.081-.272.152-.233.184-.599s.384-.993.384-.993l.24-.537-.392-.304-.553.058h0z" fill="#b6903c"/><path d="M17.994 14.767c-.081.083-.155.172-.223.265-.103.142-.184.272-.336.327s-.249.055-.24.207.152.217.233.294c.087.081.159.217.12.369.048-.023.136-.049.217-.223l.646-1.239h-.417 0z" fill="#685026"/><path d="M20.224 12.311s.048-.129 0-.223-.343-.13-.489-.24c-.152-.113-.337-.192-.489-.142.023-.055.113-.175.039-.201s-.336.097-.408.152-.233.12-.265.159-.087.113-.12.081c-.032-.023-.049-.081-.104-.049s-.32.249-.369.376a1.92 1.92 0 0 1-.489.728c-.33.32-.473.528-.376.647s.143.032.159.136.007.205-.016.304c-.039.168-.103.327-.016.359.223.071.44-.064.489-.023.097.087-.055.401.175.463s.463-.055.463-.055l.848-.456.816-.43.417-.825-.224-.689-.043-.071h.001z" fill="#d4b968"/><path d="M19.424 14.282s-.142-.217.032-.408.424-.272.521-.391a.15.15 0 0 0-.071-.048c.065-.115.163-.208.282-.266-.048-.049-.113-.087-.184-.087-.159 0-.256.097-.401.097s-.159-.071-.159-.071.24-.023.217-.13c-.023-.113-.064-.113-.064-.113s.463-.192.544-.294.071-.223.087-.272c.055 0 .375-.168.505-.097s.039.265.039.265.392-.295.592-.584c.175.016.256-.12.384-.12.159 0 .408.217.456.679.032.265.081.418.032.887-.023.265-.016.832.064 1.113.055.223.184.201.184.201-.02.068-.059.129-.113.175-.087.081-.097.295-.087.375a1.6 1.6 0 0 0 .049.175s-.103.12-.13.201-.129.136-.207.136-.039-.007-.142 0-.136.023-.201 0-.113-.049-.087-.256-.799-.689-.799-.689l-1.344-.479.003.001z" fill="#cca849"/><path d="M17.88 16.327s.294.392 1.505.392c.576 0 .777-.055.896-.087.13-.032.615-.223 1.104-.799.44-.521.343-.734.343-.734l-.256-.039-.832.113-2.462 1.049-.299.107h.001z" fill="#585136"/><path d="M18.783 16.424s-1.049.233-1.049-.43c0-.647.647-1.327.809-1.447.168-.12.57-.256.57-.256h.968l.184.489-.081 1.055-1.401.589h0z" fill="#252211"/><path d="M19.751 14.489s-.2-.184-.657.064-.825.768-.848 1.24c-.023.417.343.728.913.744a2.9 2.9 0 0 0 .809-.064l-.201-.249-.016-1.735h0z" fill="#c3b378"/><path d="M19.553 14.592s-.048-.039-.192.039c-.12.064-.294.233-.43.353-.088.071-.143.103-.192.159-.201.239-.369.631-.272.825s.417.417 1.233.265l-.149-1.641h.002z" fill="#e6d89c"/><path d="M19.288 14.993s-.13.201-.13.521c0 .327.184.848.864.887.521.033.87-.751 1.249-1.055.288-.233.463-.24.463-.24s-.294-.32-1.081-.735c-.777-.417-1.647-.473-2.12.168.223-.016.945-.201.945-.201l.353.113-.544.541h0z" fill="#252211"/><path d="M20.304 15.417c-.023-.048-.039-.113.055-.129s.136-.007.168.064.064.13.016.159-.175 0-.24-.094h0zm-.152-.456s-.032.023-.016-.023c.006-.055.049-.152.152-.129s.081.136.064.168-.104.087-.168.064c-.008-.002-.016-.006-.022-.012s-.011-.013-.015-.021-.004-.016-.004-.025.003-.017.008-.024h.001z" fill="#6f674d"/><path d="M11.392 15.168s.256.192.553.184.673-.311.848-.505l.288-.327c.081-.081.136-.12.175-.175.055-.064.113-.184.143-.223-.071.055-.175.152-.282.217a3.33 3.33 0 0 1-.417.217c-.087.032-.994.512-.994.512l-.314.1z" fill="#ac924c"/><path d="M11.783 12.777s.142-.097.417-.159c.265-.064.799-.113.799-.113l.44.192.175.663-.32.689-.408.256-.463-.744-.64-.783-.001-.001z" fill="#9f8e57"/><path d="M11.207 13.369l-.152.114s.039-.071.071-.288.201-.744.447-1.048l.24-.288c-.023-.004-.046-.003-.068.002s-.043.016-.061.03a1.55 1.55 0 0 1 .447-.456c.207-.128.288-.168.505-.064s.272.159.431.152.294-.175.294-.175.032.103-.087.343-.592.728-.592.728l-.984.673-.489.277v-.001z" fill="#eac970"/><path d="M11.935 12.696s.712.097.929-.104c.006.023.032.023.032.039s-.008.024-.016.032a.53.53 0 0 1 .071-.006.42.42 0 0 0 .088.016.5.5 0 0 0 .071-.007c-.002.016-.008.032-.016.045s-.019.026-.032.036c.032 0 .064.006.064.032s.006.104-.032.12c-.032.009-.066.007-.097-.007a.4.4 0 0 0 .049.175c.064.12.201.256.384.217 0 0 .097.233-.311.751l-.184.249c-.028.061-.05.125-.064.191 0 0 .69-.265.887-.871s.24-1.207.201-1.767c-.007-.159-.033-.272-.071-.353-.097-.201-.369-.168-.479-.055-.159.159-.424.553-.793.825-.376.272-.392.32-.68.44h.001z" fill="#d7bc6b"/><path d="M11.081 13.57s-.136.081-.207.384c-.071.311.064.689.142.809s.256.447.625.463c.091-.001.181-.019.265-.055.129-.059.249-.134.359-.223.159-.12.288-.223.272-.233-.039-.016-.977-.793-.977-.793l-.353-.394-.126.043h0z" fill="#585136"/><path d="M11.968 14.858s.191-.016.304-.087-.664-.841-.664-.841l.055.832.304.097z" fill="#453a25"/><path d="M11.143 13.511s-.097.184-.097.233c-.016.159.032.657.071.815.039.168.249.424.521.424.168 0 .401-.103.401-.129 0-.033-.239-.064-.304-.185-.039-.064-.055-.223-.064-.384-.006-.103-.006-.217.033-.256.087-.097.103-.375.103-.375l.311-.577h-.409l-.489.304-.078.13z" fill="#84754b"/><path d="M11.023 13.689s.32-.424.608-.521.418-.039.418-.039l-.168.431-.24.265.016.136s-.039.359.201.608.418.24.521.24.401-.087.553-.447c.136-.336.249-.768-.023-1.201-.266-.43-.735-.447-.825-.447s-.803.036-1.061.974h0z" fill="#252211"/><path d="M19.239 15.129c-.12-.055-.006-.391.113-.495s.272-.223.537-.24c.097-.006.191.055.175.12-.023.12-.191.288-.343.408-.21.165-.347.269-.482.207z" fill="#f7f7e7"/><path d="M12.767 13.295c.087-.006.201.064.223.159.023.103-.055.311-.223.311-.136 0-.207-.168-.207-.217.002-.04.013-.079.032-.113.006-.01.023-.123.175-.139z" fill="#f8f6de"/><path d="M11.505 13.369s-.223.104-.327.32a.85.85 0 0 0-.064.512c.016.081.097.281.152.353s.13.12.184.113.168-.152.168-.239.007-.456.113-.657c.094-.2-.226-.401-.226-.401h-.001z" fill="#d4c38b"/><path d="M11.537 13.353c-.039.023-.103.055-.087.097s.152.064.201.159a.34.34 0 0 1 .039.249c.042-.02.081-.047.113-.081.071-.081.159-.191.233-.191.049 0 .097.023.143.023.071 0 .142-.023.152-.097.016-.097-.136-.185-.223-.168.016-.064.039-.159-.032-.223s-.294.049-.343.081-.194.152-.194.152h0z" fill="#e2d59d"/><path d="M16.68 20.152l.479-.142.136.097s.097.207.249.233c-.049.104-.175.192-.168.265s.071.129.071.129-.43.712.418 1.429l-.592.256c.097.023.304.064.392.143s.088.103.168.152.129.113.113.142c-.055-.033-.24-.129-.272-.039s-.799.055-.799.055l-1.294.249s.049-.13-.087-.249c-.159-.142-.353.006-.56-.152-.272-.207-.282-.447-.369-.537.087-.055.265-.136.689-.192-.016-.032-.071-.13-.039-.217.039-.113.2-.185.152-.32.071-.016.104-.016.282-.24.168-.223.272-.272.401-.288s.207 0 .447-.223c.168-.158.113-.294.113-.294s.11-.036.071-.259h0z" fill="#cbac5a"/><path d="M15.265 20.224c.006-.032.032-.049.207-.032s1.282-.103 1.583-.12c.304-.023 1.375-.007 1.896.104l1.304.304c.256.071.337.097.327.129s-.064.064-.097.055-.88-.265-1.142-.32-1.168-.201-1.664-.192c-.463.007-.647-.006-1.039.039s-1.039.113-1.233.087-.152-.023-.143-.055v.001z" fill="#d6bc6f"/><path d="M17.871 22.761s.663.359.903.799c.175.327-.103.489-.103.489s.375 0 .327.207c-.023.129-.647.479-1.065.663-.424.185-.408.175-.615.207-.201.032-.751-.064-.864.097s-.064.327-.032.353.295.055.295.055-.055.152-.599.168-.68.055-.712.113.103.023.353.064l.599.064s-.113.097-.408.175c-.337.087-.864.168-1.023.265.081.055.201.136.256.142-.136.032-.327.104-.359.13l.113.071s-.272.327-.431.408-1.071.505-1.385.424c-.783-.207-.88-1.065-1.071-1.129-.288-.097-.424.097-.68-.039.113-.081.175-.129.295-.184-.13-.064-.799-.489-.799-.489-.07-.153-.148-.302-.233-.447l-.463-.783c-.311-.576-.327-.841-.608-1.168.049-.064.217-.055.217-.055l2.359.777 4.184.121 1.088-1.553.463.055h0z" fill="#dfc677"/><path d="M11.673 25.129c.025.028.055.052.087.071.081.055.201.12.282.217.033-.048.113-.136.256 0s.32.039.43.071c.113.039.12.055.12.055s.064-.055.207-.113c.087-.032.191-.055.304-.087.103-.023.217-.055.295-.055.071.048.327.32 1.353-.081.968-.375 1.191-.418 1.353-.36.016-.039.032-.113.282-.103 0-.104-.207-.456-.207-.456l-1.142-.392h-.625l-1.874.343-1.038.593-.081.299-.001-.001z" fill="#c4a859"/><path d="M11.049 24.473s.023.175.282.359.336.294.336.294.049-.064.087-.129c.039-.071.071-.152.136-.175.13-.055.424.049.489.032.055-.016.039-.129.097-.129.136-.007.223.087.272.087s.168-.006.184-.032.023-.295.207-.424c.201-.142.447-.081.512-.048 0 .048.006.168.136.175s.142-.016.256.023.249-.006.311.184c.055-.016.185-.032.152-.217.064-.048.12-.081.256-.272.032-.048.087-.104.129-.175.113 0 .249-.023.43.136-.055.039-.087.064-.103.103.047.047.091.098.129.152.049.064.081.143.143.159.136.039.359-.016.608 0 .24.016.44.103.528.159.032-.016.032-.023.113-.006s.142.023.055-.081c.048.023.103.071.152.023s.087-.12.223-.136.185.006.24-.136c.071-.175-.175-.175-.175-.175l.24-.239c.152-.142.327-.327.369-.553.071-.417-.336-.472-.336-.472l-1.977.608-2.418-.12-2.061 1.026h-.001z" fill="#927d49"/><path d="M9.272 18.761s-.064.081-.103.272l-.055.304c-.032.136-.431 1.489-.281 1.945s.408.625.57.993c.032.081.064.13.081.201.055.239.007.424.071.663.023.081.081.175.168.272.192.2.505.391.64.527.191.201.463.609.809.647.185.023.447-.055.664-.184.192-.12.311-.288.512-.384.142-.071.294-.097.43-.13.282-.055.537-.064.69-.032.233.049.783.217 1.088.217a2.96 2.96 0 0 0 .706-.097l1.392-.473c.217-.064.391-.081.57-.12.304-.071.56-.168.706-.353-.097-.113-.217-.288-.864-.282-.735.016-1.583.424-2 .489s-.599.12-1.065-.049c-.457-.17-.472-.282-.472-.282s-.48-.336-.681-1.191 0-1.479.521-2.071c.136-.152.104-.288.104-.288s.343-.463.249-.896c-.104-.431-.767-.343-.767-.343l-3.68.644h0z" fill="#6e6342"/><path d="M9.825 20.201c-.029.054-.042.114-.039.175.006.087.032.201.294.456.223.223.175.472.175.472s.112.023.418-.12c.24-.113.32.087.32.087.07-.037.145-.061.223-.071a.49.49 0 0 0 .2-.064s.282.288.528.424c.223.12.353.201.463.12.104-.071.104-.217.097-.282a.84.84 0 0 0-.097-.168c-.071-.103-.184-.223-.192-.32-.016-.223.168-.489.129-.553s-.184-.081-.544.049c-.372.123-1.977-.204-1.977-.204h.001z" fill="#39331f"/><path d="M10.673 21.647s-.184-.175-.12-1.023a1.06 1.06 0 0 1 .233.023s.1.657-.113 1z" fill="#292311"/><path d="M9.359 18.113a.5.5 0 0 0 .071-.064c-.064.12-.359.599-.12 1.353s.841 1.31 1.582 1.336 1.131-.337 1.576-.88l.553-.673c.265-.288.473-.369.473-.647 0-.57-.583-.825-1.44-1.081s-1.631-.224-2.032-.049c-.391.191-.56.391-.663.705h0z" fill="#252211"/><path d="M12.113 21.903l.064-.032s.016-.256.12-.249c.103.016.152.152.142.201s-.032.13-.136.12c-.136.003-.191-.039-.191-.039h.001z" fill="#3f3824"/><path d="M11.825 20.816s.064-.023.142.055c.064 0 .343-.032.431.023s.113.104.113.104-.327.071-.505 0c-.181-.062-.181-.181-.181-.181z" fill="#2d2815"/><path d="M13.266 20.864c0-.016-.175-.136-.359-.175-.032-.006-.039.016-.064.016-.016-.006-.023-.055-.023-.055l-.105.055s-.016.023.039.064c.048.039.129.071.152.136s.023.087.032.097.12 0 .175-.032.159-.085.152-.107l.001.001z" fill="#82764f"/><path d="M11.631 21.521s.032-.223.249-.233c.223-.016.265.201.265.201l-.13.129c0-.003-.097-.139-.384-.097h-.001z" fill="#2d2816"/><path d="M13.039 20.56s-.12.13-.385.168c-.023-.032-.071-.097 0-.201s.152-.136.233-.104a.19.19 0 0 1 .096.046c.027.024.046.055.056.09z" fill="#574f35"/><path d="M13.528 20.719c.007-.032-.016-.039 0-.055s.104-.049.12-.032c.006.007 0 .032 0 .064s0 .064-.016.087c-.023.032-.087.049-.12.039s-.039-.055-.039-.064c.016-.006.055-.023.055-.039zm.553-.349c0-.016.055-.049.088-.049.048 0 .048.039.055.049.016.006.016-.007.032.023s.039.081.023.113-.081.055-.097.048c-.023-.016-.094-.162-.101-.184z" fill="#82764f"/><path d="M12.968 20.793a.45.45 0 0 0 .168.097c-.032.023-.081.048-.081.048s-.006-.074-.087-.146h0z" fill="#6e6342"/><path d="M12.809 20.081c-.016-.016.048-.055.087-.049s.055.033.097.039.049-.016.064-.033.071-.006.081 0 .011.015.016.023a.09.09 0 0 1 .009-.035c.006-.011.013-.021.023-.029s.027-.015.042-.018.031-.002.046.002c.006.023.039.104.032.12s-.103.039-.12.023c.016.039.088.12.097.136s-.071.055-.103.049c-.045-.003-.324-.165-.372-.227l.001-.001zm.424-.537c-.006-.016-.018-.03-.032-.039-.023-.006-.097 0-.097.039a1.2 1.2 0 0 0 .136.369c.081.113.136.207.191.233.017.008.037.009.055.003s.033-.019.042-.035.023-.136.016-.418l-.032-.57c-.016-.016-.081-.016-.104.016s-.168.353-.175.401h0z" fill="#585136"/><path d="M12.945 21.201s-.113-.071-.223-.023c-.104.049-.097.24-.097.24.023.009.048.012.073.01s.049-.012.069-.026c.071-.048.162-.129.178-.201h0z" fill="#574f35"/><path d="M13.159 21.456c-.006-.064-.064-.064-.064-.097.004-.016.013-.03.026-.04s.029-.015.045-.015c.032 0 .064.039.104.064s.097.064.104.113-.064.184-.142.184-.055-.146-.071-.21h-.001zm.625-.087s-.13.039-.12 0 .039-.048.081-.048c.021-.022.05-.036.081-.039a.07.07 0 0 1 .048.016s.088-.039.113-.016.007.023.023.049.034.062.039.097c0 .026-.097.081-.175.071-.09-.019-.074-.113-.09-.13zm.754-.146s.039.023.007.049c-.023.023-.136.064-.233.071-.097 0-.184.016-.184-.016s.081-.097.129-.113c.01-.012.022-.022.036-.029s.029-.01.045-.01a3.02 3.02 0 0 0 .233-.023c.039-.007.071.016.048.048-.01.023-.081.023-.081.023zm.223-.999s-.049.103-.103.103c-.055-.006-.055-.023-.055-.039 0-.023.055-.081.049-.097-.016 0-.055 0-.049-.039 0-.032.055-.071.104-.064.037-.03.082-.047.13-.048.055 0 .103.016.103.048s-.064.104-.087.12c-.026.026-.058.043-.091.016v-.001zm-.738 1.913s-.064.007-.064.039c0 .016.016.016.039.007.013-.001.026-.003.039-.007.006.007.006.039.055.039.04-.005.079-.019.113-.039s.071-.032.071-.064c-.016-.055-.049-.081-.097-.081-.025-.002-.05.004-.071.016 0 0-.016-.033-.071 0s-.049.032-.032.049c.029.026.019.043.019.043v-.001zm-.366.337c0-.016.081-.049.103-.039s.087.129.087.142-.081.055-.113.055-.087-.055-.087-.064.039-.016.039-.023c.01-.016-.029-.055-.029-.071v-.001zm-.256-.473c.016-.006.016-.023.039-.039.007-.005.015-.008.024-.009s.017 0 .025.003c.006-.01.014-.019.023-.026s.02-.011.032-.013c.039-.006.071 0 .064.016 0 .049.032.081.032.12s-.023.088-.104.12c-.081.023-.191.023-.207.016s-.032-.071-.016-.104.061-.068.087-.084h0z" fill="#82764f"/><path d="M13.504 22.023s-.055.032-.055.049-.007.032-.006.048c0 .01.071-.006.081-.016.003-.006-.019-.064-.019-.081z" fill="#6e6342"/><path d="M13.023 21.871c.032.007.087 0 .129.016.032.016.055.049.023.087s-.064.097-.136.087c-.081-.006-.159-.048-.159-.081-.001-.02.001-.041.008-.06s.017-.037.031-.053c.032-.026.048-.01.104.003h0z" fill="#585136"/><path d="M12.984 21.903s-.104.081-.13.12l-.239.281c.016-.028.034-.055.055-.081a.33.33 0 0 0-.136.175c-.039.12.217.184.385.233l.233.064a1.81 1.81 0 0 1-.159-.294c-.064-.152-.097-.168-.055-.24.032-.071.081-.12.081-.175l-.036-.084z" fill="#574f35"/><path d="M9.295 22.159c.024.004.048.004.071 0 .048-.007.553-.192 1.081-.159.395.024.786.088 1.168.192.663.175 1.489.521 2.023.718.142.055.282.152.384.191.408.159.424.159.663.201.282.039.57-.055.871-.12.369-.081 1-.12 1.553-.201.179-.025.355-.065.528-.12 0 0-.44.44-1.495.599-.427.065-.86.07-1.288.016a3.94 3.94 0 0 1-.728-.13l-1.065-.32c-.337-.088-.712-.152-1.142-.233-1.062-.194-2.214-.418-2.624-.634v-.001z" fill="#252211"/><g fill="#cfb66c"><path d="M8.103 20.159l-.793.624-.799.614-.809.608-.832.576.799-.615.816-.591.799-.615.819-.602h0zm-1.414 2.265l.647-.576L8.505 20.8l-1.816 1.624h0z"/><path d="M6.689 22.424l.447-.418.233-.201.223-.207.424-.44a2.73 2.73 0 0 1 .223-.207c.039-.035.083-.064.129-.087.039-.023.081-.064.136-.071-.032.049-.071.071-.103.113-.039.032-.071.071-.103.104-.071.071-.152.136-.223.201l-.463.392-.447.418-.476.405v-.001zm1.935-1.294L7.353 22.33l1.272-1.201z"/><path d="M8.625 21.129a3.45 3.45 0 0 1-.305.311l-.32.304-.311.311-.337.282.311-.304c.104-.103.217-.191.327-.294l.311-.304.324-.304zm.048.56c-.097.271-.212.536-.343.793l-.858 1.57 1.201-2.363z"/><path d="M8.673 21.689a.91.91 0 0 1-.071.327c-.038.104-.081.205-.129.304l-.159.295-.168.288-.327.576-.343.57c.081-.207.191-.401.295-.592l.32-.583.136-.304.136-.295.136-.294c.055-.1.1-.197.175-.291h0z"/></g><path d="M9.825 24.343s-.32.424-.288.961l.288-.961zm.304.425l-.207 1.718c.133-.655.158-.6.207-1.718zm2.12 1.786s-.479 1.408-.489 1.799l.489-1.8v.001z" fill="#dec270"/><path d="M13.369 24.256l1.359 2.375c-.158-.55-.52-1.56-1.359-2.375z" fill="#cbaf59"/><path d="M15.457 26.143a23.54 23.54 0 0 1 1.152 2.327c-.065-.55-.239-1.492-1.152-2.327z" fill="#e3c677"/><path d="M21.592 28.032c.129-.081.385-.521.608-.631s.391-.136.592-.359c.201-.233.256-.375.696-.56.615-.266.192-.609.192-.609.068-.067.14-.128.217-.184.159-.12.343-.265.327-.521-.023-.43-.103-1.055-.456-1.417l1.408-.223c.472-.12.689-.288.689-.288s-.272-.463.168-.929.799-.744 1.065-1.266c-.304-.039-.768-.2-1.952.249a1.48 1.48 0 0 1 .184.103s-.728.201-.993.424c-.463.392-.521.712-1.023.951s-1.006.175-1.424.369-.479.359-.631.431c.032.039-.006.103.055.159-.039.055-.265.424-.495.424.023.087.217.152.217.152s-.142.104-.505.13c.184.192.359.401.841.706-.039.081-.201.201-.136.353.071.152.256.359.994.528-.375.016-.815.104-1.408.023-.592-.071-.689-.113-1.055-.023.039.039.142.039.233.142-.097.006-.706-.071-.913.201-.217.281-.311.744-.294 1.055-.113.055-.223.152-.168.353s.343.265.528.392c.184.136.2.184.375.152.184-.039.456-.223.615-.223s.272.12.272.12.43-.207.472-.168.006.288.048.327c.043.029.528-.259.657-.34h-.001z" fill="#ecd592"/><path d="M31 15.081c-2.023-5.223-7.023-6.191-7.023-6.191H9.712l.055 5.32h2.841v11.88H9.712v5.311h13.871c3.343 0 6.023-3.359 6.023-3.359C33.896 21.952 31 15.081 31 15.081h0zm-7.343 9.382s-1.088 1.57-2.272 1.57h-2.368l-.056-11.809H22s1.408.294 2.392 3.081c0 0 1.304 3.989-.735 7.159z" fill="#fff" fill-opacity=".8"/></g></g><defs><clipPath id="A"><path fill="#fff" d="M0 0h40v40H0z"/></clipPath></defs></svg>