<svg height="40" viewBox="0 0 40 40" width="40" xmlns="http://www.w3.org/2000/svg" xmlns:xlink="http://www.w3.org/1999/xlink"><linearGradient id="a" gradientUnits="objectBoundingBox" x1=".5" x2=".5" y1="1.142" y2="-.105"><stop offset="0" stop-color="#f9a606"/><stop offset="1" stop-color="#fbcc5f"/></linearGradient><circle cx="20" cy="20" fill="url(#a)" r="20"/><path d="m167.98 164.744h-2.307c-1.27-3.526-4.686-5.944-9.191-5.944h-7.409v5.944h-2.573v2.132h2.573v2.236h-2.573v2.132h2.573v5.872h7.409c4.453 0 7.843-2.4 9.146-5.872h2.353v-2.132h-1.834a9.677 9.677 0 0 0 .071-1.154v-.052c0-.35-.019-.694-.052-1.031h1.821v-2.132zm-16.833-4.044h5.334a7.274 7.274 0 0 1 6.9 4.038h-12.234zm5.334 14.5h-5.334v-3.96h12.218a7.281 7.281 0 0 1 -6.883 3.96zm7.59-7.195a7.666 7.666 0 0 1 -.078 1.1h-12.846v-2.235h12.853a8.432 8.432 0 0 1 .071 1.082z" fill="#fff" transform="translate(-136.449 -147.952)"/></svg>