<svg height="40.005" viewBox="0 0 40 40.005" width="40" xmlns="http://www.w3.org/2000/svg"><path d="m0 .005h40v40h-40z" fill="none"/><path d="m39.4 24.842a20 20 0 1 1 -14.564-24.242 20 20 0 0 1 14.564 24.242z" fill="#fff" transform="translate(0 -.001)"/><g transform="translate(11.429 6.047)"><path d="m383.687 0-.187.636v18.459l.187.187 8.568-5.065z" fill="#343434" transform="translate(-375.119)"/><path d="m8.568 0-8.568 14.217 8.568 5.065z" fill="#8c8c8c"/><path d="m387.346 729.952-.106.129v6.575l.106.308 8.573-12.074z" fill="#3c3c3b" transform="translate(-378.777 -709.048)"/><path d="m8.568 736.964v-7.012l-8.568-5.062z" fill="#8c8c8c" transform="translate(0 -709.048)"/><path d="m392.07 481.289 8.568-5.065-8.568-3.895z" fill="#141414" transform="translate(-383.502 -462.008)"/><path d="m0 476.225 8.568 5.065v-8.96z" fill="#393939" transform="translate(0 -462.008)"/></g></svg>