<svg width="40" height="40" viewBox="0 0 40 40" fill="none" xmlns="http://www.w3.org/2000/svg">
<g clip-path="url(#clip0_259_55)">
<circle cx="20" cy="20" r="20" transform="rotate(180 20 20)" fill="white"/>
<path d="M22.2437 17.1405L21.4738 21.0468L28.7823 22.0248L28.2697 23.856L21.0897 22.879C20.577 24.4667 20.3208 26.176 19.6792 27.6417C19.0385 29.351 18.3978 31.0602 17.628 32.6478C16.6021 34.7238 14.8072 36.1893 12.3718 36.5552C10.9614 36.8 9.42394 36.678 8.26874 35.8228C7.88438 35.5792 7.50001 35.0905 7.50001 34.7238C7.50001 34.2352 7.48958 33.6623 8.14063 33.3802C8.79164 33.099 9.06041 33.2968 9.42291 33.5028C9.80831 33.8687 10.1927 34.3573 10.4489 34.8468C11.2177 35.8228 12.2437 35.9447 13.2687 35.2113C14.4229 34.2352 15.0645 32.8927 15.449 31.5488C16.2176 28.6187 16.9875 25.8093 17.628 22.879V22.3905L10.8333 21.4133L11.0896 19.5822L18.1417 20.5593L19.0375 16.774L11.7302 15.6749L11.9875 13.7208L19.551 14.6979C19.8073 13.9656 19.9363 13.3541 20.1927 12.7437C20.8332 10.5458 21.4738 8.3479 23.0123 6.3948C24.551 4.44063 26.3457 3.21982 29.0385 3.34168C30.1927 3.34168 31.3458 3.70837 32.1155 4.56253C32.2437 4.6844 32.4998 4.92917 32.4998 5.17293C32.4998 5.66252 32.4998 6.27293 32.1145 6.63855C31.602 7.00522 30.9613 6.88333 30.448 6.3948C30.0635 6.02815 29.8072 5.66147 29.4227 5.29585C28.6542 4.31877 27.5 4.1969 26.603 5.05107C25.9613 5.66147 25.3207 6.51668 24.9365 7.37187C24.0387 9.93542 23.3978 12.6218 22.5 15.3093L29.552 16.2854L29.0385 18.1167L22.2437 17.1405Z" fill="#0090FF"/>
</g>
<defs>
<clipPath id="clip0_259_55">
<rect width="40" height="40" fill="white"/>
</clipPath>
</defs>
</svg>
