<svg xmlns="http://www.w3.org/2000/svg" width="40" height="40" fill="none" viewBox="0 0 40 40">
  <g clip-path="url(#a)">
    <rect width="40" height="40" fill="#E4E4E4" rx="20"/>
    <path fill="#000" d="M3.333 20.053a3.715 3.715 0 0 1 3.717-3.716 3.715 3.715 0 0 0 3.716-3.717 3.727 3.727 0 0 1 3.723-3.723 3.715 3.715 0 0 1 3.717 3.717 3.715 3.715 0 0 1-3.717 3.716 3.715 3.715 0 0 0-3.716 3.716 3.715 3.715 0 0 0 3.716 3.717 3.715 3.715 0 0 1 3.717 3.716 3.715 3.715 0 0 1-3.717 3.717 3.715 3.715 0 0 1-3.716-3.717 3.715 3.715 0 0 0-3.717-3.716 3.715 3.715 0 0 1-3.723-3.71Zm33.334 0a3.715 3.715 0 0 1-3.717 3.716 3.715 3.715 0 0 0-3.716 3.717 3.715 3.715 0 0 1-3.717 3.716 3.715 3.715 0 0 1-3.716-3.716 3.715 3.715 0 0 1 3.716-3.716 3.715 3.715 0 0 0 3.717-3.717 3.715 3.715 0 0 0-3.717-3.716 3.715 3.715 0 0 1-3.716-3.717 3.715 3.715 0 0 1 3.71-3.723 3.715 3.715 0 0 1 3.716 3.716 3.715 3.715 0 0 0 3.716 3.717 3.727 3.727 0 0 1 3.724 3.723Z"/>
    <path fill="#000" d="M23.652 20.053a3.616 3.616 0 1 1-7.232-.001 3.616 3.616 0 0 1 7.232.001Z"/>
  </g>
  <defs>
    <clipPath id="a">
      <path fill="#fff" d="M0 0h40v40H0z"/>
    </clipPath>
  </defs>
</svg>
