<svg width="40" height="45" viewBox="0 0 40 45" fill="none" xmlns="http://www.w3.org/2000/svg">
<path d="M0 25C0 13.9543 8.95431 5 20 5V5C31.0457 5 40 13.9543 40 25V25C40 36.0457 31.0457 45 20 45V45C8.95431 45 0 36.0457 0 25V25Z" fill="black"/>
<g clip-path="url(#clip0_3_164)">
<path d="M35.3826 30.0842C34.953 35.4063 28.9396 39.8881 19.9195 39.664C11.4362 39.4399 5.47651 35.7424 5.04698 30.4203C4.99329 29.748 5.04698 29.0758 5.10067 28.3475C5.36913 26.2747 6.06711 24.3139 7.08725 22.5212L7.73154 22.8013C9.39597 22.129 11.1141 21.6248 12.8859 21.2887C15.1946 20.9525 17.557 20.8965 19.8658 21.0646C22.1745 20.8965 24.5369 20.9525 26.8456 21.2887C28.6175 21.6248 30.3356 22.129 32 22.8013L32.6443 22.5212L33.0738 22.2971C34.094 24.0898 34.7919 26.0506 35.1678 28.1234C35.2752 28.7396 35.3289 29.4119 35.2752 30.0282" fill="#F4A427"/>
<path d="M35.3826 30.0842C34.953 35.3503 28.9933 39.664 19.9195 39.608C11.4362 39.3839 5.47651 35.6864 5.04698 30.3643C4.99329 29.692 5.04698 29.0197 5.10067 28.2915C6.01342 28.0674 6.92617 28.0674 7.83893 28.2354C9.55705 28.5155 10.5235 29.636 11.7584 30.1962C12.4564 30.5324 13.1544 29.9721 13.7987 29.3559C15.5168 27.6192 17.8255 26.6108 20.1879 26.5548C22.604 26.4987 24.5906 27.5071 26.6846 29.524C27.1141 29.9721 27.7047 30.2522 28.2953 30.1962C28.8322 30.0282 29.3691 29.748 29.7987 29.3559C31.4094 28.2354 33.3423 27.7873 35.2215 28.0674C35.3825 28.7957 35.4362 29.4119 35.3826 30.0842Z" fill="white"/>
<path d="M10.4161 16.9749C9.8255 17.5912 9.07382 18.0393 8.26846 18.2074L7.94631 18.2634C7.62416 18.3755 7.30201 18.4315 6.92617 18.4315C6.87248 18.4315 6.7651 18.4315 6.71141 18.4315C6.55033 18.3755 6.33557 18.3195 6.1745 18.2634C5.58389 17.9833 5.04698 17.6472 4.56376 17.199C3.59731 16.3587 2.68456 15.4063 1.98658 14.2858C-0.966443 9.80405 -0.0536918 3.75363 4.02684 0.392287C4.2953 0.22422 4.61745 0.22422 4.83221 0.504332C4.9396 0.672399 4.99329 0.840466 4.9396 1.00853C4.56376 2.80125 4.24161 5.60237 5.85235 8.01133C7.24832 10.0281 10.1477 11.9889 11.9195 11.9889C12.2953 14.2298 11.7047 15.7424 10.4161 16.9749Z" fill="#F79422"/>
<path d="M10.4161 16.9749C9.8255 17.5912 9.07382 18.0393 8.26846 18.2074L7.94631 18.2634C7.62416 18.3755 7.30201 18.4315 6.92617 18.4315C6.87248 18.4315 6.7651 18.4315 6.71141 18.4315C6.55033 18.3755 6.33557 18.3195 6.1745 18.2634C5.58389 17.9833 5.04698 17.6472 4.56376 17.199C3.59731 16.3587 2.68456 15.4063 1.98658 14.2858C-0.966443 9.80405 -0.0536918 3.75363 4.02684 0.392287C4.2953 0.22422 4.61745 0.22422 4.83221 0.504332C4.9396 0.672399 4.99329 0.840466 4.9396 1.00853C4.56376 2.80125 4.24161 5.60237 5.85235 8.01133C7.24832 10.0281 10.1477 11.9889 11.9195 11.9889C12.2953 14.2298 11.7047 15.7424 10.4161 16.9749Z" stroke="#221F1F" stroke-width="0.322148" stroke-linejoin="round"/>
<path d="M18.1477 9.24384L17.4497 16.4147H17.396C16.3221 16.5828 14.8725 16.8069 12.8859 17.143C11.0604 17.4231 8.5906 18.7676 7.14094 19.664L6.97987 18.4875C7.30201 18.4315 7.67785 18.3755 8 18.3195L8.32215 18.2634C9.12752 18.0954 9.87919 17.6472 10.4698 17.0309C11.7047 15.7424 12.349 14.2859 11.9195 11.9889L12.1342 12.045C12.7785 11.3167 13.5302 10.7564 14.3893 10.3083C15.5168 9.63599 16.8054 9.29986 18.1477 9.24384Z" fill="#5A595C"/>
<path d="M18.1477 9.24384L17.4497 16.4147H17.396C16.3221 16.5828 14.8725 16.8069 12.8859 17.143C11.0604 17.4231 8.5906 18.7676 7.14094 19.664L6.97987 18.4875C7.30201 18.4315 7.67785 18.3755 8 18.3195L8.32215 18.2634C9.12752 18.0954 9.87919 17.6472 10.4698 17.0309C11.7047 15.7424 12.349 14.2859 11.9195 11.9889L12.1342 12.045C12.7785 11.3167 13.5302 10.7564 14.3893 10.3083C15.5168 9.63599 16.8054 9.29986 18.1477 9.24384Z" stroke="#221F1F" stroke-width="0.322148" stroke-linejoin="round"/>
<path d="M33.8255 22.129L33.396 22.3531L32.9664 22.5772L32.3221 22.8573C30.6577 22.185 28.9396 21.6808 27.1678 21.3447C24.8591 20.8965 22.5503 20.6724 20.1879 20.6724C17.8255 20.6724 15.5168 20.8405 13.2081 21.3447C11.4362 21.6808 9.71812 22.185 8.05369 22.8573C7.83892 22.7452 7.62416 22.6332 7.40939 22.5772L6.49664 22.129C6.55033 21.3447 6.49664 20.8965 6.49664 20.1122C6.65772 20.0001 6.92617 19.8321 7.19463 19.664L7.24832 19.608C8.64429 18.7116 11.1141 17.4231 12.9396 17.087C14.9262 16.7508 16.3221 16.5267 17.4497 16.3587C18.1476 16.3027 18.8993 16.3027 19.651 16.3027C20.7785 16.3027 21.7987 16.3027 22.8188 16.3587C23.8926 16.5267 25.3423 16.7508 27.3825 17.087C29.2617 17.3671 31.7315 18.7116 33.1812 19.608H33.2349C33.5034 19.776 33.7181 19.8881 33.8792 20.0562C33.8255 20.8965 33.7718 21.3447 33.8255 22.129Z" fill="#929497"/>
<path d="M33.8255 22.129L33.396 22.3531L32.9664 22.5772L32.3221 22.8573C30.6577 22.185 28.9396 21.6808 27.1678 21.3447C24.8591 20.9525 22.5503 20.7284 20.1879 20.7284C17.8255 20.7284 15.5168 20.8965 13.2081 21.3447C11.4362 21.6808 9.71812 22.185 8.05369 22.8573C7.83892 22.7452 7.62416 22.6332 7.40939 22.5772L6.49664 22.129C6.55033 21.3447 6.49664 20.8965 6.49664 20.1122C6.65772 20.0001 6.92617 19.8321 7.19463 19.664L7.24832 19.608C8.64429 18.7116 11.1141 17.4231 12.9396 17.087C14.9262 16.7508 16.3221 16.5267 17.4497 16.3587C18.1476 16.3027 18.8993 16.3027 19.651 16.3027C20.7785 16.3027 21.7987 16.3027 22.8188 16.3587C23.8926 16.5267 25.3423 16.7508 27.3825 17.087C29.2617 17.3671 31.7315 18.7116 33.1812 19.608H33.2349C33.5034 19.776 33.7181 19.8881 33.8792 20.0562C33.8255 20.8965 33.7718 21.3447 33.8255 22.129Z" stroke="#221F1F" stroke-width="0.322148" stroke-linecap="round" stroke-linejoin="round"/>
<path d="M22.7651 16.4147C21.7987 16.3587 20.7248 16.3027 19.5973 16.3587C18.8456 16.3587 18.094 16.4147 17.396 16.4147H17.4497L18.1476 9.24383L18.3087 7.78725C18.8456 7.45112 19.4899 7.28305 20.0805 7.28305H20.1879C20.8322 7.28305 21.4228 7.45112 21.9597 7.78725L22.1208 9.24383V9.29986L22.7651 16.4147Z" fill="#929497"/>
<path d="M22.7651 16.4147C21.7987 16.3587 20.7248 16.3027 19.5973 16.3587C18.8456 16.3587 18.094 16.4147 17.396 16.4147H17.4497L18.1476 9.24383L18.3087 7.78725C18.8456 7.45112 19.4899 7.28305 20.0805 7.28305H20.1879C20.8322 7.28305 21.4228 7.45112 21.9597 7.78725L22.1208 9.24383V9.29986L22.7651 16.4147Z" stroke="#221F1F" stroke-width="0.322148" stroke-linecap="round" stroke-linejoin="round"/>
<ellipse cx="33.396" cy="22.3531" rx="0.268456" ry="0.280112" fill="#221F1F"/>
<path d="M35.3826 30.1402C34.953 35.4623 28.4564 39.72 19.9195 39.72C11.4362 39.4959 5.47651 35.7985 5.10067 30.4763C5.04698 29.8041 5.10067 29.1318 5.15436 28.4035C5.42282 26.3307 6.12081 24.3699 7.14094 22.5772L7.78524 22.8573C9.44967 22.185 11.1678 21.6808 12.9396 21.3447C15.2483 20.8965 17.557 20.7284 19.9195 20.6724C22.2819 20.6724 24.5906 20.8965 26.8993 21.3447C28.6711 21.6808 30.3893 22.185 32.0537 22.8573L32.7517 22.5772L33.1812 22.3531C34.2013 24.1458 34.8993 26.1066 35.2752 28.1794C35.4362 28.8517 35.4362 29.5239 35.3826 30.1402Z" stroke="#221F1F" stroke-width="0.322148" stroke-linecap="round" stroke-linejoin="round"/>
<path d="M38.0134 14.2859C37.2618 15.3503 36.4027 16.3587 35.3826 17.199C34.8993 17.6472 34.3624 17.9833 33.7718 18.2634L33.5034 18.3755L33.3423 18.4315C32.9664 18.5436 32.7517 18.4315 32.0537 18.3195L31.7315 18.2634C30.9262 18.0954 30.1745 17.6472 29.5839 17.0309C28.349 15.7424 27.7047 14.2859 28.1342 11.9889C29.8524 12.045 32.8054 10.0842 34.2013 8.01134C35.7584 5.60238 35.4362 2.80126 35.0604 1.00854C35.0067 0.672405 35.1678 0.392293 35.4899 0.280248C35.651 0.224226 35.8658 0.280248 35.9732 0.392293C40.0537 3.75364 40.9664 9.86008 38.0134 14.2859Z" fill="#F79422"/>
<path d="M38.0134 14.2859C37.2618 15.3503 36.4027 16.3587 35.3826 17.199C34.8993 17.6472 34.3624 17.9833 33.7718 18.2634L33.5034 18.3755L33.3423 18.4315C32.9664 18.5436 32.7517 18.4315 32.0537 18.3195L31.7315 18.2634C30.9262 18.0954 30.1745 17.6472 29.5839 17.0309C28.349 15.7424 27.7047 14.2859 28.1342 11.9889C29.8524 12.045 32.8054 10.0842 34.2013 8.01134C35.7584 5.60238 35.4362 2.80126 35.0604 1.00854C35.0067 0.672405 35.1678 0.392293 35.4899 0.280248C35.651 0.224226 35.8658 0.280248 35.9732 0.392293C40.0537 3.75364 40.9664 9.86008 38.0134 14.2859Z" stroke="#221F1F" stroke-width="0.322148" stroke-linejoin="round"/>
<path d="M33.3423 18.4315L33.1275 19.664C31.6779 18.7676 29.2081 17.4231 27.3289 17.143C25.2886 16.8069 23.8926 16.5828 22.7651 16.4147L22.0671 9.24384C23.302 9.29986 24.5369 9.69201 25.6644 10.3083C26.5235 10.7564 27.2752 11.3727 27.9195 12.045L28.1342 11.9889C27.7047 14.2298 28.349 15.7424 29.5839 17.0309C30.1745 17.6472 30.9262 18.0954 31.7315 18.2634C31.7852 18.2634 32 18.3755 32.0537 18.3755C32.4832 18.5436 32.9128 18.5436 33.3423 18.4315Z" fill="#5A595C"/>
<path d="M33.3423 18.4315L33.1275 19.664C31.6779 18.7676 29.2081 17.4231 27.3289 17.143C25.2886 16.8069 23.8926 16.5828 22.7651 16.4147L22.0671 9.24384C23.302 9.29986 24.5369 9.69201 25.6644 10.3083C26.5235 10.7564 27.2752 11.3727 27.9195 12.045L28.1342 11.9889C27.7047 14.2298 28.349 15.7424 29.5839 17.0309C30.1745 17.6472 30.9262 18.0954 31.7315 18.2634L32.0537 18.3195C32.7517 18.4315 32.9664 18.5436 33.3423 18.4315Z" stroke="#221F1F" stroke-width="0.322148" stroke-linejoin="round"/>
<path d="M22.0671 9.24384H21.8523" stroke="#221F1F" stroke-width="0.322148" stroke-linejoin="round"/>
<path d="M33.396 18.1514C33.7718 18.5996 33.6644 19.2718 33.2349 19.664C33.1812 19.72 33.1812 19.72 33.1275 19.776" fill="#F79422"/>
<path d="M33.396 18.1514C33.7718 18.5996 33.6644 19.2718 33.2349 19.664C33.1812 19.72 33.1812 19.72 33.1275 19.776" stroke="#221F1F" stroke-width="0.322148" stroke-miterlimit="10"/>
<path d="M6.92617 18.1514C6.55034 18.5996 6.65772 19.2718 7.08725 19.664C7.14094 19.72 7.14094 19.72 7.19463 19.776" fill="#F79422"/>
<path d="M6.92617 18.1514C6.55034 18.5996 6.65772 19.2718 7.08725 19.664C7.14094 19.72 7.14094 19.72 7.19463 19.776" stroke="#221F1F" stroke-width="0.322148" stroke-miterlimit="10"/>
<path d="M18.1477 32.269C18.5235 32.3811 18.953 32.3251 19.3289 32.101C19.9195 31.8769 20.2953 31.2606 20.2416 30.5884C20.1879 31.2606 20.5638 31.8769 21.1544 32.101C21.5302 32.269 21.906 32.3251 22.2819 32.269" stroke="#171717" stroke-width="0.322148" stroke-linecap="round" stroke-linejoin="round"/>
<path d="M22.3356 28.6836C22.3356 29.3559 21.3691 30.2522 20.1879 30.2522C19.0067 30.2522 18.0403 29.3559 18.0403 28.6836C18.0403 28.0113 19.0067 27.7872 20.1879 27.7872C21.3691 27.7872 22.3356 28.0674 22.3356 28.6836Z" fill="#171717"/>
<path d="M21.047 28.4595C21.047 28.6276 20.6174 28.8517 20.1342 28.8517C19.651 28.8517 19.2215 28.6276 19.2215 28.5155C19.2215 28.4035 19.651 28.4035 20.1342 28.4035C20.6174 28.4035 21.047 28.2915 21.047 28.4595Z" fill="white"/>
<path d="M16.8054 30.5884C16.7517 31.3727 17.2349 32.0449 17.9866 32.213H18.1477" stroke="#171717" stroke-width="0.322148" stroke-linecap="round" stroke-linejoin="round"/>
<path d="M20.2416 29.8041C20.2416 30.0842 20.2416 30.3083 20.2416 30.5884" stroke="#171717" stroke-width="0.322148" stroke-linecap="round" stroke-linejoin="round"/>
<path d="M22.3356 32.269H22.4966C23.2483 32.101 23.7852 31.4287 23.6779 30.6444" stroke="#171717" stroke-width="0.322148" stroke-linecap="round" stroke-linejoin="round"/>
<path d="M35.9732 0.392288C40.0537 3.75363 40.9127 9.80405 37.9597 14.2298" stroke="#221F1F" stroke-width="0.322148" stroke-linejoin="round"/>
<path d="M10.4161 16.9749C9.8255 17.5912 9.07382 18.0393 8.26846 18.2074L7.94631 18.2634C7.62416 18.3755 7.30201 18.4315 6.92617 18.4315C6.87248 18.4315 6.7651 18.4315 6.71141 18.4315C6.55033 18.3755 6.33557 18.3195 6.1745 18.2634C5.58389 17.9833 5.04698 17.6472 4.56376 17.199C3.59731 16.3587 2.68456 15.4063 1.98658 14.2858C-0.966443 9.80405 -0.0536918 3.75363 4.02684 0.392287C4.2953 0.22422 4.61745 0.22422 4.83221 0.504332C4.9396 0.672399 4.99329 0.840466 4.9396 1.00853C4.56376 2.80125 4.24161 5.60237 5.85235 8.01133C7.24832 10.0281 10.1477 11.9889 11.9195 11.9889C12.2953 14.2298 11.7047 15.7424 10.4161 16.9749Z" stroke="#221F1F" stroke-width="0.322148" stroke-linejoin="round"/>
<path d="M16.2685 25.042C16.2685 26.2745 15.5705 27.2269 14.7114 27.2269C13.8523 27.2269 13.1544 26.2185 13.1544 25.042C13.1544 23.9776 13.6913 23.0812 14.3893 22.8571L16.1074 24.2017C16.2148 24.4818 16.2685 24.7619 16.2685 25.042Z" fill="#221F1F"/>
<path d="M15.6779 24.7619C15.6779 25.2101 15.4094 25.5462 15.141 25.5462C14.8725 25.5462 14.6041 25.2101 14.6041 24.7619C14.6041 24.3137 14.8725 23.9776 15.141 23.9776C15.4094 23.9776 15.6779 24.3137 15.6779 24.7619Z" fill="white"/>
<path d="M14.3893 26.7228C13.7987 27.227 13.2617 27.7872 12.7785 28.4035C12.5638 28.6836 12.349 29.0197 12.1879 29.4119C12.0268 29.748 11.9195 30.1402 11.8658 30.5323C11.8121 30.7004 11.8121 30.9245 11.8121 31.0926V31.3727V31.6528C11.8121 32.0449 11.8121 32.4371 11.8121 32.8853C11.8658 33.2774 11.9195 33.7256 11.9732 34.1178C12.0268 34.3419 12.0268 34.5099 12.0805 34.734C12.1342 34.9021 12.1879 35.1262 12.2953 35.2942C12.1879 35.1262 12.1342 34.9021 12.0268 34.734C11.9732 34.566 11.8658 34.3419 11.8121 34.1738C11.7047 33.7816 11.5973 33.3895 11.4899 32.9413C11.4362 32.5491 11.3826 32.101 11.3289 31.7088V31.4287V31.0926C11.3289 30.8685 11.3289 30.6444 11.3289 30.4763C11.3826 30.0281 11.4362 29.58 11.5973 29.1878C11.7584 28.7956 11.9195 28.4035 12.1342 28.0113C12.6174 27.283 13.1007 26.6108 13.6913 26.0505C13.906 25.8825 14.1745 25.8825 14.3893 26.0505C14.5503 26.1626 14.604 26.4987 14.3893 26.7228Z" fill="#221F1F"/>
<path d="M14.0134 26.5548C13.9597 26.5548 13.9597 26.5548 13.906 26.5548H13.8523H13.745L13.4765 26.4987C13.3154 26.4427 13.1544 26.4427 12.9933 26.4427C12.6711 26.4427 12.2953 26.4427 11.9732 26.5548C11.8121 26.6108 11.651 26.6668 11.4899 26.7228C11.0067 26.9469 10.5772 27.3391 10.3087 27.7873C10.4698 27.3951 10.6309 27.059 10.8993 26.7788C11.0067 26.6108 11.1678 26.4987 11.3289 26.3867C11.4899 26.2746 11.651 26.1626 11.8121 26.0506C12.1342 25.8265 12.5101 25.7144 12.9396 25.6024C13.1544 25.5464 13.3154 25.5464 13.5302 25.5464C13.6376 25.5464 13.745 25.5464 13.8523 25.5464H14.0671C14.3356 25.5464 14.5503 25.7704 14.604 26.0506C14.6577 26.3307 14.3356 26.5548 14.0134 26.5548Z" fill="#221F1F"/>
<path d="M27.2752 25.042C27.2752 26.2745 26.5772 27.2269 25.7719 27.2269C24.9665 27.2269 24.2148 26.2185 24.2148 25.042C24.2148 24.7619 24.2685 24.4818 24.3222 24.2017L26.0403 22.8571C26.7383 23.0812 27.2752 23.9776 27.2752 25.042Z" fill="#221F1F"/>
<path d="M24.7517 24.7619C24.7517 25.2101 25.0202 25.5462 25.2886 25.5462C25.5571 25.5462 25.8256 25.2101 25.8256 24.7619C25.8256 24.3137 25.5571 23.9776 25.2886 23.9776C25.0202 23.9776 24.7517 24.3137 24.7517 24.7619Z" fill="white"/>
<path d="M26.7383 25.9385C27.3289 26.5548 27.8121 27.171 28.2416 27.8993C28.4564 28.2354 28.6711 28.6276 28.8322 29.0197C28.9933 29.4119 29.1007 29.8601 29.1544 30.2522C29.2081 30.7004 29.2081 31.0926 29.1544 31.5407C29.1007 31.9329 29.047 32.3811 28.9933 32.7732C28.9396 33.1654 28.8322 33.5576 28.7248 33.9497C28.6711 34.1178 28.6174 34.3419 28.5101 34.5099C28.4564 34.678 28.349 34.9021 28.2416 35.0702C28.2953 34.9021 28.4027 34.678 28.4564 34.5099C28.5101 34.3419 28.5638 34.1178 28.6174 33.9497C28.6711 33.5576 28.7785 33.1654 28.7785 32.7732C28.8322 32.3811 28.8322 31.9889 28.8322 31.5407C28.8322 31.1486 28.7785 30.7564 28.7248 30.3643C28.6174 29.9721 28.5101 29.636 28.349 29.2999C28.1879 28.9637 27.9732 28.6276 27.7047 28.3475C27.2215 27.7312 26.6846 27.171 26.094 26.6668C25.8792 26.4427 25.8792 26.1626 26.094 25.9385C26.255 25.7704 26.5235 25.7144 26.7383 25.8825V25.9385Z" fill="#221F1F"/>
<path d="M26.4161 25.5464H26.6846C26.7919 25.5464 26.8993 25.5464 27.0067 25.5464C27.2215 25.5464 27.4362 25.5464 27.651 25.6024C28.0805 25.6584 28.4564 25.7704 28.8322 25.9385C29.2081 26.1066 29.5302 26.3867 29.8523 26.6668C30.1208 26.9469 30.3356 27.3391 30.4966 27.6752C30.2819 27.3391 30.0134 27.059 29.6913 26.8349C29.3691 26.6108 29.047 26.4427 28.6711 26.3867C28.2953 26.3307 27.9195 26.3307 27.5436 26.3307C27.3825 26.3307 27.1678 26.3867 27.0067 26.3867L26.7383 26.4427H26.6309H26.5772H26.5235H26.4698C26.2013 26.4987 25.9329 26.2746 25.9329 25.9945C25.8792 25.7144 26.094 25.4343 26.3624 25.4343C26.4161 25.4343 26.4161 25.4343 26.4698 25.4343" fill="#221F1F"/>
</g>
<defs>
<clipPath id="clip0_3_164">
<rect width="40" height="40" fill="white"/>
</clipPath>
</defs>
</svg>
