<svg xmlns="http://www.w3.org/2000/svg" width="40" height="40" fill="none" viewBox="0 0 40 40">
  <g clip-path="url(#a)">
    <path fill="#1D1D1D" d="M20 40c11.046 0 20-8.954 20-20S31.046 0 20 0 0 8.954 0 20s8.954 20 20 20Z"/>
    <path fill="#97FCE4" d="M34.904 19.861c0 9.855-6.03 13.017-9.208 10.201-2.616-2.296-3.394-7.147-7.328-7.645-4.993-.628-5.426 6.02-8.711 6.02-3.826 0-4.561-5.565-4.561-8.424 0-2.924.821-6.91 4.085-6.91 3.805 0 4.02 5.697 8.776 5.394 4.734-.325 4.82-6.26 7.89-8.794 2.68-2.188 9.057.173 9.057 10.158Z"/>
  </g>
  <defs>
    <clipPath id="a">
      <path fill="#fff" d="M0 0h40v40H0z"/>
    </clipPath>
  </defs>
</svg>
