<svg width="1em" height="1em" viewBox="0 0 301 301" fill="none" xmlns="http://www.w3.org/2000/svg">
<g clip-path="url(#clip0_834_2321)">
<path d="M86.1124 44.5673C110.609 -15.7123 195.171 -14.5754 218.101 46.3405C224.987 64.695 239.294 79.3207 257.152 86.3493C316.048 109.391 314.947 195.086 255.446 216.529C237.306 223.025 222.717 237.332 215.33 255.472C190.73 316.002 105.668 314.476 83.1272 253.167C76.1701 235.098 61.9698 220.648 44.2553 213.726C-14.6407 190.685 -13.5396 104.99 45.9606 83.5465C64.1006 77.0505 78.6905 62.743 86.0767 44.603H86.1124V44.5673Z" fill="url(#paint0_linear_834_2321)"/>
<path d="M87.8497 45.9719C111.688 -12.6882 193.976 -11.5835 216.295 47.6987C222.999 65.5598 236.92 79.7922 254.299 86.6314C311.611 109.051 310.542 192.447 252.64 213.315C234.986 219.635 220.786 233.56 213.603 251.214C189.661 310.117 106.887 308.63 84.9503 248.969C78.1791 231.383 64.3613 217.322 47.1223 210.587C-10.19 188.167 -9.12104 104.771 48.7811 83.9036C66.4349 77.5828 80.6351 63.6579 87.8175 46.0041H87.8532V45.9683L87.8497 45.9719Z" fill="url(#paint1_linear_834_2321)"/>
<path d="M51.3874 86.9463C69.0412 80.6256 83.2415 66.7006 90.4238 49.0468H90.4596V49.0111C110.666 -0.700545 172.851 -7.48606 204.934 27.6892C173.741 -10.8752 108.614 -5.13366 87.8462 45.9722V46.008H87.8104C80.6245 63.6618 66.4242 77.5832 48.774 83.9075C1.1181 101.079 -8.0377 160.607 22.1682 193.641C-4.838 160.118 5.1651 103.606 51.3874 86.9463Z" fill="#FFE8AE"/>
<path d="M87.6041 246.045C81.3941 228.606 67.7158 214.581 50.3695 207.48V207.445H50.3373C1.49089 187.492 -5.17308 126.061 29.3873 94.3682C-8.50149 125.182 -2.85999 189.516 47.3486 210.029H47.3807V210.065C64.7235 217.165 78.4018 231.19 84.6153 248.63C101.49 295.706 159.975 304.751 192.429 274.91C159.492 301.587 103.974 291.709 87.6076 246.045H87.6041Z" fill="#FFEDC0"/>
<path d="M250.023 210.265C232.37 216.586 218.169 230.511 210.987 248.165H210.951V248.2C190.748 297.916 128.563 304.701 96.4805 269.526C127.673 308.09 192.801 302.349 213.565 251.246V251.211H213.6C220.786 233.557 234.987 219.635 252.637 213.311C300.293 196.136 309.448 136.608 279.243 103.574C306.249 137.097 296.246 193.609 250.023 210.265Z" fill="#826711"/>
<path opacity="0.3" d="M251.724 212.471C233.735 218.899 219.263 233.06 211.941 251.014H211.905V251.05C191.316 301.613 127.944 308.513 95.25 272.737C127.036 311.955 193.408 306.117 214.572 254.146V254.11H214.608C221.93 236.156 236.402 221.999 254.392 215.567C302.956 198.103 312.286 137.559 281.505 103.964C309.03 138.056 298.833 195.529 251.728 212.471H251.724Z" fill="#FEE7A2"/>
<path d="M119.826 185.479H96.4805V111.689H119.826V185.479Z" fill="black"/>
<path d="M161.511 185.479H138.166V111.689H185.643C204.341 111.689 216.675 120.734 216.675 138.002C216.675 155.27 204.341 164.315 185.643 164.315H161.476V185.479H161.511ZM184.428 144.974C190.47 144.974 193.687 142.185 193.687 138.002C193.687 133.819 190.505 131.031 184.428 131.031H161.511V145.009H184.428V144.974Z" fill="black"/>
</g>
<defs>
<linearGradient id="paint0_linear_834_2321" x1="29.3472" y1="79.9392" x2="272.096" y2="220.09" gradientUnits="userSpaceOnUse">
<stop stop-color="#FEE089"/>
<stop offset="0.59" stop-color="#6A5300"/>
</linearGradient>
<linearGradient id="paint1_linear_834_2321" x1="76.8348" y1="74.7084" x2="252.608" y2="250.481" gradientUnits="userSpaceOnUse">
<stop stop-color="#F7DC8F"/>
<stop offset="1" stop-color="#CCA831"/>
</linearGradient>
<clipPath id="clip0_834_2321">
<rect width="300" height="300.021" fill="white" transform="translate(0.707031)"/>
</clipPath>
</defs>
</svg>
