<svg width="1em" height="1em" viewBox="0 0 200 200" fill="none" xmlns="http://www.w3.org/2000/svg">
<circle cx="100" cy="100" r="100" fill="#000000"/>
<g transform="translate(65, 54) scale(1)">
  <path d="M69.53 61.1452C69.53 80.4608 54.0372 92 34.9212 92C15.8051 92 2.49883 80.5862 0 66.0368H17.6168C19.5534 71.5556 25.8629 75.5692 34.9212 75.5692C44.979 75.5692 52.2256 70.4894 52.2256 61.4588C52.2256 52.4281 45.1664 47.7873 34.8587 47.7873V60.5181C15.4303 60.5181 0.562237 49.4806 0.562237 31.0429C0.562237 12.6053 14.868 0 34.9836 0C54.0372 0 67.1561 11.3511 68.468 25.3361H51.4759C50.1016 20.319 44.5417 16.4935 35.3585 16.4935C24.1762 16.4935 17.9916 21.6987 17.9916 30.5412C17.9916 39.3838 25.1133 43.6483 34.8587 43.6483V30.2904C55.9738 30.2904 69.53 42.9584 69.53 61.1452Z" fill="#ffffff"/>
</g>
</svg>
