<svg width="40" height="40" viewBox="0 0 40 40" fill="none" xmlns="http://www.w3.org/2000/svg">
<g clip-path="url(#clip0_6_105)">
<path d="M0 20C0 8.9543 8.9543 0 20 0C31.0457 0 40 8.9543 40 20C40 31.0457 31.0457 40 20 40C8.9543 40 0 31.0457 0 20Z" fill="white"/>
<mask id="mask0_6_105" style="mask-type:luminance" maskUnits="userSpaceOnUse" x="3" y="11" width="34" height="16">
<path d="M36.6667 11.6667H3.33333V26.9333H36.6667V11.6667Z" fill="white"/>
</mask>
<g mask="url(#mask0_6_105)">
<path d="M28.5657 11.6667C26.7075 11.6667 24.673 12.5922 22.527 14.4177C21.5143 15.2753 20.6225 16.2093 19.9722 16.948C19.9722 16.948 21.0127 18.0433 22.1553 19.2235C22.7778 18.5103 23.6603 17.5423 24.6915 16.6678C26.596 15.0376 27.841 14.7064 28.5563 14.7064C31.2318 14.7064 33.4058 16.7612 33.4058 19.3C33.4058 21.8133 31.2318 23.8682 28.5563 23.8937C28.4262 23.8937 28.2777 23.8767 28.0918 23.8427C28.8722 24.1738 29.7175 24.4115 30.5072 24.4115C35.4125 24.4115 36.3787 21.3123 36.4343 21.0915C36.5738 20.5227 36.6573 19.9283 36.6573 19.317C36.6482 15.097 33.0248 11.6667 28.5657 11.6667Z" fill="url(#paint0_linear_6_105)"/>
<path d="M11.4251 26.9333C13.2832 26.9333 15.3177 26.0078 17.4638 24.1823C18.4763 23.3247 19.3683 22.3907 20.0185 21.652C20.0185 21.652 18.978 20.5566 17.8353 19.3763C17.213 20.0897 16.3304 21.0576 15.2991 21.9321C13.3946 23.5455 12.1405 23.8935 11.4344 23.8935C8.75883 23.8935 6.58491 21.8388 6.58491 19.3C6.58491 16.7866 8.75883 14.7318 11.4344 14.7064C11.5645 14.7064 11.7131 14.7234 11.8989 14.7573C11.1185 14.4262 10.2731 14.1884 9.48346 14.1884C4.57821 14.1799 3.61203 17.2791 3.55629 17.5083C3.41694 18.0773 3.33333 18.6717 3.33333 19.283C3.33333 23.503 6.95651 26.9333 11.4251 26.9333Z" fill="url(#paint1_linear_6_105)"/>
<path fill-rule="evenodd" clip-rule="evenodd" d="M15.1598 16.7357C14.621 16.2602 12.0011 14.3158 9.49277 14.2479C5.01488 14.146 3.70497 17.1178 3.58418 17.5C4.44818 14.1715 7.64402 11.6836 11.4344 11.6667C14.5281 11.6667 17.6588 14.4432 19.9722 16.948L19.9815 16.9395C19.9815 16.9395 21.022 18.0348 22.1647 19.2152C22.1647 19.2152 23.4653 20.6162 24.8402 21.8473C25.379 22.3228 27.9897 24.2417 30.498 24.3097C35.0967 24.4285 36.3693 21.2868 36.4345 21.0492C35.589 24.403 32.3838 26.8993 28.5748 26.9163C25.4813 26.9163 22.3505 24.1398 20.0278 21.635C20.0278 21.6435 20.0187 21.6435 20.0187 21.652C20.0187 21.652 18.9782 20.5567 17.8353 19.3765C17.8447 19.3765 16.544 17.967 15.1598 16.7357Z" fill="#29ABE2"/>
</g>
</g>
<defs>
<linearGradient id="paint0_linear_6_105" x1="24.2163" y1="12.8763" x2="34.6342" y2="24.3687" gradientUnits="userSpaceOnUse">
<stop offset="0.21" stop-color="#F15A24"/>
<stop offset="0.6841" stop-color="#FBB03B"/>
</linearGradient>
<linearGradient id="paint1_linear_6_105" x1="15.7772" y1="25.7253" x2="5.35945" y2="14.2331" gradientUnits="userSpaceOnUse">
<stop offset="0.21" stop-color="#ED1E79"/>
<stop offset="0.8929" stop-color="#522785"/>
</linearGradient>
<clipPath id="clip0_6_105">
<rect width="40" height="40" fill="white"/>
</clipPath>
</defs>
</svg>
