<svg height="40.005" viewBox="0 0 40 40.005" width="40" xmlns="http://www.w3.org/2000/svg"><path d="m0 .005h40v40h-40z" fill="none"/><path d="m39.4 24.842a20 20 0 1 1 -14.564-24.242 20 20 0 0 1 14.564 24.242z" fill="#2a5ada" transform="translate(0 -.001)"/><path d="m8 8.005h24v24h-24z" fill="none"/><path d="m10.4 0-2.2 1.266-6 3.468-2.2 1.266v12l2.2 1.266 6.055 3.468 2.204 1.266 2.2-1.266 5.945-3.468 2.203-1.266v-12l-2.2-1.266-6-3.468zm-6 15.468v-6.936l6-3.468 6 3.468v6.936l-6 3.468z" fill="#fff" transform="translate(9.597 8.005)"/></svg>