<svg width="40" height="40" fill="none" xmlns="http://www.w3.org/2000/svg"><g clip-path="url(#a)"><path d="M19.9976 0A20.00243 20.00243 0 0 0 5.85373 34.1463a20.00227 20.00227 0 0 0 10.24157 5.4742 20.002 20.002 0 0 0 11.5569-1.1383 20.00225 20.00225 0 0 0 8.9768-7.367 20.00258 20.00258 0 0 0 1.8484-18.7674 20.00239 20.00239 0 0 0-4.336-6.48923 20.00247 20.00247 0 0 0-6.4892-4.33598A20.0027 20.0027 0 0 0 19.9976 0Zm.3242 20.6605-2.0806 7.0206h11.1286a.57228.57228 0 0 1 .2548.0608.56992.56992 0 0 1 .2009.1681c.053.0709.0888.1531.1046.2402a.57032.57032 0 0 1-.0136.2616l-.9677 3.3337a.76419.76419 0 0 1-.2755.3987.765.765 0 0 1-.4599.1529H11.2157l2.8741-9.7061-3.1789.9677.7015-2.2692 3.1838-.9677 4.0353-13.63497a.75994.75994 0 0 1 .2717-.40112.75959.75959 0 0 1 .4589-.15531h4.3063a.57048.57048 0 0 1 .2548.05901.5707.5707 0 0 1 .2018.16646.57082.57082 0 0 1 .1064.23898.57298.57298 0 0 1-.0114.26133L21.033 18.3864l3.1789-.9677-.6822 2.3079-3.2079.9339Z" fill="#F8FCFE"/></g><defs><clipPath id="a"><path fill="#fff" d="M0 0h40v40H0z"/></clipPath></defs></svg>