<svg width="40" height="40" viewBox="0 0 40 40" fill="none" xmlns="http://www.w3.org/2000/svg">
<g clip-path="url(#clip0_1218_24189)">
<path d="M20 40C31.0457 40 40 31.0457 40 20C40 8.9543 31.0457 0 20 0C8.9543 0 0 8.9543 0 20C0 31.0457 8.9543 40 20 40Z" fill="#6F41D8"/>
<path d="M26.365 15.8662C25.9037 15.5975 25.305 15.5975 24.7975 15.8662L21.1987 17.9338L18.755 19.2813L15.1562 21.3475C14.695 21.6175 14.0962 21.6175 13.5887 21.3475L10.7287 19.73C10.2675 19.4613 9.94495 18.9675 9.94495 18.4275V15.2375C9.94495 14.6987 10.2212 14.205 10.7287 13.935L13.5412 12.3625C14.0037 12.0925 14.6037 12.0925 15.1112 12.3625L17.9237 13.935C18.3862 14.205 18.7087 14.6987 18.7087 15.2375V17.305L21.1525 15.9113V13.845C21.1552 13.5766 21.0833 13.3128 20.9449 13.0828C20.8066 12.8528 20.6071 12.6658 20.3687 12.5425L15.1562 9.5775C14.695 9.3075 14.0962 9.3075 13.5887 9.5775L8.2837 12.5425C8.04532 12.6658 7.84584 12.8528 7.70746 13.0828C7.56909 13.3128 7.49725 13.5766 7.49995 13.845V19.82C7.49995 20.36 7.7762 20.8538 8.2837 21.1238L13.5887 24.0887C14.05 24.3575 14.65 24.3575 15.1562 24.0887L18.755 22.0662L21.1987 20.6737L24.7975 18.6525C25.2587 18.3825 25.8575 18.3825 26.365 18.6525L29.1787 20.225C29.6412 20.4938 29.9625 20.9875 29.9625 21.5275V24.7175C29.9625 25.2563 29.6875 25.75 29.1787 26.02L26.3662 27.6375C25.9037 27.9075 25.3037 27.9075 24.7975 27.6375L21.9837 26.065C21.5212 25.795 21.1987 25.3012 21.1987 24.7625V22.695L18.755 24.0887V26.155C18.755 26.6937 19.0312 27.1887 19.5387 27.4575L24.8437 30.4225C25.305 30.6925 25.9037 30.6925 26.4112 30.4225L31.7162 27.4575C32.1775 27.1887 32.5 26.695 32.5 26.155V20.18C32.5027 19.9116 32.4308 19.6478 32.2924 19.4178C32.1541 19.1879 31.9546 19.0008 31.7162 18.8775L26.3662 15.8662H26.365Z" fill="white"/>
</g>
<defs>
<clipPath id="clip0_1218_24189">
<rect width="40" height="40" fill="white"/>
</clipPath>
</defs>
</svg>
