<svg xmlns="http://www.w3.org/2000/svg" width="1em" height="1em" viewBox="0 0 26 26" fill="none">
  <path d="M20.5156 6.03175C20.9503 5.59712 21.6239 5.62327 21.9023 6.08351C22.2033 6.57776 22.4308 7.11185 22.5927 7.6714C22.6835 7.98943 22.5783 8.36135 22.3144 8.6255L13.7998 17.1402C13.2855 17.6544 12.6458 18.0099 11.9668 18.1548L11.2597 18.3052C10.5835 18.4529 9.93811 18.8084 9.42672 19.3198L2.88961 25.8569C2.61119 24.783 2.48909 24.0582 3.36129 23.186L20.5156 6.03175ZM22.3603 9.7007C22.6443 9.41673 23.0808 9.58085 23.0527 9.95558C22.8765 12.2512 21.7829 14.6697 19.8339 16.6187C18.3478 18.2466 14.1543 20.7352 11.1572 22.4028C10.5436 22.7434 10.044 22.016 10.5468 21.5132L22.3574 9.70363L22.3603 9.7007ZM18.4414 2.58937C18.7112 2.31954 19.1091 2.26239 19.3818 2.44972C19.9499 2.83605 20.4811 3.39576 20.7539 4.07179C20.8561 4.33313 20.7683 4.65399 20.5439 4.87843L11.373 14.0503C10.8589 14.5643 10.2197 14.9191 9.54097 15.064L8.83297 15.2144C8.15688 15.3621 7.51227 15.7177 7.00093 16.229L1.34371 21.8853C1.06542 20.8116 1.19935 19.8315 2.07125 18.9595L18.4414 2.58937ZM14.5546 0.958511C15.0659 0.447256 15.7991 0.248121 16.4013 0.475112C16.7792 0.620007 17.1435 0.79701 17.4873 1.00441C17.9415 1.27729 17.9641 1.94165 17.538 2.36769L9.15132 10.7544C8.67118 11.2346 8.01757 11.4903 7.39254 11.4448C6.73629 11.3966 6.04558 11.6668 5.53707 12.1753L0.943317 16.7691C0.664923 15.6951 1.0262 14.4879 1.8984 13.6157L3.38668 12.1265L14.5546 0.958511ZM13.2119 0.143081C13.615 0.137675 13.7713 0.617574 13.4648 0.924331L5.47261 8.91652L4.54879 9.83937L3.14254 11.2456L3.13472 11.2544C2.83925 11.5499 2.40158 11.2828 2.56636 10.9077L3.94136 7.78273C4.01807 7.59238 4.10347 7.39868 4.19722 7.20265L4.20504 7.18312C4.99769 5.50406 6.27369 3.72287 7.47261 2.52394C9.39602 0.600534 11.1237 0.162968 13.2119 0.143081Z" fill="url(#paint0_linear_20832_989)"/>
  <defs>
    <linearGradient id="paint0_linear_20832_989" x1="27.194" y1="0.173687" x2="5.03706" y2="25.7927" gradientUnits="userSpaceOnUse">
      <stop stop-color="#F5BD00"/>
      <stop offset="0.364891" stop-color="#F54B00"/>
      <stop offset="1" stop-color="#6E45FF"/>
    </linearGradient>
  </defs>
</svg>
