<svg xmlns="http://www.w3.org/2000/svg" width="40" height="40"><path data-name="Rectangle 570" fill="none" d="M0 0h40v40H0z"/><path data-name="Path 4905" d="M20 0A20 20 0 1 1 0 20 20 20 0 0 1 20 0Z" fill="#fff" fill-rule="evenodd"/><path d="m27.565 8.743-5.238 7.774a.557.557 0 0 0 .836.724l5.155-4.486a.2.2 0 0 1 .334.167v14.016a.209.209 0 0 1-.362.139L12.686 8.408a2.578 2.578 0 0 0-2.039-.947h-.553a2.67 2.67 0 0 0-2.647 2.675v19.725a2.676 2.676 0 0 0 4.96 1.4l5.24-7.778a.557.557 0 0 0-.836-.724l-5.156 4.458a.2.2 0 0 1-.334-.167V13.061a.209.209 0 0 1 .362-.139l15.6 18.669a2.619 2.619 0 0 0 2.034.947h.557a2.676 2.676 0 0 0 2.679-2.677V10.136a2.694 2.694 0 0 0-4.988-1.393Z"/></svg>