<svg xmlns="http://www.w3.org/2000/svg" viewBox="0 0 192 192" width="192" height="192">
<g transform="translate(0,192) scale(0.1,-0.1)">
  <path fill="#4AAFE3" d="M750 1896 c-186 -44 -319 -116 -453 -245 -145 -140 -229 -287 -273
-479 -58 -257 -7 -530 140 -750 62 -92 203 -227 291 -280 217 -129 467 -172
700 -121 187 40 332 117 468 248 145 140 229 287 273 479 58 257 7 530 -140
750 -62 92 -203 227 -291 280 -222 131 -480 174 -715 118z"/>
  <path fill="white" d="M946 1438 c-15 -74 -58 -196 -87 -247 l-32 -55 -17 55 c-19 62 -37
99 -49 99 -4 0 -13 -18 -20 -40 -7 -22 -47 -110 -91 -195 -86 -169 -99 -215
-80 -297 29 -123 105 -220 218 -275 74 -36 203 -44 283 -18 102 34 190 112
236 210 26 55 28 70 28 175 -1 124 -12 174 -61 275 l-28 57 -22 -66 c-20 -62
-71 -153 -80 -143 -2 2 0 34 5 71 15 107 -6 201 -65 291 -40 60 -72 97 -106
119 -25 16 -25 16 -32 -16z"/>
</g>
</svg>