<svg xmlns="http://www.w3.org/2000/svg" width="40" height="40" fill="none" viewBox="0 0 40 40">
  <g clip-path="url(#a)">
    <rect width="40" height="40" fill="#fff" rx="20"/>
    <g clip-path="url(#b)">
      <path fill="#06070A" fill-rule="evenodd" d="M20 2.857C10.536 2.857 2.857 10.536 2.857 20S10.536 37.143 20 37.143h10.268C27.232 38.929 23.75 40 20 40 8.929 40 0 30.982 0 20 0 8.929 8.929 0 20 0s20 8.929 20 20c0 .982-.09 1.964-.179 2.857h-2.857c.179-.893.268-1.875.268-2.857C37.142 10.536 29.464 2.857 20 2.857Z" clip-rule="evenodd"/>
      <path fill="#06070A" fill-rule="evenodd" d="M36.429 31.429c-.715.982-1.607 1.964-2.5 2.857H20c-7.857 0-14.285-6.429-14.285-14.286 0-7.857 6.428-14.286 14.285-14.286S34.286 12.143 34.286 20c0 .982-.09 1.964-.268 2.857h-2.946c.268-.893.357-1.875.357-2.857 0-6.34-5.09-11.428-11.429-11.428S8.572 13.66 8.572 20c0 6.34 5.088 11.43 11.428 11.43h16.428Z" clip-rule="evenodd"/>
      <path fill="#06070A" fill-rule="evenodd" d="M38.036 28.572c.446-.893.803-1.875 1.071-2.857H19.911c-3.125 0-5.715-2.59-5.715-5.715s2.59-5.714 5.715-5.714 5.714 2.59 5.714 5.714c0 1.072-.268 2.054-.803 2.857h3.125c.357-.892.446-1.875.446-2.857a8.574 8.574 0 0 0-8.571-8.571A8.574 8.574 0 0 0 11.25 20a8.574 8.574 0 0 0 8.572 8.572h18.214Z" clip-rule="evenodd"/>
    </g>
  </g>
  <defs>
    <clipPath id="a">
      <rect width="40" height="40" fill="#fff" rx="20"/>
    </clipPath>
    <clipPath id="b">
      <path fill="#fff" d="M0 0h40v40H0z"/>
    </clipPath>
  </defs>
</svg>
