<svg xmlns="http://www.w3.org/2000/svg" width="40" height="40"><path data-name="Path 4929" d="M40 20a20 20 0 1 0-20 20 20.007 20.007 0 0 0 20-20Z" fill="#ff0420"/><path data-name="Path 4930" d="M14.176 25.312a4.779 4.779 0 0 1-2.928-.848 2.9 2.9 0 0 1-1.136-2.432 5.787 5.787 0 0 1 .08-.816c.128-.72.32-1.584.56-2.608a4.946 4.946 0 0 1 5.28-4.128 5.079 5.079 0 0 1 2.08.4 3.217 3.217 0 0 1 1.44 1.152 3.089 3.089 0 0 1 .528 1.808 5.817 5.817 0 0 1-.08.8c-.16.9-.336 1.76-.544 2.608a5.545 5.545 0 0 1-1.824 3.088 5.479 5.479 0 0 1-3.456 1.008Zm.224-2.16a2.17 2.17 0 0 0 1.424-.5 2.814 2.814 0 0 0 .864-1.52c.24-.944.416-1.76.528-2.464a2.946 2.946 0 0 0 .064-.656 1.242 1.242 0 0 0-1.424-1.376 2.245 2.245 0 0 0-1.44.5 2.8 2.8 0 0 0-.848 1.52c-.192.672-.368 1.488-.544 2.464a2.8 2.8 0 0 0-.064.64c-.016.928.48 1.392 1.44 1.392Z" fill="#fff"/><path data-name="Path 4931" d="M20.752 25.168a.3.3 0 0 1-.256-.112.4.4 0 0 1-.048-.272l2.08-9.76a.393.393 0 0 1 .176-.272.439.439 0 0 1 .288-.112h4a4.72 4.72 0 0 1 2.672.688 2.266 2.266 0 0 1 1.024 2 3.388 3.388 0 0 1-.1.784 4.1 4.1 0 0 1-1.52 2.56 5.107 5.107 0 0 1-3.1.832h-2.032l-.688 3.3a.453.453 0 0 1-.176.272.439.439 0 0 1-.288.112h-2.048Zm5.312-5.744a1.753 1.753 0 0 0 1.1-.352 1.717 1.717 0 0 0 .64-.992 2.522 2.522 0 0 0 .048-.448.917.917 0 0 0-.256-.672 1.287 1.287 0 0 0-.88-.24h-1.808l-.576 2.688h1.728Z" fill="#fff"/></svg>