<svg xmlns="http://www.w3.org/2000/svg" xmlns:xlink="http://www.w3.org/1999/xlink" width="40" height="40" viewBox="0 0 40 40">
  <defs>
    <clipPath id="clip-path">
      <rect id="Rectangle_575" data-name="Rectangle 575" width="27.516" height="24.908" fill="#fff"/>
    </clipPath>
  </defs>
  <g id="ic_ordi" transform="translate(-1476 -3084)">
    <path id="Path_4941" data-name="Path 4941" d="M40.43,20.244a20,20,0,1,1-20-20A20,20,0,0,1,40.43,20.244Z" transform="translate(1475.57 3083.756)" fill-rule="evenodd"/>
    <g id="Group_438" data-name="Group 438" transform="translate(1482.242 3091.546)">
      <g id="Group_437" data-name="Group 437" clip-path="url(#clip-path)">
        <path id="Path_4984" data-name="Path 4984" d="M13.746,7.385a5.129,5.129,0,1,0,5.111,5.137,5.127,5.127,0,0,0-5.111-5.137m-.017,7.673a2.54,2.54,0,1,1,2.535-2.531,2.55,2.55,0,0,1-2.535,2.531M27.514,11.1c0-.116-.059-.13-.151-.136-.428-.032-.855-.061-1.281-.1a.415.415,0,0,1-.428-.4,8.052,8.052,0,0,1-.055-.935c0-1.763,0-3.525-.006-5.288a3.992,3.992,0,0,0-.086-.809A4.131,4.131,0,0,0,21.267,0h-5.41V3.339c.035,0,.058.012.081.012,1.4,0,2.793-.012,4.191-.009a1.617,1.617,0,0,1,.528.078,1.275,1.275,0,0,1,.822,1.164,16.936,16.936,0,0,1,.116,2.724c-.022.974-.057,1.948-.088,2.921a2.257,2.257,0,0,0,1.057,2.082c.1.07.207.142.326.222-.084.072-.157.13-.223.193-.21.191-.431.371-.623.58a1.831,1.831,0,0,0-.538,1.248c-.006,2,0,4,0,6a1.08,1.08,0,0,1-.79,1.118,3.139,3.139,0,0,1-.871.123c-1.264.013-2.528.006-3.792.006H15.84v3.1c.055,0,.1.007.145.007,2.2-.016,4.407-.028,6.61-.057a1.668,1.668,0,0,0,.754-.167,3.874,3.874,0,0,0,2.237-3.434c.052-1.993.01-3.988.016-5.982a3.046,3.046,0,0,1,.088-.687.577.577,0,0,1,.591-.49c.2-.014.394-.012.591-.013s.415,0,.625,0a.324.324,0,0,0,.019-.058q0-1.461,0-2.922M11.463,21.8H7.723c-.168,0-.336-.007-.5-.023a1.19,1.19,0,0,1-1.209-1.2q0-2.975,0-5.948a1.845,1.845,0,0,0-.042-.378,2.515,2.515,0,0,0-.948-1.376l-.4-.341c.1-.064.167-.112.239-.158A2.364,2.364,0,0,0,6.02,10.2c-.013-1.616,0-3.234-.007-4.852,0-.233-.046-.465-.068-.7a.606.606,0,0,1,0-.154A1.485,1.485,0,0,1,7.117,3.349a4.163,4.163,0,0,1,.538,0h4V0H11.44C9.811,0,8.181.015,6.552,0A5.753,5.753,0,0,0,4.76.282,3.98,3.98,0,0,0,1.918,4.164q0,2.8,0,5.6a4.372,4.372,0,0,1-.054.674.43.43,0,0,1-.451.42q-.615.063-1.231.1c-.146.007-.18.061-.18.2,0,.916,0,1.832,0,2.748,0,.055.007.11.012.18.067,0,.119,0,.17,0,.342,0,.684-.007,1.025.007a.589.589,0,0,1,.628.516,3.009,3.009,0,0,1,.081.652c.006,1.989,0,3.978,0,5.966a2.794,2.794,0,0,0,.028.467,4.25,4.25,0,0,0,1.49,2.54,2.511,2.511,0,0,0,1.715.638c2.109,0,4.22.023,6.33.039.061,0,.123,0,.2,0V21.8Z" transform="translate(0 0)" fill="#fff"/>
      </g>
    </g>
  </g>
</svg>
