<svg xmlns="http://www.w3.org/2000/svg" width="40" height="40" fill="none" viewBox="0 0 40 40">
  <rect width="40" height="40" fill="url(#a)" rx="20"/>
  <path fill="#fff" d="M13.208 15.462a1.68 1.68 0 0 1 1.678 0l3.835 2.272 2.604 1.478 3.843 2.27c.487.296 1.13.296 1.671 0l3.051-1.773c.494-.295 1.09-.84 1.09-1.43v-3.501c0-.591-.549-1.136-1.098-1.431l-2.996-1.727a1.68 1.68 0 0 0-1.67 0l-3.004 1.727c-.487.295-.644.84-.644 1.43v2.264l-2.353-1.524v-2.28c0-.59-.156-1.135.393-1.43l5.56-3.252a1.681 1.681 0 0 1 1.671 0l5.655 3.252a1.593 1.593 0 0 1 .84 1.439v6.565c-.001.59-.3 1.127-.84 1.43l-5.655 3.252c-.494.296-1.13.296-1.67 0l-3.844-2.217-2.604-1.532-3.843-2.217a1.681 1.681 0 0 0-1.67 0l-2.996 1.727c-.494.295-1.192.84-1.192 1.431v3.5c0 .591.65 1.136 1.192 1.431l2.996 1.774c.494.296 1.137.296 1.678 0l2.996-1.727c.494-.296 1.333-.84 1.333-1.431v-2.264l2.353 1.525v2.271c0 .591-.533 1.136-1.074 1.431l-5.67 3.244c-.487.303-1.13.303-1.671 0l-5.655-3.251a1.719 1.719 0 0 1-.831-1.424V20.2c0-.592.298-1.136.839-1.432l5.702-3.306Z"/>
  <defs>
    <linearGradient id="a" x1="0" x2="40" y1="0" y2="40" gradientUnits="userSpaceOnUse">
      <stop stop-color="#8F34C2"/>
      <stop offset="1" stop-color="#7442DB"/>
    </linearGradient>
  </defs>
</svg>
