<svg width="40" height="40" viewBox="0 0 40 40" fill="none" xmlns="http://www.w3.org/2000/svg">
<g clip-path="url(#clip0_7895_10064)">
<path fill-rule="evenodd" clip-rule="evenodd" d="M40 20C40 23.9556 38.827 27.8224 36.6294 31.1114C34.4318 34.4004 31.3082 36.9638 27.6537 38.4776C23.9992 39.9913 19.9778 40.3874 16.0982 39.6157C12.2186 38.844 8.65492 36.9392 5.85787 34.1421C3.06082 31.3451 1.15601 27.7814 0.384303 23.9018C-0.387401 20.0222 0.00866568 16.0009 1.52242 12.3463C3.03617 8.69181 5.59962 5.56824 8.8886 3.37061C12.1776 1.17298 16.0444 0 20 0C25.3043 0 30.3914 2.10714 34.1421 5.85786C37.8929 9.60859 40 14.6957 40 20Z" fill="#30621F"/>
<mask id="mask0_7895_10064" style="mask-type:luminance" maskUnits="userSpaceOnUse" x="4" y="7" width="32" height="26">
<path d="M4.4231 7.26404H35.5801V32.736H4.4231V7.26404Z" fill="white"/>
</mask>
<g mask="url(#mask0_7895_10064)">
<path d="M20.2749 8.85507C20.2749 8.85507 20.5109 8.71307 20.9239 8.48607C22.0654 7.79025 23.378 7.42566 24.7149 7.43307C25.5033 7.33366 26.304 7.41301 27.0575 7.66523C27.8111 7.91745 28.4982 8.33608 29.0679 8.89007C29.351 9.18738 29.5212 9.57442 29.5489 9.98407C29.9135 10.0216 30.2714 10.108 30.6129 10.2411C31.2429 10.5172 31.8147 10.9105 32.2979 11.4001C32.5306 11.6691 32.7273 11.9672 32.8829 12.2871C33.6079 12.4207 34.2605 12.8112 34.7209 13.3871C35.0771 13.8802 35.3065 14.4534 35.3889 15.0561C35.3895 15.058 35.3895 15.0601 35.3889 15.0621C35.3898 15.0657 35.3898 15.0695 35.3889 15.0731V15.8091C35.3889 15.8461 35.3889 15.8951 35.3829 15.9391C35.3829 15.9641 35.3829 15.9911 35.3769 16.0171C35.3709 16.0431 35.3769 16.0901 35.3669 16.1261C35.3589 16.2001 35.3509 16.2761 35.3399 16.3541L35.3149 16.5231L35.2909 16.6501C35.2141 17.0264 35.118 17.3986 35.0029 17.7651C34.5939 18.8906 33.8338 19.8547 32.8349 20.5151C33.1208 21.1191 33.3269 21.7578 33.4479 22.4151C33.6156 22.356 33.797 22.348 33.9693 22.3919C34.1416 22.4359 34.297 22.5299 34.4159 22.6621C34.5839 22.9447 34.665 23.2706 34.6489 23.5991C34.6423 23.7541 34.5987 23.9053 34.5216 24.04C34.4445 24.1747 34.3363 24.2889 34.2059 24.3731C34.3662 24.4513 34.4955 24.5813 34.5729 24.7421C34.6504 24.9778 34.6741 25.2279 34.6422 25.4739C34.6104 25.72 34.5238 25.9558 34.3889 26.1641C33.9183 26.8 33.2408 27.2519 32.4729 27.4421C32.2637 27.7955 32.0297 28.1336 31.7729 28.4541C30.8259 29.6481 29.5799 31.4391 25.0859 32.2811C20.8581 32.8698 16.5522 32.508 12.4819 31.2221C10.3359 30.4221 4.65188 28.1981 4.58188 23.1781C4.51388 18.2181 8.66288 14.3691 8.76288 14.2781C9.12891 12.4301 10.0676 10.7444 11.4459 9.46007C12.5825 8.43163 14.0177 7.79277 15.5425 7.63648C17.0673 7.48018 18.6023 7.8146 19.9239 8.59107L20.2749 8.85507Z" fill="#52AA35"/>
<path d="M21.404 32.736C18.357 32.7503 15.3265 32.287 12.423 31.363C10.462 30.632 4.49397 28.408 4.42297 23.177C4.35697 18.371 8.16297 14.622 8.61697 14.193C8.9996 12.3348 9.94965 10.6412 11.336 9.34602C12.4944 8.2824 13.9657 7.62177 15.5303 7.46264C17.0949 7.30351 18.6691 7.65441 20.018 8.46302L20.286 8.66302C20.386 8.60202 20.586 8.49102 20.848 8.34502C20.887 8.32402 20.93 8.29802 20.98 8.26902C22.1123 7.61176 23.3987 7.26669 24.708 7.26902C25.5177 7.16734 26.3399 7.24939 27.1136 7.50907C27.8873 7.76875 28.5925 8.1994 29.177 8.76902C29.4621 9.05809 29.6429 9.43383 29.691 9.83702C30.0273 9.88044 30.3571 9.96473 30.673 10.088C31.3244 10.3735 31.9153 10.7808 32.414 11.288C32.6434 11.549 32.8383 11.8383 32.994 12.149C33.7287 12.2973 34.387 12.7012 34.852 13.289C35.2207 13.8009 35.459 14.3951 35.546 15.02C35.5462 15.0237 35.5462 15.0274 35.546 15.031C35.5466 15.0397 35.5466 15.0484 35.546 15.057V15.101C35.5468 15.108 35.5468 15.115 35.546 15.122C35.5466 15.1303 35.5466 15.1387 35.546 15.147C35.5466 15.155 35.5466 15.163 35.546 15.171V15.799C35.546 15.833 35.546 15.891 35.539 15.937C35.539 15.966 35.539 15.988 35.533 16.009C35.533 16.049 35.527 16.092 35.522 16.133C35.514 16.213 35.506 16.287 35.495 16.363V16.384C35.488 16.434 35.481 16.484 35.472 16.536L35.448 16.666C35.3705 17.0485 35.273 17.4267 35.156 17.799C34.7583 18.9164 34.0182 19.8798 33.041 20.552C33.085 20.652 33.141 20.79 33.219 20.995C33.3695 21.3917 33.4885 21.7996 33.575 22.215C33.7523 22.1806 33.9355 22.194 34.106 22.2538C34.2764 22.3135 34.4279 22.4175 34.545 22.555C34.7348 22.8675 34.8264 23.2298 34.808 23.595C34.7951 23.879 34.6758 24.1478 34.474 24.348C34.5711 24.4351 34.652 24.5387 34.713 24.654C34.8032 24.9142 34.8332 25.1915 34.8008 25.465C34.7684 25.7385 34.6744 26.0011 34.526 26.233C34.0523 26.8826 33.3716 27.3516 32.596 27.563C32.3905 27.9049 32.1623 28.2327 31.913 28.544L31.795 28.693C30.826 29.924 29.495 31.609 25.131 32.428C23.901 32.6448 22.6538 32.7485 21.405 32.738M16.162 7.76302C14.4476 7.73845 12.7924 8.38932 11.554 9.57502C10.2018 10.838 9.27983 12.4934 8.91797 14.308C8.91161 14.3411 8.89478 14.3712 8.86997 14.394C8.69897 14.552 4.66997 18.315 4.74097 23.176C4.81097 28.19 10.626 30.357 12.541 31.069C16.5913 32.338 20.8723 32.6952 25.077 32.115C29.328 31.315 30.613 29.686 31.551 28.495L31.67 28.345C31.9221 28.0303 32.1517 27.6981 32.357 27.351C32.3757 27.319 32.4051 27.2946 32.44 27.282C33.1709 27.0985 33.8177 26.6718 34.274 26.072C34.394 25.8869 34.4723 25.6778 34.5036 25.4594C34.5348 25.241 34.5182 25.0184 34.455 24.807C34.3947 24.6786 34.2944 24.5733 34.169 24.507C34.1411 24.4958 34.117 24.4771 34.0993 24.4529C34.0816 24.4286 34.0711 24.3999 34.069 24.37C34.067 24.3403 34.0735 24.3107 34.0876 24.2845C34.1018 24.2583 34.123 24.2366 34.149 24.222C34.2564 24.1511 34.3454 24.0556 34.4086 23.9435C34.4717 23.8313 34.5071 23.7057 34.512 23.577C34.5252 23.2826 34.4534 22.9906 34.305 22.736C34.2038 22.6311 34.0742 22.5581 33.932 22.5259C33.7899 22.4937 33.6414 22.5039 33.505 22.555C33.4836 22.5611 33.4612 22.5626 33.4392 22.5595C33.4172 22.5564 33.3961 22.5487 33.3772 22.5369C33.3584 22.5251 33.3422 22.5095 33.3298 22.4911C33.3173 22.4727 33.3089 22.4519 33.305 22.43C33.1853 21.7882 32.9837 21.1644 32.705 20.574C32.6881 20.5401 32.6839 20.5012 32.6933 20.4645C32.7027 20.4278 32.7249 20.3957 32.756 20.374C33.7284 19.7364 34.4677 18.8006 34.863 17.707C34.9767 17.3455 35.0715 16.9784 35.147 16.607L35.171 16.482C35.179 16.436 35.185 16.387 35.192 16.34V16.319C35.2066 16.212 35.2183 16.1047 35.227 15.997C35.228 15.967 35.227 15.934 35.234 15.906C35.241 15.878 35.234 15.831 35.239 15.791C35.244 15.751 35.239 15.728 35.239 15.7V15.145C35.2385 15.1367 35.2385 15.1283 35.239 15.12V15.099C35.2386 15.0944 35.2386 15.0897 35.239 15.085V15.075C35.1595 14.4973 34.9394 13.9479 34.598 13.475C34.1585 12.9328 33.5389 12.5666 32.852 12.443C32.8302 12.4368 32.81 12.426 32.7928 12.4113C32.7755 12.3967 32.7616 12.3785 32.752 12.358C32.6033 12.0533 32.4161 11.769 32.195 11.512C31.7283 11.038 31.1754 10.6575 30.566 10.391C30.2375 10.2636 29.8934 10.1808 29.543 10.145C29.5072 10.1411 29.4738 10.1251 29.4483 10.0997C29.4229 10.0742 29.4069 10.0408 29.403 10.005C29.381 9.63127 29.228 9.27723 28.971 9.00502C28.4153 8.46437 27.7445 8.05643 27.0089 7.81173C26.2732 7.56704 25.4918 7.49192 24.723 7.59202C23.4653 7.58673 22.2288 7.91562 21.14 8.54502L21.001 8.62502C20.601 8.84702 20.36 8.99002 20.357 8.99102C20.3299 9.00725 20.2986 9.01507 20.2671 9.01346C20.2356 9.01186 20.2052 9.00091 20.18 8.98202L19.823 8.71702C18.7136 8.06839 17.4468 7.73829 16.162 7.76302Z" fill="black"/>
<path d="M33.309 22.4331C33.1994 21.8171 33.0074 21.2187 32.738 20.6541L33.019 20.5081C33.3039 21.1005 33.5058 21.7295 33.619 22.3771L33.309 22.4331Z" fill="black"/>
<path d="M25.4291 15.574C26.9291 14.2099 28.9028 13.4861 30.9291 13.557C34.2991 13.699 35.3911 15.057 35.3911 15.057C35.4544 15.5435 35.4341 16.0373 35.3311 16.517C35.1561 17.201 34.7491 18.537 33.7801 18.762C32.8111 18.987 30.2501 19.509 28.6801 18.89C27.1101 18.271 25.2271 17.319 25.2271 17.319C25.2906 16.9413 25.2906 16.5557 25.2271 16.178C25.1051 15.885 25.4271 15.578 25.4271 15.578" fill="white"/>
<path d="M30.5629 19.2571C29.9119 19.2746 29.2633 19.1729 28.6489 18.9571C27.0899 18.3441 25.2079 17.3921 25.1889 17.3831L25.1379 17.3571L25.1459 17.3011C25.2108 16.9374 25.2125 16.5653 25.1509 16.2011C25.0109 15.8671 25.3509 15.5371 25.3729 15.5131C26.8928 14.14 28.8856 13.4092 30.9329 13.4741C34.3739 13.6191 35.4649 15.0171 35.4679 15.0311L35.4829 15.0951H35.4769C35.5351 15.5725 35.5118 16.0564 35.4079 16.5261C35.0549 17.9061 34.5279 18.6591 33.7979 18.8261C32.7376 19.0829 31.6526 19.224 30.5619 19.2471M25.3109 17.2701C25.6199 17.4251 27.2969 18.2581 28.7109 18.8131C30.1599 19.3831 32.5009 18.9751 33.7669 18.6811C34.4249 18.5281 34.9269 17.7921 35.2589 16.4941C35.3583 16.0318 35.3789 15.5562 35.3199 15.0871C35.1839 14.9371 34.0199 13.7671 30.9309 13.6361C28.9278 13.5723 26.9779 14.2866 25.4899 15.6291C25.4899 15.6291 25.2049 15.9031 25.3049 16.1411C25.3755 16.5139 25.3775 16.8965 25.3109 17.2701Z" fill="black"/>
<path d="M14.064 16.803C14.064 16.803 18.075 14.138 20.816 13.932C23.557 13.726 24.809 14.991 24.973 15.32C25.137 15.649 25.821 18.267 22.24 19.12C18.659 19.973 16.684 18.469 16.684 18.469L14.064 16.803Z" fill="white"/>
<path d="M20.1119 19.4541C19.4314 19.4583 18.7535 19.3678 18.0979 19.1851C17.577 19.0511 17.0829 18.8289 16.6369 18.5281L13.9189 16.8041L14.0189 16.7361C14.0589 16.7091 18.0789 14.0571 20.8089 13.8521C23.5979 13.6431 24.8759 14.9521 25.0429 15.2841C25.2909 15.9566 25.2632 16.6998 24.9659 17.3521C24.6865 17.8464 24.2967 18.2697 23.8271 18.589C23.3574 18.9083 22.8205 19.115 22.2579 19.1931C21.5552 19.3633 20.835 19.4509 20.1119 19.4541ZM14.2119 16.8021L16.7289 18.4021C16.7539 18.4211 18.7289 19.8731 22.2239 19.0431C22.7629 18.9695 23.2777 18.7729 23.7285 18.4686C24.1793 18.1643 24.5541 17.7604 24.8239 17.2881C25.1035 16.6803 25.1319 15.9867 24.9029 15.3581C24.7459 15.0421 23.5259 13.8111 20.8229 14.0141C18.3759 14.1981 14.8559 16.3921 14.2119 16.8061" fill="black"/>
<path d="M21.402 32.736C18.3555 32.7512 15.3254 32.289 12.422 31.366C10.461 30.634 4.493 28.408 4.422 23.18C4.352 18.147 8.612 14.198 8.656 14.158L8.87 14.392C8.828 14.43 4.67 18.292 4.74 23.176C4.81 28.187 10.625 30.357 12.54 31.069C16.5892 32.3384 20.8692 32.6963 25.073 32.117C29.324 31.317 30.609 29.688 31.547 28.497L31.665 28.347C31.9172 28.0323 32.1467 27.7001 32.352 27.353L32.625 27.514C32.4122 27.8736 32.1743 28.2178 31.913 28.544L31.796 28.693C30.827 29.924 29.496 31.609 25.132 32.428C23.901 32.6447 22.6528 32.7484 21.403 32.738" fill="black"/>
<path d="M29.892 21.666C29.1335 21.661 28.3821 21.5191 27.674 21.247L27.602 21.217L27.582 21.141C27.4115 20.5164 27.1973 19.9046 26.941 19.31C26.4711 18.5728 25.8568 17.9383 25.135 17.445L25.087 17.412L25.072 17.356C24.9885 16.9617 24.9513 16.559 24.961 16.156C24.943 15.6853 24.8124 15.2258 24.58 14.816L24.53 14.733L24.581 14.651C25.4825 13.5144 26.7471 12.7218 28.163 12.406C31.018 11.536 33.894 11.917 34.851 13.292C35.833 14.702 35.702 16.062 35.171 17.799C34.8236 18.6953 34.2723 19.4984 33.5606 20.1446C32.849 20.7908 31.9966 21.2624 31.071 21.522C30.6845 21.6184 30.2874 21.6661 29.889 21.664M27.864 20.98C28.8644 21.3502 29.9486 21.4316 30.993 21.215C31.8664 20.9706 32.671 20.5263 33.343 19.9173C34.015 19.3083 34.5361 18.5512 34.865 17.706C35.381 16.017 35.501 14.783 34.588 13.472C33.706 12.205 30.982 11.872 28.252 12.708C26.9518 13.0251 25.7812 13.7358 24.9 14.743C25.132 15.1785 25.2604 15.6617 25.275 16.155C25.2699 16.512 25.2994 16.8687 25.363 17.22C26.1167 17.7333 26.7522 18.4015 27.227 19.18C27.4802 19.7648 27.693 20.3662 27.864 20.98Z" fill="black"/>
<path d="M24.572 15.154L24.557 14.741C24.533 14.1953 24.3161 13.6758 23.945 13.275C23.619 12.9845 23.255 12.7395 22.863 12.547L22.656 12.458L22.81 12.294C23.1283 11.9677 23.4695 11.6646 23.831 11.387L23.849 11.374C24.6749 10.6984 25.6487 10.2273 26.691 9.99903C27.6377 9.81374 28.605 9.75623 29.567 9.82803C29.9456 9.86717 30.3173 9.95697 30.672 10.095C31.3299 10.372 31.9244 10.7803 32.419 11.295C32.5945 11.5241 32.7529 11.7657 32.893 12.018L33.032 12.267L32.747 12.253C31.1733 12.1779 29.5976 12.3496 28.077 12.762C27.0992 13.0413 26.1936 13.5295 25.423 14.193C25.2178 14.3975 25.0223 14.6114 24.837 14.834L24.572 15.154ZM23.192 12.354C23.5343 12.5463 23.856 12.7731 24.152 13.031C24.5178 13.3862 24.7558 13.8524 24.829 14.357C24.945 14.226 25.086 14.074 25.205 13.957C26.0065 13.2623 26.9497 12.7505 27.969 12.457C29.4309 12.0398 30.95 11.8586 32.469 11.92C32.3808 11.7709 32.2826 11.6279 32.175 11.492C31.7137 11.0162 31.1619 10.6374 30.552 10.378C30.2235 10.2506 29.8795 10.1679 29.529 10.132C28.596 10.0636 27.658 10.1201 26.74 10.3C25.7494 10.5202 24.8245 10.9703 24.04 11.614L24.013 11.633C23.726 11.8563 23.4512 12.095 23.19 12.348" fill="black"/>
<path d="M31.028 19.273C29.9734 19.3019 28.9215 19.1517 27.917 18.829C27.27 18.549 25.238 17.5 25.152 17.455L25.061 17.408L25.066 17.308C25.1012 16.8507 25.0641 16.3907 24.956 15.945L24.915 15.845L24.987 15.769C26.2305 14.5178 27.8506 13.7097 29.598 13.469C31.1204 13.2182 32.6824 13.3912 34.113 13.969C34.6343 14.2017 35.1069 14.5308 35.506 14.939L35.543 14.978L35.549 15.031C35.549 15.066 35.901 18.495 33.421 19.031C32.6343 19.1948 31.8326 19.2756 31.029 19.272M25.388 17.219C25.797 17.429 27.488 18.295 28.044 18.537C29.7714 19.0397 31.597 19.1029 33.355 18.721C35.397 18.282 35.271 15.541 35.24 15.121C34.8802 14.7632 34.4588 14.4732 33.996 14.265C32.6121 13.7068 31.1013 13.5404 29.629 13.784C27.9919 14.0187 26.4713 14.7665 25.286 15.92C25.378 16.3468 25.4117 16.7841 25.386 17.22" fill="black"/>
<path d="M22.8069 12.51C22.7155 12.51 22.6262 12.4821 22.5512 12.4299C22.4761 12.3777 22.4188 12.3037 22.3869 12.218C22.1855 11.6792 21.966 11.1472 21.7289 10.623C21.3685 9.95436 20.8393 9.39171 20.1939 8.99103L19.9819 8.86403L20.1819 8.72403C20.3963 8.58249 20.6198 8.45522 20.8509 8.34303C20.9029 8.31703 20.9629 8.28303 21.0339 8.24303C22.1552 7.61279 23.4187 7.27893 24.7049 7.27303C25.5147 7.17069 26.3371 7.25243 27.1109 7.51215C27.8847 7.77186 28.5899 8.20286 29.1739 8.77303C29.486 9.09562 29.6737 9.51825 29.7039 9.96603L29.7249 10.166L29.5249 10.144C28.5916 10.0756 27.6533 10.1321 26.7349 10.312C25.7445 10.532 24.8196 10.9818 24.0349 11.625L24.0079 11.644C23.7919 11.803 23.3909 12.144 23.0929 12.402C23.0114 12.473 22.907 12.512 22.7989 12.512M20.5679 8.85903C21.1799 9.27357 21.6781 9.83505 22.0169 10.492C22.3029 11.117 22.5379 11.716 22.6839 12.108C22.6913 12.128 22.7035 12.1459 22.7193 12.1601C22.7351 12.1744 22.7542 12.1846 22.7748 12.1899C22.7954 12.1952 22.8171 12.1955 22.8378 12.1906C22.8585 12.1858 22.8778 12.1759 22.8939 12.162C23.1939 11.901 23.6039 11.554 23.8349 11.384L23.9459 11.499L23.8459 11.374C24.6719 10.6985 25.6456 10.2274 26.6879 9.99903C27.5685 9.83192 28.4656 9.76849 29.3609 9.81003C29.3143 9.50818 29.1744 9.22848 28.9609 9.01003C28.4069 8.47006 27.7382 8.06203 27.0046 7.81635C26.271 7.57066 25.4914 7.49364 24.7239 7.59103C23.487 7.5955 22.2716 7.9156 21.1929 8.52103C21.1275 8.55899 21.0608 8.59468 20.9929 8.62803C20.8479 8.69989 20.7055 8.77694 20.5659 8.85903" fill="black"/>
<path d="M8.48909 16.403L8.47109 16.246C8.42003 14.957 8.6498 13.6722 9.1445 12.4808C9.6392 11.2894 10.387 10.2197 11.3361 9.34599C12.4944 8.28196 13.9658 7.6212 15.5307 7.46241C17.0955 7.30363 18.6696 7.65533 20.0181 8.46499C20.6892 8.93897 21.2945 9.49986 21.8181 10.133C22.2602 10.7935 22.5777 11.5292 22.7551 12.304C22.764 12.3397 22.7602 12.3774 22.7443 12.4106C22.7284 12.4438 22.7014 12.4705 22.668 12.4859C22.6345 12.5013 22.5968 12.5045 22.5612 12.4951C22.5256 12.4856 22.4944 12.464 22.4731 12.434C21.9108 11.7928 21.2077 11.2906 20.4188 10.9667C19.6299 10.6427 18.7767 10.5059 17.9261 10.567C17.0692 10.5504 16.2178 10.708 15.4236 11.0303C14.6295 11.3526 13.909 11.8329 13.3061 12.442L13.2061 12.565L12.9601 12.365L13.0601 12.242C13.6875 11.5913 14.4433 11.0781 15.2796 10.7352C16.116 10.3923 17.0145 10.227 17.9181 10.25C19.5056 10.1584 21.0655 10.6946 22.2611 11.743C22.117 11.2402 21.8862 10.7664 21.5791 10.343C21.0706 9.72736 20.4821 9.18252 19.8291 8.72299C18.5362 7.97359 17.0392 7.65288 15.5528 7.80684C14.0664 7.9608 12.6669 8.58152 11.5551 9.57998C10.6406 10.4182 9.91935 11.4452 9.44122 12.5898C8.96309 13.7345 8.73955 14.9694 8.78609 16.209L8.80409 16.366L8.48909 16.403Z" fill="black"/>
<path d="M20.29 19.406C19.0186 19.4368 17.7585 19.1625 16.615 18.606C15.7056 18.1524 14.8434 17.6097 14.041 16.986C13.18 17.36 12.756 17.074 12.55 16.76C12.4787 16.6573 12.4326 16.5393 12.4152 16.4154C12.3979 16.2916 12.4098 16.1654 12.45 16.047C12.681 15.371 13.764 14.966 13.978 14.891C14.219 14.808 14.834 14.541 15.547 14.232C16.838 13.672 18.607 12.905 19.594 12.599C21.202 12.099 23.41 12.132 24.175 13.052C24.6129 13.5111 24.8627 14.1177 24.875 14.752L24.663 14.733C24.9802 15.029 25.191 15.4212 25.263 15.849C25.3312 16.1742 25.3312 16.5099 25.263 16.835C25.1066 17.5181 24.7264 18.1294 24.1829 18.5716C23.6393 19.0139 22.9636 19.2618 22.263 19.276C21.6095 19.3595 20.9517 19.4036 20.293 19.408M14.359 16.833C15.1106 17.4042 15.9141 17.9037 16.759 18.325C18.4724 19.0948 20.3816 19.3169 22.226 18.961C22.8593 18.9527 23.4717 18.7328 23.9656 18.3363C24.4596 17.9398 24.8068 17.3896 24.952 16.773C25.011 16.4914 25.011 16.2006 24.952 15.919C24.726 14.919 24.222 14.738 23.218 14.377C21.8848 13.9441 20.446 13.9634 19.125 14.432C17.6362 14.9142 16.2203 15.5979 14.917 16.464C14.7405 16.6004 14.5543 16.7237 14.36 16.833M21.76 12.597C21.058 12.5984 20.36 12.7022 19.688 12.905C18.717 13.205 16.958 13.969 15.673 14.526C14.925 14.85 14.334 15.107 14.082 15.194C13.515 15.394 12.882 15.763 12.75 16.153C12.7254 16.2263 12.7189 16.3044 12.7311 16.3807C12.7433 16.4569 12.7738 16.5291 12.82 16.591C13.029 16.91 13.426 16.934 14.001 16.663C14.2563 16.5388 14.4983 16.3887 14.723 16.215C16.0577 15.3268 17.5079 14.6256 19.033 14.131C20.419 13.6418 21.9279 13.6242 23.325 14.081C23.7623 14.2096 24.1786 14.4009 24.561 14.649C24.5036 14.1306 24.283 13.6439 23.931 13.259C23.6315 13.0096 23.2852 12.8225 22.9123 12.709C22.5394 12.5955 22.1476 12.5568 21.76 12.597Z" fill="black"/>
<path d="M19.3771 22.258H19.2621C17.7844 22.1963 16.358 21.6992 15.1621 20.829L15.3621 20.58C16.5066 21.3992 17.8632 21.8707 19.2691 21.938C20.0104 21.9522 20.7433 21.7793 21.4 21.4351C22.0567 21.0909 22.616 20.5867 23.0261 19.969L23.2921 20.141C22.8623 20.7863 22.2811 21.3167 21.5992 21.6857C20.9173 22.0547 20.1554 22.2512 19.3801 22.258" fill="black"/>
<path d="M20.768 20.6681C19.153 20.6401 17.5726 20.1965 16.179 19.3801L16.348 19.1121C17.8365 19.972 19.537 20.3954 21.255 20.3341C23.483 20.1841 24.648 19.1681 24.815 17.2271L25.13 17.2541C24.95 19.3471 23.653 20.4901 21.276 20.6541C21.1046 20.6654 20.935 20.6711 20.767 20.6711" fill="black"/>
<path d="M34.4049 26.1541C33.9343 26.79 33.2568 27.2419 32.4889 27.4321C30.609 28.0124 28.674 28.3958 26.7149 28.5761C23.1584 28.8762 19.5767 28.6095 16.1039 27.7861C12.8129 27.0501 11.7329 26.1281 11.3909 24.9441C11.0489 23.7601 11.7739 22.8441 13.5489 23.0741C17.0432 23.9453 20.6386 24.3435 24.2389 24.2581C31.5579 24.2851 32.4799 22.7841 33.2699 22.4691C33.3324 22.4438 33.3965 22.4227 33.4619 22.4061C33.6296 22.347 33.811 22.339 33.9833 22.3829C34.1556 22.4269 34.311 22.5209 34.4299 22.6531C34.5979 22.9357 34.679 23.2616 34.6629 23.5901C34.6563 23.7451 34.6127 23.8963 34.5356 24.031C34.4585 24.1657 34.3502 24.2799 34.2199 24.3641C34.3802 24.4423 34.5095 24.5723 34.5869 24.7331C34.6644 24.9688 34.6881 25.2189 34.6562 25.4649C34.6244 25.711 34.5378 25.9468 34.4029 26.1551" fill="#BD3F4E"/>
<path d="M24.1051 28.8791C21.4013 28.8537 18.7079 28.5389 16.0711 27.9401C13.0511 27.2641 11.6521 26.4091 11.2411 24.9871C11.1478 24.7316 11.1212 24.4566 11.1637 24.1881C11.2062 23.9195 11.3165 23.6662 11.4841 23.4521C11.7565 23.1901 12.0921 23.0031 12.4581 22.9092C12.8241 22.8153 13.2082 22.8177 13.5731 22.9161C13.9961 22.9721 14.4181 23.0711 14.9071 23.1861C17.9673 23.8901 21.1055 24.1969 24.2441 24.0991H24.4341C30.3401 24.0991 31.9701 23.0721 32.7581 22.5751C32.9029 22.4766 33.0561 22.3912 33.2161 22.3201C33.2848 22.2919 33.3553 22.2686 33.4271 22.2501C33.6249 22.1834 33.838 22.1773 34.0392 22.2328C34.2404 22.2882 34.4204 22.4025 34.5561 22.5611C34.746 22.8735 34.8376 23.2359 34.8191 23.6011C34.8061 23.885 34.6869 24.1538 34.4851 24.3541C34.5823 24.4411 34.6632 24.5447 34.7241 24.6601C34.8143 24.9203 34.8443 25.1975 34.8119 25.471C34.7796 25.7445 34.6856 26.0071 34.5371 26.2391C34.0449 26.9042 33.3387 27.3796 32.5371 27.5851C30.6464 28.1668 28.7008 28.5525 26.7311 28.7361C25.8578 28.8375 24.9792 28.8863 24.1001 28.8821M13.0271 23.1951C12.7899 23.1749 12.5512 23.2059 12.327 23.2857C12.1027 23.3656 11.8982 23.4925 11.7271 23.6581C11.5952 23.8331 11.5097 24.0387 11.4786 24.2557C11.4475 24.4726 11.4718 24.694 11.5491 24.8991C11.9231 26.1931 13.2491 26.9841 16.1441 27.6311C19.5992 28.4531 23.1633 28.7187 26.7021 28.4181C28.6486 28.237 30.5713 27.8567 32.4401 27.2831C33.1707 27.0994 33.8171 26.6727 34.2731 26.0731C34.3931 25.8879 34.4715 25.6789 34.5027 25.4605C34.534 25.242 34.5174 25.0194 34.4541 24.8081C34.3939 24.6796 34.2935 24.5743 34.1681 24.5081L33.8681 24.3831L34.1521 24.2221C34.2596 24.1512 34.3487 24.0558 34.4118 23.9436C34.4749 23.8314 34.5104 23.7057 34.5151 23.5771C34.5285 23.2826 34.4566 22.9906 34.3081 22.7361C34.2075 22.632 34.0787 22.5595 33.9375 22.5273C33.7964 22.4952 33.6489 22.5048 33.5131 22.5551C33.4545 22.5701 33.3971 22.5891 33.3411 22.6121C33.1992 22.6767 33.063 22.7533 32.9341 22.8411C32.0491 23.3981 30.4041 24.4411 24.2501 24.4131C21.0876 24.5112 17.9256 24.2016 14.8421 23.4921C14.3621 23.3791 13.9421 23.2821 13.5421 23.2281C13.3764 23.2055 13.2094 23.1938 13.0421 23.1931" fill="black"/>
<path d="M13.947 24.8111C18.321 26.4681 24.628 26.0851 29.265 25.6411C30.9819 25.5246 32.6622 25.091 34.221 24.3621C33.4967 24.8466 32.7011 25.215 31.863 25.4541C29.3351 26.0902 26.7415 26.4285 24.135 26.4621C20.907 26.5621 16.844 26.3221 13.947 24.8101" fill="black"/>
<path d="M9.32198 25.499C9.05589 24.7825 9.00924 24.0031 9.18798 23.26C9.26466 22.9798 9.39911 22.7188 9.5827 22.4937C9.76629 22.2686 9.99495 22.0844 10.254 21.953L10.371 22.248C10.1551 22.3626 9.96531 22.5205 9.81337 22.7118C9.66142 22.9032 9.55064 23.1238 9.48798 23.36C9.33453 24.034 9.37969 24.7381 9.61798 25.387L9.32198 25.499Z" fill="black"/>
<path d="M21.731 16.645C21.731 17.0438 21.6127 17.4335 21.3912 17.7651C21.1697 18.0966 20.8548 18.355 20.4865 18.5076C20.1181 18.6602 19.7127 18.7001 19.3217 18.6223C18.9306 18.5445 18.5714 18.3525 18.2894 18.0706C18.0075 17.7886 17.8155 17.4294 17.7377 17.0383C17.6599 16.6473 17.6998 16.2419 17.8524 15.8735C18.005 15.5052 18.2634 15.1903 18.5949 14.9688C18.9265 14.7473 19.3162 14.629 19.715 14.629C20.2497 14.629 20.7624 14.8414 21.1405 15.2195C21.5186 15.5976 21.731 16.1104 21.731 16.645Z" fill="black"/>
<path d="M19.4151 17.14C19.4151 17.2269 19.3894 17.3118 19.3411 17.3839C19.2929 17.4561 19.2243 17.5124 19.1441 17.5456C19.0639 17.5789 18.9756 17.5876 18.8905 17.5706C18.8053 17.5537 18.7271 17.5119 18.6657 17.4505C18.6043 17.3891 18.5625 17.3109 18.5455 17.2257C18.5286 17.1405 18.5373 17.0523 18.5705 16.9721C18.6038 16.8918 18.66 16.8233 18.7322 16.775C18.8044 16.7268 18.8893 16.701 18.9761 16.701C19.0925 16.701 19.2042 16.7473 19.2865 16.8296C19.3689 16.912 19.4151 17.0236 19.4151 17.14Z" fill="white"/>
<path d="M21.0961 15.838C21.0961 16.207 20.6211 16.506 20.0361 16.506C19.4511 16.506 18.9761 16.206 18.9761 15.838C18.9761 15.47 19.4511 15.17 20.0361 15.17C20.6211 15.17 21.0961 15.47 21.0961 15.838Z" fill="white"/>
<path d="M31.565 16.506C31.565 16.9047 31.4467 17.2945 31.2252 17.626C31.0037 17.9575 30.6888 18.2159 30.3204 18.3685C29.9521 18.5211 29.5467 18.561 29.1557 18.4833C28.7646 18.4055 28.4054 18.2135 28.1234 17.9315C27.8415 17.6496 27.6495 17.2904 27.5717 16.8993C27.4939 16.5082 27.5338 16.1029 27.6864 15.7345C27.839 15.3661 28.0974 15.0513 28.4289 14.8297C28.7605 14.6082 29.1502 14.49 29.549 14.49C30.0836 14.49 30.5964 14.7024 30.9745 15.0805C31.3526 15.4585 31.565 15.9713 31.565 16.506Z" fill="black"/>
<path d="M29.2491 17.001C29.2491 17.0878 29.2233 17.1727 29.1751 17.2449C29.1269 17.3171 29.0583 17.3734 28.9781 17.4066C28.8979 17.4398 28.8096 17.4485 28.7244 17.4316C28.6393 17.4146 28.5611 17.3728 28.4997 17.3114C28.4383 17.25 28.3965 17.1718 28.3795 17.0867C28.3626 17.0015 28.3713 16.9132 28.4045 16.833C28.4377 16.7528 28.494 16.6842 28.5662 16.636C28.6384 16.5878 28.7233 16.562 28.8101 16.562C28.9265 16.562 29.0382 16.6083 29.1205 16.6906C29.2028 16.7729 29.2491 16.8846 29.2491 17.001Z" fill="white"/>
<path d="M30.9291 15.698C30.9291 16.067 30.4551 16.366 29.8691 16.366C29.2831 16.366 28.8091 16.066 28.8091 15.698C28.8091 15.33 29.2831 15.03 29.8691 15.03C30.4551 15.03 30.9291 15.33 30.9291 15.698Z" fill="white"/>
</g>
</g>
<defs>
<clipPath id="clip0_7895_10064">
<rect width="40" height="40" fill="white"/>
</clipPath>
</defs>
</svg>
