<svg xmlns="http://www.w3.org/2000/svg" width="40" height="40" fill="none" viewBox="0 0 40 40">
  <g clip-path="url(#a)">
    <rect width="40" height="40" fill="#E9F7FA" rx="20"/>
    <path fill="#7EACF9" d="M33.392 31.494c-1.214-1.97-2.47-2.965-2.482-2.975a.289.289 0 0 1-.031-.426c1.26-1.318 1.817-2.852 1.659-4.56-.128-1.377-.68-2.462-.916-2.925-.113-.22-.15-.295-.12-.415 0-.006.13-.541.068-1.423-.058-.813-.295-2.096-1.1-3.591-1.191-2.213-4.48-2.99-6.21-3.25-.083.2-.254.396-.422.552l.647.944a.288.288 0 0 1-.305.443l-.826-.198a.288.288 0 0 1 .134-.56l.098.023-.37-.538a.288.288 0 0 1 .058-.388c.145-.116.291-.264.38-.378a.284.284 0 0 1-.056-.039c-.325-.028-.909-.01-1.405.036a.287.287 0 0 1-.26-.456c.445-.61.57-.984.6-1.182-.809.124-2.052.967-2.504 1.315a.288.288 0 0 1-.158.06c-3.605.225-6.453 1.42-6.481 1.431-.014.006-1.052.44-2.148 1.399-1.456 1.271-2.32 2.815-2.57 4.588-.528 3.755.831 6.198 1.562 7.51.118.212.22.396.296.552.485 1.001.084 1.616-.233 1.832-1.483 1.777-3.348 4.655-3.88 8.334-.21 1.447-.145 2.578-.074 3.194h6.98c.094-.872.303-2.326.737-3.674.617-1.91-.3-3.657-.31-3.675a.288.288 0 1 1 .508-.272c.043.08 1.041 1.983.35 4.124-.405 1.256-.608 2.641-.704 3.497h20.41c-.33-3.222-1.142-5.502-1.784-6.874-.738-1.576-1.417-2.325-1.424-2.332a.288.288 0 0 1 .424-.39c.113.122 2.704 3 3.362 9.596h.832c.075-4.11-1.223-7.111-2.332-8.909Z"/>
    <path fill="#FFFDF4" fill-rule="evenodd" d="M14.995 40.386h19.231s-.198-6.295-3.668-9.764c0 0-1.19-.942.248-2.28 1.438-1.338 2.082-3.222 2.082-3.222l.05-1.784-1.157-3.073.165-1.784s-.347-3.272-3.717-3.718c0 0-1.338-.198-3.073 1.834 0 0-.396.496-.991 0-.595-.495-3.569-2.627-6.989-2.33-2.811.245-4.818 2.857-5.004 5.56-.202 2.938 1.22 5.854 3.22 7.922 4.411 4.56 1.239 8.971 1.239 8.971l-1.636 3.668Z" clip-rule="evenodd"/>
    <path fill="#11151F" d="M33.868 31.168c-.961-1.552-1.93-2.51-2.366-2.9 1.234-1.394 1.775-3.003 1.61-4.788-.139-1.487-.748-2.683-.977-3.133l-.054-.108c.091-.467.382-2.574-1.104-5.333-.668-1.241-1.966-2.208-3.857-2.875a15.204 15.204 0 0 0-3.025-.707c-.184-.092-.559-.159-1.365-.116.546-.927.382-1.352.309-1.471a.288.288 0 0 0-.228-.137c-1.048-.065-2.668 1.096-3.064 1.393-3.664.245-6.464 1.42-6.58 1.47-.045.018-1.122.467-2.289 1.482-1.958 1.704-2.59 3.636-2.776 4.956-.556 3.946.865 6.5 1.628 7.87.114.205.212.382.281.523.39.805-.007 1.085-.049 1.111a.233.233 0 0 0-.078.066c-2.791 3.329-3.739 6.56-4.042 8.686-.207 1.45-.153 2.585-.08 3.246h.58c-.07-.616-.134-1.747.075-3.194.532-3.679 2.397-6.557 3.88-8.334.317-.216.718-.83.232-1.832-.075-.156-.177-.34-.295-.552-.73-1.312-2.09-3.755-1.562-7.51.25-1.773 1.114-3.317 2.57-4.588 1.096-.958 2.135-1.393 2.148-1.399.028-.012 2.876-1.206 6.48-1.431a.289.289 0 0 0 .159-.06c.452-.348 1.695-1.191 2.504-1.315-.03.198-.155.572-.6 1.182a.288.288 0 0 0 .26.456c.496-.046 1.08-.065 1.405-.036a.287.287 0 0 0 .056.039 2.514 2.514 0 0 1-.38.378.288.288 0 0 0-.057.388l.369.538-.098-.023a.288.288 0 1 0-.134.56l.826.198a.288.288 0 0 0 .305-.443l-.647-.944c.168-.156.34-.352.423-.552 1.73.26 5.018 1.037 6.209 3.25.805 1.495 1.043 2.778 1.1 3.591.063.882-.067 1.418-.069 1.423-.03.12.008.195.12.415.237.463.789 1.548.917 2.925.158 1.708-.4 3.242-1.66 4.56a.289.289 0 0 0 .032.426c.012.01 1.268 1.006 2.482 2.975 1.109 1.798 2.407 4.798 2.332 8.909h.576c.076-4.258-1.277-7.37-2.432-9.235Z"/>
    <path fill="#11151F" d="M31.123 30.79a.288.288 0 0 0-.017.407c.007.007.686.756 1.424 2.332.642 1.372 1.453 3.652 1.783 6.874h.58c-.659-6.597-3.25-9.474-3.363-9.597a.288.288 0 0 0-.407-.016Zm-16.865 1.992a.288.288 0 0 0-.508.272c.01.018.927 1.765.31 3.675-.434 1.348-.643 2.802-.737 3.674h.581c.096-.856.3-2.24.705-3.497.69-2.14-.308-4.044-.35-4.124Z"/>
    <path fill="#060606" d="M19.028 22.064c.894 0 1.618-.82 1.618-1.833 0-1.012-.724-1.833-1.618-1.833-.893 0-1.617.82-1.617 1.833 0 1.012.724 1.833 1.617 1.833Z"/>
    <path fill="#FFFEF3" d="M18.346 21.453a.363.363 0 1 0 0-.727.363.363 0 0 0 0 .727Zm1.188-.556c.459 0 .831-.473.831-1.057 0-.583-.372-1.056-.831-1.056-.46 0-.832.473-.832 1.056 0 .584.372 1.057.832 1.057Z"/>
    <path fill="#060606" d="M29.381 21.849c.687 0 1.244-.765 1.244-1.71 0-.944-.557-1.71-1.244-1.71-.686 0-1.242.766-1.242 1.71 0 .945.556 1.71 1.242 1.71Z"/>
    <path fill="#FFFEF3" d="M28.819 21.207a.363.363 0 1 0 0-.727.363.363 0 0 0 0 .727Zm.969-.742c.337-.04.566-.443.512-.902-.053-.458-.37-.798-.706-.758-.337.04-.566.443-.513.901.054.458.37.798.707.759Z"/>
    <path fill="#F6B438" d="m25.64 23.602.35-.155.285-.255.178-.19.13-.196.094-.177.12-.21.036-.113c-.062-.075-.38-.442-.653-.514l-.143-.064-.19-.066-.357-.09-.03.001c-.104-.006-.18-.034-.299-.033-1.05.012-1.67.453-1.962.736a.325.325 0 0 0-.016.458c.333.363 1.086 1.038 2.066 1.014.049-.001.096-.005.142-.01l-.022-.065.272-.071Z"/>
    <path fill="#010100" d="M26.505 22.464c-.854.245-1.745.178-2.622.13.81.226 1.865.283 2.622-.13Z"/>
    <path fill="#010100" d="M25.25 21.544v.013c.075.008.15.011.225.023.223.033.442.1.645.2.261.128.505.314.682.546-.254.605-.732 1.21-1.413 1.32-.872.112-1.664-.466-2.229-1.077.185-.444.655-.705 1.094-.852.138-.047.343-.092.487-.123l-.001-.013c-.505.05-1.03.192-1.41.548a1.149 1.149 0 0 0-.313.466l.022.026c.63.737 1.667 1.404 2.66 1.035.57-.238.953-.778 1.167-1.34-.383-.491-1.002-.753-1.616-.772Z"/>
  </g>
  <defs>
    <clipPath id="a">
      <rect width="40" height="40" fill="#fff" rx="20"/>
    </clipPath>
  </defs>
</svg>
