<?xml version="1.0" encoding="UTF-8"?>
<svg id="Layer_2" xmlns="http://www.w3.org/2000/svg" viewBox="0 0 875.36 875.41" width="40" height="40">
  <defs>
    <style>.cls-1{fill:#262626;}.cls-2{fill:#fed866;}</style>
  </defs>
  <g id="NAtive">
    <path class="cls-2"
      d="M459.58,0l37.44,3.75c191.9,26.12,345.34,177.82,373.62,369.37l4.5,42.54c-.49,14.51.67,29.27,0,43.75-9.69,210.76-174.76,387.52-383.86,412.73C183.63,909.23-64.7,624.65,15.07,324.35,63.04,143.75,226.68,8.63,414.38,0h45.2Z" />
    <path class="cls-1"
      d="M467.58,164.1l-18.94,78,38.62,8,18.27-75.8,47.39,11.27.76,1.49-18.94,77.2c8.88,4.39,18.76,7.32,27.91,11.5,47.87,21.83,79.5,54.36,65.87,110.89-7.41,30.75-27.87,52.07-58.85,59.28,27.15,13.33,49.41,36.21,51.76,67.83,1.71,22.93-7.38,53.16-19.09,72.77-30.98,51.9-87.92,51.26-141.54,43.41-2.56-.37-15.6-3.2-16.57-2.49l-20.03,79.2-47.73-11.69,18.91-78.29-.66-.84-37.11-9.02-19.72,77.64-46.2-10.77-1.17-1.05c5.17-26.73,13.8-52.97,18.88-79.74l-95.47-23.37-.04-1.79,22.69-53.55c10.63,1.52,20.77,5.55,31.27,7.6,11.34,2.21,20.07,2.65,25.43-9.58l54.69-219.32c0-28.26-37.84-28.17-57.52-33.99l12.46-50.97,96.48,23.19,20.1-78.69,48.09,11.7ZM412.25,394.46c29.75,7.15,73.4,20.94,102.5,6.74,21.54-10.51,29.17-40.81,15.85-60.59-18.03-26.77-65.03-35.5-94.61-41.57l-23.74,95.41ZM373.61,548.32c15.43,4,30.88,8.46,46.58,11.39,31.28,5.85,85.49,12.31,99.19-25.53,13.2-36.48-16.46-58.35-45.97-70.73-23.45-9.83-48.57-14.75-73.19-20.73l-26.61,105.6Z" />
  </g>
  <g id="Rings">
    <path class="cls-1"
      d="M849.11,430.49l-73.16.73c-.56-99.06-47.85-194.63-124-256.79-107.28-87.57-255.72-100.66-377.55-34.53-3.04,1.65-19.87,12.57-21.1,12.58-1.02,0-1.64-.76-2.14-1.53l-37.03-56.6-.59-3.26c36.45-22.65,75.72-40.94,117.37-51.97,130.02-34.45,267.15-4.31,370.05,81.17,91.3,75.84,146.97,190.71,148.15,310.2Z" />
    <path class="cls-1"
      d="M826.37,570.3c.98,1.38-9.21,26.03-10.78,29.69-77.61,181.07-275.07,281.35-468.28,238.4-12.58-2.8-24.8-6.85-37.3-9.89l21.98-69.48c9.86,2.1,19.39,5.42,29.22,7.67,57.57,13.15,118.34,11.16,174.83-5.86,102.8-30.98,187.54-112.09,221.65-214.01l68.69,23.48Z" />
    <path class="cls-1"
      d="M167.36,232.23l-.02,1.05c-29.75,38.78-51.1,85.55-61.06,133.55-26.21,126.37,21.19,257.6,122.58,336.32l-.76,2.83-43.53,55.08c-80.92-62.44-136.87-156.6-153.14-257.89-16.95-105.55,8.26-220.77,72.01-306.73,1.02-1.38,5.17-7.57,6.4-7.34l57.52,43.12Z" />
  </g>
</svg>
