<svg width="40" height="40" viewBox="0 0 40 40" fill="none" xmlns="http://www.w3.org/2000/svg">
<g clip-path="url(#clip0_3_121)">
<path fill-rule="evenodd" clip-rule="evenodd" d="M20 40C31.0178 40 40 31.0178 40 20C40 8.98765 31.0178 0 20 0C8.98765 0 0 8.98765 0 20C0 31.0178 8.98765 40 20 40Z" fill="#572878"/>
<path fill-rule="evenodd" clip-rule="evenodd" d="M20 34.5789C28.0329 34.5789 34.5789 28.0329 34.5789 20C34.5789 11.9726 28.0329 5.42114 20 5.42114C11.9726 5.42114 5.42113 11.9726 5.42113 20C5.42113 28.0329 11.9726 34.5789 20 34.5789Z" fill="#FBB34B"/>
<path fill-rule="evenodd" clip-rule="evenodd" d="M20 31.9616C26.5844 31.9616 31.9616 26.5843 31.9616 20C31.9616 13.4156 26.5844 8.04388 20 8.04388C13.4156 8.04388 8.0439 13.4156 8.0439 20C8.0439 26.5843 13.4156 31.9616 20 31.9616Z" fill="#572878"/>
<path fill-rule="evenodd" clip-rule="evenodd" d="M23.4787 20.7901V18.1728H25.1797C26.535 18.1728 27.6434 17.059 27.6434 15.7037V14.2716H25.0755V15.5994H19.561V15.6049H14.8203C13.465 15.6049 12.3567 16.7133 12.3567 18.0686V19.5007H14.9246V18.1728H16.5213V21.1467V27.3251C16.5213 27.5336 16.6639 27.6433 16.8395 27.572L18.7709 26.8258C18.9465 26.7599 19.0892 26.5349 19.0892 26.3319V20.7901V18.1728H20.9108V21.1467V27.3251C20.9108 27.5336 21.0535 27.6433 21.2346 27.572L23.1605 26.8258C23.3361 26.7599 23.4787 26.5349 23.4787 26.3319V20.7901ZM21.1578 12.406H23.2373C23.369 12.406 23.4787 12.5157 23.4787 12.6529V14.3045C23.4787 14.4362 23.369 14.5459 23.2373 14.5459H21.1578C21.0206 14.5459 20.9108 14.4362 20.9108 14.3045V12.6529C20.9108 12.5157 21.0206 12.406 21.1578 12.406ZM16.7682 12.406H18.8423C18.9794 12.406 19.0892 12.5157 19.0892 12.6529V14.3045C19.0892 14.4362 18.9794 14.5459 18.8423 14.5459H16.7682C16.631 14.5459 16.5213 14.4362 16.5213 14.3045V12.6529C16.5213 12.5157 16.631 12.406 16.7682 12.406Z" fill="#FBB34B"/>
</g>
<defs>
<clipPath id="clip0_3_121">
<rect width="40" height="40" fill="white"/>
</clipPath>
</defs>
</svg>
