<svg width="40" height="40" viewBox="0 0 40 40" fill="none" xmlns="http://www.w3.org/2000/svg">
<path d="M33.3333 16.6672C33.3333 24.031 27.3638 30.0008 19.9997 30.0008C12.6356 30.0008 6.66585 24.031 6.66585 16.6672C6.66585 9.3031 12.6356 3.33333 19.9997 3.33333C27.3638 3.33333 33.3333 9.3031 33.3333 16.6672Z" fill="#DEDEDE"/>
<path d="M14.0012 36.6667C18.0525 36.6667 21.3367 33.3825 21.3367 29.3312C21.3367 25.28 18.0525 21.9958 14.0012 21.9958C9.95002 21.9958 6.66585 25.28 6.66585 29.3312C6.66585 33.3825 9.95002 36.6667 14.0012 36.6667Z" fill="#152E51" fill-opacity="0.9"/>
<path d="M13.1942 5.19857V23.7485H14.8294V4.37297C14.2633 4.61127 13.7172 4.88755 13.1942 5.19857Z" fill="#152E51" fill-opacity="0.9"/>
</svg>
