<svg xmlns="http://www.w3.org/2000/svg" width="40" height="40" fill="none" viewBox="0 0 40 40">
  <path fill="#FF8B00" fill-rule="evenodd" d="M40 20a20 20 0 1 1-40 0 20 20 0 0 1 40 0Z" clip-rule="evenodd"/>
  <path fill="#fff" d="M29.285 23.602a4.8 4.8 0 0 1-3.111 7.34c-1.386.35-2.819.477-4.244.373l-1.2 4.295-2.807-.642 1.22-4.054a32.64 32.64 0 0 1-2.266-.541l-1.021 3.952-3.01-.744 1.121-4.133a28.633 28.633 0 0 1-4.32-1.92 12.839 12.839 0 0 1-1.807-1.22l2.368-2.91a24.16 24.16 0 0 0 5.582 3.113c3.112 1.184 7 1.556 8.085-.1 1.085-1.656-.44-3.078-3.45-4.616-3.01-1.538-8.897-4.146-8.763-8.406.109-3.453 3.045-5.175 7.934-4.762l1.166-4.238 2.706.778-1.085 3.813c.773.158 1.535.37 2.279.633l1-3.871 2.875.778-1.197 4.112a19.214 19.214 0 0 1 4.82 2.45l-2.266 2.774a25.384 25.384 0 0 0-6.663-3.078c-3.518-.947-5.276-.235-5.616.609-.34.844-.2 2.435 2.909 4.128s6.934 3.416 8.76 6.088"/>
</svg>
