<svg xmlns="http://www.w3.org/2000/svg" width="40" height="40"><g transform="translate(-141.725 -3127.725)"><circle data-name="Ellipse 142" cx="20" cy="20" r="20" transform="translate(141.725 3127.725)" fill="#005ed2"/><path data-name="Path 4629" d="M172.516 3146.314h-21.584a1.5 1.5 0 0 1-1.494-1.494 1.5 1.5 0 0 1 1.494-1.495h18.125l-4.029-4.287a1.493 1.493 0 0 1 .064-2.113 1.494 1.494 0 0 1 2.111.065l6.4 6.805a1.492 1.492 0 0 1 .283 1.617 1.494 1.494 0 0 1-1.37.902Z" fill="#fff"/><path data-name="Path 4630" d="M157.336 3158.27a1.5 1.5 0 0 1-1.09-.47l-6.4-6.805a1.489 1.489 0 0 1-.285-1.617 1.5 1.5 0 0 1 1.371-.9h21.586a1.493 1.493 0 0 1 1.492 1.494 1.493 1.493 0 0 1-1.492 1.495h-18.125l4.027 4.287a1.493 1.493 0 0 1-.062 2.113 1.49 1.49 0 0 1-1.022.403Z" fill="#fff"/></g></svg>