<svg xmlns="http://www.w3.org/2000/svg" width="40" height="40" viewBox="0 0 40 40" fill="none">
  <rect width="40" height="40" rx="20" fill="#fff"/>
  <path d="M20 20L20 2A18 18 0 0 1 29 4.412Z" fill="#a4bef6"/>
  <path d="M20 20L29 4.412A18 18 0 0 1 35.588 11Z" fill="#f388b1"/>
  <path d="M20 20L35.588 11A18 18 0 0 1 37.727 23.126Z" fill="#8fe7f2"/>
  <path d="M20 20L37.727 23.126A18 18 0 0 1 32.728 32.728Z" fill="#00b6fd"/>
  <path d="M20 20L32.728 32.728A18 18 0 0 1 24.659 37.387Z" fill="#6bd5f7"/>
  <path d="M20 20L24.659 37.387A18 18 0 0 1 12.393 36.314Z" fill="#f48ab3"/>
  <path d="M20 20L12.393 36.314A18 18 0 0 1 5.255 30.324Z" fill="#684af4"/>
  <path d="M20 20L5.255 30.324A18 18 0 0 1 2.068 21.569Z" fill="#ad66f9"/>
  <path d="M20 20L2.068 21.569A18 18 0 0 1 3.686 12.393Z" fill="#ffd37a"/>
  <path d="M20 20L3.686 12.393A18 18 0 0 1 9.676 5.255Z" fill="#664af1"/>
  <path d="M20 20L9.676 5.255A18 18 0 0 1 18.431 2.068Z" fill="#5fc8fa"/>
  <path d="M20 20L18.431 2.068A18 18 0 0 1 27.607 3.686Z" fill="#a2bff6"/>
</svg>
