<svg xmlns="http://www.w3.org/2000/svg" width="40" height="41" viewBox="0 0 40 41" fill="none" data-astro-cid-4ulan7kk="true"><rect y="0.5" width="40" height="40" rx="20" fill="#FC7A4A"></rect><path d="M10.2029 18.4324C14.4807 18.3075 24.6838 17.838 26.9608 14.5155C28.6919 11.9908 24.8712 9.36165 23.0553 8.4116C21.2394 7.4588 18.7133 7.0332 18.7133 7.0332C23.797 7.60845 31.8339 10.4009 29.3323 15.4779C27.0922 20.0222 15.4126 20.6401 10.2002 20.6401V18.4311H10.2029V18.4324Z" fill="white"></path><path d="M10.2031 29.7464V27.5876C16.6708 27.3722 25.3181 27.1611 29.8009 22.8887C29.9226 26.6524 24.7518 28.3502 20.7943 29.058C17.369 29.6703 13.7174 29.8445 10.2045 29.7464H10.2031Z" fill="white"></path><path d="M29.6015 18.2764C26.0513 21.9132 19.1927 22.9883 10.2002 22.9883V25.1663C19.6565 25.1663 29.5741 23.7248 29.6015 18.2764Z" fill="white"></path></svg>
