<svg xmlns="http://www.w3.org/2000/svg" width="40" height="40"><path data-name="Path 4941" d="M40 20A20 20 0 1 1 20 0a20 20 0 0 1 20 20Z" fill="#f00500" fill-rule="evenodd"/><g transform="translate(-977.971 -225.643)"><ellipse data-name="Ellipse 188" cx="9.5" cy="10" rx="9.5" ry="10" transform="translate(988.971 237.643)"/><path d="M1010.547 249.822c0-.018 0-.05-.009-.1a9.592 9.592 0 0 0-7.041 2.179s-.925-4.24-5.255-4.24-5.936 4.24-5.936 4.24a7.8 7.8 0 0 0-6.847-2.251v.086a3.928 3.928 0 0 0 .09 1.376 8.825 8.825 0 0 0 3.013 4.091 17.374 17.374 0 0 0 9.048 4.1c2.864.194 7.091-1.479 9.905-3.924a14.145 14.145 0 0 0 1.245-1.249 6.851 6.851 0 0 0 .663-.884c-.009 0 0-.009.018-.018s.027-.023.018-.032 0-.018.018-.023.023-.014.018-.023 0-.018.018-.023a.02.02 0 0 0 .013-.027c0-.009 0-.018.009-.018s.018-.014.018-.023.009-.023.018-.023a.019.019 0 0 0 .018-.018.473.473 0 0 1 .059-.1c.068-.1.338-.586.374-.668a6.221 6.221 0 0 0 .5-1.619 5.463 5.463 0 0 0 .025-.809Zm-11.276 5.5c-.086.05-.144.072-.158.063s-.077-.059-.144-.108l-.122-.1-.126.135c-.275.3-.284.311-.365.316-.126.014-.153-.009-.307-.239-.081-.117-.144-.216-.144-.216s-.059-.009-.126-.014l-.126-.014-.059.122-.059.122-.1-.032a2.191 2.191 0 0 1-.239-.095l-.135-.068v-.257h2.4v.122c.004.157.009.153-.19.265Zm2.255-.812a16.71 16.71 0 0 0-.122.474.777.777 0 0 1-.144 0h-.144l-.194.474c-.108.257-.208.5-.221.532l-.027.063-.095-.153-.095-.153v-1.249l-.036.009c-.077.018-.622.09-.861.113a12.293 12.293 0 0 1-2.963-.063c-.158-.023-.293-.041-.3-.036s0 .293.009.65l.014.64-.077.117c-.041.063-.081.117-.081.122s-.059-.059-.162-.266a3.046 3.046 0 0 1-.253-.686l-.032-.131-.14.009-.14.013-.036-.167a4.743 4.743 0 0 1-.05-.307l-.014-.144-.117-.1a3.528 3.528 0 0 0-.149-.126.1.1 0 0 1-.032-.077v-.054h1.128l.018.059.018.059.194.009c.108 0 .451.014.758.023l.564.013.144-.226.149-.225h.189v-.938l-.248-.108a2.421 2.421 0 0 1-1.443-1.24 1.73 1.73 0 0 1-.045-.586 1.793 1.793 0 0 1 .027-.586.656.656 0 0 1 .465-.46 10.727 10.727 0 0 1 1.344-.023h1.254l.14.068a.783.783 0 0 1 .338.266.745.745 0 0 1 .14.532 3.972 3.972 0 0 1-.068.866 1.871 1.871 0 0 1-.262.519 2.4 2.4 0 0 1-1.01.708l-.108.041v.948l.1.009.1.009.135.2.131.2h.6c.334 0 .627 0 .654.009.045.009.054 0 .1-.072l.054-.081h.519a2.179 2.179 0 0 1 .519.018 3.121 3.121 0 0 0-.136.487Z" fill="#fff"/><path d="M985.451 249.65a4.169 4.169 0 0 0-.451.086M1010.938 249.781s-.144-.032-.4-.059" fill="none"/><path d="M1010.511 249.361c-.009-.2-.027-.487-.041-.627a13.231 13.231 0 0 0-1.709-5.494 1.572 1.572 0 0 1-.1-.189.274.274 0 0 1-.018-.036c.14-.419.713-2.174 1.168-4.181.618-2.724 1.01-5.909-.189-6.865 0 0-2.075-.153-4.853 2.571a18.637 18.637 0 0 0-2.057 2.44l-.194-.063a14.079 14.079 0 0 0-3.446-.668 27.03 27.03 0 0 0-2.093 0 12.172 12.172 0 0 0-3.414.672 1.97 1.97 0 0 1-.126.045 18.359 18.359 0 0 0-2.124-2.422c-2.891-2.738-5.043-2.58-5.043-2.58-1.272.988-.839 4.317-.18 7.131.433 1.863.965 3.5 1.164 4.091a1 1 0 0 1-.05.1 16.354 16.354 0 0 0-1.755 6.364 7.79 7.79 0 0 1 6.851 2.251s1.606-4.24 5.936-4.24 5.255 4.24 5.255 4.24a9.614 9.614 0 0 1 7.041-2.179l-.023-.361Zm-22.4-7.875s-1.687-4.217-1.254-6.626a2.323 2.323 0 0 1 .419-1.033s1.912.189 5 3.617a8.815 8.815 0 0 0-1.371.889.016.016 0 0 1-.009 0 10.844 10.844 0 0 0-2.783 3.148Zm7.158 6.265a.49.49 0 0 1-.316.135 5.1 5.1 0 0 1-.888-.023 9.337 9.337 0 0 1-2.711-.78 3.414 3.414 0 0 1-.934-.627l-.126-.131-.014-.171a4.712 4.712 0 0 1 .018-.934 1.225 1.225 0 0 1 .14-.4c.036-.045.036-.045.2-.045a1.952 1.952 0 0 1 .636.117 12.421 12.421 0 0 1 2.386 1.191 4.138 4.138 0 0 1 1.38 1.073.9.9 0 0 1 .226.595Zm10.627-1.493a1.519 1.519 0 0 1-.438.447 7.539 7.539 0 0 1-2.869 1.083 3.526 3.526 0 0 1-1.484.041c-.126-.063-.144-.113-.1-.275a2.193 2.193 0 0 1 .88-1.055c.244-.176 1.231-.776 1.691-1.028a5.977 5.977 0 0 1 1.786-.722.917.917 0 0 1 .338 0c.081.032.171.271.208.559a7.374 7.374 0 0 1-.015.95Zm-.749-7.925h-.009a8.42 8.42 0 0 0-1.326-.889c2.981-3.428 4.826-3.617 4.826-3.617a2.447 2.447 0 0 1 .406 1.033c.419 2.409-1.209 6.63-1.209 6.63a10.743 10.743 0 0 0-2.688-3.153Z" fill="#ffa409"/><path d="M1002.708 236.98c-.009.009-.013.023-.022.032M1008.64 243.01c-.023.063-.032.095-.032.095" fill="none"/><path d="M1009.046 234.856c-.352-.045-2.016-.054-3.9 3.478h-.009a8.419 8.419 0 0 0-1.326-.889c2.981-3.428 4.826-3.617 4.826-3.617a2.394 2.394 0 0 1 .409 1.028Z" fill="#ff9300"/><path d="M1007.837 241.487a10.7 10.7 0 0 0-2.693-3.153c1.885-3.532 3.545-3.523 3.9-3.478.421 2.413-1.207 6.631-1.207 6.631ZM1009.113 234.87l-.068-.014Z" fill="#ff8300"/><path d="M993.575 237.155c-.045-.063-.095-.126-.14-.189M987.255 243.186c.05.153.081.235.081.235" fill="none"/><path d="M992.272 237.44a8.815 8.815 0 0 0-1.371.889.016.016 0 0 1-.009 0c-1.953-3.536-3.672-3.523-4.041-3.478a2.324 2.324 0 0 1 .42-1.033s1.915.194 5.001 3.622Z" fill="#ff9300"/><path d="M990.895 238.334a10.811 10.811 0 0 0-2.787 3.153s-1.687-4.217-1.254-6.63c.365-.046 2.088-.055 4.041 3.477ZM986.854 234.856l-.072.014Z" fill="#ff8300"/><path d="M1003.272 243.826s-1.443.09-1.263-1.037a1.49 1.49 0 0 1 1.624-1.218c.316.045 1.579.5 1.353 1.443s-.541.767-.722.812a7.155 7.155 0 0 1-.992 0ZM992.627 243.826s-1.443.09-1.263-1.037a1.49 1.49 0 0 1 1.624-1.218c.316.045 1.579.5 1.353 1.443s-.541.767-.722.812a7.153 7.153 0 0 1-.992 0Z" fill="#fff"/></g></svg>