<svg width="40" height="40" viewBox="0 0 40 40" fill="none" xmlns="http://www.w3.org/2000/svg">
<path fill-rule="evenodd" clip-rule="evenodd" d="M40 20C40 23.9556 38.827 27.8224 36.6294 31.1114C34.4318 34.4004 31.3082 36.9638 27.6537 38.4776C23.9992 39.9913 19.9778 40.3874 16.0982 39.6157C12.2186 38.844 8.65492 36.9392 5.85787 34.1421C3.06082 31.3451 1.15601 27.7814 0.384303 23.9018C-0.387401 20.0222 0.00866568 16.0008 1.52242 12.3463C3.03617 8.69181 5.59962 5.56824 8.8886 3.37061C12.1776 1.17298 16.0444 0 20 0C25.3043 0 30.3914 2.10714 34.1421 5.85786C37.8929 9.60859 40 14.6957 40 20Z" fill="black"/>
<path fill-rule="evenodd" clip-rule="evenodd" d="M26.9969 11.3569C29.8199 11.6069 32.0549 12.4839 32.303 15.0959C32.4407 15.8344 32.3317 16.5978 31.9927 17.2683C31.6536 17.9388 31.1035 18.4791 30.4269 18.8058C32.5139 19.3149 33.8199 20.5638 33.5609 23.3679C33.241 26.8489 30.668 27.7809 26.9919 27.9929V29.6368H24.806V28.0369C24.239 28.0369 23.6589 28.0369 23.0599 28.0189V29.6309H20.871V27.9839C20.6182 27.9839 19.9138 27.9805 19.2019 27.977C18.4749 27.9734 17.7402 27.9698 17.4709 27.9698L17.4869 26.0538H19.3099V13.3159L17.486 13.3058L17.4929 11.3619C17.4929 11.3619 20.4 11.3619 20.8729 11.3549V9.68286H23.0569V11.2828C23.6409 11.2719 24.228 11.2609 24.803 11.2609V9.68384H26.9879L26.9969 11.3569ZM23.5359 25.3569C25.327 25.3829 29.236 25.4388 29.236 22.9258C29.236 20.3567 25.4735 20.4448 23.6378 20.4879H23.6359C23.5284 20.4879 23.4258 20.4905 23.3309 20.4929L23.2232 20.4955C23.1818 20.4963 23.1422 20.4969 23.1049 20.4969V25.3519H23.5319L23.5359 25.3569ZM23.4709 18.2839H23.4722C24.9679 18.3088 28.223 18.3632 28.223 16.0839C28.223 13.7492 25.0939 13.8309 23.5616 13.8708C23.3887 13.8708 23.2349 13.8788 23.1099 13.8788V18.2789H23.4709V18.2839Z" fill="white"/>
<path d="M12.2891 14.3318H8.76807V17.8829H12.2881V21.4329H8.76807V24.9839H12.2891L12.2881 21.4329H15.8091V17.8818H12.2891V14.3318Z" fill="white"/>
<path d="M8.76611 17.8818H5.24512V21.4329H8.76611V17.8818Z" fill="white"/>
</svg>
