<svg height="24" viewBox="0 0 24 24" width="24" xmlns="http://www.w3.org/2000/svg"><path d="m0 0h24v24h-24z" fill="none"/><path d="m23.633 14.9a11.993 11.993 0 1 1 -8.733-14.54 11.994 11.994 0 0 1 8.733 14.54z" fill="#50af95" transform="translate(.004 -.001)"/><path d="m72.476 48.1c-.079.007-.487.035-1.4.035-.724 0-1.238-.025-1.419-.035-2.8-.141-4.887-.7-4.887-1.365s2.089-1.224 4.887-1.367v2.182c.183.015.707.05 1.431.05.869 0 1.3-.041 1.382-.05v-2.176c2.793.142 4.877.7 4.877 1.365s-2.084 1.223-4.877 1.365zm0-2.956v-1.944h3.9v-2.97h-10.614v2.97h3.9v1.947c-3.167.166-5.549.884-5.549 1.744s2.382 1.577 5.549 1.744v6.243h2.816v-6.244c3.16-.166 5.538-.883 5.538-1.743s-2.376-1.576-5.538-1.743z" fill="#fff" transform="translate(-59.063 -34.578)"/></svg>