<svg width="40" height="40" viewBox="0 0 40 40" fill="none" xmlns="http://www.w3.org/2000/svg">
<g clip-path="url(#clip0_232_2)">
<path d="M40 20C40 8.9543 31.0457 0 20 0C8.9543 0 0 8.9543 0 20C0 31.0457 8.9543 40 20 40C31.0457 40 40 31.0457 40 20Z" fill="#0088CC"/>
<path d="M32.8313 14.8702L21.2078 32.6333C21.0663 32.8478 20.8705 33.0243 20.639 33.1468C20.407 33.2692 20.1468 33.3333 19.8823 33.3333C19.6157 33.3338 19.3535 33.2692 19.1202 33.1453C18.8868 33.0217 18.6903 32.8427 18.549 32.6258L7.15295 14.8626C6.8337 14.3648 6.66531 13.7913 6.66666 13.2067C6.68113 12.3437 7.05176 11.5213 7.69726 10.9202C8.3428 10.3191 9.21041 9.98825 10.1098 10.0003H29.9058C31.7962 10.0003 33.3333 11.4304 33.3333 13.1992C33.3333 13.7863 33.1608 14.3659 32.8313 14.8702ZM9.95295 14.2755L18.4313 26.8227V13.0111H10.8392C9.96078 13.0111 9.56863 13.568 9.95295 14.2755ZM21.5685 26.8227L30.047 14.2755C30.4393 13.568 30.0392 13.0111 29.1608 13.0111H21.5685V26.8227Z" fill="white"/>
</g>
<defs>
<clipPath id="clip0_232_2">
<rect width="40" height="40" fill="white"/>
</clipPath>
</defs>
</svg>
