<svg width="24" height="24" fill="none" xmlns="http://www.w3.org/2000/svg"><path d="M15 18a9 9 0 1 0-9-9 8.978 8.978 0 0 0 9 9Z" fill="#2775CA"/><path d="M17.536 10.454c0-1.344-.806-1.8-2.419-2-1.152-.154-1.382-.461-1.382-1 0-.539.384-.883 1.152-.883a1.136 1.136 0 0 1 1.267.806.29.29 0 0 0 .269.192h.614a.262.262 0 0 0 .269-.269v-.038a1.918 1.918 0 0 0-1.728-1.574v-.921c0-.154-.115-.269-.307-.307h-.576c-.154 0-.269.115-.307.307v.883a1.958 1.958 0 0 0-1.881 1.881c0 1.267.768 1.766 2.38 1.958 1.075.192 1.421.422 1.421 1.037s-.538 1.037-1.267 1.037c-1 0-1.344-.422-1.459-1a.28.28 0 0 0-.269-.23h-.653a.26.26 0 0 0-.25.165.265.265 0 0 0-.019.104v.038a2.145 2.145 0 0 0 2.035 1.843v.921c0 .154.115.269.307.307h.576c.154 0 .269-.115.307-.307v-.921a2.1 2.1 0 0 0 1.92-2.029Z" fill="#fff"/><path d="M13.103 14.317a5.557 5.557 0 0 1 0-10.44.373.373 0 0 0 .223-.372v-.52a.283.283 0 0 0-.223-.3.224.224 0 0 0-.149.037 6.683 6.683 0 0 0 0 12.744.227.227 0 0 0 .29-.053.227.227 0 0 0 .045-.096c.037-.037.037-.074.037-.149v-.52a.5.5 0 0 0-.223-.331Zm3.944-11.592a.226.226 0 0 0-.335.149c-.037.037-.037.074-.037.149v.52a.494.494 0 0 0 .223.372 5.557 5.557 0 0 1 0 10.44.373.373 0 0 0-.223.372v.52a.284.284 0 0 0 .223.3.224.224 0 0 0 .149-.037 6.673 6.673 0 0 0 4.353-8.4 6.743 6.743 0 0 0-4.353-4.386v.001Z" fill="#fff"/><g clip-path="url(#a)"><path fill-rule="evenodd" clip-rule="evenodd" d="M18 15A9 9 0 1 1 .001 15 9 9 0 0 1 18 15Z" fill="#000"/><mask id="b" style="mask-type:luminance" maskUnits="userSpaceOnUse" x="2" y="8" width="14" height="14"><path d="M2.027 8.362h13.946v13.276H2.027V8.362Z" fill="#fff"/></mask><g mask="url(#b)" fill="#fff"><path d="M11.365 8.617v.59a6.255 6.255 0 0 1 0 11.586v.59a6.806 6.806 0 0 0 0-12.766ZM2.191 15a6.82 6.82 0 0 0 4.496 6.404v-.589a6.258 6.258 0 0 1 0-11.63v-.588A6.82 6.82 0 0 0 2.191 15Z"/><path d="m6.852 21.638-.22-.08a6.975 6.975 0 0 1 0-13.117l.22-.08v.935l-.104.042a6.093 6.093 0 0 0 0 11.325l.104.041v.934Zm-.33-12.802a6.643 6.643 0 0 0 0 12.33v-.238a6.423 6.423 0 0 1 0-11.852v-.24Zm4.68 12.783v-.936l.104-.042a6.092 6.092 0 0 0 0-11.282l-.103-.042V8.38l.222.083a6.97 6.97 0 0 1 0 13.074l-.222.082Zm.33-.716v.238a6.64 6.64 0 0 0 0-12.282v.238a6.422 6.422 0 0 1 0 11.806Z"/><path d="M9.37 20.401h-.798v-1.183a2.227 2.227 0 0 1-1.975-.778 2.436 2.436 0 0 1-.51-1.613h.777c.024.187.058.373.102.558a1.28 1.28 0 0 0 1.185 1.031c.602.042 1.206.034 1.807-.025a1.094 1.094 0 0 0 1.063-1.245c0-.135-.01-.273 0-.409a1.092 1.092 0 0 0-.982-1.191c-.675-.131-1.358-.222-2.029-.371a3.773 3.773 0 0 1-1.042-.38 1.482 1.482 0 0 1-.785-1.346 5 5 0 0 1 .128-1.458c.234-.738.874-1.043 1.607-1.152.2-.03.405-.038.639-.06V9.633h.81v1.164a2.153 2.153 0 0 1 1.9.77c.312.413.468.923.442 1.44a6.227 6.227 0 0 1-.686-.01c-.052-.007-.117-.143-.128-.226a1.24 1.24 0 0 0-.89-1.125.983.983 0 0 0-.25-.037c-.527-.003-1.055-.017-1.582.004a1.11 1.11 0 0 0-1.17 1.215v.357a1.058 1.058 0 0 0 .935 1.17c.722.152 1.457.251 2.174.423.37.09.722.239 1.045.439a1.497 1.497 0 0 1 .692 1.345v.638a1.859 1.859 0 0 1-1.654 1.963c-.265.045-.536.051-.826.077v1.162Z"/></g></g><defs><clipPath id="a"><path fill="#fff" transform="translate(0 6)" d="M0 0h18v18H0z"/></clipPath></defs></svg>