<svg xmlns="http://www.w3.org/2000/svg" width="40" height="40"><path fill="none" d="M0 .004h40v40H0z" data-name="Rectangle 179"/><path fill="#309076" d="M39.4 24.841A20 20 0 1 1 24.836.599 20 20 0 0 1 39.4 24.841Z" data-name="Path 1467"/><path fill="#fff" d="m23.438 18.81-5.7-1.666a1.56 1.56 0 0 1-1.118-1.492 1.555 1.555 0 0 1 1.556-1.556h3.5a3.219 3.219 0 0 1 1.8.554.822.822 0 0 0 1.028-.105l1.835-1.793a.855.855 0 0 0-.095-1.292 7.457 7.457 0 0 0-4.557-1.583V7.346a.846.846 0 0 0-.844-.844h-1.687a.846.846 0 0 0-.844.844v2.531h-.132a5.778 5.778 0 0 0-5.748 6.307 6.037 6.037 0 0 0 4.419 5.094l5.406 1.582a1.565 1.565 0 0 1 1.118 1.492 1.555 1.555 0 0 1-1.556 1.556h-3.5a3.219 3.219 0 0 1-1.8-.554.822.822 0 0 0-1.028.105l-1.835 1.794a.855.855 0 0 0 .095 1.292 7.457 7.457 0 0 0 4.561 1.582v2.531a.846.846 0 0 0 .844.844h1.687a.846.846 0 0 0 .844-.844v-2.542a5.957 5.957 0 0 0 5.574-3.834 5.791 5.791 0 0 0-3.823-7.472Z" data-name="Path 4618"/></svg>