<svg xmlns="http://www.w3.org/2000/svg" width="24" height="24"><g data-name="Group 423"><path fill="#50af95" d="M23.73 11.178A9 9 0 1 1 17.176.269a9 9 0 0 1 6.554 10.909Z" data-name="Path 1467"/><path fill="#fff" fill-rule="evenodd" d="M16.061 10.148a14.38 14.38 0 0 1-1.049.026c-.543 0-.929-.019-1.064-.026-2.1-.106-3.667-.524-3.667-1.024s1.567-.918 3.667-1.025v1.633c.137.011.53.038 1.074.038.652 0 .978-.031 1.037-.037V8.099c2.1.107 3.659.525 3.659 1.024s-1.563.918-3.659 1.024Zm0-2.217V6.469h2.924V4.24h-7.961v2.229h2.923V7.93c-2.376.125-4.163.663-4.163 1.308s1.787 1.183 4.163 1.308v4.684h2.113v-4.685c2.371-.125 4.155-.663 4.155-1.307S18.432 8.056 16.06 7.93Zm0 0Z" data-name="Path 1483"/></g><g data-name="Group 422"><path fill="#2775ca" d="M9 24a9 9 0 1 0-9-9 8.978 8.978 0 0 0 9 9Z" data-name="Path 1479"/><path fill="#fff" d="M11.536 16.454c0-1.344-.806-1.8-2.419-2-1.152-.154-1.382-.461-1.382-1s.384-.883 1.152-.883a1.136 1.136 0 0 1 1.267.806.289.289 0 0 0 .269.192h.614a.262.262 0 0 0 .269-.269v-.038a1.918 1.918 0 0 0-1.728-1.574v-.921c0-.154-.115-.269-.307-.307h-.576c-.154 0-.269.115-.307.307v.883a1.958 1.958 0 0 0-1.881 1.881c0 1.267.768 1.766 2.38 1.958 1.075.192 1.421.422 1.421 1.037s-.538 1.037-1.267 1.037c-1 0-1.344-.422-1.459-1a.281.281 0 0 0-.269-.23H6.66a.262.262 0 0 0-.269.269v.038a2.145 2.145 0 0 0 2.035 1.843v.921c0 .154.115.269.307.307h.576c.154 0 .269-.115.307-.307v-.921a2.1 2.1 0 0 0 1.92-2.029Z" data-name="Path 1480"/><path fill="#fff" d="M7.103 20.317a5.557 5.557 0 0 1 0-10.44.373.373 0 0 0 .223-.372v-.52a.283.283 0 0 0-.223-.3.224.224 0 0 0-.149.037 6.683 6.683 0 0 0 0 12.744.226.226 0 0 0 .335-.149c.037-.037.037-.074.037-.149v-.52a.5.5 0 0 0-.223-.331Zm3.944-11.592a.226.226 0 0 0-.335.149c-.037.037-.037.074-.037.149v.52a.493.493 0 0 0 .223.372 5.557 5.557 0 0 1 0 10.44.373.373 0 0 0-.223.372v.52a.283.283 0 0 0 .223.3.224.224 0 0 0 .149-.037 6.673 6.673 0 0 0 4.353-8.4 6.743 6.743 0 0 0-4.353-4.386Z" data-name="Path 1481"/></g></svg>