<svg width="40" height="40" viewBox="0 0 40 40" fill="none" xmlns="http://www.w3.org/2000/svg">
<g clip-path="url(#clip0_1218_24150)">
<path d="M20 40C31.0457 40 40 31.0457 40 20C40 8.9543 31.0457 0 20 0C8.9543 0 0 8.9543 0 20C0 31.0457 8.9543 40 20 40Z" fill="#FF007A"/>
<path d="M15.3262 7.2088C14.97 7.1538 14.955 7.1463 15.1225 7.1213C15.4437 7.0713 16.2037 7.14005 16.7275 7.2638C17.9487 7.55505 19.06 8.2988 20.2475 9.62005L20.5625 9.97005L21.0125 9.8988C22.9125 9.59255 24.8462 9.8363 26.4625 10.5825C26.9075 10.7875 27.6087 11.1963 27.6962 11.3025C27.725 11.335 27.7762 11.5513 27.81 11.7813C27.93 12.5775 27.87 13.1875 27.6275 13.6438C27.495 13.8913 27.4875 13.9688 27.5762 14.1813C27.6183 14.2691 27.6842 14.3433 27.7664 14.3954C27.8487 14.4476 27.9439 14.4756 28.0412 14.4763C28.4437 14.4763 28.8762 13.8263 29.0762 12.9226L29.1562 12.5638L29.3137 12.7426C30.1787 13.7225 30.8575 15.0588 30.9737 16.0088L31.005 16.2575L30.8587 16.0325C30.6087 15.645 30.3587 15.3801 30.0362 15.1663C29.4562 14.7826 28.8425 14.6525 27.2175 14.5663C25.75 14.4888 24.9187 14.3638 24.0962 14.095C22.695 13.6388 21.9887 13.03 20.3237 10.8463C19.585 9.8763 19.1275 9.34005 18.6737 8.9088C17.64 7.9263 16.625 7.4113 15.3262 7.2088Z" fill="white"/>
<path d="M28.0275 9.37506C28.065 8.72506 28.1525 8.29631 28.33 7.90506C28.4 7.75006 28.4663 7.62256 28.4763 7.62256C28.4651 7.7103 28.442 7.79611 28.4075 7.87756C28.2788 8.25756 28.2575 8.77756 28.3463 9.38131C28.4588 10.1488 28.5238 10.2588 29.3338 11.0876C29.715 11.4763 30.1575 11.9663 30.3175 12.1776L30.6088 12.5601L30.3175 12.2863C29.9613 11.9526 29.1413 11.2988 28.96 11.2063C28.8388 11.1438 28.82 11.1451 28.745 11.2188C28.6763 11.2888 28.6613 11.3913 28.6525 11.8801C28.6375 12.6401 28.5338 13.1301 28.2825 13.6176C28.1475 13.8801 28.1263 13.8251 28.2488 13.5263C28.34 13.3038 28.3488 13.2063 28.3488 12.4701C28.3488 10.9901 28.1725 10.6351 27.1413 10.0251C26.831 9.845 26.5123 9.67982 26.1863 9.53006C26.0252 9.46545 25.869 9.38942 25.7188 9.30256C25.7475 9.27381 26.7525 9.56631 27.1563 9.72256C27.7588 9.95381 27.8575 9.98381 27.9313 9.95506C27.98 9.93631 28.0038 9.79381 28.0275 9.37506ZM16.0188 11.9063C15.295 10.9101 14.8475 9.38131 14.9438 8.23881L14.9738 7.88506L15.1388 7.91506C15.4488 7.97131 15.9825 8.17006 16.2325 8.32256C16.9175 8.73881 17.215 9.28756 17.5163 10.6951C17.605 11.1076 17.7213 11.5738 17.775 11.7326C17.86 11.9863 18.185 12.5801 18.45 12.9663C18.64 13.2438 18.5125 13.3751 18.0925 13.3376C17.45 13.2788 16.58 12.6788 16.0188 11.9063ZM27.15 19.3251C23.7663 17.9626 22.575 16.7801 22.575 14.7851C22.575 14.4913 22.585 14.2513 22.5963 14.2513C22.6088 14.2513 22.74 14.3476 22.8875 14.4663C23.5738 15.0163 24.3425 15.2513 26.4688 15.5613C27.72 15.7451 28.425 15.8926 29.075 16.1076C31.14 16.7926 32.4175 18.1826 32.7225 20.0751C32.81 20.6251 32.7588 21.6563 32.615 22.2001C32.5025 22.6301 32.1563 23.4038 32.065 23.4338C32.04 23.4413 32.015 23.3451 32.0075 23.2113C31.9725 22.5013 31.6138 21.8088 31.01 21.2901C30.3238 20.7013 29.4038 20.2313 27.15 19.3251ZM24.775 19.8901C24.735 19.6486 24.6803 19.4098 24.6113 19.1751L24.5238 18.9176L24.685 19.0976C24.9063 19.3476 25.0825 19.6651 25.23 20.0901C25.3438 20.4138 25.3563 20.5101 25.355 21.0363C25.355 21.5538 25.3413 21.6613 25.2363 21.9538C25.0903 22.3827 24.8458 22.7714 24.5225 23.0888C23.9038 23.7188 23.11 24.0663 21.9625 24.2113C21.7625 24.2363 21.1825 24.2788 20.6713 24.3051C19.3838 24.3726 18.5375 24.5101 17.7763 24.7776C17.7076 24.8083 17.6339 24.8261 17.5588 24.8301C17.5288 24.7988 18.0463 24.4901 18.475 24.2838C19.0788 23.9926 19.6788 23.8338 21.025 23.6101C21.69 23.4988 22.3775 23.3651 22.5513 23.3113C24.1988 22.8063 25.0463 21.5038 24.775 19.8901Z" fill="white"/>
<path d="M26.3251 22.645C25.8751 21.6788 25.7726 20.745 26.0188 19.875C26.0451 19.7825 26.0876 19.7063 26.1126 19.7063C26.1972 19.7369 26.2768 19.7799 26.3488 19.8338C26.5563 19.9738 26.9713 20.2088 28.0776 20.8113C29.4588 21.565 30.2463 22.1488 30.7826 22.8138C31.2513 23.3975 31.5413 24.0625 31.6813 24.8725C31.7601 25.3313 31.7138 26.435 31.5963 26.8975C31.2251 28.355 30.3613 29.5 29.1313 30.1675C29.0152 30.2347 28.895 30.2944 28.7713 30.3463C28.7538 30.3463 28.8188 30.18 28.9176 29.975C29.3301 29.11 29.3788 28.2675 29.0651 27.33C28.8738 26.7563 28.4826 26.055 27.6938 24.8725C26.7763 23.4975 26.5513 23.13 26.3251 22.645ZM13.6163 27.8588C14.8726 26.7988 16.4338 26.0463 17.8576 25.815C18.4701 25.715 19.4926 25.755 20.0601 25.9C20.9701 26.1325 21.7851 26.655 22.2088 27.2763C22.6213 27.8838 22.8001 28.4138 22.9838 29.5913C23.0588 30.0563 23.1376 30.5225 23.1613 30.6288C23.2988 31.2388 23.5701 31.7275 23.9051 31.9725C24.4363 32.3613 25.3526 32.385 26.2526 32.035C26.3466 31.9919 26.4457 31.9608 26.5476 31.9425C26.5801 31.975 26.1276 32.2788 25.8076 32.4388C25.4299 32.6409 25.007 32.7433 24.5788 32.7363C23.7538 32.7363 23.0688 32.3175 22.4976 31.4613C22.3851 31.2925 22.1326 30.7888 21.9351 30.34C21.3326 28.965 21.0351 28.545 20.3351 28.0863C19.7238 27.6863 18.9376 27.615 18.3463 27.905C17.5688 28.2863 17.3526 29.28 17.9088 29.9088C18.1301 30.1588 18.5426 30.375 18.8801 30.4163C19.0273 30.4358 19.177 30.4235 19.319 30.3802C19.4611 30.3368 19.5922 30.2635 19.7035 30.1651C19.8147 30.0668 19.9036 29.9457 19.964 29.81C20.0245 29.6744 20.0551 29.5273 20.0538 29.3788C20.0538 28.9638 19.8938 28.7288 19.4938 28.5475C18.9476 28.3013 18.3601 28.5888 18.3626 29.1025C18.3638 29.3213 18.4588 29.4588 18.6788 29.5588C18.8201 29.6213 18.8226 29.6275 18.7076 29.6038C18.2063 29.4988 18.0888 28.895 18.4926 28.4938C18.9763 28.0113 19.9776 28.2238 20.3213 28.8813C20.4663 29.1575 20.4826 29.7088 20.3563 30.0413C20.0751 30.785 19.2526 31.175 18.4188 30.9625C17.8513 30.8175 17.6201 30.6613 16.9363 29.9563C15.7476 28.7313 15.2863 28.4938 13.5713 28.2263L13.2426 28.175L13.6176 27.8588H13.6163Z" fill="white"/>
<path fill-rule="evenodd" clip-rule="evenodd" d="M7.745 4.18754L7.86499 4.33379C12.5 10.0088 14.895 12.9538 15.0475 13.1638C15.2975 13.5113 15.2037 13.8225 14.7737 14.0675C14.535 14.2038 14.0425 14.3413 13.7975 14.3413C13.5187 14.3413 13.205 14.2075 12.9762 13.9913C12.815 13.8375 12.1637 12.865 10.66 10.5313C9.95581 9.42829 9.24245 8.33117 8.51999 7.24004C8.45874 7.18254 8.46 7.18379 10.5425 10.91C11.85 13.25 12.2925 14.0763 12.2925 14.1875C12.2925 14.4125 12.23 14.53 11.9525 14.84C11.49 15.3563 11.2837 15.9363 11.1337 17.1363C10.9662 18.4825 10.4962 19.4325 9.19125 21.0588C8.42875 22.0113 8.30374 22.1863 8.10999 22.57C7.86749 23.0525 7.80124 23.3238 7.77374 23.9338C7.74499 24.5788 7.80125 24.9963 7.99875 25.6125C8.17125 26.1525 8.35124 26.51 8.81124 27.2225C9.20874 27.8388 9.4375 28.2963 9.4375 28.475C9.4375 28.6175 9.46499 28.6175 10.0812 28.4788C11.555 28.1463 12.7512 27.56 13.425 26.8425C13.8412 26.3988 13.9387 26.1538 13.9425 25.545C13.9437 25.1475 13.93 25.0638 13.8225 24.835C13.6475 24.4625 13.3287 24.1525 12.6262 23.6725C11.705 23.0425 11.3125 22.535 11.2037 21.8388C11.1137 21.2675 11.2175 20.8638 11.7275 19.7963C12.2537 18.6913 12.385 18.2213 12.4737 17.1075C12.53 16.3875 12.6087 16.1038 12.8162 15.8763C13.0312 15.6388 13.2262 15.5575 13.76 15.485C14.63 15.3663 15.1837 15.1413 15.6387 14.7225C16.0337 14.3575 16.1987 14.0063 16.2237 13.4788L16.2437 13.0788L16.0225 12.8213C15.705 12.4513 13.0787 9.55379 8.14249 4.12629L8.00999 3.98254L7.745 4.18879V4.18754ZM9.88749 24.665C9.9747 24.5106 10.0007 24.3291 9.96046 24.1564C9.92018 23.9837 9.81652 23.8324 9.67 23.7325C9.385 23.5425 8.94124 23.6325 8.94124 23.88C8.94124 23.955 8.9825 24.01 9.07625 24.0588C9.235 24.14 9.24624 24.2325 9.12249 24.4188C8.99624 24.6088 9.00625 24.7763 9.15125 24.89C9.38375 25.0725 9.71249 24.9713 9.88749 24.665ZM16.7925 15.695C16.3837 15.82 15.9875 16.2538 15.8637 16.7075C15.7887 16.9838 15.8312 17.47 15.9437 17.62C16.125 17.8625 16.3012 17.9263 16.7762 17.9225C17.7062 17.9163 18.5137 17.5175 18.6087 17.0188C18.6862 16.61 18.33 16.0438 17.8412 15.7938C17.5887 15.6663 17.0525 15.615 16.7925 15.695ZM17.88 16.545C18.0237 16.3413 17.96 16.12 17.7175 15.9725C17.2525 15.6888 16.55 15.9225 16.55 16.3625C16.55 16.58 16.9162 16.8188 17.2512 16.8188C17.4762 16.8188 17.7812 16.685 17.88 16.545Z" fill="white"/>
</g>
<defs>
<clipPath id="clip0_1218_24150">
<rect width="40" height="40" fill="white"/>
</clipPath>
</defs>
</svg>
