<svg width="20" height="20" viewBox="0 0 20 20" fill="none" xmlns="http://www.w3.org/2000/svg">
<g clip-path="url(#clip0_1443_71663)">
<circle cx="10" cy="10" r="10" fill="black"/>
<g clip-path="url(#clip1_1443_71663)">
<path fill-rule="evenodd" clip-rule="evenodd" d="M8.05918 12.207C7.8565 12.049 7.61187 11.9165 7.34136 11.8361C7.07084 11.7556 6.77444 11.7272 6.48461 11.7609C6.19478 11.7946 5.91154 11.8905 5.6644 12.0312C5.41727 12.1719 5.20626 12.3574 5.04152 12.5582C4.87633 12.7586 4.73242 13.0048 4.63603 13.2819C4.53964 13.559 4.49077 13.867 4.50151 14.1727C4.51225 14.4783 4.58259 14.7817 4.69815 15.0506C4.81371 15.3195 4.9745 15.5539 5.15331 15.7411C5.33169 15.9286 5.55514 16.0973 5.81146 16.2186C6.06779 16.3398 6.35701 16.4136 6.64841 16.4248C6.93981 16.4361 7.23342 16.3848 7.49756 16.2837C7.76169 16.1826 7.99637 16.0316 8.18742 15.8583C8.37886 15.6855 8.55567 15.4642 8.68979 15.2049C8.82389 14.9457 8.91532 14.6485 8.94747 14.3445C8.97962 14.0405 8.95249 13.7295 8.8758 13.4457C8.79912 13.162 8.67286 12.9054 8.52217 12.6927L9.0199 12.1706L9.38219 12.5506H9.58796L9.83631 12.2901V12.0743L9.47402 11.6942L10 11.1424L10.526 11.6942L10.1637 12.0743V12.2901L10.412 12.5506H10.6178L10.9801 12.1706L11.4778 12.6927C11.3271 12.9054 11.2009 13.162 11.1242 13.4457C11.0475 13.7295 11.0204 14.0405 11.0525 14.3445C11.0847 14.6485 11.1761 14.9457 11.3102 15.2049C11.4443 15.4642 11.6211 15.6855 11.8126 15.8583C12.0036 16.0316 12.2383 16.1826 12.5024 16.2837C12.7666 16.3848 13.0602 16.4361 13.3516 16.4248C13.643 16.4136 13.9322 16.3398 14.1885 16.2186C14.4449 16.0973 14.6683 15.9286 14.8467 15.7411C15.0255 15.5539 15.1863 15.3195 15.3018 15.0506C15.4174 14.7817 15.4877 14.4783 15.4985 14.1727C15.5092 13.867 15.4604 13.559 15.364 13.2819C15.2676 13.0048 15.1237 12.7586 14.9585 12.5582C14.7937 12.3574 14.5827 12.1719 14.3356 12.0312C14.0885 11.8905 13.8052 11.7946 13.5154 11.7609C13.2256 11.7272 12.9292 11.7556 12.6586 11.8361C12.3881 11.9165 12.1435 12.049 11.9408 12.207L11.4523 11.6938L11.8144 11.3139V11.0981L11.5572 10.8283H11.3515L10.9892 11.2083L10.463 10.6567L13.2215 7.76299L14.3381 8.93438V7.71556H15.5L14.3833 6.54417L15.5 5.37277V5.15691L15.2428 4.88708H15.037L10 10.1711L4.96299 4.88708H4.75722L4.5 5.15691V5.37277L5.61665 6.54417L4.5 7.71556H5.66185V8.93438L6.77849 7.76299L9.53701 10.6567L9.01084 11.2083L8.64855 10.8283H8.44278L8.18556 11.0981V11.3139L8.54765 11.6938L8.05918 12.207ZM12.5355 14.8877C12.4219 15.1321 12.4455 15.4708 12.5918 15.6953C12.7261 15.9278 13.0104 16.0904 13.2695 16.083C13.5286 16.0904 13.8128 15.9278 13.9471 15.6953C14.0934 15.4708 14.117 15.1321 14.0034 14.8877L14.0317 14.8557C14.2646 14.9755 14.588 14.9512 14.8023 14.7979C15.0244 14.657 15.1797 14.3586 15.1726 14.0865C15.1797 13.8144 15.0244 13.516 14.8023 13.3751C14.588 13.2218 14.2646 13.1975 14.0317 13.3173L14.0034 13.2854C14.117 13.0409 14.0934 12.7022 13.9471 12.4778C13.8128 12.2452 13.5286 12.0826 13.2695 12.09C13.0104 12.0826 12.7261 12.2452 12.5918 12.4778C12.4455 12.7022 12.4219 13.0409 12.5355 13.2854L12.5072 13.3173C12.2743 13.1975 11.9509 13.2218 11.7366 13.3751C11.5146 13.516 11.3592 13.8144 11.3663 14.0865C11.3592 14.3586 11.5146 14.657 11.7366 14.7979C11.9509 14.9512 12.2743 14.9755 12.5072 14.8557L12.5355 14.8877ZM7.40811 15.6953C7.55435 15.4708 7.57794 15.1321 7.46436 14.8877L7.49265 14.8557C7.72562 14.9755 8.04896 14.9512 8.26331 14.7979C8.48533 14.657 8.64068 14.3586 8.63359 14.0865C8.64068 13.8144 8.48533 13.516 8.26331 13.3751C8.04896 13.2218 7.72562 13.1975 7.49265 13.3173L7.46436 13.2854C7.57794 13.0409 7.55435 12.7022 7.40811 12.4778C7.27374 12.2452 6.98954 12.0826 6.73042 12.09C6.47133 12.0826 6.18712 12.2452 6.05275 12.4778C5.90651 12.7022 5.88292 13.0409 5.9965 13.2854L5.96822 13.3173C5.73525 13.1975 5.4119 13.2218 5.19756 13.3751C4.97554 13.516 4.82018 13.8144 4.82728 14.0865C4.82018 14.3586 4.97554 14.657 5.19756 14.7979C5.4119 14.9512 5.73525 14.9755 5.96822 14.8557L5.9965 14.8877C5.88292 15.1321 5.90651 15.4708 6.05275 15.6953C6.18712 15.9278 6.47133 16.0904 6.73042 16.083C6.98954 16.0904 7.27374 15.9278 7.40811 15.6953Z" fill="#DD3300"/>
<path fill-rule="evenodd" clip-rule="evenodd" d="M9.99632 4.88707L11.3186 3.5L11.9733 4.18686V6.50217L10.16 8.40437H9.83265L8.01932 6.50217V4.18686L8.67408 3.5L9.99632 4.88707ZM8.6741 3.98569L9.83265 5.20104V7.43301L8.6741 6.21766V3.98569ZM10.1601 5.20104L11.3186 3.98569V6.21766L10.1601 7.43301V5.20104Z" fill="#DD3300"/>
</g>
</g>
<defs>
<clipPath id="clip0_1443_71663">
<rect width="20" height="20" fill="white"/>
</clipPath>
<clipPath id="clip1_1443_71663">
<rect width="11" height="13" fill="white" transform="translate(4.5 3.5)"/>
</clipPath>
</defs>
</svg>
