<svg width="24" height="24" fill="none" xmlns="http://www.w3.org/2000/svg"><g clip-path="url(#a)"><path d="M15 18a9 9 0 1 0 0-18 9 9 0 0 0 0 18Z" fill="#EC1C79"/><path d="M12.434 14.721c2.936 0 2.936-.045 3.434-.19.65-.194-1.838-1.916-3.434-1.916s-2.892.471-2.892 1.053 1.295 1.053 2.892 1.053Z" fill="#000"/><path d="m19.101 5.765.135.145-.118.16c-3.83 5.18-6.035 7.52-6.974 7.207-.568-.191-1.14-.767-1.71-1.603a11.953 11.953 0 0 1-.822-1.41 1.24 1.24 0 0 1-.113-.326l-.003-.013-.018-.086a5.22 5.22 0 0 1 7.588-5.9l.02.013c.733.531 1.409 1.14 2.015 1.813Zm-2.28-1.413A4.743 4.743 0 0 0 9.94 9.716c.01.04.016.062.026.118v.012a.78.78 0 0 0 .075.212 10.97 10.97 0 0 0 .787 1.346c.518.755 1.03 1.272 1.473 1.42.589.199 2.808-2.15 6.315-6.878a12.035 12.035 0 0 0-1.794-1.594Z" fill="#000"/><path d="M16.821 4.352A4.744 4.744 0 0 0 9.94 9.716c.01.04.015.062.026.118v.012c.014.073.04.145.074.211a10.97 10.97 0 0 0 .787 1.346c.518.756 1.03 1.272 1.47 1.42.59.199 2.81-2.15 6.316-6.878a12.047 12.047 0 0 0-1.792-1.593h.001Z" fill="#EC1C79"/><path d="M15.478 14.674a5.22 5.22 0 1 1 0-10.44 5.22 5.22 0 0 1 0 10.44Zm0-.479a4.74 4.74 0 1 0 .003-9.48 4.74 4.74 0 0 0-.003 9.48Z" fill="#000"/><path d="M15.478 14.195a4.74 4.74 0 1 0 0-9.48 4.74 4.74 0 0 0 0 9.48Z" fill="#fff"/><path d="m11.933 10.426-.627-1.89h.55l.326 1.085.36-1.09h.448l.36 1.09.327-1.085h.54l-.627 1.89h-.45l-.379-1.08-.375 1.08h-.453Zm2.495-.014V8.536h1.51v.441h-.997v.284h.9v.41h-.9v.298h1.008v.443h-1.521Zm2.246 0v-1.42h-.564v-.456h1.648v.455h-.565v1.421h-.519Zm1.311 0V8.536h.52v.702h.667v-.702h.521v1.876h-.52V9.7h-.668v.713h-.52ZM9.614 7.97a.27.27 0 0 1 .24-.478l.765.383a.27.27 0 1 1-.24.479l-.765-.383ZM9.525 9.241a.27.27 0 1 1 .225-.489l.765.354a.27.27 0 0 1-.225.487l-.765-.352Z" fill="#000"/></g><g clip-path="url(#b)"><path fill-rule="evenodd" clip-rule="evenodd" d="M18 15A9 9 0 1 1 .001 15 9 9 0 0 1 18 15Z" fill="#00A3FF"/><path d="m4.916 13.852-.107.16a4.812 4.812 0 0 0 .699 6.072A4.79 4.79 0 0 0 9 21.535l-4.084-7.683Z" fill="#fff"/><path opacity=".6" d="m9 16.162-4.084-2.364L9 21.535v-5.373ZM13.084 13.852l.107.16a4.812 4.812 0 0 1-.698 6.072A4.877 4.877 0 0 1 9 21.534l4.084-7.682Z" fill="#fff"/><path opacity=".2" d="m9 16.162 4.084-2.364L9 21.535v-5.373ZM9 10.95v4.03l3.546-1.988L9 10.95Z" fill="#fff"/><path opacity=".6" d="m9 10.95-3.546 2.042L9 14.98v-4.03Z" fill="#fff"/><path d="m9 7.565-3.546 5.427L9 10.95V7.565Z" fill="#fff"/><path opacity=".6" d="m9 10.95 3.546 2.042L9 7.565v3.385Z" fill="#fff"/></g><defs><clipPath id="a"><path fill="#fff" transform="translate(6)" d="M0 0h18v18H0z"/></clipPath><clipPath id="b"><path fill="#fff" transform="translate(0 6)" d="M0 0h18v18H0z"/></clipPath></defs></svg>