<svg width="40" height="40" viewBox="0 0 20 20" fill="none" xmlns="http://www.w3.org/2000/svg">
<g clip-path="url(#clip0_1443_71656)">
<circle cx="10" cy="10" r="10" fill="#171412"/>
<path fill-rule="evenodd" clip-rule="evenodd" d="M7.70783 9.43079C7.7515 9.43936 7.7814 9.49267 7.7751 9.54978C7.76843 9.6069 7.7279 9.6464 7.6842 9.63784L5.36723 9.17091C5.61593 9.56692 5.99567 9.89344 6.3825 10.0029L9.06857 10.6026L5.6734 12.855C6.08697 13.0782 6.55483 13.0348 6.9389 12.7426L7.00933 12.6855L8.2611 11.6674C8.29573 11.6393 8.34177 11.6531 8.3634 11.6983C8.38503 11.744 8.37443 11.8035 8.3398 11.8321L7.04083 12.8887C7.39893 13.0825 7.8062 13.0196 8.11863 12.7283L9.10753 11.7311C9.1398 11.6983 9.18663 11.7064 9.2114 11.7488C9.2366 11.7911 9.2303 11.852 9.19803 11.8849L8.1887 12.9025C8.5401 12.953 9.00363 12.8249 9.29247 12.547C9.62657 12.1976 10.0437 11.6883 10.4089 11.4561C10.6351 11.3123 10.887 11.239 11.2022 11.2918C11.417 11.3889 11.6433 11.4351 11.8703 11.4275C12.0199 11.4608 12.1509 11.5746 12.2324 11.7392C12.2796 11.4746 12.1922 11.1676 11.9931 11.0891C11.9959 10.9929 11.9605 10.9039 11.9018 10.8515L11.8479 10.8168L10.4085 9.89201C9.7328 9.45792 9.05717 9.02336 8.3815 8.58927C8.0781 8.40459 7.76133 8.2599 7.4363 8.15756C7.23953 8.09569 7.0664 8.06237 6.8661 8.02048L2 7C2.26719 7.44599 2.62017 7.69111 3.04083 7.77821L6.47573 8.49122C6.51943 8.50027 6.54893 8.55357 6.54187 8.61069C6.53477 8.66781 6.49423 8.70636 6.45057 8.69732L3.72395 8.13139C3.92543 8.48218 4.22095 8.71874 4.55032 8.79442L4.60266 8.80489L7.70783 9.43079Z" fill="#E7AC08"/>
<path fill-rule="evenodd" clip-rule="evenodd" d="M16.3956 8.1252L13.6355 8.71064C13.593 8.71921 13.5533 8.68066 13.547 8.62354C13.5403 8.56642 13.5694 8.51312 13.6119 8.50455L17.1417 7.75584C17.4892 7.66398 17.7977 7.39363 17.9999 7L12.9552 8.10378H12.9548C12.5502 8.19231 12.2803 8.31511 11.9128 8.54881L10.2679 9.59452L11.6326 10.4622C12.4039 10.2799 13.1122 10.1538 13.8838 9.9715C14.253 9.87059 14.5772 9.57358 14.781 9.14568L12.4235 9.64593C12.381 9.6545 12.3413 9.61594 12.335 9.55883C12.3283 9.50171 12.3574 9.4484 12.3999 9.43983L15.463 8.79013C15.8167 8.70303 16.143 8.47123 16.3964 8.12568L16.3956 8.1252Z" fill="#E7AC08"/>
</g>
<defs>
<clipPath id="clip0_1443_71656">
<rect width="20" height="20" fill="white"/>
</clipPath>
</defs>
</svg>