<svg xmlns="http://www.w3.org/2000/svg" width="40" height="40"><path data-name="Path 4941" d="M40 20A20 20 0 1 1 20 0a20 20 0 0 1 20 20Z" fill="#00a3ff" fill-rule="evenodd"/><g fill="#fff"><path data-name="Path 4976" d="m10.925 17.448-.239.358a10.694 10.694 0 0 0 1.553 13.493A10.644 10.644 0 0 0 20 34.523Z"/><path data-name="Path 4977" d="m20 22.583-9.075-5.254L20 34.523Z" opacity=".6"/><path data-name="Path 4978" d="m29.075 17.448.239.358a10.694 10.694 0 0 1-1.552 13.492A10.84 10.84 0 0 1 20 34.522Z" opacity=".6"/><path data-name="Path 4979" d="m20 22.583 9.075-5.254L20 34.523Z" opacity=".2"/><path data-name="Path 4980" d="M20 11v8.955l7.881-4.418Z" opacity=".2"/><path data-name="Path 4981" d="m20 11-7.881 4.537L20 19.955Z" opacity=".6"/><path data-name="Path 4982" d="m20 3.478-7.881 12.06L20 11.001Z"/><path data-name="Path 4983" d="m20 11 7.881 4.537L20 3.478Z" opacity=".6"/></g></svg>