<svg width="40" height="40" viewBox="0 0 40 40" fill="none" xmlns="http://www.w3.org/2000/svg">
<g clip-path="url(#clip0_1501_24142)">
<path d="M20 40C31.0457 40 40 31.0457 40 20C40 8.9543 31.0457 0 20 0C8.9543 0 0 8.9543 0 20C0 31.0457 8.9543 40 20 40Z" fill="white"/>
<path d="M28.8375 10H32.45L24.9312 17.4462C23.6167 18.7414 21.8454 19.4674 20 19.4674C18.1546 19.4674 16.3833 18.7414 15.0688 17.4462L7.54375 10H11.1625L16.875 15.6537C17.7069 16.4748 18.8287 16.9352 19.9975 16.9352C21.1663 16.9352 22.2881 16.4748 23.12 15.6537L28.8375 10ZM11.1188 30.7037H7.5L15.0688 23.2125C16.3833 21.9173 18.1546 21.1913 20 21.1913C21.8454 21.1913 23.6167 21.9173 24.9312 23.2125L32.5 30.7025H28.8812L23.125 25C22.2931 24.1789 21.1713 23.7185 20.0025 23.7185C18.8337 23.7185 17.7119 24.1789 16.88 25L11.1175 30.7037H11.1188Z" fill="#23292F"/>
</g>
<defs>
<clipPath id="clip0_1501_24142">
<rect width="40" height="40" fill="white"/>
</clipPath>
</defs>
</svg>
