<svg width="40" height="40" viewBox="0 0 40 40" fill="none" xmlns="http://www.w3.org/2000/svg">
<g clip-path="url(#clip0_4_126)">
<path d="M39.9995 19.998C39.9995 31.0423 31.0462 39.996 20 39.996C8.95384 39.996 0.000488281 31.0423 0.000488281 19.998C0.000488281 8.95379 8.95405 0 20 0C31.046 0 39.9995 8.95293 39.9995 19.998Z" fill="white"/>
<path d="M19.9998 0C8.95762 0 -0.0115993 8.96646 0.00245791 19.9974C0.00522674 22.2043 0.357188 24.3273 1.01777 26.3131H7.00144V9.49024L19.9998 22.4872L32.9976 9.49024V26.3134H38.9826C39.6441 24.3277 39.9943 22.2048 39.9982 19.9977C40.017 8.95528 31.0432 0.00266206 19.9998 0.00266206V0Z" fill="#F26822"/>
<path d="M17.0107 25.4751L11.3381 19.8027V30.3886H7.00114L2.90869 30.3893C6.41904 36.1479 12.7631 40 20 40C27.2369 40 33.5812 36.147 37.0922 30.3885H28.6606V19.8027L22.9877 25.4751L19.9993 28.4631L17.0109 25.4751H17.0107Z" fill="#4D4D4D"/>
</g>
<defs>
<clipPath id="clip0_4_126">
<rect width="40" height="40" fill="white"/>
</clipPath>
</defs>
</svg>
