<svg width="40" height="40" viewBox="0 0 140 140" fill="none" xmlns="http://www.w3.org/2000/svg">
  <g clip-path="url(#clip0_3031_1534)">
    <circle cx="70" cy="70" r="70" fill="#162F29" />
    <path
      d="M115 70.2412C115 70.6974 114.994 71.1537 114.98 71.6099H114.928H93.0932V70.6127H72.0271C72.0271 70.4042 72.0336 70.1955 72.0336 69.9935C72.0336 69.7915 72.0336 69.5764 72.0271 69.3743H93.0932V68.3836H93.1257H114.961C114.987 69.0027 115 69.622 115 70.2412ZM71.6555 65.7503L92.2719 63.2149L92.3958 64.2056L114.166 61.5267C113.957 60.4578 113.709 59.4018 113.429 58.3654L91.9981 61.0053L92.122 61.996L71.4078 64.5445C71.4992 64.9486 71.5839 65.3527 71.6555 65.7633V65.7503ZM70.58 61.7613L90.2839 56.8402L90.5251 57.8049L111.435 52.584C111.004 51.5737 110.542 50.5765 110.046 49.6054L89.7495 54.6762L89.9905 55.6409L70.1239 60.6077C70.2868 60.9922 70.4367 61.3767 70.58 61.7679V61.7613ZM68.8333 58.0265L87.253 51.0718L87.605 52.0039L107.094 44.6451C106.461 43.7196 105.797 42.8201 105.093 41.9468L86.4644 48.9796L86.8163 49.9116L68.1749 56.9511C68.4032 57.303 68.6248 57.6615 68.8333 58.0265ZM66.4152 54.572L82.684 46.0921L83.1402 46.9786L101.13 37.5992C100.302 36.7975 99.4417 36.0349 98.5552 35.2984L81.6476 44.1106L82.1039 44.9971L65.5613 53.6204C65.8481 53.9332 66.1348 54.2461 66.4086 54.572H66.4152ZM62.4914 50.8437L77.2219 41.4774L77.7563 42.3182L94.0122 31.9807C92.9889 31.3289 91.946 30.7228 90.8705 30.1557L76.0291 39.5937L76.5636 40.4346L61.4093 50.0681C61.7809 50.3158 62.1394 50.5765 62.4979 50.8437H62.4914ZM59.0107 48.6667L71.3558 38.5443L71.9879 39.3135L85.8908 27.907C84.711 27.4573 83.4987 27.0532 82.2733 26.7012L69.9413 36.8171L70.5736 37.5862L57.7788 48.0801C58.196 48.2627 58.6066 48.4582 59.0107 48.6667ZM54.4026 46.8743L64.1534 37.169L64.8508 37.873L77.2415 25.5605C75.8988 25.3389 74.5365 25.176 73.1547 25.0717L62.5891 35.5852L63.2865 36.2891L52.9881 46.5353C53.464 46.6332 53.9333 46.7439 54.4026 46.8743ZM49.0121 46.0595L56.7881 36.6346L57.5572 37.2668L67.6796 25C66.1414 25.0717 64.6227 25.2216 63.1301 25.4432L55.0674 35.2137L55.8365 35.8459L47.4153 46.053C47.6499 46.0465 47.8911 46.04 48.1257 46.04C48.4255 46.04 48.7189 46.04 49.0121 46.053V46.0595ZM44.3519 46.3398L50.3419 37.0713L51.1762 37.6122L58.4176 26.4014C56.762 26.8315 55.1456 27.353 53.5682 27.9592L48.4712 35.8524L49.3055 36.3934L42.6702 46.6658C43.2242 46.5353 43.7848 46.4245 44.3519 46.3332V46.3398ZM39.1765 47.7802L43.4849 39.7046L44.3584 40.1738L50.0615 29.4909C48.23 30.3838 46.4701 31.3941 44.7885 32.5152L41.51 38.6552L42.39 39.1244L37.319 48.6277C37.9186 48.3213 38.5378 48.041 39.1701 47.7868L39.1765 47.7802ZM35.4613 49.677L37.2929 44.4756L38.2315 44.8081L41.7903 34.7053C39.9847 36.1392 38.2901 37.7035 36.7193 39.3916L35.1876 43.7392L36.1262 44.0716L33.7276 50.8763C34.2881 50.4527 34.8617 50.0551 35.4548 49.6835L35.4613 49.677ZM30.8922 53.3987L31.7005 49.6184L32.6716 49.8269L34.3011 42.2139C32.5869 44.3909 31.0682 46.7309 29.7712 49.2012L30.4946 49.3577L29.0086 55.6149C29.5887 54.8393 30.2209 54.0962 30.8922 53.3987ZM27.5355 57.8179V52.8122C26.3231 56.0125 25.4628 59.9949 25 63.8992C25.5671 61.7353 26.4274 59.6951 27.5355 57.8179ZM25.0326 76.2182C25.5084 79.5489 26.3427 82.7622 27.5029 85.8191V82.1235C26.4339 80.2985 25.5931 78.317 25.0326 76.2182ZM29.165 84.5938L30.4621 90.6424L29.7386 90.7989C31.0356 93.2756 32.5543 95.6091 34.2685 97.7861L32.639 90.1731L31.6679 90.3817L30.8466 86.5557C30.2535 85.93 29.6864 85.2782 29.165 84.5872V84.5938ZM33.6819 89.0911L36.0936 95.9351L35.155 96.2675L36.6867 100.615C38.2575 102.303 39.9522 103.867 41.7577 105.301L38.1989 95.1985L37.2603 95.5309L35.4222 90.3036C34.8291 89.9254 34.249 89.5278 33.6884 89.1041L33.6819 89.0911ZM37.2798 91.3529L42.3639 100.882L41.484 101.351L44.7624 107.491C46.444 108.612 48.2039 109.623 50.0354 110.516L44.3323 99.8328L43.4523 100.302L39.131 92.2067C38.4987 91.9525 37.8795 91.6657 37.2733 91.3594L37.2798 91.3529ZM42.6311 93.3213L49.2729 103.607L48.4386 104.148L53.5356 112.041C55.1129 112.647 56.7295 113.169 58.385 113.599L51.1436 102.388L50.3092 102.929L44.3127 93.6472C43.7457 93.556 43.1786 93.4451 42.6246 93.3148L42.6311 93.3213ZM47.3761 93.947L55.7974 104.154L55.0282 104.786L63.0909 114.557C64.5835 114.778 66.1022 114.928 67.6405 115L57.5181 102.727L56.749 103.359L48.9731 93.934C48.6928 93.947 48.4059 93.947 48.1192 93.947C47.8715 93.947 47.6173 93.947 47.3697 93.934L47.3761 93.947ZM52.962 93.4647L63.2539 103.704L62.5565 104.408L73.1222 114.922C74.504 114.817 75.8662 114.655 77.2089 114.433L64.8247 102.114L64.1209 102.824L54.3765 93.1257C53.9137 93.2496 53.4379 93.3669 52.962 93.4647ZM57.7593 91.9329L70.541 102.42L69.9087 103.189L82.2408 113.305C83.4661 112.953 84.6785 112.549 85.8582 112.1L71.9489 100.693L71.3166 101.462L58.9847 91.3464C58.5806 91.5549 58.1699 91.7504 57.7528 91.9329H57.7593ZM61.3832 89.9384L76.518 99.5655L75.9835 100.406L90.8249 109.844C91.9004 109.277 92.9498 108.665 93.9665 108.019L77.7108 97.6818L77.1762 98.5227L62.4653 89.1694C62.1068 89.4365 61.7483 89.6973 61.3767 89.945L61.3832 89.9384ZM65.5547 86.3927L82.0778 95.003L81.6215 95.8894L98.5292 104.702C99.4156 103.965 100.276 103.203 101.104 102.401L83.1141 93.0215L82.6579 93.908L66.4086 85.4411C66.1348 85.7669 65.8545 86.0864 65.5613 86.3927H65.5547ZM68.1684 83.0556L86.7837 90.0884L86.4318 91.0204L105.06 98.0533C105.757 97.18 106.422 96.2805 107.061 95.3549L87.5725 87.9961L87.2204 88.9282L68.8268 81.98C68.6182 82.345 68.3965 82.7036 68.1684 83.0556ZM70.1174 79.4054L89.9515 84.3591L89.7103 85.3238L110.007 90.3947C110.509 89.4235 110.972 88.4263 111.402 87.416L90.4925 82.1951L90.2513 83.1598L70.5736 78.2452C70.4302 78.6364 70.2737 79.021 70.1174 79.4054ZM71.4078 75.4686L92.0893 78.0106L91.9655 79.0014L113.397 81.6411C113.677 80.5982 113.925 79.5423 114.133 78.4799L92.3631 75.801L92.2393 76.7918L71.6555 74.2562C71.5839 74.667 71.4992 75.071 71.4078 75.4751V75.4686Z"
      fill="white" />
  </g>
  <defs>
    <clipPath id="clip0_3031_1534">
      <rect width="140" height="140" fill="white" />
    </clipPath>
  </defs>
</svg>
  
