<svg width="40" height="40" viewBox="0 0 40 40" fill="none" xmlns="http://www.w3.org/2000/svg">
<path d="M0 20C0 8.95431 8.95431 0 20 0V0C31.0457 0 40 8.95431 40 20V20C40 31.0457 31.0457 40 20 40V40C8.95431 40 0 31.0457 0 20V20Z" fill="black"/>
<path d="M8.56665 21.5717C8.2357 18.9668 8.73745 16.3239 9.99998 14.0216C10.9861 12.2182 12.4256 10.7032 14.1765 9.62651C15.8982 8.56978 17.874 7.99894 19.8942 7.97453C21.9137 7.95463 23.9007 8.48251 25.6442 9.50199L28.2843 8.09904C26.2012 6.51428 23.7092 5.55686 21.101 5.33924C18.501 5.12914 15.8952 5.67054 13.5941 6.89904C11.2558 8.15209 9.31057 10.0288 7.97448 12.3206C6.4183 14.98 5.70807 18.0498 5.93822 21.1227C5.97687 21.6472 5.86532 22.1718 5.61665 22.6353C5.36862 23.0962 4.99607 23.4687 4.54508 23.709L5 26.6215L32.0235 11.6667L30 9.16668L8.56665 21.5717ZM33.3333 13.3333L10.3529 26.6215L5.61665 29.1667L6.66667 31.9L31.4402 18.4197C31.5058 18.945 31.5382 19.4735 31.5382 20.003C31.5393 22.095 31.0128 24.1533 30.0078 25.9883C29.0207 27.7938 27.579 29.3103 25.8253 30.3873C24.1012 31.4443 22.1225 32.0142 20.1 32.0362C18.0863 32.0558 16.1029 31.5257 14.3461 30.498L14.2049 30.5765L11.7147 31.9C13.7971 33.4847 16.2885 34.4425 18.896 34.6607C21.4962 34.8712 24.1017 34.3302 26.403 33.102C28.7412 31.8502 30.6865 29.9748 32.0235 27.6843C33.5823 25.0222 34.2933 21.9487 34.0618 18.8725C34.0233 18.3485 34.135 17.8242 34.3832 17.3608C34.6263 16.9052 34.999 16.5317 35.4538 16.2873L35 15.8333L33.3333 13.3333Z" fill="white"/>
<path d="M8.56665 21.5717C8.2357 18.9668 8.73745 16.3239 9.99998 14.0216C10.9861 12.2182 12.4256 10.7032 14.1765 9.62651C15.8982 8.56978 17.874 7.99894 19.8942 7.97453C21.9137 7.95463 23.9007 8.48251 25.6442 9.50199L28.2843 8.09904C26.2012 6.51428 23.7092 5.55686 21.101 5.33924C18.501 5.12914 15.8952 5.67054 13.5941 6.89904C11.2558 8.15209 9.31057 10.0288 7.97448 12.3206C6.4183 14.98 5.70807 18.0498 5.93822 21.1227C5.97687 21.6472 5.86532 22.1718 5.61665 22.6353C5.36862 23.0962 4.99607 23.4687 4.54508 23.709L5 26.6215L32.0235 11.6667L30 9.16668L8.56665 21.5717ZM33.3333 13.3333L10.3529 26.6215L5.61665 29.1667L6.66667 31.9L31.4402 18.4197C31.5058 18.945 31.5382 19.4735 31.5382 20.003C31.5393 22.095 31.0128 24.1533 30.0078 25.9883C29.0207 27.7938 27.579 29.3103 25.8253 30.3873C24.1012 31.4443 22.1225 32.0142 20.1 32.0362C18.0863 32.0558 16.1029 31.5257 14.3461 30.498L14.2049 30.5765L11.7147 31.9C13.7971 33.4847 16.2885 34.4425 18.896 34.6607C21.4962 34.8712 24.1017 34.3302 26.403 33.102C28.7412 31.8502 30.6865 29.9748 32.0235 27.6843C33.5823 25.0222 34.2933 21.9487 34.0618 18.8725C34.0233 18.3485 34.135 17.8242 34.3832 17.3608C34.6263 16.9052 34.999 16.5317 35.4538 16.2873L35 15.8333L33.3333 13.3333Z" fill="white"/>
<path d="M8.56665 21.5717C8.2357 18.9668 8.73745 16.3239 9.99998 14.0216C10.9861 12.2182 12.4256 10.7032 14.1765 9.62651C15.8982 8.56978 17.874 7.99894 19.8942 7.97453C21.9137 7.95463 23.9007 8.48251 25.6442 9.50199L28.2843 8.09904C26.2012 6.51428 23.7092 5.55686 21.101 5.33924C18.501 5.12914 15.8952 5.67054 13.5941 6.89904C11.2558 8.15209 9.31057 10.0288 7.97448 12.3206C6.4183 14.98 5.70807 18.0498 5.93822 21.1227C5.97687 21.6472 5.86532 22.1718 5.61665 22.6353C5.36862 23.0962 4.99607 23.4687 4.54508 23.709L5 26.6215L32.0235 11.6667L30 9.16668L8.56665 21.5717ZM33.3333 13.3333L10.3529 26.6215L5.61665 29.1667L6.66667 31.9L31.4402 18.4197C31.5058 18.945 31.5382 19.4735 31.5382 20.003C31.5393 22.095 31.0128 24.1533 30.0078 25.9883C29.0207 27.7938 27.579 29.3103 25.8253 30.3873C24.1012 31.4443 22.1225 32.0142 20.1 32.0362C18.0863 32.0558 16.1029 31.5257 14.3461 30.498L14.2049 30.5765L11.7147 31.9C13.7971 33.4847 16.2885 34.4425 18.896 34.6607C21.4962 34.8712 24.1017 34.3302 26.403 33.102C28.7412 31.8502 30.6865 29.9748 32.0235 27.6843C33.5823 25.0222 34.2933 21.9487 34.0618 18.8725C34.0233 18.3485 34.135 17.8242 34.3832 17.3608C34.6263 16.9052 34.999 16.5317 35.4538 16.2873L35 15.8333L33.3333 13.3333Z" fill="white"/>
</svg>
