<svg xmlns="http://www.w3.org/2000/svg" width="28" height="28" fill="none" viewBox="0 0 28 28">
  <path fill="#646A8F" d="M19.32 8.82c0 1.6-.71 3.035-1.37 4.03-.308.463-.615.845-.857 1.126.231.246.515.578.797.994.654.965 1.32 2.394 1.32 4.21h-1.4c0-1.462-.534-2.621-1.079-3.424a6.614 6.614 0 0 0-.745-.914 4.815 4.815 0 0 0-.296-.279l-.013-.01-.633-.5.586-.557.018-.018.069-.07a9.826 9.826 0 0 0 1.065-1.332c.594-.895 1.138-2.053 1.138-3.256h1.4Z"/>
  <path fill="#A0A3C4" fill-rule="evenodd" d="m12.587 14.865.423-.383.155-.14.333-.3.046-.042c1.437-1.314 2.926-2.875 2.926-5.192h-1.298c0 .467-.08.895-.223 1.298h-4.747a3.816 3.816 0 0 1-.223-1.298H8.681c0 2.317 1.49 3.878 2.926 5.192-1.437 1.314-2.926 2.875-2.926 5.192H9.98c0-.467.08-.895.223-1.298h4.747c.143.403.223.831.223 1.298h1.298c0-1.81-.908-3.158-1.99-4.287-.14.128-.277.25-.409.368l-.193.174-.364.33c.26.27.5.541.71.82h-3.297c.444-.587 1.015-1.142 1.648-1.721l.012-.01Zm-1.66-3.461h3.297c-.444.586-1.015 1.141-1.649 1.72-.633-.579-1.204-1.134-1.648-1.72Z" clip-rule="evenodd"/>
</svg>
