<svg xmlns="http://www.w3.org/2000/svg" width="28" height="28" fill="none" viewBox="0 0 28 28">
  <path stroke="#646A8F" stroke-width="1.4" d="M14 15.038v3.043m0-3.043-2.654-1.532M14 15.038l2.653-1.532"/>
  <path fill="#A0A3C4" fill-rule="evenodd" d="m8.021 15.808 2.3-1.314 2.3 1.314v2.629l-2.3 1.314-2.3-1.314v-2.629Zm.669 0-.337.193v.372l1.64.94v1.849l.328.188.329-.188v-1.849l1.62-.94v-.372l-.336-.193-1.613.936-1.631-.936Zm3.01-6.246L14 8.248l2.3 1.314v2.629L14 13.505l-2.3-1.314V9.562Zm.668 0-.336.192v.373l1.64.94v1.849l.328.188.328-.188v-1.849l1.621-.94v-.373l-.336-.192-1.613.936-1.632-.936Zm3.011 6.246 2.3-1.314 2.3 1.314v2.629l-2.3 1.314-2.3-1.314v-2.629Zm.668 0-.336.193v.372l1.64.94v1.849l.328.188.329-.188v-1.849l1.62-.94v-.372l-.336-.193-1.613.936-1.631-.936Z" clip-rule="evenodd"/>
</svg>
