<svg preserveAspectRatio="none" overflow="visible" style="display: block;" width="52.7021" height="14.6042" viewBox="0 0 52.7021 14.6042" fill="none" xmlns="http://www.w3.org/2000/svg">
<g id="logo / sign-type" clip-path="url(#clip0_1046_2732)">
<path id="Vector" d="M18.665 14.0195L9.89474 9.10855e-05L1.09764 14.0195H13.354L9.89474 8.66895L8.17878 11.449H6.35507L9.8959 5.85944L15.0147 14.0201L18.665 14.0195Z" fill="url(#paint0_linear_1046_2732)"/>
<path id="Vector_2" d="M26.8894 7.02913C26.784 7.02913 26.7389 7.07692 26.7389 7.18845V8.14436C26.7389 8.25588 26.784 8.30368 26.8894 8.30368H29.8859V9.97918C29.5595 10.5087 29.1056 10.9366 28.571 11.2189C28.0364 11.5013 27.4404 11.6278 26.8443 11.5856C24.6007 11.5856 23.2153 10.0588 23.2153 7.12472C23.2153 4.20919 24.8416 2.6638 26.6937 2.6638C28.1367 2.6638 29.3137 3.26921 29.6902 4.73494C29.6965 4.78037 29.7184 4.82174 29.7517 4.85114C29.7851 4.88054 29.8275 4.89589 29.8709 4.89426H30.8321C30.9375 4.89426 30.9977 4.84646 30.9977 4.73494C30.5911 2.50448 28.7842 1.38925 26.6912 1.38925C24.3422 1.38925 21.8878 3.30107 21.8878 7.12472C21.8878 10.9006 24.2092 12.8602 26.902 12.8602C27.7141 12.8863 28.5186 12.6886 29.2367 12.2864C29.9547 11.8842 30.5616 11.2913 30.9977 10.566C31.1055 10.3853 31.158 10.174 31.1483 9.96059V7.1911C31.1483 7.07958 31.1031 7.03178 30.9977 7.03178L26.8894 7.02913ZM42.5194 1.70789C42.5194 1.59636 42.4742 1.54857 42.3688 1.54857H40.9383C40.8872 1.54314 40.8357 1.55584 40.7921 1.58468C40.7485 1.61351 40.7152 1.65685 40.6974 1.70789L37.7762 8.79756L34.855 1.70789C34.8372 1.65685 34.8039 1.61351 34.7603 1.58468C34.7167 1.55584 34.6652 1.54314 34.6141 1.54857H33.1836C33.0782 1.54857 33.033 1.59636 33.033 1.70789V12.5416C33.033 12.6531 33.0782 12.7009 33.1836 12.7009H34.1473C34.2527 12.7009 34.2979 12.6531 34.2979 12.5416V3.63564L37.2467 10.6935C37.2615 10.7357 37.2882 10.7721 37.3232 10.7978C37.3582 10.8234 37.3998 10.8371 37.4424 10.8368H38.11C38.1526 10.8371 38.1942 10.8234 38.2292 10.7978C38.2642 10.7721 38.2909 10.7357 38.3057 10.6935L41.2545 3.63564V12.5416C41.2545 12.6531 41.2997 12.7009 41.4051 12.7009H42.3688C42.4742 12.7009 42.5194 12.6531 42.5194 12.5416V1.70789ZM45.802 1.70789C45.6966 1.5645 45.6966 1.54857 45.5912 1.54857H44.4317C44.3263 1.54857 44.2812 1.62823 44.3263 1.70789L47.5186 6.81936L43.9348 12.5416C43.8896 12.6212 43.9348 12.7009 44.0402 12.7009H45.1696C45.275 12.7009 45.3051 12.6849 45.4105 12.5416L48.274 7.98769L51.1324 12.5416C51.2378 12.6849 51.268 12.7009 51.3734 12.7009H52.5027C52.6081 12.7009 52.6533 12.6212 52.6081 12.5416L49.0269 6.82201L52.2191 1.71054C52.2643 1.63088 52.2191 1.55122 52.1137 1.55122H50.9517C50.8463 1.55122 50.8463 1.56715 50.7409 1.71054L48.274 5.64306L45.802 1.70789Z" fill="white"/>
</g>
<defs>
<linearGradient id="paint0_linear_1046_2732" x1="10.5138" y1="0.364612" x2="4.11663" y2="15.2357" gradientUnits="userSpaceOnUse">
<stop stop-color="#03D1CF" stop-opacity="0.988"/>
<stop offset="1" stop-color="#4E09F8"/>
</linearGradient>
<clipPath id="clip0_1046_2732">
<rect width="52.7021" height="14.6042" fill="white"/>
</clipPath>
</defs>
</svg>
