<svg xmlns="http://www.w3.org/2000/svg" fill="none" viewBox="0 0 20 20"><path fill="currentColor" d="M16.238 4.16A14.63 14.63 0 0 0 12.574 3a.055.055 0 0 0-.059.03c-.158.287-.334.661-.456.956a13.433 13.433 0 0 0-4.115 0 9.76 9.76 0 0 0-.464-.957.057.057 0 0 0-.058-.028 14.587 14.587 0 0 0-3.664 1.16.053.053 0 0 0-.024.02C1.4 7.74.76 11.21 1.074 14.637c.002.017.011.033.024.043a14.81 14.81 0 0 0 4.494 2.318.058.058 0 0 0 .064-.02c.346-.483.654-.992.92-1.527a.059.059 0 0 0-.032-.08c-.49-.19-.956-.421-1.404-.684a.06.06 0 0 1-.006-.097c.094-.072.189-.148.279-.223a.055.055 0 0 1 .058-.008c2.946 1.372 6.135 1.372 9.046 0a.055.055 0 0 1 .06.007c.09.076.184.152.279.224a.06.06 0 0 1-.005.097 9.145 9.145 0 0 1-1.405.682.06.06 0 0 0-.03.082c.27.534.578 1.043.918 1.526.014.02.04.029.063.021A14.76 14.76 0 0 0 18.9 14.68a.06.06 0 0 0 .023-.042c.376-3.962-.628-7.404-2.66-10.455a.046.046 0 0 0-.024-.021Zm-9.223 8.39c-.887 0-1.618-.832-1.618-1.852s.717-1.851 1.618-1.851c.908 0 1.632.838 1.618 1.851 0 1.02-.717 1.851-1.618 1.851Zm5.981 0c-.887 0-1.618-.832-1.618-1.852s.717-1.851 1.618-1.851c.908 0 1.632.838 1.618 1.851 0 1.02-.71 1.851-1.618 1.851Z"/></svg>
