<svg xmlns="http://www.w3.org/2000/svg" fill="none" viewBox="0 0 20 20"><path fill="currentColor" fill-rule="evenodd" d="M18 10a8 8 0 1 1-16 0 8 8 0 0 1 16 0Zm-7.713-2.094c-.778.324-2.334.993-4.666 2.01-.378.15-.577.297-.595.441-.03.244.274.34.69.47l.175.056c.408.133.958.288 1.243.294.26.006.548-.1.868-.32 2.179-1.471 3.304-2.214 3.374-2.23.05-.012.12-.026.166.016.047.041.042.12.037.141-.03.129-1.227 1.241-1.846 1.817-.193.18-.33.307-.358.336-.063.065-.127.127-.188.186-.38.366-.664.64.015 1.088.327.216.589.393.85.571.284.194.568.387.936.628.093.062.183.126.27.188.331.236.63.448.997.414.214-.02.435-.22.547-.82.265-1.417.786-4.486.906-5.751.01-.111-.003-.253-.013-.315a.337.337 0 0 0-.114-.217.526.526 0 0 0-.31-.093c-.301.005-.763.166-2.984 1.09Z" clip-rule="evenodd"/></svg>
