<svg xmlns="http://www.w3.org/2000/svg" width="28" height="28" fill="none" viewBox="0 0 28 28">
  <path stroke="#7885FF" stroke-width="1.4" d="M14 15.037v3.043m0-3.043-2.654-1.532M14 15.037l2.653-1.532" opacity=".5"/>
  <path fill="#7885FF" d="M16.3 12.19V9.562L14 8.248l-2.3 1.314v2.628l2.3 1.315 2.3-1.315Zm-2.629.725v-1.849l-1.64-.939v-.373l.338-.192 1.63.936 1.614-.936.337.192v.373l-1.621.94v1.848l-.33.189-.328-.189Zm-1.05 5.521v-2.628l-2.3-1.314-2.3 1.314v2.628l2.3 1.315 2.3-1.315Zm7.358 0v-2.628l-2.3-1.314-2.3 1.314v2.628l2.3 1.315 2.3-1.315Zm-9.986.725v-1.849l-1.64-.939V16l.337-.192 1.63.936 1.614-.936.336.192v.373l-1.62.94v1.848l-.33.189-.327-.189Zm7.357 0v-1.849l-1.639-.939V16l.336-.192 1.632.936 1.614-.936.335.192v.373l-1.62.94v1.848l-.329.189-.329-.189Z"/>
</svg>
