<svg xmlns="http://www.w3.org/2000/svg" width="28" height="28" fill="none" viewBox="0 0 28 28">
  <g clip-path="url(#a)">
    <g opacity=".5">
      <path stroke="#7885FF" stroke-miterlimit="1" stroke-width="1.4" d="M19.31 9.42v7.007l-.206.246-.276.316c-1.27 1.404-2.907 2.506-4.771 3.207l-.182-.065c-1.862-.708-3.5-1.816-4.771-3.222l-.267-.305-.148-.176V9.42L14 7.653l5.312 1.767Zm-.62.04-4.467-1.5h-.446L9.31 9.46l-.477.664v6.085l.165.451c1.263 1.497 2.915 2.668 4.796 3.416l.525-.003c1.812-.744 3.404-1.888 4.624-3.34h.001l.062-.074.163-.449v-6.086l-.478-.664Z" shape-rendering="crispEdges"/>
    </g>
    <path fill="#7885FF" d="m15.792 12.52.002-.022h1.304a3.08 3.08 0 0 1-.422 1.554l1.129 1.955-.947.966-1.11-1.92a3.088 3.088 0 0 1-3.499 0l-1.106 1.92-.948-.966 1.128-1.955a3.08 3.08 0 0 1-.42-1.554h1.304l.001.022 1.228-2.125h1.129l1.227 2.125Zm-2.886 1.396a1.784 1.784 0 0 0 2.187.001L14 12.023l-1.094 1.893Z"/>
  </g>
  <defs>
    <clipPath id="a">
      <path fill="#fff" d="M0 0h28v28H0z"/>
    </clipPath>
  </defs>
</svg>
