<svg xmlns="http://www.w3.org/2000/svg" width="28" height="28" fill="none" viewBox="0 0 28 28">
  <path fill="#7885FF" d="M20.01 11.248v5.767l-.378.45-.276.316c-1.404 1.556-3.227 2.76-5.296 3.493l-.423-.153c-1.965-.745-3.7-1.916-5.052-3.41l-.284-.325-.312-.371v-5.767l6.01-2 6.011 2ZM9.532 16.541c1.184 1.405 2.74 2.51 4.52 3.217 1.712-.704 3.21-1.782 4.354-3.143l.062-.073v-4.086L14 10.956l-4.468 1.5v4.085Z" opacity=".5"/>
  <path fill="#7885FF" d="m14 6.725-6.01 2v1.702L14 8.433l6.01 1.975V8.725l-6.01-2Z"/>
  <path fill="#7885FF" d="M12.278 13.427h-.861v1.291l1.291 1.291-.43 1.722 1.722.861 1.722-.86-.431-1.723 1.291-1.29v-1.292h-4.304Z"/>
</svg>
