<svg width="256" height="256" fill="none" xmlns="http://www.w3.org/2000/svg"><path fill="#1E1E1E" d="M0 0h256v256H0z"/><path d="m73.1833 128.028-22.5632 22.564L28 128.028l22.5632-22.563 22.6201 22.563Zm54.8447-54.8447 38.705 38.7037 22.563-22.5628L128.028 28 66.7042 89.3242l22.5632 22.5628 38.7606-38.7037Zm77.409 32.2817-22.563 22.563 22.563 22.564L228 128.028l-22.563-22.563Zm-77.409 77.409-38.7038-38.705-22.5632 22.564 61.267 61.324 61.268-61.324-22.563-22.564-38.705 38.705Zm0-32.282 22.564-22.564-22.564-22.563-22.62 22.563 22.62 22.564Z" fill="#F0B90B"/></svg>