<svg width="150" height="150" fill="none" xmlns="http://www.w3.org/2000/svg"><g clip-path="url(#a)"><rect width="150" height="150" rx="12" fill="#54FFF5"/><g filter="url(#b)"><path d="M7.89878 116.371C-17.1841 186.94 116.989 167.008 187.211 148.222c71.87-23.851 22.195-128.987-29.351-131.3138-51.546-2.3269 6.391 48.6144-37.394 63.1639C76.6806 94.6217 39.2524 28.1597 7.89878 116.371Z" fill="#fff"/></g><g filter="url(#c)"><path d="M50.1046-26.8481C36.947-62.7975-9.91346-14.0587-31.699 14.8044-52.4796 46.2011 1.76327 73.3322 23.0395 58.6167 44.3158 43.9011 4.55533 41.038 17.2094 21.9026c12.6541-19.13545 49.3422-3.8139 32.8952-48.7507Z" fill="#00FFF0" fill-opacity=".67"/></g><g filter="url(#d)"><path d="M56.531 132.084c-17.9469-60.3869-95.2508-28.586-131.6594-5.137-35.0216 27.765 48.1336 107.632 82.67087 103.546 34.53723-4.085-27.70567-38.853-6.37821-55.784 21.32744-16.93 77.80034 32.859 55.36674-42.625Z" fill="#9D81FF"/></g><g filter="url(#e)"><path d="M165.305-62.9014C126.59-109.002 71.1694-70.8801 48.2985-46.0567 28.2854-17.9551 131.411 33.5347 160.032 24.7106c28.621-8.8242-39.029-27.08308-26.85-44.2145 12.179-17.1314 80.516 14.22793 32.123-43.3975Z" fill="#4D94FF"/></g><path fill-rule="evenodd" clip-rule="evenodd" d="M54.603 89.5523h25.4792L51.0989 60.3815l29.356-29.1708 7.9955-7.7732H62.0036L28.3219 57.2914c-1.6998 1.7063-1.6911 4.4673.0174 6.1649l26.2637 26.096ZM69.92 60.4494h-.1961l.1939-.0021.0022.0021Zm0 0L98.9012 89.618l-29.356 29.171-7.9955 7.773h26.4467l33.6816-33.8517c1.7-1.7063 1.691-4.4673-.017-6.1649l-26.264-26.096H69.92Z" fill="#000"/></g><defs><filter id="b" x="-52.8757" y="-40.8622" width="333.726" height="264.512" filterUnits="userSpaceOnUse" color-interpolation-filters="sRGB"><feFlood flood-opacity="0" result="BackgroundImageFix"/><feBlend in="SourceGraphic" in2="BackgroundImageFix" result="shape"/><feGaussianBlur stdDeviation="28.8462" result="effect1_foregroundBlur_1899_135"/></filter><filter id="c" x="-94.0493" y="-97.2568" width="206.014" height="217.68" filterUnits="userSpaceOnUse" color-interpolation-filters="sRGB"><feFlood flood-opacity="0" result="BackgroundImageFix"/><feBlend in="SourceGraphic" in2="BackgroundImageFix" result="shape"/><feGaussianBlur stdDeviation="28.8462" result="effect1_foregroundBlur_1899_135"/></filter><filter id="d" x="-141.256" y="39.6339" width="260.655" height="248.703" filterUnits="userSpaceOnUse" color-interpolation-filters="sRGB"><feFlood flood-opacity="0" result="BackgroundImageFix"/><feBlend in="SourceGraphic" in2="BackgroundImageFix" result="shape"/><feGaussianBlur stdDeviation="28.8462" result="effect1_foregroundBlur_1899_135"/></filter><filter id="e" x="-11.9513" y="-142.241" width="252.065" height="225.648" filterUnits="userSpaceOnUse" color-interpolation-filters="sRGB"><feFlood flood-opacity="0" result="BackgroundImageFix"/><feBlend in="SourceGraphic" in2="BackgroundImageFix" result="shape"/><feGaussianBlur stdDeviation="28.8462" result="effect1_foregroundBlur_1899_135"/></filter><clipPath id="a"><rect width="150" height="150" rx="12" fill="#fff"/></clipPath></defs></svg>