<svg id="binance" viewBox="0 0 24 24" fill="none" xmlns="http://www.w3.org/2000/svg">
    <path d="M5.01287 10.233L7.02574 12.2451L5.01287 14.2572L3 12.2451L5.01287 10.233Z" fill="#F0B90B"/>
    <path d="M12 10.233L14.0129 12.2451L12 14.2572L9.98713 12.2451L12 10.233Z" fill="#F0B90B"/>
    <path d="M18.9871 10.233L21 12.2451L18.9871 14.2572L16.9743 12.2451L18.9871 10.233Z" fill="#F0B90B"/>
    <path d="M12.0191 3.23828L17.529 8.74605L15.5161 10.7581L10.0063 5.25038L12.0191 3.23828Z" fill="#F0B90B"/>
    <path d="M12.026 3.23828L6.51612 8.74605L8.52899 10.7581L14.0389 5.25038L12.026 3.23828Z" fill="#F0B90B"/>
    <path d="M12.0191 21.2383L17.529 15.7305L15.5161 13.7184L10.0063 19.2262L12.0191 21.2383Z" fill="#F0B90B"/>
    <path d="M12.026 21.2383L6.51612 15.7305L8.52899 13.7184L14.0389 19.2262L12.026 21.2383Z" fill="#F0B90B"/>
</svg>
