<svg width="403" height="100" viewBox="0 0 403 100" fill="none" xmlns="http://www.w3.org/2000/svg">
<path d="M138.758 48.2707H161.278V56.984H138.758V48.2707ZM139.562 74.0754H128.704V27.1577H164.16V35.871H139.562V74.0754ZM170.774 74.0754V38.0158H181.23V74.0754H170.774ZM176.002 32.9889C174.08 32.9889 172.516 32.4304 171.31 31.3133C170.103 30.1962 169.5 28.811 169.5 27.1577C169.5 25.5045 170.103 24.1193 171.31 23.0022C172.516 21.8851 174.08 21.3265 176.002 21.3265C177.923 21.3265 179.487 21.8627 180.693 22.9352C181.9 23.9629 182.503 25.3034 182.503 26.9567C182.503 28.6993 181.9 30.1515 180.693 31.3133C179.532 32.4304 177.968 32.9889 176.002 32.9889ZM212.851 37.4796C215.711 37.4796 218.258 38.0605 220.492 39.2223C222.771 40.3394 224.558 42.082 225.854 44.4503C227.15 46.7738 227.797 49.7676 227.797 53.4317V74.0754H217.342V55.0403C217.342 52.1358 216.694 49.991 215.398 48.6058C214.147 47.2206 212.359 46.5281 210.036 46.5281C208.382 46.5281 206.886 46.8855 205.545 47.6005C204.249 48.2707 203.222 49.3208 202.462 50.7506C201.747 52.1805 201.389 54.0125 201.389 56.2467V74.0754H190.934V38.0158H200.92V48.0026L199.044 44.9865C200.339 42.5736 202.194 40.7192 204.607 39.4234C207.02 38.1275 209.768 37.4796 212.851 37.4796ZM259.394 74.0754V67.0378L258.723 65.4962V52.8955C258.723 50.6613 258.031 48.9186 256.646 47.6675C255.305 46.4163 253.227 45.7908 250.412 45.7908C248.491 45.7908 246.592 46.1036 244.715 46.7291C242.883 47.31 241.319 48.1143 240.023 49.142L236.27 41.8363C238.236 40.4511 240.604 39.3787 243.375 38.6191C246.145 37.8594 248.96 37.4796 251.82 37.4796C257.316 37.4796 261.583 38.7755 264.622 41.3671C267.66 43.9587 269.179 48.0026 269.179 53.4987V74.0754H259.394ZM248.401 74.6116C245.586 74.6116 243.173 74.1425 241.163 73.2041C239.152 72.2211 237.61 70.9029 236.538 69.2496C235.466 67.5963 234.929 65.742 234.929 63.6865C234.929 61.5417 235.443 59.665 236.471 58.0564C237.543 56.4478 239.219 55.1967 241.498 54.303C243.777 53.3646 246.748 52.8955 250.412 52.8955H259.997V58.9948H251.552C249.094 58.9948 247.396 59.3969 246.458 60.2012C245.564 61.0055 245.117 62.0109 245.117 63.2173C245.117 64.5579 245.631 65.6303 246.659 66.4346C247.731 67.1942 249.183 67.574 251.015 67.574C252.758 67.574 254.322 67.1718 255.707 66.3675C257.092 65.5185 258.098 64.2897 258.723 62.6811L260.332 67.507C259.572 69.8305 258.187 71.5955 256.176 72.802C254.166 74.0084 251.574 74.6116 248.401 74.6116ZM300.56 37.4796C303.419 37.4796 305.966 38.0605 308.201 39.2223C310.479 40.3394 312.267 42.082 313.563 44.4503C314.858 46.7738 315.506 49.7676 315.506 53.4317V74.0754H305.05V55.0403C305.05 52.1358 304.402 49.991 303.107 48.6058C301.855 47.2206 300.068 46.5281 297.745 46.5281C296.091 46.5281 294.594 46.8855 293.254 47.6005C291.958 48.2707 290.93 49.3208 290.171 50.7506C289.456 52.1805 289.098 54.0125 289.098 56.2467V74.0754H278.642V38.0158H288.629V48.0026L286.752 44.9865C288.048 42.5736 289.903 40.7192 292.316 39.4234C294.728 38.1275 297.477 37.4796 300.56 37.4796ZM342.672 74.6116C338.785 74.6116 335.322 73.8297 332.284 72.2658C329.245 70.6572 326.855 68.4453 325.112 65.6303C323.414 62.8152 322.565 59.6203 322.565 56.0456C322.565 52.4263 323.414 49.2314 325.112 46.461C326.855 43.646 329.245 41.4565 332.284 39.8925C335.322 38.2839 338.785 37.4796 342.672 37.4796C346.471 37.4796 349.777 38.2839 352.592 39.8925C355.407 41.4565 357.485 43.713 358.826 46.6621L350.716 51.0187C349.777 49.3208 348.593 48.0696 347.163 47.2653C345.778 46.461 344.259 46.0589 342.605 46.0589C340.818 46.0589 339.21 46.461 337.78 47.2653C336.35 48.0696 335.21 49.2091 334.361 50.6836C333.557 52.1582 333.155 53.9455 333.155 56.0456C333.155 58.1458 333.557 59.9331 334.361 61.4077C335.21 62.8822 336.35 64.0216 337.78 64.826C339.21 65.6303 340.818 66.0324 342.605 66.0324C344.259 66.0324 345.778 65.6526 347.163 64.893C348.593 64.0887 349.777 62.8152 350.716 61.0725L358.826 65.4962C357.485 68.4006 355.407 70.6572 352.592 72.2658C349.777 73.8297 346.471 74.6116 342.672 74.6116ZM382.283 74.6116C378.172 74.6116 374.553 73.8073 371.425 72.1987C368.342 70.5901 365.952 68.4006 364.254 65.6303C362.556 62.8152 361.707 59.6203 361.707 56.0456C361.707 52.4263 362.533 49.2314 364.187 46.461C365.885 43.646 368.186 41.4565 371.09 39.8925C373.995 38.2839 377.279 37.4796 380.943 37.4796C384.473 37.4796 387.645 38.2393 390.46 39.7585C393.32 41.2331 395.577 43.3779 397.23 46.1929C398.883 48.9633 399.71 52.2922 399.71 56.1797C399.71 56.5818 399.688 57.051 399.643 57.5872C399.598 58.0787 399.554 58.5479 399.509 58.9948H370.219V52.8955H394.013L389.991 54.7051C389.991 52.8284 389.611 51.1975 388.852 49.8123C388.092 48.4271 387.042 47.3547 385.702 46.5951C384.361 45.7908 382.797 45.3886 381.01 45.3886C379.223 45.3886 377.636 45.7908 376.251 46.5951C374.911 47.3547 373.861 48.4494 373.101 49.8793C372.341 51.2645 371.961 52.9178 371.961 54.8392V56.4478C371.961 58.4139 372.386 60.1565 373.235 61.6758C374.129 63.1503 375.357 64.2897 376.921 65.0941C378.53 65.8537 380.407 66.2335 382.551 66.2335C384.473 66.2335 386.149 65.943 387.578 65.3622C389.053 64.7813 390.393 63.9099 391.6 62.7482L397.163 68.7804C395.51 70.6572 393.432 72.1094 390.93 73.1371C388.427 74.1201 385.545 74.6116 382.283 74.6116Z" fill="#FE7028"/>
<mask id="mask0_1785_5408" style="mask-type:alpha" maskUnits="userSpaceOnUse" x="0" y="0" width="100" height="100">
<rect width="100.001" height="100" rx="22.9517" fill="url(#paint0_linear_1785_5408)"/>
</mask>
<g mask="url(#mask0_1785_5408)">
<rect x="-4.21094" width="105.986" height="100" fill="url(#paint1_linear_1785_5408)"/>
<rect x="-1.19531" y="-1.4234" width="102.581" height="102.813" fill="#FF7028"/>
</g>
<mask id="mask1_1785_5408" style="mask-type:alpha" maskUnits="userSpaceOnUse" x="14" y="12" width="65" height="73">
<path d="M60.7709 25.5274H54.9661C54.6417 29.4889 53.4426 33.3423 51.4451 36.8013C49.0818 40.8964 45.6801 44.2965 41.585 46.6613C37.4898 49.0262 32.8444 50.2698 28.1147 50.2698C23.3866 50.2698 18.7413 49.0262 14.6445 46.6613L19.6255 38.0338C22.2066 39.5239 25.1344 40.3096 28.1147 40.3096C31.095 40.3096 34.0229 39.5239 36.604 38.0338C39.1851 36.5436 41.3289 34.4015 42.8191 31.8204C43.9402 29.877 44.6623 27.738 44.9501 25.5274H39.3346L50.0519 12.8302L60.7709 25.5274Z" fill="#13B569"/>
<path fill-rule="evenodd" clip-rule="evenodd" d="M40.0787 32.8104V27.2133H30.1009V38.0975C32.085 37.8648 34.0134 37.2521 35.778 36.2851C37.4137 35.3887 38.8684 34.21 40.0787 32.8104ZM40.0744 49.365C36.9186 50.7557 33.5418 51.5769 30.1011 51.791C30.101 52.0081 30.1009 52.2251 30.1009 52.4423C30.1001 53.0346 30.099 53.627 30.0979 54.2194C30.0903 58.3665 30.0826 62.5144 30.1773 66.6599C30.287 71.6026 33.5281 75.6818 38.2212 77.2817C40.7097 78.1302 43.2429 78.0874 45.7968 78.0443C46.091 78.0393 46.3855 78.0344 46.6803 78.0307C48.5855 80.5307 51.1269 82.4805 54.042 83.6732C57.1193 84.9328 60.4908 85.2986 63.7669 84.7292C67.043 84.1615 70.0933 82.6809 72.5663 80.4576C75.0393 78.2343 76.8348 75.359 77.7476 72.1624C78.6621 68.9643 78.6557 65.5737 77.7301 62.3803C76.8045 59.1869 74.9963 56.3179 72.5154 54.1042C71.6073 53.2931 70.6197 52.5822 69.5748 51.9811L73.3042 48.2518V38.2645H52.9775C52.9539 38.3017 52.9302 38.3389 52.9064 38.3761V48.2518H60.0089L52.0174 56.2432L58.6651 62.8908L62.8795 58.6764C64.279 59.0231 65.5767 59.7053 66.6581 60.6707C67.9066 61.7823 68.8147 63.2247 69.279 64.8294C69.745 66.434 69.7482 68.1389 69.2886 69.7451C68.8306 71.3513 67.9272 72.797 66.6836 73.915C65.4415 75.0314 63.9084 75.7756 62.2624 76.0619C60.6148 76.3482 58.9211 76.1637 57.3753 75.5307C55.8279 74.8978 54.4904 73.8418 53.5171 72.4837C52.5438 71.1239 51.9729 69.5193 51.8695 67.851L48.3008 68.0721C48.1979 68.0732 48.0955 68.0743 47.9935 68.0755C47.0497 68.086 46.1399 68.0962 45.2314 68.0546C42.135 67.9099 40.47 66.3132 40.1408 63.2232C40.0771 62.6204 40.0756 62.0081 40.0756 61.399C40.074 60.8189 40.074 60.2388 40.074 59.6603V59.6592C40.0724 58.0873 40.0724 56.5154 40.0724 54.9451V54.9423V54.9384C40.0724 53.0803 40.0724 51.2222 40.0744 49.365Z" fill="#13B569"/>
</mask>
<g mask="url(#mask1_1785_5408)">
<rect x="14.6445" y="12.8302" width="65.0998" height="72.4521" fill="white"/>
</g>
<defs>
<linearGradient id="paint0_linear_1785_5408" x1="56.4704" y1="10.0866" x2="92.5399" y2="112.43" gradientUnits="userSpaceOnUse">
<stop stop-color="#0EB5FD"/>
<stop offset="1" stop-color="#2346FF"/>
</linearGradient>
<linearGradient id="paint1_linear_1785_5408" x1="69.0223" y1="6.2375e-07" x2="54.3575" y2="100.811" gradientUnits="userSpaceOnUse">
<stop stop-color="#A1FE9F"/>
<stop offset="0.210844" stop-color="#01F8A1"/>
<stop offset="0.542909" stop-color="#6FAAFC"/>
<stop offset="0.914268" stop-color="#5052FF"/>
</linearGradient>
</defs>
</svg>
