<svg width="28" height="28" fill="none" xmlns="http://www.w3.org/2000/svg"><mask id="a" style="mask-type:luminance" maskUnits="userSpaceOnUse" x="0" y="0" width="28" height="28"><path d="M28 0H0v28h28V0Z" fill="#fff"/></mask><g mask="url(#a)"><path d="M28 0H0v28h28V0Z" fill="#54FFF5"/><g filter="url(#b)"><path d="M1.47445 21.7222C-3.20769 34.8951 21.838 31.1746 34.9461 27.6677c13.4156-4.4521 4.143-24.07747-5.4789-24.51181-9.6219-.43434 1.1931 9.07471-6.9802 11.79061-8.1733 2.7159-15.15986-9.69033-21.01255 6.7757Z" fill="#fff"/></g><g filter="url(#c)"><path d="M9.35288-5.01189C6.89675-11.7224-1.8505-2.62454-5.91713 2.76322-9.79617 8.62394.32915 13.6884 4.30072 10.9415 8.2723 8.19465.85033 7.66018 3.21244 4.08822 5.57452.51628 12.423 3.3763 9.35288-5.01189Z" fill="#00FFF0" fill-opacity=".67"/></g><g filter="url(#d)"><path d="M10.5525 24.6555c-3.35009-11.2722-17.78016-5.336-24.5764-.9588-6.5375 5.1827 8.9849 20.0912 15.43185 19.3286 6.44693-.7626-5.17172-7.2527-1.1906-10.4131 3.98111-3.1604 14.52275 6.1336 10.33515-7.9567Z" fill="#9D81FF"/></g><g filter="url(#e)"><path d="M30.8569-11.7418c-7.2268-8.6054-17.5719-1.4893-21.84117 3.1444C5.27995-3.35179 24.53 6.25961 29.8727 4.61246c5.3426-1.64717-7.2855-5.0555-5.0121-8.25336 2.2734-3.19786 15.0297 2.65587 5.9963-8.1009Z" fill="#4D94FF"/></g><path fill-rule="evenodd" clip-rule="evenodd" d="M10.1925 16.7164h4.7562l-5.41027-5.4452 5.47977-5.44518L16.5108 4.375H11.574l-6.28725 6.3194c-.3173.3185-.31567.8339.00325 1.1508l4.9025 4.8712Zm2.8592-5.4324h-.0366l.0362-.0004.0004.0004Zm0 0 5.4099 5.4448-5.4798 5.4452-1.4926 1.4511h4.9368l6.2872-6.3191c.3173-.3185.3157-.8339-.0032-1.1508l-4.9026-4.8712h-4.7557Z" fill="#000"/></g><defs><filter id="b" x="-196.024" y="-193.782" width="434.603" height="421.683" filterUnits="userSpaceOnUse" color-interpolation-filters="sRGB"><feFlood flood-opacity="0" result="BackgroundImageFix"/><feBlend in="SourceGraphic" in2="BackgroundImageFix" result="shape"/><feGaussianBlur stdDeviation="98.4615" result="effect1_foregroundBlur_401_3"/></filter><filter id="c" x="-203.71" y="-204.309" width="410.763" height="412.941" filterUnits="userSpaceOnUse" color-interpolation-filters="sRGB"><feFlood flood-opacity="0" result="BackgroundImageFix"/><feBlend in="SourceGraphic" in2="BackgroundImageFix" result="shape"/><feGaussianBlur stdDeviation="98.4615" result="effect1_foregroundBlur_401_3"/></filter><filter id="d" x="-212.522" y="-178.756" width="420.963" height="418.732" filterUnits="userSpaceOnUse" color-interpolation-filters="sRGB"><feFlood flood-opacity="0" result="BackgroundImageFix"/><feBlend in="SourceGraphic" in2="BackgroundImageFix" result="shape"/><feGaussianBlur stdDeviation="98.4615" result="effect1_foregroundBlur_401_3"/></filter><filter id="e" x="-188.385" y="-212.706" width="419.36" height="414.428" filterUnits="userSpaceOnUse" color-interpolation-filters="sRGB"><feFlood flood-opacity="0" result="BackgroundImageFix"/><feBlend in="SourceGraphic" in2="BackgroundImageFix" result="shape"/><feGaussianBlur stdDeviation="98.4615" result="effect1_foregroundBlur_401_3"/></filter></defs></svg>