<svg xmlns="http://www.w3.org/2000/svg" width="28" height="28" fill="none" viewBox="0 0 28 28">
  <path fill="#646A8F" d="M20.01 8.916v7.767l-.378.45-.276.316c-1.404 1.556-3.227 2.76-5.296 3.493l-.423-.153c-1.965-.745-3.7-1.916-5.052-3.41l-.284-.325-.312-.371V8.916l6.01-2 6.011 2ZM9.532 16.209c1.184 1.405 2.74 2.51 4.52 3.217 1.712-.704 3.21-1.782 4.354-3.143l.062-.073v-6.086L14 8.624l-4.468 1.5v6.085Z"/>
  <path fill="#A0A3C4" d="m15.792 12.52.002-.022h1.304a3.08 3.08 0 0 1-.422 1.554l1.129 1.955-.947.966-1.11-1.92a3.088 3.088 0 0 1-3.499 0l-1.106 1.92-.948-.966 1.128-1.955a3.08 3.08 0 0 1-.42-1.554h1.304l.001.022 1.228-2.125h1.129l1.227 2.125Zm-2.886 1.396a1.784 1.784 0 0 0 2.187.001L14 12.023l-1.094 1.893Z"/>
</svg>
