<svg xmlns="http://www.w3.org/2000/svg" width="28" height="28" fill="none" viewBox="0 0 28 28">
  <g class="Type=Certified, Active=Off">
    <g class="Group 5">
      <path fill="#A0A3C4" d="M19.973 9v7.767l-.378.45-.276.316c-1.404 1.556-3.227 2.76-5.296 3.493l-.423-.153c-1.966-.745-3.7-1.916-5.052-3.41l-.284-.325-.312-.371V9l6.01-2 6.011 2ZM9.495 16.293c1.184 1.405 2.74 2.51 4.52 3.217 1.712-.704 3.21-1.782 4.354-3.143l.062-.073v-6.086l-4.468-1.5-4.468 1.5v6.085Z" class="Vector 316 (Stroke)"/>
      <path fill="#646A8F" d="M17.802 10.723v5.164l-.242.299-.176.21a8.254 8.254 0 0 1-3.382 2.323l-.271-.102a8.316 8.316 0 0 1-3.226-2.267l-.182-.217-.199-.246v-5.164l3.839-1.33 3.839 1.33Z" class="Vector 316 (Stroke)"/>
    </g>
  </g>
</svg>
