<svg xmlns="http://www.w3.org/2000/svg" width="28" height="28" fill="none" viewBox="0 0 28 28">
  <g class="Type=Veteran, Active=Off">
    <g class="Group 5">
      <path fill="#646A8F" stroke="#646A8F" stroke-width=".1" d="m9.242 11.162 9.033 9.04.085.084h-1.987l-9.14-9.139h1.993l.015.015Z" class="Rectangle 356111182"/>
      <path fill="#A0A3C4" stroke="#A0A3C4" stroke-width=".1" d="M21.306 7.741h-2.028l-6.103 6.103 1.013 1.013.035-.035 6.998-6.995.085-.086Z" class="Rectangle 356111184"/>
      <path fill="#646A8F" stroke="#646A8F" stroke-width=".1" d="m12.801 16.008-1.012-1.012-.035.035-3.621 3.613-.087.085h2.035l2.72-2.721Z" class="Rectangle 356111186"/>
      <path fill="#A0A3C4" stroke="#A0A3C4" stroke-width=".1" d="M19.96 18.964h-2.043L6.694 7.74l.121.001H8.72l.015.014 11.139 11.122.086.086Z" class="Rectangle 356111183"/>
      <path fill="#A0A3C4" stroke="#A0A3C4" stroke-width=".1" d="M20.571 11.35h-1.963l-.014.015-3.98 3.918-.036.034 1.013 1.013 4.98-4.98Z" class="Rectangle 356111185"/>
      <path fill="#646A8F" stroke="#646A8F" stroke-width=".1" d="m14.524 17.203-1.013-1.014-.034.036-3.76 3.787-.085.085h1.998l2.894-2.895Z" class="Rectangle 356111187"/>
    </g>
  </g>
</svg>
