<svg width="28" height="28" viewBox="0 0 28 28" fill="none" xmlns="http://www.w3.org/2000/svg">
<rect x="2.2" y="2.2" width="23.6" height="23.6" rx="5.8" stroke="currentColor" stroke-width="0.4"/>
<path d="M9.24141 11.1623L18.275 20.2014L18.3599 20.2863H16.3725L7.23333 11.1471H9.22621L9.24141 11.1623Z" fill="currentColor" stroke="#646A8F" stroke-width="0.1"/>
<path d="M21.3059 7.74119L21.1851 7.74188L19.2979 7.74119L19.2771 7.74119L13.1742 13.8441L14.1872 14.8571L14.2224 14.8219L21.2203 7.82681L21.3059 7.74119Z" fill="currentColor" stroke="#A0A3C4" stroke-width="0.1"/>
<path d="M12.8009 16.008L11.7886 14.9957L11.7533 15.0309L8.13219 18.6438L8.04587 18.7287L10.0802 18.7287L12.8009 16.008Z" fill="currentColor" stroke="#646A8F" stroke-width="0.1"/>
<path d="M19.9594 18.9638H17.9168L6.69428 7.74128L6.81513 7.74197L8.69959 7.74128H8.72031L8.73481 7.75578L19.8738 18.8782L19.9594 18.9638Z" fill="currentColor" stroke="#A0A3C4" stroke-width="0.1"/>
<path d="M20.5707 11.3501L18.6082 11.3501L18.5937 11.3646L14.6134 15.2827L14.5775 15.3172L15.5905 16.3302L20.5707 11.3501Z" fill="currentColor" stroke="#A0A3C4" stroke-width="0.1"/>
<path d="M14.5239 17.2025L13.5109 16.1895L13.4764 16.2254L9.71712 20.0123L9.63219 20.0972L11.6292 20.0972L14.5239 17.2025Z" fill="currentColor" stroke="#646A8F" stroke-width="0.1"/>
</svg>
