<svg xmlns="http://www.w3.org/2000/svg" width="24" height="24" class="__web-inspector-hide-shortcut__"><path data-name="Rectangle 361" fill="none" d="M0 0h24v24H0z"/><path d="m11.575 19.811-3.4-3.689a.693.693 0 0 1 0-.922l.574-.6a.558.558 0 0 1 .426-.19.555.555 0 0 1 .425.19l2.4 2.6 2.4-2.6a.571.571 0 0 1 .851 0l.574.6a.693.693 0 0 1 0 .922l-3.4 3.689a.573.573 0 0 1-.851 0ZM14.425 9.4 12 6.793 9.6 9.4a.554.554 0 0 1-.425.189.557.557 0 0 1-.425-.189l-.574-.6a.692.692 0 0 1 0-.922l3.399-3.688a.571.571 0 0 1 .851 0l3.4 3.689a.693.693 0 0 1 0 .922l-.574.6a.556.556 0 0 1-.425.189.484.484 0 0 1-.402-.19Z" fill="#fff"/></svg>
