<svg width="1024" height="768" viewBox="0 0 1024 768" fill="none" xmlns="http://www.w3.org/2000/svg">
<path d="M356.817 301.357H344.778L268.763 466.606H281.747L350.679 314.577L419.848 466.606H432.832L356.817 301.357Z" fill="white" stroke="white" stroke-width="16.3937" stroke-miterlimit="2"/>
<path d="M479.233 301.357V466.606H586.408V455.747H491.272V301.357H479.233Z" fill="white" stroke="white" stroke-width="16.3937" stroke-miterlimit="2"/>
<path d="M742.083 316.23C730.28 306.315 713.991 301.357 693.217 301.357H633.963V312.217H693.217C710.686 312.217 724.142 316.23 733.585 324.02C742.792 331.81 747.513 342.906 747.513 357.07C747.513 371.47 742.792 382.565 733.585 390.12C724.142 397.91 710.686 401.687 693.217 401.687H633.963V466.606H646.003V412.546H693.217C713.991 412.546 730.28 407.825 742.083 397.91C753.887 387.995 759.789 374.539 759.789 357.07C759.789 339.837 753.887 326.145 742.083 316.23V316.23Z" fill="white" stroke="white" stroke-width="16.3937" stroke-miterlimit="2"/>
</svg>
