<svg xmlns="http://www.w3.org/2000/svg" xmlns:xlink="http://www.w3.org/1999/xlink" width="160" height="40" viewBox="0 0 160 40">
  <defs>
    <linearGradient id="linear-gradient" x1="1" y1="0.006" x2="0" y2="0.994" gradientUnits="objectBoundingBox">
      <stop offset="0" stop-color="#5f6bfb"/>
      <stop offset="1" stop-color="#724de4"/>
    </linearGradient>
  </defs>
  <g id="Anyswap" transform="translate(-466 -429)">
    <rect id="bg" width="160" height="40" rx="4" transform="translate(466 429)" fill="url(#linear-gradient)"/>
    <path id="ic_anyswap" d="M10,19.286a5.545,5.545,0,0,0-1.5,5.3,5.291,5.291,0,0,0,3.84,3.816,5.631,5.631,0,0,0,5.336-1.486l9.407-9.347a3.372,3.372,0,0,1,4.746-.063,3.321,3.321,0,0,1-.063,4.717l-3.031,3.012-1.716-1.7-1.161,6.053,6.092-1.153L30.24,26.726l3.031-3.012a5.544,5.544,0,0,0,1.495-5.3,5.288,5.288,0,0,0-3.84-3.816,5.631,5.631,0,0,0-5.336,1.486l-9.406,9.347a3.373,3.373,0,0,1-4.747.063,3.322,3.322,0,0,1,.063-4.717l2.78-2.762L16,19.718l1.159-6.051-6.09,1.152,1.716,1.7L10,19.286Z" transform="translate(483.832 427.5)" fill="#fff"/>
    <text id="AnySwap-2" data-name="AnySwap" transform="translate(557.832 454)" fill="#fff" font-size="16" font-family="Relative-Book, Relative"><tspan x="-32" y="0">AnySwap</tspan></text>
  </g>
</svg>
