<svg height="40" viewBox="0 0 160 40" width="160" xmlns="http://www.w3.org/2000/svg" xmlns:xlink="http://www.w3.org/1999/xlink"><linearGradient id="a" gradientUnits="objectBoundingBox" x1="1" x2="0" y1=".006" y2=".994"><stop offset="0" stop-color="#5f6bfb"/><stop offset="1" stop-color="#724de4"/></linearGradient><rect fill="url(#a)" height="40" rx="4" width="160"/><g fill="#fff"><path d="m10 19.286a5.545 5.545 0 0 0 -1.5 5.3 5.291 5.291 0 0 0 3.84 3.816 5.631 5.631 0 0 0 5.336-1.486l9.407-9.347a3.372 3.372 0 0 1 4.746-.063 3.321 3.321 0 0 1 -.063 4.717l-3.031 3.012-1.716-1.7-1.161 6.053 6.092-1.153-1.71-1.709 3.031-3.012a5.544 5.544 0 0 0 1.495-5.3 5.288 5.288 0 0 0 -3.84-3.816 5.631 5.631 0 0 0 -5.336 1.486l-9.406 9.347a3.373 3.373 0 0 1 -4.747.063 3.322 3.322 0 0 1 .063-4.717l2.78-2.762 1.72 1.703 1.159-6.051-6.09 1.152 1.716 1.7z" transform="translate(17.832 -1.5)"/><text font-family="Relative-Book, Relative" font-size="16" transform="translate(91.832 25)"><tspan x="-32" y="0">AnySwap</tspan></text></g></svg>