<svg width="21" height="15" viewBox="0 0 21 15" fill="none" xmlns="http://www.w3.org/2000/svg">
    <path
        d="M1.79395 6.51978C1.24166 6.51978 0.793945 6.96749 0.793945 7.51978C0.793945 8.07206 1.24166 8.51978 1.79395 8.51978L1.79395 6.51978ZM20.3526 8.22688C20.7431 7.83636 20.7431 7.20319 20.3526 6.81267L13.9887 0.448707C13.5981 0.0581822 12.965 0.0581822 12.5744 0.448707C12.1839 0.839231 12.1839 1.4724 12.5744 1.86292L18.2313 7.51977L12.5744 13.1766C12.1839 13.5672 12.1839 14.2003 12.5744 14.5908C12.965 14.9814 13.5981 14.9814 13.9887 14.5908L20.3526 8.22688ZM1.79395 8.51978L19.6455 8.51977L19.6455 6.51977L1.79395 6.51978L1.79395 8.51978Z"
        fill="white" />
</svg>