<svg xmlns="http://www.w3.org/2000/svg" xmlns:xlink="http://www.w3.org/1999/xlink" width="1920" height="815" viewBox="0 0 1920 815">
  <defs>
    <clipPath id="clip-path">
      <rect id="Rectangle_106" data-name="Rectangle 106" width="1920" height="815" fill="#fff" stroke="#707070" stroke-width="1"/>
    </clipPath>
    <linearGradient id="linear-gradient" x1="0.323" y1="0.273" x2="0.5" y2="1" gradientUnits="objectBoundingBox">
      <stop offset="0" stop-color="#03d1cf" stop-opacity="0.329"/>
      <stop offset="1" stop-color="#4e09f8" stop-opacity="0"/>
    </linearGradient>
    <linearGradient id="linear-gradient-3" x1="0.677" y1="0.273" x2="0.5" y2="1" gradientUnits="objectBoundingBox">
      <stop offset="0" stop-color="#03d1cf" stop-opacity="0.349"/>
      <stop offset="1" stop-color="#4e09f8" stop-opacity="0"/>
    </linearGradient>
    <linearGradient id="linear-gradient-4" x1="0.677" y1="0.273" x2="0.5" y2="1" gradientUnits="objectBoundingBox">
      <stop offset="0" stop-color="#03d1cf" stop-opacity="0.31"/>
      <stop offset="1" stop-color="#4e09f8" stop-opacity="0"/>
    </linearGradient>
    <linearGradient id="linear-gradient-5" x1="0.677" y1="0.273" x2="0.5" y2="1" gradientUnits="objectBoundingBox">
      <stop offset="0" stop-color="#03d1cf" stop-opacity="0.522"/>
      <stop offset="1" stop-color="#4e09f8" stop-opacity="0"/>
    </linearGradient>
  </defs>
  <g id="Artwork" clip-path="url(#clip-path)">
    <g id="Group_107" data-name="Group 107" transform="translate(942 -85)">
      <path id="Polygon_17" data-name="Polygon 17" d="M554,0l554,755H0Z" transform="translate(328 211)" fill="url(#linear-gradient)"/>
      <path id="Polygon_18" data-name="Polygon 18" d="M432,0,864,589H0Z" transform="translate(0 350)" fill="url(#linear-gradient)"/>
      <path id="Polygon_19" data-name="Polygon 19" d="M432,0,864,589H0Z" transform="translate(1038 589) rotate(180)" fill="url(#linear-gradient-3)"/>
      <path id="Polygon_20" data-name="Polygon 20" d="M432,0,864,589H0Z" transform="translate(1038 589) rotate(180)" fill="url(#linear-gradient-4)"/>
      <path id="Polygon_21" data-name="Polygon 21" d="M256,0,512,349H0Z" transform="translate(1138 382) rotate(180)" fill="url(#linear-gradient-5)"/>
      <path id="Polygon_22" data-name="Polygon 22" d="M554,0l554,755H0Z" transform="translate(1532 808) rotate(180)" fill="#fff" opacity="0.09"/>
    </g>
  </g>
</svg>
