<svg height="815" viewBox="0 0 1920 815" width="1920" xmlns="http://www.w3.org/2000/svg" xmlns:xlink="http://www.w3.org/1999/xlink"><clipPath id="a"><path d="m0 0h1920v815h-1920z"/></clipPath><linearGradient id="b" gradientUnits="objectBoundingBox" x1=".323" x2=".5" y1=".273" y2="1"><stop offset="0" stop-color="#03d1cf" stop-opacity=".329"/><stop offset="1" stop-color="#4e09f8" stop-opacity="0"/></linearGradient><linearGradient id="c" gradientUnits="objectBoundingBox" x1=".677" x2=".5" y1=".273" y2="1"><stop offset="0" stop-color="#03d1cf" stop-opacity=".349"/><stop offset="1" stop-color="#4e09f8" stop-opacity="0"/></linearGradient><linearGradient id="d" gradientUnits="objectBoundingBox" x1=".677" x2=".5" y1=".273" y2="1"><stop offset="0" stop-color="#03d1cf" stop-opacity=".31"/><stop offset="1" stop-color="#4e09f8" stop-opacity="0"/></linearGradient><linearGradient id="e" gradientUnits="objectBoundingBox" x1=".677" x2=".5" y1=".273" y2="1"><stop offset="0" stop-color="#03d1cf" stop-opacity=".522"/><stop offset="1" stop-color="#4e09f8" stop-opacity="0"/></linearGradient><g clip-path="url(#a)"><path d="m554 0 554 755h-1108z" fill="url(#b)" transform="translate(1270 126)"/><path d="m432 0 432 589h-864z" fill="url(#b)" transform="translate(942 265)"/><path d="m432 0 432 589h-864z" fill="url(#c)" transform="matrix(-1 0 0 -1 1980 504)"/><path d="m432 0 432 589h-864z" fill="url(#d)" transform="matrix(-1 0 0 -1 1980 504)"/><path d="m256 0 256 349h-512z" fill="url(#e)" transform="matrix(-1 0 0 -1 2080 297)"/><path d="m554 0 554 755h-1108z" fill="#fff" opacity=".09" transform="matrix(-1 0 0 -1 2474 723)"/></g></svg>