<svg xmlns="http://www.w3.org/2000/svg" fill="none" viewBox="0 0 384 166"><path fill="#3C4067" d="M0 165.541a507.246 507.246 0 0 1 384 0l-.189.463a506.74 506.74 0 0 0-383.622 0L0 165.541Zm.035-30.668a813.565 813.565 0 0 1 383.929 0l-.117.486a813.073 813.073 0 0 0-383.694 0l-.058-.243-.06-.243Zm85.022-32.133a1200.295 1200.295 0 0 1 213.886 0l84.985 7.603-.045.498-84.985-7.603a1199.794 1199.794 0 0 0-213.796 0L.117 110.841l-.045-.498 84.985-7.603Zm298.848-20.351H.095v-.5h383.81v.5Zm.023-26.728-84.985 7.603a1200.257 1200.257 0 0 1-213.886 0L.072 55.66l.045-.498 84.985 7.603a1199.738 1199.738 0 0 0 213.796 0l84.985-7.603.045.498Zm.036-24.53a813.568 813.568 0 0 1-383.929 0l.06-.243.058-.244a813.068 813.068 0 0 0 383.694 0l.117.487ZM384 .463a507.243 507.243 0 0 1-384 0L.19 0A506.744 506.744 0 0 0 383.81 0l.189.463Z"/><mask id="a" width="384" height="167" x="0" y="0" maskUnits="userSpaceOnUse" style="mask-type:alpha"><path fill="#3C4067" d="M0 165.541a507.246 507.246 0 0 1 384 0l-.189.463a506.74 506.74 0 0 0-383.622 0L0 165.541Zm.035-30.668a813.565 813.565 0 0 1 383.929 0l-.117.486a813.073 813.073 0 0 0-383.694 0l-.058-.243-.06-.243Zm85.022-32.133a1200.295 1200.295 0 0 1 213.886 0l84.985 7.603-.045.498-84.985-7.603a1199.794 1199.794 0 0 0-213.796 0L.117 110.841l-.045-.498 84.985-7.603Zm298.848-20.351H.095v-.5h383.81v.5Zm.023-26.728-84.985 7.603a1200.257 1200.257 0 0 1-213.886 0L.072 55.66l.045-.498 84.985 7.603a1199.738 1199.738 0 0 0 213.796 0l84.985-7.603.045.498Zm.036-24.53a813.568 813.568 0 0 1-383.929 0l.06-.243.058-.244a813.068 813.068 0 0 0 383.694 0l.117.487ZM384 .463a507.243 507.243 0 0 1-384 0L.19 0A506.744 506.744 0 0 0 383.81 0l.189.463Z"/></mask></svg>
