<svg width="22" height="22" viewBox="0 0 22 22" fill="none" xmlns="http://www.w3.org/2000/svg">
<g clip-path="url(#clip0_2_2)">
<path d="M6.728 9.245L11 4.973L15.278 9.247L17.764 6.761L11 0L4.242 6.759L6.728 9.245Z" fill="#F3BA2F"/>
<path d="M2.48599 8.51401L4.97218 11.0002L2.48599 13.4864L-0.000194991 11.0002L2.48599 8.51401Z" fill="#F3BA2F"/>
<path d="M6.728 12.757L11 17.029L15.275 12.757L17.762 15.242L11.001 22.003L4.242 15.245L6.728 12.757Z" fill="#F3BA2F"/>
<path d="M22.001 11.001L19.5148 13.4872L17.0286 11.001L19.5148 8.51481L22.001 11.001Z" fill="#F3BA2F"/>
<path d="M13.523 10.996L11.001 8.476L9.13699 10.34L8.92299 10.554L8.48099 10.996L11.001 13.516L13.524 10.993L13.523 10.996Z" fill="#F3BA2F"/>
</g>
<defs>
<clipPath id="clip0_2_2">
<rect width="22" height="22" fill="white"/>
</clipPath>
</defs>
</svg>
