<svg height="20" viewBox="0 0 17.789 20" width="17.789" xmlns="http://www.w3.org/2000/svg"><g fill="#495bff"><path d="m33.553 61.492-8.128-4.7a.867.867 0 0 1 -.46-.818v-9.46c0-.153-.153-.256-.256-.153l-1.687.971a2.062 2.062 0 0 0 -1.022 1.789v7.923a2.2 2.2 0 0 0 1.022 1.789l6.85 3.987a2.082 2.082 0 0 0 2.045 0l1.687-.971c.102-.149.102-.306-.051-.357z" transform="translate(-22 -43.089)"/><path d="m31.16 53.427 3.527 2.045a.976.976 0 0 0 .92 0l3.527-2.045a.867.867 0 0 0 .46-.818v-4.09a.982.982 0 0 0 -.46-.818l-3.527-2.045a.976.976 0 0 0 -.92 0l-.869.511c-.051.051-.153 0-.153-.1v-4.653c0-.153-.153-.256-.256-.153l-2.249 1.278a.867.867 0 0 0 -.46.818v9.2a1 1 0 0 0 .46.87zm2.04-3.681a.537.537 0 0 1 .256-.46l1.38-.818a.554.554 0 0 1 .562 0l1.38.818a.61.61 0 0 1 .256.46v1.585a.537.537 0 0 1 -.256.46l-1.38.818a.554.554 0 0 1 -.562 0l-1.38-.767a.61.61 0 0 1 -.256-.46z" transform="translate(-26.253 -40.596)"/><path d="m47.272 44.243-6.85-3.987a2.083 2.083 0 0 0 -.922-.256.11.11 0 0 0 -.1.1v2.914c0 .051.051.1.1.153l5.367 3.118a.867.867 0 0 1 .46.818v5.776a.982.982 0 0 1 -.46.818l-3.681 2.147a.192.192 0 0 0 0 .307l2.5 1.431a.437.437 0 0 0 .358 0l3.22-1.891a2.062 2.062 0 0 0 1.031-1.791v-7.919a2.159 2.159 0 0 0 -1.023-1.738z" transform="translate(-30.505 -40)"/></g></svg>