<svg height="156" viewBox="0 0 433 156" width="433" xmlns="http://www.w3.org/2000/svg" xmlns:xlink="http://www.w3.org/1999/xlink"><filter id="a" filterUnits="userSpaceOnUse" height="156" width="433" x="0" y="0"><feOffset dy="9"/><feGaussianBlur result="blur" stdDeviation="6"/><feFlood flood-opacity=".329"/><feComposite in2="blur" operator="in"/><feComposite in="SourceGraphic"/></filter><clipPath id="b"><rect height="120" rx="4" width="397" x="762" y="142"/></clipPath><linearGradient id="c" gradientUnits="objectBoundingBox" x1="-2.275" x2="7.65" y1="-2.41" y2="2.121"><stop offset="0" stop-color="#03d1cf" stop-opacity=".988"/><stop offset="1" stop-color="#4e09f8"/></linearGradient><g filter="url(#a)"><g fill="#17182c" stroke="#1e2136" transform="translate(18 9)"><rect height="120" rx="4" stroke="none" width="397"/><rect fill="none" height="119" rx="3.5" width="396" x=".5" y=".5"/></g></g><g clip-path="url(#b)" fill="url(#c)" transform="translate(-744 -133)"><g opacity=".24" transform="matrix(0 1 -1 0 1071.907 -199.725)"><path d="m303.27 209.862-12.389 7.154v-14.308z" transform="translate(0 47.668)"/><path d="m306.323 206.314-12.223-7.057 12.225-7.057z" transform="translate(1.259 43.556)"/><path d="m302.167 188.471-10.937 6.314v-12.628z" transform="translate(.136 39.625)"/><path d="m302.84 230.924-11.825 6.826v-13.65z" transform="translate(.052 56.04)"/><path d="m306.69 227.993-12.931-7.466 12.931-7.465z" transform="translate(1.127 51.72)"/><path d="m322.62 199.5-13.743 7.935v-15.866z" transform="translate(7.043 43.309)"/><path d="m305.538 184.045-10.716-6.188 10.716-6.186z" transform="translate(1.542 35.522)"/><path d="m300.758 167.015-9.086 5.246v-10.49z" transform="translate(.309 31.647)"/><path d="m301.01 251.688-9.417 5.436v-10.873z" transform="translate(.278 64.709)"/><path d="m305.672 247.7-10.972-6.336 10.974-6.337z" transform="translate(1.494 60.317)"/><path d="m322.9 220.719-14.114 8.149v-16.3z" transform="translate(7.008 51.528)"/><path d="m326.205 219.111-15.223-8.789 15.223-8.79z" transform="translate(7.867 47.208)"/><path d="m325.42 196.84-13.72-7.918 13.72-7.922z" transform="translate(8.149 39.175)"/><path d="m320.971 178-11.571 6.682v-13.368z" transform="translate(7.246 35.382)"/><path d="m303.9 160.571-7.578-4.377 7.578-4.375z" transform="translate(2.131 27.752)"/><path d="m298.15 145.3-5.656 3.268v-6.528z" transform="translate(.631 23.925)"/><path d="m297.669 272.13-5.025 2.9v-5.8z" transform="translate(.69 73.702)"/><path d="m303.8 266.194-7.379-4.26 7.379-4.26z" transform="translate(2.168 69.18)"/><path d="m320.827 241.43-11.386 6.57v-13.143z" transform="translate(7.264 60.25)"/><path d="m325.305 238.988-13.5-7.792 13.5-7.792z" transform="translate(8.19 55.768)"/><path d="m343.527 210.634-17.144 9.9v-19.8z" transform="translate(13.894 46.896)"/><path d="m345.881 210.458-17.827-10.291 17.827-10.291z" transform="translate(14.548 42.646)"/><path d="m342.372 189.233-15.625 9.022v-18.045z" transform="translate(14.036 38.864)"/><path d="m323.536 173.008-10.1-5.829 10.1-5.827z" transform="translate(8.828 31.483)"/><path d="m318.021 156.212-7.7 4.444v-8.886z" transform="translate(7.61 27.733)"/><path d="m301.9 136.575-3.741-2.159 3.741-2.159z" transform="translate(2.85 20.097)"/><path d="m295.5 123.586-2.176 1.254v-2.511z" transform="translate(.957 16.211)"/><path d="m295.729 292.87-2.471 1.426v-2.853z" transform="translate(.93 82.395)"/><path d="m301.774 284.471-3.49-2.014 3.49-2.015z" transform="translate(2.897 78.09)"/><path d="m317.477 261.869-6.977 4.031v-8.06z" transform="translate(7.677 69.245)"/><path d="m323.039 256.924-9.143-5.28 9.143-5.28z" transform="translate(9.007 64.754)"/><path d="m341.319 231.317-14.24 8.222v-16.445z" transform="translate(14.166 55.646)"/><path d="m345.262 230.736-16.637-9.607 16.637-9.607z" transform="translate(14.771 51.118)"/><path d="m362.983 200.3-18.638 10.762v-21.524z" transform="translate(20.923 42.514)"/><path d="m344 186.628-14.207-8.2 14.207-8.2z" transform="translate(15.227 34.955)"/><path d="m338.755 167.305-10.87 6.275v-12.55z" transform="translate(14.482 31.357)"/><path d="m320.962 148.2-5.157-2.979 5.157-2.976z" transform="translate(9.754 24.006)"/><path d="m314.7 134.351-3.335 1.924v-3.85z" transform="translate(8.018 20.162)"/><path d="m300.444 113.349-.938-.541.938-.542z" transform="translate(3.375 12.273)"/><path d="m294.6 313.781-.984.569v-1.137z" transform="translate(1.069 90.916)"/><path d="m300.822 304.274-1.662-.958 1.662-.96z" transform="translate(3.24 86.666)"/><path d="m314.48 282.384-3.039 1.755v-3.51z" transform="translate(8.046 78.164)"/><path d="m320.459 274.414-4.191-2.419 4.191-2.421z" transform="translate(9.935 73.837)"/><path d="m337.061 251.562-8.642 4.989v-9.979z" transform="translate(14.691 64.835)"/><path d="m342.683 248.225-11.683-6.746 11.685-6.746z" transform="translate(15.7 60.201)"/><path d="m362 221.243-17.339 10.012v-20.024z" transform="translate(21.045 51.004)"/><path d="m364.848 221.956-19.068-11.01 19.068-11.01z" transform="translate(21.485 46.584)"/><path d="m363.893 199.442-17.233-9.949 17.233-9.949z" transform="translate(21.83 38.603)"/><path d="m359.941 178.494-14.641 8.453v-16.9z" transform="translate(21.298 34.885)"/><path d="m340.736 160.84-7.946-4.587 7.946-4.586z" transform="translate(16.401 27.693)"/><path d="m334.186 145.174-4.861 2.807v-5.611z" transform="translate(15.045 24.054)"/><path d="m319.05 124.33-1.485-.856 1.485-.858z" transform="translate(10.443 16.323)"/><path d="m312.7 112.769-.7.405v-.811z" transform="translate(8.266 12.311)"/><path d="m294.153 334.841-.4.231v-.462z" transform="translate(1.124 99.29)"/><path d="m300.261 324.633-.586-.339.586-.339z" transform="translate(3.441 95.12)"/><path d="m313.224 303.271-1.388.8v-1.6z" transform="translate(8.201 86.711)"/><path d="m319.212 293.8-1.8-1.038 1.8-1.039z" transform="translate(10.384 82.505)"/><path d="m333.151 271.882-3.5 2.021v-4.042z" transform="translate(15.173 73.949)"/><path d="m339.47 264.818-5.518-3.186 5.518-3.186z" transform="translate(16.856 69.482)"/><path d="m357.772 241.5-11.786 6.8v-13.609z" transform="translate(21.566 60.185)"/><path d="m363.042 240.545-15.6-9.007 15.6-9.007z" transform="translate(22.135 55.426)"/><path d="m381.87 211-19.384 11.19v-22.385z" transform="translate(28.023 46.532)"/><path d="m382.662 210.658-18.095-10.448 18.095-10.446z" transform="translate(28.838 42.603)"/><path d="m380.019 189.447-16.95 9.787v-19.572z" transform="translate(28.251 38.649)"/><path d="m360.771 173.855-11.241-6.489 11.241-6.489z" transform="translate(22.953 31.297)"/><path d="m354.739 156.229-7.8 4.5v-9z" transform="translate(21.939 27.717)"/><path d="m337.835 135.568-2.378-1.371 2.378-1.375z" transform="translate(17.445 20.317)"/><path d="m331.313 123.408-1.083.624v-1.249z" transform="translate(15.399 16.389)"/><path d="m312.555 324.281-.508.294v-.586z" transform="translate(8.283 95.133)"/><path d="m318.648 314.15-.713-.413.713-.411z" transform="translate(10.588 90.96)"/><path d="m331.453 292.674-1.268.731v-1.465z" transform="translate(15.382 82.591)"/><path d="m337.555 283.25-1.839-1.061 1.839-1.063z" transform="translate(17.547 78.358)"/><path d="m352.819 261.593-5.272 3.045v-6.089z" transform="translate(22.177 69.522)"/><path d="m359.515 256.692-8.829-5.1 8.829-5.1z" transform="translate(23.405 64.804)"/><path d="m380.087 231.771-17.037 9.835v-19.672z" transform="translate(28.244 55.192)"/><path d="m383.055 232.371-18.855-10.883 18.855-10.888z" transform="translate(28.695 50.759)"/><path d="m397.709 199.89-16.12 9.307v-18.614z" transform="translate(35.499 42.923)"/><path d="m380.648 186.643-14.229-8.215 14.229-8.214z" transform="translate(29.562 34.951)"/><path d="m375.737 167.378-11.318 6.536v-13.07z" transform="translate(28.78 31.284)"/><path d="m357.275 147.733-4.526-2.613 4.526-2.613z" transform="translate(24.212 24.108)"/><path d="m350.45 134.16-2.157 1.243v-2.488z" transform="translate(22.469 20.354)"/><path d="m330.875 313.7-.506.294v-.586z" transform="translate(15.454 90.993)"/><path d="m336.945 303.539-.67-.385.67-.387z" transform="translate(17.765 86.828)"/><path d="m349.911 282.126-1.448.836v-1.673z" transform="translate(22.535 78.422)"/><path d="m356.5 273.553-3.03-1.747 3.03-1.749z" transform="translate(24.493 74.026)"/><path d="m375.115 251.864-10.5 6.063v-12.127z" transform="translate(28.857 64.533)"/><path d="m381.013 250.626-14.929-8.62 14.929-8.62z" transform="translate(29.431 59.674)"/><path d="m399.291 221.382-18.2 10.509v-21.016z" transform="translate(35.304 50.864)"/><path d="m400.01 219.855-16.228-9.37 16.228-9.37z" transform="translate(36.358 47.045)"/><path d="m398.766 196.933-13.84-7.991 13.84-7.989z" transform="translate(36.805 39.154)"/><path d="m395.71 178.308-13.492 7.79v-15.578z" transform="translate(35.745 35.071)"/><path d="m377.605 161.169-8.388-4.844 8.388-4.842z" transform="translate(30.658 27.621)"/><path d="m370.845 145.179-4.885 2.821v-5.643z" transform="translate(29.383 24.05)"/><path d="m355.327 123.814-.787-.454.787-.456z" transform="translate(24.913 16.436)"/><path d="m349.1 303.108-.385.222v-.445z" transform="translate(22.635 86.874)"/><path d="m355.256 292.95-.651-.376.651-.378z" transform="translate(24.939 82.691)"/><path d="m369.957 271.918-3.718 2.148v-4.3z" transform="translate(29.492 73.914)"/><path d="m377.234 266.414-7.675-4.431 7.675-4.433z" transform="translate(30.791 69.131)"/><path d="m397.637 242.184-16.025 9.251v-18.5z" transform="translate(35.508 59.497)"/><path d="m400.734 242.04-17.62-10.174 17.62-10.174z" transform="translate(36.096 55.098)"/><path d="m414.49 210.139-14.1 8.138v-16.277z" transform="translate(42.859 47.391)"/><path d="m416.02 206-11.791-6.809 11.791-6.809z" transform="translate(44.359 43.625)"/><path d="m413.094 188.686-12.26 7.079v-14.157z" transform="translate(43.031 39.411)"/><path d="m397.743 174.327-11.877-6.858 11.877-6.856z" transform="translate(37.173 31.194)"/><path d="m392.611 156.492-9.417 5.438v-10.874z" transform="translate(36.127 27.454)"/><path d="m374.849 136.1-3.1-1.788 3.1-1.788z" transform="translate(31.65 20.201)"/><path d="m367.96 123.41-1.091.631v-1.262z" transform="translate(29.739 16.387)"/><path d="m355.006 313.75-.171-.1.171-.1z" transform="translate(25.029 91.048)"/><path d="m367.694 292.589-.741.426v-.854z" transform="translate(29.772 82.676)"/><path d="m374.307 283.41-2.055-1.185 2.055-1.187z" transform="translate(31.846 78.323)"/><path d="m392.427 262.226-9.175 5.295v-10.591z" transform="translate(36.151 68.888)"/><path d="m398.661 260.246-13.638-7.872 13.638-7.874z" transform="translate(36.844 64.024)"/><path d="m416.558 231.735-16.816 9.707v-19.416z" transform="translate(42.604 55.229)"/><path d="m417.636 229.445-14.9-8.6 14.9-8.6z" transform="translate(43.777 51.401)"/><path d="m416.491 185.509-12.7-7.331 12.7-7.329z" transform="translate(44.19 35.2)"/><path d="m413.531 167.624-12.833 7.41v-14.819z" transform="translate(42.978 31.038)"/><path d="m395.836 150.461-8.215-4.742 8.215-4.742z" transform="translate(37.86 23.509)"/><path d="m389.006 134.569-4.675 2.7v-5.4z" transform="translate(36.572 19.945)"/><path d="m373.517 113.054-.54-.311.54-.313z" transform="translate(32.129 12.337)"/><path d="m367.151 102.082-.026.015v-.032z" transform="translate(29.839 8.281)"/><path d="m355.006 334.9-.171-.1.171-.1z" transform="translate(25.029 99.327)"/><path d="m367.253 313.648-.162.095v-.188z" transform="translate(29.825 91.049)"/><path d="m373.424 303.313-.361-.209.361-.21z" transform="translate(32.163 86.877)"/><path d="m387.456 282.319-2.637 1.52v-3.039z" transform="translate(36.764 78.229)"/><path d="m394.611 275.651-5.864-3.385 5.864-3.385z" transform="translate(38.301 73.566)"/><path d="m414.558 252.462-14.185 8.19v-16.378z" transform="translate(42.851 63.935)"/><path d="m418.123 251.292-15.83-9.139 15.83-9.139z" transform="translate(43.602 59.528)"/><path d="m416.992 165.068-13.66-7.887 13.66-7.885z" transform="translate(44.009 26.765)"/><path d="m412.262 146.2-11.162 6.447v-12.893z" transform="translate(43.134 23.03)"/><path d="m393.48 125.963-3.692-2.131 3.692-2.133z" transform="translate(38.708 15.965)"/><path d="m386.414 112.861-1.267.729v-1.461z" transform="translate(36.892 12.219)"/><path d="m367.257 334.8-.167.1v-.194z" transform="translate(29.825 99.327)"/><path d="m373.313 324.307-.145-.086.145-.082z" transform="translate(32.204 95.192)"/><path d="m385.8 303.121-.465.268v-.538z" transform="translate(36.967 86.86)"/><path d="m392.224 293.413-1.28-.737 1.28-.739z" transform="translate(39.16 82.589)"/><path d="m408.606 272.346-6.359 3.672v-7.344z" transform="translate(43.584 73.485)"/><path d="m415.348 268.5-10.5-6.063 10.5-6.063z" transform="translate(44.601 68.673)"/><path d="m415.391 141.638-10.585-6.11 10.585-6.112z" transform="translate(44.586 18.985)"/><path d="m408.436 124.229-6.136 3.541v-7.085z" transform="translate(43.606 15.568)"/><path d="m391.933 102.609-.72-.415.72-.415z" transform="translate(39.266 8.169)"/><path d="m385.5 91.51-.06.032v-.065z" transform="translate(37.005 4.136)"/><path d="m385.577 324.226-.166.1v-.194z" transform="translate(36.995 95.188)"/><path d="m391.683 313.8-.242-.141.242-.14z" transform="translate(39.355 91.036)"/><path d="m404.883 292.705-1.463.843v-1.686z" transform="translate(44.043 82.56)"/><path d="m411.564 284.285-3.238-1.868 3.238-1.868z" transform="translate(45.963 78.132)"/><path d="m412.173 115.914-4.407-2.544 4.407-2.544z" transform="translate(45.744 11.709)"/><path d="m404.943 102.328-1.541.888v-1.777z" transform="translate(44.036 8.035)"/><path d="m391.668 334.935-.214-.125.214-.123z" transform="translate(39.36 99.32)"/><path d="m403.983 313.667-.279.162v-.322z" transform="translate(44.154 91.03)"/><path d="m410.2 303.5-.622-.357.622-.361z" transform="translate(46.454 86.835)"/><path d="m410.216 91.982-.651-.376.651-.376z" transform="translate(46.448 4.04)"/><path d="m403.8 80.929-.039.022v-.045z" transform="translate(44.177)"/><path d="m403.954 334.815-.242.14v-.277z" transform="translate(44.157 99.316)"/><path d="m409.989 324.36-.216-.127.216-.125z" transform="translate(46.53 95.18)"/></g><g opacity=".24" transform="matrix(0 1 -1 0 1451.907 -151.725)"><path d="m303.27 209.862-12.389 7.154v-14.308z" transform="translate(0 47.668)"/><path d="m306.323 206.314-12.223-7.057 12.225-7.057z" transform="translate(1.259 43.556)"/><path d="m302.167 188.471-10.937 6.314v-12.628z" transform="translate(.136 39.625)"/><path d="m302.84 230.924-11.825 6.826v-13.65z" transform="translate(.052 56.04)"/><path d="m306.69 227.993-12.931-7.466 12.931-7.465z" transform="translate(1.127 51.72)"/><path d="m322.62 199.5-13.743 7.935v-15.866z" transform="translate(7.043 43.309)"/><path d="m305.538 184.045-10.716-6.188 10.716-6.186z" transform="translate(1.542 35.522)"/><path d="m300.758 167.015-9.086 5.246v-10.49z" transform="translate(.309 31.647)"/><path d="m301.01 251.688-9.417 5.436v-10.873z" transform="translate(.278 64.709)"/><path d="m305.672 247.7-10.972-6.336 10.974-6.337z" transform="translate(1.494 60.317)"/><path d="m322.9 220.719-14.114 8.149v-16.3z" transform="translate(7.008 51.528)"/><path d="m326.205 219.111-15.223-8.789 15.223-8.79z" transform="translate(7.867 47.208)"/><path d="m325.42 196.84-13.72-7.918 13.72-7.922z" transform="translate(8.149 39.175)"/><path d="m320.971 178-11.571 6.682v-13.368z" transform="translate(7.246 35.382)"/><path d="m303.9 160.571-7.578-4.377 7.578-4.375z" transform="translate(2.131 27.752)"/><path d="m298.15 145.3-5.656 3.268v-6.528z" transform="translate(.631 23.925)"/><path d="m297.669 272.13-5.025 2.9v-5.8z" transform="translate(.69 73.702)"/><path d="m303.8 266.194-7.379-4.26 7.379-4.26z" transform="translate(2.168 69.18)"/><path d="m320.827 241.43-11.386 6.57v-13.143z" transform="translate(7.264 60.25)"/><path d="m325.305 238.988-13.5-7.792 13.5-7.792z" transform="translate(8.19 55.768)"/><path d="m343.527 210.634-17.144 9.9v-19.8z" transform="translate(13.894 46.896)"/><path d="m345.881 210.458-17.827-10.291 17.827-10.291z" transform="translate(14.548 42.646)"/><path d="m342.372 189.233-15.625 9.022v-18.045z" transform="translate(14.036 38.864)"/><path d="m323.536 173.008-10.1-5.829 10.1-5.827z" transform="translate(8.828 31.483)"/><path d="m318.021 156.212-7.7 4.444v-8.886z" transform="translate(7.61 27.733)"/><path d="m301.9 136.575-3.741-2.159 3.741-2.159z" transform="translate(2.85 20.097)"/><path d="m295.5 123.586-2.176 1.254v-2.511z" transform="translate(.957 16.211)"/><path d="m295.729 292.87-2.471 1.426v-2.853z" transform="translate(.93 82.395)"/><path d="m301.774 284.471-3.49-2.014 3.49-2.015z" transform="translate(2.897 78.09)"/><path d="m317.477 261.869-6.977 4.031v-8.06z" transform="translate(7.677 69.245)"/><path d="m323.039 256.924-9.143-5.28 9.143-5.28z" transform="translate(9.007 64.754)"/><path d="m341.319 231.317-14.24 8.222v-16.445z" transform="translate(14.166 55.646)"/><path d="m345.262 230.736-16.637-9.607 16.637-9.607z" transform="translate(14.771 51.118)"/><path d="m362.983 200.3-18.638 10.762v-21.524z" transform="translate(20.923 42.514)"/><path d="m344 186.628-14.207-8.2 14.207-8.2z" transform="translate(15.227 34.955)"/><path d="m338.755 167.305-10.87 6.275v-12.55z" transform="translate(14.482 31.357)"/><path d="m320.962 148.2-5.157-2.979 5.157-2.976z" transform="translate(9.754 24.006)"/><path d="m314.7 134.351-3.335 1.924v-3.85z" transform="translate(8.018 20.162)"/><path d="m300.444 113.349-.938-.541.938-.542z" transform="translate(3.375 12.273)"/><path d="m294.6 313.781-.984.569v-1.137z" transform="translate(1.069 90.916)"/><path d="m300.822 304.274-1.662-.958 1.662-.96z" transform="translate(3.24 86.666)"/><path d="m314.48 282.384-3.039 1.755v-3.51z" transform="translate(8.046 78.164)"/><path d="m320.459 274.414-4.191-2.419 4.191-2.421z" transform="translate(9.935 73.837)"/><path d="m337.061 251.562-8.642 4.989v-9.979z" transform="translate(14.691 64.835)"/><path d="m342.683 248.225-11.683-6.746 11.685-6.746z" transform="translate(15.7 60.201)"/><path d="m362 221.243-17.339 10.012v-20.024z" transform="translate(21.045 51.004)"/><path d="m364.848 221.956-19.068-11.01 19.068-11.01z" transform="translate(21.485 46.584)"/><path d="m363.893 199.442-17.233-9.949 17.233-9.949z" transform="translate(21.83 38.603)"/><path d="m359.941 178.494-14.641 8.453v-16.9z" transform="translate(21.298 34.885)"/><path d="m340.736 160.84-7.946-4.587 7.946-4.586z" transform="translate(16.401 27.693)"/><path d="m334.186 145.174-4.861 2.807v-5.611z" transform="translate(15.045 24.054)"/><path d="m319.05 124.33-1.485-.856 1.485-.858z" transform="translate(10.443 16.323)"/><path d="m312.7 112.769-.7.405v-.811z" transform="translate(8.266 12.311)"/><path d="m294.153 334.841-.4.231v-.462z" transform="translate(1.124 99.29)"/><path d="m300.261 324.633-.586-.339.586-.339z" transform="translate(3.441 95.12)"/><path d="m313.224 303.271-1.388.8v-1.6z" transform="translate(8.201 86.711)"/><path d="m319.212 293.8-1.8-1.038 1.8-1.039z" transform="translate(10.384 82.505)"/><path d="m333.151 271.882-3.5 2.021v-4.042z" transform="translate(15.173 73.949)"/><path d="m339.47 264.818-5.518-3.186 5.518-3.186z" transform="translate(16.856 69.482)"/><path d="m357.772 241.5-11.786 6.8v-13.609z" transform="translate(21.566 60.185)"/><path d="m363.042 240.545-15.6-9.007 15.6-9.007z" transform="translate(22.135 55.426)"/><path d="m381.87 211-19.384 11.19v-22.385z" transform="translate(28.023 46.532)"/><path d="m382.662 210.658-18.095-10.448 18.095-10.446z" transform="translate(28.838 42.603)"/><path d="m380.019 189.447-16.95 9.787v-19.572z" transform="translate(28.251 38.649)"/><path d="m360.771 173.855-11.241-6.489 11.241-6.489z" transform="translate(22.953 31.297)"/><path d="m354.739 156.229-7.8 4.5v-9z" transform="translate(21.939 27.717)"/><path d="m337.835 135.568-2.378-1.371 2.378-1.375z" transform="translate(17.445 20.317)"/><path d="m331.313 123.408-1.083.624v-1.249z" transform="translate(15.399 16.389)"/><path d="m312.555 324.281-.508.294v-.586z" transform="translate(8.283 95.133)"/><path d="m318.648 314.15-.713-.413.713-.411z" transform="translate(10.588 90.96)"/><path d="m331.453 292.674-1.268.731v-1.465z" transform="translate(15.382 82.591)"/><path d="m337.555 283.25-1.839-1.061 1.839-1.063z" transform="translate(17.547 78.358)"/><path d="m352.819 261.593-5.272 3.045v-6.089z" transform="translate(22.177 69.522)"/><path d="m359.515 256.692-8.829-5.1 8.829-5.1z" transform="translate(23.405 64.804)"/><path d="m380.087 231.771-17.037 9.835v-19.672z" transform="translate(28.244 55.192)"/><path d="m383.055 232.371-18.855-10.883 18.855-10.888z" transform="translate(28.695 50.759)"/><path d="m397.709 199.89-16.12 9.307v-18.614z" transform="translate(35.499 42.923)"/><path d="m380.648 186.643-14.229-8.215 14.229-8.214z" transform="translate(29.562 34.951)"/><path d="m375.737 167.378-11.318 6.536v-13.07z" transform="translate(28.78 31.284)"/><path d="m357.275 147.733-4.526-2.613 4.526-2.613z" transform="translate(24.212 24.108)"/><path d="m350.45 134.16-2.157 1.243v-2.488z" transform="translate(22.469 20.354)"/><path d="m330.875 313.7-.506.294v-.586z" transform="translate(15.454 90.993)"/><path d="m336.945 303.539-.67-.385.67-.387z" transform="translate(17.765 86.828)"/><path d="m349.911 282.126-1.448.836v-1.673z" transform="translate(22.535 78.422)"/><path d="m356.5 273.553-3.03-1.747 3.03-1.749z" transform="translate(24.493 74.026)"/><path d="m375.115 251.864-10.5 6.063v-12.127z" transform="translate(28.857 64.533)"/><path d="m381.013 250.626-14.929-8.62 14.929-8.62z" transform="translate(29.431 59.674)"/><path d="m399.291 221.382-18.2 10.509v-21.016z" transform="translate(35.304 50.864)"/><path d="m400.01 219.855-16.228-9.37 16.228-9.37z" transform="translate(36.358 47.045)"/><path d="m398.766 196.933-13.84-7.991 13.84-7.989z" transform="translate(36.805 39.154)"/><path d="m395.71 178.308-13.492 7.79v-15.578z" transform="translate(35.745 35.071)"/><path d="m377.605 161.169-8.388-4.844 8.388-4.842z" transform="translate(30.658 27.621)"/><path d="m370.845 145.179-4.885 2.821v-5.643z" transform="translate(29.383 24.05)"/><path d="m355.327 123.814-.787-.454.787-.456z" transform="translate(24.913 16.436)"/><path d="m349.1 303.108-.385.222v-.445z" transform="translate(22.635 86.874)"/><path d="m355.256 292.95-.651-.376.651-.378z" transform="translate(24.939 82.691)"/><path d="m369.957 271.918-3.718 2.148v-4.3z" transform="translate(29.492 73.914)"/><path d="m377.234 266.414-7.675-4.431 7.675-4.433z" transform="translate(30.791 69.131)"/><path d="m397.637 242.184-16.025 9.251v-18.5z" transform="translate(35.508 59.497)"/><path d="m400.734 242.04-17.62-10.174 17.62-10.174z" transform="translate(36.096 55.098)"/><path d="m414.49 210.139-14.1 8.138v-16.277z" transform="translate(42.859 47.391)"/><path d="m416.02 206-11.791-6.809 11.791-6.809z" transform="translate(44.359 43.625)"/><path d="m413.094 188.686-12.26 7.079v-14.157z" transform="translate(43.031 39.411)"/><path d="m397.743 174.327-11.877-6.858 11.877-6.856z" transform="translate(37.173 31.194)"/><path d="m392.611 156.492-9.417 5.438v-10.874z" transform="translate(36.127 27.454)"/><path d="m374.849 136.1-3.1-1.788 3.1-1.788z" transform="translate(31.65 20.201)"/><path d="m367.96 123.41-1.091.631v-1.262z" transform="translate(29.739 16.387)"/><path d="m355.006 313.75-.171-.1.171-.1z" transform="translate(25.029 91.048)"/><path d="m367.694 292.589-.741.426v-.854z" transform="translate(29.772 82.676)"/><path d="m374.307 283.41-2.055-1.185 2.055-1.187z" transform="translate(31.846 78.323)"/><path d="m392.427 262.226-9.175 5.295v-10.591z" transform="translate(36.151 68.888)"/><path d="m398.661 260.246-13.638-7.872 13.638-7.874z" transform="translate(36.844 64.024)"/><path d="m416.558 231.735-16.816 9.707v-19.416z" transform="translate(42.604 55.229)"/><path d="m417.636 229.445-14.9-8.6 14.9-8.6z" transform="translate(43.777 51.401)"/><path d="m416.491 185.509-12.7-7.331 12.7-7.329z" transform="translate(44.19 35.2)"/><path d="m413.531 167.624-12.833 7.41v-14.819z" transform="translate(42.978 31.038)"/><path d="m395.836 150.461-8.215-4.742 8.215-4.742z" transform="translate(37.86 23.509)"/><path d="m389.006 134.569-4.675 2.7v-5.4z" transform="translate(36.572 19.945)"/><path d="m373.517 113.054-.54-.311.54-.313z" transform="translate(32.129 12.337)"/><path d="m367.151 102.082-.026.015v-.032z" transform="translate(29.839 8.281)"/><path d="m355.006 334.9-.171-.1.171-.1z" transform="translate(25.029 99.327)"/><path d="m367.253 313.648-.162.095v-.188z" transform="translate(29.825 91.049)"/><path d="m373.424 303.313-.361-.209.361-.21z" transform="translate(32.163 86.877)"/><path d="m387.456 282.319-2.637 1.52v-3.039z" transform="translate(36.764 78.229)"/><path d="m394.611 275.651-5.864-3.385 5.864-3.385z" transform="translate(38.301 73.566)"/><path d="m414.558 252.462-14.185 8.19v-16.378z" transform="translate(42.851 63.935)"/><path d="m418.123 251.292-15.83-9.139 15.83-9.139z" transform="translate(43.602 59.528)"/><path d="m416.992 165.068-13.66-7.887 13.66-7.885z" transform="translate(44.009 26.765)"/><path d="m412.262 146.2-11.162 6.447v-12.893z" transform="translate(43.134 23.03)"/><path d="m393.48 125.963-3.692-2.131 3.692-2.133z" transform="translate(38.708 15.965)"/><path d="m386.414 112.861-1.267.729v-1.461z" transform="translate(36.892 12.219)"/><path d="m367.257 334.8-.167.1v-.194z" transform="translate(29.825 99.327)"/><path d="m373.313 324.307-.145-.086.145-.082z" transform="translate(32.204 95.192)"/><path d="m385.8 303.121-.465.268v-.538z" transform="translate(36.967 86.86)"/><path d="m392.224 293.413-1.28-.737 1.28-.739z" transform="translate(39.16 82.589)"/><path d="m408.606 272.346-6.359 3.672v-7.344z" transform="translate(43.584 73.485)"/><path d="m415.348 268.5-10.5-6.063 10.5-6.063z" transform="translate(44.601 68.673)"/><path d="m415.391 141.638-10.585-6.11 10.585-6.112z" transform="translate(44.586 18.985)"/><path d="m408.436 124.229-6.136 3.541v-7.085z" transform="translate(43.606 15.568)"/><path d="m391.933 102.609-.72-.415.72-.415z" transform="translate(39.266 8.169)"/><path d="m385.5 91.51-.06.032v-.065z" transform="translate(37.005 4.136)"/><path d="m385.577 324.226-.166.1v-.194z" transform="translate(36.995 95.188)"/><path d="m391.683 313.8-.242-.141.242-.14z" transform="translate(39.355 91.036)"/><path d="m404.883 292.705-1.463.843v-1.686z" transform="translate(44.043 82.56)"/><path d="m411.564 284.285-3.238-1.868 3.238-1.868z" transform="translate(45.963 78.132)"/><path d="m412.173 115.914-4.407-2.544 4.407-2.544z" transform="translate(45.744 11.709)"/><path d="m404.943 102.328-1.541.888v-1.777z" transform="translate(44.036 8.035)"/><path d="m391.668 334.935-.214-.125.214-.123z" transform="translate(39.36 99.32)"/><path d="m403.983 313.667-.279.162v-.322z" transform="translate(44.154 91.03)"/><path d="m410.2 303.5-.622-.357.622-.361z" transform="translate(46.454 86.835)"/><path d="m410.216 91.982-.651-.376.651-.376z" transform="translate(46.448 4.04)"/><path d="m403.8 80.929-.039.022v-.045z" transform="translate(44.177)"/><path d="m403.954 334.815-.242.14v-.277z" transform="translate(44.157 99.316)"/><path d="m409.989 324.36-.216-.127.216-.125z" transform="translate(46.53 95.18)"/></g></g></svg>