<svg xmlns="http://www.w3.org/2000/svg" width="88" height="56.25" viewBox="0 0 88 56.25">
  <g id="Group_283" data-name="Group 283" transform="translate(-825 -142.875)">
    <rect id="ic_base" width="88" height="56" transform="translate(825 143)" fill="rgba(255,255,255,0)"/>
    <path id="Path_1467" data-name="Path 1467" d="M39.4,24.841A20,20,0,1,1,24.835.6,20,20,0,0,1,39.4,24.841h0Z" transform="translate(849 150.997)" fill="#02cecc"/>
    <path id="Path_1654" data-name="Path 1654" d="M54.378-10.689a3.819,3.819,0,0,0-5.353-.81L37.572-3.061H26.029A1.542,1.542,0,0,1,24.5-4.592a1.542,1.542,0,0,1,1.531-1.531h7.488A3.186,3.186,0,0,0,36.711-8.67a3.068,3.068,0,0,0-3.026-3.577H18.374A11.264,11.264,0,0,0,11.28-9.735L6.83-6.123h-5.3A1.542,1.542,0,0,0,0-4.592V4.594A1.542,1.542,0,0,0,1.531,6.125H34.738a10.027,10.027,0,0,0,5.9-1.94L53.568-5.339A3.824,3.824,0,0,0,54.378-10.689Z" transform="translate(825.872 193)" fill="#303fd0"/>
    <path id="Path_1655" data-name="Path 1655" d="M54.378-10.689a3.819,3.819,0,0,0-5.353-.81L37.572-3.061H26.029A1.542,1.542,0,0,1,24.5-4.592a1.542,1.542,0,0,1,1.531-1.531h7.488A3.186,3.186,0,0,0,36.711-8.67a3.068,3.068,0,0,0-3.026-3.577H18.374A11.264,11.264,0,0,0,11.28-9.735L6.83-6.123h-5.3A1.542,1.542,0,0,0,0-4.592V4.594A1.542,1.542,0,0,0,1.531,6.125H34.738a10.027,10.027,0,0,0,5.9-1.94L53.568-5.339A3.824,3.824,0,0,0,54.378-10.689Z" transform="translate(913 149) rotate(180)" fill="#50d0fe"/>
    <path id="Intersection_38" data-name="Intersection 38" d="M10208.288,1399.406q-.81-.2-1.587-.465h.87l11.454-8.438a3.826,3.826,0,1,1,4.541,6.16l-1.979,1.459a19.917,19.917,0,0,1-13.3,1.284Zm-7.328-3.527a20.035,20.035,0,0,1-5.289-6.124h8.014a3.067,3.067,0,0,1,3.026,3.578,3.183,3.183,0,0,1-3.193,2.546Z" transform="translate(-9344.129 -1209.002)" fill="#4fcffe"/>
    <path id="Intersection_37" data-name="Intersection 37" d="M10179.622,1376.814a3.822,3.822,0,0,1,.812-5.35l3.05-2.248a19.9,19.9,0,0,1,11.352-.5c.54.135,1.071.291,1.59.466l-11.45,8.436a3.815,3.815,0,0,1-5.353-.809Zm20.693,1.557a3.068,3.068,0,0,1-3.028-3.575,3.188,3.188,0,0,1,3.2-2.548h1.681a20.044,20.044,0,0,1,5.29,6.123Z" transform="translate(-9321 -1217.125)" fill="#51f6ff"/>
    <g id="Layer_x0020_1" transform="translate(857.001 151.464)">
      <g id="_1421394342400" transform="translate(3.669 5.975)">
        <g id="Group_119" data-name="Group 119">
          <path id="Path_1461" data-name="Path 1461" d="M383.682,0,383.5.618V18.555l.182.182,8.326-4.922Z" transform="translate(-375.356)" fill="#fff" opacity="0.85"/>
          <path id="Path_1462" data-name="Path 1462" d="M8.326,0,0,13.815l8.326,4.922V0Z" fill="#fff" opacity="0.85"/>
          <path id="Path_1463" data-name="Path 1463" d="M387.343,729.809l-.1.125v6.389l.1.3,8.331-11.733Z" transform="translate(-379.016 -709.496)" fill="#fff" opacity="0.85"/>
          <path id="Path_1464" data-name="Path 1464" d="M8.326,736.623v-6.814L0,724.89Z" transform="translate(0 -709.496)" fill="#fff" opacity="0.85"/>
          <path id="Path_1465" data-name="Path 1465" d="M392.07,481.036l8.326-4.922-8.326-3.785Z" transform="translate(-383.744 -462.299)" fill="#fff" opacity="0.85"/>
          <path id="Path_1466" data-name="Path 1466" d="M0,476.115l8.326,4.922V472.33Z" transform="translate(0 -462.299)" fill="#fff" opacity="0.85"/>
        </g>
      </g>
    </g>
  </g>
</svg>
