<svg width="16" height="16" viewBox="0 0 16 16" fill="none" xmlns="http://www.w3.org/2000/svg">
  <g clip-path="url(#clip0_7622_314674)">
    <path d="M10.4688 10L8.46875 8L10.4688 6" stroke="currentColor" stroke-width="1.3"
      stroke-linecap="round" stroke-linejoin="round" />
    <path d="M4.67187 14.3996L4.67188 1.59961" stroke="currentColor" stroke-width="1.3"
      stroke-linecap="round" stroke-linejoin="round" />
    <path d="M1 5C1 2.79086 2.79086 1 5 1V15C2.79086 15 1 13.2091 1 11V5Z" fill="currentColor" />
    <path
      d="M1.33594 7.99967C1.33594 4.85698 1.33594 3.28563 2.31225 2.30932C3.28856 1.33301 4.85991 1.33301 8.0026 1.33301C11.1453 1.33301 12.7166 1.33301 13.693 2.30932C14.6693 3.28563 14.6693 4.85698 14.6693 7.99967C14.6693 11.1424 14.6693 12.7137 13.693 13.69C12.7166 14.6663 11.1453 14.6663 8.0026 14.6663C4.85991 14.6663 3.28856 14.6663 2.31225 13.69C1.33594 12.7137 1.33594 11.1424 1.33594 7.99967Z"
      stroke="currentColor" stroke-width="1.3" stroke-linecap="round" stroke-linejoin="round" />
  </g>
  <defs>
    <clipPath id="clip0_7622_314674">
      <rect width="16" height="16" rx="5" fill="white" />
    </clipPath>
  </defs>
</svg>
