<svg width="320" height="249" fill="none" xmlns="http://www.w3.org/2000/svg"><path fill-rule="evenodd" clip-rule="evenodd" d="M94.653 248.11c-34.313 0-66.522-7.324-94.393-20.155l113.393-103.499c-15.662-12.849-25.655-32.355-25.655-54.194 0-22.237 10.36-42.054 26.516-54.888V.202h43.068l.478-.001c17.514 0 33.527 6.426 45.81 17.05C216.153 6.628 232.165.202 249.679.202h.104l.003-.002.002.002h43.437v15.173c16.156 12.835 26.515 32.652 26.515 54.889 0 27.963-16.382 52.1-40.072 63.337-8.47 25.007-24.402 47.499-45.726 65.794v32.332h-53.604c-25.79 10.484-54.891 16.383-85.685 16.383Zm63.406-123.953a53.671 53.671 0 0 0 33.703-11.835l11.999 27.018 12.056-27.146a53.67 53.67 0 0 0 33.861 11.963c29.765 0 53.893-24.128 53.893-53.893 0-29.764-24.128-53.893-53.893-53.893-19.34 0-36.301 10.187-45.809 25.489-9.508-15.302-26.469-25.49-45.81-25.49-29.764 0-53.893 24.13-53.893 53.894 0 29.765 24.129 53.893 53.893 53.893Zm0-16.168c20.835 0 37.725-16.89 37.725-37.725s-16.89-37.726-37.725-37.726-37.725 16.89-37.725 37.726c0 20.835 16.89 37.725 37.725 37.725Zm0-16.168c11.906 0 21.558-9.651 21.558-21.557 0-11.906-9.652-21.558-21.558-21.558s-21.557 9.652-21.557 21.558 9.651 21.557 21.557 21.557Zm129.344-21.557c0 20.835-16.89 37.725-37.725 37.725s-37.726-16.89-37.726-37.725 16.891-37.726 37.726-37.726 37.725 16.89 37.725 37.726Zm-16.168 0c0 11.906-9.651 21.557-21.557 21.557-11.906 0-21.558-9.651-21.558-21.557 0-11.906 9.652-21.558 21.558-21.558s21.557 9.652 21.557 21.558Z" fill="#fff"/></svg>
