<svg height="22.093" viewBox="0 0 19.34 22.093" width="19.34" xmlns="http://www.w3.org/2000/svg"><g transform="translate(-6.423 -83.162)"><path d="m16.092 83.162-9.67 5.523v11.047l9.67 5.523 9.67-5.523v-11.047zm0 0-9.67 5.523v11.047l9.67 5.523 9.67-5.523v-11.047z" fill="#fff"/><path d="m19.91 100.94h-1.376l-1.647-1.5v-.767l1.705-1.611v-2.547l2.229-1.438 2.539 1.9zm-5.7-4.027.252-2.4-.833-2.148h4.922l-.814 2.148.233 2.4h-3.757zm1.124 2.532-1.647 1.515h-1.4l-3.462-5.984 2.558-1.876 2.248 1.419v2.551l1.705 1.611zm-3.059-11.508h7.616l.911 3.836h-9.419zm3.818-4.775-9.67 5.523v11.047l9.67 5.523 9.67-5.523v-11.047z" fill="#03316c"/></g></svg>