<svg width="18" height="18" viewBox="0 0 18 18" fill="none" xmlns="http://www.w3.org/2000/svg">
<path d="M14.625 18C14.3062 18 14.0392 17.892 13.824 17.676C13.6087 17.46 13.5007 17.193 13.5 16.875V11.25C13.5 10.9312 13.608 10.6642 13.824 10.449C14.04 10.2337 14.307 10.1257 14.625 10.125H16.875C17.1937 10.125 17.4611 10.233 17.6771 10.449C17.8931 10.665 18.0007 10.932 18 11.25V16.875C18 17.1937 17.892 17.4611 17.676 17.6771C17.46 17.8931 17.193 18.0007 16.875 18H14.625ZM7.875 18C7.55625 18 7.28925 17.892 7.074 17.676C6.85875 17.46 6.75075 17.193 6.75 16.875V1.125C6.75 0.80625 6.858 0.53925 7.074 0.324C7.29 0.10875 7.557 0.00075 7.875 0H10.125C10.4437 0 10.7111 0.108 10.9271 0.324C11.1431 0.54 11.2507 0.807 11.25 1.125V16.875C11.25 17.1937 11.142 17.4611 10.926 17.6771C10.71 17.8931 10.443 18.0007 10.125 18H7.875ZM1.125 18C0.80625 18 0.53925 17.892 0.324 17.676C0.10875 17.46 0.00075 17.193 0 16.875V6.75C0 6.43125 0.108 6.16425 0.324 5.949C0.54 5.73375 0.807 5.62575 1.125 5.625H3.375C3.69375 5.625 3.96112 5.733 4.17712 5.949C4.39312 6.165 4.50075 6.432 4.5 6.75V16.875C4.5 17.1937 4.392 17.4611 4.176 17.6771C3.96 17.8931 3.693 18.0007 3.375 18H1.125Z" fill="currentColor"/>
</svg>
