<svg viewBox="0 0 20 20" fill="none" xmlns="http://www.w3.org/2000/svg">
  <path
    d="M1.66699 9.99935C1.66699 6.07098 1.66699 4.10679 2.88738 2.8864C4.10777 1.66602 6.07195 1.66602 10.0003 1.66602C13.9287 1.66602 15.8929 1.66602 17.1133 2.8864C18.3337 4.10679 18.3337 6.07098 18.3337 9.99935C18.3337 13.9277 18.3337 15.8919 17.1133 17.1123C15.8929 18.3327 13.9287 18.3327 10.0003 18.3327C6.07195 18.3327 4.10777 18.3327 2.88738 17.1123C1.66699 15.8919 1.66699 13.9277 1.66699 9.99935Z"
    stroke="currentColor" stroke-width="1.3" stroke-linecap="round" />
  <path
    d="M5.83301 11.6673L7.33042 9.87043C7.92379 9.15838 8.22047 8.80236 8.61079 8.80236C9.0011 8.80236 9.29778 9.15838 9.89115 9.87043L10.1082 10.1309C10.7016 10.8429 10.9983 11.1989 11.3886 11.1989C11.7789 11.1989 12.0756 10.8429 12.6689 10.1309L14.1663 8.33398"
    stroke="currentColor" stroke-width="1.3" stroke-linecap="round" />
</svg>
  
