<svg viewBox="0 0 24 24" fill="none" xmlns="http://www.w3.org/2000/svg">
  <path
    d="M12 2.5C14.3099 2.50002 16.4485 2.89582 18.0469 3.5752C18.8442 3.91411 19.5541 4.34352 20.0791 4.87109C20.6081 5.40275 20.999 6.08987 20.999 6.90039C20.999 6.92033 20.9975 6.94017 20.9971 6.95996V12H20.999C20.999 12.0199 20.9975 12.0398 20.9971 12.0596V17.0996H20.999C20.999 17.9101 20.608 18.5973 20.0791 19.1289C19.5542 19.6564 18.8441 20.0849 18.0469 20.4238C16.4484 21.1033 14.31 21.5 12 21.5C9.68992 21.5 7.55063 21.1033 5.95215 20.4238C5.15523 20.085 4.44571 19.6562 3.9209 19.1289C3.39196 18.5973 3.00098 17.9101 3.00098 17.0996L3.00098 6.90039C3.00098 6.08987 3.3919 5.40275 3.9209 4.87109C4.44579 4.34365 5.15501 3.91406 5.95215 3.5752C7.55063 2.89573 9.68992 2.5 12 2.5ZM5.00098 17.0996C5.00098 17.2279 5.05853 17.436 5.33887 17.7178C5.62342 18.0036 6.08544 18.3077 6.73535 18.584C8.03187 19.135 9.89269 19.5 12 19.5C14.1074 19.5 15.9682 19.135 17.2646 18.584C17.9147 18.3077 18.3766 18.0037 18.6611 17.7178C18.934 17.4435 18.994 17.2394 18.9971 17.1104V14.8467C18.7001 15.0214 18.3819 15.1818 18.0469 15.3242C16.4484 16.0037 14.31 16.4004 12 16.4004C9.68992 16.4004 7.55063 16.0037 5.95215 15.3242C5.61673 15.1816 5.29815 15.0208 5.00098 14.8457V17.0996ZM5.00098 12C5.00098 12.1283 5.05837 12.3363 5.33887 12.6182C5.62344 12.9041 6.08537 13.2081 6.73535 13.4844C8.03187 14.0354 9.89269 14.4004 12 14.4004C14.1074 14.4004 15.9682 14.0354 17.2646 13.4844C17.9147 13.208 18.3766 12.9041 18.6611 12.6182C18.9305 12.3475 18.9924 12.1449 18.9971 12.0156V9.74707C18.7002 9.92194 18.3818 10.0822 18.0469 10.2246C16.4485 10.904 14.3099 11.2998 12 11.2998C9.68994 11.2998 7.55063 10.9041 5.95215 10.2246C5.61674 10.082 5.29806 9.92131 5.00098 9.74609V12ZM12 4.5C9.89262 4.5 8.03187 4.86498 6.73535 5.41602C6.08528 5.69235 5.62342 5.99629 5.33887 6.28223C5.05842 6.56409 5.00098 6.77205 5.00098 6.90039C5.00111 7.02877 5.05869 7.23699 5.33887 7.51855C5.62346 7.80439 6.08554 8.10758 6.73535 8.38379C8.03187 8.93484 9.89258 9.2998 12 9.2998C14.1075 9.29979 15.9681 8.93488 17.2646 8.38379C17.9146 8.10753 18.3766 7.80443 18.6611 7.51855C18.9302 7.24818 18.9923 7.04537 18.9971 6.91602V6.88867C18.9936 6.75957 18.9332 6.55569 18.6611 6.28223C18.3766 5.99627 17.9148 5.69238 17.2646 5.41602C15.9681 4.86494 14.1075 4.50002 12 4.5Z"
    fill="currentColor" />
</svg>
  
