<svg width="15" height="18" viewBox="0 0 15 18" fill="none" xmlns="http://www.w3.org/2000/svg">
<path fill-rule="evenodd" clip-rule="evenodd" d="M0 3.97645C0 2.68583 1.02994 1.68641 2.30863 1.04707C3.62489 0.388939 5.39933 0 7.32505 0C9.25076 0 11.0252 0.388939 12.3415 1.04707C13.6202 1.68641 14.6501 2.68583 14.6501 3.97645V14.0222C14.6501 15.3129 13.6202 16.3123 12.3415 16.9516C11.0252 17.6097 9.25076 17.9987 7.32505 17.9987C5.39933 17.9987 3.62489 17.6097 2.30863 16.9516C1.02994 16.3123 0 15.3129 0 14.0222V3.97645ZM1.25572 3.97645C1.25572 3.4177 1.725 2.74282 2.87021 2.17022C3.97786 1.61639 5.55201 1.25572 7.32505 1.25572C9.09809 1.25572 10.6722 1.61639 11.7799 2.17022C12.9251 2.74282 13.3944 3.4177 13.3944 3.97645C13.3944 4.53521 12.9251 5.21009 11.7799 5.78269C10.6722 6.33652 9.09809 6.69719 7.32505 6.69719C5.55201 6.69719 3.97786 6.33652 2.87021 5.78269C1.725 5.21009 1.25572 4.53521 1.25572 3.97645ZM1.25572 14.0222C1.25572 14.581 1.725 15.2559 2.87021 15.8285C3.97786 16.3823 5.55201 16.743 7.32505 16.743C9.09809 16.743 10.6722 16.3823 11.7799 15.8285C12.9251 15.2559 13.3944 14.581 13.3944 14.0222V11.2657C13.079 11.5173 12.7212 11.7389 12.3415 11.9287C11.0252 12.5869 9.25076 12.9758 7.32505 12.9758C5.39933 12.9758 3.62489 12.5869 2.30863 11.9287C1.92891 11.7389 1.57112 11.5173 1.25572 11.2657V14.0222ZM13.3944 6.2428V8.99934C13.3944 9.5581 12.9251 10.233 11.7799 10.8056C10.6722 11.3594 9.09809 11.7201 7.32505 11.7201C5.55201 11.7201 3.97786 11.3594 2.87021 10.8056C1.725 10.233 1.25572 9.5581 1.25572 8.99934V6.2428C1.57112 6.49436 1.92891 6.71598 2.30863 6.90584C3.62489 7.56397 5.39933 7.95291 7.32505 7.95291C9.25076 7.95291 11.0252 7.56397 12.3415 6.90584C12.7212 6.71598 13.079 6.49436 13.3944 6.2428Z" fill="currentColor"/>
</svg>
