<svg viewBox="0 0 20 20" fill="none" xmlns="http://www.w3.org/2000/svg">
  <path
    d="M10 2.26562C11.9062 2.26566 13.6635 2.59312 14.9678 3.14746C15.6185 3.42409 16.1872 3.77115 16.6025 4.18848C17.0203 4.60845 17.3152 5.1365 17.3154 5.74902C17.3154 5.75449 17.3145 5.76017 17.3145 5.76562V10H17.3154C17.3154 10.0055 17.3145 10.0111 17.3145 10.0166V14.25H17.3154C17.3153 14.8628 17.0205 15.3914 16.6025 15.8115C16.1872 16.2288 15.6184 16.575 14.9678 16.8516C13.6635 17.4059 11.9062 17.7334 10 17.7334C8.09367 17.7334 6.33653 17.406 5.03223 16.8516C4.38148 16.5749 3.81284 16.2289 3.39746 15.8115C3.03166 15.4439 2.75961 14.9931 2.69727 14.4756L2.68359 14.25L2.68359 5.74902C2.68379 5.13638 2.97956 4.60848 3.39746 4.18848C3.81286 3.77101 4.38135 3.42415 5.03223 3.14746C6.33652 2.5931 8.09374 2.26566 10 2.26562ZM3.98438 14.25L3.98828 14.3154C4.00661 14.4741 4.09391 14.6689 4.31836 14.8945C4.5775 15.155 4.9858 15.4193 5.54102 15.6553C6.64906 16.1262 8.22544 16.4336 10 16.4336C11.7745 16.4336 13.3509 16.1262 14.459 15.6553C15.0139 15.4194 15.4215 15.1548 15.6807 14.8945C15.9311 14.6428 16.011 14.4294 16.0146 14.2617C16.0146 14.2578 16.0137 14.2539 16.0137 14.25V12.041C15.7027 12.2515 15.3496 12.4392 14.9678 12.6016C13.6635 13.1559 11.9062 13.4834 10 13.4834C8.09367 13.4834 6.33653 13.156 5.03223 12.6016C4.64929 12.4388 4.2959 12.2503 3.98438 12.0391V14.25ZM3.98438 10L3.98828 10.0654C4.00661 10.2241 4.0939 10.4189 4.31836 10.6445C4.5775 10.905 4.9858 11.1693 5.54102 11.4053C6.64906 11.8762 8.22544 12.1836 10 12.1836C11.7745 12.1836 13.3509 11.8762 14.459 11.4053C15.0139 11.1694 15.4215 10.9048 15.6807 10.6445C15.921 10.403 16.004 10.1966 16.0137 10.0322V7.79102C15.7028 8.00177 15.3497 8.18921 14.9678 8.35156C13.6635 8.90594 11.9063 9.23239 10 9.23242C8.09377 9.23238 6.33651 8.90591 5.03223 8.35156C4.64933 8.18878 4.29582 8.0005 3.98438 7.78906V10ZM10 3.56641C8.22551 3.56644 6.64905 3.87286 5.54102 4.34375C4.98582 4.57977 4.57749 4.84504 4.31836 5.10547C4.06244 5.3628 3.98456 5.57971 3.98438 5.74902C3.98438 5.9184 4.06223 6.13597 4.31836 6.39355C4.57747 6.65395 4.9859 6.9183 5.54102 7.1543C6.64906 7.62525 8.22536 7.93258 10 7.93262C11.7746 7.93258 13.3509 7.62525 14.459 7.1543C15.0141 6.91831 15.4215 6.65395 15.6807 6.39355C15.9208 6.15223 16.0039 5.94657 16.0137 5.78223V5.75C16.0137 5.74586 16.0146 5.74143 16.0146 5.7373C16.0109 5.56971 15.9309 5.35699 15.6807 5.10547C15.4215 4.8451 15.0141 4.5797 14.459 4.34375C13.3509 3.87283 11.7746 3.56644 10 3.56641Z"
    fill="currentColor" />
</svg>
  
