<svg viewBox="0 0 20 20" fill="none" xmlns="http://www.w3.org/2000/svg">
  <path
    d="M2.5 8.33268C2.5 5.18998 2.5 3.61864 3.47631 2.64233C4.45262 1.66602 6.02397 1.66602 9.16667 1.66602H10.8333C13.976 1.66602 15.5474 1.66602 16.5237 2.64233C17.5 3.61864 17.5 5.18998 17.5 8.33268V11.666C17.5 14.8087 17.5 16.3801 16.5237 17.3564C15.5474 18.3327 13.976 18.3327 10.8333 18.3327H9.16667C6.02397 18.3327 4.45262 18.3327 3.47631 17.3564C2.5 16.3801 2.5 14.8087 2.5 11.666V8.33268Z"
    stroke="#696D96" stroke-width="1.3" />
  <path d="M6.66699 10H13.3337" stroke="#696D96" stroke-width="1.3" stroke-linecap="round" />
  <path d="M6.66699 6.66602H13.3337" stroke="#696D96" stroke-width="1.3" stroke-linecap="round" />
  <path d="M6.66699 13.334H10.8337" stroke="#696D96" stroke-width="1.3" stroke-linecap="round" />
</svg>
  
