<svg width="16" height="20" viewBox="0 0 16 20" fill="none" xmlns="http://www.w3.org/2000/svg">
<path d="M5 11H11C11.2833 11 11.521 10.904 11.713 10.712C11.905 10.52 12.0007 10.2827 12 10C11.9993 9.71733 11.9033 9.48 11.712 9.288C11.5207 9.096 11.2833 9 11 9H5C4.71667 9 4.47933 9.096 4.288 9.288C4.09667 9.48 4.00067 9.71733 4 10C3.99933 10.2827 4.09533 10.5203 4.288 10.713C4.48067 10.9057 4.718 11.0013 5 11ZM5 14H11C11.2833 14 11.521 13.904 11.713 13.712C11.905 13.52 12.0007 13.2827 12 13C11.9993 12.7173 11.9033 12.48 11.712 12.288C11.5207 12.096 11.2833 12 11 12H5C4.71667 12 4.47933 12.096 4.288 12.288C4.09667 12.48 4.00067 12.7173 4 13C3.99933 13.2827 4.09533 13.5203 4.288 13.713C4.48067 13.9057 4.718 14.0013 5 14ZM5 17H8C8.28333 17 8.521 16.904 8.713 16.712C8.905 16.52 9.00067 16.2827 9 16C8.99933 15.7173 8.90333 15.48 8.712 15.288C8.52067 15.096 8.28333 15 8 15H5C4.71667 15 4.47933 15.096 4.288 15.288C4.09667 15.48 4.00067 15.7173 4 16C3.99933 16.2827 4.09533 16.5203 4.288 16.713C4.48067 16.9057 4.718 17.0013 5 17ZM2 20C1.45 20 0.979333 19.8043 0.588 19.413C0.196666 19.0217 0.000666667 18.5507 0 18V2C0 1.45 0.196 0.979333 0.588 0.588C0.98 0.196667 1.45067 0.000666667 2 0H9.175C9.44167 0 9.696 0.0500001 9.938 0.15C10.18 0.25 10.3923 0.391667 10.575 0.575L15.425 5.425C15.6083 5.60833 15.75 5.821 15.85 6.063C15.95 6.305 16 6.559 16 6.825V18C16 18.55 15.8043 19.021 15.413 19.413C15.0217 19.805 14.5507 20.0007 14 20H2ZM9 6C9 6.28333 9.096 6.521 9.288 6.713C9.48 6.905 9.71733 7.00067 10 7H14L9 2V6Z" fill="currentColor"/>
</svg>
