<svg xmlns="http://www.w3.org/2000/svg" width="8" height="16" viewBox="0 0 8 16">
  <path id="DROP_DOWN" d="M3.575,15.811l-3.4-3.689a.693.693,0,0,1,0-.922l.574-.6a.558.558,0,0,1,.426-.19.555.555,0,0,1,.425.19l2.4,2.6,2.4-2.6a.571.571,0,0,1,.851,0l.574.6a.693.693,0,0,1,0,.922l-3.4,3.689a.573.573,0,0,1-.851,0ZM6.425,5.4,4,2.794,1.6,5.4a.554.554,0,0,1-.425.189A.557.557,0,0,1,.75,5.4L.176,4.8a.692.692,0,0,1,0-.922L3.575.19a.571.571,0,0,1,.851,0l3.4,3.689a.693.693,0,0,1,0,.922l-.574.6a.556.556,0,0,1-.425.189A.484.484,0,0,1,6.425,5.4Z" fill="#fff"/>
</svg>
