<svg viewBox="0 0 20 20" fill="none" xmlns="http://www.w3.org/2000/svg">
  <path
    d="M10 2.26562C11.9062 2.26566 13.6635 2.59312 14.9678 3.14746C15.6185 3.42409 16.1872 3.77115 16.6025 4.18848C17.0203 4.60845 17.3152 5.1365 17.3154 5.74902C17.3154 6.36185 17.0205 6.89042 16.6025 7.31055C16.1871 7.72799 15.6186 8.07488 14.9678 8.35156C13.6635 8.90594 11.9063 9.23239 10 9.23242C8.09377 9.23238 6.33651 8.90591 5.03223 8.35156C4.66957 8.19739 4.33342 8.02009 4.03418 7.82227V10.2373C4.0823 10.3582 4.16949 10.4949 4.31836 10.6445C4.5775 10.905 4.9858 11.1693 5.54102 11.4053C6.64906 11.8762 8.22544 12.1836 10 12.1836C10.3587 12.1838 10.6492 12.4743 10.6494 12.833C10.6492 13.1917 10.3587 13.4832 10 13.4834C8.09367 13.4834 6.33653 13.156 5.03223 12.6016C4.66954 12.4474 4.33349 12.2699 4.03418 12.0723V14.25C4.03415 14.3088 4.02445 14.3653 4.01074 14.4199C4.05052 14.557 4.14109 14.7164 4.31836 14.8945C4.5775 15.155 4.9858 15.4193 5.54102 15.6553C6.64906 16.1262 8.22544 16.4336 10 16.4336C10.3587 16.4338 10.6492 16.7243 10.6494 17.083C10.6492 17.4417 10.3587 17.7332 10 17.7334C8.09367 17.7334 6.33653 17.406 5.03223 16.8516C4.38148 16.5749 3.81284 16.2289 3.39746 15.8115C3.05332 15.4657 2.79454 15.0457 2.71289 14.5664C2.66418 14.4711 2.63384 14.3644 2.63379 14.25L2.63379 5.75C2.63379 5.6354 2.66405 5.52812 2.71289 5.43262C2.7946 4.95359 3.05342 4.53425 3.39746 4.18848C3.81286 3.77101 4.38135 3.42415 5.03223 3.14746C6.33652 2.5931 8.09374 2.26566 10 2.26562ZM10 3.56641C8.22551 3.56644 6.64905 3.87286 5.54102 4.34375C4.98582 4.57977 4.57749 4.84504 4.31836 5.10547C4.14183 5.28297 4.05077 5.44152 4.01074 5.57812C4.02468 5.63321 4.03418 5.69059 4.03418 5.75V5.9873C4.08233 6.10806 4.16989 6.24424 4.31836 6.39355C4.57747 6.65395 4.9859 6.9183 5.54102 7.1543C6.64906 7.62525 8.22536 7.93258 10 7.93262C11.7746 7.93258 13.3509 7.62525 14.459 7.1543C15.0141 6.91831 15.4215 6.65395 15.6807 6.39355C15.9372 6.13576 16.0156 5.91851 16.0156 5.74902C16.0154 5.57965 15.9368 5.36291 15.6807 5.10547C15.4215 4.8451 15.0141 4.5797 14.459 4.34375C13.3509 3.87283 11.7746 3.56644 10 3.56641Z"
    fill="currentColor" />
  <path d="M16 11L16 17" stroke="currentColor" stroke-width="1.3" stroke-linecap="round" />
  <path d="M19 14L13 14" stroke="currentColor" stroke-width="1.3" stroke-linecap="round" />
</svg>
  
