<svg width="18" height="18" viewBox="0 0 18 18" fill="none" xmlns="http://www.w3.org/2000/svg">
<path d="M14 10C14.2827 9.99934 14.5202 10.0954 14.7129 10.2881C14.9056 10.4808 15.0013 10.718 15 11V13H17C17.2833 13 17.5209 13.0961 17.7129 13.2881C17.9049 13.4801 18.0007 13.7173 18 14C17.9993 14.2827 17.9032 14.5202 17.7119 14.7129C17.5206 14.9056 17.2833 15.0013 17 15H15V17C15 17.2833 14.9039 17.5209 14.7119 17.7129C14.5199 17.9049 14.2827 18.0007 14 18C13.7173 17.9993 13.4801 17.9032 13.2881 17.7119C13.0961 17.5206 13 17.2833 13 17V15H11C10.7167 15 10.4794 14.9039 10.2881 14.7119C10.0968 14.5199 10.0007 14.2827 10 14C9.99933 13.7173 10.0954 13.4801 10.2881 13.2881C10.4808 13.0961 10.718 13 11 13H13V11C13 10.7167 13.0961 10.4794 13.2881 10.2881C13.4801 10.0968 13.7173 10.0007 14 10ZM9 3.16029e-06C10.232 -0.000663506 11.3949 0.104146 12.4883 0.31348C13.5813 0.522773 14.5351 0.8096 15.3496 1.17481C16.1643 1.54014 16.8108 1.96553 17.2881 2.4502C17.7653 2.93482 18.0027 3.45139 18 4C17.9973 4.54861 17.76 5.06518 17.2881 5.54981C16.8161 6.03447 16.1696 6.45987 15.3496 6.8252C14.5297 7.19042 13.5757 7.47852 12.4873 7.68848C11.3986 7.89848 10.236 8.002 9 8C7.58341 8 6.27514 7.87498 5.0752 7.625C3.87527 7.37502 2.84997 7.00868 2 6.52539V9.04981C2.56657 9.56638 3.25371 9.96668 4.06152 10.25C4.86952 10.5333 5.70786 10.7329 6.5752 10.8496C6.85844 10.883 7.0874 11.0003 7.2627 11.2002C7.43799 11.4002 7.52602 11.6416 7.52539 11.9248C7.52539 12.1915 7.43333 12.4213 7.25 12.6133C7.06672 12.8051 6.84173 12.8836 6.5752 12.8496C5.79195 12.7663 4.98362 12.6123 4.15039 12.3877C3.31713 12.1631 2.59997 11.876 2 11.5254V14C2.19999 14.3833 2.79993 14.7459 3.7998 15.0879C4.79972 15.4299 6.14981 15.6836 7.84961 15.8496C8.13286 15.8829 8.36277 16.0081 8.53809 16.2246C8.71334 16.4412 8.80039 16.6914 8.7998 16.9746C8.79914 17.2579 8.708 17.5002 8.52539 17.7002C8.34276 17.9002 8.10912 17.9912 7.8252 17.9746C6.7752 17.9413 5.77922 17.8163 4.83789 17.5996C4.7203 17.5725 4.60433 17.5449 4.49023 17.5156C3.69004 17.311 2.97621 17.0522 2.34961 16.7383C2.03032 16.5783 1.74097 16.406 1.47949 16.2246C1.22738 16.0499 1.00165 15.8664 0.803711 15.6719L0.637695 15.5C0.212456 15.0334 0 14.5333 0 14V4C1.87179e-06 3.45006 0.237658 2.93349 0.712891 2.4502C1.18822 1.96687 1.83439 1.54147 2.65039 1.17481C3.46621 0.80827 4.42037 0.52144 5.5127 0.31348C6.60536 0.10548 7.768 0.000669827 9 3.16029e-06ZM9 2C7.48339 2 5.99603 2.2124 4.53809 2.6377C3.08009 3.06303 2.234 3.52606 2 4.02539C2.25021 4.50861 3.12159 4.95842 4.61328 5.375C6.10519 5.79162 7.56742 6 9 6C10.4666 6 11.9543 5.78761 13.4629 5.36231C14.9712 4.93707 15.8171 4.49159 16 4.02637C15.8167 3.54308 14.9794 3.08467 13.4883 2.65137C11.9969 2.21804 10.5007 2.00067 9 2Z" fill="currentColor"/>
</svg>
