<svg width="18" height="18" viewBox="0 0 18 18" fill="none" xmlns="http://www.w3.org/2000/svg">
<path d="M5.4 7.2H1.8C1.305 7.2 0.8814 7.0239 0.5292 6.6717C0.177 6.3195 0.0006 5.8956 0 5.4V1.8C0 1.305 0.1764 0.8814 0.5292 0.5292C0.882 0.177 1.3056 0.0006 1.8 0H5.4C5.895 0 6.3189 0.1764 6.6717 0.5292C7.0245 0.882 7.2006 1.3056 7.2 1.8V5.4C7.2 5.895 7.0239 6.3189 6.6717 6.6717C6.3195 7.0245 5.8956 7.2006 5.4 7.2ZM5.4 18H1.8C1.305 18 0.8814 17.8239 0.5292 17.4717C0.177 17.1195 0.0006 16.6956 0 16.2V12.6C0 12.105 0.1764 11.6814 0.5292 11.3292C0.882 10.977 1.3056 10.8006 1.8 10.8H5.4C5.895 10.8 6.3189 10.9764 6.6717 11.3292C7.0245 11.682 7.2006 12.1056 7.2 12.6V16.2C7.2 16.695 7.0239 17.1189 6.6717 17.4717C6.3195 17.8245 5.8956 18.0006 5.4 18ZM16.2 7.2H12.6C12.105 7.2 11.6814 7.0239 11.3292 6.6717C10.977 6.3195 10.8006 5.8956 10.8 5.4V1.8C10.8 1.305 10.9764 0.8814 11.3292 0.5292C11.682 0.177 12.1056 0.0006 12.6 0H16.2C16.695 0 17.1189 0.1764 17.4717 0.5292C17.8245 0.882 18.0006 1.3056 18 1.8V5.4C18 5.895 17.8239 6.3189 17.4717 6.6717C17.1195 7.0245 16.6956 7.2006 16.2 7.2ZM16.2 18H12.6C12.105 18 11.6814 17.8239 11.3292 17.4717C10.977 17.1195 10.8006 16.6956 10.8 16.2V12.6C10.8 12.105 10.9764 11.6814 11.3292 11.3292C11.682 10.977 12.1056 10.8006 12.6 10.8H16.2C16.695 10.8 17.1189 10.9764 17.4717 11.3292C17.8245 11.682 18.0006 12.1056 18 12.6V16.2C18 16.695 17.8239 17.1189 17.4717 17.4717C17.1195 17.8245 16.6956 18.0006 16.2 18Z" fill="currentColor"/>
</svg>
