<svg viewBox="0 0 20 20" fill="none" xmlns="http://www.w3.org/2000/svg">
  <path d="M8 8H12V12H8V8Z" stroke="currentColor" stroke-width="1.3" />
  <path
    d="M12 12.0004L14.4998 12C15.8804 11.9998 16.9998 13.1189 17 14.4996C17.0002 15.8803 15.8812 16.9998 14.5006 17C13.12 17.0002 12.0006 15.8811 12.0004 14.5004L12 12.0004Z"
    stroke="currentColor" stroke-width="1.3" />
  <path
    d="M8 12.0004L5.5002 12C4.11959 11.9998 3.00022 13.1189 3 14.4996C2.99978 15.8803 4.11881 16.9998 5.49941 17C6.88001 17.0002 7.99939 15.8811 7.99961 14.5004L8 12.0004Z"
    stroke="currentColor" stroke-width="1.3" />
  <path
    d="M12 7.99961L14.4998 8C15.8804 8.00022 16.9998 6.88111 17 5.50039C17.0002 4.11968 15.8812 3.00022 14.5006 3C13.12 2.99978 12.0006 4.11889 12.0004 5.49961L12 7.99961Z"
    stroke="currentColor" stroke-width="1.3" />
  <path
    d="M8 7.99961L5.5002 8C4.11959 8.00022 3.00022 6.88111 3 5.50039C2.99978 4.11968 4.11881 3.00022 5.49941 3C6.88001 2.99978 7.99939 4.11889 7.99961 5.49961L8 7.99961Z"
    stroke="currentColor" stroke-width="1.3" />
</svg>
