<svg width="208" height="213" viewBox="0 0 208 213" fill="none" xmlns="http://www.w3.org/2000/svg">
<circle cx="103.929" cy="103.845" r="103.831" fill="#FF7028" fill-opacity="0.15"/>
<circle cx="103.929" cy="103.845" r="102.9" stroke="#FF7028" stroke-opacity="0.1" stroke-width="1.86095"/>
<path d="M22.7794 115.488L166.914 63.0669L205.699 159.389L55.5778 211.208L22.7794 115.488Z" fill="#FF7028"/>
<path d="M22.7799 115.497L71.593 36.1192C73.6594 32.758 77.808 31.2984 81.5252 32.6237L166.915 63.076" fill="#FF7028"/>
<g opacity="0.3">
<path d="M22.7799 115.497L71.593 36.1192C73.6594 32.758 77.808 31.2984 81.5252 32.6237L166.915 63.076" fill="black"/>
</g>
<path d="M55.579 211.2C55.3391 211.095 62.4389 194.415 71.4348 173.946C80.434 153.47 87.9226 136.962 88.1622 137.066C88.4021 137.17 81.3033 153.847 72.3041 174.323C63.3082 194.791 55.8186 211.303 55.579 211.2Z" fill="#263238"/>
<path d="M205.691 159.384C205.565 159.612 189.92 151.304 170.752 140.829C151.578 130.35 136.143 121.671 136.268 121.443C136.395 121.215 152.036 129.521 171.211 140C190.379 150.475 205.818 159.155 205.691 159.384Z" fill="#263238"/>
<g opacity="0.5">
<path d="M166.906 63.06L114.851 146.536L22.7717 115.481" fill="black"/>
</g>
<path d="M31.9592 118.243L15.7669 73.4152L141.771 26.9402L159.997 73.6819L114.587 145.792L31.9592 118.243Z" fill="#FAFAFA"/>
<path d="M31.9559 118.243C31.9559 118.243 32.48 118.395 33.4738 118.715C34.4783 119.043 35.9468 119.521 37.8609 120.145C41.7104 121.413 47.3447 123.27 54.5454 125.643C68.9445 130.417 89.5943 137.264 114.656 145.573L114.387 145.67C127.462 124.882 142.973 100.221 159.758 73.5359L159.734 73.7838C156.257 64.8665 152.607 55.5123 148.894 45.9924C146.396 39.5843 143.927 33.2512 141.507 27.0415L141.864 27.2018C91.0772 45.8919 46.2735 62.3798 15.8248 73.5851L15.9329 73.3553C20.9888 87.4618 25.0027 98.6636 27.7592 106.354C29.1252 110.196 30.1784 113.158 30.8962 115.174C31.246 116.171 31.5124 116.932 31.6967 117.457C31.8749 117.971 31.9559 118.243 31.9559 118.243C31.9559 118.243 31.85 117.995 31.661 117.492C31.4676 116.974 31.1895 116.225 30.8242 115.243C30.0887 113.239 29.0088 110.295 27.6084 106.476C24.8074 98.7862 20.7289 87.5832 15.594 73.4772L15.5325 73.3095L15.7011 73.2477C46.1329 61.9981 90.912 45.4436 141.671 26.6798L141.929 26.5842L142.028 26.8401C144.449 33.0484 146.919 39.3812 149.419 45.7899C153.13 55.3105 156.776 64.6658 160.253 73.5835L160.304 73.714L160.23 73.8325C143.416 100.496 127.876 125.141 114.779 145.914L114.682 146.068L114.51 146.01C89.4419 137.606 68.7874 130.68 54.3854 125.852C47.214 123.433 41.6028 121.54 37.7686 120.247C35.8729 119.601 34.4202 119.106 33.4254 118.767C32.4471 118.429 31.9559 118.243 31.9559 118.243Z" fill="#263238"/>
<path d="M129.813 56.6519C129.866 56.7976 110.599 63.912 86.7847 72.5414C62.962 81.1737 43.6137 88.0509 43.5601 87.9056C43.5074 87.7598 62.7702 80.6469 86.5929 72.0146C110.409 63.3859 129.761 56.5062 129.813 56.6519Z" fill="#263238"/>
<path d="M134.317 69.338C134.37 69.4837 115.103 76.5981 91.2885 85.2275C67.4658 93.8597 48.1174 100.737 48.0638 100.592C48.0112 100.446 67.274 93.333 91.0967 84.7007C114.913 76.072 134.265 69.1933 134.317 69.338Z" fill="#263238"/>
<path d="M139.52 83.9718C139.573 84.1175 120.306 91.2319 96.4916 99.8613C72.6689 108.494 53.3206 115.371 53.2669 115.225C53.2143 115.08 72.4771 107.967 96.2998 99.3345C120.116 90.7058 139.468 83.827 139.52 83.9718Z" fill="#263238"/>
<path d="M144.71 98.5861C144.763 98.7318 126.384 105.525 103.663 113.757C80.9353 121.993 62.4736 128.549 62.421 128.403C62.3683 128.257 80.7445 121.466 103.472 113.23C126.193 104.998 144.658 98.4403 144.71 98.5861Z" fill="#263238"/>
<path d="M133.107 117.176C133.113 117.194 132.946 117.275 132.62 117.413C132.233 117.569 131.76 117.759 131.188 117.988C129.855 118.496 128.063 119.18 125.886 120.01C121.323 121.715 115.161 124.017 108.351 126.563C101.502 129.127 95.2726 131.372 90.7531 132.964C88.5508 133.726 86.7387 134.352 85.3895 134.818C84.804 135.008 84.3194 135.165 83.9216 135.296C83.5842 135.399 83.4031 135.445 83.3966 135.426C83.3902 135.408 83.5577 135.327 83.8829 135.189C84.2704 135.033 84.7435 134.843 85.3151 134.614C86.6482 134.105 88.4402 133.422 90.6172 132.592C95.1802 130.887 101.343 128.584 108.155 126.039C115.002 123.476 121.23 121.231 125.75 119.64C127.952 118.878 129.765 118.251 131.113 117.785C131.7 117.595 132.184 117.438 132.581 117.308C132.92 117.203 133.1 117.157 133.107 117.176Z" fill="#263238"/>
<path d="M121.194 135.305C121.246 135.451 117.162 137.036 112.074 138.845C106.983 140.654 102.816 142.003 102.764 141.857C102.713 141.711 106.795 140.126 111.886 138.317C116.974 136.508 121.142 135.159 121.194 135.305Z" fill="#263238"/>
</svg>
