<svg xmlns="http://www.w3.org/2000/svg" id="flag-icons-tw" viewBox="0 0 512 512">
  <defs>
    <clipPath id="tw-a">
      <path d="M0 0h512v512H0z"/>
    </clipPath>
  </defs>
  <g clip-path="url(#tw-a)">
    <path fill="#fe0000" d="M0 0h512v512H0z"/>
    <path fill="#000095" d="M0 0h256v256H0z"/>
    <path fill="#fff" d="m162.55 113.27-2.18 8.37 8.2 2.27-1.57-6.18zm40.91 4.45-1.57 6.18 8.2-2.27-2.18-8.37zm-36.45-20.92-4.45 4.45 1.66 6.01z"/>
    <path fill="#fff" d="m163.79 104.62-1.66 6.01 4.45 4.45z"/>
    <path fill="#fff" d="m162.55 98.6-6.01 6.02 6.01 6.01 1.66-6.01zm12.2 24.23 4.45 4.45 6.01-1.66zm16.48 4.45 8.37 2.18 2.27-8.2-6.18 1.57z"/>
    <path fill="#fff" d="m195.69 122.82 6.18-1.57 1.57-6.18zm-27.14-1.57 2.27 8.2 8.37-2.18-4.45-4.45zm13.35 3.48 6.01 1.66 4.45-4.45z"/>
    <path fill="#fff" d="m175.87 127.28 6.02 6.01 6.01-6.01-6.01-1.66zm-10.67-39.37-8.2 2.27 2.18 8.37 4.45-4.45zm-1.57 27.14 1.57 6.18 6.18 1.57zm39.23-10.52 1.66-6.01-4.45-4.45z"/>
    <path fill="#fff" d="m168.24 86.15-6.18 1.57-1.57 6.18zm28.71 7.76-1.57-6.18-6.18-1.57zm4.45 16.48 6.01-6.01-6.01-6.02-1.66 6.02z"/>
    <path fill="#fff" d="m198.84 94.48-7.76-7.76-10.49-2.81-10.49 2.81-7.76 7.76-2.81 10.49 2.81 10.49 7.76 7.76 10.49 2.81 10.49-2.81 7.76-7.76 2.81-10.49z"/>
    <path fill="#fff" d="m198.84 114.97 4.45-4.45-1.66-6.01zm4.45-16.49 2.18-8.37-8.2-2.27 1.57 6.18zm-6.01-10.67-2.27-8.2-8.37 2.18 4.45 4.45zm-22.69-6.01-8.37-2.18-2.27 8.2 6.18-1.57zm6.01 1.66-6.01-1.66-4.45 4.45z"/>
    <path fill="#fff" d="m187.22 81.96-6.01-6.01-6.02 6.01 6.02 1.66z"/>
    <path fill="#fff" d="m191.24 86.15-4.45-4.45-6.01 1.66zm-15.37 41.13-8.37 2.18 3.95 14.49 10.49-10.65zm-4.45 16.77 10.49 39.1 10.49-39.1-10.49-10.65zm-6.18-22.78-8.2-2.27-3.84 14.35 14.35-3.84z"/>
    <path fill="#fff" d="m153.72 133.85-10.49 39.37 28.84-28.84-3.95-14.49zm-10.49-18.24-28.57 28.84 39.37-10.65 3.84-14.35z"/>
    <path fill="#fff" d="m162.55 113.27-6.01-6.01-10.49 10.49 14.35 3.95zm0-12.05-2.18-8.37-14.35 3.95 10.49 10.49z"/>
    <path fill="#fff" d="M145.95 94.48 106.58 104.97l39.37 10.49 10.49-10.49zm78.72 20.98-14.49 3.95 3.84 14.35 39.37 10.65z"/>
    <path fill="#fff" d="m196.67 121.25-2.27 8.2 14.35 3.84-3.84-14.35zm-10.67 6.01-6.01 6.02 10.49 10.65 3.95-14.49zm16.77-16.77 2.18 8.37 14.49-3.95-10.65-10.49z"/>
    <path fill="#fff" d="m195.69 138.56 28.98 28.84-10.65-39.37-14.35-3.84zm6.18-56.15 8.2 2.27 3.84-14.35-14.35 3.84z"/>
    <path fill="#fff" d="M224.67 94.48l28.84-28.84-39.37 10.49-3.84 14.35zm-10.65-18.24 10.65-28.98-28.98 28.98 3.95 14.35z"/>
    <path fill="#fff" d="m201.4 94.48 6.01 6.02 10.65-10.49-14.49-3.95zm-33.18-33.19L139.38 33.31l10.49 39.37 14.35 3.84z"/>
    <path fill="#fff" d="m163.79 87.91 2.27-8.2-14.35-3.84 3.84 14.35z"/>
    <path fill="#fff" d="m153.72 76.24-39.37-10.49 28.84 28.84 14.35-3.95zm34.74 6.01 8.37-2.18-3.95-14.35-10.49 10.49z"/>
    <path fill="#fff" d="M195.69 65.18 184.06 25.81l-10.49 39.37 10.49 10.49z"/>
    <path fill="#fff" d="m175.87 81.96 6.02-6.01-10.49-10.49-3.95 14.35z"/>
    <circle cx="181.88" cy="104.97" r="44.5" fill="#000095"/>
    <circle cx="181.88" cy="104.97" r="39.23" fill="#fff"/>
  </g>
</svg>
