<svg height="22.038" viewBox="0 0 22.036 22.038" width="22.036" xmlns="http://www.w3.org/2000/svg"><path d="m-226.371-366.667-.191-.192a.23.23 0 0 0 -.393.163v2.744a.231.231 0 0 0 .231.23h2.744a.229.229 0 0 0 .162-.392.229.229 0 0 1 0-.325l2.919-2.928a.229.229 0 0 0 0-.325l-.266-.265a.23.23 0 0 1 .163-.392h2.743a.231.231 0 0 1 .231.23v2.743a.231.231 0 0 1 -.394.163l-.185-.185a.224.224 0 0 0 -.324 0l-4.921 4.919a.23.23 0 0 1 -.325 0l-6.023-6.021a.23.23 0 0 1 0-.326l8.335-8.334a.231.231 0 0 0 0-.325l-1.96-1.96a.231.231 0 0 0 -.325 0l-10.79 10.79a.231.231 0 0 0 0 .325l10.789 10.789a.231.231 0 0 0 .326 0l10.788-10.789a.231.231 0 0 0 0-.325l-6.345-6.345a.23.23 0 0 0 -.325 0l-6.337 6.335a.23.23 0 0 1 -.327 0z" fill="#de5959" transform="translate(235.005 377.512)"/></svg>