<svg id="Groupe_1152" data-name="Groupe 1152" xmlns="http://www.w3.org/2000/svg" xmlns:xlink="http://www.w3.org/1999/xlink" width="40" height="39.999" viewBox="0 0 40 39.999">
  <defs>
    <linearGradient id="linear-gradient" x1="0.955" y1="-0.442" x2="-0.423" y2="1.391" gradientUnits="objectBoundingBox">
      <stop offset="0" stop-color="#0ac3ce"/>
      <stop offset="1" stop-color="#4610f1"/>
    </linearGradient>
  </defs>
  <path id="Tracé_3513" data-name="Tracé 3513" d="M-192.755-2913.89a20.023,20.023,0,0,1-16.654,19.708,21.527,21.527,0,0,1-3.393.28,19.883,19.883,0,0,1-17.774-10.933l-.313-.592h5.238l.132.181a15.467,15.467,0,0,0,15.32,6.521,15.45,15.45,0,0,0,12.783-16.416l-9.357-.017,2.734,7.723-3.344,4.594-6-17.009,19.735.033.082.3a17.72,17.72,0,0,1,.527,2.289A19.191,19.191,0,0,1-192.755-2913.89Z" transform="translate(232.755 2933.901)" fill="url(#linear-gradient)"/>
  <path id="Tracé_3514" data-name="Tracé 3514" d="M-193.9-2916.916h-5.271l-.132-.181a15.44,15.44,0,0,0-15.3-6.5,15.456,15.456,0,0,0-12.8,16.4l9.39.017-2.734-7.722,3.36-4.594,5.98,17.008-15.073-.016h-4.678l-.082-.3a17.778,17.778,0,0,1-.494-2.255,19.989,19.989,0,0,1,16.374-23.035,19.929,19.929,0,0,1,21.151,10.587Z" transform="translate(232.024 2928.383)" fill="url(#linear-gradient)"/>
</svg>
