<svg width="40" height="40" viewBox="0 0 40 40" fill="none" xmlns="http://www.w3.org/2000/svg">
<path fill-rule="evenodd" clip-rule="evenodd" d="M20 40C31.0457 40 40 31.0457 40 20C40 15.4725 38.4956 11.2963 35.9594 7.94419L35.0384 8.58002L35.0364 8.58143L31.0149 11.3577C31.0186 11.3624 31.0223 11.3671 31.026 11.3718L21.5 18V26L33.8288 17.8041C33.9415 18.5195 34 19.2529 34 20C34 27.732 27.732 34 20 34C12.268 34 6 27.732 6 20C6 19.0678 6.09111 18.1569 6.2649 17.2757L18.5 26V18L9.11392 11.1962C9.12116 11.1873 9.1284 11.1784 9.13566 11.1695L5.1787 8.34367L5.177 8.34244V8.34246L4.2459 7.67753C1.58579 11.0736 0 15.3516 0 20C0 31.0457 8.9543 40 20 40ZM20 6C16.7196 6 13.7028 7.12821 11.3163 9.01777L6.29613 5.4327C9.87563 2.06408 14.6968 0 20 0C25.4315 0 30.3574 2.16517 33.9615 5.6795L28.8876 9.18236C26.4702 7.19391 23.3745 6 20 6Z" fill="#0DB7D2"/>
<path fill-rule="evenodd" clip-rule="evenodd" d="M20 40C31.0457 40 40 31.0457 40 20C40 15.4725 38.4956 11.2963 35.9594 7.94419L35.0384 8.58002L35.0364 8.58143L31.0149 11.3577C31.0186 11.3624 31.0223 11.3671 31.026 11.3718L21.5 18V26L33.8288 17.8041C33.9415 18.5195 34 19.2529 34 20C34 27.732 27.732 34 20 34C12.268 34 6 27.732 6 20C6 19.0678 6.09111 18.1569 6.2649 17.2757L18.5 26V18L9.11392 11.1962C9.12116 11.1873 9.1284 11.1784 9.13566 11.1695L5.1787 8.34367L5.177 8.34244V8.34246L4.2459 7.67753C1.58579 11.0736 0 15.3516 0 20C0 31.0457 8.9543 40 20 40ZM20 6C16.7196 6 13.7028 7.12821 11.3163 9.01777L6.29613 5.4327C9.87563 2.06408 14.6968 0 20 0C25.4315 0 30.3574 2.16517 33.9615 5.6795L28.8876 9.18236C26.4702 7.19391 23.3745 6 20 6Z" fill="url(#paint0_linear_35_1100)"/>
<defs>
<linearGradient id="paint0_linear_35_1100" x1="40.4055" y1="20.3152" x2="0.300508" y2="18.9593" gradientUnits="userSpaceOnUse">
<stop stop-color="#03D1CF" stop-opacity="0.988"/>
<stop offset="1" stop-color="#4E09F8"/>
</linearGradient>
</defs>
</svg>
