<svg width="219" height="52" fill="none" xmlns="http://www.w3.org/2000/svg"><path fill-rule="evenodd" clip-rule="evenodd" d="M103.7 24.823c-.479 0-.684.208-.684.694v6.668c0 .486.205.694.684.694h12.642v4.098c-2.528 3.96-6.629 5.973-12.301 5.973-8.064 0-14.146-6.181-14.146-16.947 0-11.252 6.97-16.947 13.873-16.947 5.399 0 9.909 2.014 11.754 7.501.137.486.41.695.82.695h7.176c.478 0 .751-.209.751-.695C122.834 6.903 114.224 1 103.768 1c-11.48 0-22.757 8.613-22.757 25.004 0 16.67 10.934 25.004 23.714 25.004 8.064 0 15.513-4.306 19.544-10.835.479-.694.684-1.597.684-2.64V25.518c0-.486-.205-.694-.684-.694H103.7Zm71.147-22.435c0-.486-.205-.694-.684-.694h-8.542c-.547 0-.889.208-1.093.694l-12.165 28.546-12.164-28.546c-.205-.486-.547-.694-1.093-.694h-8.543c-.478 0-.683.208-.683.694v47.23c0 .486.205.695.683.695h7.244c.479 0 .684-.209.684-.695V17.599l10.114 23.823c.205.486.546.764.956.764h5.604c.41 0 .752-.278.957-.764L166.236 17.6v32.019c0 .486.205.695.683.695h7.244c.479 0 .684-.209.684-.695V2.388Zm13.469-.694c.478 0 .615.07.956.694l9.021 14.655 9.021-14.655c.341-.625.478-.694.956-.694h8.406c.342 0 .547.139.547.417 0 .069 0 .208-.069.277l-14.009 22.365 15.786 24.865c.068.07.068.208.068.278 0 .278-.204.417-.546.417h-8.611c-.478 0-.547-.07-1.025-.695l-10.524-17.155-10.524 17.155c-.478.625-.547.695-1.025.695h-8.611c-.341 0-.546-.14-.546-.417 0-.07 0-.208.068-.278l15.786-24.865-14.009-22.365c-.069-.07-.069-.208-.069-.277 0-.278.205-.417.547-.417h8.406ZM34.203.79.008 50.995h47.64L34.203 31.832l-6.67 9.956H20.44l13.763-20.018 19.903 29.224h14.186L34.202.79" fill="#EDEFFE"/></svg>
