<svg xmlns="http://www.w3.org/2000/svg" xmlns:xlink="http://www.w3.org/1999/xlink" width="160" height="40" viewBox="0 0 160 40">
  <defs>
    <linearGradient id="linear-gradient" x1="1.053" y1="1.457" x2="-0.21" y2="-0.94" gradientUnits="objectBoundingBox">
      <stop offset="0.15" stop-color="#b32eff"/>
      <stop offset="0.42" stop-color="#ce60d3"/>
      <stop offset="0.65" stop-color="#e185b3"/>
      <stop offset="0.84" stop-color="#ee9c9f"/>
      <stop offset="0.96" stop-color="#f2a498"/>
    </linearGradient>
    <linearGradient id="linear-gradient-2" x1="1.32" y1="16.753" x2="0.057" y2="14.361" xlink:href="#linear-gradient"/>
  </defs>
  <g id="Hop" transform="translate(-466 -429)">
    <rect id="Rectangle_107" data-name="Rectangle 107" width="160" height="40" rx="4" transform="translate(466 429)" fill="#ececec"/>
    <text id="Hop.Exchange" transform="translate(559.435 454)" fill="#59595e" font-size="16" font-family="Relative-Book, Relative"><tspan x="-52" y="0">Hop.Exchange</tspan></text>
    <g id="hop-logo.5138ac11" transform="translate(480.55 437.979)">
      <path id="Path_1446" data-name="Path 1446" d="M35.826,7.309,31.2.574a1.272,1.272,0,0,0-2.317.787,7.429,7.429,0,0,0,1.532,3.924,0,0,0,0,1-.006.006c-.428-.319-6.876-5.161-14.541-2.583h-.009a1.489,1.489,0,0,0-1.064,1.82A1.523,1.523,0,0,0,16.526,5.6a19.224,19.224,0,0,1,4.833-.261A12.935,12.935,0,0,1,25.949,6.6a16.065,16.065,0,0,1,3.963,2.87,25.7,25.7,0,0,1,3.037,4.057.852.852,0,0,0,1.028.385.875.875,0,0,0,.5-1.139,17.632,17.632,0,0,0-1.307-2.718,0,0,0,0,1,.006-.007,2.866,2.866,0,0,0,1.711.333,1.668,1.668,0,0,0,1.157-.945A2.19,2.19,0,0,0,35.826,7.309Z" transform="translate(-14.051 0)" fill="url(#linear-gradient)"/>
      <path id="Path_1447" data-name="Path 1447" d="M.411,182.851l4.655,6.772a1.26,1.26,0,0,0,2.293-.805,7.414,7.414,0,0,0-1.532-3.943s0-.01.005-.007c.429.319,6.879,5.161,14.54,2.583h.009a1.488,1.488,0,0,0,1.063-1.819,1.522,1.522,0,0,0-1.733-1.074,19.121,19.121,0,0,1-4.833.26,12.936,12.936,0,0,1-4.59-1.257,16.073,16.073,0,0,1-3.963-2.87,25.733,25.733,0,0,1-3.037-4.057.851.851,0,0,0-1.069-.37.884.884,0,0,0-.453,1.134,17.628,17.628,0,0,0,1.3,2.71.005.005,0,0,1-.006.007,2.869,2.869,0,0,0-1.711-.333,1.658,1.658,0,0,0-1.155.943,2.19,2.19,0,0,0,.213,2.127Z" transform="translate(0 -168.152)" fill="url(#linear-gradient-2)"/>
    </g>
  </g>
</svg>
