<svg height="40" viewBox="0 0 160 40" width="160" xmlns="http://www.w3.org/2000/svg" xmlns:xlink="http://www.w3.org/1999/xlink"><linearGradient id="a" gradientUnits="objectBoundingBox" x1="1.053" x2="-.21" y1="1.457" y2="-.94"><stop offset=".15" stop-color="#b32eff"/><stop offset=".42" stop-color="#ce60d3"/><stop offset=".65" stop-color="#e185b3"/><stop offset=".84" stop-color="#ee9c9f"/><stop offset=".96" stop-color="#f2a498"/></linearGradient><linearGradient id="b" x1="1.32" x2=".057" xlink:href="#a" y1="16.753" y2="14.361"/><rect fill="#ececec" height="40" rx="4" width="160"/><text fill="#59595e" font-family="Relative-Book, Relative" font-size="16" transform="translate(93.435 25)"><tspan x="-52" y="0">Hop.Exchange</tspan></text><path d="m35.826 7.309-4.626-6.735a1.272 1.272 0 0 0 -2.317.787 7.429 7.429 0 0 0 1.532 3.924 0 0 0 0 1 -.006.006c-.428-.319-6.876-5.161-14.541-2.583h-.009a1.489 1.489 0 0 0 -1.064 1.82 1.523 1.523 0 0 0 1.731 1.072 19.224 19.224 0 0 1 4.833-.261 12.935 12.935 0 0 1 4.59 1.261 16.065 16.065 0 0 1 3.963 2.87 25.7 25.7 0 0 1 3.037 4.057.852.852 0 0 0 1.028.385.875.875 0 0 0 .5-1.139 17.632 17.632 0 0 0 -1.307-2.718 0 0 0 0 1 .006-.007 2.866 2.866 0 0 0 1.711.333 1.668 1.668 0 0 0 1.157-.945 2.19 2.19 0 0 0 -.218-2.127z" fill="url(#a)" transform="translate(.499 8.979)"/><path d="m.411 182.851 4.655 6.772a1.26 1.26 0 0 0 2.293-.805 7.414 7.414 0 0 0 -1.532-3.943s0-.01.005-.007c.429.319 6.879 5.161 14.54 2.583h.009a1.488 1.488 0 0 0 1.063-1.819 1.522 1.522 0 0 0 -1.733-1.074 19.121 19.121 0 0 1 -4.833.26 12.936 12.936 0 0 1 -4.59-1.257 16.073 16.073 0 0 1 -3.963-2.87 25.733 25.733 0 0 1 -3.037-4.057.851.851 0 0 0 -1.069-.37.884.884 0 0 0 -.453 1.134 17.628 17.628 0 0 0 1.3 2.71.005.005 0 0 1 -.006.007 2.869 2.869 0 0 0 -1.711-.333 1.658 1.658 0 0 0 -1.155.943 2.19 2.19 0 0 0 .213 2.127z" fill="url(#b)" transform="translate(14.55 -159.173)"/></svg>