<svg height="40" viewBox="0 0 160 40" width="160" xmlns="http://www.w3.org/2000/svg" xmlns:xlink="http://www.w3.org/1999/xlink"><linearGradient id="a" gradientUnits="objectBoundingBox" x1="-1.124" x2="2.272" y1="2.193" y2="-1.347"><stop offset=".19" stop-color="#b32eff"/><stop offset=".31" stop-color="#b93af5"/><stop offset=".53" stop-color="#ca59da"/><stop offset=".82" stop-color="#e48aae"/><stop offset=".96" stop-color="#f2a498"/></linearGradient><linearGradient id="b" gradientUnits="objectBoundingBox" x1="1.053" x2="-.211" y1="1.457" y2="-.94"><stop offset=".15" stop-color="#b32eff"/><stop offset=".42" stop-color="#ce60d3"/><stop offset=".65" stop-color="#e185b3"/><stop offset=".84" stop-color="#ee9c9f"/><stop offset=".96" stop-color="#f2a498"/></linearGradient><linearGradient id="c" x1="37.925" x2="36.662" xlink:href="#b" y1="19.932" y2="17.539"/><rect fill="#27293b" height="40" rx="4" width="160"/><g fill="#fff"><path d="m268.276 64.748a3.746 3.746 0 0 1 -.669.056 1.5 1.5 0 0 1 -1.006-.263 1.141 1.141 0 0 1 -.292-.884v-10.406c.1-.025.26-.056.48-.1a3.835 3.835 0 0 1 .649-.056 1.643 1.643 0 0 1 1 .246 1.078 1.078 0 0 1 .32.9v3.707h4.7v-4.7c.1-.025.26-.056.48-.1a3.835 3.835 0 0 1 .649-.056 1.6 1.6 0 0 1 1 .255 1.107 1.107 0 0 1 .32.912v10.397q-.169.038-.48.094a3.742 3.742 0 0 1 -.668.056 1.5 1.5 0 0 1 -1.007-.263 1.145 1.145 0 0 1 -.292-.884v-3.747h-4.7v4.742q-.173.038-.484.094z" transform="translate(-223.921 -38.552)"/><path d="m381.065 80.714a5.558 5.558 0 0 1 -.325 1.966 4.3 4.3 0 0 1 -.94 1.5 4.029 4.029 0 0 1 -1.449.95 5.652 5.652 0 0 1 -3.8 0 4.074 4.074 0 0 1 -1.449-.94 4.189 4.189 0 0 1 -.928-1.487 5.616 5.616 0 0 1 -.329-1.985 5.556 5.556 0 0 1 .329-1.967 4.125 4.125 0 0 1 .94-1.486 4.169 4.169 0 0 1 1.463-.94 5.544 5.544 0 0 1 3.761 0 4.109 4.109 0 0 1 1.463.951 4.217 4.217 0 0 1 .94 1.5 5.5 5.5 0 0 1 .324 1.938zm-4.608-2.84a1.924 1.924 0 0 0 -1.6.743 3.318 3.318 0 0 0 -.583 2.1 3.364 3.364 0 0 0 .574 2.108 2.125 2.125 0 0 0 3.218-.011 3.36 3.36 0 0 0 .574-2.1 3.319 3.319 0 0 0 -.583-2.1 1.928 1.928 0 0 0 -1.6-.739z" transform="translate(-318.429 -59.054)"/><path d="m478.922 85.441a4.6 4.6 0 0 1 -1.007-.1 5.5 5.5 0 0 1 -.836-.254v3.462q-.169.038-.451.094a3.3 3.3 0 0 1 -.64.056 1.6 1.6 0 0 1 -.978-.244 1.029 1.029 0 0 1 -.321-.865v-9.54a1.342 1.342 0 0 1 .18-.731 1.742 1.742 0 0 1 .574-.522 5.99 5.99 0 0 1 1.358-.555 6.536 6.536 0 0 1 1.821-.24 6.392 6.392 0 0 1 1.91.273 4.044 4.044 0 0 1 1.515.846 3.882 3.882 0 0 1 1 1.463 5.618 5.618 0 0 1 .357 2.107 5.782 5.782 0 0 1 -.339 2.071 4.268 4.268 0 0 1 -.931 1.487 3.788 3.788 0 0 1 -1.411.9 5.172 5.172 0 0 1 -1.801.292zm-.357-1.9a2.284 2.284 0 0 0 1.769-.7 3.114 3.114 0 0 0 .639-2.165 2.94 2.94 0 0 0 -.658-2.164 2.32 2.32 0 0 0 -1.694-.638 2.765 2.765 0 0 0 -.894.132 4.553 4.553 0 0 0 -.668.282v4.836a2.814 2.814 0 0 0 .668.3 2.848 2.848 0 0 0 .838.116z" transform="translate(-410.529 -59.057)"/><path d="m612.893 65.561a.81.81 0 0 1 -.227-.6v-9.787a.779.779 0 0 1 .828-.828h6.248a1.484 1.484 0 0 1 .113.255 1.039 1.039 0 0 1 .056.348.8.8 0 0 1 -.15.509.522.522 0 0 1 -.434.188h-5.137v3.632h4.968a1.48 1.48 0 0 1 .113.255 1.041 1.041 0 0 1 .056.348.751.751 0 0 1 -.15.5.534.534 0 0 1 -.433.179h-4.554v3.951h5.642a1.538 1.538 0 0 1 .113.246 1.018 1.018 0 0 1 .056.357.751.751 0 0 1 -.15.5.536.536 0 0 1 -.434.179h-5.923a.813.813 0 0 1 -.601-.232z" transform="translate(-534.09 -39.666)"/><path d="m696.089 86.856q.583-.79 1.223-1.542t1.28-1.544q-.791-.959-1.463-1.815t-1.4-1.775a1.149 1.149 0 0 1 .271-.58.683.683 0 0 1 .522-.209.721.721 0 0 1 .5.16 3.342 3.342 0 0 1 .387.423q.489.659 1.007 1.4t1.081 1.477q.7-.884 1.317-1.684t1.275-1.761a1.056 1.056 0 0 1 .209-.019.975.975 0 0 1 .621.179.58.58 0 0 1 .226.48.951.951 0 0 1 -.085.4 2.258 2.258 0 0 1 -.273.433l-1.2 1.463q-.612.748-1.213 1.463.731.959 1.477 1.891t1.477 1.872a.909.909 0 0 1 -.246.564.738.738 0 0 1 -.545.209.8.8 0 0 1 -.522-.16 3.113 3.113 0 0 1 -.462-.5q-.508-.677-1.045-1.44t-1.064-1.477q-.658.866-1.327 1.769t-1.288 1.788h-.262a.968.968 0 0 1 -.65-.188.6.6 0 0 1 -.216-.47.813.813 0 0 1 .066-.313 2.517 2.517 0 0 1 .322-.494z" transform="translate(-608.459 -62.091)"/><path d="m779.507 79.58a3.185 3.185 0 0 0 -1.185.216 2.556 2.556 0 0 0 -.94.639 3.01 3.01 0 0 0 -.616 1.054 4.255 4.255 0 0 0 -.226 1.44 3.47 3.47 0 0 0 .809 2.474 2.834 2.834 0 0 0 2.164.857 3.463 3.463 0 0 0 1.318-.217 5.156 5.156 0 0 0 .94-.5 1.072 1.072 0 0 1 .339.282.658.658 0 0 1 .132.418.711.711 0 0 1 -.209.489 1.775 1.775 0 0 1 -.574.395 4.046 4.046 0 0 1 -.866.273 5.327 5.327 0 0 1 -1.082.1 5.573 5.573 0 0 1 -1.806-.282 3.913 3.913 0 0 1 -1.43-.846 3.866 3.866 0 0 1 -.94-1.421 5.489 5.489 0 0 1 -.343-2.027 5.184 5.184 0 0 1 .357-2 4.244 4.244 0 0 1 .96-1.439 3.878 3.878 0 0 1 1.42-.876 5.155 5.155 0 0 1 1.741-.291 5.328 5.328 0 0 1 1.082.1 3.28 3.28 0 0 1 .857.291 1.806 1.806 0 0 1 .555.424.742.742 0 0 1 .2.48.626.626 0 0 1 -.132.395.884.884 0 0 1 -.339.263 5.224 5.224 0 0 0 -.9-.489 3.3 3.3 0 0 0 -1.286-.202z" transform="translate(-679.455 -61.136)"/><path d="m859.478 58.272a1.705 1.705 0 0 1 -.418.047q-.809 0-.81-.677v-11.611a2.239 2.239 0 0 1 .293-.085 1.823 1.823 0 0 1 .423-.047q.79 0 .79.677v3.387a5.813 5.813 0 0 1 1.064-.47 4.3 4.3 0 0 1 1.383-.209 4.731 4.731 0 0 1 1.44.209 3.006 3.006 0 0 1 1.119.627 2.877 2.877 0 0 1 .731 1.072 4.013 4.013 0 0 1 .263 1.515v5.476a2.238 2.238 0 0 1 -.293.085 1.739 1.739 0 0 1 -.4.047q-.809 0-.809-.677v-4.889a2.106 2.106 0 0 0 -.621-1.672 2.411 2.411 0 0 0 -1.633-.548 3.218 3.218 0 0 0 -1.233.235 4.223 4.223 0 0 0 -1.007.579v6.849a2.353 2.353 0 0 1 -.282.08z" transform="translate(-754.018 -32.104)"/><path d="m947.689 78.319a4.183 4.183 0 0 1 2.6.731 2.725 2.725 0 0 1 .959 2.315v4.459a1.053 1.053 0 0 1 -.16.627 1.584 1.584 0 0 1 -.48.4 4.891 4.891 0 0 1 -1.2.461 6.649 6.649 0 0 1 -1.7.2 4.638 4.638 0 0 1 -2.737-.7 2.321 2.321 0 0 1 -.971-2.001 2.224 2.224 0 0 1 .81-1.872 4.406 4.406 0 0 1 2.276-.781l2.672-.263v-.522a1.622 1.622 0 0 0 -.565-1.373 2.439 2.439 0 0 0 -1.524-.433 4.786 4.786 0 0 0 -1.486.226 8.2 8.2 0 0 0 -1.243.5 1.791 1.791 0 0 1 -.273-.3.621.621 0 0 1 -.122-.376.682.682 0 0 1 .132-.434 1.282 1.282 0 0 1 .418-.32 4.634 4.634 0 0 1 1.166-.4 6.838 6.838 0 0 1 1.428-.144zm.019 7.96a4.506 4.506 0 0 0 1.307-.158 3.073 3.073 0 0 0 .744-.313v-2.728l-2.334.244a2.934 2.934 0 0 0 -1.449.442 1.192 1.192 0 0 0 -.47 1.026 1.266 1.266 0 0 0 .545 1.1 2.887 2.887 0 0 0 1.657.387z" transform="translate(-830.809 -61.136)"/><path d="m1032.643 80.046a2.421 2.421 0 0 0 -1.59-.489 4.353 4.353 0 0 0 -1.336.187 4.952 4.952 0 0 0 -1 .433v7.037a2.407 2.407 0 0 1 -.282.085 1.72 1.72 0 0 1 -.418.047q-.809 0-.809-.677v-6.416a1.2 1.2 0 0 1 .16-.649 1.706 1.706 0 0 1 .555-.5 5.612 5.612 0 0 1 1.3-.545 6.3 6.3 0 0 1 1.829-.244 4.281 4.281 0 0 1 2.7.771 2.89 2.89 0 0 1 .987 2.428v5.7a2.262 2.262 0 0 1 -.291.085 1.739 1.739 0 0 1 -.4.047q-.811 0-.81-.677v-5.08a1.892 1.892 0 0 0 -.595-1.543z" transform="translate(-905.326 -61.132)"/><path d="m1119.446 86.361a2.772 2.772 0 0 1 -.875.451 4.158 4.158 0 0 1 -1.327.188 5.086 5.086 0 0 1 -1.562-.235 3.37 3.37 0 0 1 -1.289-.753 3.643 3.643 0 0 1 -.884-1.345 5.458 5.458 0 0 1 -.329-2.013 5.074 5.074 0 0 1 .32-1.881 3.623 3.623 0 0 1 2.258-2.174 5.343 5.343 0 0 1 1.75-.273 5.537 5.537 0 0 1 1.59.216 4.664 4.664 0 0 1 1.214.536 1.907 1.907 0 0 1 .461.424.921.921 0 0 1 .179.574v7.564a3.667 3.667 0 0 1 -.313 1.59 2.73 2.73 0 0 1 -.866 1.054 3.728 3.728 0 0 1 -1.307.592 6.668 6.668 0 0 1 -1.618.188 5.8 5.8 0 0 1 -1.628-.2 4.266 4.266 0 0 1 -.909-.352.932.932 0 0 1 -.564-.809.766.766 0 0 1 .122-.443.811.811 0 0 1 .313-.273 4.155 4.155 0 0 0 1.111.556 4.639 4.639 0 0 0 1.567.254 3.018 3.018 0 0 0 1.929-.537 2.076 2.076 0 0 0 .668-1.722zm-2.032-.6a2.8 2.8 0 0 0 2.032-.771v-4.896a3.531 3.531 0 0 0 -.8-.367 3.618 3.618 0 0 0 -1.139-.16 2.74 2.74 0 0 0 -2.042.771 3.143 3.143 0 0 0 -.762 2.3 4.366 4.366 0 0 0 .209 1.44 2.585 2.585 0 0 0 .574.97 2.162 2.162 0 0 0 .865.545 3.289 3.289 0 0 0 1.063.165z" transform="translate(-982.314 -61.143)"/><path d="m1202.949 83.569a2.918 2.918 0 0 0 2.86 2.893 3.74 3.74 0 0 0 1.452-.061 4.2 4.2 0 0 0 1.085-.418.8.8 0 0 1 .347.771.731.731 0 0 1 -.3.471 2.105 2.105 0 0 1 -.694.339 4.389 4.389 0 0 1 -.974.167 5.684 5.684 0 0 1 -1.162-.05 4.863 4.863 0 0 1 -3.253-1.656 4.5 4.5 0 0 1 -.774-3.606 5.473 5.473 0 0 1 .575-1.847 4.1 4.1 0 0 1 1.055-1.286 3.743 3.743 0 0 1 1.439-.7 4.443 4.443 0 0 1 1.7-.073 4.209 4.209 0 0 1 1.507.5 3.564 3.564 0 0 1 1.109.964 3.73 3.73 0 0 1 .627 1.324 4.046 4.046 0 0 1 .072 1.579.788.788 0 0 1 -.27.56.873.873 0 0 1 -.552.141zm3.166-3.848a2.493 2.493 0 0 0 -1.993.522 3.336 3.336 0 0 0 -1.1 2.153l5.224.015a2.768 2.768 0 0 0 -.479-1.788 2.3 2.3 0 0 0 -1.652-.902z" transform="translate(-1061.372 -61.265)"/></g><circle cx="1.376" cy="1.376" fill="url(#a)" r="1.376" transform="translate(74.016 23.576)"/><path d="m27.54 7.288-4.625-6.733a1.271 1.271 0 0 0 -2.317.787 7.432 7.432 0 0 0 1.532 3.924l-.006.006c-.431-.32-6.88-5.161-14.544-2.583h-.009a1.48 1.48 0 0 0 -1.059 1.821 1.521 1.521 0 0 0 1.734 1.074 19.015 19.015 0 0 1 4.828-.256 13 13 0 0 1 4.59 1.254 15.919 15.919 0 0 1 3.963 2.869 25.491 25.491 0 0 1 3.037 4.057.849.849 0 0 0 1.028.384.877.877 0 0 0 .5-1.14 17.7 17.7 0 0 0 -1.307-2.716s0-.008.005-.006a2.9 2.9 0 0 0 1.711.333 1.664 1.664 0 0 0 1.157-.94 2.194 2.194 0 0 0 -.218-2.135z" fill="url(#b)" transform="translate(8.785 9)"/><path d="m.4 83.495 4.65 6.772a1.26 1.26 0 0 0 2.292-.806 7.4 7.4 0 0 0 -1.532-3.943s0-.01.005-.007c.428.321 6.877 5.161 14.54 2.583h.009a1.486 1.486 0 0 0 1.064-1.819 1.523 1.523 0 0 0 -1.733-1.075 19.248 19.248 0 0 1 -4.832.26 13.021 13.021 0 0 1 -4.591-1.254 15.946 15.946 0 0 1 -3.963-2.869 25.941 25.941 0 0 1 -3.036-4.06.853.853 0 0 0 -1.073-.367.882.882 0 0 0 -.452 1.134 17.636 17.636 0 0 0 1.3 2.709l-.006.006a2.9 2.9 0 0 0 -1.711-.333 1.672 1.672 0 0 0 -1.157.94 2.194 2.194 0 0 0 .226 2.129z" fill="url(#c)" transform="translate(14.566 -59.816)"/></svg>