<svg xmlns="http://www.w3.org/2000/svg" width="93" height="64" viewBox="0 0 93 64">
  <g id="ic-communityproject" transform="translate(-0.25 -0.219)">
    <rect id="ic_base_token" width="93" height="64" transform="translate(0.25 0.219)" fill="none"/>
    <path id="Path_1486" data-name="Path 1486" d="M31.875,19A13.875,13.875,0,1,0,18,5.125,13.88,13.88,0,0,0,31.875,19Zm6.937,4.625H38.8a3.963,3.963,0,0,0-1.008.158,21.579,21.579,0,0,1-5.918,1,21.579,21.579,0,0,1-5.918-1,3.952,3.952,0,0,0-1.007-.158h-.012A16.193,16.193,0,0,0,8.75,39.812c0,.025,0,.065,0,.09a6.92,6.92,0,0,0,6.937,6.848H48.062A6.92,6.92,0,0,0,55,39.9c0-.025,0-.065,0-.09A16.193,16.193,0,0,0,38.813,23.625Z" transform="translate(-6.5 13.22)" fill="#303fd0"/>
    <path id="Path_1487" data-name="Path 1487" d="M28.75,15.25a12,12,0,1,0-12-12A12,12,0,0,0,28.75,15.25Zm6,4h-.01a3.428,3.428,0,0,0-.872.136,18.663,18.663,0,0,1-5.118.864,18.663,18.663,0,0,1-5.118-.864,3.418,3.418,0,0,0-.871-.136h-.01a14,14,0,0,0-14,14c0,.021,0,.056,0,.078a5.985,5.985,0,0,0,6,5.922h28a5.985,5.985,0,0,0,6-5.922c0-.021,0-.056,0-.078a14,14,0,0,0-14-14Z" transform="translate(22.625 20.719)" fill="rgba(3,209,207,0.99)"/>
    <path id="Path_1488" data-name="Path 1488" d="M23.75,9.25a9,9,0,0,0,9-9,9,9,0,0,0-18,0A9,9,0,0,0,23.75,9.25Zm4.5,3h-.008a2.571,2.571,0,0,0-.654.1A14,14,0,0,1,23.749,13a14,14,0,0,1-3.839-.648,2.564,2.564,0,0,0-.653-.1H19.25a10.5,10.5,0,0,0-10.5,10.5c0,.016,0,.042,0,.058a4.488,4.488,0,0,0,4.5,4.442h21a4.488,4.488,0,0,0,4.5-4.442c0-.016,0-.042,0-.058a10.5,10.5,0,0,0-10.5-10.5Z" transform="translate(48.625 32.719)" fill="#fff"/>
    <path id="Intersection_10" data-name="Intersection 10" d="M-14254.626-1419.282a5.985,5.985,0,0,1-6-5.921v-.079a14.012,14.012,0,0,1,10.938-13.664,16.163,16.163,0,0,1,6.187,12.728v.09a6.917,6.917,0,0,1-6.936,6.846Z" transform="translate(14292 1479.25)" fill="#4e09f8" style="mix-blend-mode: screen;isolation: isolate"/>
    <path id="Intersection_11" data-name="Intersection 11" d="M-14259.248-1426.781a4.49,4.49,0,0,1-4.5-4.443v-.057a10.5,10.5,0,0,1,10.5-10.5h.007a1.95,1.95,0,0,1,.227.016,13.939,13.939,0,0,1,3.267,8.985v.075a5.988,5.988,0,0,1-6,5.924Z" transform="translate(14321.125 1486.75)" fill="#87f7ff"/>
  </g>
</svg>
