<svg width="24" height="24" viewBox="0 0 32 32" fill="none" xmlns="http://www.w3.org/2000/svg">
<g clip-path="url(#clip0_3033_1545)">
<circle cx="16" cy="16" r="16" fill="white"/>
<g clip-path="url(#clip1_3033_1545)">
<path d="M3.53179 20.475C1.34724 17.8126 1.49939 13.8778 3.98764 11.3923C6.63844 8.74577 10.9354 8.74577 13.5862 11.3923C16.2364 14.0395 16.2364 18.3307 13.5862 20.9779C11.0161 23.5445 6.89753 23.622 4.2339 21.2116L10.2266 15.2264L10.9464 15.9453L7.28738 19.6C8.65433 20.1986 10.3073 19.9387 11.4261 18.8213C12.8841 17.3653 12.8841 15.0049 11.4261 13.5495C9.96874 12.0935 7.60514 12.0935 6.14714 13.5495C4.85352 14.8414 4.70809 16.846 5.71084 18.2984L3.53179 20.475Z" fill="#B75FFF"/>
<path d="M21.55 17.5336V16.5201H30.0004C29.8287 19.999 27.0233 22.7859 23.5335 22.9336C19.539 23.1033 16.2551 19.7714 16.4861 15.7853C16.6914 12.238 19.7321 9.42426 23.2414 9.42426C26.7508 9.42426 29.6356 12.0916 29.9753 15.5065H26.9017C26.5839 13.7764 25.066 12.4657 23.2414 12.4657C20.9432 12.4657 19.1314 14.5459 19.5916 16.9247C19.8763 18.3947 21.0355 19.5487 22.5088 19.8293C24.3914 20.1876 26.0859 19.1282 26.7098 17.5336H21.55Z" fill="#B75FFF"/>
</g>
</g>
<defs>
<clipPath id="clip0_3033_1545">
<rect width="32" height="32" fill="white"/>
</clipPath>
<clipPath id="clip1_3033_1545">
<rect width="28" height="28" fill="white" transform="translate(2 2)"/>
</clipPath>
</defs>
</svg>
