<svg height="20" viewBox="0 0 21.251 20" width="21.251" xmlns="http://www.w3.org/2000/svg"><g transform="translate(.099 .01)"><path d="m28.83 40.321.538-4.066-4.668-3.255 4.266 1.453 1.007-1.554 3.678-2.299 8.108 4.491.42 6.853-3.612 5.047-2.855.44 1.477-2.717v-2.614l-1.074-2.043-1.091-.726-1.678 1.739v1.841l-1.31 1.233-1.664.2-.737.42-1.209-.388-.5-1.823.907-1.282z" fill="#fff" transform="translate(-23.859 -29.45)"/><path d="m288.08 107.481a11.188 11.188 0 0 0 -2.452-.178 3.583 3.583 0 0 1 -3.028 2.456 4.687 4.687 0 0 0 5.48-2.278z" fill="#94a6c3" transform="translate(-274.768 -104.178)"/><path d="m188.4 183.815a8.536 8.536 0 0 0 3.205-4.354c.025-.064.238-.178.381-.265.238-.133.48-.243.525-.421a8.641 8.641 0 0 0 .143-1.569c0-.2-.217-.4-.43-.6-.168-.133-.336-.288-.336-.4a8.191 8.191 0 0 0 -2.845-5.26l-.168.155a8.041 8.041 0 0 1 2.775 5.128c.025.178.213.352.406.531.168.133.361.333.361.421a8.334 8.334 0 0 1 -.143 1.523c-.025.087-.238.178-.406.265-.238.11-.455.22-.5.4a8.25 8.25 0 0 1 -3.636 4.578c.312-.618 1.291-2.63 1.816-3.65l-.094-3.271-3.037-2.717-1.722.22-1.89 2.831a1.6 1.6 0 0 1 -.361 2.255 5.71 5.71 0 0 1 -2.177 1.459l-.885-.443a9.02 9.02 0 0 1 1.2-1.084c.693-.531 1.385-.576 1.385-1.148.029-1.2-1.361-.868-1.361-.868l-.5.443-.213 1.637-1.049 1.217-.119-.023-1.725-.347s1.053-.508 1.221-1.084a8.278 8.278 0 0 0 -.361-2.5 2.419 2.419 0 0 1 .717 1.016 7.8 7.8 0 0 1 1.029-1.99c.143-.087 2.078-1.038 2.078-1.038l-.644 1.569.48-.243 1.148-2.607a5.971 5.971 0 0 1 1.959-.508c1.5-.023 3.73-1.724 2.726-4.775.287.11 5.259 2.41 6.12 6.92.644 3.47-1.483 6.718-5.073 8.597z" fill="#94a6c3" transform="translate(-174.365 -168.31)"/><path d="m286.654 87.382a1.891 1.891 0 0 0 .311-1.482l-1.482 2.19a1.714 1.714 0 0 0 1.171-.708z" fill="#1b314f" transform="translate(-277.129 -82.424)"/><path d="m168.929 418.183.178-.883s-.731 1.281-.8 1.459c-.068.2.045.553.33.531a.879.879 0 0 0 .64-.75.316.316 0 0 0 -.348-.357z" fill="#1b314f" transform="translate(-163.378 -405.044)"/><path d="m15.887 2.083s.878.036 1.789.141a8.9 8.9 0 0 0 -5.576-2.086 7.622 7.622 0 0 0 -3.737.947l.684-1.085a3.641 3.641 0 0 0 -3.7 2.631 14.415 14.415 0 0 1 -.472-1.509 3.171 3.171 0 0 0 -.755 3.312c-1.633-.595-3.963-1.422-4.053-1.434-.123-.018-.159.036-.159.036s-.036.051.069.141c.2.153 3.878 2.874 4.687 3.4-.174.631-.174.929 0 1.227a1.223 1.223 0 0 1 .228.911c-.036.3-.352 2.877-.421 3.193s-.806 1.437-.773 1.771.49 1.753.9 1.912a5.63 5.63 0 0 0 1.524.334.622.622 0 0 0 .4-.105c.3-.262.385-.316.6-.316h.051c.087 0 .192.018.316.018a1.333 1.333 0 0 0 .911-.3c.385-.385 1.052-.911 1.263-1.158a1.628 1.628 0 0 0 .334-1.245 1.668 1.668 0 0 1 .439-1.158c.334-.439.947-1.227.947-1.227a4.786 4.786 0 0 1 1.966 3.836 5.145 5.145 0 0 1 -5.331 4.946 5.643 5.643 0 0 1 -1.332-.156 10.346 10.346 0 0 0 3.421.631 5.7 5.7 0 0 0 3.034-.719 8.738 8.738 0 0 1 -.965 1.016h.018a7.185 7.185 0 0 0 4.877-3.157s-.123.878-.28 1.473c4.363-3.28 3.626-7.384 3.608-7.522.036.051.475.577.7.86a9.081 9.081 0 0 0 -5.212-9.559zm-6.716 11.542c-.069.087-.367.352-.577.544s-.439.385-.613.562a.613.613 0 0 1 -.421.105h-.527a9.314 9.314 0 0 1 1.3-1.332c.316-.21.475-.421.28-.788s-.7-.28-.7-.28a1.741 1.741 0 0 1 .562-.123 1.083 1.083 0 0 0 -.947.192c-.21.192-.174.878-.262 1.314-.087.457-.385.685-.842 1.106a.866.866 0 0 1 -.562.3 5.991 5.991 0 0 1 -.9-.228 5.018 5.018 0 0 1 -.508-1.3 7.121 7.121 0 0 1 .367-.755 3.3 3.3 0 0 0 .37-.842c.069-.3.3-2.141.385-2.91.228.3.544.791.472 1.106a1.48 1.48 0 0 0 -.036-1.7 1.931 1.931 0 0 1 -.192-1.437c.174-.6.806-2.246.806-2.246s.21.37.508.3a34.888 34.888 0 0 0 2.7-3.683 2.848 2.848 0 0 1 -.034 2.453 2.89 2.89 0 0 1 -1.387 1.227 2.626 2.626 0 0 0 1.858-.475c.367.86.719 1.753.737 1.876-.054.123-.755 1.807-.824 1.912a1.754 1.754 0 0 1 -.457.141 2.478 2.478 0 0 0 -.544.192 19.581 19.581 0 0 0 -.947 2.4 1.456 1.456 0 0 0 -.86.613 2.48 2.48 0 0 1 .791-.174 1.572 1.572 0 0 1 1.193 1.142v.036a1.084 1.084 0 0 1 -.189.752zm-1.648.21a1.628 1.628 0 0 0 .159-.737c.018-.123.051-.352.192-.385s.475.018.475.262c0 .228-.247.28-.421.439-.128.121-.372.386-.405.421zm7-3.352a8.419 8.419 0 0 0 .141-2.3 6.444 6.444 0 0 1 1.227 3.157.89.89 0 0 0 .3.421c.123.105.265.247.265.334a7.2 7.2 0 0 1 -.105 1.212c-.018.051-.174.141-.3.21-.174.087-.334.174-.367.316a6.537 6.537 0 0 1 -2.315 3.385 5.85 5.85 0 0 0 1.15-6.735zm-1.1 6.894a6.75 6.75 0 0 0 2.4-3.491c.018-.051.174-.141.28-.21.174-.087.352-.192.385-.334a7.4 7.4 0 0 0 .105-1.245c0-.156-.159-.316-.316-.472-.087-.105-.228-.228-.228-.316a6.877 6.877 0 0 0 -1.437-3.491 3.622 3.622 0 0 0 -1.789-2.772 3.214 3.214 0 0 1 .316 2.91 2.348 2.348 0 0 1 -2.456 1.332 5.7 5.7 0 0 0 -1.368 2 1.893 1.893 0 0 0 -.878-.051c.316-.878.791-2.123.878-2.228a2.674 2.674 0 0 1 .475-.156c.334-.087.49-.141.544-.21.036-.054.21-.457.385-.878a3.959 3.959 0 0 0 .6-.054 6.53 6.53 0 0 0 .37-1c0-.087-.685-1.789-.947-2.438a4.043 4.043 0 0 0 .367-.508 7.176 7.176 0 0 1 2.318 13.611z" fill="#1b314f"/><path d="m217.17 188.737a.965.965 0 0 0 -.576-1.546c.2-.462.485-1.391.485-1.391s-2.255 3.536-2.452 3.6-.4-.709-.4-.709c-.421 1.614.709 1.834.841 1.326a5.655 5.655 0 0 0 2.102-1.28z" fill="#1b314f" transform="translate(-208.025 -180.537)"/><path d="m243.4 236.067 1.148-1.967s.663.333.33.864a4.288 4.288 0 0 1 -1.478 1.103z" fill="#ffd923" transform="translate(-236.296 -227.227)"/><g fill="#d82122"><path d="m589.348 289.049a12.952 12.952 0 0 1 -1.148 1.351 11.878 11.878 0 0 0 .023-10.7c.2.2.4.421.576.618a7 7 0 0 1 .549 8.731z" transform="translate(-571.539 -272.598)"/><path d="m384.283 99.383a13.284 13.284 0 0 0 -5.525-7.007 11.243 11.243 0 0 0 -6.412-1.812h-.046a1.516 1.516 0 0 1 .33-.087 14.124 14.124 0 0 1 2.456-.508 7.273 7.273 0 0 1 6.325 2.164l.045.045a10.391 10.391 0 0 1 2.827 7.205z" transform="translate(-363.821 -86.066)"/><path d="m277.125 22.926a12.581 12.581 0 0 0 -6.943.265 6.556 6.556 0 0 0 -.333-.819c-.459.553-.947 1.217-1.254 1.637a4.491 4.491 0 0 0 -1.194 1.129 4.608 4.608 0 0 1 3.627-3.206 9.01 9.01 0 0 1 1.592-.133 10.407 10.407 0 0 1 4.505 1.127z" transform="translate(-260.65 -20.984)"/><path d="m155.58 80.471c-2.585-.087-1.724-3.1-1.679-3.271-.001.023.175 2.365 1.679 3.271z" transform="translate(-149.291 -74.062)"/><path d="m214.458 20.6c-1.99 1.194-1.592 4.044-1.592 4.044-1.902-2.892 1.434-3.976 1.592-4.044z" transform="translate(-206.142 -19.829)"/></g><path d="m91.9 149.768a.444.444 0 0 1 .11.6c-.087.155-.22.133-.421.045-.265-.133-1.857-1.061-3.293-2.012 1.637.576 3.293 1.194 3.559 1.326.004-.001.026.022.045.041z" fill="#fff" transform="translate(-84.79 -144.053)"/></g></svg>