<svg xmlns="http://www.w3.org/2000/svg" width="24" height="24" fill="none"><path fill="#0033AD" d="M12 0c6.627 0 12 5.373 12 12s-5.373 12-12 12S0 18.627 0 12 5.373 0 12 0Z"/><path fill="#fff" d="M8.337 11.98a1.089 1.089 0 0 0 1.028 1.15h.066c.606 0 1.094-.488 1.089-1.095 0-.606-.488-1.094-1.094-1.088a1.088 1.088 0 0 0-1.09 1.033ZM4.264 11.697a.353.353 0 1 0-.037.704.353.353 0 0 0 .037-.704ZM8.269 5.639a.358.358 0 0 0 .156-.475.358.358 0 0 0-.475-.157.354.354 0 0 0 .319.632ZM9.375 7.571a.545.545 0 0 0 .243-.73.545.545 0 0 0-.73-.242.543.543 0 1 0 .488.973ZM5.649 8.9a.45.45 0 0 0 .621-.129.45.45 0 0 0-.129-.621.45.45 0 0 0-.621.129.444.444 0 0 0 .129.621ZM6.31 11.502a.544.544 0 0 0-.575.516.544.544 0 0 0 .515.576.544.544 0 0 0 .576-.516.55.55 0 0 0-.515-.576ZM5.707 15.165a.454.454 0 0 0-.2.607c.114.22.382.31.607.2a.454.454 0 0 0 .2-.607.455.455 0 0 0-.607-.2ZM7.827 10.376a.635.635 0 0 0 .886-.187.635.635 0 0 0-.187-.887.635.635 0 0 0-.886.187.641.641 0 0 0 .187.887ZM14.552 7.528a.55.55 0 0 0 .758-.156.55.55 0 0 0-.157-.758.55.55 0 0 0-.758.157.543.543 0 0 0 .157.757ZM15.668 5.606a.35.35 0 0 0 .488-.104.35.35 0 0 0-.104-.487.352.352 0 0 0-.487.098.36.36 0 0 0 .103.493ZM14.632 10.936a1.088 1.088 0 0 0-1.15 1.029 1.088 1.088 0 0 0 1.03 1.149h.06a1.09 1.09 0 0 0 1.089-1.094 1.08 1.08 0 0 0-1.029-1.084ZM9.734 10.297a1.09 1.09 0 0 0 2.066-.493 1.09 1.09 0 0 0-1.582-.978c-.54.276-.757.936-.484 1.471ZM18.29 8.9a.451.451 0 1 0-.61-.2c.118.22.388.311.61.2ZM15.524 9.246a.643.643 0 0 0 .576 1.147.643.643 0 0 0 .286-.861.646.646 0 0 0-.862-.286ZM11.957 5.442a.455.455 0 0 0 .475-.425.451.451 0 0 0-.9-.055.458.458 0 0 0 .425.48ZM11.952 8.264a.636.636 0 0 0 .675-.607.636.636 0 0 0-.607-.674.642.642 0 0 0-.068 1.28ZM8.476 14.82a.643.643 0 0 0-.576-1.148.643.643 0 0 0 .576 1.147ZM12.369 9.203a1.088 1.088 0 1 0 1.824 1.192 1.088 1.088 0 1 0-1.824-1.192ZM14.266 13.768a1.09 1.09 0 0 0-1.465-.485 1.09 1.09 0 0 0-.485 1.466c.273.54.93.758 1.465.485.536-.268.758-.917.488-1.458.002-.003.002-.003-.003-.008ZM16.174 13.69a.635.635 0 0 0-.887.187.635.635 0 0 0 .187.887.641.641 0 0 0 .7-1.074ZM18.265 12.053a.544.544 0 0 0-.515-.576.544.544 0 0 0-.576.515.544.544 0 0 0 .515.576.55.55 0 0 0 .576-.515ZM19.773 11.664a.353.353 0 1 0-.037.704.353.353 0 0 0 .038-.704ZM18.351 15.165a.45.45 0 0 0-.621.13.45.45 0 0 0 .128.62.45.45 0 0 0 .622-.128.444.444 0 0 0-.129-.622ZM8.33 18.46a.352.352 0 0 0-.39.586c.164.108.382.06.488-.099a.345.345 0 0 0-.099-.487ZM15.731 18.427a.358.358 0 0 0-.156.475.358.358 0 0 0 .475.156.354.354 0 0 0-.319-.631ZM11.631 14.862c.329-.505.19-1.18-.316-1.513a1.095 1.095 0 0 0-1.513.316 1.091 1.091 0 0 0 .912 1.69c.374.005.715-.182.917-.493ZM9.448 16.537a.55.55 0 0 0-.757.157.55.55 0 0 0 .156.758.55.55 0 0 0 .758-.157.542.542 0 0 0-.157-.758ZM11.995 18.624a.455.455 0 0 0-.475.424.451.451 0 0 0 .9.056.458.458 0 0 0-.425-.48ZM12 15.802a.636.636 0 0 0-.675.606.636.636 0 0 0 .607.675.641.641 0 1 0 .068-1.28ZM14.625 16.494a.546.546 0 1 0 .498.973.546.546 0 0 0-.498-.973Z"/></svg>