<svg id="ic_avalanche_96" xmlns="http://www.w3.org/2000/svg" width="84" height="84" viewBox="0 0 84 84">
  <circle id="Ellipse_81" data-name="Ellipse 81" cx="42" cy="42" r="42" fill="#e84142"/>
  <path id="Path_1563" data-name="Path 1563" d="M179.395,101.809c1.455-2.513,3.8-2.513,5.258,0l9.061,15.907c1.455,2.513.265,4.564-2.646,4.564H172.813c-2.877,0-4.068-2.05-2.646-4.564ZM161.867,71.185c1.455-2.513,3.77-2.513,5.225,0l2.017,3.638,4.762,8.367a8.693,8.693,0,0,1,0,7.573L157.9,118.444a8.4,8.4,0,0,1-6.548,3.836H138.089c-2.91,0-4.1-2.017-2.646-4.564Z" transform="translate(-122.58 -58.717)" fill="#fff"/>
</svg>
