<svg width="24" height="24" viewBox="0 0 24 24" fill="none" xmlns="http://www.w3.org/2000/svg">
<g clip-path="url(#clip0_1_1835)">
<path d="M24 12C24 5.36638 18.6207 0 12 0C5.36638 0 0 5.36638 0 12C0 18.6207 5.36638 24 12 24C18.6207 24 24 18.6207 24 12Z" fill="url(#paint0_radial_1_1835)"/>
<path d="M20.1597 8.25C20.108 8.54741 20.0562 8.68965 19.9787 8.84482C19.9011 9.02586 19.8235 9.21982 19.7459 9.63362C19.72 9.78879 19.6942 9.9181 19.6812 10.0215V10.0345C19.6554 10.2026 19.6424 10.319 19.5778 10.5129C19.5261 10.681 19.4355 10.9526 19.2157 11.2371C19.0347 11.4698 18.7373 11.8707 18.3364 11.9224C18.2976 11.9224 18.233 11.9224 18.1942 11.9095C17.0562 11.3276 16.0864 10.9009 15.7502 10.8103C15.3623 10.694 15.414 9.84051 15.4528 9.09051C15.4787 8.75431 15.4916 8.43103 15.4787 8.15948C15.4269 7.20258 15.2588 6.1681 14.4312 5.66379C13.9399 5.36638 13.2933 5.27586 12.6855 5.27586C12.8019 5.22413 12.9183 5.14655 13.0605 5.06896C13.4226 4.86206 13.8623 4.60344 14.3149 4.55172C14.4571 4.53879 14.5993 4.52586 14.7416 4.5C15.6338 4.39655 16.4097 4.30603 17.2243 4.59051C17.5993 4.71982 18.3493 5.13362 18.5433 5.53448C18.6855 5.80603 18.9183 6.02586 19.3709 6.45258C19.6166 6.67241 19.7718 6.80172 19.8881 6.90517C20.0562 7.03448 20.0821 7.07327 20.1338 7.16379C20.289 7.47413 20.2373 7.79741 20.1597 8.25Z" fill="white"/>
<path d="M16.0345 12.1681C16.0863 12.181 16.1121 12.2457 16.0733 12.2974C15.957 12.4784 15.8147 12.737 15.6466 13.0344C15.569 13.1767 15.4914 13.3189 15.4268 13.4224C15.207 13.7974 15.194 14.1207 15.1811 14.3663C15.1682 14.6379 15.1552 14.7543 14.9871 14.8577C14.8578 14.9482 14.7156 14.9741 13.7845 15.1163C13.6164 15.1422 13.5518 15.1681 13.4871 15.2069C13.4742 15.2198 13.4483 15.2198 13.4354 15.2327C13.3837 15.2586 13.332 15.2069 13.332 15.1551C13.3449 15.0258 13.3449 14.8577 13.3449 14.6379V14.5991C13.3449 14.4181 13.3449 14.2629 13.332 14.1465C13.319 13.9138 13.319 13.8103 13.3837 13.7069C13.4613 13.5776 13.5259 13.5388 13.6164 13.4741C13.7587 13.3836 13.9526 13.2672 14.2242 12.8793C14.3794 12.6724 14.4052 12.556 14.4311 12.4655C14.444 12.4267 14.444 12.4138 14.5604 12.3232C14.6768 12.2327 15.0518 11.9482 15.5302 12.0258C15.6854 12.0517 15.8535 12.1034 16.0345 12.1681Z" fill="white"/>
<path d="M12.3234 16.4613C12.2975 16.4871 12.2846 16.5001 12.2458 16.5001C12.1423 16.5001 12.0777 16.4742 12.0389 16.4225C11.9484 16.3061 11.9613 16.0733 11.9742 15.9311L12.3751 15.8276C12.401 16.0475 12.4139 16.3449 12.3234 16.4613Z" fill="white"/>
<path d="M12.3494 15.0387C12.3364 15.0905 12.3364 15.1551 12.3364 15.2327C12.3364 15.2586 12.3364 15.2844 12.3364 15.3103C12.3364 15.375 12.3364 15.4784 12.3364 15.5301C12.2071 15.5689 12.1037 15.5689 11.9744 15.5689C11.9744 15.5301 11.9744 15.4655 11.9744 15.4267C11.9744 15.4008 11.9744 15.362 11.9744 15.3362C11.9744 15.2974 11.9744 15.2715 11.9744 15.2327C11.9744 15.1551 11.9744 15.0387 11.9873 15C12.0261 15 12.0649 14.987 12.1037 14.9741C12.1813 14.9612 12.2976 14.9353 12.3623 14.9482C12.3623 14.9741 12.3623 15.0129 12.3494 15.0387Z" fill="white"/>
<path d="M11.6252 16.3448C11.6122 16.5517 11.5476 16.7974 11.3536 16.8362C11.2631 16.8492 11.2243 16.8233 11.1984 16.7974C11.0691 16.6811 11.0562 16.319 11.0691 16.0604C11.1597 16.0604 11.2631 16.0474 11.3924 16.0216C11.47 16.0086 11.5476 15.9828 11.6122 15.9698C11.6252 16.0733 11.6381 16.2026 11.6252 16.3448Z" fill="white"/>
<path d="M11.5346 15.6207L11.1079 15.7759C11.1338 15.6078 11.1596 15.375 11.1726 15.2199C11.1855 15.1164 11.2114 15.0776 11.2243 15.0647C11.2243 15.0647 11.2372 15.0517 11.2502 15.0517C11.2502 15.0517 11.2502 15.0517 11.2631 15.0517H11.276L11.5476 15.0388C11.5346 15.1681 11.5346 15.4526 11.5346 15.6207Z" fill="white"/>
<path d="M10.8363 15.4914C10.8104 15.5561 10.7846 15.7371 10.7716 15.8664L10.2415 15.8535C10.2673 15.6854 10.319 15.5173 10.3578 15.388C10.4096 15.2587 10.4484 15.1552 10.5001 15.1293C10.5518 15.1035 10.6682 15.0906 10.7458 15.1552C10.8621 15.2328 10.888 15.3492 10.8363 15.4914Z" fill="white"/>
<path d="M10.6424 17.1337C10.6036 17.1854 10.5519 17.2242 10.5001 17.2242C10.4355 17.2371 10.3967 17.2112 10.3579 17.1854C10.1898 17.0302 10.2027 16.5259 10.2157 16.2802C10.4355 16.2285 10.6812 16.1897 10.7975 16.1768C10.7975 16.3707 10.8105 16.9009 10.6424 17.1337Z" fill="white"/>
<path d="M9.94424 15.8276C9.91838 15.8922 9.89252 15.9569 9.87959 16.0215C9.81493 16.0474 9.62097 16.0215 9.427 15.9827L9.55631 15.1422C9.77614 15.0776 10.0348 15.0646 10.0865 15.1293C10.177 15.2198 10.0089 15.6465 9.94424 15.8276Z" fill="white"/>
<path d="M9.69838 17.2501C9.59493 17.3794 9.43976 17.444 9.21993 17.4311C9.06476 17.4311 9.01303 17.3664 8.98717 17.3276C8.87079 17.1337 8.98717 16.6811 9.10355 16.3966L9.82769 16.4354C9.84062 16.4871 9.84062 16.5518 9.84062 16.6164C9.85355 16.8363 9.82769 17.0949 9.69838 17.2501Z" fill="white"/>
<path d="M15.6984 11.1336C15.0389 10.9525 15.1036 9.99565 15.1553 9.06461C15.1682 8.74134 15.1941 8.43099 15.1812 8.17237C15.1294 7.30599 14.9872 6.36203 14.2889 5.9353C13.5389 5.48272 12.3105 5.58617 11.5605 5.67668C11.2889 5.75427 11.0303 5.81892 10.8234 5.80599C10.3837 5.78013 10.0346 5.5991 9.72426 5.43099C9.4915 5.30168 9.28461 5.1853 9.07771 5.1853C9.06478 5.1853 9.05185 5.1853 9.05185 5.1853C8.46995 5.2241 8.1984 5.36634 7.95271 5.58617C7.88806 5.63789 7.81047 5.79306 7.56478 6.50427C7.43547 6.86634 7.42254 7.0603 7.39668 7.24134C7.37082 7.40944 7.35788 7.59048 7.26737 7.86203C7.20271 8.04306 7.15099 8.19823 7.1122 8.35341C6.99582 8.75427 6.89237 9.07754 6.60788 9.46547C6.56909 9.50427 6.5303 9.58185 6.47857 9.64651C6.41392 9.74996 6.33633 9.87927 6.21995 10.0215C6.14237 10.125 5.97426 10.5129 5.9872 10.6293C6.00013 10.8232 6.06478 10.9396 6.12944 11.0689C6.19409 11.1982 6.28461 11.3534 6.29754 11.5732V11.612C6.3234 11.9482 6.27168 12.1163 5.63806 12.6853C5.23719 13.0474 4.93978 13.3965 4.74582 13.6551C4.73288 13.681 4.74582 13.7069 4.78461 13.7069C4.79754 13.7069 4.79754 13.7069 4.79754 13.7069C4.81047 13.7069 4.8234 13.7069 4.83633 13.7069C4.84926 13.7069 4.8622 13.7069 4.87513 13.7069C4.88806 13.7069 4.90099 13.7069 4.91392 13.7069C5.06909 13.7198 5.22426 13.7844 5.32771 13.9008C5.34064 13.9267 5.37944 13.9267 5.4053 13.9138C5.50875 13.875 5.62513 13.875 5.72857 13.8879C5.85788 13.9008 6.00013 13.9396 6.09064 14.0301C6.11651 14.056 6.1553 14.0689 6.19409 14.056C6.29754 14.0301 6.41392 14.0301 6.51737 14.0689C6.59495 14.0948 6.67254 14.1465 6.72426 14.2112C6.76306 14.25 6.82771 14.2629 6.87944 14.237C6.9053 14.2241 6.94409 14.1982 6.98288 14.1853C7.12513 14.1336 7.2803 14.1594 7.40961 14.2112C7.47426 14.237 7.53892 14.25 7.60357 14.3017C7.70702 14.3793 7.78461 14.4827 7.8234 14.5991C7.84926 14.6638 7.93978 14.6896 7.99151 14.6379C8.09495 14.5603 8.17254 14.5474 8.25013 14.5732C8.28892 14.5862 8.31478 14.612 8.34064 14.6508C8.37944 14.7025 8.44409 14.7543 8.49582 14.7284C8.71564 14.6638 8.97426 14.7025 9.16823 14.806C9.23288 14.8448 9.31047 14.8965 9.34926 14.9741V14.9353C9.34926 14.9224 9.36219 14.9094 9.37513 14.8965L9.41392 14.8836C9.51737 14.8448 10.0605 14.6896 10.2674 14.9094C10.2803 14.9224 10.2932 14.9224 10.3062 14.9094C10.332 14.8836 10.3579 14.8577 10.3708 14.8577C10.5131 14.7801 10.7458 14.7672 10.901 14.9094C10.9269 14.9353 10.9786 14.9224 11.0044 14.8965C11.0174 14.8706 11.0303 14.8577 11.0562 14.8448C11.1079 14.7931 11.1855 14.7801 11.2631 14.7801L11.5605 14.7672C11.6381 14.7672 11.8708 14.7413 11.9355 14.7284H11.9484C11.9743 14.7284 12.0131 14.7155 12.0518 14.7025C12.1941 14.6767 12.3622 14.6379 12.4915 14.7025C12.6208 14.7672 12.6079 14.9094 12.595 15.0388C12.595 15.0905 12.582 15.1422 12.582 15.1939C12.582 15.2198 12.582 15.2456 12.582 15.2715C12.582 15.3879 12.582 15.4913 12.5691 15.5689L12.582 15.6336C12.582 15.6336 12.582 15.6336 12.582 15.6465C12.595 15.6982 12.6596 15.737 12.6984 15.6982C12.8018 15.6336 12.9053 15.556 12.9441 15.5043V15.4913C12.9441 15.4784 12.957 15.4525 12.97 15.4008C12.9829 15.2844 13.0087 15.0646 13.0087 14.612C13.0087 14.5862 13.0087 14.5732 13.0087 14.5603C13.0087 14.3922 13.0087 14.25 12.9958 14.1336C12.9829 13.8879 12.97 13.6939 13.0993 13.5C13.2156 13.306 13.332 13.2413 13.4484 13.1638C13.5777 13.0862 13.72 12.9956 13.9656 12.6594C14.082 12.4913 14.095 12.4267 14.1079 12.375C14.1337 12.2456 14.1725 12.1681 14.3665 12.0388C14.5217 11.9224 14.9743 11.5732 15.595 11.6767C15.8019 11.7155 16.1251 11.8189 16.4613 11.9482C16.4743 11.9482 16.4872 11.9612 16.5001 11.9612H16.5131C16.8105 12.0775 17.082 12.2069 17.276 12.3103C17.3148 12.3362 17.3665 12.3232 17.4053 12.2844C17.47 12.2069 17.5346 12.1681 17.5993 12.1163C17.6251 12.1034 17.651 12.0905 17.6639 12.0775C17.6769 12.0775 17.6768 12.0646 17.6768 12.0646C17.7286 12.0258 17.7286 11.9224 17.6639 11.8965C16.7975 11.4698 15.97 11.2112 15.6984 11.1336ZM9.46564 11.3275C9.25875 12.2069 7.88806 13.1896 7.26737 13.1896H7.25444C7.24151 13.1896 7.22857 13.1896 7.22857 13.1896C7.21564 13.1896 7.20271 13.1896 7.18978 13.1767C7.17685 13.1767 7.17685 13.1767 7.16392 13.1767C7.04754 13.1379 6.89237 13.0603 6.77599 12.9439C6.6984 12.8663 6.63375 12.7629 6.60788 12.6724C6.60788 12.6594 6.59495 12.6336 6.59495 12.6206C6.55616 12.4655 6.51737 12.2844 6.64668 11.9741C6.65961 11.9353 6.68547 11.8965 6.6984 11.8577C6.6984 11.8448 6.71133 11.8319 6.71133 11.8189C6.72426 11.7801 6.7372 11.7543 6.75013 11.7284C6.76306 11.6767 6.78892 11.6379 6.80185 11.612C6.80185 11.5991 6.81478 11.5862 6.81478 11.5732C6.85357 11.4698 6.85357 11.431 6.86651 11.3922C6.86651 11.3663 6.87944 11.3146 6.89237 11.2629C6.93116 11.0948 6.95702 10.9525 6.96995 10.8362C6.99582 10.6163 7.03461 10.4224 7.15099 10.2413C7.17685 10.2155 7.18978 10.1896 7.21564 10.1638C7.22857 10.1508 7.22857 10.1508 7.24151 10.1379C7.25444 10.125 7.25444 10.125 7.26737 10.112C7.29323 10.0862 7.33202 10.0732 7.35788 10.0603C7.37082 10.0603 7.38375 10.0474 7.39668 10.0474C7.42254 10.0344 7.4484 10.0344 7.47426 10.0215C7.59064 9.99565 7.71995 9.99565 7.87513 10.0086C8.04323 10.0215 8.1984 10.0474 8.32771 10.0862C8.44409 10.112 8.54754 10.1508 8.62513 10.1896C8.63806 10.1896 8.63806 10.2025 8.65099 10.2025C8.66392 10.2155 8.67685 10.2155 8.70271 10.2284C8.72857 10.2413 8.74151 10.2413 8.76737 10.2543C8.79323 10.2672 8.81909 10.2801 8.84495 10.2931L8.87082 10.306C8.96133 10.3448 9.05185 10.3965 9.11651 10.4482C9.1553 10.4741 9.18116 10.5 9.20702 10.5258C9.21995 10.5388 9.23288 10.5388 9.23288 10.5517C9.24582 10.5646 9.24582 10.5646 9.25875 10.5775C9.5303 10.8103 9.51737 11.1336 9.46564 11.3275ZM10.1122 7.97841L10.0863 8.13358C10.0217 8.49565 9.87944 8.98703 9.3622 9.11634C8.85788 9.23272 8.74151 9.25858 8.39237 9.28444C8.37944 9.28444 8.37944 9.28444 8.3665 9.28444C8.10788 9.28444 7.60357 9.11634 7.51306 8.71548C7.46133 8.45685 7.57771 8.26289 7.75875 7.95254C7.78461 7.90082 7.8234 7.8491 7.8622 7.78444C8.12082 7.35772 8.21133 7.04737 8.28892 6.80168C8.36651 6.55599 8.43116 6.36203 8.59926 6.19392C8.63806 6.15513 8.67685 6.11634 8.72857 6.09048C8.75444 6.06461 8.79323 6.05168 8.83202 6.02582C8.88375 5.99996 8.93547 5.98703 8.9872 5.96116C9.10357 5.92237 9.23288 5.90944 9.34926 5.90944C9.59495 5.90944 9.84064 5.9741 10.0087 6.11634C10.0863 6.18099 10.2027 6.29737 10.2674 6.67237C10.2932 6.86634 10.2415 7.21548 10.1122 7.97841ZM13.8234 9.01289C13.6424 9.32323 13.5519 9.49134 13.3967 9.62065C13.0863 9.87927 12.7372 9.93099 12.4398 9.93099C12.2329 9.93099 12.0519 9.8922 11.9355 9.87927C11.6251 9.82754 11.0691 9.7241 10.8751 9.27151C10.8363 9.18099 10.8363 9.12927 10.8363 9.05168C10.8363 8.98703 10.8363 8.85772 10.7975 8.58616V8.57323C10.7846 8.44392 10.7717 8.30168 10.7975 8.12065V8.09479C10.901 7.55168 10.9398 7.4741 10.9527 7.42237C11.0044 7.31892 11.1337 7.2672 11.2501 7.33185C11.3536 7.38358 11.3924 7.51289 11.3536 7.61634C11.3406 7.6422 11.3148 7.75858 11.2243 8.1853V8.21116C11.1984 8.32754 11.2113 8.41806 11.2243 8.53444V8.54737C11.2631 8.85772 11.2631 8.98703 11.2631 9.06461C11.2631 9.07754 11.2631 9.09048 11.2631 9.10341V9.11634C11.3018 9.20685 11.3794 9.25858 11.47 9.3103C11.5346 9.33616 11.5993 9.28444 11.5863 9.21979C11.4958 8.74134 11.4958 8.1853 11.6769 7.83616C11.7415 7.71979 11.845 7.53875 11.9484 7.35772C11.9613 7.34479 11.9743 7.31892 11.9743 7.30599C11.9872 7.29306 11.9872 7.28013 12.0001 7.2672C12.0519 7.18961 12.0906 7.12496 12.1294 7.0603C12.1294 7.04737 12.1424 7.04737 12.1424 7.03444L12.1553 7.02151C12.1682 7.00858 12.1682 6.99565 12.1812 6.98272C12.1812 6.98272 12.1812 6.96979 12.1941 6.96979L12.207 6.95685C12.207 6.94392 12.22 6.94392 12.22 6.93099C12.2587 6.87927 12.2975 6.82754 12.3234 6.77582C12.3751 6.71117 12.3105 6.63358 12.2458 6.65944C12.0648 6.73703 11.9484 6.82754 11.9225 6.84048C11.832 6.91806 11.6898 6.90513 11.6122 6.80168C11.5346 6.71116 11.5475 6.56892 11.651 6.49134C11.7674 6.40082 12.3622 5.9741 13.0734 6.16806C13.5906 6.3103 13.8493 6.71116 13.9527 6.85341C14.0303 6.96979 14.2889 7.33185 14.276 7.8491C14.276 8.2241 14.1208 8.50858 13.8234 9.01289Z" fill="white"/>
<path d="M9.19418 6.36206C9.15539 6.45258 9.1166 6.55603 9.06487 6.67241C8.96143 6.94396 8.83212 7.2543 8.76746 7.37068C8.66401 7.56465 8.58643 7.69396 8.52177 7.78447C8.44418 7.90085 8.39246 7.99137 8.34074 8.12068C8.26315 8.34051 8.25022 8.5862 8.30194 8.85775C8.1597 8.84482 7.93987 8.7543 7.91401 8.62499C7.90108 8.53447 7.9528 8.44396 8.10798 8.17241C8.13384 8.12068 8.17263 8.05603 8.21143 8.0043C8.48298 7.53878 8.59936 7.18965 8.67694 6.93103C8.76746 6.65947 8.80625 6.54309 8.94849 6.43965C9.03901 6.40085 9.1166 6.37499 9.19418 6.36206Z" fill="white"/>
<path d="M8.92255 16.1379C8.76737 16.4483 8.58634 16.7327 8.46996 16.875C8.36651 16.6164 8.19841 16.0086 8.25013 15.5302C8.25013 15.5172 8.25013 15.5043 8.25013 15.4914C8.26306 15.3362 8.30186 15.2069 8.37944 15.0905C8.43117 15.0129 8.56048 14.9741 8.70272 14.9741C8.80617 14.9741 8.92255 15 9.02599 15.0517C9.07772 15.0776 9.15531 15.1422 9.15531 15.3103C9.18117 15.5431 9.06479 15.8534 8.92255 16.1379Z" fill="white"/>
<path d="M17.1985 12.6854C17.2114 12.6983 17.2114 12.7112 17.2114 12.7242C17.1727 12.8147 17.108 12.8793 17.0433 12.9569C16.9658 13.0474 16.8752 13.1509 16.7976 13.319C16.6813 13.5518 16.6425 13.7587 16.6295 14.3018C16.6037 14.9354 16.6295 15.2845 16.6554 15.5431C16.6683 15.7888 16.6813 15.944 16.6425 16.1897C16.552 16.6811 16.3451 17.0043 16.0735 17.4181C15.7373 17.9354 15.4011 18.4656 14.8321 18.6337C14.7804 18.6466 14.7804 18.6466 14.6252 18.6466C14.4959 18.6466 14.2761 18.6466 13.8752 18.6595C13.1252 18.6854 12.7502 18.6983 12.4399 18.763C12.1037 18.8276 11.9356 18.9052 11.7545 18.9699C11.5994 19.0345 11.4571 19.0862 11.1856 19.1509C11.0175 19.1897 10.7718 19.2156 9.93127 19.2285C9.05196 19.2285 8.52179 19.2285 7.83644 19.1509C6.87955 19.0474 6.4011 18.9828 6.07782 18.8147C5.32782 18.4138 5.00455 17.6897 4.4873 16.5C4.4873 16.4871 4.50024 16.4742 4.51317 16.4742C4.53903 16.4871 4.56489 16.5 4.59075 16.513C4.61661 16.5259 4.64248 16.5259 4.65541 16.5259C4.70713 16.5388 4.75886 16.5388 4.81058 16.5259C4.82351 16.5259 4.82351 16.5259 4.83644 16.513C4.84937 16.513 4.8623 16.513 4.8623 16.5259C4.9011 16.6164 4.95282 16.694 5.04334 16.7457C5.13386 16.7974 5.2373 16.7974 5.32782 16.7974C5.43127 16.7974 5.53472 16.7845 5.63817 16.7716C5.68989 16.7716 5.74161 16.7974 5.76748 16.8362C5.85799 17.069 5.97437 17.2242 6.15541 17.25C6.16834 17.25 6.18127 17.25 6.1942 17.25C6.23299 17.25 6.29765 17.2371 6.37524 17.1854C6.43989 17.1337 6.54334 17.1724 6.59506 17.2371C6.63386 17.3018 6.68558 17.3406 6.7373 17.3793C6.91834 17.5604 7.35799 17.6509 7.72006 17.6509C7.91403 17.6509 8.09506 17.625 8.19851 17.5733C8.35368 17.4957 8.35368 17.3923 8.34075 17.3406C8.32782 17.263 8.31489 17.1724 8.30196 17.0949C8.30196 17.0819 8.31489 17.0819 8.31489 17.0949C8.34075 17.1466 8.36661 17.1983 8.43127 17.2112C8.4442 17.2112 8.4442 17.2112 8.45713 17.2112C8.56058 17.2112 8.71575 17.25 8.74161 17.3406C8.75455 17.3923 8.78041 17.4311 8.80627 17.4828C8.87092 17.5733 8.9873 17.6897 9.23299 17.7026H9.24592C9.53041 17.7026 9.75024 17.6121 9.89248 17.4311C9.90541 17.4181 9.90541 17.4052 9.91834 17.3923C9.97006 17.3147 10.1252 17.3147 10.1899 17.3793C10.2675 17.444 10.358 17.4828 10.4614 17.4828C10.4744 17.4828 10.5002 17.4828 10.5132 17.4828C10.6425 17.4699 10.7459 17.4052 10.8364 17.2888C10.8882 17.2112 10.927 17.1207 10.9528 17.0173C10.9658 16.9914 11.0045 16.9785 11.0304 17.0043C11.0821 17.0561 11.1726 17.1078 11.302 17.1078C11.3278 17.1078 11.3666 17.1078 11.4054 17.0949C11.6511 17.0431 11.7804 16.8362 11.8321 16.6164C11.8321 16.6035 11.8451 16.6035 11.8451 16.6164C11.9097 16.694 12.0261 16.7845 12.2201 16.7845C12.233 16.7845 12.2459 16.7845 12.2459 16.7845C12.3494 16.7845 12.4399 16.7328 12.5045 16.6552C12.5821 16.5518 12.608 16.3966 12.6209 16.2543C12.6209 16.2156 12.6468 16.1768 12.6985 16.1509C12.9054 16.0604 13.164 15.8664 13.2416 15.7371C13.2416 15.7371 13.2416 15.7242 13.2545 15.7242C13.2675 15.6854 13.3063 15.6595 13.3321 15.6595C13.5002 15.6337 13.5649 15.5949 13.6295 15.569C13.6813 15.5431 13.7201 15.5302 13.8494 15.5043C14.7933 15.3621 14.9744 15.3233 15.1813 15.194C15.4916 14.9871 15.5045 14.7026 15.5175 14.4311C15.5304 14.1983 15.5433 13.9397 15.7244 13.6293C15.789 13.513 15.8666 13.3837 15.9442 13.2285C16.0864 12.9699 16.2804 12.6078 16.4226 12.4138C16.4485 12.375 16.5002 12.3621 16.539 12.388C16.8623 12.5043 17.1468 12.6337 17.1985 12.6854Z" fill="white"/>
<path d="M8.01747 15.5043C7.97868 15.8276 7.95281 16.2673 8.00454 16.8362C8.01747 16.9914 8.04333 17.1595 8.06919 17.3276C8.0304 17.3535 7.88816 17.3923 7.6554 17.3793C7.31919 17.3664 6.98299 17.2888 6.87954 17.1724L6.86661 17.1595C6.78902 17.0948 6.72437 17.0431 6.72437 16.9267C6.72437 16.8879 6.7373 16.8492 6.77609 16.7845C6.80195 16.7586 6.82781 16.7198 6.85368 16.6681C6.9054 16.5905 6.98299 16.5 7.06057 16.3707C7.2804 16.0086 7.35799 15.8923 7.46143 15.75C7.47437 15.7371 7.47437 15.7242 7.4873 15.7112C7.55195 15.6336 7.61661 15.5302 7.73299 15.3621C7.81057 15.2457 7.87523 15.1423 7.93988 15.0647C8.0304 14.9354 8.09505 14.8707 8.13385 14.8319C8.13385 14.8836 8.12092 14.9612 8.10799 15.0388C8.05626 15.194 8.0304 15.3362 8.01747 15.5043Z" fill="white"/>
<path d="M7.84926 10.4095C7.84926 10.4225 7.84926 10.4225 7.84926 10.4095C7.79753 10.4742 7.74581 10.5518 7.68115 10.6811C7.51305 11.0431 7.51305 11.25 7.51305 11.4181C7.51305 11.5087 7.51305 11.5733 7.48719 11.6509C7.47426 11.7026 7.44839 11.7673 7.4096 11.8319C7.31908 12.0518 7.18977 12.3363 7.2415 12.7242C7.16391 12.6854 7.04753 12.5949 7.02167 12.5561C7.02167 12.5302 7.00874 12.5173 7.00874 12.4914C6.98288 12.375 6.96994 12.2975 7.0346 12.1164C7.2415 11.6509 7.26736 11.5345 7.28029 11.4052C7.28029 11.3794 7.29322 11.3535 7.29322 11.3147C7.33201 11.1337 7.35788 10.9785 7.37081 10.8492C7.39667 10.6552 7.42253 10.5259 7.48719 10.4354C7.51305 10.3966 7.5777 10.3837 7.66822 10.3837C7.70701 10.3837 7.74581 10.3837 7.79753 10.3966H7.81046C7.84926 10.4095 7.84926 10.4095 7.84926 10.4095Z" fill="white"/>
<path d="M7.59079 15.0259C7.57786 14.9095 7.56492 14.8061 7.5132 14.6897C7.5132 14.6897 7.50027 14.6638 7.50027 14.6509C7.48734 14.638 7.48734 14.625 7.47441 14.6121L7.46148 14.5992C7.44855 14.5862 7.44855 14.5862 7.43561 14.5862L7.42268 14.5733C7.40975 14.5733 7.40975 14.5604 7.39682 14.5604H7.38389C7.31923 14.5345 7.25458 14.5087 7.17699 14.4957C7.16406 14.4957 7.15113 14.4957 7.15113 14.4957C7.1382 14.4957 7.1382 14.4957 7.12527 14.4957H7.11234C7.09941 14.4957 7.08648 14.5087 7.06061 14.5087C7.04768 14.5087 7.04768 14.5216 7.03475 14.5216L7.02182 14.5345C7.00889 14.5475 7.00889 14.5475 6.99596 14.5604L6.98303 14.5733V14.5862C6.95717 14.625 6.9313 14.6638 6.90544 14.7026C6.84079 14.7931 6.77613 14.8966 6.71148 14.9871C6.64682 15.0776 6.5951 15.1552 6.53044 15.2457C6.49165 15.2975 6.46579 15.3362 6.42699 15.388C6.42699 15.4009 6.41406 15.4009 6.41406 15.4138C6.45286 15.4268 6.49165 15.4268 6.53044 15.4397C6.62096 15.4526 6.71148 15.4656 6.78906 15.4785C6.9701 15.5043 7.16406 15.5173 7.3451 15.5043C7.35803 15.5043 7.35803 15.5043 7.37096 15.5043C7.40975 15.4397 7.47441 15.3621 7.53906 15.2587C7.57786 15.2069 7.61665 15.1552 7.64251 15.1035C7.60372 15.0906 7.59079 15.0518 7.59079 15.0259Z" fill="white"/>
<path d="M6.93114 15.7888C6.91821 15.9311 6.76304 16.2931 6.51735 16.6423C6.31045 16.9268 6.18114 17.0043 6.15528 17.0043C6.05183 16.9914 5.96132 16.7457 5.88373 16.5C5.85787 16.3966 5.81908 16.3061 5.80614 16.2156C5.75442 16.0345 5.74149 15.7759 5.75442 15.6207C5.96132 15.7371 6.32339 15.763 6.84063 15.763C6.86649 15.7759 6.90528 15.7759 6.93114 15.7888Z" fill="white"/>
<path d="M6.56918 14.6249C6.47867 14.7672 6.38815 14.8965 6.29763 15.0258C6.24591 15.0905 6.20712 15.1551 6.15539 15.2198C6.12953 15.2586 6.09074 15.2974 6.06487 15.3362C5.98729 15.3232 5.92263 15.2974 5.84505 15.2844C5.78039 15.2715 5.72867 15.2456 5.66401 15.2198C5.65108 15.2198 5.63815 15.2068 5.62522 15.2068C5.61229 15.1939 5.59936 15.168 5.58643 15.1551C5.61229 15.1163 5.62522 15.0646 5.65108 15.0258C5.68987 14.9482 5.72867 14.8706 5.78039 14.793C5.85798 14.6637 5.94849 14.5215 6.09074 14.431C6.10367 14.431 6.10367 14.418 6.1166 14.418C6.16832 14.3922 6.22005 14.3663 6.2847 14.3534C6.29763 14.3534 6.33643 14.3534 6.36229 14.3534H6.37522C6.37522 14.3534 6.37522 14.3534 6.38815 14.3534C6.40108 14.3534 6.41401 14.3663 6.43987 14.3663C6.43987 14.3663 6.45281 14.3663 6.45281 14.3793C6.46574 14.3922 6.47867 14.3922 6.4916 14.4051C6.46574 14.3922 6.51746 14.4439 6.51746 14.431C6.54332 14.5086 6.55625 14.5474 6.56918 14.6249Z" fill="white"/>
<path d="M5.87075 14.25C5.70265 14.3794 5.58627 14.5604 5.49575 14.7544C5.44402 14.8578 5.3923 14.9613 5.34058 15.0647C5.34058 15.0776 5.32765 15.0906 5.32765 15.0906C5.27592 15.0776 5.2242 15.0647 5.1854 15.0518C5.13368 15.0388 5.08196 15.013 5.03023 15C5.00437 14.9871 4.99144 14.9742 4.96558 14.9613C5.0173 14.8707 5.06902 14.7802 5.13368 14.6897C5.21127 14.5733 5.30178 14.444 5.3923 14.3406C5.43109 14.3018 5.46989 14.25 5.50868 14.2242C5.5604 14.1983 5.61213 14.1983 5.67678 14.2113C5.74144 14.2113 5.80609 14.2113 5.85782 14.2371C5.84489 14.2371 5.85782 14.25 5.87075 14.25Z" fill="white"/>
<path d="M5.61232 16.4483C5.59939 16.4612 5.59939 16.4612 5.58646 16.4742H5.57353C5.53473 16.4742 5.49594 16.4871 5.45715 16.4871C5.37956 16.4871 5.30198 16.5 5.22439 16.4871C5.1856 16.4871 5.1468 16.4742 5.12094 16.4483C5.09508 16.4095 5.08215 16.3319 5.06922 16.2802C5.01749 15.9957 5.01749 15.7112 5.04335 15.4268C5.1856 15.4785 5.34077 15.5173 5.49594 15.5431C5.45715 15.8018 5.5218 16.1768 5.54767 16.2802C5.58646 16.3319 5.59939 16.3966 5.61232 16.4483Z" fill="white"/>
<path d="M5.1467 14.1595C5.01739 14.3146 4.90101 14.4827 4.79757 14.6638C4.75877 14.7284 4.70705 14.806 4.66825 14.8836C4.61653 14.8707 4.56481 14.8448 4.52601 14.819C4.48722 14.7931 4.44843 14.7672 4.42257 14.7414C4.40963 14.7284 4.38377 14.7155 4.37084 14.7026C4.37084 14.7026 4.35791 14.7026 4.35791 14.6896C4.37084 14.6509 4.3967 14.625 4.3967 14.5991C4.42257 14.5345 4.44843 14.4827 4.48722 14.431C4.55188 14.3276 4.61653 14.2241 4.69412 14.1207C4.71998 14.0819 4.74584 14.0431 4.79757 14.0302C4.83636 14.0172 4.88808 14.0302 4.92688 14.0302C5.00446 14.0431 5.08205 14.0948 5.1467 14.1595Z" fill="white"/>
<path d="M4.15102 14.8448C4.15102 14.8319 4.16396 14.8319 4.15102 14.8448C4.20275 14.8965 4.24154 14.9353 4.29327 14.9741C4.31913 14.987 4.33206 15.0129 4.35792 15.0258C4.35792 15.0258 4.35792 15.0258 4.35792 15.0387C4.3062 15.2586 4.2674 15.4913 4.2674 15.7241C4.2674 15.737 4.25447 15.737 4.25447 15.7241C4.18982 15.4525 4.11223 15.0129 4.15102 14.8448Z" fill="white"/>
<path d="M4.78466 15.3233C4.7588 15.5173 4.74587 15.7112 4.7588 15.9052C4.7588 16.0086 4.77173 16.1121 4.78466 16.2285C4.7588 16.2285 4.73294 16.2285 4.70708 16.2285H4.69415H4.68122C4.65535 16.2155 4.65535 16.2155 4.62949 16.2026C4.60363 16.1897 4.57777 16.1509 4.55191 16.1121C4.50018 16.0216 4.48725 15.9181 4.48725 15.8147C4.47432 15.6207 4.50018 15.4138 4.53897 15.2198C4.56484 15.2328 4.60363 15.2457 4.64242 15.2586C4.69415 15.2845 4.73294 15.3104 4.78466 15.3233Z" fill="white"/>
<mask id="mask0_1_1835" style="mask-type:luminance" maskUnits="userSpaceOnUse" x="0" y="0" width="24" height="24">
<path d="M24 12C24 5.36638 18.6207 0 12 0C5.36638 0 0 5.36638 0 12C0 18.6207 5.36638 24 12 24C18.6207 24 24 18.6207 24 12Z" fill="white"/>
</mask>
<g mask="url(#mask0_1_1835)">
<g opacity="0.8">
<path opacity="0.8" d="M9.87969 25.4094C9.00038 25.4094 8.17279 25.3577 7.47451 25.306L7.28055 25.2931L7.08658 25.2672C6.99607 25.2543 6.89262 25.2413 6.77624 25.2284C6.10382 25.1508 4.84951 25.0215 3.46589 24.375L3.24607 24.2715L3.0521 24.1551C0.388308 22.6551 -0.594451 20.4181 -1.13755 19.2155C-1.17635 19.1379 -1.21514 19.0474 -1.25393 18.9569C-1.52549 18.4008 -1.69359 17.9094 -1.83583 17.4439L-1.86169 17.3405L-1.88755 17.237C-2.27549 15.8663 -2.366 14.6896 -2.1979 13.5129C-2.01686 12.3362 -1.59014 11.2758 -0.82721 10.1508L-0.439279 9.51719C-0.361692 9.38788 -0.309968 9.24564 -0.271175 9.1034C0.0262386 7.62926 0.698652 6.58185 1.03486 6.07754C1.12538 5.46978 1.28055 4.87495 1.48745 4.29306L1.51331 4.20254L1.5521 4.11202C1.5521 4.09909 1.56503 4.07323 1.57796 4.03444C1.73314 3.58185 2.08227 2.53444 2.97451 1.42237L3.31072 1.03444L3.65986 0.724092C4.53917 -0.0776325 5.59951 -0.67246 6.73744 -1.00867C7.37107 -1.20263 8.03055 -1.31901 8.70296 -1.3578H8.76762H8.85813C8.97451 -1.3578 9.09089 -1.37074 9.19434 -1.37074C9.60813 -1.37074 10.0219 -1.33194 10.4357 -1.26729C10.6943 -1.22849 10.953 -1.25436 11.1987 -1.3578C11.9099 -1.65522 12.6469 -1.84918 13.4099 -1.95263C13.4745 -1.96556 13.5262 -1.96556 13.578 -1.97849C13.6943 -1.99143 13.8883 -2.01729 14.1211 -2.04315C14.5219 -2.08194 15.1426 -2.13367 15.8021 -2.13367C17.1081 -2.13367 18.2331 -1.96556 19.2418 -1.61643L19.3323 -1.59056L19.4099 -1.5647C21.634 -0.724184 22.759 0.45254 23.5737 1.47409L23.6124 1.52582L23.7288 1.62926C24.4659 2.19823 25.0866 2.90944 25.578 3.69823L25.7331 3.94392L25.8624 4.20254C26.9487 6.41375 26.5995 8.46978 26.4702 9.23271L26.4573 9.2715C26.3668 9.84047 26.2116 10.3965 26.0176 10.9396C25.94 11.4568 25.8237 11.9741 25.6555 12.4655C25.3711 13.3448 24.9443 14.1853 24.4012 14.9353C24.0909 15.375 23.7288 15.8017 23.3409 16.1767C23.1987 16.306 23.1081 16.487 23.0823 16.681C23.0693 16.7974 23.0435 16.9137 23.0305 17.0301C22.7073 18.737 21.9702 19.9267 21.6599 20.4051L20.7418 21.7241C19.6297 23.1077 18.3107 24.0129 16.7202 24.5043L16.3323 24.6206L15.9185 24.6982C15.44 24.7887 14.9616 24.8275 14.4702 24.8275C14.4055 24.8275 14.3409 24.8275 14.2633 24.8275H14.2374H14.1599H14.0693C13.8883 24.8275 13.7073 24.8663 13.5262 24.9181C12.4659 25.2543 11.3021 25.4094 9.87969 25.4094Z" stroke="url(#paint1_linear_1_1835)" stroke-width="0.136474" stroke-miterlimit="10"/>
<path opacity="0.8" d="M9.87981 24.4913C9.03929 24.4913 8.22463 24.4396 7.55222 24.3878L7.39705 24.3749L7.24188 24.349C7.13843 24.3361 7.02205 24.3232 6.90567 24.3103C6.24619 24.2456 5.15998 24.1163 3.94446 23.5473L3.76343 23.4568L3.59532 23.3663C1.22894 22.0603 0.362565 20.1077 -0.154676 18.9439C-0.193469 18.8663 -0.232262 18.7628 -0.283987 18.6723C-0.529676 18.1809 -0.684849 17.7154 -0.814159 17.3016L-0.840021 17.2111L-0.865883 17.1335C-1.20209 15.9051 -1.29261 14.8706 -1.13743 13.849C-0.982262 12.8404 -0.594331 11.8965 0.0780824 10.9137L0.582393 10.099C0.67291 9.9568 0.737565 9.7887 0.763427 9.6206C1.00912 8.22405 1.6686 7.24129 1.96601 6.7887L2.00481 6.73698L2.01774 6.71111C2.01774 6.69818 2.03067 6.68525 2.03067 6.67232C2.0436 6.60767 2.06946 6.55594 2.08239 6.50422C2.15998 5.93525 2.30222 5.36629 2.49619 4.82318L2.52205 4.7456L2.54791 4.66801C2.56084 4.64215 2.56084 4.61629 2.5867 4.5387C2.72894 4.11198 3.02636 3.21973 3.80222 2.26284L4.0867 1.92663L4.37119 1.66801C5.13412 0.969735 6.05222 0.452494 7.03498 0.168011C7.60394 -9.2659e-05 8.17291 -0.103541 8.76774 -0.129403H8.81946H8.89705C9.0005 -0.129403 9.09101 -0.142334 9.18153 -0.142334C9.60825 -0.142334 10.022 -0.258713 10.4358 -0.181127C10.7591 -0.116472 11.0824 -0.155265 11.3798 -0.284575C11.9358 -0.530265 12.6858 -0.620782 13.5393 -0.737162C13.6039 -0.750093 13.6557 -0.750093 13.6945 -0.763024C13.8108 -0.775955 13.9919 -0.801817 14.1988 -0.814748C14.5738 -0.853541 15.1557 -0.892334 15.7893 -0.892334C16.9789 -0.892334 17.9876 -0.737162 18.8798 -0.439748L18.9574 -0.413886L19.022 -0.388024C20.9876 0.361976 21.9574 1.34473 22.7203 2.31456C22.7591 2.36629 22.8108 2.41801 22.8238 2.44387L22.8367 2.4568L22.9789 2.58611L22.9919 2.61198C23.6514 3.11629 24.2074 3.73698 24.6341 4.43525L24.7634 4.64215L24.8669 4.86198C25.7979 6.76284 25.5134 8.50853 25.3841 9.2456L25.3712 9.28439C25.2807 9.82749 25.1384 10.3447 24.9445 10.862C24.8798 11.3534 24.7634 11.8447 24.6083 12.3103C24.3496 13.0861 23.9746 13.8232 23.4962 14.4956C23.1729 14.9611 22.785 15.3878 22.3712 15.7628C22.1772 15.9439 22.0479 16.1766 22.022 16.4482C21.9962 16.6421 21.9703 16.8232 21.9445 17.0171C21.66 18.5301 21.0134 19.5646 20.7031 20.0301L19.9531 21.1163C18.9574 22.3965 17.7807 23.224 16.3583 23.6637L16.035 23.7671L15.6858 23.8318C15.272 23.9094 14.8453 23.9482 14.4315 23.9353C14.3669 23.9353 14.3022 23.9353 14.2376 23.9353H14.2246H14.1858C14.1858 23.9353 14.1729 23.9353 14.147 23.9353H14.0695H13.9919H13.8496C13.6557 23.9482 13.4617 23.974 13.2677 24.0387C12.3238 24.349 11.2246 24.4913 9.87981 24.4913Z" stroke="url(#paint2_linear_1_1835)" stroke-width="0.136474" stroke-miterlimit="10"/>
<path opacity="0.8" d="M9.87968 23.4181C9.07796 23.4181 8.28916 23.3664 7.62968 23.3147L7.50037 23.3017L7.37106 23.2888C7.25468 23.2759 7.12537 23.2629 6.99606 23.25C6.37537 23.1853 5.4314 23.0819 4.37106 22.5776L4.22882 22.5129L4.09951 22.4353C2.06933 21.2974 1.31933 19.6164 0.827955 18.5043C0.789162 18.4138 0.737438 18.2974 0.698645 18.2069C0.478817 17.7672 0.336576 17.3534 0.220196 16.9655L0.194334 16.9009L0.181403 16.8362C-0.116011 15.7759 -0.193597 14.8707 -0.0642865 14.0172C0.0650239 13.1509 0.414162 12.3362 1.00899 11.4698L1.08658 11.3664L1.16416 11.2629C1.21589 11.1983 1.25468 11.1336 1.3064 11.0819L1.60382 10.5259C1.70727 10.3448 1.77192 10.1509 1.79778 9.94396C1.99175 8.70258 2.58658 7.81034 2.85813 7.39655C2.87106 7.37069 2.89692 7.34482 2.90985 7.33189L2.97451 7.24137C3.00037 7.18965 3.02623 7.125 3.05209 7.04741C3.07795 6.96982 3.11675 6.85344 3.14261 6.75C3.20727 6.21982 3.33658 5.70258 3.51761 5.19827L3.54347 5.13362L3.56933 5.06896C3.58227 5.01724 3.60813 4.97844 3.63399 4.88793C3.7633 4.48706 4.00899 3.75 4.66847 2.94827L4.8883 2.67672L5.12106 2.46982C5.76761 1.875 6.54347 1.44827 7.38399 1.18965C7.87537 1.04741 8.36675 0.956892 8.88399 0.93103H8.92278H8.98744C9.06502 0.93103 9.14261 0.93103 9.23313 0.93103C9.67278 0.93103 10.0995 0.982754 10.5262 1.09913C10.8883 1.18965 11.2762 1.15086 11.6124 0.982754C12.1555 0.724134 12.8797 0.439651 13.7202 0.336203C13.7719 0.323272 13.8236 0.323272 13.8624 0.310341C13.9659 0.29741 14.134 0.271548 14.3409 0.258616C14.69 0.219823 15.2461 0.18103 15.828 0.18103C16.8883 0.18103 17.7805 0.310341 18.5693 0.581892L18.6211 0.607754L18.6728 0.633616C20.4831 1.31896 21.2849 2.2112 21.9055 3C22.0478 3.1681 22.0607 3.19396 22.1512 3.28448L22.2676 3.38793L22.3064 3.43965C22.6038 3.67241 23.2116 4.15086 23.7417 5.01724L23.8452 5.18534L23.9357 5.35344C24.7245 6.94396 24.4788 8.39224 24.3624 9.09051L24.3495 9.12931C24.2719 9.63362 24.1297 10.1379 23.9228 10.6164V10.6552C23.8711 11.1078 23.7676 11.5603 23.6254 11.9871C23.4055 12.6724 23.0823 13.306 22.6555 13.8879C22.3064 14.3922 21.8797 14.8448 21.4012 15.2328C21.2849 15.3233 21.1943 15.4397 21.1297 15.569C21.065 15.6983 21.0262 15.8405 21.0133 15.9828C21.0004 16.2672 20.9616 16.5517 20.9099 16.8362C20.6642 18.1422 20.0952 19.0474 19.8107 19.5L19.2288 20.3534C18.3624 21.5172 17.328 22.2672 16.0736 22.6552L15.815 22.7328L15.5305 22.7845C15.1814 22.8491 14.8193 22.875 14.4573 22.875C14.4055 22.875 14.3409 22.875 14.2762 22.875H14.2633H14.1986C14.1857 22.875 14.1599 22.875 14.0952 22.875H14.0305H13.9788L13.6814 22.8879C13.4745 22.9009 13.2676 22.9267 13.0736 23.0043C12.1814 23.2888 11.1599 23.4181 9.87968 23.4181Z" stroke="url(#paint3_linear_1_1835)" stroke-width="0.12794" stroke-miterlimit="10"/>
<path opacity="0.8" d="M9.87961 22.3448C9.11668 22.3448 8.35375 22.2931 7.72013 22.2414L7.62961 22.2284L7.53909 22.2155C7.40978 22.2026 7.26754 22.1767 7.13823 22.1638C6.55633 22.0991 5.75461 22.0086 4.84944 21.5948L4.74599 21.5431L4.64254 21.4914C2.92271 20.5215 2.28909 19.0991 1.82358 18.0646C1.77185 17.9612 1.72013 17.8448 1.68133 17.7414C1.48737 17.3405 1.35806 16.9655 1.25461 16.6422L1.24168 16.5905L1.20289 16.5517C0.698576 14.7672 0.892542 13.5129 1.8753 12.0776L1.92702 12L1.97875 11.9224C2.0434 11.8448 2.10806 11.7543 2.17271 11.6767C2.26323 11.5603 2.35375 11.431 2.4572 11.3146C2.52185 11.2371 2.57358 11.1465 2.61237 11.056L2.72875 10.7715C2.78047 10.6422 2.80633 10.5129 2.81927 10.3836C2.92271 9.23275 3.47875 8.40516 3.7503 7.99137C3.77616 7.9655 3.80202 7.91378 3.81496 7.90085L3.87961 7.7974L3.90547 7.77154C3.94427 7.70688 4.00892 7.55171 4.06065 7.39654C4.08651 7.29309 4.13823 7.12499 4.18996 6.98275V6.96981C4.24168 6.49137 4.35806 6.01292 4.52616 5.56033L4.53909 5.52154L4.55202 5.48275C4.57789 5.40516 4.60375 5.3405 4.62961 5.24999C4.74599 4.90085 4.93996 4.30602 5.47013 3.64654L5.63823 3.43964L5.80633 3.28447C7.06065 2.14654 8.4572 2.05602 8.92271 2.01723H8.94858H9.0003C9.06496 2.01723 9.12961 2.01723 9.19427 2.01723C9.7503 2.01723 10.2934 2.13361 10.8106 2.35344C10.9012 2.39223 11.0046 2.40516 11.0951 2.40516C11.1986 2.40516 11.2891 2.3793 11.3796 2.32757C11.8581 2.05602 12.7244 1.55171 13.8365 1.4224C13.8882 1.40947 13.94 1.40947 13.9787 1.40947C14.0822 1.39654 14.2374 1.38361 14.4184 1.35775C14.7546 1.33188 15.2589 1.29309 15.802 1.29309C16.746 1.29309 17.5219 1.40947 18.1813 1.6293L18.2201 1.64223L18.2589 1.65516C19.8106 2.23706 20.4701 2.97413 21.0262 3.6724C21.1684 3.86637 21.246 3.94395 21.4012 4.09913L21.4917 4.17671L21.5563 4.2543L21.6081 4.29309C21.8667 4.49999 22.3581 4.87499 22.7977 5.58619L22.8753 5.7155L22.94 5.84481C23.5736 7.13792 23.3667 8.30171 23.2632 8.9224V8.96119C23.1856 9.41378 23.0563 9.86637 22.8753 10.2931L22.8624 10.3319C22.8624 10.3448 22.8624 10.3448 22.8494 10.3707C22.8365 10.4095 22.8365 10.4483 22.8365 10.4871L22.8236 10.5388C22.7848 10.9267 22.6943 11.3017 22.565 11.6638C22.371 12.2457 22.0994 12.7888 21.7374 13.2802C21.3882 13.7845 20.9874 14.1983 20.5477 14.5215C20.3537 14.6638 20.1986 14.8448 20.0822 15.0646C19.9658 15.2845 19.9141 15.5172 19.9141 15.7629C19.9141 16.0603 19.8753 16.3707 19.8236 16.6681C19.6167 17.7802 19.1512 18.5302 18.8537 18.9827L18.427 19.6164C17.677 20.6638 16.7848 21.3362 15.7115 21.6724L15.6598 21.6853C15.5693 21.7112 15.4787 21.7371 15.3882 21.75L15.3236 21.7629C15.0262 21.8146 14.7287 21.8405 14.4313 21.8405C14.3796 21.8405 14.3279 21.8405 14.2762 21.8405H14.2632C14.2374 21.8405 14.2115 21.8405 14.1856 21.8405C14.1598 21.8405 14.1081 21.8405 14.0046 21.8405H13.9658H13.927C13.7848 21.8405 13.6037 21.8534 13.4486 21.8534C13.2287 21.8664 13.0219 21.9052 12.815 21.9827C12.0391 22.2155 11.0951 22.3448 9.87961 22.3448Z" stroke="url(#paint4_linear_1_1835)" stroke-width="0.119418" stroke-miterlimit="10"/>
<path opacity="0.8" d="M9.8796 21.2715C9.14253 21.2715 8.41839 21.2198 7.7977 21.168H7.73305L7.66839 21.1551C7.52615 21.1293 7.37098 21.1163 7.22874 21.1034C6.68563 21.0387 6.01322 20.9741 5.28908 20.6249L5.2115 20.5862L5.14684 20.5474C3.73736 19.7586 3.20719 18.5689 2.79339 17.612C2.74167 17.4956 2.68994 17.3793 2.63822 17.2499C2.47012 16.9137 2.35374 16.5775 2.26322 16.293L2.25029 16.2543L2.23736 16.2155C1.82357 14.7413 1.96581 13.8103 2.76753 12.6465L2.80632 12.5948L2.84512 12.543C2.90977 12.4525 2.97443 12.3749 3.03908 12.2844C3.24598 12.0129 3.45288 11.7413 3.75029 11.418C3.81494 11.3534 3.85374 11.2499 3.86667 11.1594L3.8796 10.862L3.86667 10.7456V10.6293C3.89253 9.67236 4.37098 8.96115 4.6296 8.57322C4.65546 8.53443 4.69426 8.4827 4.70719 8.45684L4.74598 8.39219L4.78477 8.34046C4.8365 8.26288 4.95288 7.99132 5.05632 7.74563C5.09512 7.64219 5.14684 7.43529 5.2115 7.26719C5.22443 7.21546 5.22443 7.20253 5.23736 7.08615C5.27615 6.68529 5.3796 6.28443 5.50891 5.90943L5.52184 5.88357L5.53477 5.8577C5.57357 5.75426 5.59943 5.67667 5.63822 5.57322C5.74167 5.26288 5.89684 4.81029 6.2977 4.30598L6.41408 4.16374L6.53046 4.06029C7.40977 3.2715 8.35374 3.11632 9.00029 3.07753H9.02615H9.05201C9.10374 3.07753 9.14253 3.07753 9.19425 3.07753C9.73736 3.07753 10.3968 3.33615 10.746 3.50426C10.8236 3.54305 10.9141 3.56891 11.0046 3.56891C11.0951 3.56891 11.1856 3.55598 11.2762 3.53012C11.496 3.45253 11.7029 3.36201 11.8968 3.25857C12.3365 2.99995 13.0606 2.58615 13.9658 2.4827C14.0175 2.46977 14.0563 2.46977 14.0951 2.46977C14.1856 2.45684 14.3279 2.44391 14.5089 2.41805C14.8193 2.39219 15.2848 2.35339 15.7891 2.35339C16.6037 2.35339 17.2762 2.44391 17.8193 2.63788L17.8451 2.65081L17.871 2.66374C19.1641 3.15512 19.6813 3.71115 20.1727 4.34477C20.3279 4.55167 20.4443 4.69391 20.677 4.90081L20.7287 4.95253L20.7805 5.00426C20.8322 5.05598 20.8839 5.09477 20.9356 5.13357C21.1555 5.30167 21.5305 5.59908 21.8537 6.14219L21.9055 6.21977L21.9443 6.31029C22.4227 7.28012 22.2675 8.19822 22.177 8.74132V8.78012C22.1124 9.15512 22.0089 9.51719 21.8537 9.86632C21.8149 9.95684 21.7891 10.0474 21.7632 10.1508C21.7503 10.2155 21.7374 10.2801 21.7374 10.3318L21.7244 10.3836C21.6856 10.6939 21.621 11.0043 21.5175 11.3017C21.3624 11.7801 21.1296 12.2327 20.8451 12.6336C20.4055 13.2543 19.9012 13.6939 19.2934 13.9784C19.1512 14.043 19.0218 14.1465 18.9313 14.2887C18.8408 14.418 18.7891 14.5862 18.7762 14.7413C18.7762 14.806 18.7762 14.8577 18.7762 14.8965C18.802 15.362 18.8408 15.8922 18.7374 16.4482C18.5693 17.3534 18.1813 17.9612 17.8968 18.4137C17.8968 18.4137 16.5779 20.2499 15.3753 20.6249L15.246 20.6637L15.1037 20.6896C14.871 20.7284 14.6382 20.7543 14.3925 20.7543C14.3537 20.7543 14.302 20.7543 14.2503 20.7543C14.2244 20.7543 14.1856 20.7543 14.1468 20.7543C14.0951 20.7543 14.0175 20.7543 13.9012 20.7672H13.8753H13.8494C13.3839 20.7801 12.9572 20.793 12.8279 20.8189C12.7632 20.8318 12.6986 20.8448 12.6339 20.8706C12.0003 21.1422 11.108 21.2715 9.8796 21.2715Z" stroke="url(#paint5_linear_1_1835)" stroke-width="0.110884" stroke-miterlimit="10"/>
<path opacity="0.8" d="M9.87963 20.2111C9.18136 20.2111 8.48308 20.1594 7.88825 20.1206H7.86239H7.83653C7.66843 20.0947 7.51326 20.0818 7.37101 20.0689C6.8667 20.0172 6.33653 19.9525 5.76757 19.6939L5.72877 19.681L5.68998 19.668C4.59084 19.0473 4.17705 18.1292 3.78912 17.237C3.73739 17.1077 3.67274 16.9784 3.60808 16.8491C3.47877 16.5904 3.37532 16.306 3.29774 16.0344V16.0215V16.0085C2.96153 14.8318 3.05205 14.237 3.67274 13.3318L3.68567 13.306L3.6986 13.2801C3.77619 13.1896 3.84084 13.0991 3.9055 13.0215C4.20291 12.6335 4.46153 12.2973 5.04343 11.7542C5.08222 11.7154 5.12101 11.6637 5.13394 11.5991C5.14688 11.5473 5.14688 11.4827 5.12101 11.431L5.01757 11.1335C4.9917 11.043 4.97877 10.9396 4.97877 10.8491V10.7715V10.7068C5.00463 10.0603 5.34084 9.55595 5.56067 9.21975C5.59946 9.16802 5.62532 9.1163 5.65119 9.07751L5.67705 9.03871L5.70291 8.99992C5.81929 8.84475 6.01325 8.39216 6.1167 8.12061C6.14257 8.03009 6.20722 7.81026 6.27188 7.64216C6.31067 7.51285 6.33653 7.38354 6.34946 7.25423C6.38825 6.93095 6.45291 6.60768 6.56929 6.31026V6.29733V6.2844C6.62101 6.15509 6.65981 6.05164 6.68567 5.9482C6.77619 5.67664 6.87963 5.3663 7.16412 5.01716L7.21584 4.95251L7.26757 4.90078C7.88826 4.33182 8.5736 4.22837 9.09084 4.18958H9.10377H9.1167C9.14257 4.18958 9.18136 4.18958 9.20722 4.18958C9.72446 4.18958 10.1124 4.39647 10.371 4.53871L10.4357 4.56458H10.4486C10.5262 4.60337 10.5779 4.64216 10.6426 4.66802C10.7977 4.74561 10.9917 4.77147 11.1598 4.71975C11.5219 4.62923 12.0779 4.4094 12.44 4.20251H12.4529C12.8408 3.96975 13.4357 3.63354 14.1339 3.55595C14.1727 3.54302 14.2245 3.54302 14.2633 3.54302C14.3408 3.53009 14.4831 3.51716 14.6383 3.50423C14.9227 3.47837 15.3624 3.43958 15.815 3.43958C16.5133 3.43958 17.0693 3.51716 17.496 3.6594H17.5089H17.5219C18.5564 4.04733 18.9443 4.46113 19.3581 5.00423C19.5262 5.22406 19.6943 5.43095 20.0046 5.70251L20.0305 5.72837L20.0564 5.75423C20.1339 5.83182 20.2245 5.9094 20.3279 5.98699C20.5089 6.12923 20.7676 6.3232 20.9874 6.6982L21.0133 6.73699L21.0391 6.77578C21.3624 7.4482 21.2589 8.08182 21.1814 8.56026V8.59906C21.1296 8.89647 21.052 9.18095 20.9227 9.46544C20.8581 9.62061 20.8064 9.78871 20.7805 9.95682C20.7676 10.0603 20.7546 10.1379 20.7417 10.2025L20.7288 10.2542C20.7029 10.4999 20.6512 10.7327 20.5736 10.9654C20.4572 11.3404 20.2762 11.6896 20.0434 12.0129C19.6555 12.5818 19.2158 12.931 18.6339 13.112C18.3495 13.2025 18.1167 13.3835 17.9615 13.6292L17.9098 13.6939L17.8581 13.7585C17.7158 13.9266 17.7546 14.5732 17.7805 14.9611C17.8064 15.3879 17.8322 15.8275 17.7546 16.2413C17.6253 16.9525 17.315 17.431 17.0434 17.8447C17.0434 17.8447 16.0348 19.306 15.1167 19.5775L15.052 19.6034L14.9874 19.6163C14.8193 19.6422 14.6383 19.668 14.4572 19.668C14.4184 19.668 14.3796 19.668 14.3279 19.668C14.2891 19.668 14.2503 19.668 14.1986 19.668C14.1339 19.668 14.0434 19.668 13.8883 19.681H13.8753H13.8624C13.2546 19.7068 12.8796 19.7197 12.6727 19.7585C12.5305 19.7844 12.4012 19.8232 12.2719 19.8749C11.7158 20.0947 10.9658 20.2111 9.87963 20.2111Z" stroke="url(#paint6_linear_1_1835)" stroke-width="0.110884" stroke-miterlimit="10"/>
</g>
</g>
</g>
<defs>
<radialGradient id="paint0_radial_1_1835" cx="0" cy="0" r="1" gradientUnits="userSpaceOnUse" gradientTransform="translate(12.0005 13.2537) rotate(90) scale(13.48)">
<stop offset="0.1667" stop-color="#073183"/>
<stop offset="1" stop-color="#0054F9"/>
</radialGradient>
<linearGradient id="paint1_linear_1_1835" x1="-1.68017" y1="-2.69809" x2="25.8148" y2="26.1595" gradientUnits="userSpaceOnUse">
<stop offset="0.2057" stop-color="#89D0FF"/>
<stop offset="0.3984" stop-color="#EBBF9A"/>
<stop offset="0.6015" stop-color="#EB8280"/>
<stop offset="0.8411" stop-color="#A281FF"/>
</linearGradient>
<linearGradient id="paint2_linear_1_1835" x1="-0.613857" y1="-1.45648" x2="24.7335" y2="25.2558" gradientUnits="userSpaceOnUse">
<stop offset="0.2057" stop-color="#89D0FF"/>
<stop offset="0.3984" stop-color="#EBBF9A"/>
<stop offset="0.6015" stop-color="#EB80DA"/>
<stop offset="0.8411" stop-color="#A281FF"/>
</linearGradient>
<linearGradient id="paint3_linear_1_1835" x1="0.462848" y1="-0.382815" x2="23.6621" y2="24.1838" gradientUnits="userSpaceOnUse">
<stop offset="0.2057" stop-color="#89D0FF"/>
<stop offset="0.3984" stop-color="#EBBF9A"/>
<stop offset="0.6015" stop-color="#EB8280"/>
<stop offset="0.8411" stop-color="#A281FF"/>
</linearGradient>
<linearGradient id="paint4_linear_1_1835" x1="1.53814" y1="0.694475" x2="22.5845" y2="23.1086" gradientUnits="userSpaceOnUse">
<stop offset="0.2057" stop-color="#89D0FF"/>
<stop offset="0.3984" stop-color="#EBBF9A"/>
<stop offset="0.6015" stop-color="#EB80E7"/>
<stop offset="0.8411" stop-color="#A281FF"/>
</linearGradient>
<linearGradient id="paint5_linear_1_1835" x1="2.60721" y1="1.7738" x2="21.5048" y2="22.0339" gradientUnits="userSpaceOnUse">
<stop offset="0.2057" stop-color="#89D0FF"/>
<stop offset="0.3984" stop-color="#EBBF9A"/>
<stop offset="0.6015" stop-color="#EB80D3"/>
<stop offset="0.8411" stop-color="#A281FF"/>
</linearGradient>
<linearGradient id="paint6_linear_1_1835" x1="3.69022" y1="2.84016" x2="20.4372" y2="20.9544" gradientUnits="userSpaceOnUse">
<stop offset="0.2057" stop-color="#89D0FF"/>
<stop offset="0.3984" stop-color="#EBBF9A"/>
<stop offset="0.6015" stop-color="#A280EB"/>
<stop offset="0.8411" stop-color="#A281FF"/>
</linearGradient>
<clipPath id="clip0_1_1835">
<rect width="24" height="24" fill="white"/>
</clipPath>
</defs>
</svg>
