<svg height="16" viewBox="0 0 16 16" width="16" xmlns="http://www.w3.org/2000/svg"><path d="m0 0h16v16h-16z" fill="none"/><path d="m0 0h16v16h-16z" fill="none"/><path d="m56.824 50.244 1-1.695 2.692 4.193v.8l-.009-5.537a.417.417 0 0 0 -.193-.332l-4.847-2.788a.427.427 0 0 0 -.37 0 .4.4 0 0 0 -.043.025l-.017.011-4.7 2.726-.018.008a.425.425 0 0 0 -.069.04.418.418 0 0 0 -.174.314l.007 4.512 2.508-3.887a1.839 1.839 0 0 1 1.642-.672l.749.02-4.42 7.088.521.3 4.468-7.37 1.975-.007-4.457 7.56 1.857 1.068.222.128a.426.426 0 0 0 .3.006l4.914-2.855-.94.545zm.381 5.488-1.876-2.944 1.145-1.943 2.464 3.883z" fill="#2d374b" transform="translate(-47.235 -42.812)"/><path d="m237.768 260.858 1.876 2.944 1.733-1-2.464-3.883z" fill="#28a0f0" transform="translate(-229.674 -250.883)"/><path d="m294.826 181.966v-.8l-2.692-4.193-1 1.695 2.6 4.2.94-.544a.416.416 0 0 0 .154-.3z" fill="#28a0f0" transform="translate(-281.545 -171.231)"/><path d="m20.219 162.583 1.327.765 4.416-7.082-.749-.02a1.838 1.838 0 0 0 -1.642.672l-2.508 3.882-.844 1.3z" fill="#fff" transform="translate(-18.219 -151.09)"/><path d="m92.614 156.964-1.975.007-4.469 7.374 1.562.9.425-.72z" fill="#fff" transform="translate(-82.323 -151.788)"/><path d="m32.331 18.983a1.258 1.258 0 0 0 -.591-1.011l-4.91-2.824a1.277 1.277 0 0 0 -1.127 0c-.041.021-4.775 2.766-4.775 2.766a1.257 1.257 0 0 0 -.711 1.066v5.848l.844-1.3-.007-4.512a.4.4 0 0 1 .006-.049.416.416 0 0 1 .168-.265c.022-.016 4.837-2.8 4.853-2.811a.427.427 0 0 1 .37 0l4.849 2.791a.417.417 0 0 1 .193.332v5.586a.407.407 0 0 1 -.145.3l-.94.545-.485.281-1.733 1-1.757 1.018a.426.426 0 0 1 -.3-.006l-2.079-1.2-.425.72 1.871 1.091.162.092c.07.039.118.065.134.074a1.214 1.214 0 0 0 .5.1 1.249 1.249 0 0 0 .458-.086l5.1-2.956a1.248 1.248 0 0 0 .481-.94v-5.65z" fill="#96bedc" transform="translate(-18.218 -13.817)"/></svg>