<svg id="ic_arbitrum_16" xmlns="http://www.w3.org/2000/svg" width="16" height="16.002" viewBox="0 0 16 16.002">
  <rect id="Rectangle_179" data-name="Rectangle 179" width="16" height="16" transform="translate(0 0.002)" fill="none"/>
  <path id="Path_1467" data-name="Path 1467" d="M15.76,9.937A8,8,0,1,1,9.934.24a8,8,0,0,1,5.826,9.7h0Z" transform="translate(0 -0.001)" fill="#2d374b"/>
  <g id="lg_arbitrum" transform="translate(1.952 1.21)">
    <g id="SYMBOL_VER_1-1_1_">
      <g id="Symbol_-_Original_14_" transform="translate(0 0)">
        <path id="Path_348" data-name="Path 348" d="M56.815,50.236l1-1.692L60.5,52.731v.8l-.009-5.53a.417.417,0,0,0-.193-.332l-4.84-2.784a.426.426,0,0,0-.37,0,.4.4,0,0,0-.043.025l-.017.011-4.7,2.723-.018.008a.425.425,0,0,0-.069.04.418.418,0,0,0-.173.313l.007,4.506,2.5-3.881a1.836,1.836,0,0,1,1.64-.671l.748.02-4.41,7.072.52.3,4.463-7.364,1.973-.007-4.451,7.55L54.92,56.6l.222.127a.426.426,0,0,0,.3.006l4.908-2.844-.938.544Zm.381,5.481-1.873-2.94,1.144-1.941,2.46,3.878Z" transform="translate(-49.236 -44.013)" fill="#2d374b"/>
        <path id="Path_349" data-name="Path 349" d="M237.768,260.856l1.873,2.94,1.731-1-2.46-3.878Z" transform="translate(-231.682 -252.092)" fill="#28a0f0"/>
        <path id="Path_350" data-name="Path 350" d="M294.821,181.959v-.8l-2.688-4.187-1,1.692,2.6,4.2.938-.544a.416.416,0,0,0,.154-.3Z" transform="translate(-283.555 -172.437)" fill="#28a0f0"/>
        <path id="Path_351" data-name="Path 351" d="M20.219,162.574l1.325.764,4.41-7.072-.748-.02a1.836,1.836,0,0,0-1.64.671l-2.5,3.881-.842,1.294Z" transform="translate(-20.219 -152.295)" fill="#fff"/>
        <path id="Path_352" data-name="Path 352" d="M92.605,156.964l-1.973.007-4.463,7.364,1.56.9.424-.719Z" transform="translate(-84.325 -152.993)" fill="#fff"/>
        <path id="Path_353" data-name="Path 353" d="M32.315,18.978a1.256,1.256,0,0,0-.59-1.01l-4.9-2.82a1.276,1.276,0,0,0-1.125,0c-.041.021-4.769,2.763-4.769,2.763a1.255,1.255,0,0,0-.71,1.065v5.84l.842-1.294-.007-4.506a.4.4,0,0,1,.006-.049.415.415,0,0,1,.167-.265c.022-.016,4.831-2.8,4.846-2.807a.427.427,0,0,1,.37,0l4.84,2.784a.417.417,0,0,1,.193.332v5.582a.407.407,0,0,1-.145.3l-.938.544-.484.281-1.731,1-1.755,1.017a.426.426,0,0,1-.3-.006l-2.077-1.194-.424.719,1.866,1.074.162.092c.07.039.117.065.134.074a1.212,1.212,0,0,0,.5.1,1.248,1.248,0,0,0,.457-.086l5.1-2.952a1.246,1.246,0,0,0,.48-.939Z" transform="translate(-20.218 -15.017)" fill="#96bedc"/>
      </g>
    </g>
  </g>
</svg>
