<svg width="32" height="32" viewBox="0 0 32 32" fill="none" xmlns="http://www.w3.org/2000/svg">
<g clip-path="url(#clip0_3033_1540)">
<path d="M9.13249 30.4398L9.88255 26.9871C10.7191 23.1362 7.77461 19.4988 3.82058 19.4988H0.384766C1.4683 24.3374 4.75067 28.3496 9.13249 30.4398Z" fill="url(#paint0_linear_3033_1540)"/>
<path d="M10.6406 31.0663C12.3332 31.6707 14.1573 32 16.0585 32C23.7205 32 30.1291 26.6527 31.7311 19.4988H21.2496C16.525 19.4988 12.4402 22.7824 11.4406 27.3838L10.6406 31.0663Z" fill="url(#paint1_linear_3033_1540)"/>
<path d="M32.0037 17.8987C32.0777 17.2756 32.1158 16.6415 32.1158 15.9985C32.1158 7.60402 25.6289 0.719285 17.3778 0.0503235L15.1272 10.4105C14.2906 14.2614 17.2351 17.8987 21.1891 17.8987H32.0037Z" fill="url(#paint2_linear_3033_1540)"/>
<path d="M15.7459 0C7.02134 0.165717 0 7.26504 0 15.9985C0 16.6415 0.0380539 17.2756 0.112041 17.8987H3.76146C8.48603 17.8987 12.5709 14.6151 13.5705 10.0137L15.7459 0Z" fill="url(#paint3_linear_3033_1540)"/>
</g>
<defs>
<linearGradient id="paint0_linear_3033_1540" x1="18.941" y1="9.82473e-06" x2="12.6402" y2="32.0507" gradientUnits="userSpaceOnUse">
<stop stop-color="#F4D5B1"/>
<stop offset="1" stop-color="#FFD29F"/>
</linearGradient>
<linearGradient id="paint1_linear_3033_1540" x1="18.9422" y1="1.01334e-05" x2="12.6414" y2="32.0507" gradientUnits="userSpaceOnUse">
<stop stop-color="#F4D5B1"/>
<stop offset="1" stop-color="#FFD29F"/>
</linearGradient>
<linearGradient id="paint2_linear_3033_1540" x1="18.9415" y1="-1.31531e-06" x2="12.6407" y2="32.0507" gradientUnits="userSpaceOnUse">
<stop stop-color="#F4D5B1"/>
<stop offset="1" stop-color="#FFD29F"/>
</linearGradient>
<linearGradient id="paint3_linear_3033_1540" x1="18.9416" y1="5.25992e-07" x2="12.6408" y2="32.0507" gradientUnits="userSpaceOnUse">
<stop stop-color="#F4D5B1"/>
<stop offset="1" stop-color="#FFD29F"/>
</linearGradient>
<clipPath id="clip0_3033_1540">
<rect width="32" height="32" fill="white"/>
</clipPath>
</defs>
</svg>
