<svg width="24" height="24" viewBox="0 0 32 32" fill="none" xmlns="http://www.w3.org/2000/svg">
<g clip-path="url(#clip0_3033_1556)">
<path opacity="0.998" fill-rule="evenodd" clip-rule="evenodd" d="M14.5218 -0.0369568C15.5071 -0.0369568 16.4926 -0.0369568 17.4779 -0.0369568C18.2473 0.132017 19.0356 0.29214 19.8428 0.443413C20.4627 0.56398 21.0539 0.748736 21.6165 0.997685C21.6689 1.06449 21.7428 1.08913 21.8382 1.07159C21.8628 1.07159 21.8875 1.07159 21.9121 1.07159C21.9374 1.13353 21.9866 1.15817 22.0599 1.14549C22.2854 1.28238 22.5317 1.38092 22.7989 1.4411C23.1365 1.64584 23.4567 1.81829 23.7597 1.95842C23.7849 2.02037 23.8342 2.04501 23.9075 2.03233C24.1782 2.24181 24.4739 2.41426 24.7943 2.54965C24.8527 2.61626 24.9266 2.66552 25.016 2.69745C25.2102 2.8444 25.4073 2.99221 25.6072 3.14087C25.6764 3.24983 25.775 3.32374 25.9028 3.36258C26.0734 3.50822 26.2459 3.65603 26.4202 3.806C26.6153 3.9763 26.8124 4.14874 27.0114 4.32332C27.2824 4.64356 27.578 4.93918 27.8982 5.21016C28.0787 5.44879 28.2757 5.6705 28.4894 5.87528C28.4841 5.98813 28.5333 6.06203 28.6373 6.09699C28.6801 6.26319 28.7786 6.38635 28.9329 6.46651C29.0546 6.68626 29.2024 6.88333 29.3763 7.05773C29.3636 7.13101 29.3883 7.18028 29.4502 7.20554C29.493 7.41476 29.5915 7.58717 29.7458 7.72286C29.7331 7.79617 29.7578 7.84539 29.8197 7.87066C30.286 8.73932 30.717 9.62616 31.113 10.5312C31.4313 11.6465 31.7147 12.7551 31.9629 13.8568C31.9629 15.2856 31.9629 16.7144 31.9629 18.1432C31.7243 19.2604 31.4286 20.369 31.0761 21.4688C30.907 21.5586 30.8577 21.6817 30.9282 21.8383C30.8832 21.9042 30.8586 21.9781 30.8543 22.06C30.7175 22.2855 30.6189 22.5318 30.5587 22.7991C30.3125 23.2423 30.0662 23.6857 29.8197 24.1293C29.6675 24.3318 29.5443 24.5535 29.4502 24.7945C29.2555 25.0637 29.0584 25.3347 28.859 25.6074C28.7551 25.6423 28.7058 25.7162 28.7112 25.8291C28.6619 25.8291 28.6373 25.8537 28.6373 25.903C28.3653 26.1752 28.1189 26.4708 27.8982 26.7898C27.8489 26.7898 27.8243 26.8144 27.8243 26.8637C27.775 26.8637 27.7504 26.8883 27.7504 26.9376C27.7011 26.9376 27.6765 26.9622 27.6765 27.0115C27.6272 27.0115 27.6026 27.0362 27.6026 27.0854C27.5533 27.0854 27.5287 27.1101 27.5287 27.1593C27.3316 27.3072 27.1592 27.4796 27.0114 27.6767C26.9621 27.6767 26.9375 27.7013 26.9375 27.7506C26.8882 27.7506 26.8636 27.7752 26.8636 27.8245C26.8143 27.8245 26.7897 27.8491 26.7897 27.8984C26.7404 27.8984 26.7158 27.923 26.7158 27.9723C26.4215 28.1683 26.1505 28.39 25.9028 28.6374C25.8536 28.6374 25.8289 28.662 25.8289 28.7113C25.7161 28.7059 25.6422 28.7552 25.6072 28.8591C25.5579 28.8591 25.5333 28.8837 25.5333 28.933C25.3136 29.0547 25.1165 29.2025 24.9421 29.3764C24.8688 29.3637 24.8196 29.3884 24.7943 29.4503C24.4739 29.5857 24.1782 29.7581 23.9075 29.9677C23.8342 29.955 23.7849 29.9796 23.7597 30.0416C23.4251 30.1964 23.1048 30.3688 22.7989 30.5589C22.5471 30.623 22.3007 30.7091 22.0599 30.8175C22.0845 30.8422 22.1092 30.8668 22.1338 30.8914C20.807 31.3214 19.4768 31.6786 18.143 31.963C16.7143 31.963 15.2854 31.963 13.8567 31.963C13.0943 31.7662 12.3306 31.5691 11.5657 31.3718C11.4167 31.2666 11.2443 31.2174 11.0483 31.224C10.1301 30.947 9.20631 30.5528 8.27698 30.0416C8.25237 30.0662 8.22769 30.0909 8.20308 30.1155C8.18253 30.0478 8.14558 29.9986 8.09222 29.9677C7.82144 29.7581 7.52583 29.5857 7.20538 29.4503C7.17042 29.3464 7.09652 29.2971 6.98368 29.3025C6.82704 29.1621 6.6546 29.039 6.46635 28.933C6.3862 28.7788 6.26303 28.6803 6.09684 28.6374C5.84916 28.39 5.57818 28.1683 5.28391 27.9723C5.03757 27.6767 4.76659 27.4057 4.47097 27.1593C4.11812 26.7237 3.74861 26.3049 3.36243 25.903C3.34487 25.7623 3.27097 25.6637 3.14072 25.6074C3.01902 25.3877 2.87121 25.1906 2.6973 25.0162C2.66537 24.9267 2.6161 24.8528 2.5495 24.7945C2.45536 24.5535 2.33218 24.3318 2.17998 24.1293C1.93143 23.681 1.68508 23.2375 1.44095 22.7991C1.38077 22.5318 1.28223 22.2855 1.14534 22.06C0.972199 21.6539 0.81208 21.2105 0.664969 20.7298C0.394686 19.6115 0.160659 18.5029 -0.0371094 17.4042C-0.0371094 16.468 -0.0371094 15.532 -0.0371094 14.5958C0.187376 13.0069 0.581526 11.455 1.14534 9.93995C1.41967 9.31732 1.71528 8.70141 2.03217 8.09237C2.1361 8.05742 2.18538 7.98351 2.17998 7.87066C2.24193 7.84539 2.26657 7.79617 2.25388 7.72286C2.40819 7.58717 2.50673 7.41476 2.5495 7.20554C2.83833 6.84978 3.10931 6.48026 3.36243 6.09699C4.19799 5.11362 5.10947 4.20215 6.09684 3.36258C6.23758 3.34502 6.33612 3.27112 6.39245 3.14087C6.59236 2.99221 6.78944 2.8444 6.98368 2.69745C7.30413 2.56206 7.59973 2.38962 7.87051 2.18013C8.48206 1.82498 9.17187 1.48011 9.9398 1.14549C11.4308 0.591361 12.9581 0.197212 14.5218 -0.0369568Z" fill="#7E11FD"/>
<path opacity="0.01" fill-rule="evenodd" clip-rule="evenodd" d="M21.8389 1.0716C21.7435 1.08914 21.6696 1.06451 21.6172 0.9977C21.7203 0.900547 21.7942 0.925186 21.8389 1.0716Z" fill="#130A18"/>
<path opacity="0.01" fill-rule="evenodd" clip-rule="evenodd" d="M21.9121 0.997681C22.0106 1.04695 22.0106 1.04695 21.9121 0.997681Z" fill="black"/>
<path opacity="0.01" fill-rule="evenodd" clip-rule="evenodd" d="M9.93931 1.1455C9.89002 1.04696 9.89002 1.04696 9.93931 1.1455Z" fill="black"/>
<path opacity="0.01" fill-rule="evenodd" clip-rule="evenodd" d="M22.0605 1.07159C22.1591 1.12087 22.1591 1.12087 22.0605 1.07159Z" fill="black"/>
<path opacity="0.01" fill-rule="evenodd" clip-rule="evenodd" d="M9.27539 1.2933C9.3739 1.34258 9.3739 1.34258 9.27539 1.2933Z" fill="black"/>
<path opacity="0.01" fill-rule="evenodd" clip-rule="evenodd" d="M22.6504 1.2933C22.7489 1.34258 22.7489 1.34258 22.6504 1.2933Z" fill="black"/>
<path opacity="0.01" fill-rule="evenodd" clip-rule="evenodd" d="M9.12695 1.36722C9.22547 1.41649 9.22547 1.41649 9.12695 1.36722Z" fill="black"/>
<path opacity="0.01" fill-rule="evenodd" clip-rule="evenodd" d="M22.7988 1.36722C22.8973 1.41649 22.8973 1.41649 22.7988 1.36722Z" fill="black"/>
<path opacity="0.01" fill-rule="evenodd" clip-rule="evenodd" d="M23.7598 1.88452C23.8583 1.93379 23.8583 1.93379 23.7598 1.88452Z" fill="black"/>
<path opacity="0.01" fill-rule="evenodd" clip-rule="evenodd" d="M23.9082 1.95844C24.0067 2.00771 24.0067 2.00771 23.9082 1.95844Z" fill="black"/>
<path opacity="0.01" fill-rule="evenodd" clip-rule="evenodd" d="M7.87095 2.18013C7.82166 2.0816 7.82166 2.0816 7.87095 2.18013Z" fill="black"/>
<path opacity="0.01" fill-rule="evenodd" clip-rule="evenodd" d="M7.35352 2.32794C7.45203 2.37721 7.45203 2.37721 7.35352 2.32794Z" fill="black"/>
<path opacity="0.01" fill-rule="evenodd" clip-rule="evenodd" d="M24.5723 2.32794C24.6708 2.37721 24.6708 2.37721 24.5723 2.32794Z" fill="black"/>
<path opacity="0.01" fill-rule="evenodd" clip-rule="evenodd" d="M7.20508 2.40186C7.30361 2.45113 7.30361 2.45113 7.20508 2.40186Z" fill="black"/>
<path opacity="0.01" fill-rule="evenodd" clip-rule="evenodd" d="M24.7948 2.47576C24.7455 2.37722 24.7455 2.37722 24.7948 2.47576Z" fill="black"/>
<path opacity="0.01" fill-rule="evenodd" clip-rule="evenodd" d="M7.20492 2.47574C7.15565 2.52501 7.15565 2.52501 7.20492 2.47574Z" fill="black"/>
<path opacity="0.01" fill-rule="evenodd" clip-rule="evenodd" d="M24.7949 2.47574C24.8934 2.52501 24.8934 2.52501 24.7949 2.47574Z" fill="black"/>
<path opacity="0.01" fill-rule="evenodd" clip-rule="evenodd" d="M6.98438 2.54965C7.08291 2.59892 7.08291 2.59892 6.98438 2.54965Z" fill="black"/>
<path opacity="0.01" fill-rule="evenodd" clip-rule="evenodd" d="M6.98441 2.62357C6.98441 2.6482 6.98441 2.67284 6.98441 2.69747C6.93489 2.6619 6.93489 2.63726 6.98441 2.62357Z" fill="black"/>
<path opacity="0.01" fill-rule="evenodd" clip-rule="evenodd" d="M25.0156 2.62357C25.1141 2.67284 25.1141 2.67284 25.0156 2.62357Z" fill="black"/>
<path opacity="0.01" fill-rule="evenodd" clip-rule="evenodd" d="M6.39242 3.14089C6.34315 3.04235 6.34315 3.04235 6.39242 3.14089Z" fill="black"/>
<path opacity="0.01" fill-rule="evenodd" clip-rule="evenodd" d="M25.6074 3.06699C25.7059 3.11626 25.7059 3.11626 25.6074 3.06699Z" fill="black"/>
<path opacity="0.01" fill-rule="evenodd" clip-rule="evenodd" d="M6.09766 3.21478C6.19619 3.26405 6.19619 3.26405 6.09766 3.21478Z" fill="black"/>
<path opacity="0.01" fill-rule="evenodd" clip-rule="evenodd" d="M6.09769 3.2887C6.09769 3.31333 6.09769 3.33797 6.09769 3.3626C6.04817 3.32703 6.04817 3.30239 6.09769 3.2887Z" fill="black"/>
<path opacity="0.01" fill-rule="evenodd" clip-rule="evenodd" d="M25.9023 3.2887C26.0009 3.33797 26.0009 3.33797 25.9023 3.2887Z" fill="black"/>
<path opacity="0.01" fill-rule="evenodd" clip-rule="evenodd" d="M26.4199 3.73212C26.5184 3.78139 26.5184 3.78139 26.4199 3.73212Z" fill="black"/>
<path opacity="0.01" fill-rule="evenodd" clip-rule="evenodd" d="M27.0117 4.24942C27.1102 4.29869 27.1102 4.29869 27.0117 4.24942Z" fill="black"/>
<path opacity="0.01" fill-rule="evenodd" clip-rule="evenodd" d="M27.8984 5.13626C27.997 5.18553 27.997 5.18553 27.8984 5.13626Z" fill="black"/>
<path opacity="0.01" fill-rule="evenodd" clip-rule="evenodd" d="M28.4902 5.80139C28.5887 5.85066 28.5887 5.85066 28.4902 5.80139Z" fill="black"/>
<path opacity="0.01" fill-rule="evenodd" clip-rule="evenodd" d="M3.36313 6.097C3.31385 5.99847 3.31385 5.99847 3.36313 6.097Z" fill="black"/>
<path opacity="0.01" fill-rule="evenodd" clip-rule="evenodd" d="M28.7108 6.097C28.6615 5.99847 28.6615 5.99847 28.7108 6.097Z" fill="black"/>
<path opacity="0.01" fill-rule="evenodd" clip-rule="evenodd" d="M3.28891 6.09698C3.23964 6.14626 3.23964 6.14626 3.28891 6.09698Z" fill="black"/>
<path opacity="0.01" fill-rule="evenodd" clip-rule="evenodd" d="M28.7109 6.09698C28.7602 6.09698 28.7848 6.12162 28.7848 6.17089C28.7602 6.14626 28.7355 6.12162 28.7109 6.09698Z" fill="black"/>
<path opacity="0.01" fill-rule="evenodd" clip-rule="evenodd" d="M28.7852 6.1709C28.8837 6.22017 28.8837 6.22017 28.7852 6.1709Z" fill="black"/>
<path opacity="0.01" fill-rule="evenodd" clip-rule="evenodd" d="M28.9336 6.39261C29.0321 6.44188 29.0321 6.44188 28.9336 6.39261Z" fill="black"/>
<path opacity="0.01" fill-rule="evenodd" clip-rule="evenodd" d="M29.377 6.98383C29.4755 7.0331 29.4755 7.0331 29.377 6.98383Z" fill="black"/>
<path opacity="0.01" fill-rule="evenodd" clip-rule="evenodd" d="M2.55063 7.20555C2.50135 7.10702 2.50135 7.10702 2.55063 7.20555Z" fill="black"/>
<path opacity="0.01" fill-rule="evenodd" clip-rule="evenodd" d="M29.5233 7.20555C29.474 7.10702 29.474 7.10702 29.5233 7.20555Z" fill="black"/>
<path opacity="0.01" fill-rule="evenodd" clip-rule="evenodd" d="M2.47641 7.20554C2.42714 7.25481 2.42714 7.25481 2.47641 7.20554Z" fill="black"/>
<path opacity="0.01" fill-rule="evenodd" clip-rule="evenodd" d="M29.5234 7.20554C29.622 7.25481 29.622 7.25481 29.5234 7.20554Z" fill="black"/>
<path opacity="0.01" fill-rule="evenodd" clip-rule="evenodd" d="M2.32812 7.35336C2.42666 7.40266 2.42666 7.40266 2.32812 7.35336Z" fill="black"/>
<path opacity="0.01" fill-rule="evenodd" clip-rule="evenodd" d="M29.5977 7.35336C29.6962 7.40266 29.6962 7.40266 29.5977 7.35336Z" fill="black"/>
<path opacity="0.01" fill-rule="evenodd" clip-rule="evenodd" d="M2.25375 7.72287C2.20448 7.62436 2.20448 7.62436 2.25375 7.72287Z" fill="black"/>
<path opacity="0.01" fill-rule="evenodd" clip-rule="evenodd" d="M29.7461 7.64896C29.8446 7.69825 29.8446 7.69825 29.7461 7.64896Z" fill="black"/>
<path opacity="0.01" fill-rule="evenodd" clip-rule="evenodd" d="M2.17953 7.87067C2.13026 7.77216 2.13026 7.77216 2.17953 7.87067Z" fill="black"/>
<path opacity="0.01" fill-rule="evenodd" clip-rule="evenodd" d="M29.8203 7.79675C29.9188 7.84605 29.9188 7.84605 29.8203 7.79675Z" fill="black"/>
<path opacity="0.01" fill-rule="evenodd" clip-rule="evenodd" d="M2.03305 8.09238C1.98378 7.99387 1.98378 7.99387 2.03305 8.09238Z" fill="black"/>
<path opacity="0.01" fill-rule="evenodd" clip-rule="evenodd" d="M1.36719 9.12701C1.46572 9.17631 1.46572 9.17631 1.36719 9.12701Z" fill="black"/>
<path opacity="0.01" fill-rule="evenodd" clip-rule="evenodd" d="M30.5586 9.12701C30.6571 9.17631 30.6571 9.17631 30.5586 9.12701Z" fill="black"/>
<path opacity="0.01" fill-rule="evenodd" clip-rule="evenodd" d="M1.29297 9.27484C1.3915 9.32413 1.3915 9.32413 1.29297 9.27484Z" fill="black"/>
<path opacity="0.01" fill-rule="evenodd" clip-rule="evenodd" d="M30.6328 9.27484C30.7313 9.32413 30.7313 9.32413 30.6328 9.27484Z" fill="black"/>
<path opacity="0.01" fill-rule="evenodd" clip-rule="evenodd" d="M1.14633 9.93994C1.09706 9.84143 1.09706 9.84143 1.14633 9.93994Z" fill="black"/>
<path fill-rule="evenodd" clip-rule="evenodd" d="M11.5662 10.0878C13.0197 10.0878 14.473 10.0878 15.9265 10.0878C15.9265 12.0339 15.9265 13.98 15.9265 15.9261C15.6317 15.8977 15.3608 15.947 15.1136 16.0739C14.6511 16.2313 14.2323 16.4652 13.8572 16.776C13.5246 17.1086 13.1921 17.4411 12.8595 17.7737C12.1611 18.7431 11.4344 19.6915 10.6794 20.6189C10.0414 21.1719 9.30241 21.5045 8.46228 21.6166C7.72835 21.7313 6.98934 21.7806 6.24519 21.7644C6.15921 19.8555 6.14689 17.9341 6.20824 16C7.57434 15.89 8.68288 15.2988 9.53388 14.2263C10.2889 13.1338 10.7817 11.9268 11.0119 10.6051C11.1402 10.3657 11.325 10.1932 11.5662 10.0878Z" fill="#FEFDFF"/>
<path fill-rule="evenodd" clip-rule="evenodd" d="M25.3118 15.9261C24.144 16.1222 23.1956 16.6887 22.4665 17.6259C21.6711 18.7057 21.1785 19.9128 20.9885 21.2471C20.8901 21.4316 20.7546 21.5794 20.582 21.6905C19.058 21.7627 17.5308 21.7874 16 21.7644C16 19.8184 16 17.8722 16 15.9261C16.1891 15.9484 16.3616 15.9237 16.5173 15.8522C17.1192 15.7135 17.6611 15.4548 18.1432 15.0762C18.4758 14.7437 18.8083 14.4111 19.1409 14.0785C19.7634 13.2031 20.4039 12.3409 21.0624 11.4919C21.8091 10.6882 22.7329 10.2448 23.8337 10.1617C24.4733 10.1186 25.1139 10.094 25.7552 10.0878C25.7552 12.0092 25.7552 13.9307 25.7552 15.8522C25.59 15.8304 25.4422 15.8551 25.3118 15.9261Z" fill="#FEFDFF"/>
<path fill-rule="evenodd" clip-rule="evenodd" d="M11.5664 10.0878C13.0445 9.98926 14.5225 9.98926 16.0006 10.0878C16.0006 12.0339 16.0006 13.98 16.0006 15.9261C15.976 15.9261 15.9513 15.9261 15.9267 15.9261C15.9267 13.98 15.9267 12.0339 15.9267 10.0878C14.4732 10.0878 13.0199 10.0878 11.5664 10.0878Z" fill="#DEC1FF"/>
<path fill-rule="evenodd" clip-rule="evenodd" d="M16 10.0878C16.0738 11.9965 16.0984 13.918 16.0739 15.8522C16.2217 15.8522 16.3695 15.8522 16.5173 15.8522C16.3616 15.9237 16.1891 15.9484 16 15.9261C16 13.98 16 12.0339 16 10.0878Z" fill="#9E4BFF"/>
<path fill-rule="evenodd" clip-rule="evenodd" d="M25.312 15.9261C25.4425 15.8551 25.5903 15.8304 25.7555 15.8522C25.7555 13.9307 25.7555 12.0093 25.7555 10.0878C25.1141 10.094 24.4736 10.1186 23.834 10.1617C24.4823 10.0352 25.1475 9.98601 25.8294 10.0139C25.8294 11.9846 25.8294 13.9553 25.8294 15.9261C25.6569 15.9261 25.4845 15.9261 25.312 15.9261Z" fill="#CEA3FF"/>
<path fill-rule="evenodd" clip-rule="evenodd" d="M15.9262 15.9261C15.9508 15.9261 15.9755 15.9261 16.0001 15.9261C16.0001 17.8722 16.0001 19.8184 16.0001 21.7644C15.9264 19.8557 15.9018 17.9342 15.9262 16C15.6529 16.0039 15.3819 16.0285 15.1133 16.0739C15.3605 15.947 15.6314 15.8977 15.9262 15.9261Z" fill="#9B47FF"/>
<path opacity="0.29" fill-rule="evenodd" clip-rule="evenodd" d="M31.0755 21.4688C31.0827 21.6205 31.0334 21.7437 30.9277 21.8383C30.8571 21.6817 30.9064 21.5586 31.0755 21.4688Z" fill="#40127C"/>
<path fill-rule="evenodd" clip-rule="evenodd" d="M20.582 21.6905C20.5738 21.7361 20.5492 21.7731 20.5081 21.8014C18.9928 21.8626 17.4901 21.8504 16 21.7644C17.5308 21.7873 19.058 21.7627 20.582 21.6905Z" fill="#BF8AFF"/>
<path fill-rule="evenodd" clip-rule="evenodd" d="M8.46123 21.6166C8.21602 21.7059 7.9697 21.8045 7.7222 21.9123C7.21991 21.8655 6.72722 21.8163 6.24414 21.7644C6.98828 21.7806 7.7273 21.7313 8.46123 21.6166Z" fill="#A458FF"/>
<path opacity="0.01" fill-rule="evenodd" clip-rule="evenodd" d="M1.14633 22.0601C1.09706 22.1094 1.09706 22.1094 1.14633 22.0601Z" fill="black"/>
<path opacity="0.01" fill-rule="evenodd" clip-rule="evenodd" d="M30.8555 22.0601C30.954 22.1094 30.954 22.1094 30.8555 22.0601Z" fill="black"/>
<path opacity="0.01" fill-rule="evenodd" clip-rule="evenodd" d="M1.21875 22.5035C1.31728 22.5528 1.31728 22.5528 1.21875 22.5035Z" fill="black"/>
<path opacity="0.01" fill-rule="evenodd" clip-rule="evenodd" d="M30.707 22.5035C30.8055 22.5528 30.8055 22.5528 30.707 22.5035Z" fill="black"/>
<path opacity="0.01" fill-rule="evenodd" clip-rule="evenodd" d="M1.29297 22.6513C1.3915 22.7006 1.3915 22.7006 1.29297 22.6513Z" fill="black"/>
<path opacity="0.01" fill-rule="evenodd" clip-rule="evenodd" d="M30.6328 22.6513C30.7313 22.7006 30.7313 22.7006 30.6328 22.6513Z" fill="black"/>
<path opacity="0.01" fill-rule="evenodd" clip-rule="evenodd" d="M1.44125 22.7991C1.39198 22.8484 1.39198 22.8484 1.44125 22.7991Z" fill="black"/>
<path opacity="0.01" fill-rule="evenodd" clip-rule="evenodd" d="M30.5586 22.7991C30.6571 22.8484 30.6571 22.8484 30.5586 22.7991Z" fill="black"/>
<path opacity="0.01" fill-rule="evenodd" clip-rule="evenodd" d="M2.17953 24.1293C2.13026 24.1786 2.13026 24.1786 2.17953 24.1293Z" fill="black"/>
<path opacity="0.01" fill-rule="evenodd" clip-rule="evenodd" d="M29.8203 24.1293C29.9188 24.1786 29.9188 24.1786 29.8203 24.1293Z" fill="black"/>
<path opacity="0.01" fill-rule="evenodd" clip-rule="evenodd" d="M2.17969 24.351C2.27822 24.4003 2.27822 24.4003 2.17969 24.351Z" fill="black"/>
<path opacity="0.01" fill-rule="evenodd" clip-rule="evenodd" d="M2.32812 24.5728C2.42666 24.622 2.42666 24.622 2.32812 24.5728Z" fill="black"/>
<path opacity="0.01" fill-rule="evenodd" clip-rule="evenodd" d="M29.5977 24.5728C29.6962 24.622 29.6962 24.622 29.5977 24.5728Z" fill="black"/>
<path opacity="0.01" fill-rule="evenodd" clip-rule="evenodd" d="M29.5234 24.7206C29.622 24.7698 29.622 24.7698 29.5234 24.7206Z" fill="black"/>
<path opacity="0.01" fill-rule="evenodd" clip-rule="evenodd" d="M2.55063 24.7945C2.50135 24.8438 2.50135 24.8438 2.55063 24.7945Z" fill="black"/>
<path opacity="0.01" fill-rule="evenodd" clip-rule="evenodd" d="M29.4512 24.7945C29.4758 24.7945 29.5005 24.7945 29.5251 24.7945C29.5114 24.844 29.4867 24.844 29.4512 24.7945Z" fill="black"/>
<path opacity="0.01" fill-rule="evenodd" clip-rule="evenodd" d="M2.69711 25.0162C2.64784 25.0655 2.64784 25.0655 2.69711 25.0162Z" fill="black"/>
<path opacity="0.01" fill-rule="evenodd" clip-rule="evenodd" d="M3.14047 25.6074C3.0912 25.6567 3.0912 25.6567 3.14047 25.6074Z" fill="black"/>
<path opacity="0.01" fill-rule="evenodd" clip-rule="evenodd" d="M28.8594 25.6074C28.9579 25.6567 28.9579 25.6567 28.8594 25.6074Z" fill="black"/>
<path opacity="0.01" fill-rule="evenodd" clip-rule="evenodd" d="M3.28891 25.903C3.23964 25.8045 3.23964 25.8045 3.28891 25.903Z" fill="black"/>
<path opacity="0.01" fill-rule="evenodd" clip-rule="evenodd" d="M28.7109 25.8291C28.8095 25.8784 28.8095 25.8784 28.7109 25.8291Z" fill="black"/>
<path opacity="0.01" fill-rule="evenodd" clip-rule="evenodd" d="M3.28906 25.903C3.31369 25.903 3.33833 25.903 3.36297 25.903C3.34927 25.9525 3.32463 25.9525 3.28906 25.903Z" fill="black"/>
<path opacity="0.01" fill-rule="evenodd" clip-rule="evenodd" d="M28.6367 25.903C28.6613 25.903 28.686 25.903 28.7106 25.903C28.6969 25.9525 28.6723 25.9525 28.6367 25.903Z" fill="black"/>
<path opacity="0.01" fill-rule="evenodd" clip-rule="evenodd" d="M28.3418 26.3464C28.4403 26.3957 28.4403 26.3957 28.3418 26.3464Z" fill="black"/>
<path opacity="0.01" fill-rule="evenodd" clip-rule="evenodd" d="M28.3417 26.4203C28.2924 26.4696 28.2924 26.4696 28.3417 26.4203Z" fill="black"/>
<path opacity="0.01" fill-rule="evenodd" clip-rule="evenodd" d="M27.8984 26.7898C27.997 26.8391 27.997 26.8391 27.8984 26.7898Z" fill="black"/>
<path opacity="0.01" fill-rule="evenodd" clip-rule="evenodd" d="M27.8242 26.8637C27.8488 26.8637 27.8735 26.8637 27.8981 26.8637C27.8844 26.9133 27.8598 26.9133 27.8242 26.8637Z" fill="black"/>
<path opacity="0.01" fill-rule="evenodd" clip-rule="evenodd" d="M27.75 26.9377C27.7746 26.9377 27.7993 26.9377 27.8239 26.9377C27.8102 26.9872 27.7855 26.9872 27.75 26.9377Z" fill="black"/>
<path opacity="0.01" fill-rule="evenodd" clip-rule="evenodd" d="M27.6758 27.0116C27.7004 27.0116 27.7251 27.0116 27.7497 27.0116C27.736 27.0611 27.7113 27.0611 27.6758 27.0116Z" fill="black"/>
<path opacity="0.01" fill-rule="evenodd" clip-rule="evenodd" d="M27.6035 27.0854C27.6281 27.0854 27.6528 27.0854 27.6774 27.0854C27.6637 27.135 27.6391 27.135 27.6035 27.0854Z" fill="black"/>
<path opacity="0.01" fill-rule="evenodd" clip-rule="evenodd" d="M4.47055 27.1593C4.42128 27.2086 4.42128 27.2086 4.47055 27.1593Z" fill="black"/>
<path opacity="0.01" fill-rule="evenodd" clip-rule="evenodd" d="M27.5293 27.1593C27.5539 27.1593 27.5786 27.1593 27.6032 27.1593C27.6159 27.2327 27.5912 27.2819 27.5293 27.3072C27.5293 27.2579 27.5293 27.2086 27.5293 27.1593Z" fill="black"/>
<path opacity="0.01" fill-rule="evenodd" clip-rule="evenodd" d="M27.5292 27.3072C27.4799 27.3565 27.4799 27.3565 27.5292 27.3072Z" fill="black"/>
<path opacity="0.01" fill-rule="evenodd" clip-rule="evenodd" d="M27.4549 27.3811C27.4056 27.4304 27.4056 27.4304 27.4549 27.3811Z" fill="black"/>
<path opacity="0.01" fill-rule="evenodd" clip-rule="evenodd" d="M27.3807 27.455C27.3314 27.5043 27.3314 27.5043 27.3807 27.455Z" fill="black"/>
<path opacity="0.01" fill-rule="evenodd" clip-rule="evenodd" d="M27.0117 27.6767C27.1102 27.726 27.1102 27.726 27.0117 27.6767Z" fill="black"/>
<path opacity="0.01" fill-rule="evenodd" clip-rule="evenodd" d="M26.9375 27.7506C26.9621 27.7506 26.9868 27.7506 27.0114 27.7506C26.9977 27.8001 26.973 27.8001 26.9375 27.7506Z" fill="black"/>
<path opacity="0.01" fill-rule="evenodd" clip-rule="evenodd" d="M26.8633 27.8245C26.8879 27.8245 26.9126 27.8245 26.9372 27.8245C26.9235 27.874 26.8988 27.874 26.8633 27.8245Z" fill="black"/>
<path opacity="0.01" fill-rule="evenodd" clip-rule="evenodd" d="M26.7891 27.8984C26.8137 27.8984 26.8384 27.8984 26.863 27.8984C26.8493 27.9479 26.8246 27.9479 26.7891 27.8984Z" fill="black"/>
<path opacity="0.01" fill-rule="evenodd" clip-rule="evenodd" d="M5.285 27.9723C5.23573 28.0216 5.23573 28.0216 5.285 27.9723Z" fill="black"/>
<path opacity="0.01" fill-rule="evenodd" clip-rule="evenodd" d="M26.7168 27.9723C26.7414 27.9723 26.7661 27.9723 26.7907 27.9723C26.777 28.0218 26.7523 28.0218 26.7168 27.9723Z" fill="black"/>
<path opacity="0.01" fill-rule="evenodd" clip-rule="evenodd" d="M26.4199 28.2679C26.5184 28.3172 26.5184 28.3172 26.4199 28.2679Z" fill="black"/>
<path opacity="0.01" fill-rule="evenodd" clip-rule="evenodd" d="M26.4198 28.3418C26.3705 28.3911 26.3705 28.3911 26.4198 28.3418Z" fill="black"/>
<path opacity="0.01" fill-rule="evenodd" clip-rule="evenodd" d="M6.09769 28.6374C6.09769 28.662 6.09769 28.6867 6.09769 28.7113C6.04817 28.6758 6.04817 28.6511 6.09769 28.6374Z" fill="black"/>
<path opacity="0.01" fill-rule="evenodd" clip-rule="evenodd" d="M25.9023 28.6374C26.0009 28.6867 26.0009 28.6867 25.9023 28.6374Z" fill="black"/>
<path opacity="0.01" fill-rule="evenodd" clip-rule="evenodd" d="M6.09766 28.7113C6.19619 28.7606 6.19619 28.7606 6.09766 28.7113Z" fill="black"/>
<path opacity="0.01" fill-rule="evenodd" clip-rule="evenodd" d="M25.8281 28.7113C25.8527 28.7113 25.8774 28.7113 25.902 28.7113C25.8884 28.7608 25.8637 28.7608 25.8281 28.7113Z" fill="black"/>
<path opacity="0.01" fill-rule="evenodd" clip-rule="evenodd" d="M25.6074 28.8591C25.7059 28.9084 25.7059 28.9084 25.6074 28.8591Z" fill="black"/>
<path opacity="0.01" fill-rule="evenodd" clip-rule="evenodd" d="M6.46664 28.933C6.41737 28.9823 6.41737 28.9823 6.46664 28.933Z" fill="black"/>
<path opacity="0.01" fill-rule="evenodd" clip-rule="evenodd" d="M25.5332 28.933C25.5578 28.933 25.5825 28.933 25.6071 28.933C25.5934 28.9825 25.5688 28.9825 25.5332 28.933Z" fill="black"/>
<path opacity="0.01" fill-rule="evenodd" clip-rule="evenodd" d="M6.98441 29.3025C6.98441 29.3271 6.98441 29.3518 6.98441 29.3764C6.93489 29.3409 6.93489 29.3162 6.98441 29.3025Z" fill="black"/>
<path opacity="0.01" fill-rule="evenodd" clip-rule="evenodd" d="M6.98438 29.3764C7.08291 29.4257 7.08291 29.4257 6.98438 29.3764Z" fill="black"/>
<path opacity="0.01" fill-rule="evenodd" clip-rule="evenodd" d="M24.9414 29.3764C25.0399 29.4257 25.0399 29.4257 24.9414 29.3764Z" fill="black"/>
<path opacity="0.01" fill-rule="evenodd" clip-rule="evenodd" d="M7.20511 29.4503C7.20511 29.475 7.20511 29.4996 7.20511 29.5243C7.15559 29.4887 7.15559 29.464 7.20511 29.4503Z" fill="black"/>
<path opacity="0.01" fill-rule="evenodd" clip-rule="evenodd" d="M24.7949 29.4503C24.8934 29.4996 24.8934 29.4996 24.7949 29.4503Z" fill="black"/>
<path opacity="0.01" fill-rule="evenodd" clip-rule="evenodd" d="M7.20508 29.5242C7.30361 29.5735 7.30361 29.5735 7.20508 29.5242Z" fill="black"/>
<path opacity="0.01" fill-rule="evenodd" clip-rule="evenodd" d="M24.7948 29.5242C24.7455 29.5735 24.7455 29.5735 24.7948 29.5242Z" fill="black"/>
<path opacity="0.01" fill-rule="evenodd" clip-rule="evenodd" d="M7.35352 29.5981C7.45203 29.6474 7.45203 29.6474 7.35352 29.5981Z" fill="black"/>
<path opacity="0.01" fill-rule="evenodd" clip-rule="evenodd" d="M24.5723 29.5981C24.6708 29.6474 24.6708 29.6474 24.5723 29.5981Z" fill="black"/>
<path opacity="0.01" fill-rule="evenodd" clip-rule="evenodd" d="M8.09166 29.9677C8.04236 30.017 8.04236 30.017 8.09166 29.9677Z" fill="black"/>
<path opacity="0.01" fill-rule="evenodd" clip-rule="evenodd" d="M23.9086 29.9677C23.941 29.9629 23.9656 29.9751 23.9825 30.0046C23.9148 30.0323 23.8532 30.0692 23.7977 30.1155C23.7682 30.0986 23.756 30.0739 23.7608 30.0416C23.7861 29.9796 23.8353 29.955 23.9086 29.9677Z" fill="black"/>
<path opacity="0.01" fill-rule="evenodd" clip-rule="evenodd" d="M23.6113 30.1894C23.7098 30.2387 23.7098 30.2387 23.6113 30.1894Z" fill="black"/>
<path opacity="0.01" fill-rule="evenodd" clip-rule="evenodd" d="M9.12695 30.5589C9.22547 30.6082 9.22547 30.6082 9.12695 30.5589Z" fill="black"/>
<path opacity="0.01" fill-rule="evenodd" clip-rule="evenodd" d="M22.7988 30.5589C22.8973 30.6082 22.8973 30.6082 22.7988 30.5589Z" fill="black"/>
<path opacity="0.01" fill-rule="evenodd" clip-rule="evenodd" d="M9.27539 30.6328C9.3739 30.6821 9.3739 30.6821 9.27539 30.6328Z" fill="black"/>
<path opacity="0.01" fill-rule="evenodd" clip-rule="evenodd" d="M22.6504 30.6328C22.7489 30.6821 22.7489 30.6821 22.6504 30.6328Z" fill="black"/>
<path opacity="0.145" fill-rule="evenodd" clip-rule="evenodd" d="M11.0488 31.224C11.2448 31.2174 11.4172 31.2666 11.5661 31.3718C11.3702 31.3785 11.1977 31.3293 11.0488 31.224Z" fill="#3E0D78"/>
</g>
<defs>
<clipPath id="clip0_3033_1556">
<rect width="32" height="32" fill="white"/>
</clipPath>
</defs>
</svg>
