<svg xmlns="http://www.w3.org/2000/svg" width="40" height="40" fill="none"><path fill="#0033AD" d="M20 0c11.044 0 20 8.956 20 20s-8.956 20-20 20S0 31.044 0 20 8.956 0 20 0Z"/><path fill="#fff" d="M13.895 19.966a1.815 1.815 0 0 0 1.713 1.916h.11c1.01 0 1.823-.813 1.815-1.823 0-1.01-.813-1.823-1.824-1.815a1.814 1.814 0 0 0-1.814 1.722ZM7.107 19.495a.589.589 0 1 0-.062 1.174.589.589 0 0 0 .062-1.174ZM13.781 9.398a.596.596 0 0 0 .261-.792.596.596 0 0 0-.791-.26.59.59 0 0 0-.261.787.581.581 0 0 0 .791.265ZM15.625 12.619a.91.91 0 0 0 .404-1.217.909.909 0 0 0-1.216-.404.909.909 0 0 0-.405 1.217c.224.45.77.627 1.217.404ZM9.415 14.834a.751.751 0 0 0 1.036-.215.751.751 0 0 0-.215-1.036.751.751 0 0 0-1.036.215.74.74 0 0 0 .215 1.036ZM10.518 19.17a.907.907 0 0 0-.96.86c-.03.505.354.93.859.96.505.029.93-.354.96-.86a.918.918 0 0 0-.86-.96ZM9.512 25.276a.758.758 0 0 0-.333 1.01.758.758 0 0 0 1.01.333.757.757 0 0 0 .333-1.01.757.757 0 0 0-1.01-.333ZM13.044 17.293c.497.324 1.162.19 1.478-.312a1.058 1.058 0 0 0-.312-1.478 1.058 1.058 0 0 0-1.477.312 1.069 1.069 0 0 0 .311 1.478ZM24.253 12.547a.916.916 0 0 0 1.263-.26.916.916 0 0 0-.261-1.264.916.916 0 0 0-1.263.261.905.905 0 0 0 .26 1.263ZM26.114 9.343a.582.582 0 0 0 .812-.173.582.582 0 0 0-.172-.812.587.587 0 0 0-.813.164.6.6 0 0 0 .173.821ZM24.387 18.227a1.812 1.812 0 0 0-1.915 1.714 1.812 1.812 0 0 0 1.713 1.916h.101a1.817 1.817 0 0 0 1.815-1.823 1.801 1.801 0 0 0-1.714-1.807ZM16.223 17.162c.312.61.94 1.002 1.63 1.002a1.817 1.817 0 0 0 1.814-1.823 1.815 1.815 0 0 0-2.636-1.63 1.826 1.826 0 0 0-.808 2.451ZM30.484 14.834a.75.75 0 0 0-.686-1.335.754.754 0 0 0-.333 1.002.77.77 0 0 0 1.02.333ZM25.874 15.41c-.527.266-.741.91-.476 1.436.265.527.91.741 1.436.476.526-.265.74-.91.476-1.436a1.076 1.076 0 0 0-1.436-.475ZM19.928 9.07a.758.758 0 0 0 .792-.708.752.752 0 0 0-1.499-.093.763.763 0 0 0 .707.8ZM19.92 13.773a1.06 1.06 0 0 0 1.124-1.01 1.06 1.06 0 0 0-1.01-1.125 1.06 1.06 0 0 0-1.124 1.01 1.07 1.07 0 0 0 1.01 1.125ZM14.126 24.699c.527-.265.741-.91.476-1.436a1.071 1.071 0 0 0-1.436-.476c-.526.266-.74.91-.476 1.436.27.527.91.741 1.436.476ZM20.615 15.339a1.814 1.814 0 0 0 .526 2.514 1.814 1.814 0 0 0 2.514-.527 1.814 1.814 0 0 0-1.52-2.808c-.615 0-1.183.307-1.52.821ZM23.777 22.947a1.815 1.815 0 0 0-2.442-.808 1.815 1.815 0 0 0-.809 2.442 1.815 1.815 0 0 0 2.442.809 1.809 1.809 0 0 0 .813-2.43c.004-.004.004-.004-.004-.013ZM26.956 22.817a1.059 1.059 0 0 0-1.478.311 1.058 1.058 0 0 0 .311 1.478c.497.324 1.163.19 1.478-.311a1.069 1.069 0 0 0-.311-1.478ZM30.442 20.088a.907.907 0 0 0-.859-.96.907.907 0 0 0-.96.86c-.03.505.354.93.86.96a.918.918 0 0 0 .96-.86ZM32.956 19.44a.589.589 0 1 0-.062 1.174.589.589 0 0 0 .062-1.174ZM30.585 25.276a.751.751 0 0 0-1.036.215.751.751 0 0 0 .215 1.035.751.751 0 0 0 1.036-.214.74.74 0 0 0-.215-1.036ZM13.882 30.766a.587.587 0 0 0-.648.977.587.587 0 0 0 .812-.164.575.575 0 0 0-.164-.813ZM26.219 30.712a.596.596 0 0 0-.261.791.597.597 0 0 0 .792.261.59.59 0 0 0 .26-.787.581.581 0 0 0-.791-.265ZM19.385 24.77a1.826 1.826 0 0 0-.526-2.522 1.826 1.826 0 0 0-2.522.527 1.818 1.818 0 0 0 1.52 2.817 1.787 1.787 0 0 0 1.528-.822ZM15.747 27.562a.916.916 0 0 0-1.263.261.916.916 0 0 0 .261 1.263.915.915 0 0 0 1.263-.26.903.903 0 0 0-.26-1.264ZM19.992 31.04a.758.758 0 0 0-.792.707.752.752 0 0 0 1.499.093.763.763 0 0 0-.707-.8ZM20 26.337a1.06 1.06 0 0 0-1.124 1.01 1.06 1.06 0 0 0 1.01 1.124A1.069 1.069 0 1 0 20 26.337ZM24.375 27.49a.91.91 0 0 0 .83 1.622.909.909 0 0 0 .403-1.217.917.917 0 0 0-1.233-.404Z"/></svg>