<svg width="24" height="24" viewBox="0 0 24 24" fill="none" xmlns="http://www.w3.org/2000/svg">
<path d="M0 12C0 5.37258 5.37258 0 12 0C18.6274 0 24 5.37258 24 12C24 18.6274 18.6274 24 12 24C5.37258 24 0 18.6274 0 12Z" fill="white"/>
<path d="M11.7611 3.16576C12.1972 2.94299 12.7343 3.4502 12.4978 3.87742C12.3699 4.21576 11.861 4.3052 11.5878 4.04687C11.3149 3.79743 11.406 3.29909 11.7699 3.15688L11.7611 3.16576ZM7.0755 3.65465C7.34826 3.54798 7.67549 3.77964 7.64882 4.05575C7.67604 4.35799 7.29382 4.58909 7.02105 4.43798C6.66605 4.30464 6.7116 3.74354 7.0755 3.65465ZM16.6822 4.44743C16.2638 4.39354 16.2 3.77076 16.5916 3.64632C16.91 3.50353 17.1917 3.77076 17.2372 4.05575C17.1738 4.29576 16.9644 4.51853 16.6822 4.44743ZM8.13994 5.56853C8.58549 5.30187 9.21327 5.70187 9.1405 6.19131C9.12271 6.6991 8.4405 6.99242 8.04882 6.65465C7.66715 6.38743 7.73049 5.77298 8.13994 5.56853ZM14.8994 5.86243C15.0994 5.37299 15.8999 5.35464 16.1271 5.82687C16.3454 6.20021 16.0727 6.66298 15.6727 6.78799C15.1539 6.87687 14.6538 6.34298 14.8994 5.86243ZM11.1965 6.75243C11.1965 6.3341 11.5966 6.02243 12.0155 5.99577C12.2883 6.0491 12.5888 6.16465 12.7066 6.43187C12.9249 6.79688 12.7343 7.30409 12.3338 7.48187C12.1517 7.57077 11.9339 7.53521 11.7339 7.52632C11.4332 7.3841 11.1783 7.09965 11.1965 6.76132V6.75243ZM4.22827 7.37521C4.62827 7.13521 5.17437 7.57131 5.01937 7.99854C4.93771 8.35409 4.42826 8.50576 4.13715 8.2741C3.82771 8.05187 3.87327 7.52687 4.22827 7.37521ZM19.2022 7.37521C19.5477 7.10853 20.1122 7.41076 20.0666 7.8202C20.0938 8.20298 19.6116 8.49687 19.266 8.30076C18.8927 8.13187 18.8472 7.5891 19.2022 7.37521ZM13.1616 8.13187C13.4455 8.03966 13.7514 8.04102 14.0344 8.13576C14.3178 8.23076 14.5604 8.41354 14.7266 8.65687C15.1449 9.24409 14.9266 10.1519 14.2622 10.4902C13.5799 10.8997 12.5794 10.5524 12.325 9.82294C12.0338 9.1641 12.4521 8.33632 13.1616 8.13187ZM9.841 8.19409C10.4688 7.9091 11.3149 8.14965 11.615 8.76354C11.9789 9.36909 11.6972 10.2058 11.0604 10.5169C10.4233 10.873 9.51382 10.6058 9.21327 9.95633C8.85882 9.33354 9.16772 8.47854 9.841 8.19409ZM6.51161 9.28854C6.55716 8.89742 6.93938 8.64799 7.33049 8.62131C7.73994 8.66576 8.06716 8.97687 8.11271 9.37799C8.08493 9.77796 7.76716 10.1786 7.33049 10.1786C6.83882 10.2147 6.42049 9.74244 6.51161 9.28854ZM16.3366 8.70132C16.8366 8.43464 17.5194 8.83466 17.5011 9.37799C17.5378 9.96514 16.7732 10.3747 16.2822 10.0364C15.7633 9.7519 15.7999 8.95077 16.3366 8.70132ZM8.48549 10.757C8.77507 10.6826 9.08089 10.7034 9.35772 10.8163C9.63385 10.9286 9.86433 11.1274 10.0138 11.3802C10.3322 11.8969 10.1961 12.6264 9.71384 13.0002C9.09493 13.5614 7.94882 13.3297 7.6216 12.5731C7.23937 11.8785 7.69383 10.9436 8.48549 10.757ZM14.7899 10.757C15.3544 10.5969 16.0177 10.8108 16.3182 11.3002C16.7277 11.8697 16.5277 12.7241 15.9361 13.0802C15.2993 13.508 14.3349 13.2853 13.9894 12.6174C13.5711 11.9324 13.9894 10.9619 14.7899 10.7485V10.757ZM4.73771 11.3892C5.23771 11.2113 5.79326 11.7453 5.59271 12.2258C5.46494 12.6619 4.82882 12.8225 4.50105 12.4924C4.10993 12.1991 4.25549 11.5231 4.73771 11.3892ZM18.356 12.0924C18.3513 11.9947 18.366 11.8969 18.3994 11.8049C18.4327 11.7129 18.4842 11.6283 18.5504 11.5564C18.6855 11.4091 18.8739 11.3209 19.0749 11.3092C19.4116 11.3625 19.7482 11.6296 19.721 11.9947C19.7572 12.4664 19.1566 12.7958 18.7383 12.5641C18.5382 12.4752 18.4383 12.2797 18.356 12.0924ZM2.26327 11.6296C2.57216 11.5052 2.94549 11.7541 2.87271 12.0741C2.85438 12.4397 2.29938 12.5819 2.09048 12.2797C1.90826 12.0658 2.01771 11.7453 2.27216 11.6296H2.26327ZM21.3222 11.6296C21.5405 11.4786 21.8766 11.5764 21.9588 11.8163C22.1044 12.0831 21.8404 12.4397 21.5405 12.3947C21.1127 12.4307 20.9671 11.8075 21.3222 11.6208V11.6296ZM10.1232 13.3742C10.915 13.1781 11.7699 13.8186 11.7788 14.6019C11.8243 15.403 10.9872 16.1152 10.1688 15.9285C9.85954 15.8747 9.57889 15.7144 9.37549 15.4752C9.17469 15.2393 9.06545 14.9389 9.06771 14.6291C9.06771 14.0502 9.52328 13.4986 10.1232 13.383V13.3742ZM13.271 13.3742C14.0805 13.1603 14.9539 13.8103 14.9449 14.6202C14.9899 15.3941 14.1715 16.0797 13.3711 15.9197C12.6249 15.8308 12.07 15.0386 12.2793 14.3353C12.3882 13.8725 12.7888 13.4897 13.271 13.3742ZM7.19382 13.863C7.75771 13.7741 8.28548 14.3708 8.04938 14.878C7.88549 15.4208 7.06604 15.5724 6.70271 15.1274C6.27493 14.6996 6.59327 13.9163 7.19382 13.863ZM16.4366 13.8902C16.9277 13.6853 17.5466 14.1036 17.5011 14.6202C17.5288 15.1896 16.7732 15.5902 16.2822 15.2519C15.736 14.9492 15.8272 14.0686 16.4366 13.8902ZM19.011 16.3825C18.8199 16.0264 19.175 15.5636 19.5755 15.6259C19.7754 15.6259 19.921 15.7769 20.0483 15.9103C20.076 16.1152 20.121 16.3558 19.9388 16.5247C19.6932 16.8186 19.1478 16.7291 19.011 16.3825ZM4.21882 15.7236C4.59215 15.4835 5.12882 15.848 5.0466 16.2664C5.0016 16.6497 4.50993 16.863 4.1916 16.6497C3.84604 16.4535 3.85438 15.902 4.21882 15.7236ZM11.6699 16.5158C12.161 16.3019 12.7888 16.7202 12.7433 17.2369C12.7793 17.8146 12.0066 18.2159 11.5244 17.8686C10.9782 17.5747 11.0689 16.6936 11.6699 16.5158ZM8.21271 17.2903C8.64049 17.0764 9.20438 17.4413 9.15883 17.8958C9.17715 18.2691 8.79493 18.5897 8.42215 18.527C8.10382 18.527 7.89438 18.2514 7.79438 17.9935C7.79438 17.7086 7.92216 17.3969 8.22216 17.2814L8.21271 17.2903ZM15.2177 17.2903C15.6454 17.0319 16.2549 17.4058 16.2183 17.8863C16.2272 18.403 15.536 18.723 15.1267 18.3936C14.7444 18.1269 14.7899 17.5035 15.2177 17.2991V17.2903ZM16.4277 20.1825C16.2365 19.9158 16.4638 19.5685 16.7732 19.5063C17.0283 19.5597 17.2916 19.7374 17.2282 20.0136C17.2005 20.3964 16.6278 20.5119 16.4277 20.1914V20.1825ZM6.77549 19.9425C6.84771 19.7202 7.02993 19.4975 7.30327 19.5591C7.70327 19.5863 7.8216 20.1647 7.47549 20.3424C7.15771 20.5386 6.80271 20.2631 6.77549 19.9425ZM11.4332 20.2002C11.5054 19.8714 11.9516 19.7114 12.2427 19.8891C12.4249 19.9691 12.4883 20.1737 12.5338 20.3519L12.4616 20.6185C12.3427 20.7614 12.1882 20.8947 11.9971 20.8852C11.6243 20.9303 11.2877 20.5297 11.4332 20.2002Z" fill="#246DD3"/>
</svg>
