<svg width="24" height="24" viewBox="0 0 24 24" fill="none" xmlns="http://www.w3.org/2000/svg">
<g clip-path="url(#clip0_1218_24201)">
<path d="M12 24C18.6274 24 24 18.6274 24 12C24 5.37258 18.6274 0 12 0C5.37258 0 0 5.37258 0 12C0 18.6274 5.37258 24 12 24Z" fill="#0D1E30"/>
<g filter="url(#filter0_d_1218_24201)">
<path d="M11.7938 4.54505C12.153 4.3598 12.5918 4.78805 12.4013 5.1413C12.2895 5.4293 11.8688 5.5058 11.6543 5.28605C11.427 5.07605 11.5013 4.65905 11.7938 4.5443V4.54505ZM7.92753 4.95455C8.14578 4.86605 8.42253 5.06255 8.40003 5.2973C8.42253 5.5508 8.10753 5.7383 7.88478 5.61755C7.59003 5.50505 7.62378 5.03405 7.92753 4.95455V4.95455ZM15.846 5.6243C15.5048 5.5838 15.4508 5.0558 15.7785 4.9493C16.0335 4.8278 16.2675 5.05655 16.305 5.2943C16.251 5.4968 16.0785 5.6828 15.846 5.6243V5.6243ZM8.80728 6.57305C9.17253 6.3458 9.69303 6.68405 9.63678 7.1018C9.61803 7.52255 9.04953 7.76705 8.72853 7.48205C8.41803 7.25855 8.46528 6.74555 8.80728 6.57305ZM14.3798 6.81455C14.5425 6.40205 15.2025 6.38855 15.3878 6.79055C15.5715 7.1033 15.3458 7.49105 15.0195 7.59755C14.5868 7.67705 14.1765 7.21655 14.3798 6.81455ZM11.328 7.5743C11.3243 7.2188 11.6528 6.9548 11.9955 6.93005C12.2235 6.97505 12.471 7.0703 12.5685 7.29605C12.7508 7.60805 12.5888 8.0363 12.261 8.17955C12.111 8.26205 11.9325 8.2313 11.769 8.22155C11.5193 8.10155 11.3085 7.8638 11.328 7.5743ZM5.57853 8.0918C5.91228 7.8893 6.36228 8.2568 6.23553 8.6138C6.16653 8.92205 5.74503 9.0473 5.50428 8.8508C5.24703 8.6663 5.28753 8.22305 5.57928 8.09105L5.57853 8.0918ZM17.925 8.0903C18.2078 7.8743 18.675 8.12255 18.6405 8.47355C18.66 8.7938 18.2558 9.03605 17.9753 8.87105C17.6663 8.7338 17.634 8.2658 17.925 8.09105V8.0903ZM12.945 8.72855C13.4115 8.56355 13.9665 8.7608 14.232 9.17105C14.583 9.6713 14.397 10.4333 13.8518 10.7206C13.2878 11.0603 12.4635 10.7731 12.2543 10.1521C12.018 9.59705 12.363 8.90255 12.9443 8.72855H12.945ZM10.2053 8.7833C10.7228 8.5433 11.4195 8.7443 11.6693 9.2648C11.9633 9.7718 11.736 10.4776 11.2103 10.7393C10.6838 11.0341 9.94053 10.8106 9.68628 10.2668C9.40053 9.7403 9.65403 9.02555 10.2053 8.7833V8.7833ZM7.46253 9.70505C7.50228 9.3773 7.81653 9.16355 8.13378 9.14105C8.29923 9.15853 8.45386 9.23161 8.57239 9.34837C8.69091 9.46512 8.76632 9.61863 8.78628 9.7838C8.76378 10.1213 8.49903 10.4498 8.13603 10.4483C7.73628 10.4821 7.38603 10.0906 7.46253 9.70505V9.70505ZM15.564 9.21305C15.9743 8.9783 16.5435 9.31955 16.5255 9.78305C16.5533 10.2743 15.9233 10.6201 15.5153 10.3321C15.0908 10.0921 15.1238 9.41705 15.564 9.21305ZM9.09153 10.9433C9.57003 10.8136 10.119 11.0356 10.3538 11.4691C10.611 11.9056 10.506 12.5116 10.1063 12.8326C9.59253 13.3021 8.64678 13.1131 8.37378 12.4726C8.05953 11.8853 8.44128 11.0978 9.09078 10.9426L9.09153 10.9433ZM14.2868 10.9411C14.7525 10.8098 15.3 10.9861 15.5505 11.4038C15.882 11.8816 15.7238 12.5948 15.231 12.9023C14.7135 13.2601 13.914 13.0726 13.629 12.5131C13.284 11.9348 13.6313 11.1173 14.2868 10.9411V10.9411ZM6.00678 11.4856C6.42078 11.3318 6.87978 11.7811 6.71178 12.1853C6.60978 12.5528 6.08253 12.6893 5.81028 12.4178C5.49153 12.1628 5.60928 11.5966 6.00678 11.4856V11.4856ZM17.2335 12.0721C17.2258 11.907 17.2835 11.7455 17.3942 11.6227C17.5048 11.5 17.6595 11.4259 17.8245 11.4166C18.108 11.4616 18.384 11.6866 18.3615 11.9903C18.3878 12.3916 17.8965 12.6638 17.5485 12.4756C17.3858 12.3938 17.3025 12.2296 17.2335 12.0721ZM3.97053 11.6851C4.21953 11.5778 4.52778 11.7901 4.47078 12.0623C4.45728 12.3706 3.99453 12.4898 3.82503 12.2318C3.67503 12.0526 3.76503 11.7773 3.97053 11.6843V11.6851ZM19.6823 11.6783C19.8578 11.5561 20.1398 11.6438 20.2088 11.8456C20.3265 12.0661 20.1105 12.3676 19.8585 12.3308C19.5045 12.3623 19.3905 11.8321 19.6823 11.6783ZM10.4445 13.1581C11.1 12.9908 11.805 13.5286 11.8095 14.1931C11.8515 14.8643 11.157 15.4591 10.4865 15.3046C9.96753 15.2221 9.56028 14.7301 9.57753 14.2148C9.57603 13.7213 9.95403 13.2623 10.4445 13.1581V13.1581ZM13.041 13.1573C13.7063 12.9743 14.4323 13.5218 14.4218 14.2013C14.457 14.8598 13.7843 15.4351 13.1273 15.3038C12.5085 15.2258 12.0525 14.5576 12.225 13.9666C12.312 13.5736 12.6465 13.2541 13.041 13.1566V13.1573ZM8.03403 13.5661C8.49453 13.4888 8.92653 13.9936 8.73978 14.4241C8.60328 14.8831 7.92528 15.0068 7.62528 14.6326C7.27428 14.2726 7.53678 13.6156 8.03403 13.5661V13.5661ZM15.6495 13.5863C16.0605 13.4168 16.5645 13.7663 16.533 14.2051C16.5495 14.6873 15.927 15.0203 15.5258 14.7383C15.0705 14.4856 15.1538 13.7408 15.6495 13.5863V13.5863ZM17.778 15.6863C17.6175 15.3916 17.9093 15.0008 18.243 15.0556C18.408 15.0526 18.5243 15.1808 18.63 15.2888C18.6518 15.4636 18.6885 15.6721 18.5408 15.8063C18.3405 16.0561 17.8868 15.9848 17.778 15.6863V15.6863ZM5.57703 15.1373C5.88828 14.9341 6.33603 15.2378 6.26553 15.5948C6.22803 15.9121 5.82303 16.0928 5.55678 15.9128C5.27028 15.7501 5.28078 15.2858 5.57703 15.1373V15.1373ZM11.7218 15.7996C12.129 15.6233 12.648 15.9721 12.609 16.4131C12.639 16.9006 11.9978 17.2381 11.5995 16.9456C11.157 16.6943 11.2313 15.9548 11.7218 15.7996V15.7996ZM8.87628 16.4528C9.22278 16.2736 9.68778 16.5833 9.65628 16.9658C9.66678 17.2793 9.35628 17.5463 9.04128 17.4998C8.78103 17.4946 8.61153 17.2643 8.52753 17.0461C8.53203 16.8083 8.63178 16.5436 8.87628 16.4536V16.4528ZM14.6408 16.4588C14.9978 16.2413 15.5048 16.5533 15.471 16.9613C15.48 17.3888 14.907 17.6618 14.5748 17.3813C14.2538 17.1616 14.2928 16.6336 14.6408 16.4588ZM15.6435 18.8963C15.4845 18.6608 15.6713 18.3766 15.9285 18.3226C16.1363 18.3638 16.356 18.5176 16.3118 18.7531C16.2818 19.0733 15.8063 19.1708 15.6435 18.8971V18.8963ZM7.68528 18.6916C7.74828 18.5041 7.90128 18.3188 8.12553 18.3676C8.45178 18.3901 8.54853 18.8746 8.26278 19.0238C8.00628 19.1941 7.70778 18.9608 7.68528 18.6916ZM11.5253 18.9068C11.5875 18.6293 11.9513 18.4951 12.1913 18.6421C12.3503 18.7096 12.3968 18.8836 12.4373 19.0321C12.4159 19.1092 12.3959 19.1867 12.3773 19.2646C12.279 19.3786 12.1523 19.4933 11.9888 19.4896C11.685 19.5248 11.4105 19.1866 11.5245 18.9068H11.5253Z" fill="black"/>
</g>
<path d="M11.7938 4.54505C12.153 4.3598 12.5918 4.78805 12.4013 5.1413C12.2895 5.4293 11.8688 5.5058 11.6543 5.28605C11.427 5.07605 11.5013 4.65905 11.7938 4.5443V4.54505ZM7.92753 4.95455C8.14578 4.86605 8.42253 5.06255 8.40003 5.2973C8.42253 5.5508 8.10753 5.7383 7.88478 5.61755C7.59003 5.50505 7.62378 5.03405 7.92753 4.95455V4.95455ZM15.846 5.6243C15.5048 5.5838 15.4508 5.0558 15.7785 4.9493C16.0335 4.8278 16.2675 5.05655 16.305 5.2943C16.251 5.4968 16.0785 5.6828 15.846 5.6243V5.6243ZM8.80728 6.57305C9.17253 6.3458 9.69303 6.68405 9.63678 7.1018C9.61803 7.52255 9.04953 7.76705 8.72853 7.48205C8.41803 7.25855 8.46528 6.74555 8.80728 6.57305ZM14.3798 6.81455C14.5425 6.40205 15.2025 6.38855 15.3878 6.79055C15.5715 7.1033 15.3458 7.49105 15.0195 7.59755C14.5868 7.67705 14.1765 7.21655 14.3798 6.81455ZM11.328 7.5743C11.3243 7.2188 11.6528 6.9548 11.9955 6.93005C12.2235 6.97505 12.471 7.0703 12.5685 7.29605C12.7508 7.60805 12.5888 8.0363 12.261 8.17955C12.111 8.26205 11.9325 8.2313 11.769 8.22155C11.5193 8.10155 11.3085 7.8638 11.328 7.5743ZM5.57853 8.0918C5.91228 7.8893 6.36228 8.2568 6.23553 8.6138C6.16653 8.92205 5.74503 9.0473 5.50428 8.8508C5.24703 8.6663 5.28753 8.22305 5.57928 8.09105L5.57853 8.0918ZM17.925 8.0903C18.2078 7.8743 18.675 8.12255 18.6405 8.47355C18.66 8.7938 18.2558 9.03605 17.9753 8.87105C17.6663 8.7338 17.634 8.2658 17.925 8.09105V8.0903ZM12.945 8.72855C13.4115 8.56355 13.9665 8.7608 14.232 9.17105C14.583 9.6713 14.397 10.4333 13.8518 10.7206C13.2878 11.0603 12.4635 10.7731 12.2543 10.1521C12.018 9.59705 12.363 8.90255 12.9443 8.72855H12.945ZM10.2053 8.7833C10.7228 8.5433 11.4195 8.7443 11.6693 9.2648C11.9633 9.7718 11.736 10.4776 11.2103 10.7393C10.6838 11.0341 9.94053 10.8106 9.68628 10.2668C9.40053 9.7403 9.65403 9.02555 10.2053 8.7833V8.7833ZM7.46253 9.70505C7.50228 9.3773 7.81653 9.16355 8.13378 9.14105C8.29923 9.15853 8.45386 9.23161 8.57239 9.34837C8.69091 9.46512 8.76632 9.61863 8.78628 9.7838C8.76378 10.1213 8.49903 10.4498 8.13603 10.4483C7.73628 10.4821 7.38603 10.0906 7.46253 9.70505V9.70505ZM15.564 9.21305C15.9743 8.9783 16.5435 9.31955 16.5255 9.78305C16.5533 10.2743 15.9233 10.6201 15.5153 10.3321C15.0908 10.0921 15.1238 9.41705 15.564 9.21305ZM9.09153 10.9433C9.57003 10.8136 10.119 11.0356 10.3538 11.4691C10.611 11.9056 10.506 12.5116 10.1063 12.8326C9.59253 13.3021 8.64678 13.1131 8.37378 12.4726C8.05953 11.8853 8.44128 11.0978 9.09078 10.9426L9.09153 10.9433ZM14.2868 10.9411C14.7525 10.8098 15.3 10.9861 15.5505 11.4038C15.882 11.8816 15.7238 12.5948 15.231 12.9023C14.7135 13.2601 13.914 13.0726 13.629 12.5131C13.284 11.9348 13.6313 11.1173 14.2868 10.9411V10.9411ZM6.00678 11.4856C6.42078 11.3318 6.87978 11.7811 6.71178 12.1853C6.60978 12.5528 6.08253 12.6893 5.81028 12.4178C5.49153 12.1628 5.60928 11.5966 6.00678 11.4856V11.4856ZM17.2335 12.0721C17.2258 11.907 17.2835 11.7455 17.3942 11.6227C17.5048 11.5 17.6595 11.4259 17.8245 11.4166C18.108 11.4616 18.384 11.6866 18.3615 11.9903C18.3878 12.3916 17.8965 12.6638 17.5485 12.4756C17.3858 12.3938 17.3025 12.2296 17.2335 12.0721ZM3.97053 11.6851C4.21953 11.5778 4.52778 11.7901 4.47078 12.0623C4.45728 12.3706 3.99453 12.4898 3.82503 12.2318C3.67503 12.0526 3.76503 11.7773 3.97053 11.6843V11.6851ZM19.6823 11.6783C19.8578 11.5561 20.1398 11.6438 20.2088 11.8456C20.3265 12.0661 20.1105 12.3676 19.8585 12.3308C19.5045 12.3623 19.3905 11.8321 19.6823 11.6783ZM10.4445 13.1581C11.1 12.9908 11.805 13.5286 11.8095 14.1931C11.8515 14.8643 11.157 15.4591 10.4865 15.3046C9.96753 15.2221 9.56028 14.7301 9.57753 14.2148C9.57603 13.7213 9.95403 13.2623 10.4445 13.1581V13.1581ZM13.041 13.1573C13.7063 12.9743 14.4323 13.5218 14.4218 14.2013C14.457 14.8598 13.7843 15.4351 13.1273 15.3038C12.5085 15.2258 12.0525 14.5576 12.225 13.9666C12.312 13.5736 12.6465 13.2541 13.041 13.1566V13.1573ZM8.03403 13.5661C8.49453 13.4888 8.92653 13.9936 8.73978 14.4241C8.60328 14.8831 7.92528 15.0068 7.62528 14.6326C7.27428 14.2726 7.53678 13.6156 8.03403 13.5661V13.5661ZM15.6495 13.5863C16.0605 13.4168 16.5645 13.7663 16.533 14.2051C16.5495 14.6873 15.927 15.0203 15.5258 14.7383C15.0705 14.4856 15.1538 13.7408 15.6495 13.5863V13.5863ZM17.778 15.6863C17.6175 15.3916 17.9093 15.0008 18.243 15.0556C18.408 15.0526 18.5243 15.1808 18.63 15.2888C18.6518 15.4636 18.6885 15.6721 18.5408 15.8063C18.3405 16.0561 17.8868 15.9848 17.778 15.6863V15.6863ZM5.57703 15.1373C5.88828 14.9341 6.33603 15.2378 6.26553 15.5948C6.22803 15.9121 5.82303 16.0928 5.55678 15.9128C5.27028 15.7501 5.28078 15.2858 5.57703 15.1373V15.1373ZM11.7218 15.7996C12.129 15.6233 12.648 15.9721 12.609 16.4131C12.639 16.9006 11.9978 17.2381 11.5995 16.9456C11.157 16.6943 11.2313 15.9548 11.7218 15.7996V15.7996ZM8.87628 16.4528C9.22278 16.2736 9.68778 16.5833 9.65628 16.9658C9.66678 17.2793 9.35628 17.5463 9.04128 17.4998C8.78103 17.4946 8.61153 17.2643 8.52753 17.0461C8.53203 16.8083 8.63178 16.5436 8.87628 16.4536V16.4528ZM14.6408 16.4588C14.9978 16.2413 15.5048 16.5533 15.471 16.9613C15.48 17.3888 14.907 17.6618 14.5748 17.3813C14.2538 17.1616 14.2928 16.6336 14.6408 16.4588ZM15.6435 18.8963C15.4845 18.6608 15.6713 18.3766 15.9285 18.3226C16.1363 18.3638 16.356 18.5176 16.3118 18.7531C16.2818 19.0733 15.8063 19.1708 15.6435 18.8971V18.8963ZM7.68528 18.6916C7.74828 18.5041 7.90128 18.3188 8.12553 18.3676C8.45178 18.3901 8.54853 18.8746 8.26278 19.0238C8.00628 19.1941 7.70778 18.9608 7.68528 18.6916ZM11.5253 18.9068C11.5875 18.6293 11.9513 18.4951 12.1913 18.6421C12.3503 18.7096 12.3968 18.8836 12.4373 19.0321C12.4159 19.1092 12.3959 19.1867 12.3773 19.2646C12.279 19.3786 12.1523 19.4933 11.9888 19.4896C11.685 19.5248 11.4105 19.1866 11.5245 18.9068H11.5253Z" fill="white"/>
</g>
<defs>
<filter id="filter0_d_1218_24201" x="2.75037" y="4.00037" width="18.4915" height="16.9917" filterUnits="userSpaceOnUse" color-interpolation-filters="sRGB">
<feFlood flood-opacity="0" result="BackgroundImageFix"/>
<feColorMatrix in="SourceAlpha" type="matrix" values="0 0 0 0 0 0 0 0 0 0 0 0 0 0 0 0 0 0 127 0" result="hardAlpha"/>
<feOffset dy="0.5"/>
<feGaussianBlur stdDeviation="0.5"/>
<feColorMatrix type="matrix" values="0 0 0 0 0 0 0 0 0 0 0 0 0 0 0 0 0 0 0.204257 0"/>
<feBlend mode="normal" in2="BackgroundImageFix" result="effect1_dropShadow_1218_24201"/>
<feBlend mode="normal" in="SourceGraphic" in2="effect1_dropShadow_1218_24201" result="shape"/>
</filter>
<clipPath id="clip0_1218_24201">
<rect width="24" height="24" fill="white"/>
</clipPath>
</defs>
</svg>
