<svg id="ic_arbitrum_hover_16" xmlns="http://www.w3.org/2000/svg" width="16" height="16" viewBox="0 0 16 16">
  <rect id="base" width="16" height="16" fill="none"/>
  <g id="arbitrum_hover">
    <rect id="Rectangle_213" data-name="Rectangle 213" width="16" height="16" fill="none"/>
    <g id="SYMBOL_VER_1-1_1_" transform="translate(2 1.2)">
      <g id="Symbol_-_Original_14_" transform="translate(0 0)">
        <path id="Path_348" data-name="Path 348" d="M56.824,50.244l1-1.695,2.692,4.193v.8l-.009-5.537a.417.417,0,0,0-.193-.332l-4.847-2.788a.427.427,0,0,0-.37,0,.4.4,0,0,0-.043.025l-.017.011-4.7,2.726-.018.008a.425.425,0,0,0-.069.04.418.418,0,0,0-.174.314l.007,4.512,2.508-3.887a1.839,1.839,0,0,1,1.642-.672l.749.02L50.562,55.07l.521.3L55.551,48l1.975-.007-4.457,7.56,1.857,1.068.222.128a.426.426,0,0,0,.3.006L60.362,53.9l-.94.545Zm.381,5.488-1.876-2.944,1.145-1.943,2.464,3.883Z" transform="translate(-49.235 -44.012)" fill="#2d374b"/>
        <path id="Path_349" data-name="Path 349" d="M237.768,260.858l1.876,2.944,1.733-1-2.464-3.883Z" transform="translate(-231.674 -252.083)" fill="#28a0f0"/>
        <path id="Path_350" data-name="Path 350" d="M294.826,181.966v-.8l-2.692-4.193-1,1.695,2.6,4.2.94-.544a.416.416,0,0,0,.154-.3Z" transform="translate(-283.545 -172.431)" fill="#28a0f0"/>
        <path id="Path_351" data-name="Path 351" d="M20.219,162.583l1.327.765,4.416-7.082-.749-.02a1.838,1.838,0,0,0-1.642.672L21.063,160.8l-.844,1.3Z" transform="translate(-20.219 -152.29)" fill="#fff"/>
        <path id="Path_352" data-name="Path 352" d="M92.614,156.964l-1.975.007-4.469,7.374,1.562.9.425-.72Z" transform="translate(-84.323 -152.988)" fill="#fff"/>
        <path id="Path_353" data-name="Path 353" d="M32.331,18.983a1.258,1.258,0,0,0-.591-1.011l-4.91-2.824a1.277,1.277,0,0,0-1.127,0c-.041.021-4.775,2.766-4.775,2.766a1.257,1.257,0,0,0-.711,1.066v5.848l.844-1.3-.007-4.512a.4.4,0,0,1,.006-.049.416.416,0,0,1,.168-.265c.022-.016,4.837-2.8,4.853-2.811a.427.427,0,0,1,.37,0L31.3,18.682a.417.417,0,0,1,.193.332V24.6a.407.407,0,0,1-.145.3l-.94.545-.485.281-1.733,1-1.757,1.018a.426.426,0,0,1-.3-.006l-2.079-1.2-.425.72L25.5,28.349l.162.092c.07.039.118.065.134.074a1.214,1.214,0,0,0,.5.1,1.249,1.249,0,0,0,.458-.086l5.1-2.956a1.248,1.248,0,0,0,.481-.94V18.983Z" transform="translate(-20.218 -15.017)" fill="#96bedc"/>
      </g>
    </g>
  </g>
</svg>
