<svg width="40" height="40" viewBox="0 0 40 40" fill="none" xmlns="http://www.w3.org/2000/svg">
<g clip-path="url(#clip0_2_43)">
<mask id="mask0_2_43" style="mask-type:luminance" maskUnits="userSpaceOnUse" x="0" y="0" width="40" height="40">
<path d="M40 0H0V40H40V0Z" fill="white"/>
</mask>
<g mask="url(#mask0_2_43)">
<path d="M40 20C40 8.94397 31.0345 0 20 0C8.94397 0 0 8.94397 0 20C0 31.0345 8.94397 40 20 40C31.0345 40 40 31.0345 40 20Z" fill="url(#paint0_radial_2_43)"/>
<path d="M33.5995 13.75C33.5133 14.2457 33.427 14.4828 33.2978 14.7414C33.1685 15.0431 33.0392 15.3664 32.9098 16.056C32.8667 16.3147 32.8237 16.5302 32.802 16.7025V16.7242C32.759 17.0043 32.7373 17.1983 32.6297 17.5215C32.5435 17.8017 32.3925 18.2543 32.0262 18.7285C31.7245 19.1163 31.2288 19.7845 30.5607 19.8707C30.496 19.8707 30.3883 19.8707 30.3237 19.8492C28.427 18.8793 26.8107 18.1682 26.2503 18.0172C25.6038 17.8233 25.69 16.4009 25.7547 15.1509C25.7978 14.5905 25.8193 14.0517 25.7978 13.5991C25.7115 12.0043 25.4313 10.2802 24.052 9.43965C23.2332 8.94397 22.1555 8.7931 21.1425 8.7931C21.3365 8.70688 21.5305 8.57758 21.7675 8.44827C22.371 8.10343 23.1038 7.6724 23.8582 7.5862C24.0952 7.56465 24.3322 7.5431 24.5693 7.5C26.0563 7.32758 27.3495 7.17672 28.7072 7.65085C29.3322 7.86637 30.5822 8.55603 30.9055 9.22413C31.1425 9.67672 31.5305 10.0431 32.2848 10.7543C32.6943 11.1207 32.953 11.3362 33.1468 11.5086C33.427 11.7241 33.4702 11.7888 33.5563 11.9397C33.815 12.4569 33.7288 12.9957 33.5995 13.75Z" fill="white"/>
<path d="M26.7242 20.2802C26.8105 20.3017 26.8535 20.4095 26.7888 20.4957C26.595 20.7973 26.3578 21.2283 26.0777 21.724C25.9483 21.9612 25.819 22.1982 25.7113 22.3707C25.345 22.9957 25.3233 23.5345 25.3018 23.9438C25.2803 24.3965 25.2587 24.5905 24.9785 24.7628C24.763 24.9137 24.526 24.9568 22.9742 25.1938C22.694 25.237 22.5863 25.2802 22.4785 25.3448C22.457 25.3663 22.4138 25.3663 22.3923 25.3878C22.3062 25.431 22.22 25.3448 22.22 25.2585C22.2415 25.043 22.2415 24.7628 22.2415 24.3965V24.3318C22.2415 24.0302 22.2415 23.7715 22.22 23.5775C22.1983 23.1897 22.1983 23.0172 22.3062 22.8448C22.4355 22.6293 22.5432 22.5647 22.694 22.4568C22.9312 22.306 23.2543 22.112 23.707 21.4655C23.9657 21.1207 24.0087 20.9267 24.0518 20.7758C24.0733 20.7112 24.0733 20.6897 24.2673 20.5387C24.4613 20.3878 25.0863 19.9137 25.8837 20.043C26.1423 20.0862 26.4225 20.1723 26.7242 20.2802Z" fill="white"/>
<path d="M20.539 27.4355C20.4958 27.4785 20.4743 27.5002 20.4097 27.5002C20.2372 27.5002 20.1295 27.457 20.0648 27.3708C19.914 27.1768 19.9355 26.7888 19.957 26.5518L20.6252 26.3793C20.6683 26.7458 20.6898 27.2415 20.539 27.4355Z" fill="white"/>
<path d="M20.5823 25.0645C20.5607 25.1508 20.5607 25.2585 20.5607 25.3878C20.5607 25.431 20.5607 25.474 20.5607 25.5172C20.5607 25.625 20.5607 25.7973 20.5607 25.8835C20.3452 25.9482 20.1728 25.9482 19.9573 25.9482C19.9573 25.8835 19.9573 25.7758 19.9573 25.7112C19.9573 25.668 19.9573 25.6033 19.9573 25.5603C19.9573 25.4957 19.9573 25.4525 19.9573 25.3878C19.9573 25.2585 19.9573 25.0645 19.9788 25C20.0435 25 20.1082 24.9783 20.1728 24.9568C20.3022 24.9353 20.496 24.8922 20.6038 24.9137C20.6038 24.9568 20.6038 25.0215 20.5823 25.0645Z" fill="white"/>
<path d="M19.3753 27.2413C19.3537 27.5862 19.246 27.9957 18.9227 28.0603C18.7718 28.082 18.7072 28.0388 18.664 27.9957C18.4485 27.8018 18.427 27.1983 18.4485 26.7673C18.5995 26.7673 18.7718 26.7457 18.9873 26.7027C19.1167 26.681 19.246 26.638 19.3537 26.6163C19.3753 26.7888 19.3968 27.0043 19.3753 27.2413Z" fill="white"/>
<path d="M19.2243 26.0345L18.5132 26.2932C18.5563 26.013 18.5993 25.625 18.621 25.3665C18.6425 25.194 18.6857 25.1293 18.7072 25.1078C18.7072 25.1078 18.7287 25.0862 18.7503 25.0862C18.7503 25.0862 18.7503 25.0862 18.7718 25.0862H18.7933L19.246 25.0647C19.2243 25.2802 19.2243 25.7543 19.2243 26.0345Z" fill="white"/>
<path d="M18.0605 25.819C18.0173 25.9268 17.9743 26.2285 17.9527 26.444L17.0692 26.4225C17.1122 26.1423 17.1983 25.8622 17.263 25.6467C17.3493 25.4312 17.414 25.2587 17.5002 25.2155C17.5863 25.1725 17.7803 25.151 17.9097 25.2587C18.1035 25.388 18.1467 25.582 18.0605 25.819Z" fill="white"/>
<path d="M17.7373 28.5562C17.6727 28.6423 17.5865 28.707 17.5002 28.707C17.3925 28.7285 17.3278 28.6853 17.2632 28.6423C16.983 28.3837 17.0045 27.5432 17.0262 27.1337C17.3925 27.0475 17.802 26.9828 17.9958 26.9613C17.9958 27.2845 18.0175 28.1682 17.7373 28.5562Z" fill="white"/>
<path d="M16.5737 26.3793C16.5306 26.487 16.4875 26.5948 16.466 26.7025C16.3582 26.7457 16.035 26.7025 15.7117 26.6378L15.9272 25.237C16.2936 25.1293 16.7247 25.1077 16.8108 25.2155C16.9617 25.3663 16.6815 26.0775 16.5737 26.3793Z" fill="white"/>
<path d="M16.164 28.7502C15.9915 28.9657 15.7329 29.0733 15.3665 29.0518C15.1079 29.0518 15.0217 28.944 14.9786 28.8793C14.7846 28.5562 14.9786 27.8018 15.1726 27.3277L16.3795 27.3923C16.401 27.4785 16.401 27.5863 16.401 27.694C16.4226 28.0605 16.3795 28.4915 16.164 28.7502Z" fill="white"/>
<path d="M26.164 18.556C25.0648 18.2542 25.1727 16.6594 25.2588 15.1077C25.2803 14.5689 25.3235 14.0516 25.302 13.6206C25.2157 12.1766 24.9787 10.6034 23.8148 9.89217C22.5648 9.13787 20.5175 9.31028 19.2675 9.46113C18.8148 9.59045 18.3838 9.6982 18.039 9.67665C17.3062 9.63355 16.7243 9.33183 16.2071 9.05165C15.8192 8.83613 15.4743 8.64217 15.1295 8.64217C15.108 8.64217 15.0864 8.64217 15.0864 8.64217C14.1166 8.70683 13.664 8.9439 13.2545 9.31028C13.1468 9.39648 13.0174 9.6551 12.608 10.8404C12.3924 11.4439 12.3709 11.7672 12.3278 12.0689C12.2847 12.3491 12.2631 12.6508 12.1123 13.1034C12.0045 13.4051 11.9183 13.6637 11.8537 13.9223C11.6597 14.5904 11.4873 15.1292 11.0131 15.7758C10.9485 15.8405 10.8838 15.9698 10.7976 16.0775C10.6899 16.2499 10.5605 16.4654 10.3666 16.7025C10.2373 16.875 9.9571 17.5215 9.97867 17.7155C10.0002 18.0387 10.108 18.2327 10.2157 18.4482C10.3235 18.6637 10.4743 18.9223 10.4959 19.2887V19.3533C10.539 19.9137 10.4528 20.1938 9.39677 21.1422C8.72865 21.7457 8.23297 22.3275 7.9097 22.7585C7.88813 22.8017 7.9097 22.8448 7.97435 22.8448C7.9959 22.8448 7.9959 22.8448 7.9959 22.8448C8.01745 22.8448 8.039 22.8448 8.06055 22.8448C8.0821 22.8448 8.10367 22.8448 8.12522 22.8448C8.14677 22.8448 8.16832 22.8448 8.18987 22.8448C8.44848 22.8663 8.7071 22.974 8.87952 23.168C8.90107 23.2112 8.96573 23.2112 9.00883 23.1897C9.18125 23.125 9.37522 23.125 9.54762 23.1465C9.76313 23.168 10.0002 23.2327 10.1511 23.3835C10.1942 23.4267 10.2588 23.4482 10.3235 23.4267C10.4959 23.3835 10.6899 23.3835 10.8623 23.4482C10.9916 23.4913 11.1209 23.5775 11.2071 23.6853C11.2718 23.75 11.3795 23.7715 11.4657 23.7283C11.5088 23.7068 11.5735 23.6637 11.6381 23.6422C11.8752 23.556 12.1338 23.599 12.3493 23.6853C12.4571 23.7283 12.5649 23.75 12.6726 23.8362C12.845 23.9655 12.9743 24.1378 13.039 24.3318C13.0821 24.4397 13.233 24.4827 13.3192 24.3965C13.4916 24.2672 13.6209 24.2457 13.7502 24.2887C13.8149 24.3103 13.858 24.3533 13.9011 24.418C13.9657 24.5042 14.0735 24.5905 14.1597 24.5473C14.5261 24.4397 14.9571 24.5042 15.2804 24.6767C15.3881 24.7413 15.5174 24.8275 15.5821 24.9568V24.8922C15.5821 24.8707 15.6036 24.849 15.6252 24.8275L15.6899 24.806C15.8623 24.7413 16.7675 24.4827 17.1123 24.849C17.1338 24.8707 17.1553 24.8707 17.177 24.849C17.22 24.806 17.2632 24.7628 17.2847 24.7628C17.5218 24.6335 17.9097 24.612 18.1683 24.849C18.2115 24.8922 18.2977 24.8707 18.3407 24.8275C18.3623 24.7843 18.3838 24.7628 18.427 24.7413C18.5132 24.6552 18.6425 24.6335 18.7718 24.6335L19.2675 24.612C19.3968 24.612 19.7847 24.5688 19.8925 24.5473H19.914C19.9572 24.5473 20.0218 24.5258 20.0863 24.5042C20.3235 24.4612 20.6037 24.3965 20.8192 24.5042C21.0347 24.612 21.0132 24.849 20.9917 25.0647C20.9917 25.1508 20.97 25.237 20.97 25.3232C20.97 25.3663 20.97 25.4093 20.97 25.4525C20.97 25.6465 20.97 25.8188 20.9485 25.9482L20.97 26.056C20.97 26.056 20.97 26.056 20.97 26.0775C20.9917 26.1637 21.0993 26.2283 21.164 26.1637C21.3363 26.056 21.5088 25.9267 21.5735 25.8405V25.8188C21.5735 25.7973 21.595 25.7542 21.6167 25.668C21.6382 25.474 21.6812 25.1077 21.6812 24.3533C21.6812 24.3103 21.6812 24.2887 21.6812 24.2672C21.6812 23.987 21.6812 23.75 21.6597 23.556C21.6382 23.1465 21.6167 22.8232 21.8322 22.5C22.026 22.1767 22.22 22.0688 22.414 21.9397C22.6295 21.8103 22.8667 21.6593 23.276 21.099C23.47 20.8188 23.4917 20.7112 23.5132 20.625C23.5562 20.4093 23.6208 20.2802 23.9442 20.0647C24.2028 19.8707 24.9572 19.2887 25.9917 19.4612C26.3365 19.5258 26.8752 19.6982 27.4355 19.9137C27.4572 19.9137 27.4787 19.9353 27.5002 19.9353H27.5218C28.0175 20.1292 28.47 20.3448 28.7933 20.5172C28.858 20.5603 28.9442 20.5387 29.0088 20.474C29.1167 20.3448 29.2243 20.2802 29.3322 20.1938C29.3752 20.1723 29.4183 20.1508 29.4398 20.1292C29.4615 20.1292 29.4613 20.1077 29.4613 20.1077C29.5477 20.043 29.5477 19.8707 29.4398 19.8275C27.9958 19.1163 26.6167 18.6853 26.164 18.556ZM15.7761 18.8792C15.4312 20.3448 13.1468 21.9827 12.1123 21.9827H12.0907C12.0692 21.9827 12.0476 21.9827 12.0476 21.9827C12.0261 21.9827 12.0045 21.9827 11.983 21.9612C11.9614 21.9612 11.9614 21.9612 11.9399 21.9612C11.7459 21.8965 11.4873 21.7672 11.2933 21.5732C11.164 21.4438 11.0562 21.2715 11.0131 21.1207C11.0131 21.099 10.9916 21.056 10.9916 21.0343C10.9269 20.7758 10.8623 20.474 11.0778 19.9568C11.0993 19.8922 11.1424 19.8275 11.164 19.7628C11.164 19.7413 11.1855 19.7198 11.1855 19.6982C11.2071 19.6335 11.2287 19.5905 11.2502 19.5473C11.2718 19.4612 11.3149 19.3965 11.3364 19.3533C11.3364 19.3318 11.358 19.3103 11.358 19.2887C11.4226 19.1163 11.4226 19.0517 11.4442 18.987C11.4442 18.9438 11.4657 18.8577 11.4873 18.7715C11.5519 18.4913 11.595 18.2542 11.6166 18.0603C11.6597 17.6938 11.7243 17.3707 11.9183 17.0688C11.9614 17.0258 11.983 16.9827 12.0261 16.9397C12.0476 16.918 12.0476 16.918 12.0692 16.8965C12.0907 16.875 12.0907 16.875 12.1123 16.8533C12.1554 16.8103 12.22 16.7887 12.2631 16.7672C12.2847 16.7672 12.3062 16.7457 12.3278 16.7457C12.3709 16.724 12.414 16.724 12.4571 16.7025C12.6511 16.6594 12.8666 16.6594 13.1252 16.681C13.4054 16.7025 13.664 16.7457 13.8795 16.8103C14.0735 16.8533 14.2459 16.918 14.3752 16.9827C14.3968 16.9827 14.3968 17.0042 14.4183 17.0042C14.4399 17.0258 14.4614 17.0258 14.5045 17.0473C14.5476 17.0688 14.5692 17.0688 14.6123 17.0905C14.6554 17.112 14.6985 17.1335 14.7416 17.1552L14.7847 17.1767C14.9355 17.2413 15.0864 17.3275 15.1942 17.4137C15.2588 17.4568 15.3019 17.5 15.345 17.543C15.3666 17.5647 15.3881 17.5647 15.3881 17.5862C15.4097 17.6077 15.4097 17.6077 15.4312 17.6292C15.8838 18.0172 15.8623 18.556 15.7761 18.8792ZM16.8537 13.2973L16.8105 13.556C16.7028 14.1594 16.4657 14.9784 15.6037 15.1939C14.7631 15.3879 14.5692 15.431 13.9873 15.4741C13.9657 15.4741 13.9657 15.4741 13.9442 15.4741C13.5131 15.4741 12.6726 15.1939 12.5218 14.5258C12.4355 14.0947 12.6295 13.7715 12.9312 13.2542C12.9743 13.168 13.039 13.0818 13.1037 12.9741C13.5347 12.2629 13.6856 11.7456 13.8149 11.3361C13.9442 10.9266 14.0519 10.6034 14.3321 10.3232C14.3968 10.2585 14.4614 10.1939 14.5476 10.1508C14.5907 10.1077 14.6554 10.0861 14.72 10.043C14.8062 9.99993 14.8924 9.97838 14.9787 9.93527C15.1726 9.87062 15.3881 9.84907 15.5821 9.84907C15.9916 9.84907 16.4011 9.95683 16.6812 10.1939C16.8105 10.3017 17.0045 10.4956 17.1123 11.1206C17.1553 11.4439 17.0692 12.0258 16.8537 13.2973ZM23.039 15.0215C22.7373 15.5387 22.5865 15.8189 22.3278 16.0344C21.8105 16.4655 21.2287 16.5517 20.733 16.5517C20.3882 16.5517 20.0865 16.487 19.8925 16.4654C19.3752 16.3792 18.4485 16.2068 18.1252 15.4525C18.0605 15.3017 18.0605 15.2154 18.0605 15.0861C18.0605 14.9784 18.0605 14.7629 17.9958 14.3103V14.2887C17.9743 14.0732 17.9528 13.8361 17.9958 13.5344V13.4913C18.1683 12.5861 18.233 12.4568 18.2545 12.3706C18.3407 12.1982 18.5562 12.112 18.7502 12.2197C18.9227 12.306 18.9873 12.5215 18.9227 12.6939C18.901 12.737 18.858 12.931 18.7072 13.6422V13.6853C18.664 13.8792 18.6855 14.0301 18.7072 14.2241V14.2456C18.7718 14.7629 18.7718 14.9784 18.7718 15.1077C18.7718 15.1292 18.7718 15.1508 18.7718 15.1723V15.1939C18.8363 15.3447 18.9657 15.431 19.1167 15.5172C19.2243 15.5603 19.3322 15.4741 19.3105 15.3663C19.1597 14.5689 19.1597 13.6422 19.4615 13.0603C19.5692 12.8663 19.7417 12.5646 19.914 12.2629C19.9355 12.2413 19.9572 12.1982 19.9572 12.1767C19.9787 12.1551 19.9787 12.1335 20.0002 12.112C20.0865 11.9827 20.151 11.8749 20.2157 11.7672C20.2157 11.7456 20.2373 11.7456 20.2373 11.7241L20.2588 11.7025C20.2803 11.681 20.2803 11.6594 20.302 11.6379C20.302 11.6379 20.302 11.6163 20.3235 11.6163L20.345 11.5947C20.345 11.5732 20.3667 11.5732 20.3667 11.5517C20.4312 11.4655 20.4958 11.3792 20.539 11.293C20.6252 11.1853 20.5175 11.056 20.4097 11.0991C20.108 11.2284 19.914 11.3792 19.8708 11.4008C19.72 11.5301 19.483 11.5085 19.3537 11.3361C19.2243 11.1853 19.2458 10.9482 19.4183 10.8189C19.6123 10.668 20.6037 9.95683 21.789 10.2801C22.651 10.5172 23.0822 11.1853 23.2545 11.4223C23.3838 11.6163 23.8148 12.2198 23.7933 13.0818C23.7933 13.7068 23.5347 14.181 23.039 15.0215Z" fill="white"/>
<path d="M15.3236 10.6034C15.259 10.7543 15.1943 10.9267 15.1081 11.1207C14.9357 11.5733 14.7202 12.0905 14.6124 12.2845C14.44 12.6077 14.3107 12.8233 14.2029 12.9741C14.0736 13.1681 13.9874 13.3189 13.9012 13.5345C13.7719 13.9008 13.7504 14.3103 13.8366 14.7629C13.5995 14.7414 13.2331 14.5905 13.19 14.375C13.1685 14.2241 13.2547 14.0733 13.5133 13.6207C13.5564 13.5345 13.621 13.4267 13.6857 13.3405C14.1383 12.5646 14.3323 11.9827 14.4616 11.5517C14.6124 11.0991 14.6771 10.9051 14.9141 10.7327C15.065 10.6681 15.1943 10.625 15.3236 10.6034Z" fill="white"/>
<path d="M14.8709 26.8965C14.6123 27.4138 14.3106 27.8878 14.1166 28.125C13.9442 27.694 13.664 26.681 13.7502 25.8837C13.7502 25.862 13.7502 25.8405 13.7502 25.819C13.7718 25.5603 13.8364 25.3448 13.9657 25.1508C14.052 25.0215 14.2675 24.9568 14.5045 24.9568C14.677 24.9568 14.8709 25 15.0433 25.0862C15.1295 25.1293 15.2589 25.237 15.2589 25.5172C15.302 25.9052 15.108 26.4223 14.8709 26.8965Z" fill="white"/>
<path d="M28.6642 21.1423C28.6857 21.1638 28.6857 21.1853 28.6857 21.207C28.6212 21.3578 28.5133 21.4655 28.4055 21.5948C28.2763 21.7457 28.1253 21.9182 27.996 22.1983C27.8022 22.5863 27.7375 22.9312 27.7158 23.8363C27.6728 24.8923 27.7158 25.4742 27.759 25.9052C27.7805 26.3147 27.8022 26.5733 27.7375 26.9828C27.5867 27.8018 27.2418 28.3405 26.7892 29.0302C26.2288 29.8923 25.6685 30.776 24.7202 31.0562C24.634 31.0777 24.634 31.0777 24.3753 31.0777C24.1598 31.0777 23.7935 31.0777 23.1253 31.0992C21.8753 31.1423 21.2503 31.1638 20.7332 31.2717C20.1728 31.3793 19.8927 31.5087 19.5908 31.6165C19.3323 31.7242 19.0952 31.8103 18.6427 31.9182C18.3625 31.9828 17.953 32.026 16.5521 32.0475C15.0866 32.0475 14.203 32.0475 13.0607 31.9182C11.4659 31.7457 10.6685 31.638 10.1297 31.3578C8.8797 30.6897 8.34092 29.4828 7.47884 27.5C7.47884 27.4785 7.5004 27.457 7.52195 27.457C7.56505 27.4785 7.60815 27.5 7.65125 27.5217C7.69435 27.5432 7.73747 27.5432 7.75902 27.5432C7.84522 27.5647 7.93144 27.5647 8.01764 27.5432C8.03919 27.5432 8.03919 27.5432 8.06074 27.5217C8.08229 27.5217 8.10384 27.5217 8.10384 27.5432C8.1685 27.694 8.2547 27.8233 8.40557 27.9095C8.55644 27.9957 8.72884 27.9957 8.8797 27.9957C9.05212 27.9957 9.22454 27.9742 9.39695 27.9527C9.48315 27.9527 9.56935 27.9957 9.61247 28.0603C9.76332 28.4483 9.95729 28.707 10.259 28.75C10.2806 28.75 10.3021 28.75 10.3237 28.75C10.3883 28.75 10.4961 28.7285 10.6254 28.6423C10.7332 28.5562 10.9056 28.6207 10.9918 28.7285C11.0564 28.8363 11.1426 28.901 11.2288 28.9655C11.5306 29.2673 12.2633 29.4182 12.8668 29.4182C13.1901 29.4182 13.4918 29.375 13.6642 29.2888C13.9228 29.1595 13.9228 28.9872 13.9013 28.901C13.8797 28.7717 13.8582 28.6207 13.8366 28.4915C13.8366 28.4698 13.8582 28.4698 13.8582 28.4915C13.9013 28.5777 13.9444 28.6638 14.0521 28.6853C14.0737 28.6853 14.0737 28.6853 14.0952 28.6853C14.2676 28.6853 14.5263 28.75 14.5694 28.901C14.5909 28.9872 14.634 29.0518 14.6771 29.138C14.7849 29.2888 14.9788 29.4828 15.3883 29.5043H15.4099C15.884 29.5043 16.2504 29.3535 16.4875 29.0518C16.509 29.0302 16.509 29.0087 16.5306 28.9872C16.6168 28.8578 16.8753 28.8578 16.9832 28.9655C17.1125 29.0733 17.2633 29.138 17.4357 29.138C17.4573 29.138 17.5003 29.138 17.522 29.138C17.7375 29.1165 17.9098 29.0087 18.0607 28.8147C18.147 28.6853 18.2117 28.5345 18.2547 28.3622C18.2763 28.319 18.3408 28.2975 18.384 28.3405C18.4702 28.4268 18.621 28.513 18.8367 28.513C18.8797 28.513 18.9443 28.513 19.009 28.4915C19.4185 28.4052 19.634 28.0603 19.7202 27.694C19.7202 27.6725 19.7418 27.6725 19.7418 27.694C19.8495 27.8233 20.0435 27.9742 20.3668 27.9742C20.3883 27.9742 20.4098 27.9742 20.4098 27.9742C20.5823 27.9742 20.7332 27.888 20.8408 27.7587C20.9702 27.5863 21.0133 27.3277 21.0348 27.0905C21.0348 27.026 21.078 26.9613 21.1642 26.9182C21.509 26.7673 21.94 26.444 22.0693 26.2285C22.0693 26.2285 22.0693 26.207 22.0908 26.207C22.1125 26.1423 22.1772 26.0992 22.2202 26.0992C22.5003 26.0562 22.6082 25.9915 22.7158 25.9483C22.8022 25.9052 22.8668 25.8837 23.0823 25.8405C24.6555 25.6035 24.9573 25.5388 25.3022 25.3233C25.8193 24.9785 25.8408 24.5043 25.8625 24.0518C25.884 23.6638 25.9055 23.2328 26.2073 22.7155C26.315 22.5217 26.4443 22.3062 26.5737 22.0475C26.8107 21.6165 27.134 21.013 27.371 20.6897C27.4142 20.625 27.5003 20.6035 27.565 20.6467C28.1038 20.8405 28.578 21.0562 28.6642 21.1423Z" fill="white"/>
<path d="M13.3624 25.8405C13.2978 26.3793 13.2547 27.1122 13.3409 28.0603C13.3624 28.319 13.4055 28.5992 13.4486 28.8793C13.384 28.9225 13.1469 28.9872 12.759 28.9655C12.1986 28.944 11.6383 28.8147 11.4659 28.6207L11.4443 28.5992C11.315 28.4913 11.2073 28.4052 11.2073 28.2112C11.2073 28.1465 11.2288 28.082 11.2935 27.9742C11.3366 27.931 11.3797 27.8663 11.4228 27.7802C11.509 27.6508 11.6383 27.5 11.7676 27.2845C12.134 26.681 12.2633 26.4872 12.4357 26.25C12.4573 26.2285 12.4573 26.207 12.4788 26.1853C12.5866 26.056 12.6943 25.8837 12.8883 25.6035C13.0176 25.4095 13.1254 25.2372 13.2331 25.1078C13.384 24.8923 13.4917 24.7845 13.5564 24.7198C13.5564 24.806 13.5349 24.9353 13.5133 25.0647C13.4271 25.3233 13.384 25.5603 13.3624 25.8405Z" fill="white"/>
<path d="M13.0821 17.3492C13.0821 17.3708 13.0821 17.3708 13.0821 17.3492C12.9959 17.457 12.9097 17.5863 12.8019 17.8018C12.5218 18.4052 12.5218 18.75 12.5218 19.0302C12.5218 19.1812 12.5218 19.2888 12.4787 19.4182C12.4571 19.5043 12.414 19.6122 12.3493 19.7198C12.1985 20.0863 11.983 20.5605 12.0692 21.207C11.9399 21.1423 11.7459 20.9915 11.7028 20.9268C11.7028 20.8837 11.6812 20.8622 11.6812 20.819C11.6381 20.625 11.6166 20.4958 11.7243 20.194C12.0692 19.4182 12.1123 19.2242 12.1338 19.0087C12.1338 18.9657 12.1554 18.9225 12.1554 18.8578C12.22 18.5562 12.2631 18.2975 12.2847 18.082C12.3278 17.7587 12.3709 17.5432 12.4787 17.3923C12.5218 17.3277 12.6295 17.3062 12.7804 17.3062C12.845 17.3062 12.9097 17.3062 12.9959 17.3277H13.0174C13.0821 17.3492 13.0821 17.3492 13.0821 17.3492Z" fill="white"/>
<path d="M12.6513 25.0432C12.6298 24.8492 12.6082 24.6768 12.522 24.4828C12.522 24.4828 12.5004 24.4397 12.5004 24.4182C12.4789 24.3967 12.4789 24.375 12.4573 24.3535L12.4358 24.332C12.4142 24.3103 12.4142 24.3103 12.3927 24.3103L12.3711 24.2888C12.3496 24.2888 12.3496 24.2673 12.328 24.2673H12.3065C12.1987 24.2242 12.091 24.1812 11.9616 24.1595C11.9401 24.1595 11.9185 24.1595 11.9185 24.1595C11.897 24.1595 11.897 24.1595 11.8754 24.1595H11.8539C11.8323 24.1595 11.8108 24.1812 11.7677 24.1812C11.7461 24.1812 11.7461 24.2027 11.7246 24.2027L11.703 24.2242C11.6815 24.2458 11.6815 24.2458 11.6599 24.2673L11.6384 24.2888V24.3103C11.5953 24.375 11.5522 24.4397 11.5091 24.5043C11.4013 24.6552 11.2935 24.8277 11.1858 24.9785C11.078 25.1293 10.9918 25.2587 10.8841 25.4095C10.8194 25.4958 10.7763 25.5603 10.7116 25.6467C10.7116 25.6682 10.6901 25.6682 10.6901 25.6897C10.7548 25.7113 10.8194 25.7113 10.8841 25.7328C11.0349 25.7543 11.1858 25.776 11.3151 25.7975C11.6168 25.8405 11.9401 25.8622 12.2418 25.8405C12.2634 25.8405 12.2634 25.8405 12.2849 25.8405C12.3496 25.7328 12.4573 25.6035 12.5651 25.4312C12.6298 25.3448 12.6944 25.2587 12.7375 25.1725C12.6729 25.151 12.6513 25.0863 12.6513 25.0432Z" fill="white"/>
<path d="M11.5519 26.3147C11.5304 26.5518 11.2717 27.1552 10.8623 27.7372C10.5174 28.2113 10.3019 28.3405 10.2588 28.3405C10.0864 28.319 9.93554 27.9095 9.80622 27.5C9.76312 27.3277 9.69847 27.1768 9.6769 27.026C9.5907 26.7242 9.56915 26.2932 9.5907 26.0345C9.93554 26.2285 10.539 26.2717 11.4011 26.2717C11.4442 26.2932 11.5088 26.2932 11.5519 26.3147Z" fill="white"/>
<path d="M10.9486 24.3748C10.7978 24.612 10.6469 24.8275 10.496 25.043C10.4098 25.1508 10.3452 25.2585 10.259 25.3663C10.2159 25.431 10.1512 25.4957 10.1081 25.5603C9.97881 25.5387 9.87105 25.4957 9.74175 25.474C9.63398 25.4525 9.54778 25.4093 9.44001 25.3663C9.41846 25.3663 9.39691 25.3447 9.37536 25.3447C9.35381 25.3232 9.33226 25.28 9.31071 25.2585C9.35381 25.1938 9.37536 25.1077 9.41846 25.043C9.48311 24.9137 9.54778 24.7843 9.63398 24.655C9.7633 24.4395 9.91415 24.2025 10.1512 24.0517C10.1728 24.0517 10.1728 24.03 10.1943 24.03C10.2805 23.987 10.3667 23.9438 10.4745 23.9223C10.496 23.9223 10.5607 23.9223 10.6038 23.9223H10.6254C10.6254 23.9223 10.6254 23.9223 10.6469 23.9223C10.6685 23.9223 10.69 23.9438 10.7331 23.9438C10.7331 23.9438 10.7547 23.9438 10.7547 23.9655C10.7762 23.987 10.7978 23.987 10.8193 24.0085C10.7762 23.987 10.8624 24.0732 10.8624 24.0517C10.9055 24.181 10.9271 24.2457 10.9486 24.3748Z" fill="white"/>
<path d="M9.78459 23.75C9.50442 23.9657 9.31045 24.2673 9.15959 24.5907C9.07337 24.763 8.98717 24.9355 8.90097 25.1078C8.90097 25.1293 8.87942 25.151 8.87942 25.151C8.7932 25.1293 8.707 25.1078 8.64234 25.0863C8.55614 25.0647 8.46994 25.0217 8.38372 25C8.34062 24.9785 8.31907 24.957 8.27597 24.9355C8.36217 24.7845 8.44837 24.6337 8.55614 24.4828C8.68545 24.2888 8.8363 24.0733 8.98717 23.901C9.05182 23.8363 9.11649 23.75 9.18114 23.707C9.26734 23.6638 9.35355 23.6638 9.4613 23.6855C9.56907 23.6855 9.67682 23.6855 9.76304 23.7285C9.74149 23.7285 9.76304 23.75 9.78459 23.75Z" fill="white"/>
<path d="M9.35387 27.4138C9.33232 27.4353 9.33232 27.4353 9.31077 27.457H9.28922C9.22455 27.457 9.1599 27.4785 9.09525 27.4785C8.96593 27.4785 8.83663 27.5 8.70732 27.4785C8.64267 27.4785 8.578 27.457 8.5349 27.4138C8.4918 27.3492 8.47025 27.2198 8.4487 27.1337C8.36248 26.6595 8.36248 26.1853 8.40558 25.7113C8.64267 25.7975 8.90128 25.8622 9.1599 25.9052C9.09525 26.3363 9.203 26.9613 9.24612 27.1337C9.31077 27.2198 9.33232 27.3277 9.35387 27.4138Z" fill="white"/>
<path d="M8.57783 23.5992C8.36232 23.8577 8.16835 24.1378 7.99595 24.4397C7.93128 24.5473 7.84508 24.6767 7.78042 24.806C7.69422 24.7845 7.60802 24.7413 7.54335 24.6983C7.4787 24.6552 7.41405 24.612 7.37095 24.569C7.34938 24.5473 7.30628 24.5258 7.28473 24.5043C7.28473 24.5043 7.26318 24.5043 7.26318 24.4827C7.28473 24.4182 7.32783 24.375 7.32783 24.3318C7.37095 24.2242 7.41405 24.1378 7.4787 24.0517C7.58647 23.8793 7.69422 23.7068 7.82353 23.5345C7.86663 23.4698 7.90973 23.4052 7.99595 23.3837C8.0606 23.362 8.1468 23.3837 8.21147 23.3837C8.34077 23.4052 8.47008 23.4913 8.57783 23.5992Z" fill="white"/>
<path d="M6.91836 24.7413C6.93993 24.7198 6.91836 24.7198 6.91836 24.7413C7.00458 24.8275 7.06923 24.8922 7.15545 24.9568C7.19855 24.9783 7.2201 25.0215 7.2632 25.043C7.2632 25.043 7.2632 25.043 7.2632 25.0645C7.177 25.431 7.11233 25.8188 7.11233 26.2068C7.11233 26.2283 7.09078 26.2283 7.09078 26.2068C6.98303 25.7542 6.85371 25.0215 6.91836 24.7413Z" fill="white"/>
<path d="M7.97443 25.5388C7.93133 25.8622 7.90978 26.1853 7.93133 26.5087C7.93133 26.681 7.95288 26.8535 7.97443 27.0475C7.93133 27.0475 7.88823 27.0475 7.84513 27.0475H7.82358H7.80203C7.75892 27.0258 7.75892 27.0258 7.71582 27.0043C7.67272 26.9828 7.62962 26.9182 7.58652 26.8535C7.5003 26.7027 7.47875 26.5302 7.47875 26.3578C7.4572 26.0345 7.5003 25.6897 7.56495 25.3663C7.60807 25.388 7.67272 25.4095 7.73737 25.431C7.82358 25.4742 7.88823 25.5173 7.97443 25.5388Z" fill="white"/>
<mask id="mask1_2_43" style="mask-type:luminance" maskUnits="userSpaceOnUse" x="0" y="0" width="40" height="40">
<path d="M40 20C40 8.94397 31.0345 0 20 0C8.94397 0 0 8.94397 0 20C0 31.0345 8.94397 40 20 40C31.0345 40 40 31.0345 40 20Z" fill="white"/>
</mask>
<g mask="url(#mask1_2_43)">
<g opacity="0.8">
<path opacity="0.8" d="M16.4662 42.349C15.0006 42.349 13.6213 42.2628 12.4575 42.1767L12.1343 42.1552L11.811 42.112C11.6601 42.0905 11.4877 42.0688 11.2937 42.0473C10.173 41.918 8.08252 41.7025 5.77648 40.625L5.41012 40.4525L5.08683 40.2585C0.64718 37.7585 -0.990752 34.0302 -1.89592 32.0258C-1.96058 31.8965 -2.02523 31.7457 -2.08988 31.5948C-2.54248 30.668 -2.82265 29.849 -3.05972 29.0732L-3.10282 28.9008L-3.14592 28.7283C-3.79248 26.4438 -3.94333 24.4827 -3.66317 22.5215C-3.36143 20.5603 -2.65023 18.793 -1.37868 16.918L-0.732132 15.862C-0.60282 15.6465 -0.516613 15.4094 -0.451958 15.1723C0.0437309 12.7154 1.16442 10.9698 1.72477 10.1292C1.87563 9.1163 2.13425 8.12492 2.47908 7.1551L2.52218 7.00424L2.58683 6.85337C2.58683 6.83182 2.60838 6.78872 2.62993 6.72407C2.88857 5.96975 3.47045 4.22407 4.95752 2.37062L5.51787 1.72407L6.09977 1.20682C7.56528 -0.129385 9.33252 -1.12076 11.2291 -1.68111C12.2851 -2.00438 13.3843 -2.19835 14.5049 -2.263H14.6127H14.7636C14.9575 -2.263 15.1515 -2.28456 15.3239 -2.28456C16.0136 -2.28456 16.7032 -2.2199 17.3928 -2.11215C17.8238 -2.04748 18.255 -2.0906 18.6645 -2.263C19.8498 -2.7587 21.0782 -3.08196 22.3498 -3.25438C22.4575 -3.27593 22.5437 -3.27593 22.63 -3.29748C22.8238 -3.31905 23.1472 -3.36215 23.5352 -3.40525C24.2032 -3.4699 25.2377 -3.55611 26.3368 -3.55611C28.5135 -3.55611 30.3885 -3.27593 32.0697 -2.69405L32.2205 -2.65093L32.3498 -2.60783C36.0567 -1.20697 37.9317 0.754236 39.2895 2.45682L39.354 2.54304L39.548 2.71544C40.7765 3.66372 41.811 4.84907 42.63 6.16372L42.8885 6.5732L43.104 7.00424C44.9145 10.6896 44.3325 14.1163 44.117 15.3879L44.0955 15.4525C43.9447 16.4008 43.686 17.3275 43.3627 18.2327C43.2333 19.0947 43.0395 19.9568 42.7592 20.7758C42.2852 22.2413 41.5738 23.6422 40.6687 24.8922C40.1515 25.625 39.548 26.3362 38.9015 26.9612C38.6645 27.1767 38.5135 27.4783 38.4705 27.8017C38.4488 27.9957 38.4058 28.1895 38.3842 28.3835C37.8455 31.2283 36.617 33.2112 36.0998 34.0085L34.5697 36.2068C32.7162 38.5128 30.5178 40.0215 27.867 40.8405L27.2205 41.0343L26.5308 41.1637C25.7333 41.3145 24.936 41.3792 24.117 41.3792C24.0092 41.3792 23.9015 41.3792 23.7722 41.3792H23.729H23.5998H23.4488C23.1472 41.3792 22.8455 41.4438 22.5437 41.5302C20.7765 42.0905 18.8368 42.349 16.4662 42.349Z" stroke="url(#paint1_linear_2_43)" stroke-width="0.136474" stroke-miterlimit="10"/>
<path opacity="0.8" d="M16.4663 40.8188C15.0655 40.8188 13.7077 40.7327 12.587 40.6463L12.3284 40.6248L12.0698 40.5817C11.8974 40.5602 11.7034 40.5387 11.5094 40.5172C10.4103 40.4093 8.59996 40.1938 6.57409 39.2455L6.27238 39.0947L5.99219 38.9438C2.04823 36.7672 0.604269 33.5128 -0.257799 31.5732C-0.322454 31.4438 -0.387109 31.2713 -0.473317 31.1205C-0.882799 30.3015 -1.14142 29.5257 -1.35694 28.836L-1.40004 28.6852L-1.44314 28.5558C-2.00349 26.5085 -2.15436 24.7843 -1.89572 23.0817C-1.63711 21.4007 -0.990557 19.8275 0.130132 18.1895L0.970649 16.8317C1.12151 16.5947 1.22927 16.3145 1.27237 16.0343C1.68186 13.7068 2.78099 12.0688 3.27668 11.3145L3.34134 11.2283L3.36289 11.1852C3.36289 11.1636 3.38444 11.1421 3.38444 11.1205C3.40599 11.0128 3.44909 10.9266 3.47064 10.8404C3.59996 9.89209 3.83703 8.94382 4.16031 8.03864L4.20341 7.90934L4.24651 7.78002C4.26806 7.73692 4.26806 7.69382 4.31116 7.5645C4.54823 6.8533 5.04393 5.36622 6.33703 3.7714L6.81116 3.21105L7.28531 2.78002C8.55686 1.61623 10.087 0.754159 11.725 0.280021C12.6732 -0.000152017 13.6215 -0.172566 14.6129 -0.215669H14.6991H14.8284C15.0008 -0.215669 15.1517 -0.237221 15.3025 -0.237221C16.0137 -0.237221 16.7033 -0.431186 17.393 -0.301876C17.9318 -0.194118 18.4707 -0.258772 18.9663 -0.474289C19.893 -0.883772 21.143 -1.03463 22.5655 -1.2286C22.6732 -1.25015 22.7595 -1.25015 22.8242 -1.2717C23.018 -1.29326 23.3198 -1.33636 23.6647 -1.35791C24.2897 -1.42257 25.2595 -1.48722 26.3155 -1.48722C28.2982 -1.48722 29.9793 -1.2286 31.4663 -0.732911L31.5957 -0.689807L31.7033 -0.646704C34.9793 0.603296 36.5957 2.24122 37.8672 3.8576C37.9318 3.94382 38.018 4.03002 38.0397 4.07312L38.0612 4.09467L38.2982 4.31019L38.3198 4.3533C39.419 5.19382 40.3457 6.2283 41.0568 7.39209L41.2723 7.73692L41.4448 8.1033C42.9965 11.2714 42.5223 14.1809 42.3068 15.4093L42.2853 15.474C42.1345 16.3792 41.8973 17.2412 41.5742 18.1033C41.4663 18.9223 41.2723 19.7412 41.0138 20.5172C40.5827 21.8102 39.9577 23.0387 39.1603 24.1593C38.6215 24.9352 37.975 25.6463 37.2853 26.2713C36.962 26.5732 36.7465 26.961 36.7033 27.4137C36.6603 27.7368 36.6172 28.0387 36.5742 28.3618C36.1 30.8835 35.0223 32.6077 34.5052 33.3835L33.2552 35.1938C31.5957 37.3275 29.6345 38.7067 27.2638 39.4395L26.725 39.6118L26.143 39.7197C25.4533 39.849 24.7422 39.9137 24.0525 39.8922C23.9448 39.8922 23.837 39.8922 23.7293 39.8922H23.7077H23.643C23.643 39.8922 23.6215 39.8922 23.5783 39.8922H23.4492H23.3198H23.0827C22.7595 39.9137 22.4362 39.9567 22.1128 40.0645C20.5397 40.5817 18.7077 40.8188 16.4663 40.8188Z" stroke="url(#paint2_linear_2_43)" stroke-width="0.136474" stroke-miterlimit="10"/>
<path opacity="0.8" d="M16.4661 39.0302C15.1299 39.0302 13.8153 38.944 12.7161 38.8578L12.5006 38.8362L12.2851 38.8147C12.0911 38.7932 11.8756 38.7715 11.6601 38.75C10.6256 38.6422 9.05233 38.4698 7.2851 37.6293L7.04803 37.5215L6.83252 37.3922C3.44888 35.4957 2.19888 32.694 1.37993 30.8405C1.31527 30.6897 1.22906 30.4957 1.16441 30.3448C0.798029 29.612 0.56096 28.9223 0.366994 28.2758L0.32389 28.1682L0.302339 28.0603C-0.193351 26.2932 -0.322661 24.7845 -0.107144 23.362C0.108374 21.9182 0.690271 20.5603 1.68165 19.1163L1.81097 18.944L1.94027 18.7715C2.02648 18.6638 2.09113 18.556 2.17733 18.4698L2.67303 17.5432C2.84545 17.2413 2.9532 16.9182 2.9963 16.5733C3.31958 14.5043 4.31097 13.0172 4.76355 12.3276C4.7851 12.2845 4.8282 12.2414 4.84975 12.2198L4.95752 12.069C5.00062 11.9828 5.04372 11.875 5.08682 11.7457C5.12992 11.6164 5.19458 11.4224 5.23768 11.25C5.34545 10.3664 5.56097 9.5043 5.86268 8.66379L5.90578 8.55604L5.94888 8.44827C5.97045 8.36207 6.01355 8.2974 6.05665 8.14655C6.27217 7.47844 6.68165 6.25 7.78078 4.91379L8.14717 4.4612L8.5351 4.11637C9.61268 3.125 10.9058 2.41379 12.3067 1.98275C13.1256 1.74569 13.9446 1.59482 14.8067 1.55172H14.8713H14.9791C15.1084 1.55172 15.2377 1.55172 15.3886 1.55172C16.1213 1.55172 16.8325 1.63793 17.5437 1.83189C18.1472 1.98275 18.7937 1.9181 19.354 1.63793C20.2592 1.20689 21.4662 0.732755 22.867 0.560341C22.9532 0.53879 23.0393 0.53879 23.104 0.517238C23.2765 0.495686 23.5567 0.452583 23.9015 0.43103C24.4833 0.366375 25.4102 0.30172 26.38 0.30172C28.1472 0.30172 29.6342 0.517238 30.9488 0.969823L31.0352 1.01293L31.1213 1.05603C34.1385 2.19827 35.4748 3.68534 36.5092 5C36.7463 5.28017 36.7678 5.32327 36.9187 5.47414L37.1127 5.64655L37.1773 5.73275C37.673 6.12069 38.686 6.9181 39.5695 8.36207L39.742 8.64224L39.8928 8.9224C41.2075 11.5733 40.798 13.9871 40.604 15.1509L40.5825 15.2155C40.4532 16.056 40.2162 16.8965 39.8713 17.694V17.7587C39.7852 18.513 39.6127 19.2672 39.3757 19.9785C39.0092 21.1207 38.4705 22.1767 37.7592 23.1465C37.1773 23.987 36.4662 24.7413 35.6687 25.388C35.4748 25.5388 35.3238 25.7328 35.2162 25.9483C35.1083 26.1638 35.0437 26.4008 35.0222 26.638C35.0007 27.112 34.936 27.5862 34.8498 28.0603C34.4403 30.237 33.492 31.7457 33.0178 32.5L32.048 33.9223C30.604 35.862 28.88 37.112 26.7893 37.7587L26.3583 37.888L25.8842 37.9742C25.3023 38.0818 24.6988 38.125 24.0955 38.125C24.0092 38.125 23.9015 38.125 23.7937 38.125H23.7722H23.6643C23.6428 38.125 23.5998 38.125 23.492 38.125H23.3842H23.298L22.8023 38.1465C22.4575 38.1682 22.1127 38.2112 21.7893 38.3405C20.3023 38.8147 18.5998 39.0302 16.4661 39.0302Z" stroke="url(#paint3_linear_2_43)" stroke-width="0.12794" stroke-miterlimit="10"/>
<path opacity="0.8" d="M16.466 37.2413C15.1945 37.2413 13.9229 37.1552 12.8669 37.069L12.716 37.0473L12.5651 37.0258C12.3496 37.0043 12.1126 36.9612 11.897 36.9397C10.9272 36.8318 9.59102 36.681 8.0824 35.9913L7.90998 35.9052L7.73756 35.819C4.87118 34.2025 3.81515 31.8318 3.0393 30.1077C2.95308 29.9353 2.86688 29.7413 2.80222 29.569C2.47895 28.9008 2.26343 28.2758 2.09102 27.737L2.06947 27.6508L2.00482 27.5862C1.16429 24.612 1.48757 22.5215 3.1255 20.1293L3.2117 20L3.29792 19.8707C3.40567 19.7413 3.51343 19.5905 3.62118 19.4612C3.77205 19.2672 3.92292 19.0517 4.09533 18.8577C4.20308 18.7285 4.2893 18.5775 4.35395 18.4267L4.54792 17.9525C4.63412 17.737 4.67722 17.5215 4.69878 17.306C4.87118 15.3879 5.79791 14.0086 6.2505 13.319C6.2936 13.2758 6.3367 13.1896 6.35826 13.1681L6.46602 12.9957L6.50911 12.9526C6.57378 12.8448 6.68153 12.5862 6.76775 12.3276C6.81085 12.1552 6.89705 11.875 6.98326 11.6379V11.6164C7.06946 10.819 7.26343 10.0215 7.5436 9.26722L7.56515 9.20257L7.5867 9.13792C7.62982 9.0086 7.67292 8.90083 7.71602 8.74998C7.90998 8.16808 8.23326 7.1767 9.11688 6.07757L9.39705 5.73273L9.67722 5.47412C11.7677 3.57757 14.0953 3.4267 14.8712 3.36205H14.9143H15.0005C15.1083 3.36205 15.216 3.36205 15.3238 3.36205C16.2505 3.36205 17.1557 3.55602 18.0177 3.9224C18.1687 3.98705 18.341 4.0086 18.4918 4.0086C18.6643 4.0086 18.8152 3.9655 18.966 3.87928C19.7635 3.4267 21.2073 2.58618 23.0608 2.37067C23.147 2.34912 23.2333 2.34912 23.2978 2.34912C23.4703 2.32757 23.729 2.30602 24.0307 2.26292C24.591 2.2198 25.4315 2.15515 26.3367 2.15515C27.91 2.15515 29.2032 2.34912 30.3022 2.7155L30.3668 2.73705L30.4315 2.7586C33.0177 3.72843 34.1168 4.95688 35.0437 6.12067C35.2807 6.44395 35.41 6.57325 35.6687 6.83189L35.8195 6.96119L35.9272 7.0905L36.0135 7.15515C36.4445 7.49998 37.2635 8.12499 37.9962 9.31032L38.1255 9.52583L38.2333 9.74135C39.2893 11.8965 38.9445 13.8362 38.772 14.8707V14.9353C38.6427 15.6896 38.4272 16.444 38.1255 17.1552L38.104 17.2198C38.104 17.2413 38.104 17.2413 38.0823 17.2845C38.0608 17.3492 38.0608 17.4138 38.0608 17.4785L38.0393 17.5647C37.9747 18.2112 37.8238 18.8362 37.6083 19.4397C37.285 20.4095 36.8323 21.3147 36.229 22.1337C35.647 22.9742 34.979 23.6638 34.2462 24.2025C33.9228 24.4397 33.6643 24.7413 33.4703 25.1077C33.2763 25.4742 33.1902 25.862 33.1902 26.2715C33.1902 26.7672 33.1255 27.2845 33.0393 27.7802C32.6945 29.6337 31.9187 30.8837 31.4228 31.6378L30.7117 32.694C29.4617 34.4397 27.9747 35.5603 26.1858 36.1207L26.0997 36.1422C25.9488 36.1853 25.7978 36.2285 25.647 36.25L25.5393 36.2715C25.0437 36.3577 24.5478 36.4008 24.0522 36.4008C23.966 36.4008 23.8798 36.4008 23.7937 36.4008H23.772C23.729 36.4008 23.6858 36.4008 23.6427 36.4008C23.5997 36.4008 23.5135 36.4008 23.341 36.4008H23.2763H23.2117C22.9747 36.4008 22.6728 36.4223 22.4143 36.4223C22.0478 36.444 21.7032 36.5087 21.3583 36.6378C20.0652 37.0258 18.4918 37.2413 16.466 37.2413Z" stroke="url(#paint4_linear_2_43)" stroke-width="0.119418" stroke-miterlimit="10"/>
<path opacity="0.8" d="M16.466 35.4525C15.2375 35.4525 14.0306 35.3663 12.9962 35.28H12.8884L12.7806 35.2585C12.5436 35.2155 12.285 35.1938 12.0479 35.1723C11.1427 35.0645 10.022 34.9568 8.81513 34.3748L8.68583 34.3103L8.57807 34.2457C6.22893 32.931 5.34532 30.9482 4.65565 29.3533C4.56945 29.1593 4.48323 28.9655 4.39703 28.7498C4.11687 28.1895 3.9229 27.6292 3.77203 27.155L3.75048 27.0905L3.72893 27.0258C3.03928 24.5688 3.27635 23.0172 4.61255 21.0775L4.6772 20.9913L4.74187 20.905C4.84962 20.7542 4.95738 20.6248 5.06513 20.474C5.40997 20.0215 5.7548 19.5688 6.25048 19.03C6.35823 18.9223 6.4229 18.7498 6.44445 18.599L6.466 18.1033L6.44445 17.9093V17.7155C6.48755 16.1206 7.28497 14.9353 7.716 14.2887C7.7591 14.2241 7.82377 14.1378 7.84532 14.0947L7.90997 13.987L7.97462 13.9008C8.06083 13.7715 8.2548 13.3189 8.4272 12.9094C8.49187 12.737 8.57807 12.3922 8.68583 12.112C8.70738 12.0258 8.70738 12.0042 8.72893 11.8103C8.79358 11.1422 8.966 10.4741 9.18152 9.84905L9.20307 9.80595L9.22462 9.76283C9.28928 9.59043 9.33238 9.46112 9.39703 9.2887C9.56945 8.77147 9.82807 8.01715 10.4962 7.17663L10.6901 6.93957L10.8841 6.76715C12.3496 5.4525 13.9229 5.19387 15.0005 5.12922H15.0436H15.0867C15.1729 5.12922 15.2376 5.12922 15.3238 5.12922C16.2289 5.12922 17.328 5.56025 17.91 5.84043C18.0393 5.90508 18.1902 5.94818 18.341 5.94818C18.4918 5.94818 18.6427 5.92663 18.7937 5.88353C19.16 5.75422 19.5048 5.60335 19.828 5.43095C20.5608 4.99992 21.7677 4.31025 23.2763 4.13783C23.3625 4.11628 23.4272 4.11628 23.4918 4.11628C23.6427 4.09473 23.8798 4.07318 24.1815 4.03008C24.6988 3.98698 25.4747 3.92232 26.3152 3.92232C27.6728 3.92232 28.7937 4.07318 29.6988 4.39647L29.7418 4.41802L29.785 4.43957C31.9402 5.25853 32.8022 6.18525 33.6212 7.24128C33.8798 7.58612 34.0738 7.82318 34.4617 8.16802L34.5478 8.25422L34.6342 8.34043C34.7203 8.42663 34.8065 8.49128 34.8927 8.55595C35.2592 8.83612 35.8842 9.3318 36.4228 10.237L36.5092 10.3663L36.5738 10.5172C37.3712 12.1335 37.1125 13.6637 36.9617 14.5689V14.6335C36.854 15.2585 36.6815 15.862 36.4228 16.4439C36.3582 16.5947 36.3152 16.7457 36.272 16.918C36.2505 17.0258 36.229 17.1335 36.229 17.2197L36.2073 17.306C36.1427 17.8232 36.035 18.3405 35.8625 18.8362C35.604 19.6335 35.216 20.3878 34.7418 21.056C34.0092 22.0905 33.1687 22.8232 32.1557 23.2973C31.9187 23.405 31.703 23.5775 31.5522 23.8145C31.4013 24.03 31.3152 24.3103 31.2937 24.5688C31.2937 24.6767 31.2937 24.7628 31.2937 24.8275C31.3367 25.6033 31.4013 26.487 31.229 27.4137C30.9488 28.9223 30.3022 29.9353 29.828 30.6895C29.828 30.6895 27.6298 33.7498 25.6255 34.3748L25.41 34.4395L25.1728 34.4827C24.785 34.5473 24.397 34.5905 23.9875 34.5905C23.9228 34.5905 23.8367 34.5905 23.7505 34.5905C23.7073 34.5905 23.6427 34.5905 23.578 34.5905C23.4918 34.5905 23.3625 34.5905 23.1687 34.612H23.1255H23.0823C22.3065 34.6335 21.5953 34.655 21.3798 34.6982C21.272 34.7197 21.1643 34.7413 21.0565 34.7843C20.0005 35.237 18.5133 35.4525 16.466 35.4525Z" stroke="url(#paint5_linear_2_43)" stroke-width="0.110884" stroke-miterlimit="10"/>
<path opacity="0.8" d="M16.4661 33.6852C15.3023 33.6852 14.1385 33.599 13.1471 33.5343H13.104H13.0609C12.7807 33.4912 12.5221 33.4697 12.285 33.4482C11.4445 33.362 10.5609 33.2542 9.61262 32.8232L9.54795 32.8017L9.4833 32.78C7.6514 31.7455 6.96175 30.2153 6.3152 28.7283C6.22899 28.5128 6.12124 28.2973 6.01347 28.0818C5.79795 27.6507 5.62554 27.1767 5.49624 26.724V26.7025V26.6808C4.93589 24.7197 5.08675 23.7283 6.12124 22.2197L6.14279 22.1767L6.16434 22.1335C6.29365 21.9827 6.4014 21.8318 6.50917 21.7025C7.00485 21.0558 7.43589 20.4955 8.40572 19.5903C8.47037 19.5257 8.53502 19.4395 8.55657 19.3318C8.57814 19.2455 8.57814 19.1378 8.53502 19.0517L8.36262 18.5558C8.3195 18.405 8.29795 18.2327 8.29795 18.0818V17.9525V17.8447C8.34105 16.7672 8.9014 15.9266 9.26779 15.3663C9.33244 15.28 9.37554 15.1938 9.41865 15.1292L9.46175 15.0645L9.50485 14.9999C9.69882 14.7413 10.0221 13.9869 10.1945 13.5344C10.2376 13.3835 10.3454 13.0171 10.4531 12.7369C10.5178 12.5214 10.5609 12.3059 10.5824 12.0904C10.6471 11.5516 10.7549 11.0128 10.9488 10.5171V10.4956V10.474C11.035 10.2585 11.0997 10.0861 11.1428 9.91367C11.2937 9.46107 11.4661 8.94384 11.9402 8.36194L12.0264 8.25419L12.1126 8.16797C13.1471 7.2197 14.2893 7.04729 15.1514 6.98264H15.173H15.1945C15.2376 6.98264 15.3023 6.98264 15.3454 6.98264C16.2074 6.98264 16.854 7.32745 17.285 7.56452L17.3928 7.60764H17.4143C17.5437 7.67229 17.6298 7.73694 17.7377 7.78004C17.9962 7.90935 18.3195 7.95245 18.5997 7.86625C19.2032 7.71539 20.1298 7.349 20.7333 7.00419H20.7548C21.4013 6.61625 22.3928 6.0559 23.5565 5.92659C23.6212 5.90504 23.7075 5.90504 23.7722 5.90504C23.9013 5.88349 24.1385 5.86194 24.3972 5.84039C24.8712 5.79729 25.604 5.73264 26.3583 5.73264C27.5222 5.73264 28.4488 5.86194 29.16 6.099H29.1815H29.2032C30.9273 6.74555 31.5738 7.43522 32.2635 8.34039C32.5437 8.70677 32.8238 9.05159 33.341 9.50419L33.3842 9.54729L33.4273 9.59039C33.5565 9.7197 33.7075 9.849 33.8798 9.97832C34.1815 10.2154 34.6127 10.5387 34.979 11.1637L35.0222 11.2283L35.0652 11.293C35.604 12.4137 35.4315 13.4697 35.3023 14.2671V14.3318C35.216 14.8275 35.0867 15.3016 34.8712 15.7757C34.7635 16.0344 34.6773 16.3145 34.6342 16.5947C34.6127 16.7672 34.591 16.8965 34.5695 17.0042L34.548 17.0903C34.5048 17.4998 34.4187 17.8878 34.2893 18.2757C34.0953 18.9007 33.7937 19.4827 33.4057 20.0215C32.7592 20.9697 32.0263 21.5517 31.0565 21.8533C30.5825 22.0042 30.1945 22.3058 29.9358 22.7153L29.8497 22.8232L29.7635 22.9308C29.5263 23.211 29.591 24.2887 29.6342 24.9352C29.6773 25.6465 29.7203 26.3792 29.591 27.0688C29.3755 28.2542 28.8583 29.0517 28.4057 29.7412C28.4057 29.7412 26.7247 32.1767 25.1945 32.6292L25.0867 32.6723L24.979 32.6938C24.6988 32.737 24.3972 32.78 24.0953 32.78C24.0307 32.78 23.966 32.78 23.8798 32.78C23.8152 32.78 23.7505 32.78 23.6643 32.78C23.5565 32.78 23.4057 32.78 23.1472 32.8017H23.1255H23.104C22.091 32.8447 21.466 32.8662 21.1212 32.9308C20.8842 32.974 20.6687 33.0387 20.4532 33.1248C19.5263 33.4912 18.2763 33.6852 16.4661 33.6852Z" stroke="url(#paint6_linear_2_43)" stroke-width="0.110884" stroke-miterlimit="10"/>
</g>
</g>
</g>
</g>
<defs>
<radialGradient id="paint0_radial_2_43" cx="0" cy="0" r="1" gradientUnits="userSpaceOnUse" gradientTransform="translate(20.0008 22.0895) rotate(90) scale(22.4667)">
<stop offset="0.1667" stop-color="#073183"/>
<stop offset="1" stop-color="#0054F9"/>
</radialGradient>
<linearGradient id="paint1_linear_2_43" x1="-2.80028" y1="-4.49681" x2="43.0247" y2="43.5992" gradientUnits="userSpaceOnUse">
<stop offset="0.2057" stop-color="#89D0FF"/>
<stop offset="0.3984" stop-color="#EBBF9A"/>
<stop offset="0.6015" stop-color="#EB8280"/>
<stop offset="0.8411" stop-color="#A281FF"/>
</linearGradient>
<linearGradient id="paint2_linear_2_43" x1="-1.0231" y1="-2.42746" x2="41.2225" y2="42.093" gradientUnits="userSpaceOnUse">
<stop offset="0.2057" stop-color="#89D0FF"/>
<stop offset="0.3984" stop-color="#EBBF9A"/>
<stop offset="0.6015" stop-color="#EB80DA"/>
<stop offset="0.8411" stop-color="#A281FF"/>
</linearGradient>
<linearGradient id="paint3_linear_2_43" x1="0.771414" y1="-0.638023" x2="39.4368" y2="40.3063" gradientUnits="userSpaceOnUse">
<stop offset="0.2057" stop-color="#89D0FF"/>
<stop offset="0.3984" stop-color="#EBBF9A"/>
<stop offset="0.6015" stop-color="#EB8280"/>
<stop offset="0.8411" stop-color="#A281FF"/>
</linearGradient>
<linearGradient id="paint4_linear_2_43" x1="2.56357" y1="1.15746" x2="37.6408" y2="38.5143" gradientUnits="userSpaceOnUse">
<stop offset="0.2057" stop-color="#89D0FF"/>
<stop offset="0.3984" stop-color="#EBBF9A"/>
<stop offset="0.6015" stop-color="#EB80E7"/>
<stop offset="0.8411" stop-color="#A281FF"/>
</linearGradient>
<linearGradient id="paint5_linear_2_43" x1="4.34535" y1="2.95633" x2="35.8413" y2="36.7232" gradientUnits="userSpaceOnUse">
<stop offset="0.2057" stop-color="#89D0FF"/>
<stop offset="0.3984" stop-color="#EBBF9A"/>
<stop offset="0.6015" stop-color="#EB80D3"/>
<stop offset="0.8411" stop-color="#A281FF"/>
</linearGradient>
<linearGradient id="paint6_linear_2_43" x1="6.15037" y1="4.7336" x2="34.062" y2="34.924" gradientUnits="userSpaceOnUse">
<stop offset="0.2057" stop-color="#89D0FF"/>
<stop offset="0.3984" stop-color="#EBBF9A"/>
<stop offset="0.6015" stop-color="#A280EB"/>
<stop offset="0.8411" stop-color="#A281FF"/>
</linearGradient>
<clipPath id="clip0_2_43">
<rect width="40" height="40" fill="white"/>
</clipPath>
</defs>
</svg>
