<svg width="96" height="97" viewBox="0 0 96 97" fill="none" xmlns="http://www.w3.org/2000/svg">
<g clip-path="url(#clip0_409_209)">
<path d="M94.556 59.6039C92.2636 68.8181 87.2899 77.1453 80.2641 83.5324C73.2383 89.9194 64.4761 94.0792 55.0858 95.4857C45.6955 96.8921 36.099 95.4819 27.5102 91.4335C18.9215 87.3851 11.7264 80.8804 6.83504 72.7421C1.94371 64.6039 -0.424088 55.1978 0.0311737 45.7137C0.486435 36.2295 3.7443 27.0935 9.39266 19.4612C15.041 11.8289 22.8261 6.04324 31.7631 2.83612C40.7002 -0.370997 50.3876 -0.855503 59.6 1.44389C71.9454 4.52525 82.5621 12.3823 89.1169 23.2881C95.6717 34.194 97.628 47.2562 94.556 59.6039Z" fill="#2D374B"/>
<path d="M57.18 44.5999L63.18 34.4439L79.312 59.5679V64.3879L79.2359 31.2159C79.2183 30.8142 79.1041 30.4226 78.9028 30.0744C78.7016 29.7262 78.4193 29.4318 78.08 29.2159L49.04 12.5119C48.6937 12.3453 48.3143 12.2588 47.93 12.2588C47.5456 12.2588 47.1663 12.3453 46.82 12.5119C46.7302 12.5571 46.6434 12.6079 46.56 12.6639L46.46 12.728L18.284 29.0799L18.176 29.1279C18.0354 29.1968 17.9015 29.2785 17.776 29.3719C17.4742 29.5887 17.2243 29.8698 17.0444 30.1949C16.8646 30.5201 16.7592 30.8811 16.736 31.2519L16.78 58.2879L31.804 34.9999C32.971 33.5528 34.4853 32.4245 36.2058 31.7202C37.9264 31.0159 39.7971 30.7585 41.644 30.9719L46.136 31.0919L19.66 73.5199L22.78 75.3159L49.556 31.1319L61.392 31.0879L34.684 76.3879L45.812 82.7879L47.14 83.5519C47.7133 83.7802 48.3499 83.793 48.932 83.5879L78.38 66.5239L72.748 69.7879L57.18 44.5999ZM59.464 77.4839L48.224 59.8439L55.084 48.2L69.848 71.4679L59.464 77.4839Z" fill="#2D374B"/>
<path d="M48.224 59.844L59.464 77.484L69.864 71.484L55.1 48.2161L48.224 59.844Z" fill="#28A0F0"/>
<path d="M79.3041 64.392V59.572L63.172 34.448L57.172 44.604L72.744 69.804L78.3761 66.54C78.6484 66.3189 78.871 66.0429 79.0295 65.73C79.1881 65.4171 79.2789 65.0743 79.296 64.724L79.3041 64.392Z" fill="#28A0F0"/>
<path d="M11.708 68.936L19.66 73.516L46.116 31.084L41.624 30.964C39.7772 30.7505 37.9064 31.008 36.1858 31.7123C34.4653 32.4166 32.951 33.5448 31.784 34.992L16.76 58.28L11.704 66.048L11.708 68.936Z" fill="white"/>
<path d="M61.384 31.0881L49.548 31.1321L22.776 75.3161L32.136 80.7041L34.68 76.3881L61.384 31.0881Z" fill="white"/>
<path d="M84.288 31.0279C84.2335 29.8065 83.8827 28.6167 83.266 27.561C82.6493 26.5052 81.7852 25.6153 80.748 24.9679L51.328 8.04794C50.2775 7.5315 49.1225 7.26294 47.952 7.26294C46.7814 7.26294 45.6265 7.5315 44.576 8.04794C44.332 8.17194 15.964 24.6239 15.964 24.6239C14.7443 25.2095 13.705 26.1129 12.9554 27.2391C12.2057 28.3654 11.7734 29.6728 11.704 31.0239V66.0639L16.76 58.2959L16.716 31.2599C16.722 31.162 16.734 31.0644 16.752 30.9679C16.8633 30.3234 17.224 29.7486 17.756 29.3679C17.888 29.2719 46.74 12.5679 46.832 12.5279C47.1783 12.3613 47.5577 12.2748 47.942 12.2748C48.3263 12.2748 48.7057 12.3613 49.052 12.5279L78.092 29.2319C78.4313 29.4478 78.7136 29.7422 78.9148 30.0904C79.1161 30.4386 79.2304 30.8302 79.248 31.2319V64.7239C79.2408 65.071 79.1596 65.4124 79.01 65.7256C78.8603 66.0388 78.6455 66.3164 78.38 66.5399L72.748 69.8039L69.844 71.4879L59.444 77.4879L48.932 83.5959C48.3499 83.801 47.7133 83.7882 47.14 83.5599L34.68 76.3959L32.136 80.7119L43.336 87.1599L44.308 87.7079C44.708 87.9439 45.012 88.1079 45.108 88.1479C46.0446 88.5586 47.0573 88.7672 48.08 88.7599C49.0235 88.7605 49.9586 88.5828 50.836 88.2359L81.42 70.5239C82.2823 69.8526 82.9871 69.0004 83.4846 68.0274C83.9822 67.0543 84.2605 65.9841 84.3 64.8919L84.288 31.0279Z" fill="#96BEDC"/>
<g clip-path="url(#clip1_409_209)">
<path d="M94.556 59.6039C92.2636 68.8181 87.2899 77.1453 80.2641 83.5324C73.2383 89.9194 64.4761 94.0793 55.0858 95.4857C45.6955 96.8921 36.099 95.4819 27.5102 91.4335C18.9215 87.3851 11.7264 80.8804 6.83504 72.7421C1.94371 64.6039 -0.424088 55.1978 0.0311737 45.7137C0.486435 36.2295 3.7443 27.0935 9.39266 19.4612C15.041 11.8289 22.8261 6.04324 31.7631 2.83612C40.7002 -0.370996 50.3876 -0.855503 59.6 1.44389C71.9454 4.52525 82.5621 12.3823 89.1169 23.2881C95.6717 34.194 97.628 47.2562 94.556 59.6039Z" fill="#2D374B"/>
<path d="M14.624 32.036V63.98C14.6244 64.9817 14.8885 65.9656 15.3899 66.8328C15.8913 67.7 16.6121 68.4199 17.48 68.92L45.144 84.896C46.0115 85.3955 46.995 85.6583 47.996 85.6583C48.997 85.6583 49.9805 85.3955 50.848 84.896L78.512 68.92C79.3799 68.4199 80.1008 67.7 80.6022 66.8328C81.1035 65.9656 81.3677 64.9817 81.368 63.98V32.036C81.3677 31.0343 81.1035 30.0504 80.6022 29.1832C80.1008 28.316 79.3799 27.5961 78.512 27.096L50.848 11.12C49.9805 10.6205 48.997 10.3577 47.996 10.3577C46.995 10.3577 46.0115 10.6205 45.144 11.12L17.472 27.096C16.6051 27.5965 15.8854 28.3167 15.3854 29.184C14.8854 30.0512 14.6228 31.0349 14.624 32.036Z" fill="#213147"/>
<path d="M54.028 54.2039L50.084 65.0039C49.9772 65.3054 49.9772 65.6344 50.084 65.9359L56.884 84.5519L64.736 80.0199L55.312 54.1879C55.2648 54.057 55.1785 53.9439 55.0646 53.8639C54.9508 53.7839 54.8151 53.741 54.676 53.741C54.5369 53.741 54.4011 53.7839 54.2873 53.8639C54.1735 53.9439 54.0871 54.057 54.04 54.1879L54.028 54.2039Z" fill="#12AAFF"/>
<path d="M61.94 36.0079C61.8929 35.8771 61.8065 35.7639 61.6927 35.6839C61.5788 35.604 61.4431 35.561 61.304 35.561C61.1649 35.561 61.0292 35.604 60.9153 35.6839C60.8015 35.7639 60.7151 35.8771 60.668 36.0079L56.72 46.8079C56.6145 47.1083 56.6145 47.4356 56.72 47.736L67.84 78.216L75.692 73.6839L61.936 35.9879L61.94 36.0079Z" fill="#12AAFF"/>
<path d="M48.004 12.316C48.1999 12.3188 48.3922 12.3696 48.564 12.464L78.5 29.748C78.6694 29.8467 78.8102 29.9879 78.9084 30.1577C79.0066 30.3274 79.0589 30.5198 79.06 30.716V65.268C79.0597 65.4642 79.0077 65.657 78.9095 65.8269C78.8112 65.9967 78.67 66.1378 78.5 66.236L48.564 83.52C48.3938 83.6182 48.2005 83.6693 48.004 83.668C47.808 83.6651 47.6158 83.6143 47.444 83.52L17.508 66.248C17.3386 66.1492 17.1978 66.008 17.0996 65.8382C17.0014 65.6685 16.9491 65.4761 16.948 65.28V30.708C16.9479 30.5116 16.9997 30.3187 17.098 30.1488C17.1963 29.9788 17.3377 29.8378 17.508 29.74L47.444 12.456C47.6138 12.3559 47.8069 12.3021 48.004 12.3M48.004 7.25196C46.9197 7.251 45.8544 7.53664 44.916 8.07996L14.984 25.36C14.0452 25.902 13.2656 26.6815 12.7236 27.6203C12.1815 28.559 11.8961 29.6239 11.896 30.708V65.272C11.8961 66.356 12.1815 67.4209 12.7236 68.3596C13.2656 69.2984 14.0452 70.0779 14.984 70.62L44.92 87.904C45.8593 88.445 46.924 88.7305 48.008 88.732C49.0924 88.7339 50.158 88.4482 51.096 87.904L81.032 70.62C81.9708 70.0779 82.7504 69.2984 83.2924 68.3596C83.8345 67.4209 84.1199 66.356 84.12 65.272V30.708C84.1199 29.6239 83.8345 28.559 83.2924 27.6203C82.7504 26.6815 81.9708 25.902 81.032 25.36L51.088 8.07996C50.1492 7.54291 49.0855 7.26284 48.004 7.26796V7.25196Z" fill="#9DCCED"/>
<path d="M28.192 78.2801L30.948 70.7361L36.492 75.3441L31.292 80.0801L28.192 78.2801Z" fill="#213147"/>
<path d="M45.472 28.252H37.872C37.5944 28.251 37.3232 28.3357 37.0955 28.4946C36.8678 28.6536 36.6948 28.879 36.6 29.14L20.332 73.74L28.184 78.272L46.1 29.156C46.1373 29.0546 46.1496 28.9457 46.1359 28.8386C46.1222 28.7315 46.0829 28.6293 46.0212 28.5406C45.9596 28.4519 45.8775 28.3793 45.7819 28.3291C45.6863 28.2788 45.58 28.2524 45.472 28.252Z" fill="white"/>
<path d="M58.7521 28.252H51.1521C50.8745 28.2515 50.6036 28.3365 50.376 28.4954C50.1485 28.6542 49.9753 28.8793 49.8801 29.14L31.3041 80.068L39.1561 84.6L59.3761 29.16C59.4131 29.0587 59.4254 28.95 59.4118 28.843C59.3983 28.7361 59.3594 28.6339 59.2983 28.545C59.2372 28.4561 59.1558 28.3832 59.0607 28.3322C58.9657 28.2812 58.8599 28.2537 58.7521 28.252Z" fill="white"/>
</g>
</g>
<defs>
<clipPath id="clip0_409_209">
<rect width="96" height="96.012" fill="white"/>
</clipPath>
<clipPath id="clip1_409_209">
<rect width="96" height="96.012" fill="white"/>
</clipPath>
</defs>
</svg>
