<svg width="40" height="40" fill="none" xmlns="http://www.w3.org/2000/svg"><g clip-path="url(#a)"><path d="M39.3984 24.835a20.00067 20.00067 0 0 1-5.955 9.9702 19.99976 19.99976 0 0 1-10.491 4.9805 19.99958 19.99958 0 0 1-11.4898-1.6884A19.99983 19.99983 0 0 1 .013 19.0474 20.00008 20.00008 0 0 1 13.2346 1.18176a20.0003 20.0003 0 0 1 11.5988-.5801c5.1438 1.2839 9.5675 4.55767 12.2986 9.10177 2.7312 4.54407 3.5464 9.98667 2.2664 15.13157Z" fill="#2D374B"/><path d="m23.8251 18.5834 2.5-4.2317 6.7216 10.4684v2.0083l-.0316-13.8217a1.04187 1.04187 0 0 0-.1389-.4756 1.04054 1.04054 0 0 0-.3428-.3577l-12.1-6.96001a1.0668 1.0668 0 0 0-.925 0 .99589.99589 0 0 0-.1083.06333l-.0417.02667L7.61839 12.1167l-.045.02a1.0645 1.0645 0 0 0-.16667.1017 1.04457 1.04457 0 0 0-.3048.3429 1.04508 1.04508 0 0 0-.12853.4404l.01833 11.265 6.25998-9.7033a4.59053 4.59053 0 0 1 1.8341-1.3666 4.59004 4.59004 0 0 1 2.2659-.3117l1.8717.05L8.19172 30.6334l1.3.7483 11.15668-18.41 4.9317-.0183-11.1284 18.875 4.6367 2.6667.5533.3183c.2389.0951.5042.1004.7467.015l12.27-7.11-2.3467 1.36-6.4866-10.495Zm.9516 13.7017-4.6833-7.35 2.8583-4.8517 6.1517 9.695-4.3267 2.5067Z" fill="#2D374B"/><path d="m20.0934 24.9351 4.6833 7.35 4.3333-2.5-6.1516-9.695-2.865 4.845ZM33.0434 26.8299v-2.0083l-6.7217-10.4683-2.5 4.2316 6.4883 10.5 2.3467-1.36c.1135-.0921.2062-.2071.2723-.3374.066-.1304.1039-.2732.111-.4192l.0034-.1384Z" fill="#28A0F0"/><path d="m4.87837 28.7234 3.31334 1.9083 11.02329-17.68-1.8716-.05a4.59009 4.59009 0 0 0-2.2659.3118 4.58869 4.58869 0 0 0-1.8341 1.3665l-6.26002 9.7034L4.87671 27.52l.00166 1.2034ZM25.5767 12.9534l-4.9317.0183-11.15501 18.41 3.90001 2.245 1.06-1.7983 11.1267-18.875Z" fill="#fff"/><path d="M35.12 12.9285a3.14089 3.14089 0 0 0-.4258-1.4446 3.14008 3.14008 0 0 0-1.0492-1.0804L21.3867 3.35345a3.18833 3.18833 0 0 0-2.8133 0c-.1017.05167-11.92169 6.90665-11.92169 6.90665a3.13673 3.13673 0 0 0-1.775 2.6667v14.6l2.10667-3.2367-.01834-11.265a1.0005 1.0005 0 0 1 .015-.1216 1.03672 1.03672 0 0 1 .41834-.6667c.055-.04 12.07662-7.00002 12.11502-7.01668a1.06648 1.06648 0 0 1 .4625-.10549c.1601 0 .3182.03606.4625.10549l12.1 6.95998c.1414.0899.259.2126.3428.3577.0839.1451.1315.3082.1388.4757v13.9549a1.0179 1.0179 0 0 1-.0991.4174 1.01694 1.01694 0 0 1-.2625.3393l-2.3467 1.36-1.21.7017-4.3333 2.5-4.38 2.545a1.06372 1.06372 0 0 1-.7467-.015l-5.1917-2.985-1.06 1.7983 4.6667 2.6867.405.2283c.1667.0983.2933.1667.3333.1833.3903.1712.8123.2581 1.2384.255.3931.0003.7827-.0738 1.1483-.2183l12.7433-7.38a3.11633 3.11633 0 0 0 1.2-2.3467l-.005-14.1099Z" fill="#96BEDC"/><g clip-path="url(#b)"><path d="M39.3984 24.835a20.00067 20.00067 0 0 1-5.955 9.9702 19.99976 19.99976 0 0 1-10.491 4.9805 19.99958 19.99958 0 0 1-11.4898-1.6884A19.99983 19.99983 0 0 1 .013 19.0474 20.00008 20.00008 0 0 1 13.2346 1.18176a20.0003 20.0003 0 0 1 11.5988-.5801c5.1438 1.2839 9.5675 4.55767 12.2986 9.10178 2.7312 4.54406 3.5464 9.98666 2.2664 15.13156Z" fill="#2D374B"/><path d="M6.09339 13.3483v13.31c.00015.4174.11021.8274.31911 1.1887.2089.3613.50926.6613.87089.8696l11.52671 6.6567c.3614.2081.7712.3177 1.1883.3177.4171 0 .8269-.1096 1.1883-.3177l11.5267-6.6567c.3616-.2083.662-.5083.8709-.8696.2089-.3613.3189-.7713.3191-1.1887v-13.31a2.37733 2.37733 0 0 0-.3191-1.1887 2.37698 2.37698 0 0 0-.8709-.8696L21.1867 4.63332a2.38133 2.38133 0 0 0-1.1883-.31765c-.4171 0-.8269.10954-1.1883.31765L7.28005 11.29a2.37263 2.37263 0 0 0-.86944.87 2.37292 2.37292 0 0 0-.31722 1.1883Z" fill="#213147"/><path d="m22.5117 22.585-1.6434 4.5a.5814.5814 0 0 0 0 .3883l2.8334 7.7567 3.2716-1.8884-3.9266-10.7633a.28228.28228 0 0 0-.1031-.135.2818.2818 0 0 0-.1619-.0512.28147.28147 0 0 0-.265.1862l-.005.0067ZM25.8083 15.0034a.28173.28173 0 0 0-.103-.1351.28212.28212 0 0 0-.162-.0512c-.058 0-.1145.0179-.1619.0512a.28192.28192 0 0 0-.1031.1351l-1.645 4.5a.58389.58389 0 0 0 0 .3866l4.6333 12.7 3.2717-1.8883-5.7317-15.7067.0017.0084Z" fill="#12AAFF"/><path d="M20.0017 5.13173a.50004.50004 0 0 1 .2333.06167l12.4733 7.2017a.46902.46902 0 0 1 .1702.1707.47036.47036 0 0 1 .0632.2326v14.3967a.46682.46682 0 0 1-.0628.2328.46577.46577 0 0 1-.1706.1705L20.235 34.8001a.46036.46036 0 0 1-.2333.0616.50017.50017 0 0 1-.2334-.0616L7.295 27.6034a.46985.46985 0 0 1-.23333-.4033v-14.405a.46466.46466 0 0 1 .0625-.233.46477.46477 0 0 1 .17083-.1704l12.4733-7.20164a.47014.47014 0 0 1 .2334-.065m0-2.10333a2.56348 2.56348 0 0 0-1.2867.345L6.24333 10.5667a2.57414 2.57414 0 0 0-.94184.9418 2.57358 2.57358 0 0 0-.34482 1.2866v14.4016c.00004.4517.11896.8954.34482 1.2866.22585.3911.55068.7159.94184.9418l12.47337 7.2016c.3913.2255.835.3444 1.2866.345.4519.0008.8959-.1182 1.2867-.345l12.4733-7.2016c.3912-.2259.716-.5507.9419-.9418.2258-.3912.3448-.8349.3448-1.2866V12.7951c0-.4517-.119-.8954-.3448-1.2866a2.57437 2.57437 0 0 0-.9419-.9418L21.2867 3.36673a2.56346 2.56346 0 0 0-1.285-.33833v-.00667Z" fill="#9DCCED"/><path d="m11.7467 32.6167 1.1483-3.1433 2.31 1.92-2.1666 1.9733-1.2917-.75Z" fill="#213147"/><path d="M18.9467 11.7717H15.78a.56102.56102 0 0 0-.3235.1012.5616.5616 0 0 0-.2065.2688L8.47168 30.7251l3.27162 1.8883 7.465-20.465a.2793.2793 0 0 0 .015-.1322.27903.27903 0 0 0-.0478-.1242.27972.27972 0 0 0-.0997-.0881.27926.27926 0 0 0-.1291-.0322ZM24.48 11.7717h-3.1667a.56312.56312 0 0 0-.3233.1015.56305.56305 0 0 0-.2067.2685l-7.74 21.22 3.2717 1.8884 8.425-23.1a.28266.28266 0 0 0 .0149-.1321.28205.28205 0 0 0-.0473-.1242.2818.2818 0 0 0-.099-.0886.28199.28199 0 0 0-.1286-.0335Z" fill="#fff"/></g></g><defs><clipPath id="a"><path fill="#fff" d="M0 0h40v40.005H0z"/></clipPath><clipPath id="b"><path fill="#fff" d="M0 0h40v40.005H0z"/></clipPath></defs></svg>