<svg xmlns="http://www.w3.org/2000/svg" width="16" height="16" viewBox="0 0 16 16">
  <g id="ic_arrowright16" transform="translate(-494.25 -372.25)">
    <rect id="Rectangle_486" data-name="Rectangle 486" width="16" height="16" transform="translate(494.25 372.25)" fill="rgba(255,255,255,0)"/>
    <path id="Path_4460" data-name="Path 4460" d="M1.969,0a1.089,1.089,0,0,0,.794-.342L6.7-4.5A1.092,1.092,0,0,0,6.7-6L2.763-10.157A1.091,1.091,0,0,0,1.216-10.2a1.093,1.093,0,0,0-.041,1.546L4.4-5.25l-3.225,3.4A1.093,1.093,0,0,0,1.216-.3,1.089,1.089,0,0,0,1.969,0Z" transform="translate(498.313 385.5)" fill="#a0a3c4"/>
  </g>
</svg>
