<svg width="40" height="40" viewBox="0 0 40 40" fill="none" xmlns="http://www.w3.org/2000/svg">
<g clip-path="url(#clip0_1218_24164)">
<path d="M20 40C31.0457 40 40 31.0457 40 20C40 8.9543 31.0457 0 20 0C8.9543 0 0 8.9543 0 20C0 31.0457 8.9543 40 20 40Z" fill="#0D1E30"/>
<g filter="url(#filter0_d_1218_24164)">
<path d="M19.6563 7.57497C20.2551 7.26622 20.9863 7.97997 20.6688 8.56872C20.4826 9.04872 19.7813 9.17622 19.4238 8.80997C19.0451 8.45997 19.1688 7.76497 19.6563 7.57372V7.57497ZM13.2126 8.25747C13.5763 8.10997 14.0376 8.43747 14.0001 8.82872C14.0376 9.25122 13.5126 9.56372 13.1413 9.36247C12.6501 9.17497 12.7063 8.38997 13.2126 8.25747V8.25747ZM26.4101 9.37372C25.8413 9.30622 25.7513 8.42622 26.2976 8.24872C26.7226 8.04622 27.1126 8.42747 27.1751 8.82372C27.0851 9.16122 26.7976 9.47122 26.4101 9.37372V9.37372ZM14.6788 10.955C15.2876 10.5762 16.1551 11.14 16.0613 11.8362C16.0301 12.5375 15.0826 12.945 14.5476 12.47C14.0301 12.0975 14.1088 11.2425 14.6788 10.955ZM23.9663 11.3575C24.2376 10.67 25.3376 10.6475 25.6463 11.3175C25.9526 11.8387 25.5763 12.485 25.0326 12.6625C24.3113 12.795 23.6276 12.0275 23.9663 11.3575ZM18.8801 12.6237C18.8738 12.0312 19.4213 11.5912 19.9926 11.55C20.3726 11.625 20.7851 11.7837 20.9476 12.16C21.2513 12.68 20.9813 13.3937 20.4351 13.6325C20.1851 13.77 19.8876 13.7187 19.6151 13.7025C19.1988 13.5025 18.8476 13.1062 18.8801 12.6237ZM9.29756 13.4862C9.85381 13.1487 10.6038 13.7612 10.3926 14.3562C10.2776 14.87 9.57506 15.0787 9.17381 14.7512C8.74506 14.4437 8.81256 13.705 9.2988 13.485L9.29756 13.4862ZM29.8751 13.4837C30.3463 13.1237 31.1251 13.5375 31.0676 14.1225C31.1001 14.6562 30.4263 15.06 29.9588 14.785C29.4438 14.5562 29.3901 13.7762 29.8751 13.485V13.4837ZM21.5751 14.5475C22.3526 14.2725 23.2776 14.6012 23.7201 15.285C24.3051 16.1187 23.9951 17.3887 23.0863 17.8675C22.1463 18.4337 20.7726 17.955 20.4238 16.92C20.0301 15.995 20.6051 14.8375 21.5738 14.5475H21.5751ZM17.0088 14.6387C17.8713 14.2387 19.0326 14.5737 19.4488 15.4412C19.9388 16.2862 19.5601 17.4625 18.6838 17.8987C17.8063 18.39 16.5676 18.0175 16.1438 17.1112C15.6676 16.2337 16.0901 15.0425 17.0088 14.6387V14.6387ZM12.4376 16.175C12.5038 15.6287 13.0276 15.2725 13.5563 15.235C13.8321 15.2641 14.0898 15.3859 14.2873 15.5805C14.4849 15.7751 14.6105 16.0309 14.6438 16.3062C14.6063 16.8687 14.1651 17.4162 13.5601 17.4137C12.8938 17.47 12.3101 16.8175 12.4376 16.175V16.175ZM25.9401 15.355C26.6238 14.9637 27.5726 15.5325 27.5426 16.305C27.5888 17.1237 26.5388 17.7 25.8588 17.22C25.1513 16.82 25.2063 15.695 25.9401 15.355ZM15.1526 18.2387C15.9501 18.0225 16.8651 18.3925 17.2563 19.115C17.6851 19.8425 17.5101 20.8525 16.8438 21.3875C15.9876 22.17 14.4113 21.855 13.9563 20.7875C13.4326 19.8087 14.0688 18.4962 15.1513 18.2375L15.1526 18.2387ZM23.8113 18.235C24.5876 18.0162 25.5001 18.31 25.9176 19.0062C26.4701 19.8025 26.2063 20.9912 25.3851 21.5037C24.5226 22.1 23.1901 21.7875 22.7151 20.855C22.1401 19.8912 22.7188 18.5287 23.8113 18.235V18.235ZM10.0113 19.1425C10.7013 18.8862 11.4663 19.635 11.1863 20.3087C11.0163 20.9212 10.1376 21.1487 9.68381 20.6962C9.15256 20.2712 9.3488 19.3275 10.0113 19.1425V19.1425ZM28.7226 20.12C28.7096 19.8448 28.8058 19.5756 28.9903 19.3711C29.1747 19.1665 29.4325 19.043 29.7076 19.0275C30.1801 19.1025 30.6401 19.4775 30.6026 19.9837C30.6463 20.6525 29.8276 21.1062 29.2476 20.7925C28.9763 20.6562 28.8376 20.3825 28.7226 20.12ZM6.61756 19.475C7.03256 19.2962 7.5463 19.65 7.4513 20.1037C7.4288 20.6175 6.65755 20.8162 6.37505 20.3862C6.12505 20.0875 6.27506 19.6287 6.61756 19.4737V19.475ZM32.8038 19.4637C33.0963 19.26 33.5663 19.4062 33.6813 19.7425C33.8776 20.11 33.5176 20.6125 33.0976 20.5512C32.5076 20.6037 32.3176 19.72 32.8038 19.4637ZM17.4076 21.93C18.5001 21.6512 19.6751 22.5475 19.6826 23.655C19.7526 24.7737 18.5951 25.765 17.4776 25.5075C16.6126 25.37 15.9338 24.55 15.9626 23.6912C15.9601 22.8687 16.5901 22.1037 17.4076 21.93V21.93ZM21.7351 21.9287C22.8438 21.6237 24.0538 22.5362 24.0363 23.6687C24.0951 24.7662 22.9738 25.725 21.8788 25.5062C20.8476 25.3762 20.0876 24.2625 20.3751 23.2775C20.5201 22.6225 21.0776 22.09 21.7351 21.9275V21.9287ZM13.3901 22.61C14.1576 22.4812 14.8776 23.3225 14.5663 24.04C14.3388 24.805 13.2088 25.0112 12.7088 24.3875C12.1238 23.7875 12.5613 22.6925 13.3901 22.61V22.61ZM26.0826 22.6437C26.7676 22.3612 27.6076 22.9437 27.5551 23.675C27.5826 24.4787 26.5451 25.0337 25.8763 24.5637C25.1176 24.1425 25.2563 22.9012 26.0826 22.6437V22.6437ZM29.6301 26.1437C29.3626 25.6525 29.8488 25.0012 30.4051 25.0925C30.6801 25.0875 30.8738 25.3012 31.0501 25.4812C31.0863 25.7725 31.1476 26.12 30.9013 26.3437C30.5676 26.76 29.8113 26.6412 29.6301 26.1437V26.1437ZM9.29505 25.2287C9.8138 24.89 10.5601 25.3962 10.4426 25.9912C10.3801 26.52 9.70505 26.8212 9.2613 26.5212C8.7838 26.25 8.8013 25.4762 9.29505 25.2287V25.2287ZM19.5363 26.3325C20.2151 26.0387 21.0801 26.62 21.0151 27.355C21.0651 28.1675 19.9963 28.73 19.3326 28.2425C18.5951 27.8237 18.7188 26.5912 19.5363 26.3325V26.3325ZM14.7938 27.4212C15.3713 27.1225 16.1463 27.6387 16.0938 28.2762C16.1113 28.7987 15.5938 29.2437 15.0688 29.1662C14.6351 29.1575 14.3526 28.7737 14.2126 28.41C14.2201 28.0137 14.3863 27.5725 14.7938 27.4225V27.4212ZM24.4013 27.4312C24.9963 27.0687 25.8413 27.5887 25.7851 28.2687C25.8001 28.9812 24.8451 29.4362 24.2913 28.9687C23.7563 28.6025 23.8213 27.7225 24.4013 27.4312ZM26.0726 31.4937C25.8076 31.1012 26.1188 30.6275 26.5476 30.5375C26.8938 30.6062 27.2601 30.8625 27.1863 31.255C27.1363 31.7887 26.3438 31.9512 26.0726 31.495V31.4937ZM12.8088 31.1525C12.9138 30.84 13.1688 30.5312 13.5426 30.6125C14.0863 30.65 14.2476 31.4575 13.7713 31.7062C13.3438 31.99 12.8463 31.6012 12.8088 31.1525ZM19.2088 31.5112C19.3126 31.0487 19.9188 30.825 20.3188 31.07C20.5838 31.1825 20.6613 31.4725 20.7288 31.72C20.6931 31.8485 20.6598 31.9777 20.6288 32.1075C20.4651 32.2975 20.2538 32.4887 19.9813 32.4825C19.4751 32.5412 19.0176 31.9775 19.2076 31.5112H19.2088Z" fill="black"/>
</g>
<path d="M19.6563 7.57497C20.2551 7.26622 20.9863 7.97997 20.6688 8.56872C20.4826 9.04872 19.7813 9.17622 19.4238 8.80997C19.0451 8.45997 19.1688 7.76497 19.6563 7.57372V7.57497ZM13.2126 8.25747C13.5763 8.10997 14.0376 8.43747 14.0001 8.82872C14.0376 9.25122 13.5126 9.56372 13.1413 9.36247C12.6501 9.17497 12.7063 8.38997 13.2126 8.25747V8.25747ZM26.4101 9.37372C25.8413 9.30622 25.7513 8.42622 26.2976 8.24872C26.7226 8.04622 27.1126 8.42747 27.1751 8.82372C27.0851 9.16122 26.7976 9.47122 26.4101 9.37372V9.37372ZM14.6788 10.955C15.2876 10.5762 16.1551 11.14 16.0613 11.8362C16.0301 12.5375 15.0826 12.945 14.5476 12.47C14.0301 12.0975 14.1088 11.2425 14.6788 10.955ZM23.9663 11.3575C24.2376 10.67 25.3376 10.6475 25.6463 11.3175C25.9526 11.8387 25.5763 12.485 25.0326 12.6625C24.3113 12.795 23.6276 12.0275 23.9663 11.3575ZM18.8801 12.6237C18.8738 12.0312 19.4213 11.5912 19.9926 11.55C20.3726 11.625 20.7851 11.7837 20.9476 12.16C21.2513 12.68 20.9813 13.3937 20.4351 13.6325C20.1851 13.77 19.8876 13.7187 19.6151 13.7025C19.1988 13.5025 18.8476 13.1062 18.8801 12.6237ZM9.29756 13.4862C9.85381 13.1487 10.6038 13.7612 10.3926 14.3562C10.2776 14.87 9.57506 15.0787 9.17381 14.7512C8.74506 14.4437 8.81256 13.705 9.2988 13.485L9.29756 13.4862ZM29.8751 13.4837C30.3463 13.1237 31.1251 13.5375 31.0676 14.1225C31.1001 14.6562 30.4263 15.06 29.9588 14.785C29.4438 14.5562 29.3901 13.7762 29.8751 13.485V13.4837ZM21.5751 14.5475C22.3526 14.2725 23.2776 14.6012 23.7201 15.285C24.3051 16.1187 23.9951 17.3887 23.0863 17.8675C22.1463 18.4337 20.7726 17.955 20.4238 16.92C20.0301 15.995 20.6051 14.8375 21.5738 14.5475H21.5751ZM17.0088 14.6387C17.8713 14.2387 19.0326 14.5737 19.4488 15.4412C19.9388 16.2862 19.5601 17.4625 18.6838 17.8987C17.8063 18.39 16.5676 18.0175 16.1438 17.1112C15.6676 16.2337 16.0901 15.0425 17.0088 14.6387V14.6387ZM12.4376 16.175C12.5038 15.6287 13.0276 15.2725 13.5563 15.235C13.8321 15.2641 14.0898 15.3859 14.2873 15.5805C14.4849 15.7751 14.6105 16.0309 14.6438 16.3062C14.6063 16.8687 14.1651 17.4162 13.5601 17.4137C12.8938 17.47 12.3101 16.8175 12.4376 16.175V16.175ZM25.9401 15.355C26.6238 14.9637 27.5726 15.5325 27.5426 16.305C27.5888 17.1237 26.5388 17.7 25.8588 17.22C25.1513 16.82 25.2063 15.695 25.9401 15.355ZM15.1526 18.2387C15.9501 18.0225 16.8651 18.3925 17.2563 19.115C17.6851 19.8425 17.5101 20.8525 16.8438 21.3875C15.9876 22.17 14.4113 21.855 13.9563 20.7875C13.4326 19.8087 14.0688 18.4962 15.1513 18.2375L15.1526 18.2387ZM23.8113 18.235C24.5876 18.0162 25.5001 18.31 25.9176 19.0062C26.4701 19.8025 26.2063 20.9912 25.3851 21.5037C24.5226 22.1 23.1901 21.7875 22.7151 20.855C22.1401 19.8912 22.7188 18.5287 23.8113 18.235V18.235ZM10.0113 19.1425C10.7013 18.8862 11.4663 19.635 11.1863 20.3087C11.0163 20.9212 10.1376 21.1487 9.68381 20.6962C9.15256 20.2712 9.3488 19.3275 10.0113 19.1425V19.1425ZM28.7226 20.12C28.7096 19.8448 28.8058 19.5756 28.9903 19.3711C29.1747 19.1665 29.4325 19.043 29.7076 19.0275C30.1801 19.1025 30.6401 19.4775 30.6026 19.9837C30.6463 20.6525 29.8276 21.1062 29.2476 20.7925C28.9763 20.6562 28.8376 20.3825 28.7226 20.12ZM6.61756 19.475C7.03256 19.2962 7.5463 19.65 7.4513 20.1037C7.4288 20.6175 6.65755 20.8162 6.37505 20.3862C6.12505 20.0875 6.27506 19.6287 6.61756 19.4737V19.475ZM32.8038 19.4637C33.0963 19.26 33.5663 19.4062 33.6813 19.7425C33.8776 20.11 33.5176 20.6125 33.0976 20.5512C32.5076 20.6037 32.3176 19.72 32.8038 19.4637ZM17.4076 21.93C18.5001 21.6512 19.6751 22.5475 19.6826 23.655C19.7526 24.7737 18.5951 25.765 17.4776 25.5075C16.6126 25.37 15.9338 24.55 15.9626 23.6912C15.9601 22.8687 16.5901 22.1037 17.4076 21.93V21.93ZM21.7351 21.9287C22.8438 21.6237 24.0538 22.5362 24.0363 23.6687C24.0951 24.7662 22.9738 25.725 21.8788 25.5062C20.8476 25.3762 20.0876 24.2625 20.3751 23.2775C20.5201 22.6225 21.0776 22.09 21.7351 21.9275V21.9287ZM13.3901 22.61C14.1576 22.4812 14.8776 23.3225 14.5663 24.04C14.3388 24.805 13.2088 25.0112 12.7088 24.3875C12.1238 23.7875 12.5613 22.6925 13.3901 22.61V22.61ZM26.0826 22.6437C26.7676 22.3612 27.6076 22.9437 27.5551 23.675C27.5826 24.4787 26.5451 25.0337 25.8763 24.5637C25.1176 24.1425 25.2563 22.9012 26.0826 22.6437V22.6437ZM29.6301 26.1437C29.3626 25.6525 29.8488 25.0012 30.4051 25.0925C30.6801 25.0875 30.8738 25.3012 31.0501 25.4812C31.0863 25.7725 31.1476 26.12 30.9013 26.3437C30.5676 26.76 29.8113 26.6412 29.6301 26.1437V26.1437ZM9.29505 25.2287C9.8138 24.89 10.5601 25.3962 10.4426 25.9912C10.3801 26.52 9.70505 26.8212 9.2613 26.5212C8.7838 26.25 8.8013 25.4762 9.29505 25.2287V25.2287ZM19.5363 26.3325C20.2151 26.0387 21.0801 26.62 21.0151 27.355C21.0651 28.1675 19.9963 28.73 19.3326 28.2425C18.5951 27.8237 18.7188 26.5912 19.5363 26.3325V26.3325ZM14.7938 27.4212C15.3713 27.1225 16.1463 27.6387 16.0938 28.2762C16.1113 28.7987 15.5938 29.2437 15.0688 29.1662C14.6351 29.1575 14.3526 28.7737 14.2126 28.41C14.2201 28.0137 14.3863 27.5725 14.7938 27.4225V27.4212ZM24.4013 27.4312C24.9963 27.0687 25.8413 27.5887 25.7851 28.2687C25.8001 28.9812 24.8451 29.4362 24.2913 28.9687C23.7563 28.6025 23.8213 27.7225 24.4013 27.4312ZM26.0726 31.4937C25.8076 31.1012 26.1188 30.6275 26.5476 30.5375C26.8938 30.6062 27.2601 30.8625 27.1863 31.255C27.1363 31.7887 26.3438 31.9512 26.0726 31.495V31.4937ZM12.8088 31.1525C12.9138 30.84 13.1688 30.5312 13.5426 30.6125C14.0863 30.65 14.2476 31.4575 13.7713 31.7062C13.3438 31.99 12.8463 31.6012 12.8088 31.1525ZM19.2088 31.5112C19.3126 31.0487 19.9188 30.825 20.3188 31.07C20.5838 31.1825 20.6613 31.4725 20.7288 31.72C20.6931 31.8485 20.6598 31.9777 20.6288 32.1075C20.4651 32.2975 20.2538 32.4887 19.9813 32.4825C19.4751 32.5412 19.0176 31.9775 19.2076 31.5112H19.2088Z" fill="white"/>
</g>
<defs>
<filter id="filter0_d_1218_24164" x="5.25061" y="7.00049" width="29.4857" height="26.9862" filterUnits="userSpaceOnUse" color-interpolation-filters="sRGB">
<feFlood flood-opacity="0" result="BackgroundImageFix"/>
<feColorMatrix in="SourceAlpha" type="matrix" values="0 0 0 0 0 0 0 0 0 0 0 0 0 0 0 0 0 0 127 0" result="hardAlpha"/>
<feOffset dy="0.5"/>
<feGaussianBlur stdDeviation="0.5"/>
<feColorMatrix type="matrix" values="0 0 0 0 0 0 0 0 0 0 0 0 0 0 0 0 0 0 0.204257 0"/>
<feBlend mode="normal" in2="BackgroundImageFix" result="effect1_dropShadow_1218_24164"/>
<feBlend mode="normal" in="SourceGraphic" in2="effect1_dropShadow_1218_24164" result="shape"/>
</filter>
<clipPath id="clip0_1218_24164">
<rect width="40" height="40" fill="white"/>
</clipPath>
</defs>
</svg>
