<svg xmlns="http://www.w3.org/2000/svg" width="40" height="41" fill="none"><g clip-path="url(#a)"><path fill="#2D374B" d="M39.398 24.835A20 20 0 1 1 .582 15.178a20 20 0 0 1 38.816 9.657Z"/><path fill="#2D374B" d="m23.825 18.583 2.5-4.231 6.722 10.468v2.008l-.032-13.821a1.042 1.042 0 0 0-.482-.834l-12.1-6.96a1.066 1.066 0 0 0-.925 0c-.037.02-.073.04-.108.064l-.042.026-11.74 6.814-.045.02a1.064 1.064 0 0 0-.166.101 1.046 1.046 0 0 0-.434.784l.019 11.265 6.26-9.704a4.589 4.589 0 0 1 4.1-1.678l1.871.05L8.192 30.633l1.3.749 11.156-18.41 4.932-.019-11.128 18.875 4.636 2.667.554.318c.239.095.504.1.746.015l12.27-7.11-2.346 1.36-6.487-10.495Zm.952 13.702-4.684-7.35 2.859-4.852 6.151 9.695-4.326 2.507Z"/><path fill="#28A0F0" d="m20.093 24.935 4.684 7.35 4.333-2.5-6.152-9.695-2.865 4.845ZM33.043 26.83v-2.008l-6.721-10.469-2.5 4.232 6.488 10.5 2.347-1.36a1.041 1.041 0 0 0 .383-.757l.003-.138Z"/><path fill="#fff" d="m4.878 28.723 3.314 1.909 11.023-17.68-1.872-.05a4.59 4.59 0 0 0-4.1 1.678l-6.26 9.703-2.106 3.237.001 1.203ZM25.577 12.953l-4.932.019L9.49 31.382l3.9 2.245 1.06-1.799 11.127-18.875Z"/><path fill="#96BEDC" d="M35.12 12.928a3.142 3.142 0 0 0-1.475-2.525l-12.258-7.05a3.189 3.189 0 0 0-2.814 0c-.101.052-11.921 6.907-11.921 6.907a3.137 3.137 0 0 0-1.775 2.667v14.6l2.106-3.237-.018-11.265a1.037 1.037 0 0 1 .433-.788c.055-.04 12.077-7 12.115-7.017a1.067 1.067 0 0 1 .925 0l12.1 6.96a1.042 1.042 0 0 1 .482.833v13.955a1.016 1.016 0 0 1-.362.757l-2.346 1.36-1.21.702-4.334 2.5-4.38 2.545c-.242.085-.507.08-.746-.015l-5.192-2.985-1.06 1.798 4.667 2.687.405.228c.166.098.293.167.333.183.39.172.812.258 1.238.255.393 0 .783-.073 1.149-.218l12.743-7.38a3.118 3.118 0 0 0 1.2-2.347l-.005-14.11Z"/></g><defs><clipPath id="a"><path fill="#fff" d="M0 0h40v40.005H0z"/></clipPath></defs></svg>