<svg width="40" height="40" viewBox="0 0 40 40" fill="none" xmlns="http://www.w3.org/2000/svg">
<rect width="40" height="40" rx="20" fill="white"/>
<path d="M19.6018 5.27615C20.3287 4.90487 21.2238 5.75022 20.8297 6.46225C20.6165 7.02615 19.7683 7.17522 19.313 6.74467C18.8582 6.32894 19.01 5.49837 19.6165 5.26135L19.6018 5.27615ZM11.7925 6.09097C12.2471 5.91318 12.7925 6.29928 12.748 6.75947C12.7934 7.2632 12.1564 7.64837 11.7017 7.39652C11.1101 7.17429 11.186 6.23912 11.7925 6.09097ZM27.8037 7.41227C27.1063 7.32245 27 6.28448 27.6527 6.07709C28.1833 5.8391 28.6528 6.28448 28.7287 6.75947C28.623 7.15948 28.274 7.53077 27.8037 7.41227ZM13.5666 9.28077C14.3091 8.83633 15.3554 9.503 15.2342 10.3187C15.2045 11.1651 14.0675 11.6539 13.4147 11.091C12.7786 10.6456 12.8841 9.62152 13.5666 9.28077ZM24.8323 9.7706C25.1657 8.95487 26.4998 8.92428 26.8785 9.71133C27.2423 10.3336 26.7878 11.1049 26.1212 11.3132C25.2565 11.4613 24.423 10.5715 24.8323 9.7706ZM18.6608 11.2539C18.6608 10.5567 19.3277 10.0373 20.0258 9.99283C20.4805 10.0817 20.9813 10.2743 21.1777 10.7197C21.5415 11.328 21.2238 12.1734 20.5563 12.4697C20.2528 12.6178 19.8898 12.5586 19.5565 12.5438C19.0553 12.3067 18.6305 11.8326 18.6608 11.2688V11.2539ZM7.04711 12.2919C7.71378 11.8919 8.62395 12.6187 8.36561 13.3308C8.22951 13.9234 7.38043 14.1762 6.89524 13.7901C6.37951 13.4197 6.45545 12.5447 7.04711 12.2919ZM32.0037 12.2919C32.5795 11.8474 33.5203 12.3512 33.4443 13.0336C33.4897 13.6715 32.686 14.1613 32.11 13.8345C31.4878 13.553 31.412 12.6484 32.0037 12.2919ZM21.936 13.553C22.4092 13.3993 22.919 13.4016 23.3907 13.5595C23.863 13.7178 24.2673 14.0225 24.5443 14.428C25.2415 15.4067 24.8777 16.9197 23.7703 17.4835C22.6332 18.166 20.9657 17.5872 20.5417 16.3715C20.0563 15.2734 20.7535 13.8938 21.936 13.553ZM16.4017 13.6567C17.448 13.1817 18.8582 13.5826 19.3583 14.6058C19.9648 15.615 19.4953 17.0095 18.434 17.528C17.3722 18.1215 15.8564 17.6762 15.3554 16.5938C14.7647 15.5558 15.2795 14.1308 16.4017 13.6567ZM10.8527 15.4808C10.9286 14.8289 11.5656 14.4132 12.2175 14.3687C12.8999 14.4428 13.4453 14.9613 13.5212 15.6299C13.4749 16.2965 12.9453 16.9642 12.2175 16.9642C11.398 17.0243 10.7008 16.2373 10.8527 15.4808ZM27.2277 14.5021C28.061 14.0576 29.199 14.7243 29.1685 15.6299C29.2297 16.6085 27.9553 17.291 27.137 16.7272C26.2722 16.2531 26.3332 14.9178 27.2277 14.5021ZM14.1425 17.9282C14.6251 17.8042 15.1348 17.8388 15.5962 18.027C16.0564 18.2142 16.4405 18.5455 16.6897 18.9668C17.2203 19.828 16.9935 21.0438 16.1897 21.6668C15.1582 22.6022 13.248 22.216 12.7027 20.955C12.0656 19.7973 12.823 18.2392 14.1425 17.9282ZM24.6498 17.9282C25.5907 17.6613 26.6962 18.0178 27.197 18.8335C27.8795 19.7827 27.5462 21.2067 26.5602 21.8002C25.4988 22.5132 23.8915 22.142 23.3157 21.0288C22.6185 19.8872 23.3157 18.2697 24.6498 17.914V17.9282ZM7.89618 18.9818C8.72951 18.6853 9.65543 19.5753 9.32118 20.3762C9.10823 21.103 8.04803 21.3707 7.50175 20.8205C6.84988 20.3317 7.09248 19.205 7.89618 18.9818ZM30.5933 20.1538C30.5855 19.991 30.61 19.828 30.6657 19.6747C30.7212 19.5213 30.807 19.3803 30.9173 19.2605C31.1425 19.015 31.4565 18.868 31.7915 18.8485C32.3527 18.9373 32.9137 19.3825 32.8683 19.991C32.9287 20.7772 31.9277 21.3262 31.2305 20.94C30.897 20.7918 30.7305 20.466 30.5933 20.1538ZM3.77211 19.3825C4.28693 19.1752 4.90915 19.59 4.78785 20.1233C4.7573 20.7327 3.8323 20.9697 3.48413 20.466C3.18043 20.1095 3.36285 19.5753 3.78693 19.3825H3.77211ZM35.537 19.3825C35.9008 19.1308 36.461 19.2938 36.598 19.6937C36.8407 20.1383 36.4007 20.7327 35.9008 20.6577C35.1878 20.7177 34.9452 19.679 35.537 19.3678V19.3825ZM16.872 22.2901C18.1917 21.9633 19.6165 23.0308 19.6313 24.3363C19.7072 25.6715 18.312 26.8585 16.948 26.5473C16.4326 26.4576 15.9648 26.1905 15.6258 25.7918C15.2911 25.3986 15.1091 24.898 15.1128 24.3816C15.1128 23.4168 15.8721 22.4975 16.872 22.3048V22.2901ZM22.1183 22.2901C23.4675 21.9336 24.9232 23.017 24.9082 24.3668C24.9832 25.6566 23.6192 26.7993 22.2852 26.5326C21.0415 26.3845 20.1167 25.0642 20.4655 23.892C20.647 23.1207 21.3147 22.4826 22.1183 22.2901ZM11.9897 23.1048C12.9295 22.9566 13.8091 23.9512 13.4156 24.7965C13.1425 25.7011 11.7767 25.9538 11.1712 25.2122C10.4582 24.4992 10.9888 23.1936 11.9897 23.1048ZM27.3943 23.1501C28.2128 22.8086 29.2443 23.5058 29.1685 24.3668C29.2147 25.3158 27.9553 25.9835 27.137 25.4196C26.2267 24.9151 26.3787 23.4475 27.3943 23.1501ZM31.685 27.304C31.3665 26.7105 31.9583 25.9391 32.6258 26.043C32.959 26.043 33.2017 26.2946 33.4138 26.517C33.46 26.8585 33.535 27.2595 33.2313 27.541C32.822 28.0308 31.913 27.8817 31.685 27.304ZM7.03136 26.2058C7.65358 25.8057 8.54803 26.4132 8.41099 27.1105C8.33599 27.7493 7.51654 28.1048 6.98599 27.7493C6.41006 27.4223 6.42396 26.5032 7.03136 26.2058ZM19.4498 27.5261C20.2683 27.1696 21.3147 27.8668 21.2388 28.728C21.2988 29.6908 20.011 30.3596 19.2073 29.7808C18.297 29.291 18.4482 27.8225 19.4498 27.5261ZM13.6878 28.817C14.4008 28.4605 15.3406 29.0687 15.2647 29.8262C15.2952 30.4483 14.6582 30.9826 14.0369 30.8781C13.5064 30.8781 13.1573 30.4188 12.9906 29.989C12.9906 29.5142 13.2036 28.9946 13.7036 28.8021L13.6878 28.817ZM25.3628 28.817C26.0757 28.3863 27.0915 29.0095 27.0305 29.8103C27.0453 30.6715 25.8933 31.2048 25.2112 30.6558C24.574 30.2113 24.6498 29.1723 25.3628 28.8316V28.817ZM27.3795 33.6373C27.0608 33.1928 27.4397 32.614 27.9553 32.5103C28.3805 32.5993 28.8193 32.8955 28.7137 33.3558C28.6675 33.9938 27.713 34.1863 27.3795 33.6521V33.6373ZM11.2925 33.2373C11.4128 32.8668 11.7165 32.4957 12.1721 32.5983C12.8388 32.6437 13.036 33.6077 12.4591 33.9038C11.9295 34.2308 11.3378 33.7717 11.2925 33.2373ZM19.0553 33.6668C19.1757 33.1188 19.9193 32.8522 20.4045 33.1483C20.7082 33.2817 20.8138 33.6227 20.8897 33.9197L20.7693 34.364C20.5712 34.6022 20.3137 34.8243 19.9952 34.8085C19.3738 34.8836 18.8128 34.216 19.0553 33.6668Z" fill="#246DD3"/>
</svg>
