<svg id="ic_avalanche_16" xmlns="http://www.w3.org/2000/svg" width="16" height="16" viewBox="0 0 16 16">
  <circle id="Ellipse_81" data-name="Ellipse 81" cx="8" cy="8" r="8" fill="#e84142"/>
  <path id="Path_1563" data-name="Path 1563" d="M141.573,74.878c.22-.431.576-.431.8,0l1.372,2.73c.22.431.04.783-.4.783h-2.765c-.436,0-.616-.352-.4-.783Zm-2.655-5.255c.22-.431.571-.431.791,0l.306.624.721,1.436a1.671,1.671,0,0,1,0,1.3l-2.419,4.75a1.254,1.254,0,0,1-.992.658h-2.008c-.441,0-.621-.346-.4-.783Z" transform="translate(-131.328 -66.705)" fill="#fff"/>
</svg>
