<svg xmlns="http://www.w3.org/2000/svg" width="24" height="24"><path style="stroke:none;fill-rule:nonzero;fill:#2e3148;fill-opacity:1" d="M24 12c0 6.629-5.371 12-12 12S0 18.629 0 12 5.371 0 12 0s12 5.371 12 12Zm0 0"/><path style="stroke:none;fill-rule:nonzero;fill:#1b1e36;fill-opacity:1" d="M18.965 12A6.968 6.968 0 0 1 12 18.965 6.968 6.968 0 0 1 5.035 12 6.968 6.968 0 0 1 12 5.035 6.968 6.968 0 0 1 18.965 12Zm0 0"/><path style="stroke:none;fill-rule:nonzero;fill:#6f7390;fill-opacity:1" d="M12.023 1.531c-1.293 0-2.343 4.7-2.343 10.492 0 5.797 1.05 10.497 2.343 10.497 1.297 0 2.348-4.7 2.348-10.497 0-5.793-1.05-10.492-2.348-10.492Zm.165 20.395a.192.192 0 0 1-.137.101.187.187 0 0 1-.16-.05A5.525 5.525 0 0 1 10.996 20C9.953 16.64 10.2 9.434 10.2 9.434c.492-5.723 1.383-7.079 1.688-7.375a.18.18 0 0 1 .238-.02c.441.309.813 1.617.813 1.617.664 2.567 1 5.203.992 7.852a40.901 40.901 0 0 1-.547 7.012c-.5 2.812-1.195 3.406-1.195 3.406Zm0 0"/><path style="stroke:none;fill-rule:nonzero;fill:#6f7390;fill-opacity:1" d="M21.129 6.805c-.649-1.125-5.242.3-10.274 3.183-5.03 2.887-8.582 6.137-7.933 7.258.648 1.125 5.242-.3 10.273-3.187 5.028-2.883 8.578-6.133 7.93-7.254ZM3.516 17.094c-.246-.032-.192-.235-.192-.235a5.61 5.61 0 0 1 1.27-1.761c2.394-2.575 8.77-5.946 8.77-5.946 5.21-2.425 6.827-2.32 7.238-2.21.085.027.144.109.132.199-.047.539-1 1.507-1 1.507a30.79 30.79 0 0 1-6.312 4.77 40.763 40.763 0 0 1-6.356 3.016c-2.687.968-3.55.66-3.55.66Zm0 0"/><path style="stroke:none;fill-rule:nonzero;fill:#6f7390;fill-opacity:1" d="M21.105 17.285c.649-1.12-2.89-4.387-7.902-7.293-5.012-2.906-9.61-4.351-10.258-3.226-.652 1.125 2.887 4.386 7.903 7.293 5.015 2.902 9.609 4.347 10.257 3.226ZM3.375 7.2a.183.183 0 0 1-.016-.168.182.182 0 0 1 .125-.113c.727-.07 1.461 0 2.16.215 3.426.781 9.54 4.61 9.54 4.61 4.707 3.296 5.43 4.745 5.535 5.155a.18.18 0 0 1-.102.215c-.488.227-1.805-.11-1.805-.11a30.873 30.873 0 0 1-7.292-3.073A40.611 40.611 0 0 1 5.73 9.94C3.543 8.098 3.38 7.2 3.38 7.2Zm0 0"/><path style="stroke:none;fill-rule:nonzero;fill:#b7b9c8;fill-opacity:1" d="M13.234 12a1.234 1.234 0 1 1-2.469 0 1.234 1.234 0 0 1 2.47 0ZM17.777 7.258a.728.728 0 0 0-.715-.738.728.728 0 0 0-.714.738c0 .41.32.742.715.742a.729.729 0 0 0 .714-.742ZM6.023 9.777c0-.41-.32-.738-.714-.738a.725.725 0 0 0-.715.738c0 .41.32.743.715.743a.729.729 0 0 0 .714-.743ZM11.258 18.863a.728.728 0 0 0-.715-.738.728.728 0 0 0-.715.738c0 .41.32.742.715.742a.729.729 0 0 0 .715-.742Zm0 0"/></svg>