<svg width="24" height="24" fill="none" xmlns="http://www.w3.org/2000/svg"><g clip-path="url(#a)"><path d="M23.639 14.9011a11.99978 11.99978 0 0 1-9.8675 8.9704 12.00006 12.00006 0 0 1-6.89391-1.013 12.00028 12.00028 0 0 1-5.1688-4.6728 12.00023 12.00023 0 0 1-1.70097-6.7572A11.99994 11.99994 0 0 1 2.3482 4.86542 11.99996 11.99996 0 0 1 14.9.36109c3.0864.77035 5.7406 2.73461 7.3793 5.46107 1.6386 2.72646 2.1277 5.99204 1.3597 9.07894Z" fill="#2D374B"/><path d="m14.295 11.15 1.5-2.53902 4.033 6.28102v1.205l-.019-8.29301a.62512.62512 0 0 0-.289-.5l-7.26-4.176a.64031.64031 0 0 0-.2775-.06329.63966.63966 0 0 0-.2775.06329.5884.5884 0 0 0-.065.038l-.025.016-7.04404 4.088-.027.012a.63706.63706 0 0 0-.1.061.62697.62697 0 0 0-.26.46999l.011 6.75902 3.756-5.82202a2.75407 2.75407 0 0 1 2.46004-1.007l1.123.03001L4.91496 18.38l.78.449L12.389 7.78299l2.959-.01101L8.67096 19.097l2.78204 1.6.332.191a.63816.63816 0 0 0 .448.009l7.362-4.266-1.408.816-3.892-6.297Zm.571 8.221-2.81-4.41 1.715-2.911 3.691 5.817-2.596 1.504Z" fill="#2D374B"/><path d="m12.056 14.9609 2.81 4.41 2.6-1.5-3.691-5.8169-1.719 2.9069ZM19.826 16.0981v-1.205l-4.033-6.28104-1.5 2.53904 3.893 6.3 1.408-.816a.62546.62546 0 0 0 .1634-.2025.62535.62535 0 0 0 .0666-.2515l.002-.083Z" fill="#28A0F0"/><path d="m2.92702 17.2339 1.98801 1.145L11.529 7.77087l-1.123-.03a2.75395 2.75395 0 0 0-2.45997 1.007l-3.756 5.82203-1.264 1.942.00099.722ZM15.346 7.77197l-2.959.011L5.69397 18.829l2.34 1.347.63601-1.079L15.346 7.77197Z" fill="#fff"/><path d="M21.072 7.75692a1.88438 1.88438 0 0 0-.2555-.86674 1.88422 1.88422 0 0 0-.6295-.64826l-7.355-4.23a1.91308 1.91308 0 0 0-1.688 0c-.061.031-7.15297 4.144-7.15297 4.144a1.88207 1.88207 0 0 0-1.065 1.6v8.75998l1.264-1.942-.011-6.75898a.59936.59936 0 0 1 .009-.073.622.622 0 0 1 .251-.4c.033-.024 7.24597-4.2 7.26897-4.21a.63999.63999 0 0 1 .555 0l7.26 4.176a.62436.62436 0 0 1 .2057.21462.62387.62387 0 0 1 .0833.28538v8.37298a.60976.60976 0 0 1-.0595.2504.6096.6096 0 0 1-.1575.2036l-1.408.816-.726.421-2.6 1.5-2.628 1.527a.63763.63763 0 0 1-.448-.009l-3.11497-1.791-.636 1.079 2.79997 1.612.243.137c.1.059.176.1.2.11.2342.1027.4874.1548.743.153.2359.0002.4697-.0443.689-.131l7.646-4.428c.2156-.1678.3918-.3809.5162-.6241.1244-.2433.194-.5108.2038-.7839l-.003-8.46598Z" fill="#96BEDC"/><g clip-path="url(#b)"><path d="M23.639 14.9011a11.99978 11.99978 0 0 1-9.8675 8.9704 12.00006 12.00006 0 0 1-6.89391-1.013 12.00028 12.00028 0 0 1-5.1688-4.6728 12.00023 12.00023 0 0 1-1.70097-6.7572A11.99994 11.99994 0 0 1 2.3482 4.86542 11.99996 11.99996 0 0 1 14.9.36109c3.0864.77035 5.7406 2.73461 7.3793 5.46107 1.6386 2.72646 2.1277 5.99204 1.3597 9.07894Z" fill="#2D374B"/><path d="M3.65601 8.00894v7.98596c.00009.2505.06613.4964.19147.7132a1.4256 1.4256 0 0 0 .52253.5218l6.91599 3.994a1.42886 1.42886 0 0 0 1.426 0l6.916-3.994c.217-.125.3972-.305.5225-.5218.1254-.2168.1914-.4627.1915-.7132V8.00894a1.42549 1.42549 0 0 0-.1915-.7132 1.42544 1.42544 0 0 0-.5225-.5218l-6.916-3.994a1.42898 1.42898 0 0 0-1.426 0l-6.91799 3.994a1.42402 1.42402 0 0 0-.712 1.235Z" fill="#213147"/><path d="m13.507 13.551-.986 2.7a.3489.3489 0 0 0 0 .233l1.7 4.654 1.963-1.133-2.356-6.458a.16947.16947 0 0 0-.0618-.081.1691.1691 0 0 0-.0972-.0307.1691.1691 0 0 0-.0972.0307c-.0284.02-.05.0483-.0618.081l-.003.004ZM15.4849 9.00211a.1681.1681 0 0 0-.0618-.081.16913.16913 0 0 0-.0972-.03073.16882.16882 0 0 0-.0971.03073.16891.16891 0 0 0-.0619.081l-.987 2.69999a.35095.35095 0 0 0 0 .232l2.78 7.62 1.963-1.133-3.439-9.42399.001.005Z" fill="#12AAFF"/><path d="M12.001 3.07899a.29986.29986 0 0 1 .14.037l7.484 4.321a.28207.28207 0 0 1 .14.242V16.317a.28075.28075 0 0 1-.0376.1397.27987.27987 0 0 1-.1024.1023l-7.484 4.321a.27617.27617 0 0 1-.14.037.29939.29939 0 0 1-.14-.037l-7.484-4.318a.2823.2823 0 0 1-.1021-.1024.28231.28231 0 0 1-.0379-.1396V7.67699a.27896.27896 0 0 1 .14-.242l7.484-4.321a.28197.28197 0 0 1 .14-.039m0-1.262a1.53794 1.53794 0 0 0-.772.207l-7.483 4.32a1.54394 1.54394 0 0 0-.772 1.337V16.318c.00002.271.07138.5372.20689.7719.13551.2347.33041.4296.56511.5651l7.484 4.321c.2348.1352.501.2066.772.207.2711.0005.5375-.071.772-.207l7.484-4.321c.2347-.1355.4296-.3304.5651-.5651.1355-.2347.2069-.5009.2069-.7719V7.67699c0-.27101-.0714-.53723-.2069-.77192a1.54384 1.54384 0 0 0-.5651-.56508l-7.486-4.32a1.53798 1.53798 0 0 0-.771-.203v-.004Z" fill="#9DCCED"/><path d="m7.04797 19.5701.689-1.886 1.386 1.152-1.3 1.184-.775-.45Z" fill="#213147"/><path d="M11.368 7.06299H9.46801a.33696.33696 0 0 0-.318.222L5.08301 18.435l1.963 1.133L11.525 7.28899a.16863.16863 0 0 0 .009-.07933.16891.16891 0 0 0-.0287-.07452.16794.16794 0 0 0-.1373-.07215ZM14.688 7.06299h-1.9a.33822.33822 0 0 0-.194.06085.33914.33914 0 0 0-.124.16115L7.82605 20.017l1.963 1.133L14.844 7.28999a.16825.16825 0 0 0 .009-.07923.16898.16898 0 0 0-.165-.14777Z" fill="#fff"/></g></g><defs><clipPath id="a"><path fill="#fff" d="M0 0h24v24.003H0z"/></clipPath><clipPath id="b"><path fill="#fff" d="M0 0h24v24.003H0z"/></clipPath></defs></svg>