<svg id="ic_arbitrum_24" xmlns="http://www.w3.org/2000/svg" width="24" height="24.003" viewBox="0 0 24 24.003">
  <rect id="Rectangle_179" data-name="Rectangle 179" width="24" height="24" transform="translate(0)" fill="none"/>
  <path id="Path_1467" data-name="Path 1467" d="M23.639,14.9A12,12,0,1,1,14.9.36,12,12,0,0,1,23.639,14.9h0Z" transform="translate(0 0.001)" fill="#2d374b"/>
  <g id="lg_arbitrum" transform="translate(2.927 1.816)">
    <g id="SYMBOL_VER_1-1_1_" transform="translate(0 0)">
      <g id="Symbol_-_Original_14_" transform="translate(0 0)">
        <path id="Path_348" data-name="Path 348" d="M60.186,52.93l1.5-2.539,4.033,6.281,0,1.205L65.7,49.584a.625.625,0,0,0-.289-.5l-7.26-4.176a.64.64,0,0,0-.555,0,.6.6,0,0,0-.065.038l-.025.016L50.462,49.05l-.027.012a.637.637,0,0,0-.1.061.627.627,0,0,0-.26.47l.011,6.759,3.756-5.822a2.754,2.754,0,0,1,2.46-1.007l1.123.03L50.806,60.16l.78.449,6.694-11.046,2.959-.011L54.562,60.877l2.782,1.6.332.191a.638.638,0,0,0,.448.009l7.362-4.266-1.408.816Zm.571,8.221-2.81-4.41,1.715-2.911,3.691,5.817Z" transform="translate(-48.818 -43.596)" fill="#2d374b"/>
        <path id="Path_349" data-name="Path 349" d="M237.768,261.826l2.81,4.41,2.6-1.5-3.691-5.817Z" transform="translate(-228.639 -248.681)" fill="#28a0f0"/>
        <path id="Path_350" data-name="Path 350" d="M296.665,184.454l0-1.205-4.033-6.281-1.5,2.539,3.893,6.3,1.408-.816a.624.624,0,0,0,.23-.454Z" transform="translate(-279.766 -170.172)" fill="#28a0f0"/>
        <path id="Path_351" data-name="Path 351" d="M20.219,165.738l1.988,1.145,6.614-10.608-1.123-.03a2.754,2.754,0,0,0-2.46,1.007l-3.756,5.822-1.264,1.942Z" transform="translate(-20.219 -150.32)" fill="#fff"/>
        <path id="Path_352" data-name="Path 352" d="M95.822,156.964l-2.959.011L86.17,168.021l2.34,1.347.636-1.079Z" transform="translate(-83.403 -151.008)" fill="#fff"/>
        <path id="Path_353" data-name="Path 353" d="M38.363,20.958a1.885,1.885,0,0,0-.885-1.515l-7.355-4.23a1.913,1.913,0,0,0-1.688,0c-.061.031-7.153,4.144-7.153,4.144a1.882,1.882,0,0,0-1.065,1.6v8.76l1.264-1.942-.011-6.759a.6.6,0,0,1,.009-.073.622.622,0,0,1,.251-.4c.033-.024,7.246-4.2,7.269-4.21a.64.64,0,0,1,.555,0l7.26,4.176a.625.625,0,0,1,.289.5v8.373a.61.61,0,0,1-.217.454l-1.408.816-.726.421-2.6,1.5L29.524,34.1a.638.638,0,0,1-.448-.009L25.961,32.3l-.636,1.079,2.8,1.612.243.137c.1.059.176.1.2.11a1.818,1.818,0,0,0,.743.153A1.871,1.871,0,0,0,30,35.26l7.646-4.428a1.87,1.87,0,0,0,.72-1.408Z" transform="translate(-20.218 -15.017)" fill="#96bedc"/>
      </g>
    </g>
  </g>
</svg>
