<svg height="84" viewBox="0 0 84 84" width="84" xmlns="http://www.w3.org/2000/svg"><circle cx="42" cy="42" fill="#222" r="42"/><path d="m179.395 101.809c1.455-2.513 3.8-2.513 5.258 0l9.061 15.907c1.455 2.513.265 4.564-2.646 4.564h-18.255c-2.877 0-4.068-2.05-2.646-4.564zm-17.528-30.624c1.455-2.513 3.77-2.513 5.225 0l2.017 3.638 4.762 8.367a8.693 8.693 0 0 1 0 7.573l-15.971 27.681a8.4 8.4 0 0 1 -6.548 3.836h-13.263c-2.91 0-4.1-2.017-2.646-4.564z" fill="#fff" transform="translate(-122.58 -58.717)"/></svg>