<svg id="ic_arbitrum_24" xmlns="http://www.w3.org/2000/svg" width="24" height="24.003" viewBox="0 0 24 24.003">
  <rect id="Rectangle_179" data-name="Rectangle 179" width="24" height="24" transform="translate(0 0.003)" fill="none"/>
  <path id="Path_1467" data-name="Path 1467" d="M23.64,14.905A12,12,0,1,1,14.9.36,12,12,0,0,1,23.64,14.905h0Z" transform="translate(0 -0.001)" fill="#2d374b"/>
  <g id="lg_arbitrum" transform="translate(-16.419 -12.223)">
    <g id="SYMBOL_VER_1-1_1_" transform="translate(20.218 15.017)">
      <g id="Symbol_-_Original_14_" transform="translate(0 0)">
        <path id="Path_348" data-name="Path 348" d="M59.214,52.154l1.352-2.295,3.645,5.677,0,1.09-.012-7.5a.565.565,0,0,0-.261-.45L57.378,44.9a.578.578,0,0,0-.5,0,.54.54,0,0,0-.059.034l-.023.014-6.37,3.691-.025.011a.576.576,0,0,0-.094.055.566.566,0,0,0-.235.425l.01,6.11,3.4-5.262a2.489,2.489,0,0,1,2.223-.91l1.015.027-5.979,9.588.7.406,6.05-9.984,2.674-.01L54.13,59.336l2.515,1.446.3.173a.577.577,0,0,0,.405.008L64,57.107l-1.272.737Zm.516,7.431L57.19,55.6l1.551-2.631,3.336,5.258Z" transform="translate(-48.939 -43.716)" fill="#2d374b"/>
        <path id="Path_349" data-name="Path 349" d="M237.768,261.546l2.54,3.987,2.346-1.36-3.336-5.258Z" transform="translate(-229.517 -249.664)" fill="#28a0f0"/>
        <path id="Path_350" data-name="Path 350" d="M296.133,183.735l0-1.09-3.645-5.677-1.352,2.295,3.519,5.691,1.272-.737a.564.564,0,0,0,.208-.411Z" transform="translate(-280.859 -170.826)" fill="#28a0f0"/>
        <path id="Path_351" data-name="Path 351" d="M20.219,164.826l1.8,1.035,5.979-9.588-1.015-.027a2.489,2.489,0,0,0-2.223.91l-3.4,5.262-1.142,1.755Z" transform="translate(-20.219 -150.889)" fill="#fff"/>
        <path id="Path_352" data-name="Path 352" d="M94.895,156.964l-2.674.01-6.05,9.984,2.115,1.218.575-.975Z" transform="translate(-83.669 -151.58)" fill="#fff"/>
        <path id="Path_353" data-name="Path 353" d="M36.619,20.387a1.7,1.7,0,0,0-.8-1.369l-6.648-3.823a1.73,1.73,0,0,0-1.525,0c-.056.028-6.465,3.745-6.465,3.745a1.7,1.7,0,0,0-.963,1.444V28.3l1.142-1.755-.01-6.11a.544.544,0,0,1,.008-.066.563.563,0,0,1,.227-.359c.03-.022,6.549-3.8,6.57-3.806a.578.578,0,0,1,.5,0l6.562,3.775a.565.565,0,0,1,.261.45V28a.552.552,0,0,1-.2.411l-1.272.737-.656.38-2.346,1.36L28.63,32.264a.577.577,0,0,1-.405-.008l-2.815-1.619-.575.975,2.53,1.457.219.124c.095.053.159.089.182.1a1.644,1.644,0,0,0,.672.138,1.691,1.691,0,0,0,.619-.117l6.911-4a1.69,1.69,0,0,0,.651-1.273Z" transform="translate(-20.218 -15.017)" fill="#96bedc"/>
      </g>
    </g>
  </g>
</svg>
