<svg width="24" height="24" viewBox="0 0 24 24" fill="none" xmlns="http://www.w3.org/2000/svg">
<rect width="24" height="24" rx="12" fill="black"/>
<path d="M15.7061 8.68974C15.5011 8.68974 15.3056 8.60139 15.1692 8.44785L14.4547 7.64072C14.3484 7.52065 14.1947 7.45117 14.0344 7.45117C13.874 7.45117 13.7205 7.51978 13.6141 7.64072L13.0009 8.33378C12.8001 8.56022 12.5119 8.6906 12.2091 8.6906H2.56302C2.28855 9.4737 2.10927 10.3006 2.03809 11.1592H11.1446C11.305 11.1592 11.4578 11.0939 11.5684 10.9782L12.4167 10.0938C12.5222 9.9832 12.6689 9.92057 12.8215 9.92057H12.8567C13.0171 9.92057 13.1706 9.9892 13.277 10.1102L13.9915 10.9173C14.1279 11.0708 14.3226 11.1592 14.5285 11.1592H21.9615C21.8904 10.3006 21.7112 9.4737 21.4367 8.6906L15.7061 8.68974Z" fill="white"/>
<path d="M7.5495 16.3484C7.70989 16.3484 7.86257 16.2832 7.97322 16.1674L8.82151 15.283C8.92702 15.1724 9.07368 15.1098 9.22637 15.1098H9.26153C9.42193 15.1098 9.57549 15.1784 9.68187 15.2993L10.3964 16.1065C10.5327 16.26 10.7274 16.3484 10.9332 16.3484H21.0065C21.3839 15.5687 21.6601 14.7315 21.8248 13.8558H12.1563C11.9513 13.8558 11.7558 13.7674 11.6195 13.6139L10.905 12.8068C10.7986 12.6867 10.6451 12.6172 10.4846 12.6172C10.3242 12.6172 10.1707 12.6858 10.0644 12.8068L9.45109 13.4998C9.25038 13.7263 8.96218 13.8567 8.6594 13.8567H2.17578C2.34047 14.7333 2.61665 15.5695 2.99406 16.3493L7.5495 16.3484Z" fill="white"/>
<path d="M14.696 5.99361C14.8563 5.99361 15.009 5.92843 15.1197 5.81263L15.968 4.92831C16.0735 4.81766 16.2201 4.75505 16.3728 4.75505H16.408C16.5683 4.75505 16.7219 4.82366 16.8283 4.94461L17.5428 5.75173C17.6792 5.90527 17.8738 5.99361 18.0797 5.99361H19.995C18.1706 3.5688 15.269 2 12.001 2C8.73296 2 5.83123 3.5688 4.00684 5.99361H14.696Z" fill="white"/>
<path d="M8.22859 18.8197C8.02359 18.8197 7.82803 18.7313 7.69165 18.5778L6.97716 17.7707C6.8708 17.6506 6.71726 17.5811 6.55686 17.5811C6.39646 17.5811 6.24294 17.6497 6.13658 17.7707L5.5233 18.4637C5.32259 18.6902 5.03439 18.8205 4.7316 18.8205H4.69043C6.51569 20.7762 9.11378 22.0001 12.0001 22.0001C14.8863 22.0001 17.4844 20.7762 19.3097 18.8205L8.22859 18.8197Z" fill="white"/>
</svg>
