<svg xmlns="http://www.w3.org/2000/svg" width="24" height="24.003"><path fill="none" d="M0 0h24v24H0z" data-name="Rectangle 179"/><path fill="#2d374b" d="M23.639 14.901A12 12 0 1 1 14.9.361a12 12 0 0 1 8.739 14.54Z" data-name="Path 1467"/><path fill="#2d374b" d="m14.295 11.15 1.5-2.539 4.033 6.281v1.205l-.019-8.293a.625.625 0 0 0-.289-.5l-7.26-4.176a.64.64 0 0 0-.555 0 .6.6 0 0 0-.065.038l-.025.016L4.571 7.27l-.027.012a.637.637 0 0 0-.1.061.627.627 0 0 0-.26.47l.011 6.759L7.951 8.75a2.754 2.754 0 0 1 2.46-1.007l1.123.03L4.915 18.38l.78.449 6.694-11.046 2.959-.011-6.677 11.325 2.782 1.6.332.191a.638.638 0 0 0 .448.009l7.362-4.266-1.408.816Zm.571 8.221-2.81-4.41 1.715-2.911 3.691 5.817Z" data-name="Path 348"/><path fill="#28a0f0" d="m12.056 14.961 2.81 4.41 2.6-1.5-3.691-5.817Z" data-name="Path 349"/><path fill="#28a0f0" d="M19.826 16.098v-1.205l-4.033-6.281-1.5 2.539 3.893 6.3 1.408-.816a.624.624 0 0 0 .23-.454Z" data-name="Path 350"/><path fill="#fff" d="m2.927 17.234 1.988 1.145 6.614-10.608-1.123-.03a2.754 2.754 0 0 0-2.46 1.007L4.19 14.57l-1.264 1.942Z" data-name="Path 351"/><path fill="#fff" d="m15.346 7.772-2.959.011-6.693 11.046 2.34 1.347.636-1.079Z" data-name="Path 352"/><path fill="#96bedc" d="M21.072 7.757a1.885 1.885 0 0 0-.885-1.515l-7.355-4.23a1.913 1.913 0 0 0-1.688 0c-.061.031-7.153 4.144-7.153 4.144a1.882 1.882 0 0 0-1.065 1.6v8.76l1.264-1.942-.011-6.759a.6.6 0 0 1 .009-.073.622.622 0 0 1 .251-.4c.033-.024 7.246-4.2 7.269-4.21a.64.64 0 0 1 .555 0l7.26 4.176a.625.625 0 0 1 .289.5v8.373a.61.61 0 0 1-.217.454l-1.408.816-.726.421-2.6 1.5-2.628 1.527a.638.638 0 0 1-.448-.009L8.67 19.099l-.636 1.079 2.8 1.612.243.137c.1.059.176.1.2.11a1.818 1.818 0 0 0 .743.153 1.871 1.871 0 0 0 .689-.131l7.646-4.428a1.87 1.87 0 0 0 .72-1.408Z" data-name="Path 353"/></svg>