<svg width="1em" height="1em" viewBox="0 0 24 24" fill="none" xmlns="http://www.w3.org/2000/svg">
  <g clip-path="url(#clip0_5528_257892)">
    <circle cx="12" cy="12" r="12" fill="#15182A" />
    <g clip-path="url(#clip1_5528_257892)">
      <path d="M14.9766 12.8557V8.99902H15.6999V12.8557H14.9766Z" fill="#F6A500" />
      <path
        d="M6.5501 14.0012H5V10.1445H6.48809C7.21147 10.1445 7.63206 10.5666 7.63206 11.2281C7.63206 11.6557 7.36131 11.9327 7.17427 12.0247C7.39748 12.1332 7.68373 12.377 7.68373 12.891C7.68373 13.6112 7.21044 14.0012 6.5501 14.0012ZM6.43022 10.8159H5.72235V11.7045H6.43022C6.73714 11.7045 6.90869 11.5261 6.90869 11.2602C6.90869 10.9954 6.73714 10.8159 6.43022 10.8159ZM6.47673 12.3814H5.72235V13.3298H6.47673C6.80431 13.3298 6.96036 13.1137 6.96036 12.8534C6.96036 12.593 6.80431 12.3825 6.47673 12.3825V12.3814Z"
        fill="white" />
      <path
        d="M9.88977 12.4191V14.0012H9.17156V12.4191L8.05859 10.1445H8.84398L9.53532 11.6989L10.2174 10.1445H11.0027L9.88977 12.4191Z"
        fill="white" />
      <path
        d="M13.054 14.0012H11.5039V10.1445H12.992C13.7154 10.1445 14.136 10.5666 14.136 11.2281C14.136 11.6557 13.8652 11.9327 13.6782 12.0247C13.9014 12.1332 14.1876 12.377 14.1876 12.891C14.1876 13.6112 13.7143 14.0012 13.054 14.0012ZM12.9341 10.8159H12.2263V11.7045H12.9341C13.241 11.7045 13.4126 11.5261 13.4126 11.2602C13.4126 10.9954 13.241 10.8159 12.9341 10.8159ZM12.9806 12.3814H12.2263V13.3298H12.9806C13.3082 13.3298 13.4643 13.1137 13.4643 12.8534C13.4643 12.593 13.3082 12.3825 12.9806 12.3825V12.3814Z"
        fill="white" />
      <path d="M18.0305 10.8159V14.0012H17.3081V10.8159H16.3398V10.1445H18.9988V10.8159H18.0305Z"
        fill="white" />
    </g>
  </g>
  <defs>
    <clipPath id="clip0_5528_257892">
      <rect width="24" height="24" fill="white" />
    </clipPath>
    <clipPath id="clip1_5528_257892">
      <rect width="14" height="5" fill="white" transform="translate(5 9)" />
    </clipPath>
  </defs>
</svg>
  
