<?xml version="1.0" encoding="UTF-8"?>
<svg id="Layer_2" xmlns="http://www.w3.org/2000/svg" viewBox="0 0 875.36 875.41" width="40" height="40">
  <defs>
    <style>.cls-1{fill:#262626;}.cls-2{fill:#fed866;}</style>
  </defs>
  <g id="NAtive">
    <path class="cls-2"
      d="M459.58,0l37.44,3.75c191.9,26.12,345.34,177.82,373.62,369.37l4.5,42.54c-.49,14.51.67,29.27,0,43.75-9.69,210.76-174.76,387.52-383.86,412.73C183.63,909.23-64.7,624.65,15.07,324.35,63.04,143.75,226.68,8.63,414.38,0h45.2Z" />
    <path class="cls-1"
      d="M467.58,164.1l-18.94,78,38.62,8,18.27-75.8,47.39,11.27.76,1.49-18.94,77.2c8.88,4.39,18.76,7.32,27.91,11.5,47.87,21.83,79.5,54.36,65.87,110.89-7.41,30.75-27.87,52.07-58.85,59.28,27.15,13.33,49.41,36.21,51.76,67.83,1.71,22.93-7.38,53.16-19.09,72.77-30.98,51.9-87.92,51.26-141.54,43.41-2.56-.37-15.6-3.2-16.57-2.49l-20.03,79.2-47.73-11.69,18.91-78.29-.66-.84-37.11-9.02-19.72,77.64-46.2-10.77-1.17-1.05c5.17-26.73,13.8-52.97,18.88-79.74l-95.47-23.37-.04-1.79,22.69-53.55c10.63,1.52,20.77,5.55,31.27,7.6,11.34,2.21,20.07,2.65,25.43-9.58l54.69-219.32c0-28.26-37.84-28.17-57.52-33.99l12.46-50.97,96.48,23.19,20.1-78.69,48.09,11.7ZM412.25,394.46c29.75,7.15,73.4,20.94,102.5,6.74,21.54-10.51,29.17-40.81,15.85-60.59-18.03-26.77-65.03-35.5-94.61-41.57l-23.74,95.41ZM373.61,548.32c15.43,4,30.88,8.46,46.58,11.39,31.28,5.85,85.49,12.31,99.19-25.53,13.2-36.48-16.46-58.35-45.97-70.73-23.45-9.83-48.57-14.75-73.19-20.73l-26.61,105.6Z" />
  </g>
</svg>
