<svg height="22" viewBox="0 0 22 22" width="22" xmlns="http://www.w3.org/2000/svg"><circle cx="11" cy="11" fill="#ffb11a" r="11"/><path d="m265.713 404.37h-.035a1.685 1.685 0 0 0 -.848.239v-1.992h-.81v3.5a1.7 1.7 0 1 0 1.693-1.749zm-.038 2.615a.875.875 0 1 1 .848-.866.85.85 0 0 1 -.849.866zm-7.96-2.615a1.683 1.683 0 0 0 -.866.239v-1.992h-.849v3.5a1.706 1.706 0 1 0 3.41 0 1.716 1.716 0 0 0 -1.696-1.747zm0 2.615a.869.869 0 0 1 -.866-.866.857.857 0 1 1 1.714 0 .861.861 0 0 1 -.849.866zm10.705-3.058a.363.363 0 0 0 .3-.13.381.381 0 0 0 .13-.313.363.363 0 0 0 -.13-.3.368.368 0 0 0 -.3-.13.363.363 0 0 0 -.3.13.368.368 0 0 0 -.13.3.424.424 0 0 0 .425.443m-5.029 3.962a1.739 1.739 0 0 1 -1.7 1.749v-.883a.85.85 0 0 0 .848-.866v-.239a1.662 1.662 0 0 1 -1.7 0 1.774 1.774 0 0 1 -.848-1.51v-1.749h.848v1.749a.891.891 0 0 0 .626.848.917.917 0 0 0 .2.024.869.869 0 0 0 .866-.866v-1.755h.848zm7.316-5.289v1.749h.423v.883h-.423v2.618h-.83v-2.618h-.423v-.883h.423v-1.749zm-2.783 1.714h.848v3.5h-.848z" fill="#fff" transform="translate(-252.564 -394.912)"/></svg>