<svg width="20" height="20" viewBox="0 0 20 20" fill="none" xmlns="http://www.w3.org/2000/svg">
<path d="M10 1.66699C14.6024 1.66699 18.3334 5.39795 18.3334 10.0003C18.3334 14.6027 14.6024 18.3337 10 18.3337C5.39765 18.3337 1.66669 14.6027 1.66669 10.0003C1.66669 7.66916 2.62389 5.56157 4.16669 4.04913" stroke="currentColor"/>
<path d="M4.16669 10.0003C4.16669 13.222 6.77836 15.8337 10 15.8337C13.2217 15.8337 15.8334 13.222 15.8334 10.0003C15.8334 6.77866 13.2217 4.16699 10 4.16699" stroke="currentColor"/>
<path d="M10 13.3337C11.8409 13.3337 13.3333 11.8413 13.3333 10.0003C13.3333 8.15938 11.8409 6.66699 10 6.66699" stroke="currentColor"/>
</svg>
