<svg xmlns="http://www.w3.org/2000/svg" width="30" height="30" fill="none"><g clip-path="url(#a)"><path fill="#fff" d="M15 25c5.523 0 10-4.477 10-10S20.523 5 15 5 5 9.477 5 15s4.477 10 10 10Z"/><path fill="#000" d="M15 4a11 11 0 0 0-6.776 19.665l3.863-13.454a3.61 3.61 0 0 1 7.128 1.054c0 .054-.01.107-.017.16l-.005.04c-.007.053-.015.1-.025.157v.009a2.64 2.64 0 0 1-.03.145l-.01.045c-.01.046-.023.092-.036.137v.014c-.108.375-.277.73-.5 1.051l-.575-.378a4.872 4.872 0 0 0-1.5-.451c.029-.02.056-.043.083-.066.243-.205.414-.482.49-.79v-.005c.009-.036.016-.072.022-.108v-.019a1.517 1.517 0 0 0-1.499-1.748 1.512 1.512 0 0 0-1.405.958l-2.572 8.958-1.568 5.464A11 11 0 1 0 15 4.004V4Zm5.373 13.4a4.551 4.551 0 0 1-3.6 4.078h-.012c-.1.02-.195.037-.294.051h-.01a3.804 3.804 0 0 1-.264.027h-.065a4.37 4.37 0 0 1-.653-.005 4.524 4.524 0 0 1-2.978-1.461l.744-2.746a2.786 2.786 0 0 0 2.4 2.119c.075.006.149.008.223.007h.048c.071 0 .141-.007.211-.014l.042-.006a2.448 2.448 0 0 0-.326-4.874c-.114 0-.525.01-.636.025v-2.1a9.279 9.279 0 0 1 1.009 0 4.549 4.549 0 0 1 4.161 4.899Z"/><path fill="#3E4062" d="M30 22a8 8 0 1 0-16 0 8 8 0 0 0 16 0Z"/><path fill="#1E1F37" d="M22 15a7 7 0 1 0 0 14 7 7 0 0 0 0-14Zm0-1a8 8 0 1 1 0 16 8 8 0 0 1 0-16Z"/><path fill="#213147" d="M17.708 19.937v4.136a.738.738 0 0 0 .37.64l3.582 2.068a.74.74 0 0 0 .739 0l3.582-2.068a.738.738 0 0 0 .37-.64v-4.136a.737.737 0 0 0-.37-.64l-3.583-2.067a.74.74 0 0 0-.739 0l-3.583 2.068a.737.737 0 0 0-.368.639Z"/><path fill="#12AAFF" d="m22.809 22.806-.511 1.4a.18.18 0 0 0 0 .12l.879 2.41 1.016-.587-1.22-3.344a.086.086 0 0 0-.082-.058.087.087 0 0 0-.082.059ZM23.835 20.45a.087.087 0 0 0-.164 0l-.511 1.4a.182.182 0 0 0 0 .12l1.44 3.946 1.016-.587-1.781-4.879Z"/><path fill="#9DCCED" d="M22.028 17.384c.026 0 .05.007.073.019l3.876 2.238a.146.146 0 0 1 .073.126v4.475a.145.145 0 0 1-.073.126l-3.876 2.238a.144.144 0 0 1-.073.019.154.154 0 0 1-.073-.019l-3.876-2.236a.146.146 0 0 1-.073-.126v-4.476a.146.146 0 0 1 .073-.126l3.876-2.238a.145.145 0 0 1 .073-.02Zm0-.654a.8.8 0 0 0-.4.107l-3.875 2.237a.8.8 0 0 0-.4.693v4.475a.8.8 0 0 0 .4.693l3.876 2.238a.801.801 0 0 0 .8 0l3.876-2.238a.8.8 0 0 0 .4-.693v-4.475a.8.8 0 0 0-.4-.693l-3.877-2.237a.799.799 0 0 0-.4-.107Z"/><path fill="#213147" d="m19.464 25.924.357-.977.718.6-.671.613-.404-.236Z"/><path fill="#fff" d="M21.701 19.447h-.983a.175.175 0 0 0-.164.115l-2.106 5.775 1.016.587 2.324-6.359a.087.087 0 0 0-.087-.118ZM23.421 19.447h-.983a.176.176 0 0 0-.165.115l-2.405 6.594 1.016.587 2.618-7.178a.087.087 0 0 0-.01-.08.09.09 0 0 0-.071-.038Z"/></g><defs><clipPath id="a"><path fill="#fff" d="M0 0h30v30H0z"/></clipPath></defs></svg>