<svg xmlns="http://www.w3.org/2000/svg" width="88.935" height="104.207" viewBox="0 0 88.935 104.207">
  <path id="ic_bsc" d="M217.919,385.1v11.679l-10.181,5.988-9.882-5.988V385.1l9.882,5.989Zm-54.5-40.425,9.882,5.989v20.063l17.068,10.181v11.679l-26.95-15.871Zm88.635,0v32.041l-27.249,15.871V380.907l17.068-10.181V350.664ZM224.806,328.8l10.181,5.988v11.679l-17.068,10.181v20.363L208.037,383l-9.882-5.988V356.652l-17.667-10.181V334.793l10.181-5.988,17.069,10.181Zm-44.318,26.052,9.882,5.988v11.679l-9.882-5.988Zm54.5,0v11.679l-9.882,5.988V360.844ZM173.3,318.623l10.181,5.989L173.3,330.6v11.679l-9.882-5.988V324.612Zm68.873,0,10.181,5.989v11.679l-10.181,5.988V330.6l-9.882-5.988Zm-34.436,0,10.181,5.989L207.738,330.6l-9.882-5.988Zm0-20.063,27.249,15.871-9.882,5.988-17.068-10.181L190.669,320.42l-9.882-5.988Z" transform="translate(-163.42 -298.56)" fill="#f3ba2f"/>
</svg>
