<svg xmlns="http://www.w3.org/2000/svg" width="24" height="24" fill="none" viewBox="0 0 24 24">
  <g clip-path="url(#a)">
    <path fill="#000" d="M0 12C0 5.373 5.373 0 12 0s12 5.373 12 12-5.373 12-12 12S0 18.627 0 12Z" />
    <path fill="#f00"
      d="M11.062.004C8.452.237 6.145 1.199 4.171 2.87a15.949 15.949 0 0 0-1.535 1.587C1.204 6.253.359 8.273.064 10.598c-.076.593-.086 2.07-.02 2.643.34 2.881 1.53 5.34 3.55 7.318a11.66 11.66 0 0 0 4.134 2.658 12.04 12.04 0 0 0 8.173.134 12.044 12.044 0 0 0 5.738-4.193c1.236-1.645 2.03-3.633 2.3-5.78.073-.593.083-2.073.018-2.643-.282-2.383-1.147-4.468-2.61-6.301-.354-.44-1.14-1.24-1.604-1.632-1.82-1.535-4.017-2.475-6.455-2.764-.42-.051-1.81-.072-2.226-.034Zm1.858 3.574c1.793.193 3.565 1.024 4.886 2.29a8.44 8.44 0 0 1 0 12.24 8.472 8.472 0 0 1-4.944 2.296c-.577.059-1.765.024-2.3-.072-3.091-.546-5.598-2.678-6.597-5.614-.21-.615-.412-1.556-.412-1.91v-.133h12.533v-1.408H3.553v-.117c0-.158.12-.865.209-1.222.807-3.238 3.513-5.738 6.803-6.28.233-.039.484-.076.56-.083.319-.028 1.486-.02 1.795.013Z" />
  </g>
  <defs>
    <clipPath id="a">
      <path fill="#fff" d="M0 12C0 5.373 5.373 0 12 0s12 5.373 12 12-5.373 12-12 12S0 18.627 0 12Z" />
    </clipPath>
  </defs>
</svg>