<svg viewBox="0 0 20 20" fill="none" xmlns="http://www.w3.org/2000/svg">
  <g clip-path="url(#clip0_1678_83337)">
    <circle cx="10" cy="10" r="10" fill="#121420" />
    <path
      d="M9.99998 2.85355C10.9652 2.85355 11.901 3.04238 12.7814 3.41502C13.2044 3.59379 13.6131 3.81536 13.9949 4.07385C14.3735 4.32983 14.7293 4.62358 15.0533 4.9467C15.3772 5.27066 15.671 5.62652 15.9261 6.00503C16.1838 6.38689 16.4062 6.79564 16.585 7.21865C16.9576 8.09905 17.1464 9.03483 17.1464 9.99998C17.1464 10.9652 16.9576 11.901 16.585 12.7814C16.4062 13.2044 16.1846 13.6131 15.9261 13.9949C15.6701 14.3735 15.3764 14.7293 15.0533 15.0533C14.7293 15.3772 14.3735 15.671 13.9949 15.9261C13.6131 16.1846 13.2044 16.4062 12.7814 16.585C11.901 16.9576 10.9652 17.1464 9.99998 17.1464C9.03482 17.1464 8.09904 16.9576 7.21862 16.585C6.79564 16.4062 6.3869 16.1846 6.00503 15.9261C5.62652 15.6701 5.27067 15.3764 4.94671 15.0533C4.62274 14.7293 4.32899 14.3735 4.07386 13.9949C3.8162 13.6131 3.59379 13.2044 3.41502 12.7814C3.04238 11.901 2.85354 10.9652 2.85354 9.99998C2.85354 9.03483 3.04238 8.09905 3.41502 7.21865C3.59379 6.79564 3.81536 6.38689 4.07386 6.00503C4.32983 5.62652 4.62358 5.27066 4.94671 4.9467C5.27067 4.62274 5.62652 4.329 6.00503 4.07385C6.3869 3.81536 6.79564 3.59379 7.21862 3.41502C8.09904 3.04238 9.03482 2.85355 9.99998 2.85355ZM9.99998 2C5.5812 2 2 5.5812 2 9.99998C2 14.4188 5.5812 18 9.99998 18C14.4188 18 18 14.4188 18 9.99998C18 5.5812 14.418 2 9.99998 2Z"
      fill="white" />
    <path
      d="M8.34238 5.39693C8.69674 5.33398 9.02558 5.40077 9.28613 5.67271C9.45684 5.85054 9.54599 6.06599 9.54941 6.31255C9.55274 6.51732 9.54941 6.72321 9.54941 6.9313H10.6268C10.6268 6.91885 10.6283 6.90559 10.6283 6.89146V6.3313C10.63 5.80171 11.0481 5.38322 11.5768 5.37818C11.7593 5.37652 11.9362 5.39402 12.0986 5.48209C12.4318 5.66334 12.6057 5.94517 12.615 6.32427C12.6201 6.52481 12.6158 6.72563 12.6158 6.93287H14.0158C14.2772 6.93287 14.4509 7.10781 14.4744 7.3688C14.4945 7.59201 14.4372 7.79617 14.3635 8.00005C14.2873 8.21146 14.1782 8.40977 14.0393 8.58599C13.9295 8.72518 13.8063 8.85553 13.6799 8.98052C13.5158 9.14158 13.3429 9.29413 13.1713 9.44849C13.0775 9.53237 12.9937 9.62415 12.94 9.73912C12.925 9.77175 12.912 9.81025 12.9119 9.84537C12.9102 10.7048 12.9137 11.5648 12.9096 12.4243C12.9044 13.4573 12.1418 14.3779 11.1299 14.5743C10.9733 14.6036 10.8148 14.6195 10.6557 14.6204C10.2108 14.6262 9.76607 14.6228 9.32129 14.6219C8.23552 14.6219 7.32549 13.88 7.11269 12.8149C7.08512 12.6674 7.07124 12.5181 7.07207 12.368C7.06785 11.5304 7.06976 10.6923 7.06894 9.85552C7.06893 9.82952 7.06341 9.80319 7.05254 9.77974C6.98466 9.62207 6.8648 9.5063 6.74004 9.39302C6.5717 9.24031 6.40505 9.08582 6.24004 8.92974C6.04736 8.74761 5.87508 8.54756 5.74941 8.31255C5.60882 8.04923 5.48934 7.77579 5.48926 7.46802C5.48926 7.39838 5.49683 7.32897 5.51191 7.26099C5.55889 7.06566 5.73211 6.93382 5.93379 6.93287H7.56035L7.56191 6.93443V6.34459C7.56196 5.86799 7.87339 5.47927 8.34238 5.39693ZM9.10957 7.88287H7.39707C7.2873 7.88287 7.19253 7.95742 7.17832 8.06568C7.16916 8.12765 7.16982 8.19121 7.18066 8.25318C7.21838 8.44534 7.30221 8.61909 7.43535 8.76177C7.56853 8.90442 7.71456 9.03109 7.84941 9.16959C7.95159 9.27364 8.01656 9.39806 8.0166 9.55162C8.01575 10.4899 8.01575 11.4282 8.0166 12.3665C8.0166 12.4328 8.01993 12.4995 8.0291 12.5649C8.12379 13.2094 8.66343 13.6742 9.31347 13.6743H10.6533C10.7195 13.6743 10.7856 13.671 10.8518 13.6626C11.4893 13.5744 11.9642 13.0298 11.965 12.3852C11.965 12.2293 11.9633 12.0725 11.9658 11.9165C11.9658 11.8804 11.9557 11.8649 11.9205 11.854C11.5913 11.7533 11.2761 11.6095 10.9838 11.4274C10.3121 11.0095 9.79682 10.449 9.46347 9.72662C9.30343 9.37998 9.1942 9.01778 9.15566 8.63755C9.13054 8.3883 9.12541 8.13726 9.11035 7.8813L9.10957 7.88287ZM11.4799 9.96881C11.2455 9.9664 11.0537 10.1543 11.0502 10.3891C11.0477 10.6241 11.2353 10.8169 11.4689 10.8204H11.4697C11.7035 10.8237 11.8953 10.6358 11.8978 10.4016V10.3993H11.8986C11.901 10.1644 11.7135 9.97217 11.4799 9.96881ZM8.85644 9.96802C9.09018 9.96804 9.27835 10.1597 9.27754 10.393V10.3946L9.27676 10.3954C9.27586 10.6303 9.08531 10.8195 8.85176 10.8188C8.61729 10.818 8.42766 10.6271 8.42832 10.3922C8.42917 10.1572 8.62028 9.96721 8.85488 9.96802H8.85644Z"
      fill="white" />
  </g>
  <defs>
    <clipPath id="clip0_1678_83337">
      <rect width="20" height="20" fill="white" />
    </clipPath>
  </defs>
</svg>
