<svg width="22" height="22" fill="none" xmlns="http://www.w3.org/2000/svg"><g clip-path="url(#a)" fill="#F3BA2F"><path d="M6.728 9.245 11 4.973l4.278 4.274 2.486-2.486L11 0 4.242 6.759l2.486 2.486ZM2.486 8.514 4.972 11l-2.486 2.486L0 11l2.486-2.486ZM6.728 12.757 11 17.029l4.275-4.272 2.487 2.485-6.761 6.761-6.759-6.758 2.486-2.488ZM22.001 11.001l-2.486 2.486-2.486-2.486 2.486-2.486L22 11Z"/><path d="m13.523 10.996-2.522-2.52-1.864 1.864-.214.214-.442.442 2.52 2.52 2.523-2.523-.001.003Z"/></g><defs><clipPath id="a"><path fill="#fff" d="M0 0h22v22H0z"/></clipPath></defs></svg>