<svg width="40" height="40" viewBox="0 0 40 40" fill="none" xmlns="http://www.w3.org/2000/svg">
<rect width="40" height="40" rx="20" fill="#EC9F06"/>
<path d="M20 36.6667C28.9418 36.6667 36.1905 29.4178 36.1905 20.476C36.1905 11.5343 28.9418 4.28558 20 4.28558C11.0582 4.28558 3.8094 11.5343 3.8094 20.476C3.8094 29.4178 11.0582 36.6667 20 36.6667Z" fill="#FFDD02"/>
<path d="M21.6937 32.1907C12.9698 22.4667 15.0746 17.2382 10.8079 12.7714C10.465 14.819 10.4746 14.3714 10.4746 17.019C10.4746 19.419 10.5508 19.2477 9.86503 21.2287C9.10312 23.4287 8.08407 26.7048 8.83645 29.2C9.21742 30.4762 10.1507 31.0762 11.4365 31.4382C12.6936 31.7907 13.5984 32.4095 14.7508 32.8667C15.9984 33.362 16.6935 33.9333 18.5985 33.7812C19.646 33.7048 21.3223 32.8478 21.6937 32.1812V32.1907Z" fill="#3A2A0C"/>
<path d="M10.8089 12.7714C10.9994 12.9809 10.9327 12.8285 10.9232 13.6475C10.9232 14.7333 11.0947 15.4857 11.2566 16.5239C11.3708 17.1905 11.428 17.4477 11.428 17.6382C11.428 17.9428 11.2566 18.1428 10.6661 19.819C10.1899 21.2095 9.53273 23.181 9.52322 24.981C9.51368 26.762 10.1327 28.3907 11.9328 29.1428C12.5423 29.3907 12.9137 29.5048 13.5994 29.6C14.6756 29.762 14.6661 29.4857 15.409 30.0287C16.5899 30.9143 18.228 31.8382 19.8187 32.1143C20.409 32.2095 21.3423 32.1143 21.6947 32.181C22.5137 31.781 23.2662 31.5907 23.809 30.9523C21.6947 24.2857 14.4375 16.0952 11.6661 11.9047H11.3137L10.8089 12.7714Z" fill="#895729"/>
<path d="M23.8087 30.9525C18.285 27.9715 16.8182 22.4573 14.5705 16.8952L14.6657 16.7905C14.0181 16.981 14.58 16.8857 13.9991 17.2285C12.6467 18.0477 13.6467 18.0095 13.1991 18.9428C12.2181 20.9907 11.3229 22.8 11.4276 25.1523C11.58 28.5715 19.3517 31.8573 22.3038 31.6C22.7992 31.562 23.4467 31.1525 23.8087 30.9525Z" fill="#A86617"/>
<path d="M14.5706 16.8952C14.9135 16.9905 14.6945 18.6095 14.6945 19.1143C14.5992 20.9523 13.8468 21.019 14.8183 21.0857C19.9993 26.6667 28.2852 19.3048 29.2373 20.2952C28.4755 18.419 27.7707 16.7428 26.504 15.1809C25.5518 14 21.4468 12.6095 21.0755 11.9428C20.6468 11.1619 19.2563 7.80945 17.9135 8.11422C17.561 8.19042 17.666 8.2285 17.5327 8.41899C18.2373 10.5142 18.485 13.7047 15.6468 13.8095C14.7611 12.7809 13.9611 11.7333 12.7421 11.0761C12.5821 10.9968 12.4063 10.9545 12.2278 10.9523C11.8659 10.9523 11.504 11.5238 11.3135 11.9047H11.6659C12.8945 13.7619 13.8754 14 14.5706 16.8952Z" fill="#F59935"/>
<path d="M23.8083 30.9525C24.8845 30.5525 25.7988 28.6667 26.3797 27.7333C19.9892 29.0478 14.9987 21.3907 14.5701 20.9907C14.732 20.2477 15.0082 17.0095 14.5701 16.8952C13.6939 17.5332 14.1416 17.6095 13.9987 18.8C13.932 19.2953 13.8273 19.2477 13.6368 19.6287C13.2082 20.4667 12.3701 22.7333 12.3796 24.4C12.4082 27.9812 18.1512 30.8287 21.1417 30.9525C22.113 30.9907 23.1035 30.7907 23.8083 30.9525Z" fill="#DA8515"/>
<path d="M26.3797 27.7242C26.9893 27.4383 27.3417 27.4575 27.675 26.905C24.0273 27.248 15.9988 25.9622 13.713 22.0002C13.4463 22.2955 13.3035 22.7242 13.3321 23.143C13.4749 25.1147 15.5416 27.2193 17.3605 27.648C19.0558 28.0383 20.5322 28.0955 22.0368 28.0955C23.3988 28.0955 24.7893 28.0575 26.3702 27.7242H26.3797Z" fill="#727070"/>
<path d="M13.7134 22C12.8753 26.5428 20.0563 27.1428 22.9802 27.1428C24.5802 27.1428 26.1038 27.0477 27.6755 26.9048C28.685 26.4095 29.2372 24.6287 29.3422 23.6667C25.8943 26.819 17.18 25.4477 14.8182 21.0857L14.5515 21.0667C14.5325 21.0857 14.4944 21.0857 14.4848 21.1143L14.2848 21.2573C13.9801 21.4573 13.9039 21.562 13.7134 22Z" fill="#B0B0B0"/>
<path d="M14.866 16.4666C17.0662 16.2761 16.0279 15.1715 15.266 14.6381L13.4374 12.8571C13.0565 12.9143 12.6946 12.9429 12.3898 13.1333C12.3613 14.4286 12.5327 15.8095 13.1708 16.6477C14.2946 16.7143 14.2089 16.5906 14.866 16.4666Z" fill="#ECB595"/>
<path d="M14.8196 21.0857C14.2196 21.5238 13.8006 21.8762 14.372 22.9143C15.2196 24.4762 16.6863 25.0762 18.2958 25.6477C19.534 26.0285 23.334 26.1905 25.7245 26.1905H27.1053C27.9912 25.5143 28.5625 24.381 29.3437 23.6572C29.5625 23.4477 29.5245 22.3428 29.5245 21.981C29.5245 21.0477 29.3912 21.0382 29.2387 20.2952C28.9912 19.7998 28.5912 19.5427 28.0958 19.5427C27.3532 19.5427 26.877 19.581 26.1148 19.7998C24.1625 20.3523 21.5053 22.4285 19.5245 22.381C17.8673 22.3428 16.6386 21.0285 14.8196 21.0857Z" fill="#F4F4F4"/>
<path d="M16.6187 13.8476C16.6567 14.2666 16.8662 14.019 17.8662 14.1714C18.3425 14.2476 18.79 14.2761 19.3425 14.2761C19.7995 13.1714 19.0567 14.1142 20.352 13.4476C19.9995 13.2 19.628 13.5142 19.1425 13.219C18.5708 12.8761 18.4758 10.2285 18.5233 9.79041C18.5042 9.77136 18.4662 9.72374 18.4567 9.74279L18.2375 9.54279C18.1138 9.39041 18.1138 9.33328 18.028 9.14278C17.99 9.04754 17.8853 8.79041 17.8375 8.73324L17.5425 8.41898C16.5329 10.0571 16.7805 11.7999 16.6187 13.8476Z" fill="#985B17"/>
<path d="M26.6175 23.3333C28.7888 20.8952 27.0363 19.9715 25.0175 20.7332C24.2363 21.0285 23.3602 21.7143 24.0745 22.4857C24.4175 22.8573 25.7888 23.381 26.6175 23.3333Z" fill="#2C2B2A"/>
<path d="M18.1232 9.69516C18.047 10.1904 18.0278 13.3047 19.047 13.7904C20.9423 13.9428 21.3708 13.3523 20.5613 12.019C19.949 10.9706 19.2478 9.97646 18.4662 9.04755C18.2757 9.35233 18.4278 9.37136 18.1232 9.69516Z" fill="#ECB595"/>
<path d="M22.8662 16.3619C22.6375 17.6287 25.4853 18.124 25.6947 16.9715C25.9805 15.4572 23.0567 15.381 22.8662 16.3619Z" fill="#E8E8E8"/>
<path d="M18.094 20.6287C18.5798 22.0383 20.9132 21.324 20.9515 20.4478C20.9798 19.7812 19.6465 19.1428 19.3037 19.8C18.7798 20.7907 18.6085 20.162 18.094 20.6287ZM22.8562 19.7145C23.0752 20.3333 23.4182 20.5333 24.3323 20.4667C24.6465 20.4383 24.9037 20.3717 25.1895 20.1812C25.5703 19.9525 25.599 19.8953 25.7132 19.3525C25.3323 18.4953 24.5037 18.4953 24.2275 18.6382C23.5228 18.9715 24.4657 18.8095 23.6942 19.3525C23.4848 19.4953 23.1323 19.4287 22.8562 19.705V19.7145Z" fill="#131011"/>
<path d="M17.885 17.7428C17.0277 17.1618 15.6372 18.8477 16.4276 19.3715C17.4563 20.0665 18.561 18.1905 17.885 17.7428Z" fill="#E8E8E8"/>
<path d="M23.8095 4.91429C23.8095 7.06668 23.8095 9.04764 23.2475 9.04764C22.5523 9.04764 22.3237 8.17146 22.0095 6.07621C21.695 4.00953 22.1045 3.33333 22.7237 3.33333C23.3332 3.33333 23.8095 3.83811 23.8095 4.91429Z" fill="url(#paint0_linear_237_83)"/>
<path d="M22.8575 11.9048C23.3835 11.9048 23.81 11.4784 23.81 10.9524C23.81 10.4264 23.3835 10 22.8575 10C22.3315 10 21.9052 10.4264 21.9052 10.9524C21.9052 11.4784 22.3315 11.9048 22.8575 11.9048Z" fill="url(#paint1_linear_237_83)"/>
<path d="M29.2667 6.41897C28.3523 8.41899 27.5237 10.2571 27.038 9.97137C26.438 9.60945 26.619 8.67612 27.2283 6.56182C27.838 4.47609 28.4762 4.06655 29 4.38085C29.5333 4.69514 29.7237 5.41897 29.2667 6.41897Z" fill="url(#paint2_linear_237_83)"/>
<path d="M26.5608 12.3428C26.5033 12.4541 26.4243 12.553 26.3288 12.6338C26.233 12.7146 26.1222 12.7758 26.0028 12.8138C25.7617 12.8906 25.5 12.8685 25.2753 12.7523C25.0503 12.6361 24.881 12.4354 24.8042 12.1943C24.7273 11.9531 24.7495 11.6914 24.8657 11.4666C24.982 11.2418 25.1827 11.0723 25.4237 10.9955C25.6648 10.9187 25.9267 10.9409 26.1515 11.0571C26.3762 11.1733 26.5457 11.374 26.6223 11.6151C26.6993 11.8562 26.677 12.118 26.5608 12.3428Z" fill="url(#paint3_linear_237_83)"/>
<path d="M33.4188 10.1333C31.6188 11.2381 29.971 12.2571 29.6472 11.7905C29.2377 11.2095 29.8377 10.5714 31.4092 9.21902C32.9522 7.90474 33.7522 7.90474 34.1043 8.40949C34.4663 8.92379 34.314 9.58092 33.4188 10.1333Z" fill="url(#paint4_linear_237_83)"/>
<path d="M29.0948 13.6572C28.9898 13.726 28.8723 13.7734 28.7488 13.7967C28.6255 13.8201 28.4988 13.8189 28.3757 13.7933C28.2528 13.7676 28.1362 13.718 28.0323 13.6473C27.9285 13.5765 27.8398 13.4861 27.771 13.381C27.7023 13.2759 27.6548 13.1584 27.6315 13.035C27.6082 12.9116 27.6092 12.7848 27.635 12.6619C27.6605 12.539 27.7103 12.4223 27.781 12.3185C27.8517 12.2148 27.9422 12.126 28.0472 12.0572C28.2595 11.9182 28.5182 11.8693 28.7663 11.9211C29.0145 11.9729 29.2322 12.1212 29.371 12.3334C29.5098 12.5455 29.559 12.8042 29.5072 13.0525C29.4555 13.3007 29.307 13.5183 29.0948 13.6572Z" fill="url(#paint5_linear_237_83)"/>
<path d="M20.1717 13.5905C20.1813 13.3429 20.305 13.1143 20.5337 13.0191C20.7622 12.9238 21.0195 13 21.1717 13.2C21.5147 13.6286 21.8955 13.9429 22.4288 14.0477C22.667 14.0953 22.8575 14.2762 22.8575 14.5239C22.8575 14.7524 22.667 14.9524 22.4288 14.9143C22.307 14.8996 22.1862 14.8773 22.067 14.8477C21.4955 14.6953 20.6955 14.9143 20.305 15.3715C19.6383 16.1524 18.5908 16.6666 17.6003 16.6666C16.667 16.6666 15.9717 16.3524 15.5527 16.0477C15.3622 15.9048 15.3908 15.6286 15.5717 15.4762C15.7528 15.3239 16.0288 15.3429 16.2384 15.4667C16.5241 15.6286 16.9813 15.8096 17.6003 15.8096C18.7813 15.8096 20.0955 14.8096 20.1717 13.5905Z" fill="#FCDCA3" fill-opacity="0.62"/>
<defs>
<linearGradient id="paint0_linear_237_83" x1="5.48597" y1="25.4445" x2="34.0975" y2="8.946" gradientUnits="userSpaceOnUse">
<stop offset="0.07" stop-color="#6C1A1C"/>
<stop offset="0.47" stop-color="#DE1A26"/>
</linearGradient>
<linearGradient id="paint1_linear_237_83" x1="5.42887" y1="25.5" x2="26.7338" y2="5.45065" gradientUnits="userSpaceOnUse">
<stop offset="0.07" stop-color="#6C1A1C"/>
<stop offset="0.47" stop-color="#DE1A26"/>
</linearGradient>
<linearGradient id="paint2_linear_237_83" x1="4.96854" y1="22.2723" x2="25.491" y2="32.0667" gradientUnits="userSpaceOnUse">
<stop offset="0.07" stop-color="#6C1A1C"/>
<stop offset="0.47" stop-color="#DE1A26"/>
</linearGradient>
<linearGradient id="paint3_linear_237_83" x1="4.64631" y1="17.8372" x2="32.4042" y2="9.95282" gradientUnits="userSpaceOnUse">
<stop offset="0.07" stop-color="#6C1A1C"/>
<stop offset="0.47" stop-color="#DE1A26"/>
</linearGradient>
<linearGradient id="paint4_linear_237_83" x1="10.6134" y1="17.817" x2="23.9717" y2="28.8295" gradientUnits="userSpaceOnUse">
<stop offset="0.07" stop-color="#6C1A1C"/>
<stop offset="0.47" stop-color="#DE1A26"/>
</linearGradient>
<linearGradient id="paint5_linear_237_83" x1="7.58298" y1="10.3723" x2="35.7207" y2="16.656" gradientUnits="userSpaceOnUse">
<stop offset="0.07" stop-color="#6C1A1C"/>
<stop offset="0.47" stop-color="#DE1A26"/>
</linearGradient>
</defs>
</svg>
