<svg width="1em" height="1em" viewBox="0 0 24 24" fill="none" xmlns="http://www.w3.org/2000/svg">
  <path
    d="M6.08082 12.0002L3.66162 14.4194L1.19922 12.0002L3.66162 9.5378L6.08082 12.0002ZM11.9992 6.0818L16.1896 10.2722L18.652 7.80979L11.9992 1.2002L5.38962 7.80979L7.85202 10.2722L11.9992 6.0818ZM20.3368 9.5378L17.9176 12.0002L20.38 14.4626L22.7992 12.0002L20.3368 9.5378ZM11.9992 17.9186L7.80882 13.7282L5.34642 16.1906L11.9992 22.8002L18.6088 16.1906L16.1896 13.7282L11.9992 17.9186ZM11.9992 14.4194L14.4616 11.957L11.9992 9.5378L9.53682 12.0002L11.9992 14.4194Z"
    fill="#F0B90B" />
</svg>
  
