<svg xmlns="http://www.w3.org/2000/svg" width="22" height="22" fill="none"><g clip-path="url(#a)"><path fill="#fff" d="M0 3.781A3.781 3.781 0 0 1 3.781 0H18.22A3.781 3.781 0 0 1 22 3.781V18.22A3.781 3.781 0 0 1 18.219 22H3.78A3.781 3.781 0 0 1 0 18.219V3.78Z"/><path fill="#121214" d="M3.577 14.308H1.461V9.243h2.03c.988 0 1.563.555 1.563 1.423 0 .562-.369.924-.624 1.045.305.143.696.463.696 1.139 0 .946-.647 1.458-1.549 1.458Zm-.163-4.183h-.966v1.167h.966c.419 0 .653-.234.653-.583s-.234-.584-.653-.584Zm.064 2.056h-1.03v1.245h1.03c.447 0 .66-.285.66-.625 0-.342-.213-.62-.66-.62ZM8.136 12.23v2.078h-.98v-2.077L5.638 9.243H6.71l.944 2.042.93-2.042h1.072l-1.52 2.988ZM12.454 14.308h-2.116V9.243h2.031c.987 0 1.562.555 1.562 1.423 0 .562-.369.924-.624 1.045.306.143.696.463.696 1.139 0 .946-.647 1.458-1.549 1.458Zm-.163-4.183h-.966v1.167h.966c.42 0 .653-.234.653-.583s-.234-.584-.653-.584Zm.064 2.056h-1.03v1.245h1.03c.447 0 .66-.285.66-.625 0-.342-.213-.62-.66-.62Z"/><path fill="#F7A600" d="M16.07 7.691h-.988v5.066h.987V7.69Z"/><path fill="#121214" d="M19.25 10.125v4.183h-.986v-4.183h-1.321v-.882h3.628v.882h-1.32Z"/></g><defs><clipPath id="a"><rect width="22" height="22" fill="#fff" rx="11"/></clipPath></defs></svg>