<svg width="24" height="24" viewBox="0 0 24 24" fill="none" xmlns="http://www.w3.org/2000/svg">
<g clip-path="url(#clip0_225_1089)">
<g clip-path="url(#clip1_225_1089)">
<path d="M12 24C18.6274 24 24 18.6274 24 12C24 5.37258 18.6274 0 12 0C5.37258 0 0 5.37258 0 12C0 18.6274 5.37258 24 12 24Z" fill="#50832B"/>
<path d="M12.1828 10.4017C12.1828 10.4017 7.86094 7.72043 4.73438 11.297C4.73438 11.2923 7.44375 14.8407 12.1828 10.4017Z" fill="white"/>
<path d="M7.65474 12.7641C7.54224 12.7641 7.42974 12.7594 7.31724 12.75C5.59692 12.6094 4.67349 11.4235 4.6313 11.3719L4.56567 11.2875L4.63599 11.2078C5.36724 10.3735 6.22036 9.80628 7.1813 9.52035C7.94536 9.29066 8.77974 9.24378 9.65161 9.37503C11.1329 9.60003 12.2063 10.261 12.2532 10.2844L12.3938 10.3735L12.2719 10.486C10.6594 12 9.10786 12.7641 7.65474 12.7641ZM4.90317 11.2969C5.13755 11.5594 5.98599 12.3844 7.34067 12.4969C8.77974 12.6141 10.336 11.9203 11.9625 10.4297C11.6204 10.2469 10.7204 9.80628 9.60005 9.63753C8.76567 9.51097 7.97349 9.55785 7.24692 9.77816C6.37036 10.0313 5.58286 10.5422 4.90317 11.2969Z" fill="black"/>
<path d="M20.0765 8.58276C20.0765 8.58276 18.1125 6.43589 12.45 10.3406L15.5484 11.114H17.3343L18.5859 10.6968L19.4484 10.0734L20.0765 8.58276Z" fill="white" stroke="black" stroke-width="0.244898" stroke-miterlimit="10"/>
<path d="M11.3766 10.7905C11.3766 11.5312 10.4766 12.1265 9.36567 12.1265C8.25474 12.1265 7.35474 11.5265 7.35474 10.7905C7.35474 10.0546 8.25474 9.45459 9.36567 9.45459C10.4766 9.45459 11.3766 10.0499 11.3766 10.7905Z" fill="black"/>
<path d="M7.63124 12.9422C7.11562 12.9422 6.61406 12.8484 6.14531 12.6609C5.37187 12.3562 4.61249 11.7797 3.89531 10.9547C3.85781 10.9125 3.80624 10.8515 3.77812 10.7672C3.69843 10.5187 3.85312 10.1859 4.27031 9.72654C4.61718 9.34217 5.01562 9.01873 5.06249 8.98123C5.63906 8.51717 6.30937 8.22654 7.00312 8.14685C8.10468 8.02029 9.34218 8.34373 10.6687 9.1031C10.7297 9.13592 11.1562 9.42654 11.5172 9.67498C12.3469 10.2515 12.3469 10.275 12.3609 10.3687L12.375 10.4578L12.3141 10.5234C11.55 11.2969 10.8141 11.8687 10.0687 12.2765C9.25781 12.7172 8.42812 12.9422 7.63124 12.9422ZM7.47656 8.47967C7.32656 8.47967 7.18593 8.48904 7.04062 8.5031C6.41718 8.57342 5.80781 8.83592 5.28749 9.25779C5.24531 9.2906 4.86562 9.59998 4.53749 9.9656C4.16249 10.3734 4.10156 10.589 4.12031 10.6547C4.12499 10.6687 4.15312 10.7015 4.16718 10.7203C4.84687 11.5031 5.55468 12.0422 6.27656 12.3281C7.37812 12.764 8.66249 12.6375 9.89062 11.9672C10.5609 11.6015 11.2266 11.0906 11.9203 10.4109C11.5641 10.1437 10.5891 9.4781 10.4906 9.42185C9.40312 8.79373 8.39062 8.47967 7.47656 8.47967Z" fill="black"/>
<path d="M15.1737 10.827C16.0512 10.691 16.7037 10.2012 16.6311 9.73299C16.5585 9.26482 15.7884 8.99558 14.9109 9.13161C14.0334 9.26765 13.3809 9.75745 13.4534 10.2256C13.526 10.6938 14.2962 10.963 15.1737 10.827Z" fill="black" stroke="black" stroke-width="0.342857" stroke-miterlimit="10"/>
<path d="M16.3546 11.3157C15.975 11.3157 15.5718 11.2876 15.1453 11.236C14.0859 11.1047 13.0359 10.8235 12.1359 10.5751L12.2343 10.2282C12.1687 10.2094 12.1218 10.2376 12.1218 10.2376C12.2437 10.1626 12.8484 9.48286 13.1437 9.15474C13.3593 8.91099 13.4671 8.7938 13.5093 8.7563C14.7468 7.62193 15.8437 6.94224 16.9546 6.6188C17.5078 6.45474 18.0421 6.40318 18.5343 6.45474C18.7218 6.47349 19.0828 6.52505 19.4109 6.64224C19.8234 6.79224 20.0671 7.00318 20.1328 7.27505C20.3296 8.10943 20.2781 8.89693 19.9781 9.55786C19.6546 10.2751 19.0546 10.7907 18.2437 11.0485C17.6718 11.2266 17.0484 11.3157 16.3546 11.3157ZM12.5578 10.3172C14.4515 10.8329 16.4203 11.2454 18.1312 10.7016C18.839 10.4766 19.364 10.0313 19.6453 9.40786C19.9125 8.82193 19.9593 8.10943 19.7765 7.35474C19.7296 7.16255 19.364 6.90474 18.4875 6.8063C18.0375 6.75943 17.5546 6.8063 17.0437 6.9563C15.9843 7.26568 14.9343 7.92193 13.739 9.01411C13.7062 9.04224 13.5515 9.21568 13.4015 9.38911C13.1953 9.6188 12.9421 9.90474 12.7265 10.1344C12.6656 10.2047 12.6093 10.2657 12.5578 10.3172Z" fill="black"/>
<path d="M16.5516 12.7876C16.5281 12.797 16.5047 12.8064 16.4859 12.811C16.275 12.8814 16.0453 12.8767 15.8203 12.8767C14.925 12.8626 14.0297 12.8485 13.1344 12.8392C12.7406 12.8345 12.3422 12.8298 11.9578 12.9142C11.2406 13.0782 10.6359 13.5423 10.0125 13.936C9.07499 14.522 8.31562 14.5407 7.25156 14.4611C7.05468 14.447 6.85312 14.4329 6.66562 14.3626C6.49687 14.297 6.35156 14.1892 6.18749 14.1142C5.77968 13.922 5.28281 13.936 4.88906 14.1517C4.49531 14.3673 4.21406 14.7798 4.16249 15.2298C4.06406 16.0173 4.65468 16.7579 5.37656 17.0861C6.19218 17.4564 7.09687 17.4001 7.96406 17.3673C8.15156 17.3579 8.34374 17.3532 8.52187 17.2923C8.64843 17.2501 8.76562 17.1845 8.88281 17.1189C9.67031 16.6736 10.4859 16.2611 11.2687 15.8064C11.9719 15.3986 12.6375 14.8782 13.4484 14.7095C13.9969 14.597 14.5641 14.6579 15.1266 14.6392C15.6141 14.6251 16.1156 14.5501 16.575 14.7142C16.7484 14.7751 16.9125 14.8689 17.0953 14.8735C17.2219 14.8735 17.3437 14.8314 17.4609 14.7798C17.9062 14.597 18.3328 14.3626 18.7266 14.0814C19.0828 13.8282 19.4203 13.5236 19.6031 13.1298C19.7859 12.7314 19.7812 12.2251 19.5 11.897C19.2375 11.5923 18.7875 11.4939 18.3937 11.5735C18 11.6579 17.6531 11.8923 17.3531 12.1689C17.1094 12.3939 16.8656 12.661 16.5516 12.7876Z" fill="#85492D"/>
<path d="M7.10156 17.5688C6.49218 17.5688 5.88281 17.5126 5.30624 17.2501C4.91249 17.072 4.56093 16.7814 4.32187 16.4345C4.05468 16.0501 3.93749 15.6235 3.98906 15.211C4.04999 14.7095 4.36406 14.2454 4.80937 14.0017C5.25468 13.7579 5.81249 13.7392 6.27187 13.9548C6.34687 13.9876 6.41249 14.0298 6.48281 14.0673C6.57187 14.1189 6.65156 14.1657 6.73593 14.1985C6.89999 14.2595 7.08749 14.2735 7.27031 14.2876C8.24531 14.3579 9.00468 14.3626 9.92343 13.786C10.0406 13.711 10.1578 13.636 10.275 13.561C10.7859 13.2282 11.3109 12.8813 11.925 12.7454C12.3328 12.6517 12.7453 12.661 13.1437 12.6657L15.8297 12.7032C16.0359 12.7079 16.2516 12.7079 16.4391 12.647C16.4578 12.6423 16.4766 12.6329 16.4953 12.6282C16.7203 12.5392 16.9078 12.361 17.1047 12.1689C17.1516 12.122 17.1984 12.0798 17.25 12.0329C17.6344 11.6814 18 11.4751 18.375 11.3954C18.8672 11.2923 19.3687 11.4423 19.6547 11.7751C19.9594 12.136 20.0156 12.7079 19.7859 13.2001C19.5656 13.6782 19.1484 14.011 18.8531 14.222C18.45 14.5126 18.0094 14.7517 17.55 14.9392C17.4234 14.9907 17.2781 15.047 17.1187 15.047H17.1141C16.9453 15.047 16.7953 14.986 16.6594 14.9298C16.6172 14.911 16.575 14.897 16.5328 14.8782C16.1953 14.7563 15.8297 14.7798 15.4406 14.7985C15.3469 14.8032 15.2484 14.8079 15.15 14.8126C14.9719 14.8173 14.7937 14.8173 14.6156 14.8126C14.2266 14.8079 13.8609 14.8032 13.5 14.8782C12.9094 15.0001 12.3844 15.3329 11.8734 15.6517C11.7094 15.7548 11.5453 15.8579 11.3766 15.9563C10.9406 16.2095 10.4906 16.4532 10.05 16.6876C9.69843 16.8751 9.33749 17.072 8.99062 17.2688C8.86874 17.3392 8.74218 17.4095 8.59687 17.4563C8.39062 17.522 8.17968 17.5314 7.98749 17.536L7.85156 17.5407C7.59374 17.5595 7.34999 17.5688 7.10156 17.5688ZM5.58749 14.161C5.37656 14.161 5.17031 14.2126 4.98281 14.311C4.63593 14.4985 4.39218 14.8595 4.34531 15.2532C4.25624 15.9798 4.83749 16.6407 5.45624 16.922C6.18749 17.2548 7.02187 17.222 7.82812 17.1892L7.96406 17.1845C8.13749 17.1798 8.31562 17.1704 8.47499 17.1189C8.58749 17.0814 8.69062 17.0204 8.80312 16.9595C9.15468 16.7579 9.52031 16.5657 9.87187 16.3735C10.3078 16.1392 10.7578 15.8954 11.1891 15.647C11.3531 15.5532 11.5172 15.4501 11.6766 15.3517C12.2156 15.0142 12.7687 14.6673 13.4203 14.5313C13.8187 14.447 14.2219 14.4517 14.6109 14.4563C14.7797 14.4563 14.9578 14.461 15.1266 14.4563C15.2203 14.4517 15.3141 14.447 15.4078 14.4423C15.8156 14.4189 16.2375 14.3954 16.6406 14.5407C16.6875 14.5595 16.7391 14.5782 16.7812 14.597C16.8937 14.6438 17.0016 14.686 17.1 14.686C17.1937 14.686 17.2969 14.6485 17.3953 14.6064C17.8312 14.4282 18.2437 14.1985 18.6234 13.9267C18.8859 13.7392 19.2562 13.4438 19.4391 13.0454C19.6359 12.6188 19.5422 12.2157 19.3594 12.0001C19.1578 11.7657 18.7922 11.6626 18.4266 11.7376C18.1172 11.8032 17.8078 11.9814 17.4703 12.286C17.4234 12.3282 17.3766 12.3751 17.3297 12.4173C17.1141 12.6188 16.8937 12.8298 16.6078 12.947C16.5797 12.9564 16.5562 12.9657 16.5281 12.9751C16.2844 13.0548 16.0266 13.0501 15.8016 13.0501L13.1156 13.0126C12.7359 13.0079 12.3469 13.0032 11.9812 13.0829C11.4328 13.2095 10.9312 13.5329 10.4484 13.8517C10.3312 13.9267 10.2094 14.0063 10.0922 14.0813C9.08437 14.7142 8.23125 14.7095 7.22343 14.6345C7.02656 14.6204 6.80156 14.6017 6.58593 14.522C6.47343 14.4798 6.37499 14.4235 6.28124 14.3673C6.21562 14.3298 6.15937 14.297 6.09843 14.2688C5.95312 14.1985 5.77031 14.161 5.58749 14.161Z" fill="black"/>
<path d="M5.28745 14.8641C5.32964 15.3375 5.6437 15.7312 6.07026 15.9281C6.52964 16.1391 7.05464 16.1484 7.55151 16.0781C8.47964 15.9516 9.32339 15.5109 10.1437 15.0938C10.9734 14.6719 11.8359 14.2266 12.7781 14.1422C13.364 14.0906 13.9546 14.1375 14.5453 14.1094C15.1359 14.0813 15.7265 14.0156 16.3125 13.9078C17.3531 13.7203 18.825 13.3594 18.914 12.0656C18.9281 11.8688 18.6187 11.8688 18.6046 12.0656C18.5718 12.5203 18.2484 12.8906 17.8734 13.1156C17.4281 13.3781 16.9031 13.4859 16.4015 13.5844C15.8531 13.6922 15.3 13.7625 14.7468 13.7953C14.189 13.8281 13.6312 13.8 13.0734 13.8187C12.164 13.8516 11.3296 14.1703 10.5187 14.5641C9.74058 14.9438 8.97651 15.3891 8.14214 15.6375C7.6687 15.7781 7.14839 15.8625 6.65151 15.7828C6.17339 15.7031 5.64839 15.3984 5.60151 14.8641C5.58276 14.6672 5.27339 14.6625 5.28745 14.8641Z" fill="black"/>
<path d="M10.6735 10.6359C10.6594 10.6359 10.65 10.6359 10.636 10.6359C10.5891 10.6312 10.5422 10.6406 10.5 10.6641C10.3969 10.7156 10.3453 10.8328 10.3735 10.9453C10.4016 11.0484 10.4953 11.1141 10.5938 11.1188C10.6735 11.1375 10.7625 11.1094 10.8188 11.0438C10.8797 10.9781 10.8938 10.8891 10.8656 10.8094C10.8516 10.7156 10.7719 10.6406 10.6735 10.6359Z" fill="white"/>
<path d="M10.4813 10.4719C10.6782 10.4813 10.6782 10.1719 10.4813 10.1626C10.3032 10.1532 10.125 10.1438 9.9469 10.1391C9.85784 10.1344 9.7969 10.2141 9.79221 10.2938L9.74534 10.9688C9.73128 11.1657 10.0407 11.1657 10.0547 10.9688C10.0641 10.7954 10.0782 10.6266 10.0875 10.4532C10.2188 10.4579 10.35 10.4626 10.4813 10.4719Z" fill="white"/>
<path d="M15.8015 9.87189C15.8062 9.83439 15.8109 9.7922 15.8203 9.7547C15.839 9.6422 15.764 9.55314 15.6515 9.56252C15.5625 9.51095 15.4359 9.53908 15.3562 9.58595C15.1406 9.71252 15.1265 10.0031 15.3093 10.1672C15.3515 10.2047 15.3984 10.2328 15.45 10.2469C15.4547 10.2469 15.4734 10.2563 15.4922 10.2563C15.4593 10.35 15.4875 10.4766 15.5437 10.5516C15.5859 10.6125 15.6515 10.6453 15.7218 10.65C15.7828 10.6641 15.8578 10.65 15.9 10.5891C16.0406 10.3969 16.0453 10.1578 15.9422 9.95158C15.9187 9.90002 15.8578 9.87189 15.8015 9.87189Z" fill="white"/>
<path d="M15.8672 8.69529C15.8391 8.8031 15.8156 8.90622 15.7875 9.01404C15.7406 9.20622 16.0359 9.2906 16.0828 9.09372C16.1109 8.98591 16.1344 8.88279 16.1625 8.77497C16.2141 8.58279 15.9141 8.5031 15.8672 8.69529Z" fill="white"/>
</g>
</g>
<defs>
<clipPath id="clip0_225_1089">
<rect width="24" height="24" rx="12" fill="white"/>
</clipPath>
<clipPath id="clip1_225_1089">
<rect width="24" height="24" fill="white"/>
</clipPath>
</defs>
</svg>
