<svg xmlns="http://www.w3.org/2000/svg" fill="none" viewBox="0 0 24 24"><circle cx="12" cy="12" r="12" fill="#141414"/><path fill="#FFD966" d="m18.034 7.502.438.192-1.352 2.944a1.444 1.444 0 0 1-1.315.831H8.147a1.444 1.444 0 0 1-1.314-.831L5.48 7.694l.876-.383 1.352 2.944a.481.481 0 0 0 .438.277h7.658c.19 0 .361-.11.439-.278l1.352-2.943.438.191Zm-9.123.884a.48.48 0 0 0 .455.32h5.25a.48.48 0 0 0 .458-.327l.93-2.86.915.282-.93 2.861c-.189.585-.745.982-1.373.982h-5.25c-.62 0-1.17-.388-1.367-.962l-.981-2.874.91-.297.983 2.875Z"/><path fill="#fff" d="M16 15.351a1.438 1.438 0 0 0-1.374-.981h-5.25c-.62 0-1.171.388-1.367.962l-.982 2.874.91.296.983-2.874a.48.48 0 0 1 .455-.32h5.25a.48.48 0 0 1 .458.327l.93 2.86.915-.282L16 15.35Z"/><path fill="#fff" d="M17.12 13.245a1.443 1.443 0 0 0-1.314-.831H8.148c-.568 0-1.083.325-1.315.83L5.48 16.19l.438.191.438.192 1.352-2.944a.482.482 0 0 1 .439-.277h7.658c.189 0 .36.109.438.277l1.352 2.944.876-.383-1.352-2.944Z"/></svg>
