<svg height="25.025" viewBox="0 0 25.026 25.025" width="25.026" xmlns="http://www.w3.org/2000/svg"><g fill="#f3ba2f"><path d="m26.692 10.516 4.86-4.86 4.862 4.862 2.828-2.828-7.69-7.69-7.688 7.688z" transform="translate(-19.039)"/><path d="m0 0h3.999v3.999h-3.999z" transform="matrix(.70710678 .70710678 -.70710678 .70710678 2.828 9.684)"/><path d="m26.675 73.4 4.86 4.86 4.865-4.86 2.829 2.826-7.69 7.69-7.688-7.688z" transform="translate(-19.022 -58.889)"/><path d="m0 0h3.999v3.999h-3.999z" transform="matrix(-.70710678 .70710678 -.70710678 -.70710678 25.026 12.513)"/><path d="m53.973 51.65-2.873-2.87-2.116 2.12-.244.244-.5.5 2.86 2.878 2.87-2.87z" transform="translate(-38.592 -39.138)"/></g></svg>