<svg width="24" height="24" viewBox="0 0 24 24" fill="none" xmlns="http://www.w3.org/2000/svg">
<path d="M0 12C0 5.37258 5.37258 0 12 0V0C18.6274 0 24 5.37258 24 12V12C24 18.6274 18.6274 24 12 24V24C5.37258 24 0 18.6274 0 12V12Z" fill="#58BE92"/>
<path d="M16.4606 7.0854C15.7952 5.31068 14.1102 5.14888 12.1435 5.55337L11.4489 3L9.95815 3.45L10.6429 5.91236L9.45797 6.28652L8.77324 3.79383L7.29696 4.24382L7.9914 6.77192L7.04445 7.07528V7.07023L5 7.67698L5.45162 9.3253C5.45162 9.3253 6.54426 8.97136 6.53455 9.00169C7.13186 8.81968 7.42809 9.1281 7.57376 9.42642L8.37018 12.3136L8.53044 12.2883L8.37018 12.3337L9.4871 16.3888C9.51624 16.5911 9.4871 16.9349 9.07433 17.0613C9.09375 17.0713 7.9914 17.3899 7.9914 17.3899L8.20507 19.3214L10.133 18.745L11.2013 18.4366L11.9104 21L13.3817 20.5551L12.6922 18.022L13.8771 17.6781L14.5715 20.2063L16.0623 19.7612L15.3533 17.1978C17.8057 16.3028 19.3742 15.1247 18.9226 12.6219C18.5536 10.6096 17.422 9.99267 15.9118 10.0685C16.6402 9.34552 16.9558 8.3899 16.4702 7.0854H16.4606ZM15.907 13.2034C16.4266 15.1247 13.2166 15.8427 12.2164 16.1511L11.279 12.7483C12.2843 12.445 15.3533 11.2062 15.907 13.2034ZM13.8965 8.5972C14.3724 10.3516 11.6821 10.9281 10.842 11.1809L9.99215 8.09665C10.8322 7.84889 13.3915 6.78202 13.8965 8.60731V8.5972Z" fill="white"/>
</svg>
