<svg width="24" height="24" viewBox="0 0 24 24" fill="none" xmlns="http://www.w3.org/2000/svg">
<g clip-path="url(#clip0_1208_24682)">
<path fill-rule="evenodd" clip-rule="evenodd" d="M12 0C18.6279 0 24 5.37212 24 12C24 18.6279 18.6279 24 12 24C5.37212 24 0 18.6279 0 12C0 5.37212 5.37212 0 12 0Z" fill="#F0B90B"/>
<path d="M6.5951 12L6.60375 15.1731L9.2999 16.7596V18.6173L5.02586 16.1106V11.0721L6.5951 12ZM6.5951 8.82693V10.676L5.0249 9.74712V7.89808L6.5951 6.96924L8.17298 7.89808L6.5951 8.82693ZM10.4259 7.89808L11.9961 6.96924L13.5739 7.89808L11.9961 8.82693L10.4259 7.89808Z" fill="white"/>
<path d="M7.72974 14.5154V12.6577L9.29993 13.5865V15.4356L7.72974 14.5154ZM10.4259 17.425L11.9961 18.3539L13.574 17.425V19.274L11.9961 20.2029L10.4259 19.274V17.425ZM15.8259 7.89808L17.3961 6.96924L18.974 7.89808V9.74712L17.3961 10.676V8.82693L15.8259 7.89808ZM17.3961 15.1731L17.4047 12L18.9749 11.0712V16.1096L14.7009 18.6164V16.7587L17.3961 15.1731Z" fill="white"/>
<path d="M16.2701 14.5154L14.7 15.4356V13.5866L16.2701 12.6577V14.5154Z" fill="white"/>
<path d="M16.2701 9.48462L16.2788 11.3423L13.5749 12.9288V16.1096L12.0047 17.0298L10.4345 16.1096V12.9288L7.7307 11.3423V9.48462L9.30762 8.55577L11.9951 10.15L14.699 8.55577L16.2769 9.48462H16.2701ZM7.72974 6.3125L11.9961 3.79712L16.2701 6.3125L14.6999 7.24135L11.9961 5.64712L9.29993 7.24135L7.72974 6.3125Z" fill="white"/>
</g>
<defs>
<clipPath id="clip0_1208_24682">
<rect width="24" height="24" fill="white"/>
</clipPath>
</defs>
</svg>
