<svg id="ic_bsc_96" xmlns="http://www.w3.org/2000/svg" width="96" height="96" viewBox="0 0 96 96">
  <rect id="base" width="96" height="96" fill="rgba(255,255,255,0)"/>
  <path id="ic_bsc" d="M211.911,375.559v10.392l-9.059,5.328-8.792-5.328V375.559l8.792,5.329ZM163.42,339.591l8.792,5.329v17.851l15.187,9.058V382.22L163.42,368.1Zm78.864,0V368.1L218.039,382.22V371.829l15.187-9.058V344.92ZM218.039,325.47,227.1,330.8v10.391l-15.187,9.059v18.118l-8.792,5.328-8.792-5.328V350.248l-15.72-9.059V330.8l9.059-5.328,15.187,9.058Zm-39.432,23.18,8.792,5.328v10.391l-8.792-5.328Zm48.491,0v10.391l-8.792,5.328V353.978Zm-54.885-32.238,9.059,5.329-9.059,5.328v10.391l-8.792-5.328V321.74Zm61.28,0,9.059,5.329v10.391l-9.059,5.328V327.068L224.7,321.74Zm-30.64,0,9.059,5.329-9.059,5.328-8.792-5.328Zm0-17.851L227.1,312.681l-8.792,5.328-15.187-9.058-15.453,9.058-8.792-5.328Z" transform="translate(-154.986 -297.254)" fill="#f3ba2f"/>
</svg>
