<svg width="16" height="16" viewBox="0 0 16 16" fill="none" xmlns="http://www.w3.org/2000/svg">
<path d="M12.3217 6.53427V6.08332C12.3217 3.6073 10.3878 1.6001 8.00224 1.6001C5.61666 1.6001 3.68276 3.6073 3.68276 6.08332V6.53427C3.68276 7.07545 3.52842 7.60452 3.23919 8.05482L2.53042 9.15827C1.88303 10.1662 2.37726 11.5361 3.50323 11.8549C6.44878 12.6886 9.55571 12.6886 12.5013 11.8549C13.6272 11.5361 14.1215 10.1662 13.4741 9.15827L12.7653 8.05482C12.4761 7.60453 12.3217 7.07545 12.3217 6.53427Z" stroke="currentColor"/>
<path d="M5.11719 12.4799C5.53641 13.5985 6.66757 14.3999 7.99722 14.3999C9.32686 14.3999 10.458 13.5985 10.8772 12.4799" stroke="currentColor" stroke-linecap="round"/>
</svg>
