<svg id="ic_btc_40" xmlns="http://www.w3.org/2000/svg" width="40" height="40.005" viewBox="0 0 40 40.005">
  <rect id="Rectangle_179" data-name="Rectangle 179" width="40" height="40" transform="translate(0 0.005)" fill="none"/>
  <g id="Layer_x0020_1">
    <g id="_1421344023328">
      <path id="Path_1467" data-name="Path 1467" d="M39.4,24.842A20,20,0,1,1,24.836.6,20,20,0,0,1,39.4,24.842h0Z" transform="translate(0 -0.001)" fill="#f7931a"/>
      <path id="Path_1468" data-name="Path 1468" d="M1014,722.587c.386-2.571-1.58-3.953-4.27-4.875l.872-3.483-2.13-.528-.85,3.391c-.56-.139-1.135-.27-1.707-.4l.856-3.413-2.129-.528-.873,3.482c-.464-.105-.919-.209-1.36-.318l0-.011-2.938-.73-.567,2.264s1.581.36,1.547.383a1.129,1.129,0,0,1,.993,1.233l-.994,3.968a1.7,1.7,0,0,1,.222.071l-.225-.055-1.393,5.558a.776.776,0,0,1-.976.5c.021.031-1.548-.384-1.548-.384l-1.058,2.427,2.772.688c.516.129,1.021.263,1.519.39l-.881,3.523,2.128.528.873-3.485c.581.157,1.146.3,1.7.438l-.87,3.469,2.13.528.881-3.516c3.633.684,6.364.408,7.514-2.862.927-2.633-.046-4.151-1.957-5.141a3.387,3.387,0,0,0,2.72-3.113h0Zm-4.867,6.792c-.658,2.633-5.113,1.209-6.557.853l1.17-4.667c1.444.359,6.075,1.069,5.387,3.814Zm.659-6.83c-.6,2.395-4.308,1.178-5.51.88l1.061-4.233c1.2.3,5.075.855,4.45,3.353Z" transform="translate(-985.475 -705.371)" fill="#fff"/>
    </g>
  </g>
</svg>
