<svg width="1em" height="1em" viewBox="0 0 20 20" fill="none" xmlns="http://www.w3.org/2000/svg">
  <path fill-rule="evenodd" clip-rule="evenodd"
    d="M12.535 3.33366C12.5935 3.02893 12.4658 2.71712 12.2252 2.57676C11.9847 2.43638 11.6926 2.50332 11.5162 2.73921L5.14372 11.2619C4.99289 11.4636 4.95749 11.7489 5.05315 11.9916C5.14882 12.2344 5.35794 12.3902 5.58824 12.3902H8.28629L7.46491 16.6742C7.40648 16.9788 7.53413 17.2907 7.77472 17.431C8.01521 17.5715 8.30727 17.5045 8.48374 17.2686L14.8562 8.74591C15.0071 8.54418 15.0425 8.25898 14.9468 8.01616C14.8511 7.77333 14.642 7.61755 14.4117 7.61755H11.7137L12.535 3.33366Z"
    fill="url(#paint0_linear_5270_27813)" />
  <defs>
    <linearGradient id="paint0_linear_5270_27813" x1="14.1933" y1="4.73701" x2="1.23755"
      y2="11.1841" gradientUnits="userSpaceOnUse">
      <stop stop-color="#03D1CF" stop-opacity="0.988" />
      <stop offset="1" stop-color="#4E09F8" />
    </linearGradient>
  </defs>
</svg>
