<svg xmlns="http://www.w3.org/2000/svg" width="24" height="24" fill="none" viewBox="0 0 24 24">
  <g clip-path="url(#a)">
    <path fill="#814625" d="M12 24c6.627 0 12-5.373 12-12S18.627 0 12 0 0 5.373 0 12s5.373 12 12 12Z"/>
    <path fill="#fff" d="M11.553 11.392a.855.855 0 0 1-.03-.122 2.75 2.75 0 0 0-.043-.18c.188-.272 1.082-1.695.064-2.609-1.13-1.014-2.45.315-2.45.315l.004.006a3.263 3.263 0 0 0-1.862-.006c-.008-.008-1.324-1.326-2.45-.315-1.127 1.011.09 2.647.096 2.656a.791.791 0 0 0-.03.117c-.122.7-.952.916-.952 2.136 0 1.22.868 2.222 2.64 2.222h.727c.004.005.303.413.918.413.57 0 .947-.41.95-.413h.694c1.772 0 2.64-.98 2.64-2.222 0-1.136-.72-1.401-.916-1.998ZM20.02 10s.133-1.176-.87-1.429v-.47h-.775v.459c-1.057.225-.92 1.44-.92 1.44v.2s-.137 1.215.92 1.44v1.009c-1.114.196-.973 1.45-.973 1.45v.201s-.136 1.215.92 1.44v.46h.777v-.472c1.001-.253.87-1.428.87-1.428a.078.078 0 0 0 .079-.076v-.049a.078.078 0 0 0-.08-.076s.131-1.165-.857-1.425V11.64H19.1c1.057-.225.92-1.44.92-1.44.044 0 .08-.034.08-.076v-.049a.078.078 0 0 0-.08-.076Zm-.631 4.099h-.072a.078.078 0 0 0-.079.076v.049c0 .042.036.076.08.076h.07c0 .73-.25.852-.335.872-.014.004-.028-.006-.028-.02v-.232c0-.129-.085-.199-.17-.237a.416.416 0 0 0-.34 0c-.085.038-.17.108-.17.237v.232a.022.022 0 0 1-.027.02c-.084-.02-.336-.141-.336-.872v-.2c0-.73.251-.852.336-.873.014-.003.027.007.027.02v.233c0 .129.085.199.17.237a.417.417 0 0 0 .34 0c.085-.038.17-.108.17-.237v-.232a.02.02 0 0 1 .027-.02c.084.02.337.141.337.872Zm-.02-3.898h.072c0 .73-.252.852-.337.872a.021.021 0 0 1-.026-.02v-.233c0-.128-.085-.199-.17-.237a.417.417 0 0 0-.34 0c-.085.038-.17.109-.17.237v.233c0 .013-.014.023-.028.02-.084-.02-.336-.143-.336-.872v-.202c0-.73.253-.852.337-.872a.022.022 0 0 1 .027.02v.233c0 .128.085.198.17.237a.416.416 0 0 0 .34 0c.084-.039.17-.109.17-.237v-.233a.02.02 0 0 1 .027-.02c.084.02.336.143.336.872h-.071a.078.078 0 0 0-.08.076v.05c0 .041.036.076.08.076Zm-3.23 1.874s.137-1.222-.93-1.442V9.536c1.038-.235.903-1.436.903-1.436h-.58c0 .73-.252.852-.336.872a.022.022 0 0 1-.027-.02V8.72c0-.129-.085-.2-.17-.237a.416.416 0 0 0-.34 0c-.085.038-.17.108-.17.237v.232a.02.02 0 0 1-.027.02c-.085-.02-.336-.143-.336-.872h-.58s-.14 1.247.963 1.448v1.084c-1.074.216-.937 1.442-.937 1.442v.202s-.137 1.227.937 1.443v1.033c-1.103.201-.963 1.448-.963 1.448h.58c0-.73.252-.852.336-.872a.022.022 0 0 1 .027.02v.232c0 .129.085.2.17.238a.417.417 0 0 0 .34 0c.085-.039.17-.11.17-.238v-.232c0-.014.014-.024.027-.02.085.02.336.143.336.872h.58s.135-1.201-.903-1.436v-1.047c1.067-.22.93-1.441.93-1.441a.078.078 0 0 0 .079-.076v-.05a.078.078 0 0 0-.08-.075Zm-.651.201h.07c0 .73-.252.852-.336.872a.022.022 0 0 1-.027-.02v-.232c0-.129-.085-.2-.17-.238a.416.416 0 0 0-.34 0c-.085.039-.17.11-.17.238v.232a.02.02 0 0 1-.027.02c-.085-.02-.336-.143-.336-.872v-.201c0-.73.252-.853.337-.873a.022.022 0 0 1 .026.02v.233c0 .128.085.199.17.237a.416.416 0 0 0 .34 0c.085-.038.17-.109.17-.237v-.232c0-.014.014-.024.028-.02.084.02.336.143.336.872h-.071a.078.078 0 0 0-.08.076v.049c0 .042.036.076.08.076Z"/>
  </g>
  <defs>
    <clipPath id="a">
      <path fill="#fff" d="M0 0h24v24H0z"/>
    </clipPath>
  </defs>
</svg>
