<svg width="24" height="24" viewBox="0 0 21 21" fill="none" xmlns="http://www.w3.org/2000/svg">
<path fill-rule="evenodd" clip-rule="evenodd" d="M13.9733 14.2242L12.9425 13.2008C12.8765 13.4043 12.7606 13.588 12.6054 13.7353C12.4503 13.8826 12.2608 13.9888 12.0542 14.0442L10.2825 14.5192C9.95652 14.6075 9.60882 14.5628 9.31572 14.395C9.02263 14.2272 8.80808 13.95 8.71917 13.6242L8.4875 12.7575L7.02833 14.2242C7.00385 14.2479 6.98449 14.2765 6.97145 14.308C6.95841 14.3395 6.95196 14.3734 6.9525 14.4075V17.25H6.02917V14.4067C6.02917 14.0933 6.1525 13.7967 6.3775 13.575L8.21833 11.7483L8.14083 11.4608L5.505 12.1617L5.5 12.1625C5.46478 12.1672 5.43086 12.179 5.40023 12.197C5.36961 12.215 5.3429 12.239 5.32167 12.2675L3.75417 15.0375L3 14.5083L4.56333 11.7442L4.56583 11.74C4.75583 11.4742 5.05 11.2967 5.37583 11.2542L8.1425 10.5308C8.21516 10.3421 8.33139 10.1733 8.48171 10.038C8.63204 9.90273 8.81219 9.80491 9.0075 9.7525L10.7792 9.2775C11.105 9.18946 11.4525 9.23424 11.7454 9.40202C12.0383 9.56979 12.2527 9.84687 12.3417 10.1725L12.3617 10.2467L12.4058 10.4125L15.6242 11.2542C15.9492 11.2983 16.2442 11.475 16.4342 11.74L16.4367 11.7433L18 14.5083L17.2458 15.0383L15.6792 12.2675C15.6578 12.2389 15.631 12.2149 15.6002 12.1968C15.5694 12.1788 15.5354 12.1671 15.5 12.1625L15.495 12.1617L12.6725 11.4117L12.7558 11.72L14.6242 13.575C14.7343 13.6837 14.8218 13.8131 14.8815 13.9559C14.9411 14.0987 14.9718 14.2519 14.9717 14.4067V17.25H14.0492V14.4067C14.0496 14.3727 14.0431 14.339 14.03 14.3076C14.017 14.2762 13.9977 14.2478 13.9733 14.2242ZM12.0708 12.7267C12.0947 12.8176 12.0815 12.9143 12.0342 12.9956C11.9869 13.0768 11.9092 13.1359 11.8183 13.16L10.0467 13.635C10.0017 13.6472 9.95485 13.6505 9.90866 13.6446C9.86247 13.6387 9.8179 13.6238 9.7775 13.6006C9.73709 13.5775 9.70165 13.5466 9.6732 13.5097C9.64474 13.4729 9.62383 13.4308 9.61167 13.3858L8.99167 11.0708C8.96804 10.98 8.98134 10.8835 9.02865 10.8025C9.07597 10.7214 9.15346 10.6624 9.24417 10.6383L11.0158 10.1633C11.1064 10.1388 11.2031 10.1512 11.2846 10.1977C11.3661 10.2442 11.4259 10.3212 11.4508 10.4117L12.0708 12.7267Z" fill="white"/>
<path fill-rule="evenodd" clip-rule="evenodd" d="M17.2458 5.9625L18 6.49167L16.4367 9.25667L16.4342 9.26C16.3393 9.39175 16.2185 9.50274 16.0792 9.58614C15.94 9.66954 15.7851 9.7236 15.6242 9.745L12.695 10.5117V10.5525C12.6935 10.8902 12.558 11.2135 12.3183 11.4515C12.0787 11.6894 11.7544 11.8226 11.4167 11.8217H9.58333C9.24561 11.8226 8.92134 11.6894 8.68167 11.4515C8.44201 11.2135 8.30654 10.8902 8.305 10.5525V10.5108L5.37583 9.74583C5.2147 9.72481 5.05962 9.67082 4.92026 9.58724C4.7809 9.50365 4.66025 9.39226 4.56583 9.26L4.56333 9.25583L3 6.49167L3.75417 5.9625L5.32167 8.7325C5.34372 8.76138 5.37127 8.7856 5.40274 8.80376C5.43421 8.82193 5.46896 8.83368 5.505 8.83833L8.305 9.5825V9.33917L6.37833 7.425C6.268 7.31642 6.18038 7.18696 6.12057 7.04418C6.06077 6.90139 6.02998 6.74814 6.03 6.59333V3.75H6.95333V6.59333C6.95333 6.6625 6.98 6.72667 7.02833 6.77583L8.31167 8.0475C8.3404 7.73023 8.48686 7.43522 8.72222 7.22053C8.95757 7.00584 9.26477 6.88703 9.58333 6.8875H11.4167C12.0842 6.8875 12.635 7.39833 12.6917 8.0475L13.9725 6.77583C13.9968 6.752 14.016 6.72344 14.0289 6.69191C14.0418 6.66039 14.0481 6.62656 14.0475 6.5925V3.75H14.9708V6.59333C14.9708 6.9075 14.8458 7.20167 14.6233 7.425L12.6942 9.33917V9.58333L15.4942 8.83833C15.567 8.82827 15.633 8.79032 15.6783 8.7325L17.2458 5.9625ZM11.7742 10.5542C11.7733 10.6479 11.7354 10.7375 11.6687 10.8033C11.6021 10.8692 11.5121 10.9061 11.4183 10.9058H9.58333C9.48947 10.9061 9.39934 10.8691 9.33265 10.803C9.26597 10.737 9.22816 10.6472 9.2275 10.5533V8.15667C9.2275 7.96333 9.38667 7.80417 9.58333 7.80417H11.4167C11.6142 7.80417 11.7733 7.9625 11.7733 8.15667L11.7742 10.5542Z" fill="#FCCD0C"/>
<path d="M12.0542 14.0442L11.8183 13.1592C11.9091 13.1351 11.9865 13.0761 12.0339 12.995C12.0812 12.914 12.0945 12.8175 12.0708 12.7267L11.4508 10.4117C11.4259 10.3212 11.3661 10.2442 11.2846 10.1977C11.2031 10.1512 11.1065 10.1388 11.0158 10.1633L10.7792 9.2775C11.105 9.18946 11.4525 9.23424 11.7454 9.40202C12.0383 9.56979 12.2528 9.84687 12.3417 10.1725L12.3617 10.2475L12.4142 10.4142L15.6242 11.2542C15.9492 11.2983 16.2442 11.475 16.4342 11.74L16.4367 11.7433L18 14.5083L17.2458 15.0383L15.6792 12.2675C15.6579 12.2389 15.631 12.2149 15.6002 12.1968C15.5695 12.1788 15.5354 12.1671 15.5 12.1625L15.495 12.1617L12.6725 11.4117L12.7558 11.72L14.6242 13.575C14.8467 13.7975 14.9717 14.0925 14.9717 14.4067V17.25H14.0492V14.4067C14.0496 14.3727 14.0431 14.339 14.0301 14.3076C14.017 14.2762 13.9977 14.2478 13.9733 14.2242L12.9417 13.2008C12.8757 13.4042 12.76 13.5879 12.605 13.7352C12.45 13.8824 12.2606 13.9887 12.0542 14.0442Z" fill="white"/>
</svg>
