<svg width="26" height="26" fill="none" xmlns="http://www.w3.org/2000/svg"><path d="M11 21c5.523 0 10-4.477 10-10S16.523 1 11 1 1 5.477 1 11s4.477 10 10 10Z" fill="#fff"/><path d="M11 0a11 11 0 0 0-6.776 19.665L8.087 6.211a3.61 3.61 0 0 1 7.128 1.054c0 .054-.01.107-.017.16l-.005.04c-.007.053-.015.1-.025.157v.009c-.009.049-.019.1-.03.145l-.01.045c-.01.046-.023.092-.036.137v.014c-.108.375-.277.73-.5 1.051l-.575-.378a4.872 4.872 0 0 0-1.5-.451c.029-.02.056-.043.083-.066.243-.205.414-.482.49-.79v-.005c.01-.036.016-.072.022-.108v-.019a1.517 1.517 0 0 0-2.349-1.485c-.25.17-.444.413-.555.695l-2.572 8.958-1.568 5.464A11 11 0 1 0 11 .004V0Zm5.373 13.4a4.55 4.55 0 0 1-3.6 4.078h-.012c-.1.02-.195.037-.294.051h-.01a3.807 3.807 0 0 1-.264.027h-.065a4.37 4.37 0 0 1-.653-.005 4.524 4.524 0 0 1-2.978-1.461l.744-2.746a2.786 2.786 0 0 0 2.4 2.119c.075.006.149.008.223.007h.048c.071 0 .141-.007.211-.014l.042-.006a2.448 2.448 0 0 0-.326-4.874c-.114 0-.525.01-.636.025v-2.1a9.301 9.301 0 0 1 1.01 0 4.549 4.549 0 0 1 4.16 4.899Z" fill="#000"/><path d="M26 18a8 8 0 1 0-16 0 8 8 0 0 0 16 0Z" fill="#3E4062"/><path d="M18 11a7 7 0 1 0 0 14 7 7 0 0 0 0-14m0-1a8 8 0 1 1 0 16 8 8 0 0 1 0-16Z" fill="#1E1F37"/><path d="m19.241 17.56.774-1.313 2.086 3.25v.623-4.289a.324.324 0 0 0-.149-.257l-3.756-2.16a.33.33 0 0 0-.287 0l-.034.02-.013.007-3.645 2.113-.014.006a.333.333 0 0 0-.149.137.325.325 0 0 0-.04.137l.006 3.5 1.943-3.012a1.425 1.425 0 0 1 1.272-.52l.581.014-3.422 5.487.4.232 3.463-5.714 1.531-.006-3.453 5.856 1.439.828.172.1a.33.33 0 0 0 .232 0l3.808-2.207-.728.422-2.017-3.254Zm.3 4.253-1.455-2.282.887-1.506 1.91 3.006-1.342.782Z" fill="#2D374B"/><path d="m18.086 19.531 1.454 2.282 1.343-.778-1.909-3.009-.888 1.505ZM22.106 20.119v-.624l-2.086-3.249-.774 1.313 2.014 3.257.728-.422a.323.323 0 0 0 .119-.235l-.001-.04Z" fill="#28A0F0"/><path d="m13.364 20.707 1.028.592 3.422-5.487-.581-.015a1.426 1.426 0 0 0-1.272.521l-1.943 3.012-.654 1v.377ZM19.789 15.812l-1.531.006-3.463 5.714 1.21.7.329-.558 3.455-5.862Z" fill="#fff"/><path d="M22.746 15.804a.975.975 0 0 0-.458-.784l-3.8-2.188a.99.99 0 0 0-.873 0c-.032.016-3.7 2.144-3.7 2.144a.973.973 0 0 0-.551.826v4.532l.654-1-.006-3.5v-.038a.322.322 0 0 1 .13-.2c.017-.012 3.748-2.172 3.76-2.178a.332.332 0 0 1 .287 0l3.756 2.16a.322.322 0 0 1 .149.257v4.331a.316.316 0 0 1-.112.235l-.728.422-.376.218-1.343.778-1.362.789a.33.33 0 0 1-.232 0l-1.611-.927-.329.558 1.448.834.126.071.1.057a.967.967 0 0 0 .739.012l3.964-2.299a.967.967 0 0 0 .373-.729v-4.381h-.005Z" fill="#96BEDC"/></svg>