<svg width="20" height="20" viewBox="0 0 20 20" fill="none" xmlns="http://www.w3.org/2000/svg">
<path d="M8.33365 3.83301H9.58365C11.169 3.83301 12.3079 3.83368 13.1745 3.9502C14.0267 4.06478 14.5408 4.28334 14.9206 4.66309C15.3001 5.04282 15.5179 5.55715 15.6325 6.40918C15.7489 7.27578 15.7497 8.41479 15.7497 10C15.7497 11.5853 15.749 12.7242 15.6325 13.5908C15.5179 14.443 15.3003 14.9572 14.9206 15.3369C14.5408 15.7167 14.0266 15.9342 13.1745 16.0488C12.3079 16.1653 11.169 16.166 9.58365 16.166H8.33365C6.74844 16.166 5.60942 16.1653 4.74283 16.0488C3.8908 15.9343 3.37647 15.7165 2.99673 15.3369C2.61698 14.9572 2.39843 14.443 2.28384 13.5908C2.16733 12.7242 2.16666 11.5853 2.16666 10C2.16666 8.41482 2.16739 7.27577 2.28384 6.40918C2.39843 5.55691 2.61696 5.04286 2.99673 4.66309C3.37651 4.28332 3.89056 4.06478 4.74283 3.9502C5.60942 3.83374 6.74847 3.83301 8.33365 3.83301Z" stroke="currentColor" stroke-linecap="round" stroke-linejoin="round"/>
<path d="M17.1667 8.83594C17.3076 8.83928 17.4199 8.84668 17.5143 8.85938C17.6858 8.88243 17.7223 8.91701 17.736 8.93066C17.7498 8.94444 17.7843 8.98154 17.8073 9.15234C17.8322 9.33817 17.8336 9.59334 17.8336 10C17.8336 10.4068 17.8323 10.6618 17.8073 10.8477C17.7844 11.0176 17.7499 11.0545 17.736 11.0684C17.7223 11.082 17.6858 11.1176 17.5143 11.1406C17.4199 11.1533 17.3076 11.1597 17.1667 11.1631V8.83594Z" stroke="currentColor" stroke-linecap="round" stroke-linejoin="round"/>
<path d="M9.58333 7.5L7.5 10H10.4167L8.33333 12.5" stroke="currentColor" stroke-linecap="round" stroke-linejoin="round"/>
</svg>
