<svg width="98" height="98" viewBox="0 0 98 98" fill="none" xmlns="http://www.w3.org/2000/svg">
  <g clip-path="url(#clip0_10_2503)">
    <path
      d="M49 98C76.062 98 98 76.062 98 49C98 21.938 76.062 0 49 0C21.938 0 0 21.938 0 49C0 76.062 21.938 98 49 98Z"
      fill="#23263B" />
  </g>
  <g clip-path="url(#clip1_10_2503)">
    <path fill-rule="evenodd" clip-rule="evenodd"
      d="M62.9816 64.845L58.5682 60.4636C58.2854 61.3348 57.7893 62.1214 57.1251 62.752C56.4608 63.3826 55.6495 63.8372 54.7648 64.0744L47.1795 66.1081C45.7839 66.4861 44.2952 66.2949 43.0404 65.5765C41.7855 64.858 40.8669 63.6711 40.4862 62.2761L39.4944 58.5655L33.247 64.845C33.1422 64.9468 33.0593 65.0689 33.0035 65.2039C32.9477 65.3389 32.9201 65.4839 32.9224 65.63V77.8H28.9692V65.6264C28.9692 64.2849 29.4972 63.0147 30.4605 62.0656L38.342 54.2448L38.0101 53.0139L26.725 56.0145L26.7036 56.018C26.5528 56.0383 26.4076 56.0885 26.2764 56.1657C26.1453 56.2429 26.031 56.3456 25.9401 56.4676L19.2289 68.3273L16 66.0617L22.6933 54.227L22.704 54.2091C23.5175 53.071 24.7769 52.311 26.172 52.129L38.0173 49.0321C38.3284 48.2241 38.826 47.5011 39.4696 46.922C40.1132 46.3429 40.8845 45.9241 41.7207 45.6997L49.306 43.666C50.7012 43.2891 52.1889 43.4808 53.4429 44.1991C54.697 44.9174 55.615 46.1037 55.9957 47.4979L56.0814 47.8155L56.2705 48.5255L70.0495 52.129C71.441 52.3181 72.704 53.0745 73.5175 54.2091L73.5282 54.2234L80.2215 66.0617L76.9926 68.3308L70.285 56.4676C70.1937 56.3452 70.0788 56.2423 69.947 56.1651C69.8153 56.0879 69.6694 56.0379 69.5179 56.018L69.4965 56.0145L57.4122 52.8034L57.769 54.1235L65.7681 62.0656C66.2398 62.5308 66.6143 63.0852 66.8698 63.6965C67.1252 64.3078 67.2564 64.9639 67.2559 65.6264V77.8H63.3063V65.6264C63.3081 65.4809 63.2803 65.3366 63.2244 65.2023C63.1686 65.0679 63.086 64.9464 62.9816 64.845ZM54.8362 58.4335C54.9384 58.8229 54.882 59.2369 54.6793 59.5847C54.4767 59.9326 54.1443 60.1858 53.7551 60.2888L46.1698 62.3225C45.9775 62.3749 45.7767 62.3889 45.579 62.3637C45.3812 62.3384 45.1904 62.2744 45.0174 62.1753C44.8444 62.0762 44.6927 61.944 44.5709 61.7862C44.449 61.6284 44.3595 61.4481 44.3074 61.2557L41.6529 51.3441C41.5518 50.9552 41.6087 50.5421 41.8113 50.1951C42.0139 49.8481 42.3456 49.5954 42.734 49.4924L50.3193 47.4587C50.7072 47.3536 51.1209 47.4066 51.47 47.6058C51.819 47.8051 52.0749 48.1344 52.1817 48.5219L54.8362 58.4335Z"
      fill="white" />
    <path fill-rule="evenodd" clip-rule="evenodd"
      d="M76.9926 29.4728L80.2215 31.7384L73.5282 43.5767L73.5175 43.5909C73.1114 44.155 72.5943 44.6302 71.9979 44.9873C71.4016 45.3443 70.7386 45.5758 70.0495 45.6674L57.5085 48.9499V49.1247C57.5019 50.5707 56.9219 51.9549 55.8958 52.9736C54.8697 53.9924 53.4813 54.5624 52.0354 54.5586H44.1861C42.7402 54.5624 41.3518 53.9924 40.3257 52.9736C39.2996 51.9549 38.7196 50.5707 38.713 49.1247V48.9463L26.172 45.671C25.4821 45.581 24.8181 45.3498 24.2215 44.992C23.6248 44.6341 23.1083 44.1572 22.704 43.5909L22.6933 43.5731L16 31.7384L19.2289 29.4728L25.9401 41.3324C26.0345 41.4561 26.1525 41.5598 26.2872 41.6376C26.4219 41.7153 26.5707 41.7656 26.725 41.7856L38.713 44.9717V43.9299L30.4641 35.7344C29.9917 35.2695 29.6166 34.7153 29.3605 34.1039C29.1045 33.4926 28.9727 32.8364 28.9727 32.1737V20H32.9259V32.1737C32.9259 32.4698 33.0401 32.7445 33.247 32.955L38.7416 38.3996C38.8646 37.0413 39.4916 35.7782 40.4993 34.859C41.5069 33.9398 42.8222 33.4311 44.1861 33.4331H52.0354C54.8933 33.4331 57.2516 35.6202 57.4942 38.3996L62.978 32.955C63.0822 32.853 63.1644 32.7307 63.2196 32.5957C63.2749 32.4607 63.3019 32.3159 63.2991 32.1701V20H67.2523V32.1737C67.2523 33.5188 66.7172 34.7782 65.7645 35.7344L57.5049 43.9299V44.9753L69.493 41.7856C69.8046 41.7425 70.0873 41.58 70.2815 41.3324L76.9926 29.4728ZM53.566 49.1319C53.5623 49.5331 53.4 49.9166 53.1146 50.1987C52.8292 50.4807 52.4438 50.6385 52.0425 50.6375H44.1861C43.7842 50.6385 43.3983 50.4802 43.1128 50.1974C42.8273 49.9146 42.6655 49.5302 42.6626 49.1283V38.867C42.6626 38.0393 43.3441 37.3578 44.1861 37.3578H52.0354C52.881 37.3578 53.5625 38.0357 53.5625 38.867L53.566 49.1319Z"
      fill="#FCCD0C" />
    <path
      d="M54.7655 64.0744L53.7558 60.2852C54.1441 60.1822 54.4759 59.9295 54.6785 59.5825C54.8811 59.2355 54.938 58.8224 54.8368 58.4335L52.1823 48.5219C52.0755 48.1344 51.8196 47.8051 51.4706 47.6058C51.1216 47.4066 50.7078 47.3536 50.3199 47.4587L49.3066 43.666C50.7018 43.2891 52.1895 43.4808 53.4436 44.1991C54.6976 44.9174 55.6157 46.1037 55.9964 47.4979L56.082 47.819L56.3068 48.5326L70.0502 52.129C71.4417 52.3181 72.7047 53.0745 73.5182 54.2091L73.5289 54.2234L80.2222 66.0617L76.9932 68.3308L70.2857 56.4676C70.1944 56.3452 70.0794 56.2423 69.9477 56.1651C69.8159 56.0879 69.67 56.0379 69.5186 56.018L69.4972 56.0145L57.4128 52.8034L57.7696 54.1235L65.7688 62.0656C66.7214 63.0183 67.2566 64.2813 67.2566 65.6264V77.8H63.3069V65.6264C63.3088 65.4809 63.2809 65.3366 63.2251 65.2023C63.1693 65.0679 63.0866 64.9464 62.9823 64.845L58.5652 60.4636C58.2828 61.3344 57.7873 62.1208 57.1237 62.7513C56.4601 63.3819 55.6495 63.8367 54.7655 64.0744Z"
      fill="white" />
  </g>
  <defs>
    <clipPath id="clip0_10_2503">
      <rect width="98" height="98" fill="white" />
    </clipPath>
    <clipPath id="clip1_10_2503">
      <rect width="65" height="58" fill="white" transform="translate(16 20)" />
    </clipPath>
  </defs>
</svg>
  
