<svg id="ic_btc_24" xmlns="http://www.w3.org/2000/svg" width="24" height="24.004" viewBox="0 0 24 24.004">
  <rect id="Rectangle_179" data-name="Rectangle 179" width="24" height="24" transform="translate(0 0.004)" fill="none"/>
  <g id="Layer_x0020_1">
    <g id="_1421344023328">
      <path id="Path_1467" data-name="Path 1467" d="M23.641,14.906A12,12,0,1,1,14.9.36a12,12,0,0,1,8.74,14.546h0Z" transform="translate(0 -0.001)" fill="#f7931a"/>
      <path id="Path_1468" data-name="Path 1468" d="M1006.586,718.652c.232-1.543-.948-2.372-2.562-2.925l.524-2.09-1.278-.317-.51,2.035c-.336-.083-.681-.162-1.024-.24l.513-2.048-1.277-.317-.524,2.089c-.278-.063-.551-.125-.816-.191l0-.007-1.763-.438-.34,1.359s.948.216.928.23a.677.677,0,0,1,.6.74l-.6,2.381a1.036,1.036,0,0,1,.133.042l-.135-.033-.836,3.335a.465.465,0,0,1-.586.3c.013.019-.929-.231-.929-.231l-.635,1.456,1.664.413c.309.077.613.158.911.234l-.529,2.114,1.277.317.524-2.091c.349.094.687.181,1.019.263l-.522,2.081,1.278.317.529-2.11c2.18.411,3.819.245,4.509-1.717a2.228,2.228,0,0,0-1.174-3.085,2.032,2.032,0,0,0,1.632-1.868h0Zm-2.921,4.075c-.4,1.58-3.068.726-3.934.512l.7-2.8c.867.215,3.645.641,3.232,2.289Zm.4-4.1c-.36,1.437-2.585.707-3.306.528l.636-2.54c.722.179,3.045.513,2.67,2.012Z" transform="translate(-989.473 -708.323)" fill="#fff"/>
    </g>
  </g>
</svg>
