<svg width="20" height="20" viewBox="0 0 20 20" fill="none" xmlns="http://www.w3.org/2000/svg">
<path d="M18.0155 9.14842V10.8504L12.9115 16.8055H11.2302L16.3353 10.8504V9.14842H18.0155ZM13.7615 9.14842H12.0812L12.9322 3.19336H14.6125L13.7615 9.14842Z" fill="currentColor"/>
<path d="M1.98413 10.8506V9.14844L7.08862 3.19336H8.76929L3.66479 9.14941V10.8506H1.98413ZM9.61987 9.14941V9.14844L12.1931 9.14941H9.61987ZM6.23804 10.8506H7.9187L7.06812 16.8057H5.38745L6.23804 10.8506Z" fill="currentColor"/>
<path d="M10.7886 9.14866L11.6393 3.19336H9.9378L4.83325 9.14866V10.8502H9.08704L8.23628 16.8055H9.9378L15.0423 10.8502V9.14866H10.7886Z" fill="currentColor"/>
</svg>
