<svg viewBox="0 0 24 24" fill="none" xmlns="http://www.w3.org/2000/svg">
  <path
    d="M11.1 12.9V15.6C11.1 15.855 11.1864 16.0689 11.3592 16.2417C11.532 16.4145 11.7456 16.5006 12 16.5C12.2544 16.4994 12.4683 16.413 12.6417 16.2408C12.8151 16.0686 12.9012 15.855 12.9 15.6V12.9H15.6C15.855 12.9 16.0689 12.8136 16.2417 12.6408C16.4145 12.468 16.5006 12.2544 16.5 12C16.4994 11.7456 16.413 11.532 16.2408 11.3592C16.0686 11.1864 15.855 11.1 15.6 11.1H12.9V8.4C12.9 8.145 12.8136 7.9314 12.6408 7.7592C12.468 7.587 12.2544 7.5006 12 7.5C11.7456 7.4994 11.532 7.5858 11.3592 7.7592C11.1864 7.9326 11.1 8.1462 11.1 8.4V11.1H8.4C8.145 11.1 7.9314 11.1864 7.7592 11.3592C7.587 11.532 7.5006 11.7456 7.5 12C7.4994 12.2544 7.5858 12.4683 7.7592 12.6417C7.9326 12.8151 8.1462 12.9012 8.4 12.9H11.1ZM12 21C10.755 21 9.585 20.7636 8.49 20.2908C7.395 19.818 6.4425 19.1769 5.6325 18.3675C4.8225 17.5581 4.1814 16.6056 3.7092 15.51C3.237 14.4144 3.0006 13.2444 3 12C2.9994 10.7556 3.2358 9.5856 3.7092 8.49C4.1826 7.3944 4.8237 6.4419 5.6325 5.6325C6.4413 4.8231 7.3938 4.182 8.49 3.7092C9.5862 3.2364 10.7562 3 12 3C13.2438 3 14.4138 3.2364 15.51 3.7092C16.6062 4.182 17.5587 4.8231 18.3675 5.6325C19.1763 6.4419 19.8177 7.3944 20.2917 8.49C20.7657 9.5856 21.0018 10.7556 21 12C20.9982 13.2444 20.7618 14.4144 20.2908 15.51C19.8198 16.6056 19.1787 17.5581 18.3675 18.3675C17.5563 19.1769 16.6038 19.8183 15.51 20.2917C14.4162 20.7651 13.2462 21.0012 12 21ZM12 19.2C14.01 19.2 15.7125 18.5025 17.1075 17.1075C18.5025 15.7125 19.2 14.01 19.2 12C19.2 9.99 18.5025 8.2875 17.1075 6.8925C15.7125 5.4975 14.01 4.8 12 4.8C9.99 4.8 8.2875 5.4975 6.8925 6.8925C5.4975 8.2875 4.8 9.99 4.8 12C4.8 14.01 5.4975 15.7125 6.8925 17.1075C8.2875 18.5025 9.99 19.2 12 19.2Z"
    fill="currentColor" />
</svg>
