<svg xmlns="http://www.w3.org/2000/svg" width="30" height="30"><g transform="translate(-190 -26)"><path data-name="Rectangle 550" fill="none" opacity=".684" d="M190 26h30v30h-30z"/><circle data-name="Ellipse 176" cx="10" cy="10" r="10" transform="translate(195 31)" fill="#fff"/><g data-name="Group 411"><path data-name="Path 4607" d="M205 30a11 11 0 0 0-6.776 19.665l3.863-13.454a3.61 3.61 0 0 1 7.128 1.054c0 .054-.01.107-.017.16l-.005.04c-.007.053-.015.1-.025.157v.009a2.64 2.64 0 0 1-.03.145l-.01.045q-.016.069-.036.137v.014a3.576 3.576 0 0 1-.5 1.051l-.575-.378a4.872 4.872 0 0 0-1.5-.451q.043-.031.083-.066a1.506 1.506 0 0 0 .49-.79v-.005c.009-.036.016-.072.022-.108v-.019c.006-.036.01-.073.013-.11a1.517 1.517 0 0 0-1.387-1.633q-.063-.005-.125-.005a1.512 1.512 0 0 0-1.405.958l-2.572 8.958-1.568 5.464A11 11 0 1 0 205 30.004Zm5.373 13.4a4.551 4.551 0 0 1-3.6 4.078h-.012c-.1.02-.195.037-.294.051h-.01a3.804 3.804 0 0 1-.264.027h-.065a4.37 4.37 0 0 1-.281.01q-.185 0-.372-.015a4.524 4.524 0 0 1-2.978-1.461l.744-2.746a2.786 2.786 0 0 0 2.4 2.119c.075.006.149.008.223.007h.048c.071 0 .141-.007.211-.014l.042-.006a2.448 2.448 0 0 0-.126-4.866q-.1-.008-.2-.008c-.114 0-.525.01-.636.025v-2.1a9.3 9.3 0 0 1 1.009 0 4.549 4.549 0 0 1 4.161 4.899Z"/></g><g data-name="Group 292" transform="translate(204 40)"><rect width="16" height="16" rx="8" fill="#3e4062"/><path data-name="base - Outline" d="M8 1a7 7 0 1 0 7 7 7 7 0 0 0-7-7m0-1a8 8 0 1 1-8 8 8 8 0 0 1 8-8Z" fill="#1e1f37"/><path data-name="Rectangle 213" fill="none" d="M0 0h16v16H0z"/><path data-name="Path 348" d="m9.241 7.56.774-1.313 2.086 3.249v.624-4.289a.323.323 0 0 0-.149-.257l-3.756-2.16a.331.331 0 0 0-.287 0l-.034.019-.013.008-3.645 2.113-.014.006a.329.329 0 0 0-.054.031.324.324 0 0 0-.135.243l.006 3.5 1.943-3.012a1.425 1.425 0 0 1 1.272-.521l.581.015-3.422 5.487.4.232 3.463-5.714 1.531-.006-3.453 5.856 1.439.828.172.1a.33.33 0 0 0 .232 0l3.808-2.207-.728.422Zm.3 4.253L8.086 9.531l.887-1.506 1.91 3.006Z" fill="#2d374b"/><path data-name="Path 349" d="m8.086 9.531 1.454 2.282 1.343-.778-1.909-3.009Z" fill="#28a0f0"/><path data-name="Path 350" d="M12.106 10.119v-.624L10.02 6.246l-.774 1.313 2.014 3.257.728-.422a.323.323 0 0 0 .119-.235Z" fill="#28a0f0"/><path data-name="Path 351" d="m3.364 10.707 1.028.592 3.422-5.487-.581-.015a1.425 1.425 0 0 0-1.272.521L4.018 9.33l-.654 1Z" fill="#fff"/><path data-name="Path 352" d="m9.789 5.812-1.531.006-3.463 5.714 1.21.7.329-.558Z" fill="#fff"/><path data-name="Path 353" d="M12.746 5.804a.975.975 0 0 0-.458-.784l-3.8-2.188a.99.99 0 0 0-.873 0c-.032.016-3.7 2.144-3.7 2.144a.974.974 0 0 0-.551.826v4.532l.654-1-.006-3.5a.311.311 0 0 1 0-.038.322.322 0 0 1 .13-.2c.017-.012 3.748-2.172 3.76-2.178a.331.331 0 0 1 .287 0l3.756 2.16a.323.323 0 0 1 .149.257v4.331a.316.316 0 0 1-.112.235l-.728.422-.376.218-1.343.778-1.362.789a.33.33 0 0 1-.232 0l-1.611-.927-.329.558 1.448.834.126.071.1.057a.941.941 0 0 0 .384.079.968.968 0 0 0 .355-.067l3.964-2.299a.967.967 0 0 0 .373-.729V5.804Z" fill="#96bedc"/></g></g></svg>