<svg width="40" height="40" viewBox="0 0 40 40" fill="none" xmlns="http://www.w3.org/2000/svg">
<path d="M0 20C0 8.95431 8.95431 0 20 0V0C31.0457 0 40 8.95431 40 20V20C40 31.0457 31.0457 40 20 40V40C8.95431 40 0 31.0457 0 20V20Z" fill="#58BE92"/>
<path d="M27.4344 11.809C26.3254 8.85113 23.5169 8.58148 20.2392 9.25562L19.0816 5L16.5969 5.75L17.7382 9.85394L15.7633 10.4775L14.6221 6.32305L12.1616 7.07303L13.319 11.2865L11.7408 11.7921V11.7837L8.33334 12.795L9.08604 15.5422C9.08604 15.5422 10.9071 14.9523 10.8909 15.0028C11.8864 14.6995 12.3801 15.2135 12.6229 15.7107L13.9503 20.5226L14.2174 20.4805L13.9503 20.5562L15.8118 27.3147C15.8604 27.6518 15.8118 28.2248 15.1239 28.4355C15.1563 28.4522 13.319 28.9832 13.319 28.9832L13.6751 32.2023L16.8883 31.2416L18.6688 30.7277L19.8506 35L22.3029 34.2585L21.1537 30.0366L23.1285 29.4635L24.2858 33.6771L26.7705 32.9354L25.5889 28.6629C29.6762 27.1713 32.2904 25.2078 31.5377 21.0365C30.9227 17.6827 29.0367 16.6544 26.5197 16.7809C27.7336 15.5759 28.2597 13.9832 27.4504 11.809H27.4344ZM26.5116 22.0057C27.3776 25.2078 22.0277 26.4046 20.3606 26.9185L18.7983 21.2473C20.4738 20.7416 25.5889 18.677 26.5116 22.0057ZM23.1608 14.3287C23.954 17.2527 19.4701 18.2135 18.07 18.6349L16.6536 13.4944C18.0537 13.0815 22.3192 11.3034 23.1608 14.3455V14.3287Z" fill="white"/>
</svg>
