<svg xmlns="http://www.w3.org/2000/svg" width="51.499" height="43.5" viewBox="0 0 51.499 43.5">
  <g id="ic_cash" transform="translate(-1212.501 -2442.125)">
    <path id="Path_511" data-name="Path 511" d="M13.875-25.437h9.25l3.425-5.14a1.358,1.358,0,0,0,.194-.642,1.157,1.157,0,0,0-1.156-1.156H11.414a1.157,1.157,0,0,0-1.156,1.156,1.357,1.357,0,0,0,.194.642Zm9.25,2.313h-9.25C-.75-14.786.006-3.712.006-2.312c0,3.83,3.549,6.938,7.926,6.938H29.069c4.378,0,7.926-3.107,7.926-6.937C36.995-3.686,37.671-14.832,23.125-23.125Z" transform="translate(1213 2475)" fill="#03cfcd" stroke="#03cfcd" stroke-width="1"/>
    <path id="Path_510" data-name="Path 510" d="M13.875-25.437h9.25l3.425-5.14a1.358,1.358,0,0,0,.194-.642,1.157,1.157,0,0,0-1.156-1.156H11.414a1.157,1.157,0,0,0-1.156,1.156,1.357,1.357,0,0,0,.194.642Zm9.25,2.313h-9.25C-.75-14.786.006-3.712.006-2.312c0,3.83,3.549,6.938,7.926,6.938H29.069c4.378,0,7.926-3.107,7.926-6.937C36.995-3.686,37.671-14.832,23.125-23.125Z" transform="translate(1227 2481)" fill="#4e09f8"/>
    <path id="Intersection_5" data-name="Intersection 5" d="M-4085.921,533a6.138,6.138,0,0,1-.072-.938c0-1.4-.758-12.473,13.868-20.813h3.044C-4062.6,518.139-4063,525-4063,526.063c0,3.829-3.549,6.938-7.927,6.938Zm13.8-24.063-.673-1.011q.662.5,1.266,1.011Z" transform="translate(5313 1946.625)" fill="#50d0fe" stroke="#03cfcd" stroke-width="1"/>
    <text id="_" data-name="" transform="translate(1229 2478)" fill="#fff" font-size="29" font-family="FontAwesome5Pro-Solid, 'Font Awesome \35  Pro'"><tspan x="0" y="0"></tspan></text>
  </g>
</svg>
