<svg width="1em" height="1em" viewBox="0 0 21 20" fill="none" xmlns="http://www.w3.org/2000/svg">
  <path
    d="M5.86719 9.19995C5.86719 6.93719 5.86719 5.8058 6.57014 5.10285C7.27309 4.3999 8.40447 4.3999 10.6672 4.3999H13.0673C15.33 4.3999 16.4614 4.3999 17.1644 5.10285C17.8673 5.8058 17.8673 6.93719 17.8673 9.19995V13.2C17.8673 15.4628 17.8673 16.5941 17.1644 17.2971C16.4614 18 15.33 18 13.0673 18H10.6672C8.40447 18 7.27309 18 6.57014 17.2971C5.86719 16.5941 5.86719 15.4628 5.86719 13.2V9.19995Z"
    stroke="currentColor" />
  <path
    d="M5.86877 15.6001C4.54328 15.6001 3.46875 14.5256 3.46875 13.2001V8.40007C3.46875 5.38305 3.46875 3.87454 4.40602 2.93727C5.34329 2 6.8518 2 9.86881 2H13.0688C14.3943 2 15.4689 3.07453 15.4689 4.40002"
    stroke="currentColor" />
</svg>
