<svg width="20" height="20" viewBox="0 0 20 20" fill="none" xmlns="http://www.w3.org/2000/svg">
<g id="copy">
<path id="Union" fill-rule="evenodd" clip-rule="evenodd" d="M4.9999 2.90039C3.8401 2.90039 2.8999 3.84059 2.8999 5.00039V11.0004C2.8999 12.1602 3.8401 13.1004 4.9999 13.1004C5.33127 13.1004 5.5999 12.8318 5.5999 12.5004C5.5999 12.169 5.33127 11.9004 4.9999 11.9004C4.50285 11.9004 4.0999 11.4974 4.0999 11.0004V5.00039C4.0999 4.50333 4.50285 4.10039 4.9999 4.10039H10.9999C11.497 4.10039 11.8999 4.50333 11.8999 5.00039C11.8999 5.33176 12.1685 5.60039 12.4999 5.60039C12.8313 5.60039 13.0999 5.33176 13.0999 5.00039C13.0999 3.84059 12.1597 2.90039 10.9999 2.90039H4.9999ZM8.9999 6.90039C7.8401 6.90039 6.8999 7.84059 6.8999 9.00039V15.0004C6.8999 16.1602 7.8401 17.1004 8.9999 17.1004H14.9999C16.1597 17.1004 17.0999 16.1602 17.0999 15.0004V9.00039C17.0999 7.84059 16.1597 6.90039 14.9999 6.90039H8.9999ZM8.0999 9.00039C8.0999 8.50333 8.50285 8.10039 8.9999 8.10039H14.9999C15.497 8.10039 15.8999 8.50333 15.8999 9.00039V15.0004C15.8999 15.4974 15.497 15.9004 14.9999 15.9004H8.9999C8.50285 15.9004 8.0999 15.4974 8.0999 15.0004V9.00039Z" fill="#9EA4C2"/>
</g>
</svg>
