<svg xmlns="http://www.w3.org/2000/svg" width="24" height="24" fill="none" viewBox="0 0 24 24">
  <g clip-path="url(#a)">
    <path fill="#000" d="M12 24c6.627 0 12-5.373 12-12S18.627 0 12 0 0 5.373 0 12s5.373 12 12 12Z"/>
    <path fill="#8E8E8E" d="M19.674 11.48c-.172-2.806-3.005-4.426-5.362-5.387-2.398-.977-6.11-2.446-7.877.283-1.538 2.022-1.565 4.876-1.096 7.274.609 2.172 1.314 6.299 4.339 5.774.956-.366 1.503-1.329 1.834-2.266l-.038-.015c.005-.013.159-.427.246-1.347.073-.766.112-2.032-.076-3.866h-.004s-.004-.063-.014-.174a32.585 32.585 0 0 0-.04-.344 8.993 8.993 0 0 0-.397-1.766c-.373-1.06-.3-1.942 2.721-.88 3.02 1.06 3.543 1.755 2.196 2.428-1.053.526-3.192.68-4.073.722.23 2.241.13 3.68.004 4.498 1.19-.685 4.522-1.139 5.458-1.53 1.712-.322 2.233-1.829 2.179-3.405Zm-9.985 6.54c0-.002.002-.003.003-.004 0 .002-.002.003-.003.004Zm7.79-10.083.005.003-.005-.003Z"/>
  </g>
  <defs>
    <clipPath id="a">
      <path fill="#fff" d="M0 0h24v24H0z"/>
    </clipPath>
  </defs>
</svg>
