<svg width="40" height="40" viewBox="0 0 40 40" fill="none" xmlns="http://www.w3.org/2000/svg">
<g clip-path="url(#clip0_1438_3251)">
<path d="M3.07486e-07 20C4.77306e-07 31.0457 8.9543 40 20 40C31.0457 40 40 31.0457 40 20C40 8.9543 31.0457 1.37666e-07 20 3.07486e-07C8.9543 4.77306e-07 1.37666e-07 8.95431 3.07486e-07 20Z" fill="#FF7028"/>
<path d="M28.4134 18.7372C28.7669 18.3934 28.9708 17.9241 28.9808 17.431C28.9907 16.938 28.8061 16.4608 28.4667 16.103C28.1274 15.7451 27.6608 15.5353 27.1679 15.5191C26.675 15.5028 26.1955 15.6815 25.8334 16.0162L19.9984 21.5432L14.1634 16.0162C13.8012 15.6815 13.3218 15.5028 12.8289 15.5191C12.336 15.5353 11.8693 15.7451 11.53 16.103C11.1907 16.4608 11.006 16.938 11.016 17.431C11.026 17.9241 11.2298 18.3934 11.5834 18.7372L18.7084 25.4862C19.0567 25.8164 19.5184 26.0005 19.9984 26.0005C20.4784 26.0005 20.9401 25.8164 21.2884 25.4862L28.4134 18.7372Z" fill="white"/>
</g>
<defs>
<clipPath id="clip0_1438_3251">
<rect width="40" height="40" fill="white"/>
</clipPath>
</defs>
</svg>
