<svg id="ic_convert_down" xmlns="http://www.w3.org/2000/svg" width="40" height="40" viewBox="0 0 40 40">
  <g id="ic_convert" transform="translate(624.667 -1130.667) rotate(90)">
    <circle id="Ellipse_29" data-name="Ellipse 29" cx="20" cy="20" r="20" transform="translate(1130.667 584.667)" fill="#2d42fc"/>
    <path id="Path_179" data-name="Path 179" d="M1.725,0H11.5a2.3,2.3,0,0,1,1.626,3.926l-2.16,2.16,4.47,4.47a2.3,2.3,0,0,1,0,3.252l-1.625,1.626a2.3,2.3,0,0,1-3.253,0l-4.47-4.47L3.926,13.125A2.3,2.3,0,0,1,0,11.5V1.725A1.725,1.725,0,0,1,1.725,0Z" transform="matrix(-0.719, 0.695, -0.695, -0.719, 1162.055, 604.865)" fill="#fff"/>
  </g>
</svg>
