<svg xmlns="http://www.w3.org/2000/svg" width="16" height="16" fill="none" viewBox="0 0 16 16">
  <path stroke="currentColor" stroke-linecap="round" stroke-linejoin="round" d="M3.333 10.667V9.333M8 14v-1.333m4.667-4V7.333m-9.334-2V4M8 8.667V7.333m4.667-4V2m-8 3.733v3.2a.4.4 0 0 1-.4.4H2.4a.4.4 0 0 1-.4-.4v-3.2a.4.4 0 0 1 .4-.4h1.867a.4.4 0 0 1 .4.4Zm4.666 3.334v3.2a.4.4 0 0 1-.4.4H7.067a.4.4 0 0 1-.4-.4v-3.2a.4.4 0 0 1 .4-.4h1.866a.4.4 0 0 1 .4.4ZM14 3.733v3.2a.4.4 0 0 1-.4.4h-1.867a.4.4 0 0 1-.4-.4v-3.2a.4.4 0 0 1 .4-.4H13.6a.4.4 0 0 1 .4.4Z"/>
</svg>
