<svg xmlns="http://www.w3.org/2000/svg" fill="none" viewBox="0 0 135 25"><path fill="#A0A3C4" d="M8.887 18.296c-.429-1.718-.671-3.694-.671-5.795 0-2.103.243-4.079.671-5.797m0 11.591c.921 3.7 2.696 6.205 4.735 6.205 2.037 0 3.812-2.505 4.733-6.204m-9.468 0C4.19 17.375.874 15.128.874 12.5S4.19 7.625 8.887 6.704m0 11.591c2.49.49 7.099.465 9.468 0H8.887Zm9.468 0c.48-1.924 1.238-4.994 4.078-4.539.996.16 1.635.814 1.63 1.617-.01 2.206-4.003 2.589-5.708 2.923ZM8.887 6.706C9.808 3.004 11.583.5 13.622.5c2.037 0 3.812 2.505 4.733 6.204m-9.468 0c2.49-.488 7.099-.465 9.468 0H8.887Zm9.468 0 .003.012c.48 1.925 1.241 4.983 4.075 4.528.996-.16 1.635-.814 1.63-1.617-.01-2.206-4.003-2.589-5.708-2.923ZM39.057 11.04h-2.522a2.466 2.466 0 0 0-.282-.87 2.212 2.212 0 0 0-.547-.656 2.408 2.408 0 0 0-.772-.415 2.951 2.951 0 0 0-.938-.144c-.61 0-1.143.152-1.596.455-.453.3-.804.737-1.053 1.313-.25.572-.375 1.267-.375 2.084 0 .841.125 1.548.374 2.12.254.572.607 1.004 1.06 1.295.453.292.977.438 1.572.438.334 0 .643-.044.927-.133.288-.088.544-.216.766-.385.223-.173.407-.382.553-.628.15-.246.253-.526.311-.84l2.522.01a4.705 4.705 0 0 1-1.532 2.908 4.905 4.905 0 0 1-1.554.934c-.6.226-1.277.34-2.033.34-1.052 0-1.993-.238-2.822-.715-.825-.476-1.478-1.165-1.958-2.067-.476-.902-.714-1.994-.714-3.277 0-1.286.242-2.38.726-3.282.483-.902 1.14-1.59 1.97-2.062.828-.476 1.761-.714 2.798-.714.683 0 1.317.096 1.9.288a4.818 4.818 0 0 1 1.56.841c.454.365.822.812 1.106 1.342.288.53.473 1.136.553 1.82Zm1.788 7.664V6.911h2.494v4.866H48.4V6.91h2.487v11.793h-2.487v-4.872h-5.062v4.872h-2.494Zm14.132 0h-2.672l4.071-11.793h3.214l4.065 11.793h-2.672L58.03 9.606h-.092l-2.96 9.098Zm-.167-4.635h6.311v1.946H54.81v-1.946Zm20.548-1.262c0 1.287-.244 2.38-.731 3.283-.484.902-1.144 1.591-1.981 2.067-.833.472-1.77.709-2.81.709-1.049 0-1.99-.238-2.822-.715-.833-.476-1.492-1.165-1.975-2.067-.484-.902-.726-1.994-.726-3.277 0-1.286.242-2.38.726-3.282.483-.902 1.142-1.59 1.975-2.062.833-.476 1.773-.714 2.822-.714 1.04 0 1.977.238 2.81.714.837.473 1.497 1.16 1.98 2.062.488.902.732 1.996.732 3.282Zm-2.528 0c0-.833-.125-1.535-.374-2.107-.246-.572-.593-1.006-1.043-1.302-.449-.295-.975-.443-1.577-.443-.603 0-1.13.148-1.578.443-.45.296-.799.73-1.048 1.302-.246.572-.369 1.274-.369 2.107 0 .833.123 1.536.369 2.108.25.572.599 1.006 1.048 1.302.449.295.975.443 1.578.443.602 0 1.128-.148 1.577-.444.45-.295.797-.729 1.043-1.3.25-.573.374-1.276.374-2.109Zm10.773-2.505c-.046-.464-.244-.825-.593-1.082-.35-.257-.824-.386-1.423-.386-.407 0-.75.058-1.03.173a1.45 1.45 0 0 0-.645.466c-.146.2-.22.426-.22.68a.971.971 0 0 0 .133.553c.1.157.236.293.41.408.172.112.371.21.598.294.227.08.468.15.726.207l1.06.254c.514.115.986.268 1.416.46a4.3 4.3 0 0 1 1.117.709c.315.28.559.61.731.99.177.38.267.816.271 1.307-.004.722-.188 1.348-.553 1.878-.36.526-.883.935-1.566 1.226-.68.288-1.5.432-2.46.432-.951 0-1.78-.146-2.487-.437-.702-.292-1.251-.724-1.647-1.296-.391-.576-.597-1.288-.616-2.137h2.413c.027.396.14.726.34.991.203.261.474.459.812.593.341.13.727.196 1.157.196.422 0 .789-.061 1.1-.184.315-.123.559-.294.731-.513.173-.219.26-.47.26-.754a.98.98 0 0 0-.237-.668c-.153-.18-.38-.334-.68-.461a6.913 6.913 0 0 0-1.088-.346l-1.284-.322c-.994-.242-1.78-.62-2.355-1.134-.576-.515-.862-1.208-.858-2.08-.004-.713.186-1.337.57-1.87.388-.534.92-.951 1.595-1.25.676-.3 1.444-.45 2.304-.45.875 0 1.639.15 2.292.45.656.299 1.167.716 1.531 1.25.365.533.553 1.15.565 1.854h-2.39Zm7.981 8.402V6.911h2.494v9.737h5.056v2.056h-7.55Zm11.535 0h-2.672l4.071-11.793h3.213l4.066 11.793h-2.672l-2.954-9.098h-.092l-2.96 9.098Zm-.167-4.635h6.311v1.946h-6.311v-1.946Zm10.265 4.635V6.911h4.722c.867 0 1.591.128 2.171.385.579.258 1.015.615 1.307 1.072.292.453.437.975.437 1.566 0 .46-.092.866-.276 1.215-.184.346-.438.63-.76.852a3.114 3.114 0 0 1-1.094.467v.115a2.698 2.698 0 0 1 2.223 1.365c.245.418.368.917.368 1.497 0 .626-.155 1.184-.466 1.676-.307.487-.762.873-1.365 1.157-.603.284-1.346.426-2.229.426h-5.038Zm2.493-2.038h2.033c.695 0 1.201-.133 1.52-.398.319-.268.478-.625.478-1.07 0-.327-.079-.615-.236-.864a1.6 1.6 0 0 0-.674-.588c-.288-.142-.631-.213-1.031-.213h-2.09v3.133Zm0-4.82h1.849c.341 0 .644-.06.909-.179.269-.123.48-.295.634-.518.157-.223.236-.49.236-.8 0-.427-.152-.77-.455-1.031-.299-.261-.726-.392-1.278-.392h-1.895v2.92Zm14.625-1.543c-.046-.465-.243-.826-.593-1.083-.349-.257-.823-.386-1.422-.386-.407 0-.751.058-1.031.173-.28.111-.495.267-.645.466-.146.2-.219.426-.219.68a.976.976 0 0 0 .133.553c.1.157.236.293.409.408.172.112.372.21.599.294.226.08.468.15.725.207l1.06.254c.514.115.986.268 1.416.46.43.192.803.428 1.117.709.315.28.559.61.732.99.176.38.267.816.27 1.307-.003.722-.188 1.348-.552 1.878-.361.526-.883.935-1.567 1.226-.679.288-1.499.432-2.459.432-.952 0-1.781-.146-2.487-.437-.703-.292-1.252-.724-1.647-1.296-.392-.576-.597-1.288-.616-2.137h2.412c.027.396.141.726.34.991.204.261.474.459.812.593.342.13.728.196 1.158.196.422 0 .789-.061 1.099-.184.315-.123.559-.294.732-.513.173-.219.259-.47.259-.754a.982.982 0 0 0-.236-.668c-.154-.18-.38-.334-.68-.461a6.887 6.887 0 0 0-1.088-.346l-1.284-.322c-.995-.242-1.78-.62-2.355-1.134-.576-.515-.862-1.208-.859-2.08-.003-.713.187-1.337.571-1.87.387-.534.919-.951 1.595-1.25.675-.3 1.443-.45 2.303-.45.875 0 1.639.15 2.292.45.657.299 1.167.716 1.532 1.25.365.533.553 1.15.564 1.854h-2.39Z"/></svg>