<svg width="24" height="24" viewBox="0 0 64 64" fill="none" xmlns="http://www.w3.org/2000/svg">
  <path d="M9 45.2445L31.9897 59L55 45.2549V17.7555L31.9897 4L9 17.7451V45.2445Z" fill="white"/>
  <path d="M31.7998 63.9561L59.0009 47.9733V15.9953L31.7998 0V9.48683L50.9466 20.7293V43.2393L31.7998 54.4756V63.9499V63.9561Z" fill="#002D74"/>
  <path d="M44.6031 39.4517L31.8961 46.9131L19.1768 39.4517V24.5159L31.8961 17.042L44.6031 24.5159L39.3157 27.626L31.8961 23.262L24.4765 27.626V36.3291L31.8961 40.6931L39.3157 36.3291L44.6031 39.4517Z" fill="#002D74"/>
  <path d="M31.8837 0L4.68262 15.9828V47.9608L31.8837 63.9561V54.4693L12.737 43.2268V20.7168L31.8837 9.48055V0Z" fill="#002D74"/>
  </svg>
  