<svg width="1em" height="1em" viewBox="0 0 16 16" fill="none" xmlns="http://www.w3.org/2000/svg">
  <g transform="translate(0.431 2.359)">
    <path d="M8.07719 8.08192L8.99646 7.16208C10.5196 5.63803 10.5196 3.16707 8.99646 1.64303C7.47337 0.118989 5.00395 0.118989 3.48085 1.64303L1.64232 3.48271C0.119227 5.00676 0.119227 7.47772 1.64232 9.00176C2.34864 9.70852 3.25848 10.0875 4.18308 10.1388" stroke="currentColor" stroke-linecap="round"/>
  </g>
  <g transform="translate(4.929 3.002)">
    <path d="M2.56159 2.55688L1.64232 3.47672C0.119227 5.00076 0.119227 7.47172 1.64232 8.99576C3.16541 10.5198 5.63483 10.5198 7.15792 8.99576L8.99646 7.15608C10.5196 5.63204 10.5196 3.16108 8.99646 1.63704C8.29014 0.930272 7.3803 0.551264 6.4557 0.500014" stroke="currentColor" stroke-linecap="round"/>
  </g>
</svg>
