<svg width="24" height="24" viewBox="0 0 24 24" fill="none" xmlns="http://www.w3.org/2000/svg">
<path d="M21.4454 12.261C20.2448 15.362 15.1151 16.267 9.98751 14.2821C5.15433 12.4116 0.696731 4.77018 6.72371 2.23806C8.86362 1.75696 11.5991 1.99363 14.3345 3.05246C19.4621 5.03683 22.6453 9.16 21.4454 12.261Z" fill="url(#paint0_linear_1_5454)"/>
<path d="M15.5156 4.25359C14.3357 4.03693 14.2579 5.5552 14.4195 6.4035C17.564 7.64511 18.6167 9.49337 18.6944 9.61006C20.1311 8.38731 21.5932 9.75343 21.7237 10.7972C21.5677 7.40957 17.1212 4.54914 15.5156 4.25359Z" fill="url(#paint1_linear_1_5454)"/>
<path d="M3.6872 17.7719C2.86279 15.2341 3.61942 12.9998 4.10106 12.1999C3.66887 10.1972 2.85834 6.17568 2.83279 6.20068C1.40952 11.2083 2.69613 16.0631 3.5472 17.8536L3.6872 17.7719Z" fill="url(#paint2_linear_1_5454)"/>
<path d="M2.70909 6.80231C2.82799 5.84569 3.42795 4.69517 3.80961 4.16353L10.6238 2.10583C17.6062 3.26356 15.9775 6.09734 10.796 5.60959C9.19997 5.45958 9.96994 6.94287 10.0638 8.31392C10.496 11.2249 9.83876 11.5638 8.82441 13.0659C8.46776 12.3332 7.67834 10.9438 6.27007 10.8493C5.14288 10.7744 4.04793 12.2016 3.80961 12.7271C3.74683 12.671 3.53518 11.7204 3.41518 11.3299C2.7902 10.0266 2.49577 8.5178 2.70909 6.80231Z" fill="url(#paint3_linear_1_5454)"/>
<path d="M3.46618 6.74783C3.27007 5.89952 3.38451 5.14122 3.46618 4.86845C3.66172 4.12405 4.6389 2.54299 6.98381 2.17412C9.32874 1.80581 11.4281 2.11635 12.1848 2.52578C12.9035 3.00854 12.5931 4.47569 11.1314 4.06183C9.00312 3.44741 8.67375 4.25904 8.84928 5.37844C9.32316 7.8539 9.04654 9.51157 8.84928 10.0304C8.84928 10.0304 8.21265 11.6326 7.68601 11.1282C6.78604 10.2282 5.95274 10.4037 5.03056 10.6448C4.29336 10.8382 4.0717 10.316 4.05282 10.0304C3.93893 9.28994 3.66283 7.59668 3.46618 6.74783Z" fill="url(#paint4_linear_1_5454)"/>
<path d="M5.52806 2.61243C3.8559 3.40906 4.46033 6.52282 4.98142 8.0622C5.54973 7.70665 7.28965 7.84832 7.82241 8.41663C7.02689 3.89904 8.90743 2.09078 9.4757 2.12634C9.4757 2.12634 8.54182 2.02633 7.8924 2.08133C7.11356 2.12578 6.27469 2.25632 5.52806 2.61243Z" fill="url(#paint5_linear_1_5454)"/>
<path d="M18.7718 9.54557C17.4496 11.0199 13.1292 11.6238 11.1348 11.7415C11.5504 13.7359 11.1732 16.7725 10.9326 18.0413C13.5031 17.2291 18.8523 15.5625 19.6828 15.3931C20.7211 15.1809 21.9922 13.5498 21.7805 11.1766C21.5688 8.80388 19.6195 8.65556 18.7718 9.54557Z" fill="url(#paint6_linear_1_5454)"/>
<path d="M10.1282 7.79667C9.81436 7.92888 10.842 10.4949 11.1743 11.7781C16.3351 11.392 18.0546 10.1121 18.0756 10.1121C15.1819 7.71445 10.5209 7.63112 10.1282 7.79667Z" fill="url(#paint7_linear_1_5454)"/>
<path d="M18.7059 9.6316C17.937 6.73893 10.7618 5.17067 10.0256 5.67897C9.58572 5.9823 9.76512 7.15558 10.0256 7.81666C13.5823 7.46835 16.9176 9.20717 18.0403 10.0971C18.217 10.0555 18.6404 9.73491 18.7059 9.6316Z" fill="url(#paint8_linear_1_5454)"/>
<path d="M19.8617 10.23C18.3634 10.5149 18.4885 9.88659 18.7379 9.53712C19.5324 8.56332 20.8917 9.13163 21.4722 9.53712C21.5599 9.64938 21.3601 9.94544 19.8617 10.23Z" fill="url(#paint9_linear_1_5454)"/>
<path d="M6.84715 20.5884C8.58481 20.452 9.82264 18.1659 9.61187 15.4821C9.4011 12.7984 7.82164 10.7335 6.08399 10.8698C4.34634 11.0063 3.10853 13.2925 3.31927 15.9762C3.53002 18.66 5.1095 20.7249 6.84715 20.5884Z" fill="url(#paint10_linear_1_5454)"/>
<path d="M6.02655 13.0581C4.97659 13.2526 4.10885 12.9232 3.80664 12.7343C4.09273 12.1566 4.83993 10.9021 6.25377 10.8055C7.53093 10.7183 8.34812 11.7493 8.71589 12.5276C8.18091 12.4843 7.07651 12.8637 6.02655 13.0581Z" fill="url(#paint11_linear_1_5454)"/>
<path d="M6.02655 13.0581C4.97659 13.2526 4.10885 12.9232 3.80664 12.7343C4.09273 12.1566 4.83993 10.9021 6.25377 10.8055C7.53093 10.7183 8.34812 11.7493 8.71589 12.5276C8.18091 12.4843 7.07651 12.8637 6.02655 13.0581Z" fill="url(#paint12_linear_1_5454)" fill-opacity="0.5"/>
<path d="M7.61565 21.9995C9.41388 22.0394 10.5583 19.6796 10.9055 18.4946L9.20285 18.3624C9.04834 19.0513 8.26284 20.378 6.7868 20.5469C5.21908 20.7263 4.0519 18.7551 3.68859 17.7635C3.64788 17.8034 3.59754 17.8322 3.54248 17.847C4.02191 19.3358 5.36685 21.95 7.61565 21.9995Z" fill="url(#paint13_linear_1_5454)"/>
<path d="M7.61565 21.9995C9.41388 22.0394 10.5583 19.6796 10.9055 18.4946L9.20285 18.3624C9.04834 19.0513 8.26284 20.378 6.7868 20.5469C5.21908 20.7263 4.0519 18.7551 3.68859 17.7635C3.64788 17.8034 3.59754 17.8322 3.54248 17.847C4.02191 19.3358 5.36685 21.95 7.61565 21.9995Z" fill="url(#paint14_linear_1_5454)"/>
<path d="M9.80153 7.14282C10.6104 9.75216 9.59322 12.0298 8.91943 12.9104C9.976 15.368 9.21044 17.7919 9.21044 18.4807C9.21044 19.1702 10.681 18.9863 10.9105 18.4807C11.7587 15.8492 11.7109 11.1849 9.80153 7.14282Z" fill="url(#paint15_linear_1_5454)"/>
<path d="M4.37354 12.9587L3.83301 12.7387C3.98301 12.2716 4.72686 10.8827 6.22458 10.8066C5.75071 10.9427 4.58076 12.0443 4.37354 12.9587Z" fill="url(#paint16_linear_1_5454)"/>
<path d="M6.35042 13.0065C5.22825 13.3053 4.22107 12.976 3.85774 12.7743C3.55109 13.3315 3.42721 13.9687 3.40332 14.2176C4.96159 14.6858 7.78648 13.6926 9.00473 13.1376L8.72143 12.5321C8.39922 12.5654 7.4726 12.7076 6.35042 13.0065Z" fill="#F4BA0C"/>
<defs>
<linearGradient id="paint0_linear_1_5454" x1="8.23312" y1="2.58036" x2="22.2226" y2="9.00392" gradientUnits="userSpaceOnUse">
<stop offset="0.339" stop-color="#FF7301"/>
<stop offset="0.948" stop-color="#FFDD01"/>
</linearGradient>
<linearGradient id="paint1_linear_1_5454" x1="3.2992" y1="2.00116" x2="21.7263" y2="14.9239" gradientUnits="userSpaceOnUse">
<stop stop-color="#FF8101"/>
<stop offset="1" stop-color="#FFE601"/>
</linearGradient>
<linearGradient id="paint2_linear_1_5454" x1="-4.08972" y1="11.0447" x2="-4.79356" y2="23.2659" gradientUnits="userSpaceOnUse">
<stop stop-color="#FF9100"/>
<stop offset="0.314" stop-color="#D4FF23"/>
<stop offset="0.49" stop-color="#87FF70"/>
<stop offset="0.688" stop-color="#1CFFDB"/>
<stop offset="1" stop-color="#00BEFF"/>
</linearGradient>
<linearGradient id="paint3_linear_1_5454" x1="15.417" y1="2.62446" x2="20.7553" y2="4.5315" gradientUnits="userSpaceOnUse">
<stop stop-color="#FF4E00"/>
<stop offset="1" stop-color="#FF7300"/>
</linearGradient>
<linearGradient id="paint4_linear_1_5454" x1="15.765" y1="5.91962" x2="21.8643" y2="6.75081" gradientUnits="userSpaceOnUse">
<stop stop-color="#FA0F00"/>
<stop offset="1" stop-color="#FF6E01"/>
</linearGradient>
<linearGradient id="paint5_linear_1_5454" x1="4.42563" y1="9.00155" x2="9.59923" y2="25.9728" gradientUnits="userSpaceOnUse">
<stop stop-color="#A80000"/>
<stop offset="1" stop-color="#FA0F01"/>
</linearGradient>
<linearGradient id="paint6_linear_1_5454" x1="10.3458" y1="6.50822" x2="13.9171" y2="17.7381" gradientUnits="userSpaceOnUse">
<stop stop-color="#FFE600"/>
<stop offset="0.469" stop-color="#7AFF7D"/>
<stop offset="0.891" stop-color="#1CFFDB"/>
<stop offset="1" stop-color="#00DCFE"/>
</linearGradient>
<linearGradient id="paint7_linear_1_5454" x1="12.4518" y1="8.19272" x2="7.68822" y2="19.1705" gradientUnits="userSpaceOnUse">
<stop stop-color="#F1FC06"/>
<stop offset="0.469" stop-color="#7AFF7D"/>
<stop offset="1" stop-color="#1CFFDB"/>
</linearGradient>
<linearGradient id="paint8_linear_1_5454" x1="5.92417" y1="7.07789" x2="22.5431" y2="16.6576" gradientUnits="userSpaceOnUse">
<stop stop-color="#FFC100"/>
<stop offset="1" stop-color="#F1FC06"/>
</linearGradient>
<linearGradient id="paint9_linear_1_5454" x1="12.0021" y1="1.99825" x2="12.0021" y2="22.0017" gradientUnits="userSpaceOnUse">
<stop stop-color="#FFD701"/>
<stop offset="1" stop-color="#FFE601"/>
</linearGradient>
<linearGradient id="paint10_linear_1_5454" x1="8.42205" y1="3.40298" x2="9.99647" y2="22.167" gradientUnits="userSpaceOnUse">
<stop stop-color="#FFA300"/>
<stop offset="0.214" stop-color="#DEFF19"/>
<stop offset="0.464" stop-color="#A4FF53"/>
<stop offset="0.688" stop-color="#36FFC1"/>
<stop offset="0.865" stop-color="#00A0FF"/>
<stop offset="0.974" stop-color="#0064FF"/>
</linearGradient>
<linearGradient id="paint11_linear_1_5454" x1="4.34981" y1="11.1645" x2="32.2962" y2="12.0456" gradientUnits="userSpaceOnUse">
<stop stop-color="#FF8A01"/>
<stop offset="1" stop-color="#FFDB00"/>
</linearGradient>
<linearGradient id="paint12_linear_1_5454" x1="17.6388" y1="31.5374" x2="16.098" y2="0.191113" gradientUnits="userSpaceOnUse">
<stop stop-color="#DFFD18"/>
<stop offset="1" stop-color="#FDAD12"/>
</linearGradient>
<linearGradient id="paint13_linear_1_5454" x1="18.7515" y1="9.36441" x2="8.64229" y2="14.9023" gradientUnits="userSpaceOnUse">
<stop stop-color="#14F3E6"/>
<stop offset="1" stop-color="#0040FF"/>
</linearGradient>
<linearGradient id="paint14_linear_1_5454" x1="3.64648" y1="4.127" x2="12.2609" y2="7.24136" gradientUnits="userSpaceOnUse">
<stop stop-color="#09D3F3"/>
<stop offset="1" stop-color="#0001FC" stop-opacity="0"/>
</linearGradient>
<linearGradient id="paint15_linear_1_5454" x1="6.91597" y1="11.2124" x2="7.64271" y2="25.012" gradientUnits="userSpaceOnUse">
<stop stop-color="#FF9100"/>
<stop offset="0.314" stop-color="#D4FF23"/>
<stop offset="0.49" stop-color="#87FF70"/>
<stop offset="0.688" stop-color="#1CFFDB"/>
<stop offset="1" stop-color="#00D8FF"/>
</linearGradient>
<linearGradient id="paint16_linear_1_5454" x1="3.00571" y1="9.11928" x2="10.9313" y2="21.1345" gradientUnits="userSpaceOnUse">
<stop stop-color="#FF4E01"/>
<stop offset="1" stop-color="#F4BB0C"/>
</linearGradient>
</defs>
</svg>
