<svg xmlns="http://www.w3.org/2000/svg" fill="none" viewBox="0 0 111 29"><mask id="a" width="111" height="29" x="0" y="0" maskUnits="userSpaceOnUse" style="mask-type:luminance"><path fill="#fff" d="M110.759.5H.241v28H110.76V.5Z"/></mask><g fill="#A0A3C4" mask="url(#a)"><path d="M12.365.5.241 7.5v14l12.124 7 12.124-7v-14L12.365.5Zm6.988 18.033-6.986 4.033-6.985-4.033v-8.066l6.986-4.033 6.985 4.033v8.066ZM37.791 21.515c-1.204 0-2.282-.276-3.232-.83-.95-.553-1.701-1.352-2.251-2.398-.55-1.046-.825-2.305-.825-3.778 0-1.473.278-2.752.83-3.801.554-1.048 1.306-1.848 2.26-2.398.954-.55 2.027-.824 3.22-.824.774 0 1.498.11 2.163.33.667.22 1.26.539 1.779.958.52.418.942.93 1.27 1.535.327.605.539 1.293.637 2.064h-2.705a3.06 3.06 0 0 0-.357-1.05 2.792 2.792 0 0 0-.673-.789 2.941 2.941 0 0 0-.925-.495 3.62 3.62 0 0 0-1.133-.169c-.72 0-1.356.18-1.907.541-.55.36-.98.886-1.288 1.577-.309.69-.464 1.532-.464 2.521 0 .99.156 1.848.467 2.536.313.687.74 1.206 1.289 1.558.547.351 1.179.527 1.892.527.398 0 .767-.054 1.11-.161.34-.106.649-.263.92-.468.272-.204.5-.455.684-.752a2.97 2.97 0 0 0 .385-1.021h2.705a5.289 5.289 0 0 1-1.783 3.35 5.755 5.755 0 0 1-1.779 1.05c-.682.257-1.444.386-2.286.386v.003l-.003-.002ZM47.714 15.366v5.96h-2.622V7.663h2.549v5.197h.129a2.997 2.997 0 0 1 1.119-1.403c.506-.341 1.152-.514 1.934-.514.709 0 1.33.152 1.86.458a3.11 3.11 0 0 1 1.238 1.32c.293.574.439 1.27.439 2.083v6.518h-2.632v-6.078c0-.661-.168-1.175-.504-1.546-.336-.37-.811-.554-1.421-.554-.41 0-.771.088-1.082.266a1.92 1.92 0 0 0-.739.756c-.18.329-.27.725-.27 1.198v.002l.002-.001ZM59.019 21.528c-.654 0-1.239-.116-1.755-.348a2.791 2.791 0 0 1-1.22-1.032c-.297-.454-.444-1.019-.444-1.69 0-.574.105-1.052.317-1.432.211-.38.498-.686.862-.92a4.168 4.168 0 0 1 1.237-.533 9.542 9.542 0 0 1 1.453-.252c.6-.061 1.082-.117 1.45-.169.367-.051.633-.134.801-.247a.564.564 0 0 0 .252-.5v-.046c0-.46-.14-.815-.42-1.068-.282-.254-.683-.381-1.203-.381-.55 0-.986.12-1.311.363-.324.24-.54.533-.65.874l-2.44-.266c.152-.623.43-1.154.83-1.59.4-.437.903-.771 1.507-1 .605-.23 1.293-.346 2.063-.346.532 0 1.05.063 1.555.188.504.125.959.324 1.366.597.406.273.732.632.971 1.078.241.447.363.99.363 1.633v6.885h-2.51v-1.422h-.074c-.16.305-.371.581-.641.827a2.98 2.98 0 0 1-.99.582c-.391.145-.847.216-1.367.216h-.003Zm.713-1.87c.453 0 .847-.09 1.183-.27.336-.18.6-.421.789-.724.189-.302.284-.637.284-1.003v-1.147a1.296 1.296 0 0 1-.375.166c-.166.049-.352.094-.56.133a15.187 15.187 0 0 1-1.156.178c-.348.05-.655.129-.922.238-.266.11-.476.26-.628.449-.152.189-.23.427-.23.715 0 .416.152.73.454.946.302.213.689.32 1.16.32l.001-.001ZM66.326 21.327v-10.25h2.622v10.25h-2.622ZM73.296 15.366v5.96h-2.622V11.074h2.576v1.788h.11c.233-.587.601-1.053 1.105-1.4.504-.345 1.138-.517 1.903-.517.709 0 1.328.153 1.856.458.528.305.938.747 1.23 1.324.29.578.435 1.27.435 2.077v6.518h-2.622v-6.078c0-.654-.169-1.168-.508-1.54-.338-.372-.805-.56-1.4-.56a2.1 2.1 0 0 0-1.068.266c-.309.179-.55.43-.729.756-.178.329-.265.725-.265 1.198v.002h-.001ZM84.232 6.991v14.335H81.61V6.991h2.622ZM85.956 21.327v-10.25h2.622v10.25h-2.622ZM92.922 15.366v5.96H90.3V11.074h2.576v1.788h.11c.233-.587.601-1.053 1.105-1.4.504-.345 1.138-.517 1.903-.517.709 0 1.328.153 1.857.458.528.305.938.747 1.228 1.324.29.578.436 1.27.436 2.077v6.518h-2.622v-6.078c0-.654-.169-1.168-.508-1.54-.338-.372-.806-.56-1.399-.56a2.1 2.1 0 0 0-1.069.266c-.309.179-.55.43-.729.756-.178.329-.266.725-.266 1.198v.002ZM107.65 21.326h3.109l-4.094-5.811 3.882-4.44h-3.043l-3.476 4.008h-.164v-7.42h-2.623v13.663h2.623V17.98l.822-.912 2.964 4.257v.001ZM68.969 6.991h-2.622v2.622h2.622V6.991ZM88.6 6.991h-2.622v2.622h2.621V6.991Z"/></g></svg>