<svg width="16" height="16" viewBox="0 0 16 16" fill="none" xmlns="http://www.w3.org/2000/svg">
<path d="M4.15625 7.36006C4.15625 5.54985 4.15625 4.64474 4.71861 4.08238C5.28097 3.52002 6.18608 3.52002 7.99629 3.52002H9.91631C11.7265 3.52002 12.6316 3.52002 13.194 4.08238C13.7563 4.64474 13.7563 5.54985 13.7563 7.36006V10.5601C13.7563 12.3703 13.7563 13.2754 13.194 13.8378C12.6316 14.4001 11.7265 14.4001 9.91631 14.4001H7.99629C6.18608 14.4001 5.28097 14.4001 4.71861 13.8378C4.15625 13.2754 4.15625 12.3703 4.15625 10.5601V7.36006Z" stroke="currentColor"/>
<path d="M4.16221 12.4802C3.10181 12.4802 2.24219 11.6206 2.24219 10.5602V6.72015C2.24219 4.30653 2.24219 3.09973 2.992 2.34991C3.74182 1.6001 4.94862 1.6001 7.36224 1.6001H9.92227C10.9827 1.6001 11.8423 2.45972 11.8423 3.52012" stroke="currentColor"/>
</svg>
