<svg id="ic_coingecko_hover_16" xmlns="http://www.w3.org/2000/svg" width="16" height="16" viewBox="0 0 16 16">
  <rect id="base" width="16" height="16" fill="none"/>
  <g id="coingecko_hover" transform="translate(0.918 0.917)">
    <path id="Path_1524" data-name="Path 1524" d="M14.167,7.05A7.083,7.083,0,1,1,7.053,0h0A7.083,7.083,0,0,1,14.167,7.05Z" transform="translate(-0.001 0.001)" fill="#8dc63f"/>
    <path id="Path_1525" data-name="Path 1525" d="M23.493,16.957a6.551,6.551,0,1,1-6.581-6.518h0A6.552,6.552,0,0,1,23.493,16.957Z" transform="translate(-9.858 -9.903)" fill="#f9e988"/>
    <path id="Path_1526" data-name="Path 1526" d="M140.341,17.635a3.6,3.6,0,0,1,1.259,0,3.837,3.837,0,0,1,1.2.4,6.987,6.987,0,0,1,1.018.745c.321.261.641.529.945.821a4.79,4.79,0,0,1,.806.975,5.558,5.558,0,0,1,.565,1.138,5.179,5.179,0,0,1,.232,2.5h-.041a11.5,11.5,0,0,0-.616-2.341,9.108,9.108,0,0,0-.485-1.089,10.732,10.732,0,0,0-.637-1.027,3.712,3.712,0,0,0-.854-.862,4.977,4.977,0,0,0-1.085-.536c-.37-.146-.737-.3-1.123-.406s-.778-.194-1.188-.275Z" transform="translate(-133.137 -16.678)" fill="#fff"/>
    <path id="Path_1527" data-name="Path 1527" d="M43.1,68.676c-.475-.138-.968-.333-1.467-.53a1,1,0,0,0-.364-.472,1.77,1.77,0,0,0-1.467-.15,3.663,3.663,0,0,0-1.715-.051c-4.53,1.248-1.961,4.292-3.624,7.352a6.529,6.529,0,0,0,6.477,2.645s-1.262-3.033,1.586-4.488C44.834,71.8,46.5,69.6,43.1,68.676Z" transform="translate(-32.691 -63.934)" fill="#8bc53f"/>
    <path id="Path_1528" data-name="Path 1528" d="M203.489,126.153a.275.275,0,1,1-.276-.273A.275.275,0,0,1,203.489,126.153Z" transform="translate(-192.524 -119.419)" fill="#fff"/>
    <path id="Path_1529" data-name="Path 1529" d="M138.48,67.991a6.774,6.774,0,0,1,1.831.622C140.055,67.868,139.191,67.769,138.48,67.991Z" transform="translate(-131.372 -64.402)" fill="#009345"/>
    <path id="Path_1530" data-name="Path 1530" d="M97.773,83.176a1.267,1.267,0,1,1-1.267-1.266h0a1.267,1.267,0,0,1,1.267,1.266Z" transform="translate(-90.352 -77.706)" fill="#fff"/>
    <path id="Path_1531" data-name="Path 1531" d="M104.342,90.331a.891.891,0,1,1-.891-.891h0A.891.891,0,0,1,104.342,90.331Z" transform="translate(-97.296 -84.849)" fill="#58595b"/>
    <path id="Path_1532" data-name="Path 1532" d="M43.3,131.787a6.335,6.335,0,0,1-3.849,1.272c-.775,0-.932-.821-1.444-.42a3.646,3.646,0,0,1-1.936.639A2.41,2.41,0,0,1,33.8,131.23,11.552,11.552,0,0,1,33,135.3a6.407,6.407,0,0,0,6.55,2.72c-.273-1.917,1.405-3.795,2.347-4.754a12.422,12.422,0,0,0,1.4-1.484Z" transform="translate(-31.306 -124.494)" fill="#8bc53f"/>
    <path id="Path_1533" data-name="Path 1533" d="M144.386,142.706a4.593,4.593,0,0,1-1.084.7,6.925,6.925,0,0,1-1.216.443,3.821,3.821,0,0,1-1.3.15,1.777,1.777,0,0,1-1.188-.522l.014-.016a2.263,2.263,0,0,0,1.187.327,5.558,5.558,0,0,0,1.247-.1,6.812,6.812,0,0,0,1.212-.375,4.509,4.509,0,0,0,1.113-.616Z" transform="translate(-132.435 -135.366)" fill="#58595b"/>
  </g>
</svg>
