<svg width="16" height="16" viewBox="0 0 16 16" fill="none" xmlns="http://www.w3.org/2000/svg">
  <path d="M4.99999 10V8H7.99999V10H4.99999Z" fill="white" />
  <path fill-rule="evenodd" clip-rule="evenodd"
    d="M6.49999 2H4.49999V3.60001H3.15987L3.1555 3.6C2.97855 3.5994 2.80536 3.62774 2.64588 3.709C2.45772 3.80488 2.30474 3.95786 2.20887 4.14602C2.12761 4.3055 2.09926 4.47869 2.09986 4.65564L2.09987 4.66001V13.34L2.09986 13.3444C2.09926 13.5213 2.12761 13.6945 2.20887 13.854C2.30474 14.0422 2.45772 14.1951 2.64588 14.291C2.80536 14.3723 2.97855 14.4006 3.1555 14.4L3.15987 14.4H12.8399L12.8442 14.4C13.0212 14.4006 13.1944 14.3723 13.3539 14.291C13.542 14.1951 13.695 14.0422 13.7909 13.854C13.8721 13.6945 13.9005 13.5213 13.8999 13.3444L13.8999 13.34V4.66001L13.8999 4.65564C13.9005 4.47869 13.8721 4.30549 13.7909 4.14602C13.695 3.95786 13.542 3.80488 13.3539 3.709C13.1944 3.62774 13.0212 3.5994 12.8442 3.6L12.8399 3.60001H11.5V2H9.49999V3.60001H6.49999V2ZM3.89987 6.75L12.0999 6.75V12.6H3.89987V6.75Z"
    fill="white" />
</svg>