<svg width="20" height="20" viewBox="0 0 16 16" fill="none" xmlns="http://www.w3.org/2000/svg">
  <path
    d="M10.16 1.33643H7.56389C6.38773 1.33642 5.45612 1.33641 4.72703 1.43483C3.97668 1.53611 3.36935 1.74952 2.8904 2.2304C2.41144 2.71127 2.19889 3.32104 2.09801 4.0744C1.99998 4.80643 1.99999 5.74177 2 6.92266V10.8143C2 11.8198 2.6133 12.6813 3.48478 13.0426C3.43992 12.4363 3.43996 11.5855 3.44 10.8778L3.44 7.60149L3.44 7.53803C3.43995 6.68359 3.43991 5.94738 3.51886 5.35783C3.60346 4.72601 3.79426 4.12037 4.28353 3.62913C4.77281 3.13789 5.37603 2.94633 6.00532 2.86138C6.59251 2.78212 7.32578 2.78216 8.1768 2.78221L8.24 2.78221H10.16L10.2232 2.78221C11.0742 2.78216 11.8059 2.78212 12.3931 2.86138C12.0418 1.96828 11.1744 1.33643 10.16 1.33643Z"
    fill="currentColor" />
  <path
    d="M4.40039 7.60103C4.40039 5.78356 4.40039 4.87483 4.96275 4.31022C5.5251 3.74561 6.4302 3.74561 8.24039 3.74561H10.1604C11.9706 3.74561 12.8757 3.74561 13.438 4.31022C14.0004 4.87483 14.0004 5.78356 14.0004 7.60103V10.8139C14.0004 12.6313 14.0004 13.5401 13.438 14.1047C12.8757 14.6693 11.9706 14.6693 10.1604 14.6693H8.24039C6.4302 14.6693 5.5251 14.6693 4.96275 14.1047C4.40039 13.5401 4.40039 12.6313 4.40039 10.8139V7.60103Z"
    fill="currentColor" />
</svg>
  
