<svg xmlns="http://www.w3.org/2000/svg" width="16" height="16" viewBox="0 0 16 16">
  <g id="ic_copy_16" transform="translate(-493.25 -330.75)">
    <rect id="Rectangle_484" data-name="Rectangle 484" width="16" height="16" transform="translate(493.25 330.75)" fill="rgba(255,255,255,0)"/>
    <g id="Group_329" data-name="Group 329" transform="translate(0 -0.5)">
      <path id="Path_4411" data-name="Path 4411" d="M506.656,346.75h-6.312a2.1,2.1,0,0,1-2.094-2.094v-6.312a2.1,2.1,0,0,1,2.094-2.094h6.312a2.1,2.1,0,0,1,2.094,2.094v6.312A2.1,2.1,0,0,1,506.656,346.75Zm-6.312-9a.6.6,0,0,0-.594.594v6.312a.6.6,0,0,0,.594.594h6.312a.6.6,0,0,0,.594-.594v-6.312a.6.6,0,0,0-.594-.594Z" fill="#a0a3c4"/>
      <path id="Path_4412" data-name="Path 4412" d="M496.344,342.75a2.1,2.1,0,0,1-2.094-2.094v-6.312a2.1,2.1,0,0,1,2.094-2.094h6.312a2.1,2.1,0,0,1,2.094,2.094.75.75,0,0,1-1.5,0,.6.6,0,0,0-.594-.594h-6.312a.6.6,0,0,0-.594.594v6.312a.6.6,0,0,0,.594.594.75.75,0,0,1,0,1.5Z" fill="#a0a3c4"/>
    </g>
  </g>
</svg>
