<svg height="43.5" viewBox="0 0 51.499 43.5" width="51.499" xmlns="http://www.w3.org/2000/svg"><path d="m13.875-25.437h9.25l3.425-5.14a1.358 1.358 0 0 0 .194-.642 1.157 1.157 0 0 0 -1.156-1.156h-14.174a1.157 1.157 0 0 0 -1.156 1.156 1.357 1.357 0 0 0 .194.642zm9.25 2.313h-9.25c-14.625 8.338-13.869 19.412-13.869 20.812 0 3.83 3.549 6.938 7.926 6.938h21.137c4.378 0 7.926-3.107 7.926-6.937 0-1.375.676-12.521-13.87-20.814z" fill="#03cfcd" stroke="#03cfcd" transform="translate(.499 32.875)"/><path d="m13.875-25.437h9.25l3.425-5.14a1.358 1.358 0 0 0 .194-.642 1.157 1.157 0 0 0 -1.156-1.156h-14.174a1.157 1.157 0 0 0 -1.156 1.156 1.357 1.357 0 0 0 .194.642zm9.25 2.313h-9.25c-14.625 8.338-13.869 19.412-13.869 20.812 0 3.83 3.549 6.938 7.926 6.938h21.137c4.378 0 7.926-3.107 7.926-6.937 0-1.375.676-12.521-13.87-20.814z" fill="#4e09f8" transform="translate(14.499 38.875)"/><path d="m-4085.921 533a6.138 6.138 0 0 1 -.072-.938c0-1.4-.758-12.473 13.868-20.813h3.044c6.481 6.89 6.081 13.751 6.081 14.814 0 3.829-3.549 6.938-7.927 6.938zm13.8-24.063-.673-1.011q.662.5 1.266 1.011z" fill="#50d0fe" stroke="#03cfcd" transform="translate(4100.499 -495.5)"/><text fill="#fff" transform="translate(16.499 35.875)"><tspan x="0" y="0"/></text></svg>