<svg xmlns="http://www.w3.org/2000/svg" width="40" height="40" fill="none" viewBox="0 0 40 40">
  <g clip-path="url(#a)">
    <path fill="#000" d="M20 40c11.046 0 20-8.954 20-20S31.046 0 20 0 0 8.954 0 20s8.954 20 20 20Z"/>
    <path fill="#8E8E8E" d="M32.79 19.132c-.286-4.676-5.009-7.375-8.937-8.977-3.997-1.628-10.184-4.076-13.128.47-2.563 3.371-2.608 8.128-1.827 12.126 1.015 3.619 2.19 10.497 7.231 9.622 1.594-.61 2.506-2.214 3.058-3.776l-.063-.025c.008-.023.264-.712.41-2.245.121-1.276.186-3.387-.127-6.443H19.4s-.007-.106-.025-.29c-.02-.188-.042-.379-.065-.573-.098-.758-.294-1.898-.662-2.944-.623-1.768-.5-3.237 4.535-1.468 5.034 1.768 5.904 2.925 3.66 4.047-1.756.878-5.32 1.134-6.789 1.204.382 3.736.217 6.133.006 7.497 1.985-1.142 7.537-1.898 9.098-2.55 2.852-.536 3.721-3.048 3.63-5.675ZM16.148 30.035c-.002-.003.002-.005.004-.006.001.002-.002.005-.004.006ZM29.132 13.23l.008.005-.008-.005Z"/>
  </g>
  <defs>
    <clipPath id="a">
      <path fill="#fff" d="M0 0h40v40H0z"/>
    </clipPath>
  </defs>
</svg>
