<svg viewBox="0 0 16 16" fill="none" xmlns="http://www.w3.org/2000/svg">
  <path
    d="M6.66683 2.66699V3.16699H9.3335V2.66699V2.16699H6.66683V2.66699ZM14.6668 8.00033H14.1668V9.33366H14.6668H15.1668V8.00033H14.6668ZM9.3335 14.667V14.167H6.66683V14.667V15.167H9.3335V14.667ZM1.3335 9.33366H1.8335V8.00033H1.3335H0.833496V9.33366H1.3335ZM6.66683 14.667V14.167C5.39562 14.167 4.4925 14.1659 3.8074 14.0738C3.13667 13.9836 2.75024 13.8145 2.4681 13.5324L2.11454 13.8859L1.76099 14.2395C2.2599 14.7384 2.89253 14.9598 3.67415 15.0649C4.44138 15.1681 5.42389 15.167 6.66683 15.167V14.667ZM1.3335 9.33366H0.833496C0.833496 10.5766 0.832434 11.5591 0.935586 12.3263C1.04067 13.108 1.26208 13.7406 1.76099 14.2395L2.11454 13.8859L2.4681 13.5324C2.18596 13.2502 2.01685 12.8638 1.92667 12.1931C1.83456 11.508 1.8335 10.6049 1.8335 9.33366H1.3335ZM14.6668 9.33366H14.1668C14.1668 10.6049 14.1658 11.508 14.0737 12.1931C13.9835 12.8638 13.8144 13.2502 13.5322 13.5324L13.8858 13.8859L14.2393 14.2395C14.7382 13.7406 14.9597 13.108 15.0647 12.3263C15.1679 11.5591 15.1668 10.5766 15.1668 9.33366H14.6668ZM9.3335 14.667V15.167C10.5764 15.167 11.5589 15.1681 12.3262 15.0649C13.1078 14.9598 13.7404 14.7384 14.2393 14.2395L13.8858 13.8859L13.5322 13.5324C13.2501 13.8145 12.8637 13.9836 12.1929 14.0738C11.5078 14.1659 10.6047 14.167 9.3335 14.167V14.667ZM9.3335 2.66699V3.16699C10.6047 3.16699 11.5078 3.16805 12.1929 3.26016C12.8637 3.35034 13.2501 3.51945 13.5322 3.80159L13.8858 3.44804L14.2393 3.09449C13.7404 2.59558 13.1078 2.37417 12.3262 2.26908C11.5589 2.16593 10.5764 2.16699 9.3335 2.16699V2.66699ZM14.6668 8.00033H15.1668C15.1668 6.75738 15.1679 5.77487 15.0647 5.00764C14.9597 4.22603 14.7382 3.5934 14.2393 3.09449L13.8858 3.44804L13.5322 3.80159C13.8144 4.08373 13.9835 4.47017 14.0737 5.14089C14.1658 5.826 14.1668 6.72911 14.1668 8.00033H14.6668ZM6.66683 2.66699V2.16699C5.42389 2.16699 4.44138 2.16593 3.67415 2.26908C2.89253 2.37417 2.2599 2.59558 1.76099 3.09449L2.11454 3.44804L2.4681 3.80159C2.75024 3.51945 3.13667 3.35034 3.8074 3.26016C4.4925 3.16805 5.39562 3.16699 6.66683 3.16699V2.66699ZM1.3335 8.00033H1.8335C1.8335 6.72911 1.83456 5.826 1.92667 5.14089C2.01685 4.47017 2.18596 4.08373 2.4681 3.80159L2.11454 3.44804L1.76099 3.09449C1.26208 3.5934 1.04067 4.22603 0.935586 5.00764C0.832434 5.77487 0.833496 6.75738 0.833496 8.00033H1.3335Z"
    fill="currentColor" />
  <path d="M4.6665 2.66699V1.66699" stroke="currentColor" stroke-linecap="round" />
  <path d="M11.3335 2.66699V1.66699" stroke="currentColor" stroke-linecap="round" />
  <path d="M1.6665 6H14.3332" stroke="currentColor" stroke-linecap="round" />
</svg>
  
