<svg xmlns="http://www.w3.org/2000/svg" width="43.438" height="40" viewBox="0 0 43.438 40">
  <g id="ic_cost" transform="translate(0)">
    <rect id="Rectangle_1" data-name="Rectangle 1" width="40" height="40" rx="4" transform="translate(0)" fill="none"/>
    <path id="Path_171" data-name="Path 171" d="M26.14-24.414a1.4,1.4,0,0,0-2.28,0C21.237-20.619,15-11.159,15-7.011A9.765,9.765,0,0,0,25,2.5,9.765,9.765,0,0,0,35-7.011C35-11.159,28.763-20.619,26.14-24.414Z" transform="translate(-5 30)" fill="#4e09f8"/>
    <path id="Path_174" data-name="Path 174" d="M20.344-8.934a.759.759,0,0,0-.754-.754h-.7v-6.028a.759.759,0,0,0-.754-.754H15.984a.689.689,0,0,0-.619.412l-.753,1.4a.758.758,0,0,0,.035.742.757.757,0,0,0,.636.353h.7v3.875h-.7a.759.759,0,0,0-.754.754v1.4a.759.759,0,0,0,.754.754H19.59a.759.759,0,0,0,.754-.754Zm14.531-12a3.166,3.166,0,0,0-1.8-2.911,15.2,15.2,0,0,0-6.413-1.346,36.819,36.819,0,0,0-9.613,1.738,34.166,34.166,0,0,1-8.845,1.634,12.646,12.646,0,0,1-4.145-.66,3.013,3.013,0,0,0-1-.17A3.122,3.122,0,0,0,0-19.477V-2.32A3.165,3.165,0,0,0,1.8.591,15.2,15.2,0,0,0,8.209,1.938,36.819,36.819,0,0,0,17.822.2a34.165,34.165,0,0,1,8.845-1.634,12.646,12.646,0,0,1,4.145.66,3.013,3.013,0,0,0,1,.17,3.125,3.125,0,0,0,3.064-3.176Z" transform="translate(1.562 27.125)" fill="rgba(3,209,207,0.99)"/>
    <path id="Path_175" data-name="Path 175" d="M20.344-8.934a.759.759,0,0,0-.754-.754h-.7v-6.028a.759.759,0,0,0-.754-.754H15.984a.689.689,0,0,0-.619.412l-.753,1.4a.758.758,0,0,0,.035.742.757.757,0,0,0,.636.353h.7v3.875h-.7a.759.759,0,0,0-.754.754v1.4a.759.759,0,0,0,.754.754H19.59a.759.759,0,0,0,.754-.754Zm14.531-12a3.166,3.166,0,0,0-1.8-2.911,15.2,15.2,0,0,0-6.413-1.346,36.819,36.819,0,0,0-9.613,1.738,34.166,34.166,0,0,1-8.845,1.634,12.646,12.646,0,0,1-4.145-.66,3.013,3.013,0,0,0-1-.17A3.122,3.122,0,0,0,0-19.477V-2.32A3.165,3.165,0,0,0,1.8.591,15.2,15.2,0,0,0,8.209,1.938,36.819,36.819,0,0,0,17.822.2a34.165,34.165,0,0,1,8.845-1.634,12.646,12.646,0,0,1,4.145.66,3.013,3.013,0,0,0,1,.17,3.125,3.125,0,0,0,3.064-3.176Z" transform="translate(8.562 36.125)" fill="#4e09f8"/>
    <path id="Intersection_2" data-name="Intersection 2" d="M-4787-932.917V-945.29a3.122,3.122,0,0,1,3.064-3.169,3.008,3.008,0,0,1,1,.171,12.634,12.634,0,0,0,4.144.661,34.17,34.17,0,0,0,8.844-1.634,36.835,36.835,0,0,1,9.613-1.739q.615,0,1.209.042v12.366a3.125,3.125,0,0,1-3.064,3.176,3.021,3.021,0,0,1-1-.17,12.65,12.65,0,0,0-4.145-.661,34.13,34.13,0,0,0-8.844,1.634,36.822,36.822,0,0,1-9.613,1.737Q-4786.406-932.875-4787-932.917Z" transform="translate(4795.563 961.938)" fill="rgba(3,209,207,0.99)" stroke="rgba(0,0,0,0)" stroke-width="1" style="mix-blend-mode: screen;isolation: isolate"/>
  </g>
</svg>
