<svg xmlns="http://www.w3.org/2000/svg" width="24" height="24" fill="none" viewBox="0 0 24 24">
  <path fill="#FBD984" d="M21.688 15.826c0 3.23-4.33 5.875-9.656 5.875-5.325 0-9.656-2.644-9.656-5.875v-1.52h19.375v1.52h-.063Z"/>
  <path fill="#CA7D45" d="M6.107 4.613A1.913 1.913 0 0 1 7.97 2.3c1.062 0 2.256.863 2.256 1.919v4.35c.669-.063 1.006-.125 1.737-.125.67 0 1.013-.069 1.675 0l.17-4.456c0-1.057 1.018-1.688 2.087-1.688 1.194 0 2.125 1.125 1.931 2.313l-.588 4.75c2.8 1.056 4.444 2.9 4.444 5.012 0 3.231-4.325 5.869-9.65 5.869s-9.656-2.638-9.656-5.875c0-2.106 1.475-3.95 4.275-5.006l-.544-4.75Z"/>
  <path fill="#522D0B" d="M9.5 14.188c0 .843-.412 1.562-.937 1.562-.525 0-.937-.719-.937-1.562 0-.844.412-1.563.937-1.563.525 0 .938.719.938 1.563Zm6.876 0c0 .843-.413 1.562-.938 1.562-.525 0-.937-.719-.937-1.562 0-.844.412-1.563.937-1.563.525 0 .938.719.938 1.563Z"/>
  <path fill="#522D0B" d="M5.75 5.125C5.437 3.5 6.544 2 8.187 2c1.444 0 2.563 1.188 2.563 2.625l-.206 3.3h1.425c.375 0 .787 0 1.281.062V4.625c0-1.438.988-2.625 2.438-2.625C17.33 2 18.5 3.5 18.25 5.125l-.625 3.812C20.087 10 22 11.875 22 14.187v1.438c0 1.938-1.263 3.562-3.094 4.625C17.081 21.375 14.688 22 11.97 22c-2.719 0-5.113-.625-6.938-1.75C3.262 19.187 2 17.562 2 15.625v-1.438c0-2.312 1.913-4.25 4.375-5.312l-.625-3.75ZM17 9.5l.625-4.419c.187-1.125-.675-2.331-1.875-2.331a1.875 1.875 0 0 0-1.887 1.813v4.124a14.103 14.103 0 0 0-1.894-.125c-.656 0-1.425.063-1.957.125l.113-4.062c0-1-.938-2-1.938-2C7.05 2.625 6.162 3.875 6.42 5L7 9.5c-2.65 1-4.375 2.75-4.375 4.75v1.437c0 3.063 4.325 5.688 9.375 5.688s9.375-2.625 9.375-5.688V14.25c.062-2.063-1.663-3.75-4.375-4.75Z"/>
</svg>
