<svg xmlns="http://www.w3.org/2000/svg" width="1em" height="1em" fill="currentColor"
  viewBox="0 0 20 20">
  <path
    d="M13.2 1.668H9.955c-1.47 0-2.635 0-3.546.123-.938.127-1.697.394-2.296.995-.599.6-.864 1.363-.99 2.305C3 6.006 3 7.175 3 8.65v4.864c0 1.257.767 2.334 1.856 2.786-.056-.758-.056-1.821-.056-2.706V9.42c0-1.068 0-1.988.099-2.725.105-.79.344-1.547.955-2.161.612-.614 1.366-.853 2.153-.96.734-.099 1.65-.099 2.714-.099h2.558c1.064 0 1.978 0 2.712.1A3.001 3.001 0 0 0 13.2 1.667Z" />
  <path
    d="M6 9.5c0-2.273 0-3.408.703-4.114S8.537 4.68 10.8 4.68h2.4c2.263 0 3.394 0 4.097.706C18 6.092 18 7.227 18 9.499v4.016c0 2.272 0 3.408-.703 4.114s-1.834.706-4.097.706h-2.4c-2.263 0-3.394 0-4.097-.706C6 16.923 6 15.787 6 13.515V9.5Z" />
</svg>
  
