<svg width="1em" height="1em" viewBox="0 0 16 16" fill="none" xmlns="http://www.w3.org/2000/svg">
  <path
    d="M8 1C11.866 1 15 4.13401 15 8C15 11.866 11.866 15 8 15C4.13401 15 1 11.866 1 8C1 4.13401 4.13401 1 8 1ZM11.3887 5.61133C11.1739 5.39654 10.8261 5.39654 10.6113 5.61133L7 9.22266L5.38867 7.61133C5.17388 7.39654 4.82612 7.39654 4.61133 7.61133C4.39654 7.82612 4.39654 8.17388 4.61133 8.38867L6.61133 10.3887C6.82612 10.6035 7.17388 10.6035 7.38867 10.3887L11.3887 6.38867C11.6035 6.17388 11.6035 5.82612 11.3887 5.61133Z"
    fill="currentColor" />
</svg>
