<svg width="20" height="21" viewBox="0 0 20 21" fill="none" xmlns="http://www.w3.org/2000/svg">
<path d="M7.5 15.8451V10.8451C7.5 10.403 7.3244 9.9791 7.01184 9.66654C6.69928 9.35398 6.27536 9.17839 5.83333 9.17839H4.16667C3.72464 9.17839 3.30072 9.35398 2.98816 9.66654C2.67559 9.9791 2.5 10.403 2.5 10.8451V15.8451C2.5 16.2871 2.67559 16.711 2.98816 17.0236C3.30072 17.3361 3.72464 17.5117 4.16667 17.5117H5.83333C6.27536 17.5117 6.69928 17.3361 7.01184 17.0236C7.3244 16.711 7.5 16.2871 7.5 15.8451ZM7.5 15.8451V7.51172C7.5 7.06969 7.67559 6.64577 7.98816 6.33321C8.30072 6.02065 8.72464 5.84505 9.16667 5.84505H10.8333C11.2754 5.84505 11.6993 6.02065 12.0118 6.33321C12.3244 6.64577 12.5 7.06969 12.5 7.51172V15.8451M7.5 15.8451C7.5 16.2871 7.67559 16.711 7.98816 17.0236C8.30072 17.3361 8.72464 17.5117 9.16667 17.5117H10.8333C11.2754 17.5117 11.6993 17.3361 12.0118 17.0236C12.3244 16.711 12.5 16.2871 12.5 15.8451M12.5 15.8451V4.17839C12.5 3.73636 12.6756 3.31243 12.9882 2.99987C13.3007 2.68731 13.7246 2.51172 14.1667 2.51172H15.8333C16.2754 2.51172 16.6993 2.68731 17.0118 2.99987C17.3244 3.31243 17.5 3.73636 17.5 4.17839V15.8451C17.5 16.2871 17.3244 16.711 17.0118 17.0236C16.6993 17.3361 16.2754 17.5117 15.8333 17.5117H14.1667C13.7246 17.5117 13.3007 17.3361 12.9882 17.0236C12.6756 16.711 12.5 16.2871 12.5 15.8451Z" stroke="#91929e" stroke-width="1.5" stroke-linecap="round" stroke-linejoin="round"/>
</svg>
