<svg width="40" height="40" viewBox="0 0 40 40" fill="none" xmlns="http://www.w3.org/2000/svg">
<path d="M35.7423 20.435C33.7413 25.6033 25.1918 27.1117 16.6458 23.8035C8.59055 20.686 1.16122 7.9503 11.2062 3.7301C14.7727 2.92827 19.3318 3.32272 23.8908 5.08743C32.4368 8.39472 37.7422 15.2667 35.7423 20.435Z" fill="url(#paint0_linear_1_23)"/>
<path d="M25.8593 7.08922C23.8928 6.72812 23.7632 9.25857 24.0325 10.6724C29.2733 12.7417 31.0278 15.8222 31.1573 16.0167C33.5518 13.9787 35.9887 16.2556 36.2062 17.9952C35.9462 12.3492 28.5353 7.5818 25.8593 7.08922Z" fill="url(#paint1_linear_1_23)"/>
<path d="M6.14533 29.6198C4.77132 25.3902 6.03237 21.6663 6.8351 20.3332C6.11478 16.9953 4.7639 10.2928 4.72132 10.3344C2.3492 18.6805 4.49355 26.7718 5.912 29.756L6.14533 29.6198Z" fill="url(#paint2_linear_1_23)"/>
<path d="M4.51515 11.3372C4.71332 9.74282 5.71325 7.8253 6.34935 6.93923L17.7063 3.50973C29.3437 5.43928 26.6292 10.1622 17.9933 9.34932C15.3333 9.09932 16.6166 11.5715 16.773 13.8565C17.4933 18.7082 16.3979 19.273 14.7074 21.7765C14.1129 20.5553 12.7972 18.2397 10.4501 18.0822C8.57147 17.9573 6.74655 20.336 6.34935 21.2118C6.24472 21.1183 5.89197 19.534 5.69197 18.8832C4.65033 16.711 4.15962 14.1963 4.51515 11.3372Z" fill="url(#paint3_linear_1_23)"/>
<path d="M5.77697 11.2465C5.45012 9.83262 5.64085 8.56878 5.77697 8.11417C6.10287 6.8735 7.7315 4.2384 11.6397 3.62362C15.5479 3.00977 19.0468 3.52733 20.308 4.20972C21.5058 5.01432 20.9885 7.45957 18.5523 6.7698C15.0052 5.74577 14.4562 7.09848 14.7488 8.96415C15.5386 13.0899 15.0776 15.8527 14.7488 16.7175C14.7488 16.7175 13.6877 19.3878 12.81 18.5472C11.3101 17.0472 9.92123 17.3397 8.38427 17.7415C7.1556 18.0638 6.78617 17.1935 6.7547 16.7175C6.56488 15.4833 6.10472 12.6612 5.77697 11.2465Z" fill="url(#paint4_linear_1_23)"/>
<path d="M9.21343 4.35415C6.4265 5.68187 7.43388 10.8715 8.30237 13.4371C9.24955 12.8445 12.1494 13.0806 13.0374 14.0278C11.7115 6.4985 14.8457 3.48473 15.7928 3.544C15.7928 3.544 14.2364 3.37732 13.154 3.46898C11.8559 3.54307 10.4578 3.76063 9.21343 4.35415Z" fill="url(#paint5_linear_1_23)"/>
<path d="M31.2863 15.9093C29.0827 18.3665 21.882 19.373 18.558 19.5692C19.2507 22.8932 18.622 27.9542 18.221 30.0688C22.5052 28.7152 31.4205 25.9375 32.8047 25.6552C34.5352 25.3015 36.6537 22.583 36.3008 18.6277C35.948 14.6732 32.6992 14.4259 31.2863 15.9093Z" fill="url(#paint6_linear_1_23)"/>
<path d="M16.8803 12.9945C16.3573 13.2149 18.07 17.4917 18.6238 19.6303C27.2252 18.9868 30.091 16.8537 30.126 16.8537C25.3032 12.8575 17.5348 12.7186 16.8803 12.9945Z" fill="url(#paint7_linear_1_23)"/>
<path d="M31.1765 16.0528C29.895 11.2316 17.9363 8.61787 16.7093 9.46503C15.9762 9.97058 16.2752 11.9261 16.7093 13.0279C22.6372 12.4473 28.196 15.3454 30.0672 16.8285C30.3617 16.7592 31.0673 16.2249 31.1765 16.0528Z" fill="url(#paint8_linear_1_23)"/>
<path d="M33.1028 17.05C30.6057 17.5248 30.8142 16.4777 31.2298 15.8953C32.554 14.2723 34.8195 15.2194 35.787 15.8953C35.9332 16.0824 35.6002 16.5758 33.1028 17.05Z" fill="url(#paint9_linear_1_23)"/>
<path d="M11.4119 34.314C14.308 34.0867 16.3711 30.2765 16.0198 25.8035C15.6685 21.3307 13.0361 17.8892 10.14 18.1163C7.2439 18.3438 5.18088 22.1542 5.53212 26.627C5.88337 31.1 8.51583 34.5415 11.4119 34.314Z" fill="url(#paint10_linear_1_23)"/>
<path d="M10.0442 21.7635C8.29431 22.0877 6.84808 21.5387 6.3444 21.2238C6.82122 20.261 8.06655 18.1702 10.4229 18.0092C12.5515 17.8638 13.9135 19.5822 14.5265 20.8793C13.6348 20.8072 11.7942 21.4395 10.0442 21.7635Z" fill="url(#paint11_linear_1_23)"/>
<path d="M10.0442 21.7635C8.29431 22.0877 6.84808 21.5387 6.3444 21.2238C6.82122 20.261 8.06655 18.1702 10.4229 18.0092C12.5515 17.8638 13.9135 19.5822 14.5265 20.8793C13.6348 20.8072 11.7942 21.4395 10.0442 21.7635Z" fill="url(#paint12_linear_1_23)" fill-opacity="0.5"/>
<path d="M12.6928 36.6658C15.6898 36.7323 17.5972 32.7993 18.1758 30.8243L15.3381 30.604C15.0806 31.7522 13.7714 33.9632 11.3113 34.2447C8.69847 34.5437 6.75317 31.2585 6.14765 29.6058C6.0798 29.6723 5.9959 29.7202 5.90413 29.7448C6.70318 32.2262 8.94475 36.5833 12.6928 36.6658Z" fill="url(#paint13_linear_1_23)"/>
<path d="M12.6928 36.6658C15.6898 36.7323 17.5972 32.7993 18.1758 30.8243L15.3381 30.604C15.0806 31.7522 13.7714 33.9632 11.3113 34.2447C8.69847 34.5437 6.75317 31.2585 6.14765 29.6058C6.0798 29.6723 5.9959 29.7202 5.90413 29.7448C6.70318 32.2262 8.94475 36.5833 12.6928 36.6658Z" fill="url(#paint14_linear_1_23)"/>
<path d="M16.3359 11.9048C17.684 16.2537 15.9887 20.0497 14.8657 21.5173C16.6267 25.6133 15.3507 29.6532 15.3507 30.8012C15.3507 31.9503 17.8017 31.6438 18.1842 30.8012C19.5978 26.4153 19.5182 18.6415 16.3359 11.9048Z" fill="url(#paint15_linear_1_23)"/>
<path d="M7.28923 21.5978L6.38835 21.2312C6.63835 20.4527 7.8781 18.1378 10.3743 18.011C9.58452 18.2378 7.6346 20.0738 7.28923 21.5978Z" fill="url(#paint16_linear_1_23)"/>
<path d="M10.584 21.6775C8.71375 22.1755 7.03512 21.6267 6.42957 21.2905C5.91848 22.2192 5.71202 23.2812 5.6722 23.696C8.26932 24.4763 12.9775 22.821 15.0079 21.896L14.5357 20.8868C13.9987 20.9423 12.4543 21.1793 10.584 21.6775Z" fill="#F4BA0C"/>
<defs>
<linearGradient id="paint0_linear_1_23" x1="13.7219" y1="4.3006" x2="37.0377" y2="15.0065" gradientUnits="userSpaceOnUse">
<stop offset="0.339" stop-color="#FF7301"/>
<stop offset="0.948" stop-color="#FFDD01"/>
</linearGradient>
<linearGradient id="paint1_linear_1_23" x1="5.49869" y1="3.33517" x2="36.2105" y2="24.873" gradientUnits="userSpaceOnUse">
<stop stop-color="#FF8101"/>
<stop offset="1" stop-color="#FFE601"/>
</linearGradient>
<linearGradient id="paint2_linear_1_23" x1="-6.8162" y1="18.4078" x2="-7.98927" y2="38.7765" gradientUnits="userSpaceOnUse">
<stop stop-color="#FF9100"/>
<stop offset="0.314" stop-color="#D4FF23"/>
<stop offset="0.49" stop-color="#87FF70"/>
<stop offset="0.688" stop-color="#1CFFDB"/>
<stop offset="1" stop-color="#00BEFF"/>
</linearGradient>
<linearGradient id="paint3_linear_1_23" x1="25.695" y1="4.3741" x2="34.5922" y2="7.5525" gradientUnits="userSpaceOnUse">
<stop stop-color="#FF4E00"/>
<stop offset="1" stop-color="#FF7300"/>
</linearGradient>
<linearGradient id="paint4_linear_1_23" x1="26.275" y1="9.86612" x2="36.4405" y2="11.2514" gradientUnits="userSpaceOnUse">
<stop stop-color="#FA0F00"/>
<stop offset="1" stop-color="#FF6E01"/>
</linearGradient>
<linearGradient id="paint5_linear_1_23" x1="7.37605" y1="15.0027" x2="15.9987" y2="43.2882" gradientUnits="userSpaceOnUse">
<stop stop-color="#A80000"/>
<stop offset="1" stop-color="#FA0F01"/>
</linearGradient>
<linearGradient id="paint6_linear_1_23" x1="17.243" y1="10.8471" x2="23.1952" y2="29.5635" gradientUnits="userSpaceOnUse">
<stop stop-color="#FFE600"/>
<stop offset="0.469" stop-color="#7AFF7D"/>
<stop offset="0.891" stop-color="#1CFFDB"/>
<stop offset="1" stop-color="#00DCFE"/>
</linearGradient>
<linearGradient id="paint7_linear_1_23" x1="20.753" y1="13.6546" x2="12.8137" y2="31.951" gradientUnits="userSpaceOnUse">
<stop stop-color="#F1FC06"/>
<stop offset="0.469" stop-color="#7AFF7D"/>
<stop offset="1" stop-color="#1CFFDB"/>
</linearGradient>
<linearGradient id="paint8_linear_1_23" x1="9.87359" y1="11.7966" x2="37.5718" y2="27.7628" gradientUnits="userSpaceOnUse">
<stop stop-color="#FFC100"/>
<stop offset="1" stop-color="#F1FC06"/>
</linearGradient>
<linearGradient id="paint9_linear_1_23" x1="20.0035" y1="3.33048" x2="20.0035" y2="36.6695" gradientUnits="userSpaceOnUse">
<stop stop-color="#FFD701"/>
<stop offset="1" stop-color="#FFE601"/>
</linearGradient>
<linearGradient id="paint10_linear_1_23" x1="14.0367" y1="5.67166" x2="16.6608" y2="36.945" gradientUnits="userSpaceOnUse">
<stop stop-color="#FFA300"/>
<stop offset="0.214" stop-color="#DEFF19"/>
<stop offset="0.464" stop-color="#A4FF53"/>
<stop offset="0.688" stop-color="#36FFC1"/>
<stop offset="0.865" stop-color="#00A0FF"/>
<stop offset="0.974" stop-color="#0064FF"/>
</linearGradient>
<linearGradient id="paint11_linear_1_23" x1="7.24968" y1="18.6075" x2="53.827" y2="20.076" gradientUnits="userSpaceOnUse">
<stop stop-color="#FF8A01"/>
<stop offset="1" stop-color="#FFDB00"/>
</linearGradient>
<linearGradient id="paint12_linear_1_23" x1="29.398" y1="52.5623" x2="26.83" y2="0.318556" gradientUnits="userSpaceOnUse">
<stop stop-color="#DFFD18"/>
<stop offset="1" stop-color="#FDAD12"/>
</linearGradient>
<linearGradient id="paint13_linear_1_23" x1="31.2525" y1="15.6073" x2="14.4038" y2="24.8372" gradientUnits="userSpaceOnUse">
<stop stop-color="#14F3E6"/>
<stop offset="1" stop-color="#0040FF"/>
</linearGradient>
<linearGradient id="paint14_linear_1_23" x1="6.07747" y1="6.87824" x2="20.4348" y2="12.0688" gradientUnits="userSpaceOnUse">
<stop stop-color="#09D3F3"/>
<stop offset="1" stop-color="#0001FC" stop-opacity="0"/>
</linearGradient>
<linearGradient id="paint15_linear_1_23" x1="11.5266" y1="18.6873" x2="12.7378" y2="41.6867" gradientUnits="userSpaceOnUse">
<stop stop-color="#FF9100"/>
<stop offset="0.314" stop-color="#D4FF23"/>
<stop offset="0.49" stop-color="#87FF70"/>
<stop offset="0.688" stop-color="#1CFFDB"/>
<stop offset="1" stop-color="#00D8FF"/>
</linearGradient>
<linearGradient id="paint16_linear_1_23" x1="5.00952" y1="15.1987" x2="18.2188" y2="35.2242" gradientUnits="userSpaceOnUse">
<stop stop-color="#FF4E01"/>
<stop offset="1" stop-color="#F4BB0C"/>
</linearGradient>
</defs>
</svg>
