<svg height="64" viewBox="0 0 64 64" width="64" xmlns="http://www.w3.org/2000/svg"><rect fill="#fff" height="64" rx="32" width="64"/><path d="m94.247 205.578a11.424 11.424 0 0 1 -11.507 11.328h-21.74v-7.566h21.74a3.783 3.783 0 0 0 0-7.565h-7.665v-7.545h7.665a3.783 3.783 0 1 0 0-7.565h-21.74v-7.565h21.74a11.454 11.454 0 0 1 11.507 11.348 11.186 11.186 0 0 1 -2.926 7.565 11.223 11.223 0 0 1 2.926 7.565z" fill="#fe815f" opacity=".8" transform="translate(-46.422 -166.003)"/><path d="m61 209.34h18.674a22.947 22.947 0 0 1 -17.38 7.565c-.438 0-.856-.02-1.274-.04-.02.021-.02-7.525-.02-7.525zm22.576-7.565h-7.227v-7.545h7.227a16.651 16.651 0 0 1 0 7.545zm-3.9-15.11h-18.676v-7.525c.418-.02.856-.04 1.274-.04a23.093 23.093 0 0 1 17.4 7.565z" opacity=".12" transform="translate(-46.422 -166.003)"/><path d="m61 179.2a18.895 18.895 0 1 1 0 37.786v-7.565a11.329 11.329 0 1 0 0-22.655z" fill="#ff6238" transform="translate(-46.422 -166.083)"/></svg>