<svg height="24" viewBox="0 0 24 24" width="24" xmlns="http://www.w3.org/2000/svg" xmlns:xlink="http://www.w3.org/1999/xlink"><linearGradient id="a" gradientUnits="objectBoundingBox" x1=".5" x2=".5" y1="1.142" y2="-.105"><stop offset="0" stop-color="#f9a606"/><stop offset="1" stop-color="#fbcc5f"/></linearGradient><circle cx="12" cy="12" fill="url(#a)" r="12"/><path d="m159.262 162.331h-1.371a5.543 5.543 0 0 0 -5.461-3.531h-4.4v3.531h-1.53v1.269h1.529v1.329h-1.529v1.267h1.529v3.489h4.4a5.561 5.561 0 0 0 5.434-3.489h1.4v-1.267h-1.09a5.749 5.749 0 0 0 .042-.686v-.031c0-.208-.012-.412-.031-.612h1.082v-1.267zm-10-2.4h3.169a4.322 4.322 0 0 1 4.1 2.4h-7.267zm3.169 8.615h-3.169v-2.356h7.259a4.326 4.326 0 0 1 -4.09 2.353zm4.51-4.275a4.555 4.555 0 0 1 -.046.655h-7.633v-1.329h7.638a5.007 5.007 0 0 1 .042.643z" fill="#fff" transform="translate(-140.412 -152.238)"/></svg>