<svg width="10" height="11" viewBox="0 0 10 11" fill="none" xmlns="http://www.w3.org/2000/svg">
<g clip-path="url(#clip0_711_19566)">
<path d="M9.67447 6.38159C9.5768 6.35718 9.47913 6.38159 9.39367 6.44264C9.07625 6.71122 8.71 6.93098 8.30712 7.07748C7.92865 7.22398 7.51356 7.29723 7.07406 7.29723C6.08517 7.29723 5.18174 6.89435 4.53469 6.2473C3.88764 5.60025 3.48475 4.69682 3.48475 3.70793C3.48475 3.29284 3.55801 2.88996 3.68009 2.5237C3.81438 2.13303 4.00972 1.77899 4.2661 1.47377C4.37598 1.33948 4.35156 1.14414 4.21726 1.03427C4.13181 0.973224 4.03414 0.948807 3.93647 0.973224C2.89875 1.25402 1.99532 1.87665 1.34826 2.70683C0.72563 3.5248 0.359375 4.53811 0.359375 5.63688C0.359375 6.9676 0.89655 8.17625 1.77556 9.05526C2.65458 9.93427 3.85101 10.4714 5.19395 10.4714C6.31713 10.4714 7.35485 10.0808 8.18503 9.43372C9.02742 8.77446 9.63784 7.83441 9.89422 6.76006C9.94306 6.58914 9.84539 6.41822 9.67447 6.38159Z" fill="#8C8C8C"/>
</g>
<defs>
<clipPath id="clip0_711_19566">
<rect width="9.54742" height="9.54742" fill="white" transform="translate(0.359375 0.944336)"/>
</clipPath>
</defs>
</svg>
