<svg xmlns="http://www.w3.org/2000/svg" width="23.625" height="27" viewBox="0 0 23.625 27">
  <path id="ic_discord" d="M15.673-10.8A1.438,1.438,0,0,0,14.3-12.3a1.438,1.438,0,0,0-1.377,1.5A1.447,1.447,0,0,0,14.3-9.3,1.438,1.438,0,0,0,15.673-10.8Zm-6.3-1.5a1.438,1.438,0,0,0-1.377,1.5A1.447,1.447,0,0,0,9.369-9.3a1.438,1.438,0,0,0,1.377-1.5A1.43,1.43,0,0,0,9.369-12.3Zm14.256-8.545a2.774,2.774,0,0,0-2.768-2.781H2.768A2.774,2.774,0,0,0,0-20.844V-2.592A2.774,2.774,0,0,0,2.768.189H18.077l-.716-2.5c3.951,3.673,2.863,2.678,6.264,5.684Zm-3.847,12.8a4.935,4.935,0,0,1-4.131,2.052s-.486-.58-.891-1.094A4.26,4.26,0,0,0,17.2-8.694a7.724,7.724,0,0,1-1.552.8A9.841,9.841,0,0,1,7.222-8.37c-.027-.018-.355-.2-.554-.338A4.2,4.2,0,0,0,9.031-7.115c-.4.513-.9,1.121-.9,1.121A4.895,4.895,0,0,1,4.01-8.046a18.079,18.079,0,0,1,1.944-7.871,6.676,6.676,0,0,1,3.793-1.417l.135.162A9.107,9.107,0,0,0,6.332-15.4s.3-.162.8-.391a11.471,11.471,0,0,1,10.085.391,8.985,8.985,0,0,0-3.362-1.715l.189-.216a6.676,6.676,0,0,1,3.793,1.417A18.079,18.079,0,0,1,19.778-8.046Z" transform="translate(0 23.625)" fill="#91929e"/>
</svg>
