<svg viewBox="0 0 20 20" fill="none" xmlns="http://www.w3.org/2000/svg">
  <g clip-path="url(#clip0_1686_108670)">
    <circle cx="10" cy="10" r="10" fill="url(#paint0_linear_1686_108670)" />
    <path fill-rule="evenodd" clip-rule="evenodd"
      d="M8.89857 3.23573C9.5333 2.97078 10.2389 2.92792 10.901 3.11409C11.1949 3.19613 11.4427 3.29777 11.8222 3.61164C12.2018 3.92511 12.3998 4.37981 12.261 4.35246L12.2243 4.34511C12.0227 4.30552 11.8439 4.27001 11.5827 4.24593C11.3059 4.22022 10.9239 4.25328 10.7818 4.26838C10.1116 4.33858 9.6749 4.61042 9.33694 4.82144C8.75735 5.18307 8.17408 5.7643 7.72265 6.38389C7.33245 6.91858 6.91163 7.65328 6.58102 8.54552C6.40755 9.0145 6.28306 9.54715 6.28306 9.91899C6.28306 10.1133 6.29775 10.4112 6.44388 10.7039C6.71326 10.1888 7.17163 9.3243 7.51245 8.73899C8.06755 7.7847 8.83408 6.56266 9.78265 5.97042C10.8218 5.32103 12.1357 5.31491 13.308 5.98634C14.0096 6.38838 14.3537 6.78634 14.9937 7.62471C15.3761 8.12593 15.6414 8.62471 15.8978 9.10552C15.9508 9.20511 16.0031 9.30348 16.0561 9.40103C16.1651 9.60226 16.3933 10.097 16.6394 10.9459C16.8851 11.7949 16.921 12.7472 16.8586 13.2512C16.7721 13.9298 16.4563 14.5584 15.9635 15.0329C15.7447 15.2439 15.532 15.4059 15.0688 15.5757C14.6051 15.7447 14.1092 15.6876 14.2027 15.5818L14.2271 15.5541C14.3627 15.4006 14.4831 15.2651 14.6345 15.0525C14.7953 14.8272 14.9573 14.4827 15.0157 14.3533C15.2892 13.7423 15.2704 13.2308 15.2553 12.8349C15.2292 12.1561 15.0133 11.3643 14.6986 10.6667C14.4267 10.0639 13.9961 9.33491 13.3827 8.60471C13.0602 8.22103 12.6573 7.84797 12.3329 7.66185C12.17 7.56879 11.9165 7.4394 11.6059 7.41083C11.9198 7.89858 12.4508 8.73246 12.7937 9.32226C13.3488 10.2765 14.032 11.5467 14.0753 12.6578C14.1222 13.8753 13.4708 15.0076 12.2982 15.679C11.5969 16.0806 11.0778 16.1778 10.0255 16.3084C9.39694 16.3859 8.82877 16.3651 8.28102 16.3447L7.94428 16.3329C7.71367 16.3263 7.16796 16.2749 6.30428 16.0618C5.4402 15.8488 4.59082 15.4035 4.18224 15.0974C3.63482 14.6863 3.24415 14.1007 3.0749 13.4374C2.99979 13.1443 2.96469 12.8802 3.04877 12.3974C3.13286 11.9145 3.43041 11.5165 3.47612 11.65L3.48837 11.6851C3.55408 11.8782 3.61245 12.0492 3.72224 12.2859C3.83816 12.5365 4.05775 12.8484 4.14184 12.9631C4.53857 13.5035 4.99408 13.7431 5.34714 13.928C5.95286 14.2451 6.75163 14.4553 7.51816 14.5337C8.1802 14.6014 9.03163 14.5961 9.97531 14.4341C10.4716 14.3488 10.9986 14.1892 11.3235 14.0031C11.4961 13.9043 11.7557 13.7378 11.939 13.4561C11.3635 13.4818 10.3373 13.5231 9.63327 13.5231C8.52306 13.5231 7.07326 13.4749 6.08184 12.9565C4.99531 12.388 4.33326 11.2623 4.33326 9.91899C4.33326 9.11532 4.50837 8.62062 4.9202 7.65124C5.16633 7.07246 5.46918 6.59409 5.76102 6.13409C5.82102 6.03899 5.88061 5.94471 5.93939 5.85042C6.0602 5.65573 6.37816 5.21246 6.99612 4.57695C7.61408 3.94103 8.42673 3.43368 8.89857 3.23573ZM11.8961 11.6308C11.8378 11.5002 11.7684 11.3623 11.6867 11.2174C11.1385 10.2432 10.5781 9.27596 10.0059 8.31573C9.91122 8.44144 9.81531 8.58348 9.71939 8.74266C8.98306 9.96715 8.3749 11.0259 8.05163 11.5957C8.19939 11.6121 8.35939 11.6218 8.53326 11.6243C9.99857 11.6455 11.2476 11.6378 11.8961 11.6308Z"
      fill="white" />
  </g>
  <defs>
    <linearGradient id="paint0_linear_1686_108670" x1="-1.79339" y1="7.32383" x2="6.65345"
      y2="21.8702" gradientUnits="userSpaceOnUse">
      <stop stop-color="#A79DFF" />
      <stop offset="1" stop-color="#6B70ED" />
    </linearGradient>
    <clipPath id="clip0_1686_108670">
      <rect width="20" height="20" fill="white" />
    </clipPath>
  </defs>
</svg>
