<svg width="40" height="40" viewBox="0 0 40 40" fill="none" xmlns="http://www.w3.org/2000/svg">
<g clip-path="url(#clip0_1218_24181)">
<path d="M20 40C31.0457 40 40 31.0457 40 20C40 8.9543 31.0457 0 20 0C8.9543 0 0 8.9543 0 20C0 31.0457 8.9543 40 20 40Z" fill="#E6007A"/>
<path d="M20.34 8.28125C15.7063 8.28125 11.92 12.0463 11.92 16.7013C11.92 17.6375 12.075 18.5513 12.365 19.4413C12.4677 19.7351 12.6816 19.9769 12.9607 20.1146C13.2399 20.2523 13.5619 20.2749 13.8575 20.1775C14.1511 20.0746 14.3926 19.8606 14.5301 19.5815C14.6675 19.3024 14.69 18.9805 14.5925 18.685C14.3481 17.9911 14.235 17.2578 14.2588 16.5225C14.3475 13.3825 16.8875 10.7975 20.0288 10.6425C20.8516 10.5993 21.6746 10.7239 22.4478 11.0087C23.2209 11.2936 23.9281 11.7327 24.5261 12.2995C25.1242 12.8662 25.6008 13.5487 25.9268 14.3054C26.2528 15.0622 26.4215 15.8773 26.4225 16.7013C26.4207 18.2508 25.827 19.7412 24.7629 20.8676C23.6987 21.994 22.2445 22.6714 20.6975 22.7612C20.6975 22.7612 19.5163 22.8275 18.9375 22.9175C18.6475 22.9612 18.425 23.0063 18.2688 23.0288C18.2013 23.0513 18.135 22.9838 18.1563 22.9163L18.3575 21.9375L19.4488 16.9025C19.5124 16.6014 19.4546 16.2875 19.2879 16.0288C19.1213 15.7701 18.8592 15.5877 18.5588 15.5212C18.2576 15.4577 17.9434 15.5157 17.6847 15.6826C17.426 15.8495 17.2438 16.1118 17.1775 16.4125C17.1775 16.4125 14.5488 28.665 14.5263 28.7987C14.4627 29.1 14.5207 29.4141 14.6876 29.6728C14.8545 29.9315 15.1169 30.1138 15.4175 30.18C15.7188 30.2436 16.0329 30.1856 16.2916 30.0187C16.5503 29.8517 16.7326 29.5894 16.7988 29.2887C16.82 29.155 17.1775 27.5288 17.1775 27.5288C17.3041 26.9325 17.6116 26.3899 18.0582 25.9751C18.5048 25.5603 19.0686 25.2935 19.6725 25.2113C20.1095 25.1634 20.5475 25.1263 20.9863 25.1C23.1013 24.9352 25.0764 23.979 26.5175 22.4223C27.9586 20.8655 28.7598 18.8226 28.7613 16.7013C28.7613 12.0463 24.9738 8.28125 20.34 8.28125ZM20.9413 27.6625C20.7599 27.6234 20.5726 27.6206 20.3901 27.6544C20.2077 27.6882 20.0338 27.7579 19.8784 27.8594C19.7231 27.9609 19.5895 28.0922 19.4852 28.2457C19.381 28.3993 19.3083 28.5719 19.2713 28.7538C19.115 29.5113 19.5838 30.2688 20.3625 30.425C20.5441 30.4643 20.7316 30.4671 20.9143 30.4333C21.097 30.3995 21.2711 30.3298 21.4266 30.2282C21.5821 30.1265 21.7158 29.995 21.82 29.8412C21.9243 29.6875 21.9969 29.5146 22.0338 29.3325C22.1888 28.5537 21.7213 27.8175 20.9413 27.6625Z" fill="white"/>
</g>
<defs>
<clipPath id="clip0_1218_24181">
<rect width="40" height="40" fill="white"/>
</clipPath>
</defs>
</svg>
