<svg width="20" height="21" viewBox="0 0 20 21" fill="none" xmlns="http://www.w3.org/2000/svg">
<path d="M16.9308 3.47461C15.6561 2.88971 14.2892 2.45878 12.8599 2.21197C12.8339 2.20721 12.8079 2.21911 12.7945 2.24292C12.6187 2.5556 12.4239 2.96352 12.2876 3.28414C10.7503 3.054 9.22099 3.054 7.71527 3.28414C7.57887 2.95639 7.37707 2.5556 7.20048 2.24292C7.18707 2.21991 7.16107 2.208 7.13504 2.21197C5.70659 2.458 4.33963 2.88892 3.06411 3.47461C3.05307 3.47938 3.04361 3.48732 3.03732 3.49763C0.444493 7.37126 -0.265792 11.1497 0.0826501 14.8813C0.0842267 14.8995 0.0944749 14.917 0.108665 14.9281C1.81934 16.1844 3.47642 16.947 5.10273 17.4526C5.12876 17.4605 5.15634 17.451 5.1729 17.4295C5.55761 16.9042 5.90054 16.3502 6.19456 15.7677C6.21192 15.7336 6.19535 15.6931 6.15989 15.6796C5.61594 15.4733 5.098 15.2217 4.59977 14.936C4.56037 14.913 4.55721 14.8566 4.59347 14.8297C4.69831 14.7511 4.80318 14.6693 4.9033 14.5868C4.92141 14.5717 4.94665 14.5686 4.96794 14.5781C8.24107 16.0725 11.7846 16.0725 15.0191 14.5781C15.0404 14.5678 15.0657 14.571 15.0846 14.586C15.1847 14.6686 15.2895 14.7511 15.3952 14.8297C15.4314 14.8566 15.4291 14.913 15.3897 14.936C14.8914 15.2273 14.3735 15.4733 13.8288 15.6788C13.7933 15.6923 13.7775 15.7336 13.7949 15.7677C14.0952 16.3494 14.4381 16.9034 14.8157 17.4288C14.8315 17.451 14.8599 17.4605 14.8859 17.4526C16.5201 16.947 18.1772 16.1844 19.8879 14.9281C19.9028 14.917 19.9123 14.9003 19.9139 14.8821C20.3309 10.5679 19.2154 6.8205 16.9568 3.49842C16.9513 3.48732 16.9419 3.47938 16.9308 3.47461ZM6.68335 12.6091C5.69792 12.6091 4.88594 11.7044 4.88594 10.5933C4.88594 9.48228 5.68217 8.57757 6.68335 8.57757C7.69239 8.57757 8.49651 9.49022 8.48073 10.5933C8.48073 11.7044 7.68451 12.6091 6.68335 12.6091ZM13.329 12.6091C12.3435 12.6091 11.5316 11.7044 11.5316 10.5933C11.5316 9.48228 12.3278 8.57757 13.329 8.57757C14.338 8.57757 15.1421 9.49022 15.1264 10.5933C15.1264 11.7044 14.338 12.6091 13.329 12.6091Z" fill="#91929e"/>
</svg>
