<svg width="40" height="40" viewBox="0 0 40 40" fill="none" xmlns="http://www.w3.org/2000/svg">
<rect width="40" height="40" rx="20" fill="#E6007A"/>
<path d="M25.8735 6.76471C25.8735 8.65686 23.2365 10.1961 19.9913 10.1961C16.7462 10.1961 14.1089 8.65686 14.1089 6.76471C14.1089 4.87254 16.756 3.33334 19.9913 3.33334C23.2267 3.33334 25.8735 4.87254 25.8735 6.76471ZM25.8735 33.2353C25.8735 35.1273 23.2365 36.6667 19.9913 36.6667C16.7462 36.6667 14.1089 35.1273 14.1089 33.2353C14.1089 31.343 16.756 29.804 19.9913 29.804C23.2267 29.804 25.8735 31.343 25.8735 33.2353ZM11.5109 15.2451C13.1775 12.3725 13.1873 9.26469 11.5501 8.32351C9.90303 7.37254 7.23636 8.94116 5.5697 11.8137C3.90303 14.6863 3.90303 17.7942 5.5305 18.7352C7.17755 19.6763 9.8442 18.1177 11.5109 15.2451ZM34.4323 21.2548C36.0793 22.1863 36.0698 25.2352 34.4128 28.0587C32.7462 30.8823 30.0697 32.4118 28.4325 31.4803C26.7755 30.549 26.7853 27.4998 28.4423 24.6765C30.1088 21.853 32.7853 20.3235 34.4323 21.2548ZM11.5599 31.5C13.2069 30.5687 13.1971 27.5195 11.5305 24.696C9.87361 21.8725 7.19715 20.3432 5.5501 21.2745C3.89325 22.2155 3.90303 25.2548 5.5697 28.0783C7.22656 30.902 9.90303 32.441 11.5501 31.5098L11.5599 31.5ZM34.4323 11.8235C36.099 14.6961 36.099 17.7942 34.4618 18.7352C32.8247 19.6862 30.1482 18.1275 28.4813 15.2451C26.8343 12.3725 26.8147 9.27451 28.4522 8.33333C30.0992 7.38236 32.7658 8.94116 34.4323 11.8235Z" fill="white"/>
</svg>
