<svg height="14.275" viewBox="0 0 20.003 14.275" width="20.003" xmlns="http://www.w3.org/2000/svg"><g fill="#fff" transform="translate(-3.45 -34.1)"><path d="m20.191 40.16a9.653 9.653 0 0 0 -4.472-2.327c.087-.071.174-.148.258-.231.739-.739 1-1.673.586-2.087-.372-.372-1.165-.2-1.857.378-.13-1.026-.645-1.792-1.261-1.792s-1.132.766-1.262 1.792c-.7-.576-1.483-.749-1.857-.378-.413.415-.153 1.349.586 2.087.085.083.174.162.261.233a9.691 9.691 0 0 0 -7.563 8.64l-.16 1.9h2.5l.145-1.69a7.2 7.2 0 0 1 7.176-6.592h.372a7.2 7.2 0 0 1 7.174 6.592l.145 1.69h2.5l-.158-1.9a9.662 9.662 0 0 0 -3.113-6.315z"/><path d="m82.706 142.1c-.493 0-.9.713-.9 1.593s.4 1.593.9 1.593.9-.713.9-1.593-.406-1.593-.9-1.593z" transform="translate(-71.694 -98.812)"/><path d="m140.046 142.1c-.493 0-.9.713-.9 1.593s.4 1.593.9 1.593.9-.713.9-1.593-.407-1.593-.9-1.593z" transform="translate(-124.156 -98.812)"/></g></svg>