<svg viewBox="0 0 16 16" fill="none" xmlns="http://www.w3.org/2000/svg">
<path d="M13.5535 2.84197C12.5178 2.35739 11.4104 2.00522 10.2526 1.80469C10.1104 2.06176 9.94429 2.40753 9.82976 2.68259C8.599 2.4975 7.37956 2.4975 6.17144 2.68259C6.05693 2.40753 5.88704 2.06176 5.74357 1.80469C4.58454 2.00522 3.47584 2.35869 2.44013 2.84454C0.351095 6.00134 -0.215207 9.07974 0.0679444 12.1144C1.4535 13.1491 2.79627 13.7777 4.11638 14.189C4.44233 13.7404 4.73302 13.2635 4.98345 12.761C4.5065 12.5797 4.04969 12.3561 3.61805 12.0964C3.73256 12.0116 3.84457 11.9229 3.95279 11.8316C6.58546 13.063 9.44593 13.063 12.0472 11.8316C12.1566 11.9229 12.2686 12.0116 12.3819 12.0964C11.949 12.3573 11.4909 12.581 11.014 12.7622C11.2644 13.2635 11.5538 13.7417 11.881 14.1902C13.2024 13.7789 14.5464 13.1504 15.932 12.1144C16.2642 8.59645 15.3644 5.54633 13.5535 2.84197ZM5.34212 10.2481C4.55181 10.2481 3.9037 9.51032 3.9037 8.61187C3.9037 7.71341 4.53797 6.97435 5.34212 6.97435C6.14628 6.97435 6.79437 7.71212 6.78053 8.61187C6.78178 9.51032 6.14628 10.2481 5.34212 10.2481ZM10.6578 10.2481C9.86752 10.2481 9.21941 9.51032 9.21941 8.61187C9.21941 7.71341 9.85366 6.97435 10.6578 6.97435C11.462 6.97435 12.1101 7.71212 12.0962 8.61187C12.0962 9.51032 11.462 10.2481 10.6578 10.2481Z" fill="currentColor"/>
</svg>
