<svg height="27" viewBox="0 0 23.625 27" width="23.625" xmlns="http://www.w3.org/2000/svg"><path d="m15.673-10.8a1.438 1.438 0 0 0 -1.373-1.5 1.438 1.438 0 0 0 -1.377 1.5 1.447 1.447 0 0 0 1.377 1.5 1.438 1.438 0 0 0 1.373-1.5zm-6.3-1.5a1.438 1.438 0 0 0 -1.377 1.5 1.447 1.447 0 0 0 1.373 1.5 1.438 1.438 0 0 0 1.377-1.5 1.43 1.43 0 0 0 -1.377-1.5zm14.256-8.545a2.774 2.774 0 0 0 -2.768-2.781h-18.093a2.774 2.774 0 0 0 -2.768 2.782v18.252a2.774 2.774 0 0 0 2.768 2.781h15.309l-.716-2.5c3.951 3.673 2.863 2.678 6.264 5.684zm-3.847 12.8a4.935 4.935 0 0 1 -4.131 2.052s-.486-.58-.891-1.094a4.26 4.26 0 0 0 2.44-1.607 7.724 7.724 0 0 1 -1.552.8 9.841 9.841 0 0 1 -8.426-.476c-.027-.018-.355-.2-.554-.338a4.2 4.2 0 0 0 2.363 1.593c-.4.513-.9 1.121-.9 1.121a4.895 4.895 0 0 1 -4.121-2.052 18.079 18.079 0 0 1 1.944-7.871 6.676 6.676 0 0 1 3.793-1.417l.135.162a9.107 9.107 0 0 0 -3.55 1.772s.3-.162.8-.391a11.471 11.471 0 0 1 10.085.391 8.985 8.985 0 0 0 -3.362-1.715l.189-.216a6.676 6.676 0 0 1 3.793 1.417 18.079 18.079 0 0 1 1.941 7.868z" fill="#a0a3c4" transform="translate(0 23.625)"/></svg>
