<svg width="24" height="24" viewBox="0 0 24 24" fill="none" xmlns="http://www.w3.org/2000/svg">
<g clip-path="url(#clip0_1218_24210)">
<path d="M12 24C18.6274 24 24 18.6274 24 12C24 5.37258 18.6274 0 12 0C5.37258 0 0 5.37258 0 12C0 18.6274 5.37258 24 12 24Z" fill="#E6007A"/>
<path d="M12.204 4.96875C9.42373 4.96875 7.15198 7.22775 7.15198 10.0208C7.15198 10.5825 7.24498 11.1308 7.41898 11.6648C7.48057 11.841 7.60892 11.9861 7.7764 12.0687C7.94388 12.1514 8.1371 12.1649 8.31448 12.1065C8.49064 12.0448 8.63553 11.9163 8.718 11.7489C8.80047 11.5814 8.81393 11.3883 8.75548 11.211C8.60884 10.7947 8.54093 10.3547 8.55523 9.9135C8.60848 8.0295 10.1325 6.4785 12.0172 6.3855C12.5109 6.35956 13.0047 6.43432 13.4686 6.60524C13.9325 6.77615 14.3568 7.03965 14.7156 7.37969C15.0745 7.71974 15.3604 8.12924 15.556 8.58327C15.7516 9.0373 15.8528 9.52638 15.8535 10.0208C15.8524 10.9505 15.4962 11.8447 14.8577 12.5205C14.2192 13.1964 13.3467 13.6028 12.4185 13.6568C12.4185 13.6568 11.7097 13.6965 11.3625 13.7505C11.1885 13.7768 11.055 13.8038 10.9612 13.8173C10.9207 13.8308 10.881 13.7903 10.8937 13.7498L11.0145 13.1625L11.6692 10.1415C11.7074 9.96087 11.6727 9.77247 11.5727 9.61728C11.4727 9.46209 11.3155 9.35264 11.1352 9.31275C10.9545 9.27461 10.766 9.3094 10.6108 9.40955C10.4556 9.5097 10.3462 9.6671 10.3065 9.8475C10.3065 9.8475 8.72923 17.199 8.71573 17.2793C8.67759 17.46 8.71238 17.6485 8.81253 17.8037C8.91268 17.9589 9.07008 18.0683 9.25048 18.108C9.43122 18.1461 9.6197 18.1114 9.77492 18.0112C9.93013 17.911 10.0395 17.7536 10.0792 17.5733C10.092 17.493 10.3065 16.5173 10.3065 16.5173C10.3824 16.1595 10.5669 15.8339 10.8349 15.5851C11.1028 15.3362 11.4411 15.1761 11.8035 15.1268C12.0656 15.098 12.3285 15.0758 12.5917 15.06C13.8607 14.9611 15.0458 14.3874 15.9104 13.4534C16.7751 12.5193 17.2559 11.2936 17.2567 10.0208C17.2567 7.22775 14.9842 4.96875 12.204 4.96875ZM12.5647 16.5975C12.4559 16.574 12.3435 16.5724 12.234 16.5927C12.1246 16.6129 12.0202 16.6547 11.927 16.7156C11.8338 16.7765 11.7536 16.8553 11.6911 16.9474C11.6286 17.0396 11.5849 17.1432 11.5627 17.2523C11.469 17.7068 11.7502 18.1613 12.2175 18.255C12.3264 18.2786 12.4389 18.2803 12.5485 18.26C12.6581 18.2397 12.7626 18.1979 12.8559 18.1369C12.9492 18.0759 13.0294 17.997 13.092 17.9047C13.1545 17.8125 13.1981 17.7087 13.2202 17.5995C13.3132 17.1323 13.0327 16.6905 12.5647 16.5975Z" fill="white"/>
</g>
<defs>
<clipPath id="clip0_1218_24210">
<rect width="24" height="24" fill="white"/>
</clipPath>
</defs>
</svg>
