<svg id="ic_dai_24" xmlns="http://www.w3.org/2000/svg" xmlns:xlink="http://www.w3.org/1999/xlink" width="24" height="24" viewBox="0 0 24 24">
  <defs>
    <linearGradient id="linear-gradient" x1="0.5" y1="1.142" x2="0.5" y2="-0.105" gradientUnits="objectBoundingBox">
      <stop offset="0" stop-color="#f9a606"/>
      <stop offset="1" stop-color="#fbcc5f"/>
    </linearGradient>
  </defs>
  <circle id="Ellipse_82" data-name="Ellipse 82" cx="12" cy="12" r="12" fill="url(#linear-gradient)"/>
  <path id="Path_1564" data-name="Path 1564" d="M159.262,162.331h-1.371a5.543,5.543,0,0,0-5.461-3.531h-4.4v3.531H146.5V163.6h1.529v1.329H146.5v1.267h1.529v3.489h4.4a5.561,5.561,0,0,0,5.434-3.489h1.4v-1.267h-1.09a5.749,5.749,0,0,0,.042-.686v-.031c0-.208-.012-.412-.031-.612h1.082v-1.267Zm-10-2.4h3.169a4.322,4.322,0,0,1,4.1,2.4h-7.267Zm3.169,8.615h-3.169V166.19h7.259A4.326,4.326,0,0,1,152.431,168.543Zm4.51-4.275a4.555,4.555,0,0,1-.046.655h-7.633v-1.329H156.9a5.007,5.007,0,0,1,.042.643Z" transform="translate(-140.412 -152.238)" fill="#fff"/>
</svg>
