<svg width="1em" height="1em" viewBox="0 0 16 16" fill="none" xmlns="http://www.w3.org/2000/svg">
  <g clip-path="url(#clip0_3046_27227)">
    <path d="M8 4.66699L8 9.33366M8 9.33366L10 7.33366M8 9.33366L6 7.33366" stroke="currentColor"
      stroke-linecap="round" stroke-linejoin="round" />
    <path d="M10.6668 11.333H8.00016H5.3335" stroke="currentColor" />
    <path
      d="M8.00016 14.6663V14.1663C6.41468 14.1663 5.27587 14.1653 4.40921 14.0488C3.55695 13.9342 3.04313 13.7162 2.66336 13.3365L2.30981 13.69L1.95625 14.0436C2.55279 14.6401 3.31281 14.9104 4.27597 15.0398C5.22474 15.1674 6.44295 15.1663 8.00016 15.1663V14.6663ZM1.3335 7.99967H0.833496C0.833496 9.55689 0.832434 10.7751 0.959994 11.7239C1.08949 12.687 1.35971 13.447 1.95625 14.0436L2.30981 13.69L2.66336 13.3365C2.28359 12.9567 2.06566 12.4429 1.95108 11.5906C1.83456 10.724 1.8335 9.58516 1.8335 7.99967H1.3335ZM14.6668 7.99967H14.1668C14.1668 9.58516 14.1658 10.724 14.0492 11.5906C13.9347 12.4429 13.7167 12.9567 13.337 13.3365L13.6905 13.69L14.0441 14.0436C14.6406 13.447 14.9108 12.687 15.0403 11.7239C15.1679 10.7751 15.1668 9.55689 15.1668 7.99967H14.6668ZM8.00016 14.6663V15.1663C9.55738 15.1663 10.7756 15.1674 11.7244 15.0398C12.6875 14.9104 13.4475 14.6401 14.0441 14.0436L13.6905 13.69L13.337 13.3365C12.9572 13.7162 12.4434 13.9342 11.5911 14.0488C10.7245 14.1653 9.58565 14.1663 8.00016 14.1663V14.6663ZM8.00016 1.33301V1.83301C9.58565 1.83301 10.7245 1.83407 11.5911 1.95059C12.4434 2.06517 12.9572 2.2831 13.337 2.66287L13.6905 2.30932L14.0441 1.95577C13.4475 1.35923 12.6875 1.089 11.7244 0.959505C10.7756 0.831946 9.55738 0.833008 8.00016 0.833008V1.33301ZM14.6668 7.99967H15.1668C15.1668 6.44246 15.1679 5.22425 15.0403 4.27548C14.9108 3.31232 14.6406 2.55231 14.0441 1.95577L13.6905 2.30932L13.337 2.66287C13.7167 3.04264 13.9347 3.55646 14.0492 4.40873C14.1658 5.27538 14.1668 6.41419 14.1668 7.99967H14.6668ZM8.00016 1.33301V0.833008C6.44295 0.833008 5.22474 0.831946 4.27597 0.959505C3.31281 1.089 2.55279 1.35923 1.95625 1.95577L2.30981 2.30932L2.66336 2.66287C3.04313 2.2831 3.55695 2.06517 4.40921 1.95059C5.27587 1.83407 6.41468 1.83301 8.00016 1.83301V1.33301ZM1.3335 7.99967H1.8335C1.8335 6.41419 1.83456 5.27538 1.95108 4.40873C2.06566 3.55646 2.28359 3.04264 2.66336 2.66287L2.30981 2.30932L1.95625 1.95577C1.35971 2.55231 1.08949 3.31232 0.959994 4.27548C0.832434 5.22425 0.833496 6.44246 0.833496 7.99967H1.3335Z"
      fill="currentColor" />
  </g>
  <defs>
    <clipPath id="clip0_3046_27227">
      <rect width="16" height="16" rx="5" fill="white" />
    </clipPath>
  </defs>
</svg>
