<svg height="64" viewBox="0 0 64 64" width="64" xmlns="http://www.w3.org/2000/svg"><rect fill="#fff" height="64" rx="32" width="64"/><path d="m80.955 142.6c1.443 0 2.616 2.045 2.616 4.6v.18c.782-.9 1.684-1.383 2.376-1.083s.992 1.293.872 2.5a5.478 5.478 0 0 1 -.451 1.834 6.648 6.648 0 0 1 -.541 1.022c10.284 2.285 17.591 10.675 17.471 25.289h-6.255c.09-12.389-7.127-18.524-16.6-18.7-10.314-.21-16 6.616-16.659 18.7h-6.284c.812-14.674 7.187-23.636 18.373-25.38-.241-.361-.451-.722-.662-1.083-.872-1.8-.752-3.669.271-4.18.812-.391 1.985.21 2.857 1.413 0-.18-.03-.361-.03-.541.03-2.5 1.2-4.571 2.646-4.571zm-5.713 21.771a1.773 1.773 0 0 1 1.714 1.8v4.42a1.773 1.773 0 0 1 -1.714 1.8 1.753 1.753 0 0 1 -1.714-1.8v-4.42a1.773 1.773 0 0 1 1.714-1.8zm10.314 0a1.753 1.753 0 0 1 1.714 1.8v4.42a1.716 1.716 0 1 1 -3.428 0v-4.42a1.753 1.753 0 0 1 1.714-1.8z" fill-rule="evenodd" transform="translate(-48.4 -132.075)"/></svg>