<svg height="64" viewBox="0 0 64 64" width="64" xmlns="http://www.w3.org/2000/svg" xmlns:xlink="http://www.w3.org/1999/xlink"><linearGradient id="a" gradientUnits="objectBoundingBox" x1=".592" x2=".523" y1="1.361" y2=".55"><stop offset=".29" stop-color="#3a8bff"/><stop offset="1" stop-color="#81b5ff"/></linearGradient><linearGradient id="b" gradientUnits="objectBoundingBox" x1=".66" x2=".056" y1="-.118" y2=".98"><stop offset=".29" stop-color="#0062ee"/><stop offset="1" stop-color="#00398a"/></linearGradient><linearGradient id="c" x1=".2" x2=".543" xlink:href="#b" y1="1.056" y2=".249"/><linearGradient id="d" gradientUnits="objectBoundingBox" x1=".5" x2=".5" y1="1.275" y2=".5"><stop offset=".29" stop-color="#b3d2ff"/><stop offset="1" stop-color="#fff"/></linearGradient><linearGradient id="e" x1="1.075" x2=".132" xlink:href="#a" y1=".857" y2=".271"/><rect fill="#fff" height="64" rx="32" width="64"/><g transform="translate(15.656 11.451)"><g fill-rule="evenodd"><path d="m11.676 64.428a1.183 1.183 0 0 1 -1.073.159l-1.054-.361a.805.805 0 0 1 0-1.524l1.054-.361a1.186 1.186 0 0 1 1.073 2.087" fill="#0dff81" transform="translate(-6.021 -41.645)"/><path d="m16.191 89.746a.663.663 0 0 1 .186-.868l2.455-1.769a.971.971 0 0 1 1.355.219c.02.026.036.056.053.083a.967.967 0 0 1 -.354 1.325l-.089.046-2.76 1.242a.663.663 0 0 1 -.845-.275" fill="#fff" transform="translate(-10.768 -58.127)"/><path d="m20.242 38.962a.994.994 0 0 1 -.636.461.967.967 0 0 1 -.772-.159l-2.455-1.772a.663.663 0 0 1 .663-1.14l2.758 1.238a.967.967 0 0 1 .49 1.279c0 .03-.03.06-.046.089" fill="#fff" transform="translate(-10.77 -24.269)"/></g><path d="m11.957 106.54-.278 8.253h-7.753a3.929 3.929 0 0 1 -3.926-3.926v-1.756a28.893 28.893 0 0 0 11.957-2.571" fill="url(#a)" transform="translate(0 -71.243)"/><path d="m90.667 89.743a.663.663 0 0 1 -.845.275l-2.76-1.242a.964.964 0 0 1 -.49-1.272l.05-.1a.964.964 0 0 1 1.325-.354l.083.053 2.455 1.769a.663.663 0 0 1 .186.868" fill="#fff" fill-rule="evenodd" transform="translate(-57.836 -58.124)"/><path d="m90.47 37.494-2.455 1.772a.974.974 0 0 1 -1.358-.229l-.046-.073a.964.964 0 0 1 .331-1.325.526.526 0 0 1 .1-.05l2.76-1.239a.663.663 0 0 1 .663 1.14" fill="#fff" fill-rule="evenodd" transform="translate(-57.824 -24.269)"/><path d="m101.077 63.468a.8.8 0 0 1 -.543.762l-1.057.361a1.186 1.186 0 1 1 -.762-2.246 1.2 1.2 0 0 1 .762 0l1.057.361a.805.805 0 0 1 .543.762" fill="#b3d2ff" fill-rule="evenodd" transform="translate(-65.472 -41.648)"/><path d="m9.555 13.914a.994.994 0 0 1 -.083.782.994.994 0 0 1 -.636.461.967.967 0 0 1 -.772-.157l-2.455-1.775a.663.663 0 0 1 .663-1.14l2.76 1.239a.971.971 0 0 1 .523.59m0 16.154a.971.971 0 0 1 -.527.586l-2.76 1.246a.663.663 0 0 1 -.663-1.143l2.455-1.772a.971.971 0 0 1 1.355.219c.02.027.036.056.053.083a.994.994 0 0 1 .083.782m-4.969-7.123-1.054-.361a.805.805 0 0 1 0-1.524l1.054-.361a1.186 1.186 0 1 1 .762 2.246 1.2 1.2 0 0 1 -.762 0m12.218-22.946h-6.086a10.721 10.721 0 0 1 -10.714 10.717v27.15a28.893 28.893 0 0 0 11.957-2.567l.474-14.034a3.079 3.079 0 0 1 -1.438-2.8 2.9 2.9 0 0 1 1.753-2.922 6.626 6.626 0 0 1 .908-2.458 1.444 1.444 0 0 1 -1.063-.689 25.132 25.132 0 0 1 -3.048-4.88 1.166 1.166 0 0 1 .126-1.176.58.58 0 0 1 .812-.109.693.693 0 0 1 .073.066c1.441 1.365 3.174 1.772 4.131 3.081a1.845 1.845 0 0 1 .275-.451 2.008 2.008 0 0 1 2.37-.628 2.051 2.051 0 0 1 3.933 0 1.888 1.888 0 0 1 1.378-.066 28.72 28.72 0 0 1 4.075-5.854 21.667 21.667 0 0 0 -9.916-2.38" fill="url(#b)"/><path d="m11.676 64.428a1.183 1.183 0 0 1 -1.073.159l-1.054-.361a.805.805 0 0 1 0-1.524l1.054-.361a1.186 1.186 0 0 1 1.073 2.087" fill="#b3d2ff" fill-rule="evenodd" transform="translate(-6.021 -41.645)"/><path d="m80.76 27.389-1.06.361a1.186 1.186 0 1 1 -.762-2.246 1.2 1.2 0 0 1 .762 0l1.057.361a.805.805 0 0 1 0 1.524m-2.23 9.038a.663.663 0 0 1 -.845.275l-2.76-1.242a.964.964 0 0 1 -.49-1.272l.05-.1a.964.964 0 0 1 1.325-.354l.083.053 2.455 1.769a.663.663 0 0 1 .186.868m-4.131-17.702a.971.971 0 0 1 .527-.586l2.76-1.239a.663.663 0 0 1 .663 1.14l-2.455 1.772a.974.974 0 0 1 -1.358-.229l-.046-.073a.974.974 0 0 1 -.089-.785m-.112-10.449c-.606-.391-1.229-.752-1.875-1.083a28.72 28.72 0 0 0 -4.075 5.854 2.071 2.071 0 0 1 .994.689 2.16 2.16 0 0 1 .275.451c.9-1.229 2.478-1.507 3.863-2.826a.812.812 0 0 1 1.05-.1.663.663 0 0 1 .182.179.8.8 0 0 1 .1.828l-.04.093a26.229 26.229 0 0 1 -3.035 4.842 1.454 1.454 0 0 1 -1.08.689 6.54 6.54 0 0 1 .891 2.458 2.754 2.754 0 0 1 1.729 2.491 3.75 3.75 0 0 1 .023.431 3.151 3.151 0 0 1 -1.292 2.719.884.884 0 0 1 -.142.083v.209l.663 19.633a21.773 21.773 0 0 0 11.741-19.329 21.763 21.763 0 0 0 -9.972-18.311" fill="url(#c)" transform="translate(-45.699 -4.808)"/><path d="m42.462 32.856a1.3 1.3 0 0 1 -.073 1.382 4.878 4.878 0 0 1 -3.949 2.425h-.358a6.178 6.178 0 0 1 -3.926-2.22 1.325 1.325 0 0 1 -.123-1.5 3.976 3.976 0 0 0 .567-2.043 4.118 4.118 0 0 0 -.484-1.938 1.3 1.3 0 0 1 .073-1.368 1.55 1.55 0 0 0 .248.262 1.935 1.935 0 0 0 2.349.033 1.554 1.554 0 0 0 1.69 1.362 1.656 1.656 0 0 0 .255 0 1.494 1.494 0 0 0 1.438-1.351 1.935 1.935 0 0 0 2.382-.05l.093-.083a1.325 1.325 0 0 1 -.123 1.11 3.942 3.942 0 0 0 -.557 2.031 4.108 4.108 0 0 0 .5 1.955m5.562-13.924a.663.663 0 0 0 -.182-.179.812.812 0 0 0 -1.037.1c-1.385 1.325-2.982 1.6-3.863 2.826a2.16 2.16 0 0 0 -.275-.451 2.071 2.071 0 0 0 -.994-.689 1.888 1.888 0 0 0 -1.378.066 2.051 2.051 0 0 0 -3.933 0 2.008 2.008 0 0 0 -2.372.623 1.845 1.845 0 0 0 -.275.451c-.957-1.309-2.69-1.716-4.131-3.081a.576.576 0 0 0 -.818-.043.49.49 0 0 0 -.08.086 1.166 1.166 0 0 0 -.126 1.176 25.338 25.338 0 0 0 3.048 4.88 1.444 1.444 0 0 0 1.077.689 6.626 6.626 0 0 0 -.908 2.458 2.9 2.9 0 0 0 -1.753 2.922 3.079 3.079 0 0 0 1.438 2.8l-.474 14.034-.278 8.253h5.122a21.667 21.667 0 0 0 9.912-2.382l.116-.063-.662-19.628v-.209a.884.884 0 0 0 .142-.083 3.151 3.151 0 0 0 1.3-2.717 3.755 3.755 0 0 0 -.023-.431 2.754 2.754 0 0 0 -1.729-2.491 6.49 6.49 0 0 0 -.908-2.458 1.454 1.454 0 0 0 1.08-.689 26.342 26.342 0 0 0 3.031-4.847l.04-.093a.8.8 0 0 0 -.1-.828" fill="url(#d)" transform="translate(-19.029 -12.316)"/><path d="m10.714 0a10.721 10.721 0 0 1 -10.714 10.718v-6.792a3.929 3.929 0 0 1 3.926-3.926z" fill="url(#e)"/><path d="m51.224 49.741-1.1 1.014a.692.692 0 0 0 -.2.331c-.073.292-.215.865-.331 1.408a.331.331 0 0 1 -.331.252.331.331 0 0 1 -.331-.252l-.351-1.408a.663.663 0 0 0 -.2-.331l-1.1-1.014a.338.338 0 0 1 .282-.57l1.656.225h.089l.129-.017 1.527-.209a.328.328 0 0 1 .255.57m1.656-.371a3.952 3.952 0 0 1 .576-2.018 1.325 1.325 0 0 0 .106-1.1l-.076.07a1.935 1.935 0 0 1 -2.365.02 1.483 1.483 0 0 1 -1.438 1.338 1.656 1.656 0 0 1 -.255 0 1.554 1.554 0 0 1 -1.69-1.362 1.935 1.935 0 0 1 -2.365-.02 1.551 1.551 0 0 1 -.248-.262 1.3 1.3 0 0 0 -.073 1.368 4.1 4.1 0 0 1 .484 1.961 3.952 3.952 0 0 1 -.55 2.024 1.325 1.325 0 0 0 .123 1.5 6.2 6.2 0 0 0 3.926 2.22h.358a4.878 4.878 0 0 0 3.949-2.425 1.3 1.3 0 0 0 .056-1.362 4.108 4.108 0 0 1 -.5-1.955" fill="#b3d2ff" fill-rule="evenodd" transform="translate(-29.962 -30.787)"/><path d="m56.028 56.055-1.1 1.014a.692.692 0 0 0 -.2.331c-.073.292-.215.865-.331 1.408a.331.331 0 0 1 -.331.252.331.331 0 0 1 -.331-.252l-.351-1.408a.663.663 0 0 0 -.2-.331l-1.1-1.014a.338.338 0 0 1 .282-.57l1.656.225h.089l.129-.017 1.527-.209a.328.328 0 0 1 .255.57" fill="#003580" fill-rule="evenodd" transform="translate(-34.765 -37.101)"/></g></svg>