<svg width="28" height="28" viewBox="0 0 28 28" fill="none" xmlns="http://www.w3.org/2000/svg">
<path fill-rule="evenodd" clip-rule="evenodd" d="M11.6608 4.66699H16.3391C20.7499 4.66699 22.9552 4.66699 24.3255 6.03383C25.2689 6.97493 25.5628 8.31095 25.6543 10.488C25.6725 10.9198 25.6815 11.1357 25.6009 11.2797C25.5203 11.4237 25.1984 11.6034 24.5547 11.9629C23.8398 12.3622 23.3566 13.1249 23.3566 14.0003C23.3566 14.8757 23.8398 15.6385 24.5547 16.0377C25.1984 16.3972 25.5203 16.5769 25.6009 16.721C25.6815 16.865 25.6725 17.0809 25.6543 17.5126C25.5628 19.6897 25.2689 21.0257 24.3255 21.9668C22.9552 23.3337 20.7499 23.3337 16.3391 23.3337H11.6608C7.2501 23.3337 5.04473 23.3337 3.67449 21.9668C2.73104 21.0257 2.43718 19.6897 2.34565 17.5126C2.3275 17.0809 2.31843 16.865 2.39905 16.721C2.47967 16.5769 2.80153 16.3972 3.44524 16.0377C4.16014 15.6385 4.64339 14.8757 4.64339 14.0003C4.64339 13.1249 4.16014 12.3622 3.44524 11.9629C2.80153 11.6034 2.47967 11.4237 2.39905 11.2797C2.31843 11.1357 2.3275 10.9198 2.34565 10.488C2.43718 8.31095 2.73104 6.97493 3.67449 6.03383C5.04473 4.66699 7.2501 4.66699 11.6608 4.66699ZM18.1391 9.88161C18.4817 10.2233 18.4817 10.7773 18.1391 11.119L11.1217 18.119C10.7791 18.4608 10.2237 18.4608 9.88117 18.119C9.5386 17.7773 9.5386 17.2233 9.88117 16.8816L16.8986 9.88161C17.2412 9.5399 17.7966 9.5399 18.1391 9.88161ZM16.9341 18.0837C17.58 18.0837 18.1037 17.5613 18.1037 16.917C18.1037 16.2727 17.58 15.7503 16.9341 15.7503C16.2881 15.7503 15.7645 16.2727 15.7645 16.917C15.7645 17.5613 16.2881 18.0837 16.9341 18.0837ZM11.0862 12.2503C11.7321 12.2503 12.2558 11.728 12.2558 11.0837C12.2558 10.4393 11.7321 9.91699 11.0862 9.91699C10.4403 9.91699 9.91664 10.4393 9.91664 11.0837C9.91664 11.728 10.4403 12.2503 11.0862 12.2503Z" fill="currentColor"/>
</svg>
