<svg xmlns="http://www.w3.org/2000/svg" width="22" height="26" fill="none"><path fill="#fff" d="M2.444 26.002a2.446 2.446 0 0 1-2.442-2.447V2.442A2.442 2.442 0 0 1 2.444 0h12.465c.643-.002 1.26.25 1.718.7l3.862 3.82a2.448 2.448 0 0 1 .728 1.738v17.294a2.448 2.448 0 0 1-2.445 2.447l-16.328.003ZM.884 2.443v21.113a1.56 1.56 0 0 0 1.56 1.56H18.77a1.561 1.561 0 0 0 1.56-1.56V6.262a1.544 1.544 0 0 0-.462-1.113L16.006 1.33a1.557 1.557 0 0 0-1.1-.448H2.443A1.559 1.559 0 0 0 .883 2.443ZM15.253 22l-1.623-4.185h1.055l1.3 3.337 1.214-3.337h1.054L16.71 22h-1.455Zm-6.968 0v-.867h2.418a1.43 1.43 0 0 0 .742-.178.888.888 0 0 0 .384-.641H8.286V19.9a2.268 2.268 0 0 1 .472-1.522 1.777 1.777 0 0 1 1.44-.549h2.664v.867h-2.418c-.256-.01-.51.047-.737.164a.835.835 0 0 0-.39.612h3.545v.458a2.27 2.27 0 0 1-.475 1.522 1.787 1.787 0 0 1-1.437.549L8.286 22Zm-3.301 0a1.701 1.701 0 0 1-.746-.144 1.18 1.18 0 0 1-.5-.409 1.776 1.776 0 0 1-.27-.66 3.8 3.8 0 0 1-.092-.886 2.7 2.7 0 0 1 .371-1.522 1.305 1.305 0 0 1 1.16-.549h2.6v.833h-2.21a1.3 1.3 0 0 0-.444.063.77.77 0 0 0-.28.173.568.568 0 0 0-.144.265c-.03.108-.044.22-.043.332v.862c0 .53.304.795.91.795h2.211V22H4.985Zm4.85-7.907-3.52-3.516A1.082 1.082 0 0 1 7.846 9.05l1.67 1.666V4.672a1.085 1.085 0 0 1 1.85-.765c.203.203.317.478.318.765v6.044l1.672-1.666a1.083 1.083 0 0 1 1.531 0 1.086 1.086 0 0 1 0 1.527l-3.521 3.516a1.099 1.099 0 0 1-.766.318 1.1 1.1 0 0 1-.764-.318h-.002Z"/></svg>