<svg width="40" height="40" viewBox="0 0 40 40" fill="none" xmlns="http://www.w3.org/2000/svg">
<g clip-path="url(#clip0_1207_24410)">
<path d="M20 40C31.0457 40 40 31.0457 40 20C40 8.9543 31.0457 0 20 0C8.9543 0 0 8.9543 0 20C0 31.0457 8.9543 40 20 40Z" fill="#988430"/>
<path d="M20 39.3593C30.6919 39.3593 39.3593 30.6919 39.3593 20C39.3593 9.3081 30.6919 0.640625 20 0.640625C9.3081 0.640625 0.640625 9.3081 0.640625 20C0.640625 30.6919 9.3081 39.3593 20 39.3593Z" fill="#7A6A2A"/>
<path d="M20 38.9515C30.4667 38.9515 38.9515 30.4667 38.9515 20C38.9515 9.53344 30.4667 1.04858 20 1.04858C9.53344 1.04858 1.04858 9.53344 1.04858 20C1.04858 30.4667 9.53344 38.9515 20 38.9515Z" fill="#BA9F33"/>
<path fill-rule="evenodd" clip-rule="evenodd" d="M8.74439 17.8642C8.63111 17.7607 8.51143 17.657 8.40135 17.5535C8.29127 17.4501 8.1782 17.3464 8.06492 17.2429L7.72828 16.9229C7.67324 16.8679 7.615 16.8195 7.55996 16.7642C7.50492 16.7158 7.44028 16.6607 7.38524 16.6121C6.93852 16.1882 6.48924 15.7643 6.04871 15.3402C6.50503 15.7577 6.95175 16.1722 7.40807 16.5959L7.56658 16.7546C7.62162 16.8094 7.67986 16.8581 7.7349 16.9131L8.07132 17.2237C8.1846 17.3272 8.29468 17.4309 8.40796 17.5437C8.52124 17.6566 8.63132 17.7605 8.7446 17.8637L8.74439 17.8642ZM2.81564 17.8002C2.81564 17.8002 4.44018 17.9683 5.23314 18.0815C5.96764 18.1852 8.26546 18.5379 8.26546 18.5379L2.81564 17.8002ZM2.81564 17.8002C3.27196 17.839 3.72828 17.8874 4.1846 17.9361C4.41756 17.9587 4.64092 17.9845 4.86428 18.0071L5.20711 18.0461C5.32039 18.0621 5.43047 18.0783 5.54375 18.0946L6.90311 18.3113L7.58258 18.4246C7.80594 18.4634 8.0293 18.5057 8.26226 18.5445C8.0389 18.5219 7.80594 18.4894 7.58258 18.457L6.90311 18.3599L5.54375 18.1594C5.43047 18.1432 5.32039 18.1204 5.20711 18.1044L4.86407 18.0649C4.64071 18.0423 4.40775 18.0099 4.18439 17.9838C3.72807 17.929 3.27175 17.8706 2.81543 17.7995L2.81564 17.8002ZM8.10375 18.9611C8.10375 18.9611 6.36914 19.4014 5.78332 19.5698C5.20732 19.7283 3.4629 20.259 3.4629 20.259L8.10354 18.9613L8.10375 18.9611Z" fill="#CFB66C"/>
<path fill-rule="evenodd" clip-rule="evenodd" d="M8.10346 18.9611C7.71839 19.0743 7.33546 19.1844 6.94484 19.2881L5.78623 19.5987C5.40116 19.712 5.01823 19.8221 4.63423 19.9354L4.05823 20.0939C3.8673 20.1489 3.67316 20.1973 3.47583 20.2526C3.66655 20.1886 3.8609 20.1231 4.05183 20.068L4.62783 19.8837C5.0129 19.7638 5.39583 19.6506 5.77983 19.5309C6.1713 19.4338 6.55658 19.3301 6.94804 19.2363C7.3201 19.1424 7.71178 19.0487 8.10346 18.9613V18.9611ZM3.70559 21.3269C3.89631 21.2557 6.09706 20.23 6.60842 19.9904C6.86442 19.8705 7.60852 19.6064 7.60852 19.6064L3.70559 21.3269Z" fill="#CFB66C"/>
<path fill-rule="evenodd" clip-rule="evenodd" d="M3.70554 21.3269C3.87364 21.2629 4.03236 21.1846 4.19407 21.1102L4.673 20.8868L5.63428 20.4241C5.95428 20.272 6.26532 20.1041 6.59535 19.9612C6.76367 19.8901 6.93199 19.8319 7.1001 19.7769L7.3561 19.696C7.44335 19.6734 7.52442 19.6474 7.6121 19.6248C7.2921 19.7769 6.95524 19.9064 6.63482 20.0551C6.31482 20.2138 5.98756 20.3433 5.65732 20.4856L4.68004 20.9158C4.35194 21.0488 4.03194 21.191 3.70532 21.3269H3.70554ZM3.91887 22.2229C3.91887 22.2229 5.91226 21.0547 6.59834 20.6793C6.95759 20.4787 8.1194 19.9025 8.1194 19.9025L3.91887 22.2229Z" fill="#CFB66C"/>
<path fill-rule="evenodd" clip-rule="evenodd" d="M3.91919 22.2233C4.25562 22.0162 4.59866 21.8058 4.9417 21.5923L5.4537 21.2814C5.62842 21.178 5.79674 21.0809 5.97487 20.9774C6.14959 20.8738 6.31791 20.7703 6.49583 20.6732C6.58053 20.6209 6.66927 20.5755 6.76122 20.5373L7.033 20.4014C7.39226 20.2267 7.75151 20.0486 8.13018 19.8965C7.78714 20.1134 7.43428 20.298 7.08164 20.4887C6.90692 20.5858 6.72879 20.6732 6.55407 20.7703C6.37935 20.8674 6.21103 20.971 6.0329 21.0649C5.85818 21.1684 5.68986 21.2654 5.51194 21.3593L4.98436 21.6473L3.91962 22.2233H3.91919ZM8.10351 20.1585C8.10351 20.1585 6.86404 21.1099 6.46276 21.4141C6.06148 21.7184 4.88026 22.5728 4.88026 22.5728L8.10351 20.1585Z" fill="#CFB66C"/>
<path fill-rule="evenodd" clip-rule="evenodd" d="M15.2168 27.8317L14.5825 26.631L14.9514 25.1294L17.5824 24.1133L16.4626 21.8157L17.016 19.4952L18.0549 17.4174L21.2654 16.9126L23.6244 14.6635L28.7184 15.0485L29.7183 20.4951L27.7928 27.3527L26.6958 30.903L22.2491 31.0713L20.1844 29.6409L17.7669 28.631L15.2168 27.8317Z" fill="#E2CC85"/>
<path fill-rule="evenodd" clip-rule="evenodd" d="M23.0163 27.7928C23.0163 27.7928 22.4012 28.0744 21.3523 28.0096C21.0487 27.6019 18.9226 27.4109 18.9226 27.4109C18.9226 27.4109 18.6572 27.3301 18.1879 27.5242C17.7156 27.7162 17.2688 27.6925 16.8514 27.796C16.4339 27.8995 16.0194 27.3559 15.6994 27.2426C15.3794 27.1229 14.955 26.8349 14.955 26.8349L14.059 26.7475L12.2598 25.9869L9.40133 23.1392L8.62458 24.3552L8.38501 25.86L9.24922 27.6433L11.5761 29.7629L16.1132 30.9149L18.8025 30.1226L22.1715 28.6986L23.0163 27.7926V27.7928Z" fill="#F1D789"/>
<path fill-rule="evenodd" clip-rule="evenodd" d="M6.89645 17.7282L7.47245 15.984L8.15874 14.8576L10.3689 14.6731L9.70541 16.6085L7.85773 19.8966L8.62466 22.8318L7.26552 23.5113L6.84781 22.8706L6.51138 21.4014L6.48877 19.7509L6.89645 17.7282Z" fill="#F4ECB4"/>
<path fill-rule="evenodd" clip-rule="evenodd" d="M9.37537 27.6732L8.95148 27.0809C8.95148 27.0809 8.8382 26.7993 8.90305 26.5534C8.96705 26.3042 8.95788 26.288 8.92567 26.1941C8.89346 26.1002 8.62146 25.7766 8.63767 25.4982C8.65367 25.2166 8.61505 25.1228 8.82199 24.8996C9.03873 24.6829 8.9741 24.3074 8.9741 24.3074L9.25569 24.4821L9.31969 24.3851C9.31969 24.3851 9.42316 24.4659 9.42316 24.5922C9.44577 24.4175 9.35191 23.6083 9.56546 23.424C9.779 23.2397 10.1577 24.288 10.1577 24.288L9.92471 22.7669L9.32588 21.2072L8.26113 19.7832L8.19713 18.2135V18.0776C8.19713 18.0776 7.70839 18.8286 7.57249 19.4216C7.47543 19.8293 7.70839 20.3245 7.65996 20.9103C7.62092 21.4929 7.5725 21.4474 7.71479 21.6783C7.85708 21.9091 8.20354 22.3838 8.06764 22.7268C7.94796 23.0214 7.54007 22.8143 7.54007 22.8143C7.54007 22.8143 7.45921 23.0536 7.34913 23.1411C7.31031 22.9988 7.26828 22.9081 7.19063 22.8211C7.18401 22.8761 7.16801 22.9506 7.16801 22.9506C7.16801 22.9506 7.09676 22.7272 7.02551 22.4456C6.92866 22.0704 6.82497 21.5752 6.73111 21.3099C6.69228 21.462 6.59521 21.9247 6.59521 21.9247L6.65026 22.6368L6.91564 23.6141L7.17164 24.2541L7.42082 25.0372L7.63735 25.5633L7.81207 25.9646L7.96418 26.8676L8.69868 27.6441L9.09036 27.8191L9.37495 27.6734L9.37537 27.6732Z" fill="#F3E19D"/>
<path fill-rule="evenodd" clip-rule="evenodd" d="M7.28143 16.3042C7.28143 16.3042 6.75386 17.2002 6.60197 18.1035C6.45007 19.0067 6.31397 19.9612 6.40997 21.1908C6.50703 22.4305 6.69157 23.1908 6.84047 23.7346C7.09647 24.6377 7.75952 25.8933 7.75952 25.8933L7.78213 25.8447C7.67068 25.6335 7.58173 25.4111 7.51674 25.1812C7.42927 24.8382 7.39685 24.4305 7.31599 24.246C7.24474 24.0617 7.12506 23.9029 7.06682 23.6764C7.01178 23.4596 7.00282 23.1166 6.83386 22.861C6.76261 22.7573 6.67514 22.4856 6.64933 22.2138C6.6169 21.8059 6.66554 21.3496 6.62671 20.9743C6.55546 20.3497 6.50703 19.9258 6.57167 19.5987C6.63631 19.2717 6.97317 18.3433 7.18031 17.6053C7.31621 17.1328 7.23514 16.7347 7.48431 16.3236C7.73349 15.916 7.88581 15.5567 7.94063 15.3075C8.00463 15.081 7.28058 16.3042 7.28058 16.3042H7.28143Z" fill="#F2E8B0"/>
<path fill-rule="evenodd" clip-rule="evenodd" d="M9.78335 15.9449C9.78335 15.9449 9.51157 16.026 9.38207 16.1683C9.25258 16.3042 9.19754 16.4175 9.02282 16.6472C8.8481 16.877 8.83829 17.0647 8.69578 17.3527C8.55349 17.6343 8.23946 18.0582 8.20063 18.2103C8.16181 18.3624 8.09717 19.0743 8.01631 19.411C7.94506 19.7476 8.09717 20.1619 8.09717 20.1619L8.28149 20.1229C8.28149 20.1229 8.28149 20.3624 8.46602 20.5244C8.65034 20.6829 8.68277 19.987 8.68277 19.987L9.37205 17.6601L10.4108 16.9547L10.524 16.3851L9.78293 15.9449H9.78335Z" fill="#F5EEC0"/>
<path fill-rule="evenodd" clip-rule="evenodd" d="M10.2881 17.0001C10.2881 17.0001 9.79934 17.0324 9.55998 17.2073C9.46291 17.2783 9.42408 17.3366 9.32062 17.424C9.12968 17.5825 8.93534 17.7282 8.84168 17.936C8.738 18.143 8.62472 18.457 8.54707 19.0492C8.51464 19.2984 8.51464 19.5281 8.49203 19.7289C8.4596 20.0007 8.41118 20.2174 8.43699 20.3689C8.46942 20.6795 8.78984 20.8414 8.82099 21.1941L9.48446 20.8576L10.1091 18.3947L11.436 17.5627L10.6851 16.7213L10.2872 16.9986L10.2881 17.0001Z" fill="#E6DB9D"/>
<path fill-rule="evenodd" clip-rule="evenodd" d="M6.78781 33.5849C6.79058 33.5605 6.79336 33.5362 6.79613 33.5113C6.89298 32.6793 6.90941 32.0486 6.98045 31.6538C7.08392 31.094 7.15517 30.8858 7.13896 30.6763C7.11634 30.3398 7.09053 30.0939 7.12296 29.8349C7.17138 29.4918 7.50802 29.0842 7.49842 28.8026C7.49181 28.5792 7.37853 28.4337 7.28146 28.2978C7.1844 28.1619 7.10674 28.0486 7.10674 28.0486C7.10674 28.0486 7.77021 27.5923 7.76381 25.754C7.77736 25.7578 7.7904 25.7633 7.80264 25.7702L8.12946 26.6989L8.35282 26.9707L9.21042 28.5694L10.314 29.6407L11.9449 30.7377L12.9677 31.8507L13.0711 34.8183L11.7346 36.553L11.5157 36.9493C9.77676 36.0763 8.18215 34.9416 6.7876 33.5846L6.78781 33.5849Z" fill="#E5CB7A"/>
<path fill-rule="evenodd" clip-rule="evenodd" d="M10.8706 36.4239C10.8706 36.4239 10.8932 36.055 11.1974 35.8155C11.2461 35.8963 11.2783 35.9742 11.2687 36.0322C11.3237 35.9354 11.7088 35.3139 12.5794 35.152C13.45 34.9935 13.6604 34.3593 13.6604 34.3593L15.508 32.6797L17.6213 30.7347L20.1909 29.8317L21.3918 29.5371C21.3918 29.5371 21.4144 29.6245 21.3692 29.8187C21.5923 29.8027 22.0875 29.6894 22.602 29.5081C22.8092 29.4272 23.0035 29.3948 23.107 29.5017C23.2591 29.644 23.2817 29.9806 23.2913 30.1811C23.5405 30.1261 23.8285 29.8867 24.0593 29.9093C24.4284 29.9482 24.7552 30.3819 25.1307 30.3819C25.6258 30.3819 25.849 30.0777 26.1954 29.8381C26.4026 29.6958 26.7002 29.5181 26.8685 29.398C27.2698 29.1034 31.5157 27.8057 31.5157 27.8057L33.0044 27.9027L33.2439 29.5015L33.1159 33.6807C33.1002 33.6958 33.0844 33.7116 33.0684 33.7267L26.2997 37.2619L16.9173 38.7002C14.8156 38.3568 12.7875 37.6592 10.9192 36.637L10.8712 36.4237L10.8706 36.4239Z" fill="#D8C173"/>
<path fill-rule="evenodd" clip-rule="evenodd" d="M7.35669 34.1165C7.49002 33.8377 7.60992 33.6045 7.63104 33.5211C7.64768 33.6892 7.67818 34.0581 7.73962 34.4502C7.61063 34.3405 7.48298 34.2292 7.35669 34.1163V34.1165Z" fill="#F1D789"/>
<path fill-rule="evenodd" clip-rule="evenodd" d="M14.2105 38.0495L15.4239 37.712L15.5274 37.7445C15.5274 37.7445 15.5824 37.7769 15.5824 37.8868C15.7345 37.7995 15.864 37.8155 15.9579 37.7575C16.0063 37.8609 16.0547 38.204 16.2685 38.246C16.4917 38.2946 16.7312 38.1489 16.974 37.9646C17.2134 37.7737 17.486 37.5341 17.6923 37.437C17.768 37.5762 17.835 37.7199 17.893 37.8673C18.1648 37.6506 18.6374 36.7704 19.3104 36.7864C19.505 36.3267 19.83 35.934 20.2453 35.657C20.8699 35.2331 21.2614 35.2007 21.7501 35.2395C21.9442 34.9873 22.1834 34.7734 22.4556 34.6085C22.5365 34.6409 22.7598 34.7768 23.0382 34.6473C23.3198 34.518 23.6368 34.0162 24.0543 33.9516C24.2793 33.9206 24.508 33.9687 24.7016 34.0875C24.7016 34.0875 25.9176 32.8802 26.7566 32.479C26.7242 32.3819 26.6595 32.0162 27.6432 31.2071C27.6983 31.2557 27.6594 31.3916 27.6983 31.3991C27.7143 31.3991 27.9543 31.2956 28.2581 31.0624C28.6335 30.781 29.0832 30.4864 29.355 30.4056C29.867 30.2535 30.4102 30.5641 30.4102 30.5641C30.4563 30.5317 30.5078 30.5076 30.5623 30.4928C30.6915 30.4702 30.7854 30.454 30.8567 30.4288C30.8503 30.5972 30.9441 30.8852 30.8567 31.1343C30.958 31.1913 31.0653 31.2369 31.1767 31.2702C31.1218 31.3899 31.0019 31.6941 30.8014 31.8398C30.9695 31.9207 30.9921 32.0145 31.2317 32.0958C31.1346 32.2317 30.9757 32.4649 30.9049 32.6078C30.8336 32.7599 30.5778 33.391 30.4646 33.6303C30.3449 33.8699 30.1832 34.31 30.1053 34.3983C30.0274 34.4866 29.746 34.861 29.5293 35.0454C29.7213 34.9741 30.5068 34.7348 30.84 34.6441C30.7408 34.7896 30.238 35.5356 29.7546 36.253C27.44 37.6403 24.8564 38.5184 22.1758 38.8287C19.4952 39.139 16.7793 38.8745 14.209 38.0527L14.2105 38.0495Z" fill="#E0CD81"/>
<path fill-rule="evenodd" clip-rule="evenodd" d="M10.3681 16.9126C10.3681 16.9126 10.0867 16.9126 10.0317 16.9515C9.97663 16.9903 10.3133 17.0713 10.4167 17.1102C10.5202 17.149 10.7436 17.3269 10.8018 17.4694C10.8568 17.6053 12.8244 18.3981 12.8244 18.3981L14.216 18.3268L14.6958 17.664L13.7831 16.8646L14.4231 14.9779L13.5754 15.1138L11.5365 16.3298L10.5138 16.7215L10.3681 16.9126Z" fill="#DFC57C"/>
<path fill-rule="evenodd" clip-rule="evenodd" d="M13.4239 17.5373C13.4441 17.5698 13.4724 17.5965 13.5061 17.6147C13.5398 17.6329 13.5777 17.6418 13.6159 17.6407C13.9039 17.6407 14.1691 17.712 14.2792 17.8575C14.4637 18.0906 14.9751 18.835 14.9751 18.835L16.1983 19.2751L16.2773 17.8346L14.9407 16.906L13.4197 17.4658V17.537H13.4231L13.4239 17.5373Z" fill="#E5CC7C"/>
<path fill-rule="evenodd" clip-rule="evenodd" d="M13.1839 18.0712C13.1839 18.0712 13.4071 18.0874 13.6887 17.9837C13.9703 17.8801 14.433 17.6569 14.6338 17.7444C14.9151 17.8641 14.8569 18.2395 15.1613 18.5764C15.3456 18.7835 15.6823 18.7771 15.8732 19.0005C16.0642 19.2238 16.721 19.1202 16.721 19.1202L16.9702 20.4642L15.9703 21.7459L15.6432 23.338H14.2911L13.0559 22.848L12.4475 21.376L12.7517 19.8873L13.1839 18.0712Z" fill="#D2C281"/>
<path fill-rule="evenodd" clip-rule="evenodd" d="M15.7996 18.1359C15.8331 18.1462 15.868 18.1517 15.903 18.1521C15.8642 18.1846 15.7831 18.2556 15.8156 18.4401C15.848 18.6247 15.9515 18.8576 15.8642 18.9999C15.9339 19.0761 15.9858 19.1667 16.0163 19.2653C16.0714 19.424 16.0876 19.5695 16.4466 19.5923C16.3948 19.6242 16.347 19.6623 16.3043 19.7056C16.3043 19.7056 16.5535 19.9224 16.6798 20.1229C16.8091 20.1174 17.1521 20.0107 17.1521 20.0107L17.2234 20.0593L17.3755 19.9953C17.3755 19.9953 17.2332 19.9403 17.3366 19.594C17.4337 19.2898 17.5212 19.306 17.5286 19.2834C17.5361 19.2608 17.5999 18.9404 17.5999 18.8109C17.6483 18.6428 17.6871 18.1314 17.6871 18.1314L17.5837 17.002L17.0013 16.6492L16.5277 16.192L16.081 17.0334L15.7868 17.3267L15.7642 18.0548L15.7996 18.1359Z" fill="#E2C270"/>
<path fill-rule="evenodd" clip-rule="evenodd" d="M17.2007 17.191C17.2007 17.191 17.3042 17.4854 17.3432 17.712C17.3569 17.6679 17.3646 17.6222 17.3658 17.5761C17.3658 17.5761 17.4467 18.0228 17.4627 18.2073C17.4951 18.2007 17.5267 18.1911 17.5339 18.2233C17.5412 18.2556 17.615 18.615 17.5979 18.8156C17.7327 18.5932 17.9192 18.4067 18.1415 18.272C18.271 18.1909 18.4231 18.1037 18.5818 18.097C18.831 18.0906 19.0121 18.2558 19.3099 18.2558C20.0282 18.2558 20.6789 17.7282 21.1578 17.5665C21.5104 17.4466 21.8147 17.3593 22.0282 17.165C22.1319 17.0777 22.3164 16.8836 22.4845 16.5954C22.7079 16.2114 22.9408 15.8771 23.174 15.8351C23.0685 15.8545 22.9612 15.862 22.854 15.8577C22.854 15.8577 22.9253 15.7864 23.046 15.6894C23.1668 15.5923 23.3114 15.4726 23.5183 15.4726C23.8874 15.4726 24.0717 15.5274 24.2789 15.5274C24.486 15.521 24.6057 15.4726 24.6057 15.4726C24.6057 15.4726 24.8227 15.6247 25.3112 15.6247C25.7999 15.6311 26.1268 15.6732 26.3826 15.696C26.6383 15.7188 27.4957 15.6247 27.7417 15.632C27.9021 15.6382 28.0595 15.6767 28.2046 15.7453L27.4117 13.4413L24.5632 10.9517L22.8675 12.1523L20.2588 14.7607L17.7347 15.696L17.2071 16.2882V17.191H17.2007Z" fill="#CCB360"/>
<path fill-rule="evenodd" clip-rule="evenodd" d="M22.8642 15.8705C22.8642 15.8705 22.9354 15.7994 23.0549 15.7024C23.1744 15.6053 23.3205 15.4854 23.5274 15.4854C23.8963 15.4854 24.0808 15.5404 24.288 15.5404C24.4951 15.534 24.6148 15.4854 24.6148 15.4854C24.6148 15.4854 24.832 15.6373 25.3203 15.6373C25.809 15.6437 26.1359 15.6857 26.3916 15.7083C26.6474 15.731 27.5048 15.6373 27.7508 15.6443C27.9111 15.6504 28.0685 15.6889 28.2135 15.7576L27.8543 14.7187L27.437 13.9259L26.2459 12.6216C26.2459 12.6216 24.8166 11.7802 24.8057 11.7738C24.7993 11.7674 24.3106 11.6379 24.3106 11.6379L23.0161 12.4211L21.8415 15.46L21.8188 16.1L22.5792 16.4593C22.7701 16.1393 22.9807 15.8833 23.178 15.8508C22.9999 15.8703 22.864 15.8703 22.864 15.8703L22.8642 15.8705Z" fill="#D5B457"/>
<path fill-rule="evenodd" clip-rule="evenodd" d="M22.848 16.0875C22.7347 16.0939 22.6411 16.0713 22.6151 15.9904C22.518 15.7186 22.4403 15.6798 22.3591 15.6798C22.2778 15.6798 22.1681 15.8545 22.1031 15.8705C22.038 15.8865 21.9608 15.67 21.9608 15.67L21.8895 15.6376C21.8895 15.6376 21.472 15.9094 21.1776 16.2298C20.8832 16.5502 20.4009 17.094 20.1841 17.1909C19.9674 17.2877 19.2229 17.3203 18.9681 17.3754C18.7134 17.4304 18.431 17.615 18.3921 17.657C18.3533 17.699 18.5056 17.7442 18.5282 17.7863C18.5509 17.8251 18.2789 17.8089 18.2562 17.8503C18.2402 17.8827 18.3202 18.067 18.3599 18.1609C18.4294 18.1264 18.5055 18.1076 18.5831 18.1058C18.8322 18.0994 19.0136 18.2646 19.3112 18.2646C20.0297 18.2646 20.6801 17.737 21.1591 17.5751C21.5119 17.4554 21.8161 17.3679 22.0297 17.1738C22.1331 17.0865 22.3177 16.8922 22.486 16.6042C22.6089 16.4069 22.7288 16.2223 22.8487 16.0864L22.848 16.0875Z" fill="#D2B257"/>
<path fill-rule="evenodd" clip-rule="evenodd" d="M12.5439 32.1037C12.5439 32.1037 12.4799 31.8641 11.8868 31.2461C11.7185 31.0714 11.615 30.9261 11.5018 30.8222C11.2202 30.5566 11.055 30.4856 10.8545 30.3335C10.4144 30.0066 9.93546 30.0066 9.5666 29.6054C9.19775 29.2041 8.76788 28.4374 8.46922 27.6538C8.17482 26.8706 8.09375 26.6215 8.09375 26.5989C8.09375 26.5762 8.17482 26.4241 8.27828 26.4467C8.38175 26.4694 8.38175 26.6699 8.40778 26.7185C8.45933 26.7979 8.51779 26.8726 8.5825 26.9417C8.7346 27.1166 8.95135 27.3257 9.06143 27.6376C9.03882 27.3722 8.94815 27.0778 8.94815 27.0778C8.94815 27.0778 9.51775 27.437 10.0031 27.8123C10.4918 28.1878 10.6924 28.3173 10.8351 28.5566C10.9778 28.796 11.314 29.4272 11.4751 29.6118C11.6362 29.7963 13.8431 30.492 13.8431 30.492L14.8929 31.2747L15.4141 32.4171L15.0062 33.0571L14.223 33.2254L12.9511 32.6558L12.5439 32.1035V32.1037Z" fill="#D2B159"/>
<path fill-rule="evenodd" clip-rule="evenodd" d="M9.71851 28.1684C9.71851 28.1684 9.98389 28.5923 10.6311 28.9935C11.2138 29.3464 12.136 29.6668 12.9582 29.8578C13.4305 29.971 13.903 30.0583 14.3269 30.0649C15.4693 30.0809 16.2557 29.7543 17.23 29.6474C17.7575 29.5924 18.4048 29.5503 19.0779 29.3914C19.9419 29.1843 20.4532 28.9511 21.1491 28.6234C21.6539 28.3905 22.1168 28.2157 22.4921 27.9924C23.0196 27.6818 23.4047 27.3355 23.8514 27.2321C23.7964 27.3842 23.7381 27.6559 23.298 27.9375C23.531 27.9309 23.8514 27.9149 23.8514 27.9149C23.8514 27.9149 23.5408 28.0993 22.9938 28.5135C22.6572 28.7695 22.2107 29.2028 21.7543 29.4908C21.4597 29.6754 21.1393 29.8108 20.929 29.9213C20.417 30.2029 20.2105 30.3452 19.874 30.6893C19.9937 30.6829 20.0035 30.6893 20.0035 30.6893C20.0035 30.6893 19.5794 30.7444 19.2754 30.9061C19.2114 30.9061 19.1005 30.8835 18.9063 30.9385C18.7542 30.9869 18.5535 31.0972 18.3466 31.1553C18.0519 31.2427 17.9551 31.2039 17.9551 31.2039L18.0035 31.301C18.0035 31.301 17.6195 31.2943 17.4915 31.3074C17.5141 31.3138 17.5077 31.3236 17.5077 31.3236C17.4852 31.3273 17.4636 31.335 17.4437 31.3462C17.3821 31.3861 17.3144 31.4156 17.2432 31.4334C17.2044 31.4398 17.1719 31.4398 17.1233 31.4497C17.1395 31.4885 17.2658 31.7057 17.3241 31.8337C17.2756 31.8661 16.5473 32.4163 16.5473 32.4163C16.5699 32.4518 16.5884 32.4898 16.6023 32.5295C16.625 32.6006 16.6348 32.7043 16.6574 32.7527C16.7122 32.8498 16.7446 32.866 16.7446 32.866C16.7446 32.866 16.6574 32.8822 16.5051 32.921C16.3758 32.9534 16.2171 33.0083 15.9931 33.0407C15.9243 33.0496 15.8552 33.055 15.7859 33.0569C15.8183 33.1282 15.9606 33.3999 15.6985 33.7138C15.4363 34.0276 15.3554 34.0732 15.2746 34.2738C15.2339 34.243 15.1905 34.2159 15.1451 34.1927C15.0578 34.1539 14.9379 34.0958 14.8959 34.018C14.8714 34.1217 14.8389 34.2234 14.7988 34.3222C14.718 34.5389 14.5983 34.7527 14.5757 34.9144C14.4882 34.8173 14.3265 34.6264 14.1031 34.6652C13.8798 34.7041 13.7019 35.0083 13.663 35.0957C13.663 35.0407 13.6242 34.9987 13.6146 35.0633C13.608 35.1346 13.4851 35.8787 12.799 36.4807C12.7926 36.3286 12.7926 35.9919 12.7764 35.8821C12.7124 35.9461 12.6341 36.0406 12.168 36.2413C11.7117 36.4419 11.784 36.6426 11.784 36.6426C11.784 36.6426 11.7452 36.3226 11.9911 35.9855C12.2403 35.6491 12.3924 35.4904 12.3924 35.4646C12.3884 35.4383 12.3772 35.4136 12.36 35.3933C12.3276 35.3609 12.2629 35.3221 12.2629 35.2963C12.3018 35.2803 12.6868 35.0957 12.6642 34.7137C12.6416 34.3708 12.4961 34.1927 12.3924 34.0666C12.3764 34.0504 12.5447 33.9307 12.5219 33.8919C12.5057 33.8693 12.2988 33.717 12.2727 33.6359C12.2789 33.5875 12.2897 33.5399 12.3052 33.4936C12.3278 33.4223 12.344 33.3737 12.3376 33.3253C12.3214 33.2444 12.2339 33.0211 12.2081 32.9985C12.2307 33.0049 12.3924 32.9985 12.3924 32.9985C12.3924 32.9985 12.2631 32.7913 12.2403 32.6942C12.2175 32.5972 12.1691 32.3414 12.1433 32.293C12.1983 32.2994 12.3342 32.309 12.3342 32.293C12.3408 32.2443 12.2145 32.1635 12.2702 32.101C12.309 32.1074 12.3835 32.1398 12.4545 32.2305C12.4157 32.1268 12.351 31.9262 12.2149 31.8454C12.2789 31.8228 12.4965 31.7643 12.6875 31.8776C12.8784 31.9909 12.9435 32.1494 12.9435 32.1494C12.9435 32.1494 13.0567 32.2369 13.2317 32.3663C13.4322 32.5249 13.6878 32.7503 14.0957 32.9099C14.1831 32.9586 14.4063 32.9586 14.5682 32.9261C14.6387 32.9093 14.7063 32.8821 14.7687 32.8453C14.7913 32.832 14.8152 32.8211 14.84 32.8129C14.8052 32.743 14.7652 32.6759 14.7203 32.6121C14.7754 32.6121 14.84 32.6187 14.84 32.6187C14.84 32.6187 14.8788 32.5313 14.7041 32.3627C14.7429 32.3239 14.7916 32.2987 14.7916 32.2332C14.7365 32.2268 14.6395 32.146 14.6169 32.1135C14.6491 32.0909 14.6977 32.0165 14.7527 31.9939C14.7041 31.955 14.5844 31.7931 14.5294 31.7771C14.582 31.7576 14.6328 31.7338 14.6815 31.7059C14.6815 31.7059 14.4097 31.6346 14.3222 31.5764C14.2348 31.5124 14.1055 31.4017 14.0278 31.3692C13.9468 31.3368 13.8045 31.3208 13.7462 31.2559C13.8011 31.2722 13.8885 31.2559 13.9534 31.2559C14.0018 31.2559 14.0246 31.2623 14.0406 31.2623C14.0342 31.2397 14.0342 31.1911 14.1605 31.1751C14.2213 31.1659 14.2802 31.1474 14.3353 31.1201C14.3353 31.1201 14.2154 31.1137 14.0793 30.9842C13.9431 30.8547 13.8301 30.7512 13.7524 30.735C13.6716 30.7188 13.5195 30.79 13.4256 30.7834C13.2961 30.7674 13.2411 30.7026 13.2411 30.7026C13.2411 30.7026 12.8108 30.7414 11.8561 30.159C11.0307 29.654 10.6715 29.2075 10.6715 29.2075C10.5942 29.1795 10.5196 29.1448 10.4483 29.1038C10.1377 28.9421 9.7072 28.6055 9.72021 28.1652L9.71851 28.1684Z" fill="#C2A44D"/>
<path fill-rule="evenodd" clip-rule="evenodd" d="M21.6245 8.74437C21.6994 8.76869 21.7659 8.81356 21.8165 8.87386C21.9686 9.04858 22.0657 9.37861 21.7194 9.73146C21.8553 9.77989 21.9114 9.79546 22.03 9.77989C21.9104 9.92239 21.6386 10.2266 21.6224 10.492C21.6061 10.7087 21.742 10.7736 21.742 10.7736C21.742 10.7736 21.5349 11.013 21.5253 11.4136C21.6231 11.3033 21.7302 11.2015 21.8453 11.1094C22.0849 10.9184 22.4149 10.7017 22.6382 10.5658C22.6352 10.6228 22.6429 10.6798 22.6609 10.7339C22.6609 10.7339 23.0781 10.3909 23.4289 10.5432C23.5874 10.6144 23.5161 10.8376 23.5161 10.8376C23.5161 10.8376 23.7331 10.7567 23.8852 10.9088C24.0373 11.061 24.2523 11.4533 24.3626 11.6054C24.411 11.6766 24.5373 11.8125 24.6666 12.0229C24.8432 12.3174 24.9907 12.6284 25.1069 12.9515C25.1133 12.7832 25.1554 12.5212 25.6345 12.6861C26.1134 12.8544 26.657 13.2073 27.1133 13.9021C27.5697 14.597 27.6827 15.3814 27.9125 15.68C28.1454 15.968 28.385 16.447 28.4012 16.6477C28.4174 16.8485 28.33 17.4955 28.8089 19.2463C28.9448 18.7028 29.152 17.4955 29.152 17.4955L29.2652 16.4308L29.3947 13.1363L25.9545 10.2782L23.2652 8.32666L21.5144 8.49498L21.6243 8.74415L21.6245 8.74437Z" fill="#CAA13E"/>
<path fill-rule="evenodd" clip-rule="evenodd" d="M28.0162 13.6471C28.0162 13.6471 27.9675 13.3271 27.1586 12.7831C26.3494 12.2459 25.7183 12.2459 25.1359 11.7896C24.6892 11.4304 24.2233 10.605 23.9199 10.3332C23.6253 10.0646 23.5769 9.28786 23.5769 9.28786L24.5704 8.45586L26.0479 6.32018L27.297 4.94482L27.8956 5.77682L28.7276 6.7541L29.1903 8.71528L29.3587 11.5859L28.0147 13.6473L28.0162 13.6471Z" fill="#B59544"/>
<path fill-rule="evenodd" clip-rule="evenodd" d="M29.0164 17.088C29.0409 16.6527 28.9871 16.2165 28.8577 15.8001C28.6443 15.1366 28.1782 13.9586 27.9617 13.5174C27.8742 13.0287 27.9391 12.9899 28.0329 12.9348C28.1268 12.8798 28.4796 12.6788 28.6729 11.9738C28.8662 11.2687 29.4659 11.2457 29.4659 11.2457L29.8347 10.9739L30.3947 12.3751L30.8833 13.6405L31.0354 14.6082L31.1487 15.4334L30.8833 17.1778L29.5728 18.3622L29.0162 17.088H29.0164Z" fill="#C89D3A"/>
<path fill-rule="evenodd" clip-rule="evenodd" d="M10.7283 36.531V36.4952C10.7555 36.4781 10.7795 36.4565 10.7993 36.4312C10.8219 36.3987 10.8384 36.3599 10.8544 36.3503C10.8868 36.3341 11.0389 36.2863 11.1197 36.3017C11.2006 36.317 11.4144 36.4051 11.5276 36.3987C11.7606 36.3923 12.0324 36.2142 12.4629 36.2953C13.1101 36.415 13.2622 36.8551 13.6377 37.1042C13.8937 37.2792 14.1587 37.2013 14.1975 37.2013H14.2848C14.301 37.2013 14.4206 37.0654 14.4855 37.072C14.615 37.0784 14.6278 37.1853 14.7086 37.1917C14.8996 37.2143 15.2686 37.0946 15.4532 37.1433C15.5079 37.1604 15.5577 37.1905 15.5982 37.2311C15.6388 37.2716 15.6689 37.3213 15.6861 37.376C15.725 37.4957 15.6925 37.6478 15.5987 37.7353C15.3981 37.9196 15.2072 38.0945 15.1684 38.2473C15.2178 38.2849 15.2652 38.3251 15.3105 38.3676C13.7092 37.9596 12.1686 37.3428 10.7283 36.5329V36.531Z" fill="#CEB052"/>
<path fill-rule="evenodd" clip-rule="evenodd" d="M27.9612 30.0649C27.9612 30.0649 28.4659 29.3918 28.6409 29.0583C28.8156 28.7147 28.0875 24.3627 28.0875 24.3627L29.5503 19.5699L29.5113 18.01C29.5113 18.01 29.5825 16.5698 29.7508 15.9452C29.9516 16.3044 30.5762 16.7381 30.7121 16.9679C30.7761 16.5276 30.9935 15.5989 30.9613 14.6086C31.081 14.793 31.369 16.6475 31.369 16.6475L31.657 17.8965L32.0324 19.2235L32.4499 20.6249L32.6991 21.5925L32.8414 21.8255L32.9613 22.2332L33.0746 22.6735L33.4014 23.7058L33.5934 24.5536L33.7455 26.0909C33.7786 26.2086 33.8024 26.3287 33.8168 26.4501C33.8232 26.6185 33.7941 26.7155 33.7941 26.7447C33.7941 26.774 33.8492 27.1136 33.8266 27.3694C33.7941 27.6254 33.7941 27.8257 33.5934 28.0094C33.3926 28.1931 33.2666 29.2909 33.2666 29.2909L32.9073 29.0515C32.9073 29.0515 32.9786 28.7245 32.8102 28.4269C32.6419 28.1293 32.3151 28.0676 32.1306 28.1163C31.9462 28.1551 31.5774 28.2131 31.4575 28.3168C31.3442 28.4203 31.066 28.7407 30.8102 28.8864C30.4902 29.0784 29.9689 29.0935 29.6907 29.1582C29.4091 29.2222 29.0985 29.4142 28.7714 29.6371C28.515 29.8031 28.2443 29.9459 27.9625 30.0638L27.9612 30.0649Z" fill="#CCA847"/>
<path fill-rule="evenodd" clip-rule="evenodd" d="M27.9612 37.136C27.9612 37.136 27.9825 37.1499 28.0237 37.1725C30.3229 36.0953 32.383 34.5683 34.0824 32.6818C34.0638 32.0269 34.0397 31.3555 34.0132 31.1068C33.9584 30.5792 33.9972 30.042 33.981 29.7314C33.9648 29.4208 33.7901 28.1553 33.7092 27.8285C33.6218 27.5016 33.4532 27.3397 33.4276 27.3397C33.405 27.3463 33.2689 27.9548 33.2689 28.1077C33.2689 28.2607 33.2365 28.6289 33.2365 28.7228C33.2139 28.7161 33.2043 28.6588 33.2043 28.6353C33.1718 28.7161 33.133 28.8587 33.1168 28.8749C33.1006 28.8911 33.1394 28.739 33.1168 28.7065C33.0942 28.6741 33.0528 28.6903 33.0618 28.6095C33.0656 28.5615 33.0732 28.514 33.0844 28.4672C33.0844 28.4672 32.9873 28.6095 32.9163 28.9719C32.845 29.3312 32.845 29.341 32.8192 29.3732C32.7966 29.4123 32.6671 29.5415 32.6605 29.5902C32.6541 29.6774 32.7804 29.7649 32.79 29.8133C32.7964 29.8944 32.6767 30.2696 32.6379 30.4533C32.599 30.637 32.6153 30.9969 32.5739 31.1814C32.5414 31.3497 32.5099 31.4468 32.3992 31.5179C32.48 31.5341 32.5577 31.5567 32.5577 31.5567C32.5577 31.5567 32.6709 32.0356 32.3829 32.4435C32.2795 32.5858 32.2537 32.6507 32.1436 32.7801C31.9266 33.0195 31.7583 33.2921 31.7421 33.4694C31.7309 33.4171 31.7233 33.3641 31.7195 33.3107C31.7195 33.3107 31.383 33.7024 31.2405 33.9257C31.0562 34.2137 30.8004 34.1975 30.7285 34.2688C30.6566 34.34 30.6411 34.4693 30.6645 34.573C30.6005 34.589 30.4802 34.6118 30.3992 34.861C30.3603 34.9903 30.2633 35.117 30.1112 35.204C29.959 35.2911 29.7745 35.3173 29.6806 35.3399C29.7615 35.3625 29.7939 35.3625 29.8328 35.3884C29.7843 35.4692 29.561 35.5955 29.3118 35.7574C29.0626 35.9095 28.9427 36.1327 28.8813 36.2784C28.8173 36.4143 28.7228 36.5017 28.5707 36.518C28.6347 36.5568 28.7294 36.6472 28.7778 36.6765C28.7066 36.6927 28.5858 36.6927 28.3701 36.8772C28.1436 37.0649 28.0659 37.12 27.9622 37.1362L27.9612 37.136Z" fill="#C39D3C"/>
<path fill-rule="evenodd" clip-rule="evenodd" d="M23.4581 38.6358C23.582 38.5489 23.7162 38.4778 23.8577 38.4239C24.3624 38.2234 24.8964 38.1846 25.1067 38.1199C25.3075 38.0559 25.466 37.9676 25.7152 37.9192C25.7086 37.9759 25.703 38.0293 25.697 38.0796C24.9624 38.3106 24.2144 38.4963 23.457 38.6358H23.4581Z" fill="#D2BA6B"/>
<path fill-rule="evenodd" clip-rule="evenodd" d="M32.7679 25.3593C32.7679 25.3593 32.6645 25.9191 32.4799 26.272C32.2954 26.6248 32.0959 27.1134 32.0959 27.1134C32.0971 27.0033 32.1102 26.8936 32.1348 26.7863C31.9018 26.9222 31.3354 27.2493 31.1748 27.3948C31.0227 27.5307 30.7669 27.7702 30.7022 27.8835C30.8543 27.437 31.0128 27.0357 31.0389 26.8512C30.8059 27.0195 29.7183 27.9159 29.1521 28.5081L27.3883 29.9353C27.1848 30.0452 26.9751 30.1433 26.7605 30.2293C26.4565 30.3586 26.0972 30.4687 25.8318 30.5724C25.9031 30.3814 26.0161 30.2129 26.1749 30.0512C26.3432 29.8927 26.8479 29.3457 26.9256 29.0912C26.9968 28.8258 27.0131 28.6673 26.9192 28.4439C26.8317 28.4665 26.6312 28.4764 26.4953 28.5152C26.3594 28.554 26.2137 28.6995 26.2137 28.6995C26.2137 28.6995 26.3172 28.1073 26.5405 27.5475C26.3722 27.5539 26.0842 27.6023 26.0842 27.6023C26.0842 27.6023 26.4855 26.9293 27.1722 26.4601C26.9619 26.5049 26.7561 26.5687 26.5574 26.6509C26.1561 26.8192 25.716 27.0684 25.3892 27.2043C25.5735 26.9483 26.868 25.1008 27.6383 23.379C28.4063 21.6606 28.6933 21.2205 28.8616 20.2982C28.9488 19.8419 28.9256 19.1676 28.9488 18.5636C28.9715 17.9648 29.0459 17.4276 28.9975 17.0684C29.198 17.3175 29.9489 18.0198 29.9748 19.5895C29.9974 21.159 29.2565 23.2789 28.4699 24.4211C28.6619 24.4761 29.1594 24.541 29.6705 23.6531C30.1817 22.7652 30.1755 22.5173 30.36 22.1483C30.3827 22.3328 30.376 22.3974 30.376 22.3974C30.376 22.3974 31.1206 21.4946 31.4732 20.3586C31.5445 20.8473 31.7548 21.2779 31.4246 22.1743C31.1302 22.9832 30.7451 23.1808 30.7451 23.1808C30.7451 23.1808 30.936 23.1484 31.2174 22.98C31.2661 23.0997 31.2565 23.236 31.3373 23.2843C31.4182 23.3325 31.5283 23.4137 31.5445 23.4914C31.6317 23.3619 31.7676 23.1968 31.8099 23.0739C31.7774 23.3299 31.7548 24.4493 31.8739 25.0189C32.1232 24.9963 32.3788 24.98 32.5535 24.5301C32.4339 24.9704 32.4339 25.2356 32.5147 25.6111C32.6474 25.5206 32.7671 25.3587 32.7671 25.3587L32.7679 25.3593Z" fill="#C0993A"/>
<path fill-rule="evenodd" clip-rule="evenodd" d="M24.3593 7.52113C24.3593 7.52113 24.1102 7.62459 23.6863 7.62459C23.3174 7.62459 23.4209 7.4823 22.8449 7.4823C21.9583 7.4823 18.8611 7.9943 18.3173 7.98705C17.9645 7.98065 19.5082 8.13915 19.5082 8.13915L23.4533 8.19419L24.2461 8.13019L24.5407 7.53073L24.3593 7.52113Z" fill="#A88F33"/>
<path fill-rule="evenodd" clip-rule="evenodd" d="M14.1294 15.233C14.1294 15.233 13.6245 15.6181 13.4109 15.9127C13.1974 16.2073 13.0841 16.4013 12.8413 16.6408C12.8983 16.643 12.9552 16.6354 13.0096 16.6182C13.0096 16.6182 13.0096 16.6822 12.9708 16.6991C13.0044 16.6953 13.0383 16.6991 13.0702 16.7102C13.1021 16.7213 13.1311 16.7393 13.1551 16.7631C13.0839 16.8019 12.8897 16.9962 13.0418 17.226C13.1551 17.4007 13.3947 17.4167 13.3947 17.4167C13.3947 17.4167 13.3397 17.5754 13.5694 17.5592C14.0646 17.5366 14.6179 17.3197 14.8735 17.3747C15.1295 17.4387 15.275 17.4622 15.4561 17.7762C15.6481 18.0868 15.8154 18.1354 15.8154 18.1354C15.8154 18.1354 15.9287 17.8472 15.9029 17.4169C15.9957 17.185 16.0472 16.9386 16.055 16.6888L15.8866 15.4494L15.1521 14.5205L14.2007 15.0481L14.1294 15.2324V15.233Z" fill="#E3C571"/>
<path fill-rule="evenodd" clip-rule="evenodd" d="M15.0322 15.0486C15.0322 15.0486 15.1035 15.2169 15.4013 15.2329C15.3689 15.3041 15.3689 15.314 15.3787 15.3688C15.3851 15.4238 15.3947 15.5047 15.3947 15.5047C15.4275 15.4888 15.4571 15.4671 15.4821 15.4407C15.4984 15.5119 15.4659 15.625 15.4821 15.7061C15.4921 15.7554 15.5084 15.8032 15.5306 15.8484C15.5353 15.8373 15.5407 15.8265 15.5468 15.8161C15.5532 15.7999 15.6108 15.9909 15.7701 16.1361C15.77 16.1138 15.7755 16.0918 15.7861 16.0721C15.7886 16.1127 15.802 16.1519 15.825 16.1854C15.813 16.1797 15.8022 16.1721 15.7928 16.1628C15.7928 16.1628 15.8088 16.6748 15.8962 16.9396C15.9108 16.9224 15.9238 16.904 15.9351 16.8845C15.9351 16.8685 15.9287 17.027 15.9124 17.1405C15.8898 17.2538 15.906 17.4123 15.906 17.4123C15.9644 17.3664 16.0285 17.3283 16.0968 17.299C16.1938 17.26 16.3528 17.1403 16.4496 16.8749C16.5058 16.7246 16.5491 16.5698 16.5791 16.4122C16.6104 16.4724 16.632 16.5372 16.6431 16.6042C16.6497 16.685 16.8018 16.643 16.8018 16.643L16.8343 16.2902L17.0263 15.4908L17.201 14.9957L18.0424 13.6852L19.5626 12.5144L20.8895 12.8186L22.0091 11.2975L20.0803 10.1389L18.2551 10.3298L16.5985 12.6242L15.2718 14.7053L15.0322 15.0484V15.0486Z" fill="#D8B65B"/>
<path fill-rule="evenodd" clip-rule="evenodd" d="M24.5923 11.7282C24.5923 11.7282 24.479 11.7508 24.1522 11.9202C23.8253 12.0896 23.5988 12.1433 23.4725 12.3925C23.3462 12.6417 23.3366 12.8392 23.3366 12.8392C23.3366 12.8392 23.5599 12.7422 23.6894 12.7097C23.8253 12.6775 23.9774 12.6871 23.9612 12.7422C23.9457 12.7799 23.924 12.8148 23.8972 12.8456C23.8972 12.8456 24.1532 12.8392 24.1464 12.9655C24.1396 13.0918 24.098 13.2309 24.0495 13.2923C24.0009 13.3563 23.8004 13.4511 23.7778 13.5255C23.7227 13.6776 23.8004 13.684 23.7711 13.8069C23.7485 13.9268 23.6419 14.1598 23.2922 14.5674C22.933 14.9753 22.7802 15.2633 22.7802 15.2633C22.7802 15.2633 22.6055 14.9365 22.5148 14.6549C22.4508 14.6871 22.1071 14.8781 22.1071 14.8781L21.311 12.1047L21.327 11.9202C21.327 11.9202 21.3982 11.8329 21.4144 11.671C21.2948 11.6322 21.2786 11.5998 21.1198 11.4479C20.9611 11.296 20.8318 11.1112 20.5667 10.9849C20.5278 10.9137 20.4792 10.8168 20.2851 10.7778C20.0909 10.7387 19.9744 10.7067 19.9744 10.7067C19.9744 10.7067 20.0779 10.6677 20.1266 10.5869C20.0067 10.6031 19.9098 10.6419 19.6476 10.6355C19.3822 10.6289 19.353 10.6193 19.2075 10.6419C19.062 10.6645 18.8875 10.7294 18.8224 10.506C18.7512 10.451 18.5991 10.4996 18.4696 10.6903C18.3401 10.881 18.2949 11.0334 18.0457 11.1078C18.0282 11.2176 17.9897 11.3231 17.9324 11.4184C17.8612 11.5383 17.7479 11.658 17.5958 11.8359C17.3562 12.1175 17.395 12.5802 17.0132 12.9331C16.6281 13.2857 17.0772 11.9556 17.0772 11.9556L17.692 10.4836L19.4428 8.7716L22.1613 8.58728L22.4267 9.99528L23.7536 10.4516L24.5918 11.7299L24.5923 11.7282Z" fill="#D3AE4D"/>
<path fill-rule="evenodd" clip-rule="evenodd" d="M25.0227 12.0388L23.8803 10.3917L23.0809 9.77662C23.0809 9.77662 22.5113 8.7283 22.4725 8.69587C22.4401 8.67326 21.9029 8.61502 21.5599 8.59241L21.6239 8.75091C21.6987 8.77524 21.7653 8.8201 21.8159 8.88041C21.968 9.05513 22.065 9.38515 21.7188 9.73801C21.8547 9.78643 21.9108 9.80201 22.0294 9.78643C21.9097 9.92894 21.6379 10.2332 21.6217 10.4985C21.6055 10.7153 21.7414 10.7799 21.7414 10.7799C21.7414 10.7799 21.5343 11.0195 21.5247 11.4199C21.6225 11.3096 21.7295 11.2078 21.8447 11.1157C22.0842 10.9237 22.4143 10.7078 22.6376 10.5719C22.6346 10.629 22.6422 10.686 22.6602 10.7402C22.6602 10.7402 23.0775 10.3972 23.4282 10.5493C23.5867 10.6206 23.5155 10.8439 23.5155 10.8439C23.5155 10.8439 23.7324 10.7631 23.8846 10.9152C24.0367 11.0673 24.2534 11.4588 24.3635 11.6111C24.4119 11.6823 24.5382 11.8182 24.6675 12.0284C24.8441 12.3229 24.9916 12.634 25.1078 12.9572C25.1142 12.8277 25.1402 12.6466 25.3638 12.6466L25.024 12.0382L25.0227 12.0388Z" fill="#CAA13E"/>
<path fill-rule="evenodd" clip-rule="evenodd" d="M7.89653 16.7186C7.89653 16.7186 7.81568 16.5178 7.89653 16.1263C7.97738 15.7349 8.10368 15.5503 8.1457 14.9743C8.18773 14.3983 8.5632 13.6798 8.5632 13.6798L9.60192 13.2075L10.3366 13.4081L10.5534 14.3919L9.62453 14.9039C9.62453 14.9039 9.5761 15.1207 9.31392 15.2954C9.05173 15.4701 8.68928 15.606 8.60202 15.7842C8.54986 15.8932 8.5118 16.0085 8.48874 16.1272C8.48874 16.1272 8.22336 16.0722 8.06485 16.2469C7.89653 16.425 7.90293 16.5835 7.89653 16.7194V16.7186Z" fill="#F4EFC8"/>
<path fill-rule="evenodd" clip-rule="evenodd" d="M9.99369 16.4563C9.99369 16.4563 9.90622 16.5113 9.84158 16.6483C9.77758 16.5448 9.62462 15.9298 9.61822 15.3764C9.61182 14.823 9.57876 14.6858 9.70676 14.4951C9.83476 14.3044 10.3367 14.1034 10.2655 13.76C10.1942 13.4331 9.89641 13.2972 9.53076 13.3911C9.27476 13.4551 9.08425 13.9995 8.81886 14.2713C8.61812 14.4785 8.37876 14.446 8.31412 14.5593C8.22665 14.7114 8.3075 14.8635 8.28169 14.9606C8.27508 14.993 8.19422 15.1677 8.04852 15.3781C7.75412 15.802 7.25577 16.4008 7.19092 16.938C7.21353 16.6338 7.19753 16.6274 7.27838 16.2907L7.22974 16.2099L7.54974 15.1613L7.75689 14.2973L8.21982 12.8505L9.03518 11.3717L9.82814 10.4849L10.6533 10.5399L10.7504 11.7794L11.2229 14.1064L12.2164 15.3297L10.6241 16.4012L9.99305 16.4563H9.99369Z" fill="#EBCC73"/>
<path fill-rule="evenodd" clip-rule="evenodd" d="M10.4888 16.8959C10.4888 16.8959 10.3529 16.9284 10.3043 16.9026C10.2556 16.8767 10.2074 16.8475 10.2234 16.8151C10.2394 16.7827 10.3269 16.7278 10.3269 16.7018C10.3287 16.6783 10.3212 16.655 10.3061 16.6369C10.2911 16.6188 10.2695 16.6072 10.246 16.6047C10.1716 16.5951 10.149 16.6436 10.149 16.6436C10.149 16.6436 10.0777 16.5887 10.0197 16.5796C10.054 16.5754 10.0886 16.5732 10.1232 16.573C10.0337 16.5324 9.93885 16.5052 9.84155 16.4921C9.92241 16.4437 10.0811 16.3012 10.1846 16.3012C10.2881 16.3012 10.3529 16.2852 10.3367 16.2301C10.3205 16.1751 10.2396 16.0942 10.1524 16.0618C10.1846 16.023 10.2074 15.9647 10.1298 15.8058C10.0487 15.6473 10.0811 15.5404 10.1072 15.5018C10.1298 15.4532 10.2106 15.3659 10.2494 15.3109C10.2883 15.2558 10.3207 15.1814 10.3853 15.1426C10.4178 15.1199 10.5212 15.0786 10.6249 15.0391C10.7382 15.0003 10.8321 14.9516 10.8967 15.0003C10.968 15.0487 10.9355 15.1135 10.9355 15.1135C10.9355 15.1135 11.1589 15.0325 11.3594 15.1362C11.5602 15.233 12.0489 15.2947 12.0489 15.2947L12.2241 15.6475L11.0654 16.641L10.5865 16.8806L10.4894 16.8966L10.4888 16.8959Z" fill="#E5C66B"/>
<path fill-rule="evenodd" clip-rule="evenodd" d="M12.097 15.2719C12.097 15.2719 11.7378 15.5114 11.6569 15.5987C11.7053 15.6053 11.7862 15.6377 11.7538 15.6861C11.7149 15.7346 11.482 15.9029 11.3525 16.0616C11.2166 16.2201 11.0871 16.4209 11.0419 16.5179C10.9934 16.6052 10.6244 16.861 10.4983 16.8932C10.7637 16.8932 11.2977 16.5664 11.4982 16.5664C11.4918 16.6634 11.5532 16.7735 11.6665 16.7831C11.7798 16.7927 12.1066 16.8544 12.5467 16.5826C12.9868 16.3172 12.8413 16.1196 13.0257 15.9904C13.3785 15.7572 13.5208 15.55 13.7149 15.4208C13.9091 15.2915 14.0095 15.262 14.0095 15.262C14.0095 15.262 14.0159 15.165 14.0735 15.1748C14.0893 15.1766 14.1043 15.1827 14.1168 15.1924C14.1294 15.2021 14.1391 15.215 14.1448 15.2298C14.1448 15.2298 14.4814 14.9903 14.9128 14.9256C14.9027 14.9211 14.8947 14.9131 14.8902 14.903C14.8902 14.903 14.9224 14.8868 14.929 14.8706C14.929 14.8706 14.9516 14.8381 14.9678 14.8544C14.9841 14.8706 15.0067 14.9903 15.0391 15.0389C15.1103 15.0065 15.2462 14.7022 15.2462 14.7022L15.5733 13.767V12.9126L15.3173 12.9612L13.3973 13.7766L12.2321 14.9839L12.0962 15.2719H12.097Z" fill="#E6BD62"/>
<path fill-rule="evenodd" clip-rule="evenodd" d="M17.6246 11.081C17.7284 11.0558 17.828 11.0154 17.9201 10.9611C17.8812 11.0648 17.8812 11.1781 17.7129 11.4241C17.5446 11.67 17.5382 11.7057 17.4023 11.9612C17.2664 12.2266 17.2502 12.6085 17.1207 12.7766C17.1787 12.7484 17.241 12.7299 17.305 12.7218C17.305 12.7218 17.1757 12.835 17.1207 12.9547C17.0657 13.0744 16.9686 13.3236 16.7292 13.4759C16.4899 13.6282 16.1854 13.7251 15.8586 14.0843C15.5316 14.437 15.1951 14.8837 15.0266 15.0443C15.1141 14.8922 15.2338 14.588 15.2662 14.3875C15.2986 14.1869 15.2596 13.9472 15.3146 13.682C15.3697 13.4168 15.3697 13.2257 15.6346 12.7627C15.8996 12.2998 16.3531 10.6915 16.3531 10.6915L17.3304 10.3809L17.625 11.08L17.6246 11.081Z" fill="#B6933F"/>
<path fill-rule="evenodd" clip-rule="evenodd" d="M16.9191 10.4888C16.9191 10.4888 16.6247 10.9127 16.5438 11.2882C16.463 11.6636 16.5372 11.6312 16.4888 11.8157C16.4598 11.9282 16.4598 12.0463 16.4888 12.1588C16.5907 11.9945 16.7303 11.8569 16.896 11.7573C17.1744 11.5892 17.401 11.4693 17.536 11.327C17.6719 11.1749 17.7852 10.9257 18.0796 10.7348C17.9599 10.7186 17.7916 10.6635 17.7596 10.6708C17.8795 10.5349 18.2385 10.3277 18.601 10.0786C18.9602 9.82256 18.9376 9.7193 19.5202 9.46373C19.3293 9.49616 19.2386 9.44752 19.0799 9.46373C19.1439 9.32784 19.3679 9.26298 19.5919 9.03984C19.8159 8.81669 19.4496 8.48645 19.4496 8.48645L17.743 9.51877L16.9178 10.4897L16.9191 10.4888Z" fill="#C49937"/>
<path fill-rule="evenodd" clip-rule="evenodd" d="M12.2881 9.71846L12.3269 9.40784L12.8157 8.6247L13.327 7.24934V5.36902L13.2882 4.28166L13.369 3.56955L13.4305 3.3432L13.4953 3.25574L13.9126 3.47248L14.4888 4.25563L14.5439 5.7671L13.9839 8.15216L12.3852 9.89659L12.2881 9.71846Z" fill="#DFC068"/>
<path fill-rule="evenodd" clip-rule="evenodd" d="M13.5599 3.16818C13.5599 3.16818 13.3039 3.17479 13.2493 4.23954C13.1947 5.30428 13.1683 5.86407 13.1294 6.39164C13.0906 6.91922 13.0002 7.23943 12.9547 7.55026C12.9093 7.86108 12.8835 8.28476 12.738 8.54375C12.674 8.66343 12.5372 9.0389 12.2168 9.3205C11.8575 9.63111 11.3208 9.84807 11.2395 9.86429C11.097 9.8965 10.3753 9.96775 10.0809 10.1297C9.97744 10.1847 9.79931 10.2494 9.60197 10.4339C9.21029 10.7865 8.68933 11.4176 8.31387 12.1781C7.73787 13.3141 7.16187 16.5211 7.16187 16.5211L7.29136 16.3044C7.29136 16.3044 7.30757 16.0164 7.59557 15.5114C7.87717 15.0067 7.79632 14.4403 8.18779 13.4726C8.33989 13.1038 8.53083 12.6248 8.76379 12.2169C9.13285 11.5535 9.57936 10.9839 10.0293 10.6732C10.7638 10.1685 11.573 10.0584 11.573 10.0584L12.4436 9.48242C12.4436 9.48242 12.5957 9.18802 12.7964 8.85138C13.0778 8.37906 13.4364 7.85148 13.5147 7.08455C13.6346 5.94855 13.3464 5.20423 13.3626 4.53116C13.3788 3.8581 13.3852 3.36295 13.5213 3.24306C13.6574 3.12316 13.5602 3.1686 13.5602 3.1686L13.5599 3.16818Z" fill="#A88F33"/>
<path fill-rule="evenodd" clip-rule="evenodd" d="M13.56 8.24913C13.56 8.24913 13.944 7.30407 14.1198 6.46588C14.1522 6.29756 14.2168 6.12945 14.2331 5.99356C14.3139 5.2006 14.3365 4.87377 14.2331 4.44007C14.1522 4.12007 13.8416 3.83164 13.6797 3.60807C13.5212 3.37489 13.4467 3.28807 13.4791 3.239C13.5116 3.18993 13.6376 3.10972 13.7605 3.11932C13.8911 3.12312 14.0196 3.15345 14.1382 3.20846C14.2567 3.26347 14.3628 3.34202 14.45 3.43932C14.6992 3.72732 14.8965 4.70481 14.8965 4.70481L15.1041 5.99463L15.6317 7.61916L13.5604 8.25041L13.56 8.24913Z" fill="#C99E3D"/>
<path fill-rule="evenodd" clip-rule="evenodd" d="M17.1682 7.26547C17.1682 7.26547 17.0969 7.29769 16.9676 7.26547C16.9731 7.3183 16.964 7.37163 16.9411 7.41959C16.9183 7.46754 16.8826 7.50826 16.8381 7.53726C16.7022 7.48222 15.4301 7.5923 15.4301 7.5923C15.4301 7.5923 14.8379 7.48862 14.6534 6.70547C14.5241 6.1843 14.7505 5.46601 14.676 4.99347C14.5627 4.29758 14.4042 4.16147 14.388 3.94494C14.3718 3.72841 14.3556 3.67315 14.3556 3.53726C14.2843 3.52105 14.2423 3.49843 14.1713 3.49843C14.155 3.43443 14.1873 3.37854 14.1162 3.26526C14.155 3.28147 14.4204 3.3139 14.731 3.6083C14.987 3.84787 14.987 3.93513 15.0257 3.98377C15.0741 4.03219 15.4658 4.36777 15.6341 4.70227C15.8024 5.03678 16.1292 6.10345 16.2037 6.27817C16.2263 6.34942 16.2749 6.42067 16.3957 6.58238C16.5834 6.81555 16.8584 7.20105 17.169 7.26505L17.1682 7.26547Z" fill="#B58634"/>
<path fill-rule="evenodd" clip-rule="evenodd" d="M15.0713 4C15.2673 4.3167 15.4435 4.6453 15.5986 4.98389C15.7896 5.41419 15.9029 5.76704 16.1424 6.05504C16.0129 5.67979 15.7832 4.94187 15.6473 4.67968C15.4952 4.40235 15.1846 4.10368 15.0713 4.00021V4Z" fill="#A88F33"/>
<path fill-rule="evenodd" clip-rule="evenodd" d="M12.8706 9.32053C12.8706 9.32053 12.5438 9.40138 11.9354 9.72181C11.7346 9.82527 11.5439 9.91253 11.3594 9.99359C10.88 10.2103 10.3659 10.4107 9.958 10.5212C9.99043 10.56 10.0064 10.576 10.0064 10.576C10.0064 10.576 10.0064 10.7347 10.0939 10.8252C10.0455 10.8738 9.398 11.3139 9.58915 12.7863C9.71843 12.7379 9.87054 12.6731 9.89315 12.6731C9.93219 12.6797 9.94179 12.7863 9.99022 12.7863C10.0386 12.7863 10.1974 12.7223 10.3657 12.5047C10.3593 12.5922 10.2622 13.4724 10.7832 14.0646C10.8802 13.9514 11.1262 13.5759 11.1262 13.5759L11.1326 13.4562C11.1326 13.4562 11.1552 13.0387 11.2913 12.6568C11.4274 12.275 11.6926 11.9934 11.6926 11.9934L13.0774 10.016L12.8702 9.32031L12.8706 9.32053Z" fill="#E6C367"/>
<path fill-rule="evenodd" clip-rule="evenodd" d="M11.5761 12.224C11.5127 12.2688 11.4428 12.3037 11.3689 12.3275C11.3463 12.2466 11.3139 11.9682 11.5048 11.6964C11.7282 11.3694 12.2167 10.9455 12.3526 10.6084C12.4401 10.3915 12.4012 9.84788 13.178 9.15199C13.9547 8.45609 14.2587 8.21673 14.2587 8.21673L15.5144 7.58569L17.0581 8.19412L16.2912 11.2L15.6958 12.608L13.3278 12.1615L11.5759 12.224H11.5761Z" fill="#DCBA5A"/>
<path fill-rule="evenodd" clip-rule="evenodd" d="M12.48 11.4078L12.7746 11.0389V10.7767C12.7746 10.7767 13.1014 10.6893 13.4541 10.33C13.8067 9.97075 14.2954 9.28147 14.726 9.32349C15.1565 9.37213 15.1985 10.2587 15.2147 10.5081C15.2309 10.7575 15.286 11.3235 15.3732 11.6279C15.4703 11.9321 14.3247 13.0841 14.3247 13.0841L13.5466 13.6763L12.48 11.4078Z" fill="#E9CE77"/>
<path fill-rule="evenodd" clip-rule="evenodd" d="M13.3916 14.4789C13.3916 14.4789 13.6312 14.1034 13.4556 14.0226C13.5591 13.7896 13.75 13.5436 13.75 13.5436C13.75 13.5436 13.8859 13.2072 14.326 12.7929C14.7661 12.3786 15.0381 12.1034 15.1094 11.8252C15.1533 11.6439 15.1772 11.4584 15.1806 11.2719C15.2282 11.3107 15.2791 11.3453 15.3327 11.3753C15.404 11.4077 15.7404 11.6859 15.692 12.2459C15.6435 12.8059 15.436 13.0389 15.436 13.0389C15.436 13.0389 15.2354 13.2394 15.0931 13.3431C14.9408 13.4466 14.886 13.5663 14.6302 13.5761C14.6565 13.5552 14.6861 13.5387 14.7177 13.5274C14.7177 13.5274 14.4523 13.4952 14.3098 13.6245C14.1673 13.7538 13.8643 14.1521 13.7122 14.272C13.5601 14.369 13.3922 14.4791 13.3922 14.4791L13.3916 14.4789Z" fill="#CDAE50"/>
<path fill-rule="evenodd" clip-rule="evenodd" d="M24.152 8.18428C23.7697 8.04493 23.3679 7.96632 22.9612 7.95132C22.2815 7.9287 21.288 7.96753 20.3139 7.97393C19.2654 7.98033 18.314 7.61468 16.9936 7.55004C16.7769 7.42054 16.2256 6.85414 14.5049 8.05478C14.6083 8.04838 15.7542 7.7894 16.152 8.28796C16.5533 8.7831 16.44 9.62449 16.3852 9.82502C16.2815 10.2717 15.9449 10.9222 15.8092 11.3785C15.6735 11.8348 15.7055 12.0746 15.6085 12.3946C15.5114 12.7146 15.2978 12.8736 15.4239 13.2424C15.5922 13.1389 15.6799 13.1389 15.9611 12.5079C16.2423 11.8769 16.1845 11.4269 16.6506 10.893C17.1069 10.3558 17.8666 9.62108 18.1554 9.43654C18.4443 9.25201 20.7378 8.06118 23.1393 9.19718C23.7185 9.13574 24.1522 8.18406 24.1522 8.18406L24.152 8.18428Z" fill="#D2A83E"/>
<path fill-rule="evenodd" clip-rule="evenodd" d="M15.4723 7.74404C15.47 7.71972 15.4646 7.69578 15.4563 7.67278C15.4339 7.62546 15.4044 7.5818 15.3689 7.54329C15.3689 7.54329 14.7993 7.43982 14.5113 7.47204C14.0063 7.52708 13.55 8.15172 13.3364 8.47214C13.1229 8.79257 12.8575 9.2875 12.5695 9.54329C12.5727 9.51837 12.5669 9.49314 12.5533 9.47204C12.5533 9.47204 12.5695 9.49465 12.5373 9.52708C12.5051 9.5595 12.5049 9.5755 12.5211 9.59108L12.5697 9.6395C12.5857 9.6395 13.0324 9.43876 13.6409 8.8715C14.2881 8.27929 14.7833 7.9755 15.0423 7.8714C15.1804 7.8127 15.3247 7.76997 15.4726 7.74404H15.4723Z" fill="#C29637"/>
<path fill-rule="evenodd" clip-rule="evenodd" d="M26.5212 5.31067C26.5212 5.31067 26.4175 5.43995 26.288 5.58246C26 5.88667 25.6245 6.2295 25.3041 6.58235C25.0001 6.91899 24.6571 7.18118 24.2718 7.62128C23.8865 8.06139 23.4398 8.54992 23.3267 8.69243C23.2232 8.83494 23.1424 9.0679 23.1424 9.18758C23.0873 9.14875 23.0227 9.10672 23.0227 9.10672C23.0499 9.15753 23.0825 9.2053 23.1198 9.24923C23.2006 9.36251 23.3267 9.50523 23.3916 9.59227C23.4711 9.70307 23.5282 9.82838 23.5597 9.96112C23.5985 9.96752 23.8477 10.0162 24.1585 9.5048C24.4693 8.99344 24.8768 8.43366 24.8768 8.43366L25.524 7.47238L25.9319 6.65702L26.4439 5.74438L26.5218 5.31067H26.5212Z" fill="#AC8132"/>
<path fill-rule="evenodd" clip-rule="evenodd" d="M27.1847 4.6571C27.1847 4.6571 26.793 4.9771 26.6409 5.1691C26.4888 5.3611 26.1289 5.865 26.1289 5.865L26.2584 5.84878L26.9155 5.26638L27.1715 4.81006L27.1845 4.65796L27.1847 4.6571Z" fill="#A88F33"/>
<path fill-rule="evenodd" clip-rule="evenodd" d="M27.0647 30.3755C27.0647 30.3755 27.0583 30.1101 27.2072 29.9516C27.3593 29.7929 27.7444 29.5599 28.1198 28.6861C28.4953 27.8123 28.5371 27.6149 28.5371 27.6149C28.5371 27.6149 27.8641 28.1909 27.4491 28.3268C27.5462 28.1261 27.6012 27.9838 27.6499 27.8801C27.5948 27.8317 27.3619 27.7767 27.3393 27.7508C27.4685 27.6213 27.5398 27.3041 27.802 27.0938C28.1386 26.8378 28.7534 26.3979 29.2313 26.0058C29.7092 25.6137 30.6487 24.7017 30.7686 24.4363C30.8398 24.5397 30.8558 24.6044 30.8558 24.6044C30.8558 24.6044 30.3835 25.2194 30.1375 25.6109C29.9206 25.9475 29.9368 26.1385 29.9368 26.1385L30.3835 25.9465C30.3835 25.9465 30.5128 26.4254 29.9272 27.1537C30.1832 27.0567 30.2865 27.1149 30.4319 27.0338C30.1924 27.1861 29.8623 27.3933 29.5517 27.9627C29.2475 28.5323 28.8332 29.1957 28.1344 29.6098C27.4547 30.0467 27.063 30.3736 27.063 30.3736L27.0647 30.3755Z" fill="#A67A2E"/>
<path fill-rule="evenodd" clip-rule="evenodd" d="M25.3106 8.52122C25.3106 8.52122 25.0453 9.07439 25.0064 9.5049C25 9.60858 24.974 9.68943 24.974 9.80911C24.9676 10.1942 24.9966 10.6247 24.91 10.8252C24.8776 10.7444 24.8614 10.6893 24.8289 10.6571C24.7805 10.793 24.693 11.2169 24.6218 11.3754C24.5896 11.2719 24.5183 10.9127 24.5249 10.4888C24.5315 10.0649 24.5409 9.98383 24.5409 9.89658C24.5249 10.0259 24.4375 10.2008 24.405 10.3043C24.3566 10.217 24.3016 10.1037 24.2367 10.0099C24.1979 10.0739 24.1495 10.1684 24.1074 10.217C24.1008 10.1782 24.0848 10.0745 24.075 9.92901C24.0686 9.76069 24.0588 9.54394 24.0686 9.4985C24.0846 9.41125 24.2207 9.06821 24.5087 8.75418C24.8518 8.37871 25.2046 7.65722 25.3081 7.43386C25.4115 7.2105 25.8517 6.28186 25.8517 6.28186H26.1883L25.6995 7.39503C25.6995 7.39503 25.4051 8.00346 25.253 8.22703C25.1009 8.45061 24.7805 9.09125 24.638 9.34042C24.7415 9.20453 24.8289 9.13327 24.9326 9.00378C25.0329 8.91311 25.3111 8.52165 25.3111 8.52165L25.3106 8.52122Z" fill="#8C6228"/>
<path fill-rule="evenodd" clip-rule="evenodd" d="M27.1909 4.61487C27.1359 4.78411 27.049 4.94125 26.9349 5.0778C26.7342 5.31737 26.3037 5.63759 26.0935 5.89316C25.9015 6.14233 25.5175 6.82201 25.692 7.62777C25.756 7.45305 25.8766 7.10681 26.197 6.71513C26.5174 6.32345 26.8605 5.87375 27.029 5.52431C27.1971 5.17145 27.2197 4.89327 27.2197 4.89327L27.2837 4.81241L27.2449 4.62788L27.1899 4.61487H27.1909Z" fill="#CBA94C"/>
<path fill-rule="evenodd" clip-rule="evenodd" d="M33.7445 26.0808C33.7445 26.0808 33.615 25.7282 33.5762 25.4077C33.5373 25.0873 33.6402 25.0237 33.5211 24.657C33.4499 24.4337 33.3206 24.465 33.2882 24.4337C33.2557 24.4023 33.2331 24.0648 33.2395 23.8803C33.2459 23.6957 33.2331 23.4564 33.2007 23.3527C33.1523 23.3139 33.1199 23.2814 33.0486 23.0421C32.9677 22.8025 32.9289 22.6828 32.8901 22.6118C32.8513 22.5407 32.7378 22.4759 32.7378 22.4046C32.7378 22.2621 32.8673 22.1879 32.8673 22.1486C32.8609 22.0678 32.7638 22.1326 32.7378 22.1098C32.7056 22.071 32.8188 21.838 32.7768 21.8056C32.7606 21.7896 32.6473 21.9255 32.6181 21.8867C32.5857 21.8476 32.5468 21.4626 32.4886 21.207C32.4338 20.9578 32.3753 20.7767 32.3689 20.7022C32.3625 20.631 31.9222 19.3753 31.8155 19.0711C31.7296 18.814 31.6572 18.5526 31.5988 18.2879C31.5664 18.1358 31.5437 17.825 31.5275 17.8574C31.5113 17.8899 31.5211 18.0484 31.4951 18.042C31.4725 18.0354 31.3916 17.4822 31.3658 17.3947C31.3432 17.3073 31.2071 17.0107 31.1738 16.7961C31.1414 16.5791 31.0704 16.0127 31.0217 15.6277C30.9731 15.2426 30.9505 15.0841 30.9505 14.9877C30.9584 14.7518 30.9454 14.5157 30.9116 14.2822C30.8476 13.8743 30.7196 13.3791 30.6074 13.0914C30.3907 12.5476 29.8145 11.156 29.7114 10.8098C29.7114 10.7223 29.8247 10.7709 29.8247 10.7709C29.8247 10.7709 30.1061 11.4764 30.3132 12.02C30.514 12.5638 30.7049 13.0427 30.7536 13.0914C30.7924 13.1398 31.0966 13.6738 31.2325 14.5476C31.3684 15.4214 31.4168 16.2271 31.4979 16.7643C31.5367 17.0203 31.5691 17.2919 31.65 17.5637C31.7372 17.8583 31.8731 18.1625 32.0513 18.6284C32.2034 19.0201 32.3167 19.3469 32.3781 19.6285C32.4493 19.9878 32.4493 20.2596 32.4914 20.4377C32.5304 20.5898 32.5884 20.8938 32.7245 21.3337C32.8607 21.7736 33.061 22.3402 33.1969 22.6929C33.4625 23.3983 33.5809 23.9874 33.621 24.3014C33.6564 24.625 33.7763 25.7448 33.7439 26.0812L33.7445 26.0808Z" fill="#A88F33"/>
<path fill-rule="evenodd" clip-rule="evenodd" d="M27.2072 4.57595L27.191 4.61477C27.191 4.61477 27.2395 4.63099 27.2299 4.69584C27.2305 4.78457 27.2251 4.87324 27.2136 4.96123C27.1976 5.07451 27.1652 5.16176 27.1588 5.23301C27.1588 5.38512 27.1814 5.55984 26.9668 5.99355C26.9028 6.11323 26.8633 6.21669 26.8309 6.28795C26.7501 6.46267 26.7339 6.48869 26.6626 6.56955C26.7759 6.50555 27.1838 6.24955 27.3907 6.28795C27.2484 6.3688 27.0314 6.52752 26.8956 6.73467C26.928 6.74107 27.0639 6.76709 27.2796 6.73467C27.6388 6.67963 28.0401 6.55013 28.3927 6.57595C28.778 6.59856 28.6259 6.11323 28.6259 6.11323L28.1813 5.13595L27.3399 4.54395L27.2072 4.57616V4.57595Z" fill="#BE9C44"/>
<path fill-rule="evenodd" clip-rule="evenodd" d="M29.4014 11.8965C29.4014 11.8965 29.0259 11.521 28.8738 10.2325C28.7217 8.93798 28.7541 7.03248 28.7541 7.03248L28.4499 6.28816C28.4499 6.28816 28.3859 5.79302 28.2266 5.6087C28.0672 5.42438 27.7542 5.11355 27.6117 4.96144C27.4692 4.80934 27.3075 4.60219 27.2104 4.56976C27.2589 4.48891 27.4758 4.03259 28.3074 4.02619C29.139 4.01979 29.3954 4.48251 29.4822 4.65083C29.5691 4.81915 29.9612 5.54683 30.1067 6.9335C30.2426 8.31846 30.2492 8.42214 30.2266 8.90107C30.2103 9.16646 30.1229 9.78128 29.9706 10.4381C29.8315 10.9949 29.6794 11.6164 29.401 11.8978L29.4014 11.8965Z" fill="#A17C34"/>
<path fill-rule="evenodd" clip-rule="evenodd" d="M28.224 13.0001C28.3492 13.0092 28.4742 12.981 28.5833 12.9191C28.703 12.9127 29.1367 12.9677 29.4699 12.5438C29.4925 12.6407 29.551 12.9031 29.3986 13.136C29.4797 13.055 29.5994 13.0228 29.6156 13.0001C29.622 13.1198 29.7353 13.4887 29.2564 14.3851C29.3856 14.2428 29.5377 14.2492 29.6736 14.233C29.6802 14.4013 29.7707 14.9675 29.5313 15.2719C29.3728 15.4791 29.1138 15.4142 29.1138 15.4142C29.1176 15.369 29.1176 15.3235 29.1138 15.2783C29.1074 15.1909 29.075 15.1036 29.0978 15.0454C28.9727 14.9882 28.8587 14.9093 28.7612 14.8122C28.4796 14.5468 28.114 14.0939 28.0881 13.7573C28.0557 13.3818 28.3924 13.3009 28.3924 13.3009C28.3642 13.2757 28.3401 13.2462 28.3211 13.2135C28.3049 13.1587 28.2887 13.0712 28.224 13.0001Z" fill="#8C6228"/>
<path fill-rule="evenodd" clip-rule="evenodd" d="M25.728 8.92887C25.728 8.92887 25.7118 8.90626 25.6245 9.00973C25.6407 8.90626 25.6569 8.80898 25.6633 8.71511C25.7046 8.62821 25.7581 8.54762 25.8221 8.47575C25.7734 8.57261 25.741 8.66007 25.741 8.66007C25.741 8.66007 25.8609 8.43671 26.0356 8.30082C26.1553 8.20375 26.3074 8.15853 26.372 8.06786C26.4433 7.97079 26.4271 7.95458 26.4433 7.93837C26.4433 7.93837 26.602 7.8349 26.8448 7.53047C26.877 7.49165 26.9256 7.44962 26.9581 7.41079C27.0129 7.38818 27.1424 7.32994 27.2945 7.25207C27.4532 7.16482 27.6311 7.04514 27.7412 6.99607C27.958 6.89901 28.1879 6.90882 28.2946 6.7565C28.3754 6.73389 28.4627 6.49111 28.4467 6.28418C28.5664 6.33261 29.1812 6.71447 29.3918 7.54946C29.5439 8.14167 29.2719 9.05431 29.1586 9.49463C29.0453 9.93495 29.0293 10.2616 28.8706 10.4621C28.6698 10.7277 28.0228 11.1021 27.8641 11.2875C27.7282 11.4396 27.3205 11.8247 27.3365 12.1028C27.3527 12.31 27.6083 12.4228 27.6636 12.4621C27.7188 12.5014 27.7184 12.5496 27.8221 12.5261C27.9257 12.5026 27.9644 12.4548 28.0066 12.4548C28.055 12.4612 28.055 12.4711 28.0776 12.4711C28.094 12.4706 28.1103 12.4684 28.1263 12.4644C28.1263 12.4644 28.1101 12.7591 27.4208 12.8484C27.3721 12.8551 27.3237 12.8711 27.2621 12.8809C27.3431 12.842 27.3916 12.842 27.479 12.7224C27.382 12.7062 27.1036 12.6899 27.0323 12.6673C27.0549 12.6285 27.1294 12.5248 27.1908 12.4764C27.2458 12.428 27.1844 12.4124 27.136 12.4376C27.0526 12.4943 26.9726 12.5558 26.8964 12.6219C26.8156 12.6931 26.7443 12.7902 26.6148 12.8779C26.576 12.7484 26.5824 12.5024 26.7347 12.3245C26.6957 12.3309 26.6212 12.4442 26.5502 12.4216C26.5373 12.3035 26.545 12.1841 26.5728 12.0687C26.6116 11.923 26.822 11.6674 26.822 11.6674L27.8381 9.85175L28.0548 8.47639L25.728 8.92845V8.92887Z" fill="#92723A"/>
<path fill-rule="evenodd" clip-rule="evenodd" d="M25.6731 9.00653C25.6731 9.00653 25.6181 9.04536 25.7282 9.11981C25.7119 9.14242 25.6731 9.22328 25.6245 9.27832C25.5697 9.34232 25.5112 9.382 25.4886 9.43704C25.4402 9.55032 25.4013 9.62797 25.4013 9.67661C25.4013 9.72525 25.3851 10.0359 25.2492 10.2364C25.2006 10.3077 25.1455 10.4273 25.1067 10.5082C25.0259 10.6505 24.9546 10.7642 24.9384 10.8282C24.9062 10.9415 24.8836 11.2521 24.8836 11.2521C24.8836 11.2521 24.9548 11.1646 24.9806 11.1324C24.9416 11.2133 24.8996 11.3005 24.8381 11.3654C24.877 11.3329 24.9902 11.2521 25.1812 11.0838C25.4466 10.8606 25.8609 10.4851 26.3658 10.1878C26.2135 10.2428 26.0842 10.2428 25.9807 10.259C26.0616 10.1782 26.7897 9.32376 27.1716 9.2429C27.1948 9.2135 27.2063 9.1766 27.204 9.13922L26.877 9.10701L26.2135 9.2493L26.1166 8.7373L25.6731 9.00589V9.00653Z" fill="#B18E3E"/>
<path fill-rule="evenodd" clip-rule="evenodd" d="M26.7282 11.9192C26.7282 11.9192 26.6407 12.0065 26.5599 12.2234C26.4976 12.1584 26.4443 12.0855 26.4012 12.0065C26.2815 11.8059 26.0972 11.5501 25.6667 11.6958C25.6603 11.5599 25.6504 11.4887 25.6667 11.3916C25.7379 11.3756 25.9547 11.2009 26.1714 10.9451C26.3237 10.7704 26.466 10.5697 26.5631 10.3141C26.6271 10.2654 26.7378 10.1846 26.8831 10.0907C27.0902 9.94843 27.3394 9.75408 27.3782 9.53733C27.2812 9.57616 27.074 9.67323 26.7632 9.65723C26.8831 9.60219 27.0674 9.54395 27.0448 9.30437C27.0934 9.27195 27.1323 9.24933 27.1323 9.24933C27.0958 9.23717 27.0574 9.23167 27.019 9.23312C27.0124 9.21051 27.0028 9.17829 26.9477 9.19429C26.8927 9.21029 26.8837 9.21051 26.8765 9.23312C26.8539 9.23973 26.7794 9.23312 26.7244 9.27216C26.6693 9.3112 26.5172 9.44027 26.459 9.46288C26.4816 9.42405 26.5138 9.36603 26.5138 9.36603C26.5138 9.36603 26.3553 9.38203 26.242 9.43003C26.0349 9.50128 25.7955 9.63077 25.5527 9.75685C25.5753 9.71803 25.5852 9.69285 25.6012 9.6856C25.6172 9.67835 25.6562 9.6696 25.6562 9.66299C25.6562 9.65637 25.6402 9.59899 25.6498 9.57573C25.7224 9.42197 25.808 9.27473 25.9058 9.13563C26.0191 8.98331 26.0417 8.76656 26.0417 8.76656L26.5368 8.51739L27.9284 8.19739L28.8315 8.25243L28.7182 8.87707L28.1848 9.96763L27.7285 10.9611L27.2073 11.5698L26.7284 11.9192H26.7282Z" fill="#543E26"/>
<path fill-rule="evenodd" clip-rule="evenodd" d="M28.9838 9.21596C28.9838 9.21596 28.44 9.88903 28.2879 9.99271C28.385 9.78556 28.9838 8.5525 29.2005 8.20946C29.1521 8.17063 29.0873 8.17063 29.2394 7.56946C29.1101 7.87346 29.0646 8.03218 28.958 8.11303C28.8513 8.19388 28.8381 8.16807 28.766 8.16807C28.7796 8.14344 28.7852 8.11518 28.782 8.08722C28.782 8.08722 28.3257 8.03218 28.014 8.03218C27.7023 8.03218 27.0853 8.2005 26.7421 8.33639C26.4703 8.44967 26.3182 8.44967 26.2211 8.52071C26.1241 8.60156 26.069 8.68903 26.0204 8.71164C25.9815 8.73426 25.7972 8.7925 25.755 8.85394C25.7162 8.91794 25.6515 8.98983 25.6515 9.00604C25.6515 9.02226 25.6353 9.04508 25.6839 9.02866C25.6999 9.02226 25.8198 8.9574 25.9557 8.87655C26.1401 8.77308 26.3634 8.6534 26.5253 8.58215C26.9881 8.39762 27.1338 8.43004 27.3407 8.39122C27.5574 8.35239 27.8683 8.26172 28.0752 8.26172C28.2823 8.25532 28.674 8.26172 28.7647 8.27794C28.7259 8.31036 28.6934 8.34919 28.7097 8.48508C28.7097 8.52391 28.6772 8.56594 28.6457 8.6598C28.5488 8.92519 28.3643 9.3653 28.2617 9.58866C28.1194 9.89266 27.9577 10.1484 27.8777 10.307C27.7977 10.4655 27.6217 10.883 27.4474 11.1063C27.2731 11.3297 27.182 11.4656 27.1274 11.5142C27.0727 11.5628 26.6806 11.8506 26.7099 11.9543C26.7811 11.9317 27.231 11.7623 27.5577 11.3945C27.8843 11.0267 27.9493 10.8023 28.2049 10.6016C28.4605 10.4008 28.6612 10.0644 28.7809 9.7862C28.8812 9.52722 28.8586 9.44636 28.9846 9.2166L28.9838 9.21596Z" fill="#806031"/>
<path fill-rule="evenodd" clip-rule="evenodd" d="M17.2654 14.2396C17.2654 14.2396 17.1941 14.534 17.0322 14.6797C16.8737 14.8222 16.5921 14.9451 16.5599 15.1847C16.5211 15.424 16.8415 15.5439 16.8415 15.5439C16.8415 15.5439 16.6666 15.8319 16.6666 16.0487C16.6666 16.272 16.6602 16.3141 16.6828 16.5276C16.6571 16.5441 16.6353 16.5659 16.6188 16.5916C16.6188 16.5916 16.6348 16.7988 16.7935 16.928C16.9522 17.0573 17.0879 17.1352 17.1688 17.1028C17.1811 17.1291 17.1919 17.1562 17.2012 17.1838C17.2012 17.1838 17.3211 16.8796 17.4019 16.6142C17.4828 16.3424 17.554 16.381 17.5863 16.0154C17.6185 15.6497 17.9703 15.0219 17.9703 15.0219L18.2103 14.4854L17.8188 14.1812L17.2654 14.2394V14.2396Z" fill="#B6903C"/>
<path fill-rule="evenodd" clip-rule="evenodd" d="M17.9937 14.767C17.913 14.8498 17.8384 14.9385 17.7707 15.0324C17.6673 15.1749 17.5864 15.3041 17.4343 15.3594C17.2822 15.4146 17.1851 15.4142 17.1947 15.5665C17.2043 15.7189 17.3469 15.7833 17.4277 15.8609C17.5152 15.9418 17.5864 16.0777 17.5476 16.23C17.596 16.2074 17.6835 16.1814 17.7643 16.0066C17.8452 15.8319 18.4107 14.7672 18.4107 14.7672H17.9937V14.767Z" fill="#685026"/>
<path fill-rule="evenodd" clip-rule="evenodd" d="M20.2241 12.3106C20.2241 12.3106 20.2725 12.1814 20.2241 12.0875C20.1754 11.9904 19.881 11.958 19.7353 11.8479C19.5832 11.7346 19.3987 11.6559 19.2466 11.7056C19.2692 11.6506 19.3599 11.5307 19.2854 11.5049C19.2142 11.4823 18.949 11.602 18.8777 11.657C18.8065 11.712 18.6446 11.7767 18.6123 11.8157C18.5801 11.8548 18.5249 11.929 18.4925 11.8966C18.46 11.874 18.444 11.8157 18.389 11.8479C18.3339 11.8801 18.069 12.0971 18.0201 12.2234C17.9713 12.3497 17.8614 12.6313 17.5314 12.9515C17.2014 13.2717 17.0589 13.4791 17.1559 13.5988C17.253 13.7184 17.2984 13.6312 17.3146 13.7346C17.3271 13.8362 17.3216 13.9392 17.2984 14.0389C17.2596 14.2072 17.195 14.3657 17.2822 14.3981C17.5056 14.4694 17.7225 14.3341 17.771 14.3755C17.868 14.4628 17.7159 14.7768 17.9457 14.8382C18.1789 14.9022 18.4086 14.7832 18.4086 14.7832L19.2564 14.3269L20.072 13.8966L20.4893 13.0712L20.2655 12.3819L20.2228 12.3106H20.2241Z" fill="#D4B968"/>
<path fill-rule="evenodd" clip-rule="evenodd" d="M19.4241 14.2816C19.4241 14.2816 19.2816 14.0648 19.4565 13.8737C19.6315 13.6825 19.8804 13.6019 19.9775 13.4822C19.959 13.4594 19.9342 13.4426 19.9062 13.4338C19.9707 13.3185 20.069 13.2258 20.1878 13.1682C20.1394 13.1197 20.0746 13.0809 20.0035 13.0809C19.8448 13.0809 19.7475 13.178 19.602 13.178C19.4597 13.178 19.4435 13.1067 19.4435 13.1067C19.4435 13.1067 19.6831 13.0841 19.6603 12.9772C19.6377 12.864 19.5963 12.864 19.5963 12.864C19.5963 12.864 20.059 12.672 20.1398 12.5696C20.2207 12.4672 20.2111 12.3462 20.2273 12.2978C20.2821 12.2978 20.6026 12.1294 20.7321 12.2007C20.8615 12.272 20.7709 12.4661 20.7709 12.4661C20.7709 12.4661 21.1628 12.1715 21.3625 11.8826C21.5372 11.8988 21.6185 11.7629 21.7465 11.7629C21.9052 11.7629 22.1543 11.9797 22.2028 12.4424C22.2352 12.7078 22.2836 12.8599 22.2352 13.3292C22.2126 13.5946 22.219 14.1612 22.2992 14.4424C22.354 14.6658 22.4835 14.6432 22.4835 14.6432C22.4637 14.7112 22.4243 14.772 22.3702 14.8179C22.2828 14.8987 22.2732 15.1125 22.2828 15.1933C22.2957 15.2525 22.3119 15.3108 22.3314 15.3681C22.3314 15.3681 22.2279 15.4877 22.2019 15.5688C22.1793 15.6497 22.0726 15.7047 21.9948 15.7047C21.9169 15.7047 21.9559 15.6981 21.8525 15.7047C21.749 15.7113 21.7166 15.7273 21.6517 15.7047C21.5869 15.6821 21.5385 15.6561 21.5645 15.4487C21.5871 15.2416 20.7651 14.7594 20.7651 14.7594L19.4211 14.2805L19.4241 14.2816Z" fill="#CCA849"/>
<path fill-rule="evenodd" clip-rule="evenodd" d="M17.8802 16.3268C17.8802 16.3268 18.1746 16.7185 19.3851 16.7185C19.9611 16.7185 20.1618 16.6635 20.2811 16.631C20.4106 16.5986 20.8959 16.4079 21.3846 15.8317C21.8247 15.3107 21.7277 15.0972 21.7277 15.0972L21.4717 15.0583L20.6397 15.1716L18.1778 16.2202L17.8792 16.3268H17.8802Z" fill="#585136"/>
<path fill-rule="evenodd" clip-rule="evenodd" d="M18.7832 16.4239C18.7832 16.4239 17.7346 16.6571 17.7346 15.9936C17.7346 15.3464 18.3819 14.6667 18.5438 14.547C18.7121 14.4271 19.1134 14.291 19.1134 14.291H20.0811L20.2654 14.7798L20.1845 15.8347L18.7832 16.4237V16.4239Z" fill="#252211"/>
<path fill-rule="evenodd" clip-rule="evenodd" d="M19.7507 14.4887C19.7507 14.4887 19.5502 14.3042 19.0939 14.5527C18.6375 14.8013 18.2685 15.3208 18.2459 15.7924C18.2233 16.2097 18.5889 16.5205 19.1585 16.5367C19.5824 16.5527 19.8382 16.5043 19.9677 16.4727C19.9353 16.4339 19.7669 16.2236 19.7669 16.2236L19.7509 14.489L19.7507 14.4887Z" fill="#C3B378"/>
<path fill-rule="evenodd" clip-rule="evenodd" d="M19.5534 14.592C19.5534 14.592 19.505 14.5532 19.3614 14.6308C19.2417 14.6948 19.067 14.864 18.9311 14.9837C18.8436 15.0549 18.7886 15.0871 18.7391 15.1422C18.5384 15.3817 18.37 15.7734 18.4673 15.9676C18.5646 16.1617 18.8848 16.385 19.7004 16.2329L19.5511 14.5922L19.5534 14.592Z" fill="#E6D89C"/>
<path fill-rule="evenodd" clip-rule="evenodd" d="M19.2881 14.9934C19.2881 14.9934 19.1586 15.1942 19.1586 15.5146C19.1586 15.8414 19.3431 16.3624 20.0228 16.4012C20.5437 16.4337 20.8932 15.6505 21.2719 15.3463C21.5599 15.1133 21.7346 15.1067 21.7346 15.1067C21.7346 15.1067 21.4402 14.7867 20.6538 14.3722C19.8771 13.9547 19.0065 13.8997 18.5339 14.5405C18.7573 14.5243 19.479 14.3398 19.479 14.3398L19.8319 14.4531L19.2881 14.9937V14.9934Z" fill="#252211"/>
<path fill-rule="evenodd" clip-rule="evenodd" d="M20.3042 15.4174C20.2816 15.369 20.2654 15.3041 20.3592 15.2881C20.4531 15.2721 20.4951 15.2815 20.5276 15.3521C20.56 15.4227 20.5916 15.4816 20.5436 15.5108C20.4951 15.5367 20.3688 15.5108 20.304 15.417L20.3042 15.4174ZM20.1521 14.9611C20.1521 14.9611 20.1197 14.9837 20.1359 14.9385C20.1423 14.8836 20.1845 14.7864 20.288 14.8092C20.3915 14.832 20.3691 14.9451 20.352 14.9775C20.3349 15.0099 20.2485 15.0648 20.1837 15.0415C20.1755 15.0394 20.1678 15.0354 20.1615 15.0298C20.1551 15.0242 20.1501 15.0172 20.1469 15.0093C20.1438 15.0014 20.1425 14.9929 20.1433 14.9845C20.144 14.976 20.1468 14.9679 20.1512 14.9607L20.1521 14.9611Z" fill="#6F674D"/>
<path fill-rule="evenodd" clip-rule="evenodd" d="M11.3921 15.168C11.3921 15.168 11.6481 15.36 11.9455 15.3525C12.2399 15.3459 12.6185 15.0419 12.7933 14.8476C12.8967 14.7343 12.9853 14.6146 13.0813 14.5208C13.1623 14.4399 13.2172 14.4011 13.256 14.346C13.311 14.282 13.3693 14.1617 13.3985 14.1227C13.3272 14.1777 13.2238 14.275 13.1169 14.3396C13.0134 14.4036 12.7901 14.524 12.6994 14.5564C12.6121 14.5888 11.7059 15.0684 11.7059 15.0684L11.3921 15.168Z" fill="#AC924C"/>
<path fill-rule="evenodd" clip-rule="evenodd" d="M11.7832 12.7768C11.7832 12.7768 11.9255 12.6797 12.2007 12.618C12.4661 12.554 13.0001 12.5048 13.0001 12.5048L13.4402 12.6968L13.6149 13.3602L13.2949 14.0497L12.8872 14.3057L12.4243 13.5614L11.7843 12.778L11.7832 12.7768Z" fill="#9F8E57"/>
<path fill-rule="evenodd" clip-rule="evenodd" d="M11.2073 13.369L11.0549 13.4827C11.0549 13.4827 11.094 13.4115 11.1262 13.1947C11.1584 12.978 11.3269 12.4504 11.5729 12.1462C11.8189 11.842 11.8125 11.8582 11.8125 11.8582C11.7898 11.854 11.7666 11.8548 11.7443 11.8603C11.7219 11.8659 11.701 11.8761 11.683 11.8904C11.7154 11.8187 11.9226 11.5627 12.1297 11.4347C12.3369 11.3067 12.4177 11.2664 12.6345 11.3707C12.8512 11.475 12.9062 11.5292 13.065 11.5228C13.2237 11.5164 13.3594 11.3481 13.3594 11.3481C13.3594 11.3481 13.3918 11.4516 13.2721 11.6911C13.1524 11.9307 12.6799 12.4192 12.6799 12.4192L11.696 13.0923L11.2073 13.3696V13.369Z" fill="#EAC970"/>
<path fill-rule="evenodd" clip-rule="evenodd" d="M11.9352 12.6959C11.9352 12.6959 12.6473 12.7929 12.864 12.5924C12.8704 12.615 12.8965 12.615 12.8965 12.6312C12.8947 12.6434 12.889 12.6547 12.8802 12.6634C12.9038 12.6597 12.9276 12.6575 12.9515 12.657C12.98 12.6655 13.0093 12.6709 13.039 12.6732C13.0628 12.6727 13.0867 12.6705 13.1102 12.6666C13.108 12.6827 13.1025 12.6982 13.0941 12.7121C13.0858 12.726 13.0747 12.7381 13.0616 12.7477C13.094 12.7477 13.1256 12.7541 13.1256 12.7799C13.1256 12.8057 13.132 12.8836 13.0932 12.8998C13.061 12.9087 13.0267 12.9064 12.9961 12.8932C12.9987 12.9545 13.0153 13.0143 13.0447 13.0681C13.1087 13.1878 13.2453 13.3241 13.4287 13.2849C13.4287 13.2849 13.5256 13.5178 13.1179 14.0356C13.0631 14.1068 13.0046 14.2039 12.9336 14.2848C12.9055 14.3459 12.8841 14.41 12.8696 14.4757C12.8696 14.4757 13.5591 14.2103 13.7564 13.6051C13.9572 12.9967 13.996 12.398 13.9572 11.8383C13.9505 11.6795 13.9247 11.5665 13.8859 11.4854C13.7888 11.2847 13.5168 11.3171 13.407 11.4304C13.2482 11.5891 12.9829 11.9837 12.614 12.2555C12.2385 12.5273 12.2225 12.5755 11.9343 12.6959H11.9352Z" fill="#D7BC6B"/>
<path fill-rule="evenodd" clip-rule="evenodd" d="M11.081 13.5697C11.081 13.5697 10.9451 13.6506 10.8738 13.9537C10.8026 14.2643 10.9378 14.643 11.0161 14.7627C11.0944 14.8823 11.2721 15.2094 11.6408 15.2256C11.732 15.2251 11.8222 15.2064 11.9062 15.1706C12.0349 15.1116 12.1556 15.0365 12.2654 14.9472C12.4241 14.8275 12.5534 14.7241 12.5372 14.7142C12.4984 14.698 11.5599 13.9213 11.5599 13.9213L11.2071 13.5275L11.0808 13.5701L11.081 13.5697Z" fill="#585136"/>
<path fill-rule="evenodd" clip-rule="evenodd" d="M11.9679 14.8576C11.9679 14.8576 12.1588 14.8416 12.2721 14.7703C12.3854 14.6991 11.6086 13.929 11.6086 13.929L11.6637 14.761L11.9679 14.8576Z" fill="#453A25"/>
<path fill-rule="evenodd" clip-rule="evenodd" d="M11.1425 13.5113C11.1425 13.5113 11.0454 13.6958 11.0454 13.7445C11.0292 13.903 11.0779 14.4013 11.1167 14.5598C11.1555 14.7282 11.3659 14.9837 11.6379 14.9837C11.806 14.9837 12.0391 14.8803 12.0391 14.8545C12.0391 14.822 11.7996 14.7905 11.7349 14.6699C11.6961 14.6059 11.6799 14.4468 11.6709 14.2859C11.6645 14.1825 11.6645 14.0692 11.7034 14.0299C11.7908 13.9329 11.8068 13.6545 11.8068 13.6545L12.1174 13.0774H11.7089L11.2202 13.3816L11.1425 13.5113Z" fill="#84754B"/>
<path fill-rule="evenodd" clip-rule="evenodd" d="M11.0227 13.6894C11.0227 13.6894 11.3427 13.2655 11.6311 13.1683C11.9196 13.071 12.0486 13.1294 12.0486 13.1294L11.8803 13.5599L11.6407 13.8253L11.6569 13.9612C11.6569 13.9612 11.6179 14.3205 11.8575 14.5697C12.0971 14.8188 12.275 14.8092 12.3787 14.8092C12.4823 14.8092 12.7799 14.7218 12.932 14.3625C13.0679 14.0261 13.1812 13.5945 12.9094 13.1619C12.6438 12.7314 12.1747 12.7147 12.084 12.7147C11.9934 12.7147 11.2815 12.7503 11.0227 13.6888V13.6894Z" fill="#252211"/>
<path fill-rule="evenodd" clip-rule="evenodd" d="M19.2394 15.1293C19.1197 15.0743 19.233 14.7379 19.3527 14.6342C19.4724 14.5305 19.6245 14.4111 19.8901 14.3946C19.9869 14.3882 20.0808 14.4497 20.0648 14.5145C20.0422 14.6342 19.8739 14.8025 19.7218 14.9222C19.5114 15.0873 19.3753 15.1908 19.2394 15.1293Z" fill="#F7F7E7"/>
<path fill-rule="evenodd" clip-rule="evenodd" d="M12.767 13.2945C12.8544 13.2881 12.9677 13.3585 12.9903 13.4532C13.0129 13.5567 12.9353 13.7638 12.767 13.7638C12.6311 13.7638 12.5598 13.5955 12.5598 13.5471C12.5613 13.5072 12.5725 13.4684 12.5922 13.4338C12.5986 13.424 12.6149 13.3107 12.767 13.2945Z" fill="#F8F6DE"/>
<path fill-rule="evenodd" clip-rule="evenodd" d="M11.5048 13.3689C11.5048 13.3689 11.2815 13.4724 11.178 13.6889C11.1041 13.8488 11.0817 14.0277 11.114 14.2009C11.1302 14.2817 11.2111 14.4823 11.2661 14.5535C11.3211 14.6248 11.3956 14.6734 11.4506 14.6668C11.5057 14.6602 11.6187 14.5147 11.6187 14.4275C11.6187 14.3402 11.6254 13.9711 11.732 13.7704C11.8259 13.5699 11.5055 13.3691 11.5055 13.3691L11.5048 13.3689Z" fill="#D4C38B"/>
<path fill-rule="evenodd" clip-rule="evenodd" d="M11.5372 13.3527C11.4984 13.3753 11.4338 13.4078 11.4498 13.4498C11.466 13.4886 11.6019 13.5138 11.6505 13.6085C11.7055 13.7056 11.7055 13.8091 11.6893 13.8577C11.7316 13.8376 11.77 13.8102 11.8026 13.7766C11.8739 13.6958 11.9611 13.5859 12.0356 13.5859C12.0842 13.5859 12.1326 13.6085 12.1781 13.6085C12.2493 13.6085 12.3204 13.5859 12.3302 13.5115C12.3462 13.4144 12.1943 13.3269 12.1068 13.3431C12.123 13.2791 12.1457 13.1846 12.0744 13.1198C12.0031 13.0549 11.78 13.1684 11.7314 13.2008C11.6827 13.2333 11.5372 13.3529 11.5372 13.3529V13.3527Z" fill="#E2D59D"/>
<path fill-rule="evenodd" clip-rule="evenodd" d="M16.6797 20.1521L17.1586 20.0106L17.2945 20.1077C17.2945 20.1077 17.3914 20.3148 17.5437 20.3406C17.4951 20.4441 17.3688 20.5326 17.3754 20.606C17.382 20.6794 17.4466 20.7355 17.4466 20.7355C17.4466 20.7355 17.0161 21.4474 17.8641 22.1649C17.6634 22.2457 17.4078 22.3569 17.2719 22.4209C17.3688 22.4435 17.5759 22.4849 17.6634 22.5634C17.7509 22.6419 17.7509 22.6668 17.8317 22.7155C17.9126 22.7641 17.961 22.8288 17.945 22.8578C17.89 22.8253 17.7054 22.7285 17.6732 22.8189C17.641 22.9094 16.8738 22.874 16.8738 22.874L15.5793 23.1232C15.5793 23.1232 15.6278 22.9937 15.4919 22.874C15.3334 22.7317 15.1392 22.8804 14.9321 22.7219C14.6603 22.5147 14.6505 22.2752 14.5632 22.1847C14.6505 22.1297 14.8286 22.0488 15.2525 21.9927C15.2363 21.9603 15.1813 21.8632 15.2137 21.776C15.2525 21.6627 15.4142 21.5914 15.3658 21.456C15.437 21.4397 15.4693 21.4397 15.6474 21.2164C15.8157 20.993 15.9192 20.9446 16.0487 20.9284C16.1782 20.9122 16.2558 20.9284 16.4954 20.705C16.6635 20.5465 16.6087 20.4106 16.6087 20.4106C16.6087 20.4106 16.7185 20.375 16.6799 20.1516L16.6797 20.1521Z" fill="#CBAC5A"/>
<path fill-rule="evenodd" clip-rule="evenodd" d="M15.2654 20.2239C15.2718 20.1915 15.2978 20.1753 15.4725 20.1915C15.6473 20.2077 16.754 20.0881 17.0551 20.0718C17.3593 20.0492 18.4304 20.0652 18.9516 20.1753C19.4728 20.2854 20.0001 20.4149 20.2557 20.4795C20.5117 20.5508 20.5923 20.5764 20.5825 20.6088C20.5761 20.6412 20.5185 20.6728 20.4855 20.6638C20.4532 20.6574 19.6052 20.3985 19.3433 20.3438C19.0813 20.2892 18.1748 20.1431 17.6793 20.1518C17.2165 20.1585 17.032 20.1454 16.6405 20.1907C16.2489 20.2393 15.6016 20.3039 15.4075 20.2781C15.2155 20.2555 15.2552 20.2555 15.265 20.2231L15.2654 20.2239Z" fill="#D6BC6F"/>
<path fill-rule="evenodd" clip-rule="evenodd" d="M17.8705 22.7605C17.8705 22.7605 18.5339 23.1198 18.7735 23.5599C18.9482 23.8867 18.67 24.0486 18.67 24.0486C18.67 24.0486 19.0455 24.0486 18.9969 24.2558C18.9742 24.385 18.3496 24.7345 17.9321 24.919C17.5082 25.1036 17.5244 25.094 17.3173 25.1262C17.1165 25.1586 16.5664 25.0622 16.4531 25.2232C16.3398 25.3843 16.3891 25.5503 16.4206 25.5761C16.4531 25.5987 16.7153 25.6311 16.7153 25.6311C16.7153 25.6311 16.6602 25.7832 16.1166 25.7994C15.5731 25.8157 15.437 25.8543 15.4045 25.9127C15.3721 25.9676 15.508 25.9353 15.7574 25.9767C16.0066 26.0156 16.356 26.0407 16.356 26.0407C16.356 26.0407 16.2427 26.1378 15.9483 26.2154C15.6117 26.3027 15.0841 26.3838 14.9256 26.4808C15.0065 26.5359 15.1264 26.6167 15.1816 26.6231C15.0457 26.6556 14.8546 26.7268 14.8224 26.7526C14.8708 26.785 14.9356 26.8239 14.9356 26.8239C14.9356 26.8239 14.6636 27.1507 14.5051 27.2318C14.3466 27.3128 13.434 27.7365 13.12 27.6557C12.3368 27.4485 12.2397 26.5909 12.0488 26.5263C11.7608 26.4292 11.6249 26.6231 11.3691 26.4872C11.4824 26.4064 11.5441 26.358 11.6637 26.3029C11.5342 26.2389 10.8644 25.8142 10.8644 25.8142C10.7943 25.6615 10.7166 25.5125 10.6314 25.3677C10.5019 25.1443 10.3114 24.8465 10.1685 24.5843C9.85787 24.0083 9.84166 23.7429 9.56006 23.4161C9.6087 23.3521 9.77681 23.3611 9.77681 23.3611L12.1363 24.1378L16.32 24.259L17.408 22.7057L17.8707 22.7607L17.8705 22.7605Z" fill="#DFC677"/>
<path fill-rule="evenodd" clip-rule="evenodd" d="M11.6731 25.1293C11.6983 25.1574 11.7278 25.1815 11.7603 25.2006C11.8414 25.2556 11.9611 25.3205 12.0419 25.4173C12.0744 25.3689 12.1552 25.2814 12.2979 25.4173C12.4407 25.5532 12.6179 25.4564 12.7282 25.4886C12.8415 25.5276 12.8479 25.5436 12.8479 25.5436C12.8479 25.5436 12.9119 25.4886 13.0551 25.4304C13.1425 25.3979 13.246 25.3753 13.3593 25.3431C13.4627 25.3205 13.576 25.2881 13.6539 25.2881C13.7251 25.3365 13.9807 25.6081 15.0066 25.2072C15.9743 24.8317 16.1975 24.7897 16.3594 24.8477C16.3756 24.8089 16.3918 24.7345 16.641 24.7443C16.641 24.6408 16.4338 24.288 16.4338 24.288L15.2914 23.8965H14.6666L12.7929 24.2395L11.7546 24.832L11.6737 25.1306L11.6731 25.1293Z" fill="#C4A859"/>
<path fill-rule="evenodd" clip-rule="evenodd" d="M11.0486 24.4725C11.0486 24.4725 11.0712 24.6472 11.3302 24.8317C11.5862 25.0161 11.6666 25.1261 11.6666 25.1261C11.6666 25.1261 11.7152 25.0621 11.7541 24.9969C11.7929 24.9256 11.8253 24.8448 11.89 24.8221C12.0195 24.7671 12.3139 24.8706 12.3787 24.8544C12.4338 24.8384 12.4175 24.7251 12.4758 24.7251C12.6117 24.7185 12.6989 24.8123 12.7476 24.8123C12.7962 24.8123 12.9157 24.8059 12.9319 24.7801C12.9481 24.7543 12.9545 24.4855 13.139 24.356C13.3398 24.2137 13.5858 24.2752 13.651 24.3076C13.651 24.356 13.6574 24.4759 13.7869 24.4823C13.9164 24.4887 13.9292 24.4661 14.0429 24.5049C14.1566 24.5437 14.2921 24.4985 14.3535 24.6892C14.4086 24.6732 14.5381 24.657 14.5057 24.4725C14.5697 24.4241 14.6255 24.3916 14.7617 24.2007C14.7941 24.1523 14.8489 24.0972 14.8911 24.026C15.0044 24.026 15.1403 24.0034 15.3214 24.1619C15.2664 24.2007 15.234 24.2259 15.218 24.2653C15.2653 24.3122 15.3086 24.3631 15.3473 24.4174C15.3959 24.4814 15.4283 24.56 15.4898 24.5762C15.6257 24.615 15.849 24.56 16.0982 24.5762C16.3378 24.5924 16.5383 24.6796 16.6258 24.7347C16.6582 24.7187 16.6582 24.7121 16.739 24.7283C16.8199 24.7445 16.8813 24.7509 16.7941 24.6474C16.8425 24.67 16.8975 24.7187 16.9462 24.67C16.9948 24.6214 17.0334 24.5504 17.1693 24.5341C17.3052 24.5179 17.3539 24.5405 17.4089 24.3983C17.4802 24.2235 17.2342 24.2235 17.2342 24.2235C17.2342 24.2235 17.3475 24.1199 17.4738 23.984C17.6259 23.8417 17.8006 23.6571 17.8426 23.4306C17.9139 23.0131 17.5062 22.9583 17.5062 22.9583L15.5288 23.5667L13.1113 23.4468L11.0499 24.4727L11.0486 24.4725Z" fill="#927D49"/>
<path fill-rule="evenodd" clip-rule="evenodd" d="M9.27185 18.7605C9.27185 18.7605 9.20785 18.8414 9.16839 19.0323C9.12892 19.2233 9.14577 19.2007 9.11335 19.3365C9.08092 19.4724 8.68263 20.8252 8.83196 21.2815C8.98129 21.7378 9.23985 21.9061 9.40156 22.275C9.43399 22.3559 9.46556 22.4045 9.48241 22.4757C9.53745 22.7151 9.48903 22.8996 9.55367 23.1392C9.57628 23.2201 9.63473 23.3139 9.72199 23.411C9.91399 23.6115 10.2269 23.8025 10.362 23.9384C10.5527 24.1391 10.8247 24.547 11.1709 24.5856C11.3555 24.6082 11.6177 24.5306 11.8344 24.4013C12.0264 24.2814 12.145 24.1133 12.3464 24.0173C12.4887 23.946 12.6408 23.9202 12.7767 23.8878C13.0583 23.8328 13.3141 23.8238 13.4662 23.8554C13.6992 23.904 14.2493 24.0723 14.5542 24.0723C14.7924 24.0685 15.0293 24.0359 15.2597 23.9753C15.7224 23.8394 16.2822 23.6062 16.6513 23.5027C16.868 23.4387 17.0427 23.4219 17.2209 23.3831C17.5251 23.3118 17.7807 23.2147 17.9264 23.0302C17.8293 22.9169 17.7096 22.7422 17.0621 22.7486C16.3276 22.7648 15.4796 23.1725 15.0621 23.2373C14.6447 23.3022 14.4635 23.357 13.9974 23.1887C13.5404 23.0187 13.5253 22.9063 13.5253 22.9063C13.5253 22.9063 13.0455 22.5707 12.8448 21.7152C12.644 20.8597 12.8448 20.2364 13.3659 19.644C13.5018 19.4919 13.4694 19.356 13.4694 19.356C13.4694 19.356 13.8124 18.8932 13.7186 18.46C13.6151 18.0295 12.9516 18.1169 12.9516 18.1169L9.27207 18.7605H9.27185Z" fill="#6E6342"/>
<path fill-rule="evenodd" clip-rule="evenodd" d="M9.8254 20.2007C9.79687 20.2543 9.78345 20.3147 9.78658 20.3754C9.79298 20.4627 9.819 20.5759 10.081 20.8317C10.3043 21.0549 10.2557 21.304 10.2557 21.304C10.2557 21.304 10.3681 21.3267 10.6732 21.1839C10.9128 21.0707 10.9932 21.2714 10.9932 21.2714C11.0629 21.2348 11.1385 21.2107 11.2166 21.2002C11.2873 21.1936 11.3557 21.1718 11.4171 21.1362C11.4171 21.1362 11.6987 21.4242 11.9447 21.56C12.168 21.6799 12.2975 21.7608 12.4076 21.6799C12.5111 21.6087 12.5111 21.463 12.5044 21.3983C12.4788 21.3387 12.4463 21.2822 12.4076 21.23C12.3363 21.1266 12.2231 21.0067 12.2156 20.91C12.1994 20.6869 12.3839 20.4213 12.3449 20.3566C12.3058 20.292 12.1606 20.2758 11.8013 20.4053C11.4292 20.5282 9.82391 20.2013 9.82391 20.2013L9.8254 20.2007Z" fill="#39331F"/>
<path fill-rule="evenodd" clip-rule="evenodd" d="M10.673 21.6473C10.673 21.6473 10.4887 21.4726 10.5533 20.6246C10.6315 20.6235 10.7097 20.6311 10.7863 20.6472C10.7863 20.6472 10.8867 21.3043 10.673 21.6473Z" fill="#292311"/>
<path fill-rule="evenodd" clip-rule="evenodd" d="M9.35937 18.1132C9.38509 18.0942 9.40895 18.0728 9.43063 18.0492C9.36663 18.1689 9.07116 18.6479 9.31073 19.402C9.55031 20.1527 10.1521 20.7125 10.8932 20.7385C11.6344 20.7646 12.0239 20.4019 12.4693 19.8583C12.6441 19.6416 12.8448 19.3696 13.0227 19.1852C13.2881 18.897 13.4953 18.8162 13.4953 18.538C13.4953 17.9684 12.9127 17.7126 12.0551 17.457C11.1975 17.2015 10.4239 17.233 10.0226 17.408C9.63116 17.5987 9.46284 17.7994 9.35916 18.1135L9.35937 18.1132Z" fill="#252211"/>
<path fill-rule="evenodd" clip-rule="evenodd" d="M12.1132 21.9029L12.1772 21.8705C12.1772 21.8705 12.1932 21.6145 12.2969 21.6213C12.4003 21.6376 12.449 21.7737 12.4392 21.8221C12.4328 21.8705 12.4069 21.9516 12.3033 21.9418C12.1674 21.945 12.1125 21.9029 12.1125 21.9029H12.1132Z" fill="#3F3824"/>
<path fill-rule="evenodd" clip-rule="evenodd" d="M11.8252 20.8156C11.8252 20.8156 11.8892 20.793 11.9675 20.8706C12.0315 20.8706 12.3105 20.8382 12.398 20.8932C12.4855 20.9483 12.5113 20.9967 12.5113 20.9967C12.5113 20.9967 12.1844 21.0679 12.0063 20.9967C11.8252 20.9352 11.8252 20.8156 11.8252 20.8156Z" fill="#2D2815"/>
<path fill-rule="evenodd" clip-rule="evenodd" d="M13.2655 20.864C13.2655 20.8478 13.0907 20.7281 12.9062 20.6891C12.8738 20.6827 12.8672 20.7053 12.8422 20.7053C12.826 20.6989 12.8196 20.6503 12.8196 20.6503L12.7146 20.7055C12.7146 20.7055 12.6984 20.7281 12.7535 20.7695C12.8019 20.8083 12.883 20.8408 12.9056 20.9054C12.9282 20.9701 12.9282 20.9927 12.938 21.0025C12.9444 21.0089 13.0577 21.0025 13.1127 20.9701C13.1678 20.9376 13.2714 20.8847 13.2648 20.8634L13.2655 20.864Z" fill="#82764F"/>
<path fill-rule="evenodd" clip-rule="evenodd" d="M11.6311 21.5211C11.6311 21.5211 11.6633 21.2979 11.8803 21.2881C12.1034 21.2719 12.1457 21.4886 12.1457 21.4886L12.0162 21.6181C12.0162 21.6149 11.9191 21.479 11.6322 21.5211H11.6311Z" fill="#2D2816"/>
<path fill-rule="evenodd" clip-rule="evenodd" d="M13.0388 20.5598C13.0388 20.5598 12.9189 20.6893 12.6538 20.7281C12.6312 20.6957 12.5825 20.6311 12.6538 20.5276C12.725 20.4241 12.8059 20.3917 12.8867 20.4239C12.9224 20.4297 12.9557 20.4456 12.9826 20.4697C13.0096 20.4937 13.0291 20.525 13.0388 20.5598Z" fill="#574F35"/>
<path fill-rule="evenodd" clip-rule="evenodd" d="M13.5275 20.7185C13.5341 20.6861 13.5115 20.6797 13.5275 20.6635C13.5435 20.6473 13.6312 20.615 13.6474 20.631C13.6538 20.6377 13.6474 20.6635 13.6474 20.695C13.6474 20.7266 13.6474 20.759 13.6312 20.7823C13.6085 20.8147 13.5439 20.8309 13.5115 20.8213C13.4791 20.8117 13.4727 20.7663 13.4727 20.7573C13.4887 20.7509 13.5275 20.7347 13.5275 20.7185ZM14.08 20.3691C14.08 20.3529 14.1351 20.3204 14.1675 20.3204C14.2159 20.3204 14.2159 20.3593 14.2225 20.3691C14.2385 20.3755 14.2385 20.3625 14.2547 20.3917C14.2709 20.4209 14.2938 20.4725 14.2773 20.505C14.2609 20.5374 14.1965 20.5598 14.1805 20.5534C14.1579 20.5372 14.0866 20.3917 14.08 20.3691Z" fill="#82764F"/>
<path fill-rule="evenodd" clip-rule="evenodd" d="M12.9678 20.7929C12.9678 20.7929 13.039 20.8089 13.1361 20.89C13.1037 20.9126 13.055 20.9384 13.055 20.9384C13.055 20.9384 13.0486 20.864 12.9678 20.7927V20.7929Z" fill="#6E6342"/>
<path fill-rule="evenodd" clip-rule="evenodd" d="M12.8092 20.0809C12.793 20.0649 12.8576 20.026 12.8965 20.0324C12.9353 20.0388 12.9515 20.0649 12.9935 20.0713C13.0355 20.0777 13.0422 20.055 13.0575 20.0388C13.0729 20.0226 13.1288 20.0324 13.1384 20.0388C13.1444 20.0459 13.1498 20.0535 13.1546 20.0614C13.1553 20.0491 13.1585 20.0371 13.164 20.0261C13.1696 20.0151 13.1773 20.0053 13.1868 19.9974C13.1992 19.9883 13.2135 19.9821 13.2287 19.9793C13.2438 19.9765 13.2594 19.9772 13.2743 19.9812C13.2807 20.0038 13.3131 20.0847 13.3067 20.1009C13.3003 20.1171 13.2032 20.1399 13.1868 20.1235C13.203 20.1626 13.2743 20.2434 13.2839 20.2594C13.2935 20.2754 13.2126 20.3145 13.1804 20.3081C13.1352 20.3049 12.8568 20.1429 12.8083 20.0815L12.8092 20.0809ZM13.2331 19.5437C13.2271 19.5274 13.2156 19.5137 13.2007 19.5049C13.1781 19.4985 13.1036 19.5049 13.1036 19.5437C13.1036 19.5825 13.1676 19.7997 13.2395 19.9127C13.3206 20.026 13.3754 20.1197 13.4304 20.1457C13.4477 20.1536 13.4673 20.1546 13.4853 20.1486C13.5033 20.1426 13.5184 20.13 13.5275 20.1133C13.5339 20.0971 13.5501 19.9774 13.5437 19.6958C13.5373 19.4142 13.5275 19.1424 13.5113 19.1262C13.4951 19.11 13.4304 19.1102 13.4078 19.1424C13.3852 19.1746 13.2395 19.4953 13.2329 19.5437H13.2331Z" fill="#585136"/>
<path fill-rule="evenodd" clip-rule="evenodd" d="M12.945 21.2006C12.945 21.2006 12.8317 21.1294 12.7217 21.178C12.6182 21.2266 12.6246 21.4176 12.6246 21.4176C12.6479 21.4267 12.673 21.43 12.6979 21.4272C12.7227 21.4243 12.7465 21.4155 12.7671 21.4014C12.8383 21.3529 12.9288 21.2721 12.945 21.2008V21.2006Z" fill="#574F35"/>
<path fill-rule="evenodd" clip-rule="evenodd" d="M13.1587 21.4564C13.1523 21.3924 13.0947 21.3924 13.0947 21.3593C13.0987 21.3435 13.1079 21.3295 13.1207 21.3195C13.1336 21.3095 13.1495 21.3042 13.1658 21.3043C13.1982 21.3043 13.2298 21.3431 13.2694 21.3683C13.3083 21.3909 13.3665 21.4323 13.3729 21.4816C13.3793 21.5308 13.3089 21.6659 13.2306 21.6659C13.1523 21.6659 13.1756 21.5202 13.1594 21.4555L13.1587 21.4564ZM13.7834 21.3689C13.7834 21.3689 13.6539 21.4077 13.6635 21.3689C13.6731 21.3301 13.7025 21.3205 13.7445 21.3205C13.7659 21.2981 13.7946 21.2843 13.8254 21.2815C13.843 21.2806 13.8603 21.2864 13.8738 21.2977C13.8738 21.2977 13.9613 21.2588 13.9871 21.2815C14.0129 21.3041 13.9937 21.3041 14.0097 21.3301C14.0301 21.359 14.0435 21.3922 14.0488 21.4272C14.0488 21.453 13.9517 21.508 13.8738 21.4984C13.7834 21.479 13.7994 21.3851 13.7834 21.3689ZM14.5373 21.2232C14.5373 21.2232 14.5761 21.2458 14.5439 21.2719C14.5213 21.2945 14.408 21.3359 14.3107 21.3431C14.2137 21.3431 14.1264 21.3591 14.1264 21.3269C14.1264 21.2947 14.2073 21.2298 14.2557 21.2136C14.2654 21.2015 14.2777 21.1916 14.2918 21.1849C14.3058 21.1782 14.3212 21.1747 14.3368 21.1748C14.3756 21.1748 14.5275 21.1586 14.5697 21.1522C14.6085 21.1456 14.641 21.1682 14.6181 21.2006C14.6085 21.2232 14.5373 21.2232 14.5373 21.2232ZM14.7606 20.224C14.7606 20.224 14.712 20.3274 14.6572 20.3274C14.6021 20.321 14.6021 20.3048 14.6021 20.2886C14.6021 20.266 14.6572 20.2077 14.6506 20.1915C14.6346 20.1915 14.5955 20.1915 14.6021 20.1527C14.6021 20.1203 14.6572 20.0815 14.7056 20.0887C14.7422 20.0586 14.7878 20.0416 14.8351 20.0403C14.8901 20.0403 14.9386 20.0563 14.9386 20.0887C14.9386 20.1211 14.8746 20.1922 14.8511 20.2086C14.8253 20.2344 14.7929 20.2513 14.7606 20.2246V20.224ZM14.0227 22.1365C14.0227 22.1365 13.9587 22.1431 13.9587 22.1753C13.9587 22.1915 13.9747 22.1915 13.9976 22.1819C14.0107 22.1812 14.0237 22.179 14.0364 22.1753C14.0428 22.1819 14.0428 22.2142 14.0914 22.2142C14.1314 22.2088 14.1699 22.1956 14.2047 22.1753C14.2435 22.1593 14.276 22.1429 14.276 22.1113C14.2597 22.0563 14.2273 22.0303 14.1789 22.0303C14.1541 22.0287 14.1293 22.0343 14.1076 22.0465C14.1076 22.0465 14.0914 22.014 14.0364 22.0465C13.9813 22.0789 13.9877 22.0789 14.004 22.0951C14.033 22.1209 14.0234 22.1378 14.0234 22.1378L14.0227 22.1365ZM13.6571 22.4731C13.6571 22.4569 13.7379 22.4245 13.7605 22.4343C13.7832 22.4407 13.8478 22.5636 13.8478 22.5766C13.8478 22.5928 13.7669 22.6316 13.7345 22.6316C13.7021 22.6316 13.6473 22.5766 13.6473 22.5676C13.6473 22.5612 13.6861 22.5516 13.6861 22.545C13.6957 22.529 13.6571 22.49 13.6571 22.4738V22.4731ZM13.4011 22.0006C13.4173 21.9942 13.4173 21.978 13.4399 21.9618C13.447 21.9571 13.455 21.954 13.4635 21.9529C13.4719 21.9518 13.4805 21.9527 13.4885 21.9554C13.4942 21.9452 13.5021 21.9364 13.5117 21.9297C13.5212 21.9229 13.5321 21.9184 13.5436 21.9163C13.5824 21.9099 13.6148 21.9163 13.6076 21.9325C13.6076 21.9812 13.64 22.0134 13.64 22.0522C13.64 22.0911 13.6174 22.1397 13.5365 22.1721C13.4557 22.1947 13.3456 22.1947 13.3294 22.1883C13.3132 22.1819 13.297 22.1171 13.3132 22.0847C13.3294 22.0522 13.3746 22.0168 13.4006 22.0006H13.4011Z" fill="#82764F"/>
<path fill-rule="evenodd" clip-rule="evenodd" d="M13.5039 22.0226C13.5039 22.0226 13.4489 22.055 13.4489 22.0712C13.444 22.0869 13.4418 22.1033 13.4425 22.1196C13.4425 22.1292 13.5137 22.1132 13.5233 22.1034C13.5265 22.097 13.5039 22.0394 13.5039 22.0226Z" fill="#6E6342"/>
<path fill-rule="evenodd" clip-rule="evenodd" d="M13.0227 21.8706C13.0549 21.8772 13.11 21.8706 13.152 21.8868C13.1844 21.903 13.207 21.9354 13.1746 21.9742C13.1422 22.0131 13.1106 22.0713 13.0387 22.0615C12.9579 22.0551 12.8802 22.0131 12.8802 21.9806C12.8789 21.9601 12.8816 21.9395 12.8883 21.9201C12.8949 21.9007 12.9054 21.8827 12.919 21.8674C12.9515 21.8415 12.9675 21.8578 13.0225 21.8706H13.0227Z" fill="#585136"/>
<path fill-rule="evenodd" clip-rule="evenodd" d="M12.9839 21.903C12.9839 21.903 12.8804 21.9838 12.8544 22.0228C12.822 22.0617 12.6635 22.2622 12.6151 22.3042C12.6311 22.2759 12.6495 22.2488 12.6699 22.2234C12.6059 22.2643 12.5579 22.326 12.534 22.3981C12.4952 22.518 12.7509 22.5826 12.9191 22.6313C13.0872 22.6799 13.1522 22.6953 13.1522 22.6953C13.0903 22.6023 13.0372 22.5037 12.9935 22.4009C12.9295 22.2488 12.8964 22.2326 12.9385 22.1613C12.9709 22.09 13.0195 22.0416 13.0195 21.9866C13.0001 21.9354 12.9839 21.903 12.9839 21.903Z" fill="#574F35"/>
<path fill-rule="evenodd" clip-rule="evenodd" d="M9.29462 22.1587C9.31817 22.163 9.34232 22.163 9.36587 22.1587C9.4143 22.1521 9.91926 21.9667 10.4468 22C10.8418 22.0238 11.2332 22.0882 11.615 22.192C12.2785 22.3667 13.1037 22.7129 13.6377 22.9105C13.7799 22.9653 13.9193 23.0626 14.0217 23.1012C14.4295 23.2599 14.4455 23.2599 14.6851 23.3019C14.9667 23.3408 15.2547 23.2469 15.5557 23.1823C15.9246 23.1012 16.5556 23.0624 17.109 22.9815C17.288 22.9567 17.4645 22.9167 17.6366 22.8618C17.6366 22.8618 17.1965 23.3019 16.1413 23.4604C15.7148 23.5252 15.2814 23.5307 14.8534 23.4767C14.5168 23.4442 14.2937 23.3956 14.1253 23.3472C13.9344 23.2921 13.5427 23.1464 13.0606 23.0272C12.7239 22.9397 12.3485 22.8751 11.9182 22.7942C10.8566 22.5999 9.70464 22.3767 9.29419 22.16L9.29462 22.1587Z" fill="#252211"/>
<path fill-rule="evenodd" clip-rule="evenodd" d="M8.1034 20.1587C7.8474 20.3754 7.57582 20.5826 7.31065 20.7831L6.51129 21.3973C6.2395 21.5978 5.97412 21.805 5.70212 22.0057C5.43012 22.2065 5.15854 22.3972 4.87012 22.5817C5.12612 22.365 5.39769 22.1642 5.66948 21.9669C5.94126 21.7696 6.22308 21.5761 6.48526 21.376L7.28462 20.7609C7.55961 20.5604 7.825 20.3533 8.1034 20.1591V20.1587ZM6.68921 22.4241C6.68921 22.4241 6.97721 22.1845 7.33646 21.8481C7.78297 21.4308 8.32996 20.8966 8.50468 20.7998L6.689 22.4243L6.68921 22.4241Z" fill="#CFB66C"/>
<path fill-rule="evenodd" clip-rule="evenodd" d="M6.68921 22.4239C6.83172 22.2816 6.98382 22.1425 7.13593 22.0064L7.36889 21.8058C7.44014 21.7418 7.52121 21.67 7.59225 21.5987C7.73454 21.4564 7.87385 21.3041 8.01614 21.1586C8.08667 21.0854 8.16124 21.0163 8.2395 20.9514C8.27863 20.9168 8.32209 20.8874 8.36878 20.864C8.40782 20.8414 8.44985 20.8 8.50468 20.7927C8.47246 20.8414 8.43364 20.864 8.40121 20.906C8.36238 20.9384 8.32996 20.9773 8.29774 21.0095C8.22649 21.0807 8.14564 21.1454 8.07438 21.2102C7.92228 21.3397 7.76377 21.4662 7.61166 21.6017C7.45956 21.7372 7.31726 21.8833 7.16494 22.0192C7.00004 22.1585 6.84793 22.2944 6.68921 22.4245V22.4239ZM8.62457 21.1294C8.62457 21.1294 7.56964 22.1619 7.35268 22.33L8.62457 21.1294Z" fill="#CFB66C"/>
<path fill-rule="evenodd" clip-rule="evenodd" d="M8.62468 21.1294C8.52978 21.2392 8.42803 21.343 8.32004 21.44L8.00004 21.7442C7.89657 21.8477 7.79929 21.9514 7.68942 22.0548C7.57614 22.1519 7.47268 22.2468 7.35278 22.3364L7.6634 22.0322C7.76708 21.9288 7.88036 21.8415 7.99044 21.7378L8.30105 21.4336C8.40772 21.3269 8.5114 21.2233 8.62468 21.1294ZM8.6731 21.6892C8.57586 21.9606 8.46128 22.2254 8.33006 22.4821C8.05828 23.0259 7.6506 23.7054 7.47246 24.0518L8.6731 21.6892Z" fill="#CFB66C"/>
<path fill-rule="evenodd" clip-rule="evenodd" d="M8.67303 21.6893C8.67303 21.809 8.6406 21.9127 8.60177 22.0162C8.56393 22.1197 8.52077 22.2213 8.47249 22.3204C8.42385 22.4174 8.36881 22.5211 8.31377 22.615C8.25873 22.7089 8.19409 22.8057 8.14545 22.903L7.81863 23.479C7.70535 23.671 7.59527 23.8641 7.47559 24.0486C7.55644 23.8414 7.66652 23.6473 7.7702 23.4564C7.88348 23.2644 7.98695 23.0724 8.0902 22.8738C8.14061 22.7748 8.18597 22.6733 8.22609 22.5698C8.27452 22.4661 8.32295 22.369 8.36199 22.2751C8.41041 22.1717 8.44924 22.0744 8.49788 21.9807C8.55271 21.8803 8.59815 21.7832 8.6726 21.6893H8.67303Z" fill="#CFB66C"/>
<path fill-rule="evenodd" clip-rule="evenodd" d="M9.82516 24.343C9.82516 24.343 9.50516 24.7669 9.53716 25.3041C9.62441 25.0227 9.73449 24.5922 9.82516 24.343ZM10.1294 24.768C10.1294 24.768 10.0161 25.92 9.92223 26.4864C10.0549 25.8317 10.0807 25.8867 10.1294 24.768ZM12.2491 26.5544C12.2491 26.5544 11.7701 27.9624 11.7603 28.3537C11.864 27.9513 12.0645 27.1294 12.2491 26.5534V26.5544Z" fill="#DEC270"/>
<path fill-rule="evenodd" clip-rule="evenodd" d="M13.3689 24.256C13.3689 24.256 14.1456 25.5375 14.7283 26.6312C14.5706 26.0808 14.2079 25.0713 13.3689 24.256Z" fill="#CBAF59"/>
<path fill-rule="evenodd" clip-rule="evenodd" d="M15.4565 26.1425C15.883 26.8963 16.2676 27.6731 16.6085 28.4693C16.5439 27.9191 16.369 26.9774 15.4565 26.1425Z" fill="#E3C677"/>
<path fill-rule="evenodd" clip-rule="evenodd" d="M21.5923 28.032C21.7216 27.9511 21.9774 27.5108 22.2007 27.401C22.4239 27.2877 22.5922 27.2651 22.793 27.0417C22.9935 26.8085 23.049 26.6662 23.4886 26.4819C24.1037 26.2163 23.6806 25.8733 23.6806 25.8733C23.7484 25.8067 23.8208 25.7451 23.8974 25.689C24.0561 25.5693 24.2404 25.4236 24.2244 25.1678C24.2018 24.7375 24.121 24.1128 23.7681 23.7504C24.1111 23.6791 24.768 23.6307 25.1761 23.5272C25.6484 23.4073 25.8654 23.239 25.8654 23.239C25.8654 23.239 25.5936 22.7763 26.0337 22.3104C26.4738 21.8445 26.8331 21.5661 27.0984 21.0449C26.7942 21.0061 26.3305 20.8444 25.1469 21.2941C25.2108 21.3241 25.2724 21.3587 25.3314 21.3975C25.3314 21.3975 24.6033 21.5983 24.3379 21.8216C23.875 22.2131 23.8167 22.5335 23.3152 22.7731C22.8137 23.0127 22.3087 22.9478 21.8914 23.142C21.4741 23.3361 21.4125 23.5012 21.2602 23.5725C21.2926 23.6113 21.2538 23.6759 21.3152 23.731C21.2764 23.786 21.0498 24.1549 20.8201 24.1549C20.8427 24.2423 21.0368 24.307 21.0368 24.307C21.0368 24.307 20.8945 24.4107 20.5321 24.4365C20.7164 24.6285 20.8913 24.8378 21.3734 25.142C21.3346 25.2228 21.1727 25.3427 21.2375 25.4948C21.3088 25.6469 21.4935 25.8541 22.231 26.0224C21.8556 26.0384 21.4157 26.1259 20.823 26.045C20.2308 25.9737 20.1338 25.9317 19.7681 26.0224C19.8069 26.0612 19.9104 26.0612 20.0011 26.1647C19.904 26.1711 19.2956 26.0934 19.0884 26.3654C18.8717 26.6468 18.7778 27.1097 18.794 27.4204C18.6807 27.4754 18.5707 27.5725 18.6257 27.7732C18.6807 27.974 18.9687 28.0386 19.1533 28.1647C19.3376 28.3006 19.3538 28.349 19.5287 28.3168C19.7131 28.278 19.9849 28.0936 20.1436 28.0936C20.3023 28.0936 20.4154 28.2133 20.4154 28.2133C20.4154 28.2133 20.8459 28.0062 20.8879 28.045C20.9267 28.0838 20.8943 28.333 20.9363 28.3718C20.979 28.4011 21.4639 28.1131 21.5934 28.032H21.5923Z" fill="#ECD592"/>
<path fill-rule="evenodd" clip-rule="evenodd" d="M31 15.0809C28.9774 9.85769 23.9773 8.89001 23.9773 8.89001H9.71188L9.76692 14.2103H12.6079V26.0907H9.71167V31.4014H23.5824C26.9253 31.4014 29.605 28.042 29.605 28.042C33.8962 21.9516 30.9998 15.0809 30.9998 15.0809H31ZM23.6568 24.4627C23.6568 24.4627 22.5688 26.0324 21.3851 26.0324H19.0171L18.9609 14.2233H21.9999C21.9999 14.2233 23.4079 14.5177 24.3916 17.3041C24.3916 17.3041 25.6957 21.2934 23.6568 24.4627Z" fill="white" fill-opacity="0.8"/>
</g>
<defs>
<clipPath id="clip0_1207_24410">
<rect width="40" height="40" fill="white"/>
</clipPath>
</defs>
</svg>
