<svg width="24" height="24" viewBox="0 0 24 24" fill="none" xmlns="http://www.w3.org/2000/svg">
<g clip-path="url(#clip0_1207_24539)">
<path d="M12 24C18.6274 24 24 18.6274 24 12C24 5.37258 18.6274 0 12 0C5.37258 0 0 5.37258 0 12C0 18.6274 5.37258 24 12 24Z" fill="#988430"/>
<path d="M11.9999 23.6156C18.415 23.6156 23.6155 18.4151 23.6155 12C23.6155 5.58489 18.415 0.384399 11.9999 0.384399C5.58477 0.384399 0.384277 5.58489 0.384277 12C0.384277 18.4151 5.58477 23.6156 11.9999 23.6156Z" fill="#7A6A2A"/>
<path d="M12 23.3709C18.28 23.3709 23.3709 18.28 23.3709 12C23.3709 5.72007 18.28 0.62915 12 0.62915C5.72007 0.62915 0.62915 5.72007 0.62915 12C0.62915 18.28 5.72007 23.3709 12 23.3709Z" fill="#BA9F33"/>
<path fill-rule="evenodd" clip-rule="evenodd" d="M5.24659 10.7185C5.17862 10.6564 5.10681 10.5942 5.04076 10.5321C4.97471 10.47 4.90687 10.4078 4.8389 10.3457L4.63692 10.1537C4.6039 10.1207 4.56895 10.0917 4.53593 10.0585C4.5029 10.0294 4.46412 9.99642 4.4311 9.96724C4.16306 9.7129 3.8935 9.45857 3.62918 9.2041C3.90297 9.4546 4.171 9.7033 4.44479 9.95751L4.5399 10.0527C4.57292 10.0856 4.60786 10.1148 4.64089 10.1478L4.84274 10.3342C4.91071 10.3963 4.97676 10.4585 5.04473 10.5262C5.1127 10.5939 5.17874 10.6563 5.24671 10.7182L5.24659 10.7185ZM1.68934 10.6801C1.68934 10.6801 2.66406 10.7809 3.13983 10.8489C3.58054 10.9111 4.95922 11.1227 4.95922 11.1227L1.68934 10.6801ZM1.68934 10.6801C1.96313 10.7034 2.23692 10.7324 2.51071 10.7616C2.65049 10.7752 2.7845 10.7907 2.91852 10.8042L3.12422 10.8277C3.19218 10.8373 3.25823 10.847 3.3262 10.8567L4.14182 10.9868L4.5495 11.0547C4.68351 11.078 4.81753 11.1034 4.9573 11.1267C4.82329 11.1131 4.68351 11.0936 4.5495 11.0742L4.14182 11.0159L3.3262 10.8956C3.25823 10.8859 3.19218 10.8722 3.12422 10.8626L2.91839 10.8389C2.78438 10.8253 2.6446 10.8059 2.51058 10.7903C2.23679 10.7574 1.963 10.7223 1.68921 10.6797L1.68934 10.6801ZM4.8622 11.3766C4.8622 11.3766 3.82143 11.6408 3.46994 11.7418C3.12434 11.8369 2.07769 12.1554 2.07769 12.1554L4.86207 11.3768L4.8622 11.3766Z" fill="#CFB66C"/>
<path fill-rule="evenodd" clip-rule="evenodd" d="M4.86203 11.3766C4.63099 11.4446 4.40123 11.5106 4.16686 11.5728L3.47169 11.7592C3.24065 11.8271 3.01089 11.8932 2.78049 11.9612L2.43489 12.0563C2.32033 12.0893 2.20385 12.1183 2.08545 12.1515C2.19988 12.1131 2.31649 12.0738 2.43105 12.0408L2.77665 11.9302C3.00769 11.8583 3.23745 11.7903 3.46785 11.7185C3.70273 11.6602 3.9339 11.598 4.16878 11.5417C4.39201 11.4854 4.62702 11.4292 4.86203 11.3767V11.3766ZM2.22331 12.7961C2.33774 12.7534 3.65819 12.1379 3.965 11.9942C4.1186 11.9223 4.56507 11.7638 4.56507 11.7638L2.22331 12.7961Z" fill="#CFB66C"/>
<path fill-rule="evenodd" clip-rule="evenodd" d="M2.22327 12.7962C2.32414 12.7578 2.41937 12.7108 2.51639 12.6662L2.80375 12.5322L3.38052 12.2545C3.57252 12.1633 3.75914 12.0625 3.95716 11.9768C4.05815 11.9341 4.15914 11.8992 4.26001 11.8662L4.41361 11.8177C4.46596 11.8041 4.5146 11.7885 4.56721 11.7749C4.37521 11.8662 4.1731 11.9439 3.98084 12.0331C3.78884 12.1283 3.59249 12.206 3.39434 12.2914L2.80798 12.5496C2.61111 12.6293 2.41911 12.7147 2.22314 12.7962H2.22327ZM2.35127 13.3338C2.35127 13.3338 3.5473 12.6329 3.95895 12.4076C4.1745 12.2873 4.87159 11.9416 4.87159 11.9416L2.35127 13.3338Z" fill="#CFB66C"/>
<path fill-rule="evenodd" clip-rule="evenodd" d="M2.35156 13.334C2.55342 13.2097 2.75924 13.0835 2.96507 12.9553L3.27227 12.7688C3.3771 12.7068 3.47809 12.6485 3.58497 12.5864C3.6898 12.5242 3.79079 12.4622 3.89755 12.4039C3.94837 12.3725 4.00161 12.3453 4.05678 12.3224L4.21985 12.2408C4.4354 12.136 4.65095 12.0291 4.87815 11.9379C4.67233 12.068 4.46062 12.1788 4.24903 12.2932C4.1442 12.3514 4.03732 12.4039 3.93249 12.4622C3.82766 12.5204 3.72667 12.5826 3.61979 12.6389C3.51495 12.701 3.41396 12.7592 3.30721 12.8156L2.99067 12.9884L2.35182 13.334H2.35156ZM4.86215 12.095C4.86215 12.095 4.11847 12.6659 3.87771 12.8485C3.63694 13.031 2.9282 13.5436 2.9282 13.5436L4.86215 12.095Z" fill="#CFB66C"/>
<path fill-rule="evenodd" clip-rule="evenodd" d="M9.13006 16.699L8.74951 15.9786L8.97082 15.0776L10.5494 14.468L9.87758 13.0894L10.2096 11.6972L10.833 10.4504L12.7592 10.1476L14.1747 8.7981L17.231 9.02914L17.831 12.2971L16.6757 16.4117L16.0175 18.5418L13.3494 18.6428L12.1107 17.7846L10.6602 17.1786L9.13006 16.699Z" fill="#E2CC85"/>
<path fill-rule="evenodd" clip-rule="evenodd" d="M13.8098 16.6757C13.8098 16.6757 13.4407 16.8447 12.8114 16.8058C12.6292 16.5612 11.3536 16.4466 11.3536 16.4466C11.3536 16.4466 11.1943 16.3981 10.9127 16.5146C10.6293 16.6298 10.3613 16.6156 10.1108 16.6777C9.86032 16.7397 9.61161 16.4136 9.41961 16.3456C9.22761 16.2738 8.97302 16.101 8.97302 16.101L8.43542 16.0485L7.35587 15.5922L5.6408 13.8835L5.17475 14.6131L5.03101 15.5161L5.54953 16.586L6.94563 17.8578L9.66793 18.549L11.2815 18.0736L13.3029 17.2192L13.8098 16.6756V16.6757Z" fill="#F1D789"/>
<path fill-rule="evenodd" clip-rule="evenodd" d="M4.13792 10.6369L4.48352 9.59039L4.89529 8.91455L6.22137 8.80383L5.82329 9.96505L4.71469 11.9379L5.17485 13.6991L4.35936 14.1067L4.10873 13.7224L3.90688 12.8408L3.89331 11.8505L4.13792 10.6369Z" fill="#F4ECB4"/>
<path fill-rule="evenodd" clip-rule="evenodd" d="M5.62513 16.6039L5.37079 16.2485C5.37079 16.2485 5.30282 16.0796 5.34174 15.932C5.38014 15.7825 5.37463 15.7728 5.3553 15.7164C5.33598 15.6601 5.17278 15.4659 5.1825 15.2989C5.1921 15.1299 5.16894 15.0736 5.2931 14.9397C5.42314 14.8097 5.38436 14.5844 5.38436 14.5844L5.55332 14.6892L5.59172 14.631C5.59172 14.631 5.6538 14.6795 5.6538 14.7553C5.66737 14.6505 5.61105 14.165 5.73918 14.0544C5.8673 13.9438 6.0945 14.5728 6.0945 14.5728L5.95473 13.6601L5.59543 12.7243L4.95658 11.8699L4.91818 10.9281V10.8466C4.91818 10.8466 4.62494 11.2971 4.5434 11.653C4.48516 11.8976 4.62494 12.1947 4.59588 12.5461C4.57246 12.8957 4.5434 12.8684 4.62878 13.0069C4.71415 13.1454 4.92202 13.4302 4.84049 13.6361C4.76868 13.8128 4.52394 13.6885 4.52394 13.6885C4.52394 13.6885 4.47543 13.8322 4.40938 13.8846C4.38609 13.7993 4.36087 13.7449 4.31428 13.6926C4.31031 13.7257 4.30071 13.7703 4.30071 13.7703C4.30071 13.7703 4.25796 13.6363 4.21521 13.4674C4.1571 13.2422 4.09489 12.9451 4.03857 12.7859C4.01527 12.8771 3.95703 13.1548 3.95703 13.1548L3.99006 13.582L4.14929 14.1684L4.30289 14.5524L4.45239 15.0223L4.58231 15.3379L4.68714 15.5787L4.77841 16.1205L5.21911 16.5865L5.45412 16.6914L5.62487 16.604L5.62513 16.6039Z" fill="#F3E19D"/>
<path fill-rule="evenodd" clip-rule="evenodd" d="M4.36901 9.78253C4.36901 9.78253 4.05246 10.3201 3.96133 10.8621C3.87019 11.404 3.78853 11.9767 3.84613 12.7145C3.90437 13.4583 4.01509 13.9145 4.10443 14.2408C4.25803 14.7826 4.65586 15.536 4.65586 15.536L4.66942 15.5068C4.60255 15.3801 4.54918 15.2466 4.51019 15.1087C4.45771 14.9029 4.43826 14.6583 4.38974 14.5476C4.34699 14.437 4.27518 14.3418 4.24024 14.2058C4.20722 14.0758 4.20184 13.87 4.10046 13.7166C4.05771 13.6544 4.00523 13.4913 3.98974 13.3283C3.97029 13.0835 3.99947 12.8097 3.97618 12.5846C3.93342 12.2098 3.90437 11.9555 3.94315 11.7592C3.98194 11.563 4.18405 11.006 4.30834 10.5632C4.38987 10.2797 4.34123 10.0408 4.49074 9.79418C4.64024 9.54957 4.73163 9.33402 4.76453 9.18452C4.80293 9.04858 4.3685 9.78253 4.3685 9.78253H4.36901Z" fill="#F2E8B0"/>
<path fill-rule="evenodd" clip-rule="evenodd" d="M5.86996 9.56702C5.86996 9.56702 5.70689 9.61566 5.6292 9.70103C5.5515 9.78257 5.51848 9.85054 5.41364 9.98839C5.30881 10.1262 5.30292 10.2389 5.21742 10.4117C5.13204 10.5806 4.94363 10.835 4.92033 10.9262C4.89704 11.0175 4.85825 11.4446 4.80974 11.6466C4.76699 11.8486 4.85825 12.0972 4.85825 12.0972L4.96884 12.0738C4.96884 12.0738 4.96884 12.2175 5.07956 12.3147C5.19016 12.4098 5.20961 11.9922 5.20961 11.9922L5.62318 10.5961L6.24641 10.1728L6.31438 9.83108L5.86971 9.56702H5.86996Z" fill="#F5EEC0"/>
<path fill-rule="evenodd" clip-rule="evenodd" d="M6.1729 10.2C6.1729 10.2 5.87965 10.2193 5.73603 10.3243C5.67779 10.3669 5.6545 10.4019 5.59242 10.4543C5.47786 10.5495 5.36125 10.6369 5.30506 10.7615C5.24285 10.8857 5.17488 11.0741 5.12829 11.4295C5.10883 11.579 5.10883 11.7168 5.09527 11.8373C5.07581 12.0003 5.04675 12.1304 5.06224 12.2213C5.0817 12.4076 5.27395 12.5048 5.29264 12.7164L5.69072 12.5145L6.06551 11.0367L6.86167 10.5375L6.41111 10.0327L6.17239 10.1991L6.1729 10.2Z" fill="#E6DB9D"/>
<path fill-rule="evenodd" clip-rule="evenodd" d="M4.07264 20.1509C4.0743 20.1363 4.07597 20.1217 4.07763 20.1067C4.13574 19.6075 4.1456 19.2292 4.18822 18.9922C4.2503 18.6564 4.29305 18.5314 4.28333 18.4057C4.26976 18.2039 4.25427 18.0563 4.27373 17.9009C4.30278 17.6951 4.50477 17.4505 4.49901 17.2815C4.49504 17.1475 4.42707 17.0602 4.36883 16.9787C4.31059 16.8971 4.264 16.8292 4.264 16.8292C4.264 16.8292 4.66208 16.5554 4.65824 15.4524C4.66637 15.4547 4.67419 15.458 4.68153 15.4621L4.87763 16.0193L5.01165 16.1824L5.52621 17.1416L6.18835 17.7844L7.16691 18.4426L7.78054 19.1104L7.84262 20.891L7.0407 21.9318L6.90937 22.1696C5.86601 21.6458 4.90924 20.9649 4.07251 20.1508L4.07264 20.1509Z" fill="#E5CB7A"/>
<path fill-rule="evenodd" clip-rule="evenodd" d="M6.52246 21.8543C6.52246 21.8543 6.53603 21.633 6.71856 21.4892C6.74774 21.5377 6.76707 21.5845 6.76131 21.6193C6.79433 21.5612 7.02537 21.1883 7.54774 21.0912C8.07011 20.9961 8.19632 20.6155 8.19632 20.6155L9.30492 19.6078L10.5729 18.4408L12.1147 17.899L12.8352 17.7222C12.8352 17.7222 12.8487 17.7747 12.8216 17.8912C12.9555 17.8816 13.2526 17.8136 13.5613 17.7048C13.6856 17.6563 13.8022 17.6368 13.8643 17.7009C13.9555 17.7863 13.9691 17.9883 13.9749 18.1086C14.1244 18.0756 14.2972 17.932 14.4357 17.9456C14.6571 17.9689 14.8532 18.2291 15.0785 18.2291C15.3756 18.2291 15.5095 18.0465 15.7173 17.9028C15.8416 17.8174 16.0202 17.7108 16.1212 17.6387C16.3619 17.462 18.9095 16.6833 18.9095 16.6833L19.8027 16.7416L19.9465 17.7008L19.8697 20.2083C19.8602 20.2174 19.8507 20.2269 19.8411 20.236L15.7799 22.3571L10.1505 23.2201C8.88948 23.014 7.67258 22.5955 6.55164 21.9822L6.52284 21.8542L6.52246 21.8543Z" fill="#D8C173"/>
<path fill-rule="evenodd" clip-rule="evenodd" d="M4.41406 20.4699C4.49406 20.3026 4.566 20.1627 4.57867 20.1127C4.58865 20.2135 4.60696 20.4348 4.64382 20.6701C4.56642 20.6043 4.48984 20.5375 4.41406 20.4698V20.4699Z" fill="#F1D789"/>
<path fill-rule="evenodd" clip-rule="evenodd" d="M8.52629 22.8297L9.25435 22.6272L9.31643 22.6466C9.31643 22.6466 9.34945 22.6661 9.34945 22.732C9.44072 22.6797 9.51842 22.6893 9.57474 22.6544C9.60379 22.7165 9.63285 22.9223 9.7611 22.9476C9.89499 22.9767 10.0387 22.8893 10.1844 22.7787C10.328 22.6642 10.4916 22.5204 10.6154 22.4622C10.6608 22.5457 10.701 22.6319 10.7358 22.7204C10.8989 22.5903 11.1824 22.0622 11.5863 22.0718C11.703 21.7959 11.898 21.5604 12.1472 21.3941C12.5219 21.1398 12.7568 21.1204 13.0501 21.1437C13.1665 20.9924 13.3101 20.864 13.4734 20.765C13.5219 20.7845 13.6559 20.866 13.8229 20.7883C13.9919 20.7108 14.1821 20.4097 14.4326 20.3709C14.5676 20.3523 14.7048 20.3812 14.8209 20.4525C14.8209 20.4525 15.5505 19.7281 16.054 19.4873C16.0345 19.4291 15.9957 19.2097 16.5859 18.7242C16.619 18.7534 16.5957 18.8349 16.619 18.8394C16.6286 18.8394 16.7726 18.7773 16.9548 18.6374C17.1801 18.4686 17.4499 18.2918 17.613 18.2433C17.9202 18.152 18.2461 18.3384 18.2461 18.3384C18.2738 18.319 18.3047 18.3045 18.3374 18.2957C18.4149 18.2821 18.4712 18.2724 18.514 18.2573C18.5102 18.3582 18.5665 18.531 18.514 18.6805C18.5748 18.7147 18.6392 18.7421 18.706 18.7621C18.6731 18.8339 18.6012 19.0164 18.4808 19.1038C18.5817 19.1524 18.5953 19.2087 18.739 19.2574C18.6808 19.339 18.5854 19.4789 18.5429 19.5646C18.5002 19.6559 18.3467 20.0345 18.2787 20.1781C18.2069 20.3219 18.1099 20.586 18.0632 20.6389C18.0165 20.6919 17.8476 20.9166 17.7176 21.0272C17.8328 20.9844 18.3041 20.8408 18.504 20.7864C18.4445 20.8737 18.1428 21.3213 17.8528 21.7518C16.464 22.5842 14.9138 23.111 13.3055 23.2972C11.6971 23.4834 10.0676 23.3247 8.52539 22.8316L8.52629 22.8297Z" fill="#E0CD81"/>
<path fill-rule="evenodd" clip-rule="evenodd" d="M6.22086 10.1475C6.22086 10.1475 6.05203 10.1475 6.019 10.1708C5.98598 10.1941 6.18796 10.2428 6.25004 10.2661C6.31212 10.2893 6.44614 10.3961 6.48108 10.4816C6.51411 10.5631 7.69465 11.0388 7.69465 11.0388L8.5296 10.996L8.81747 10.5983L8.26988 10.1187L8.65388 8.98669L8.14521 9.06823L6.92192 9.79783L6.30828 10.0328L6.22086 10.1475Z" fill="#DFC57C"/>
<path fill-rule="evenodd" clip-rule="evenodd" d="M8.05432 10.5223C8.06639 10.5418 8.08339 10.5579 8.10361 10.5688C8.12383 10.5797 8.14656 10.5851 8.16952 10.5844C8.34232 10.5844 8.50142 10.6271 8.56747 10.7144C8.67819 10.8543 8.98501 11.3009 8.98501 11.3009L9.71896 11.565L9.76632 10.7007L8.9644 10.1436L8.05176 10.4794V10.5222H8.05381L8.05432 10.5223Z" fill="#E5CC7C"/>
<path fill-rule="evenodd" clip-rule="evenodd" d="M7.91036 10.8428C7.91036 10.8428 8.04425 10.8525 8.21321 10.7903C8.38217 10.7281 8.6598 10.5942 8.78025 10.6467C8.94908 10.7185 8.91414 10.9438 9.09679 11.1459C9.20739 11.2702 9.40937 11.2663 9.52393 11.4004C9.63849 11.5344 10.0326 11.4722 10.0326 11.4722L10.1821 12.2786L9.58217 13.0476L9.38595 14.0029H8.57468L7.83356 13.7088L7.46851 12.8256L7.65103 11.9325L7.91036 10.8428Z" fill="#D2C281"/>
<path fill-rule="evenodd" clip-rule="evenodd" d="M9.47974 10.8815C9.49986 10.8877 9.52077 10.891 9.54182 10.8913C9.51853 10.9107 9.46989 10.9534 9.48934 11.0641C9.5088 11.1748 9.57088 11.3146 9.51853 11.3999C9.56032 11.4456 9.59149 11.5 9.60979 11.5592C9.64282 11.6544 9.65254 11.7417 9.86797 11.7554C9.83688 11.7745 9.80821 11.7974 9.78259 11.8234C9.78259 11.8234 9.9321 11.9534 10.0079 12.0737C10.0854 12.0704 10.2913 12.0064 10.2913 12.0064L10.334 12.0356L10.4253 11.9972C10.4253 11.9972 10.3399 11.9642 10.402 11.7564C10.4602 11.5739 10.5127 11.5836 10.5172 11.5701C10.5217 11.5565 10.5599 11.3642 10.5599 11.2865C10.589 11.1857 10.6123 10.8789 10.6123 10.8789L10.5502 10.2012L10.2008 9.98951L9.91661 9.71521L9.64858 10.22L9.47206 10.396L9.4585 10.8329L9.47974 10.8815Z" fill="#E2C270"/>
<path fill-rule="evenodd" clip-rule="evenodd" d="M10.3203 10.3147C10.3203 10.3147 10.3824 10.4913 10.4058 10.6272C10.4141 10.6008 10.4186 10.5734 10.4194 10.5457C10.4194 10.5457 10.4679 10.8137 10.4775 10.9245C10.497 10.9205 10.5159 10.9147 10.5202 10.9341C10.5246 10.9534 10.5689 11.1691 10.5586 11.2894C10.6395 11.156 10.7514 11.0441 10.8848 10.9632C10.9625 10.9146 11.0538 10.8622 11.149 10.8583C11.2985 10.8544 11.4072 10.9535 11.5858 10.9535C12.0168 10.9535 12.4072 10.637 12.6946 10.5399C12.9062 10.468 13.0887 10.4157 13.2168 10.299C13.279 10.2467 13.3898 10.1302 13.4906 9.95728C13.6246 9.72688 13.7644 9.52631 13.9043 9.50109C13.841 9.51272 13.7766 9.51727 13.7123 9.51466C13.7123 9.51466 13.7551 9.47191 13.8275 9.41367C13.9 9.35543 13.9867 9.28362 14.1109 9.28362C14.3323 9.28362 14.4429 9.31652 14.5672 9.31652C14.6915 9.31268 14.7633 9.28362 14.7633 9.28362C14.7633 9.28362 14.8935 9.37488 15.1866 9.37488C15.4799 9.37872 15.676 9.40394 15.8294 9.41764C15.9829 9.43133 16.4973 9.37488 16.6449 9.37924C16.7411 9.38294 16.8356 9.40606 16.9227 9.4472L16.4469 8.0648L14.7378 6.57104L13.7204 7.29143L12.1552 8.85648L10.6407 9.41764L10.3242 9.77296V10.3147H10.3203Z" fill="#CCB360"/>
<path fill-rule="evenodd" clip-rule="evenodd" d="M13.7185 9.52231C13.7185 9.52231 13.7613 9.47968 13.8329 9.42144C13.9046 9.3632 13.9923 9.29127 14.1165 9.29127C14.3378 9.29127 14.4485 9.32429 14.5728 9.32429C14.6971 9.32045 14.7689 9.29127 14.7689 9.29127C14.7689 9.29127 14.8992 9.3824 15.1922 9.3824C15.4854 9.38624 15.6815 9.41146 15.835 9.42503C15.9885 9.4386 16.5029 9.3824 16.6505 9.38663C16.7467 9.39025 16.8411 9.41337 16.9281 9.4546L16.7126 8.83124L16.4622 8.35559L15.7476 7.573C15.7476 7.573 14.89 7.06816 14.8834 7.06432C14.8796 7.06048 14.5863 6.98279 14.5863 6.98279L13.8096 7.45268L13.1049 9.27604L13.0913 9.66004L13.5475 9.87559C13.6621 9.68359 13.7884 9.52999 13.9068 9.51053C13.7999 9.52218 13.7184 9.52218 13.7184 9.52218L13.7185 9.52231Z" fill="#D5B457"/>
<path fill-rule="evenodd" clip-rule="evenodd" d="M13.7087 9.65252C13.6407 9.65636 13.5846 9.64279 13.5689 9.59428C13.5107 9.43121 13.4641 9.40791 13.4153 9.40791C13.3666 9.40791 13.3008 9.51274 13.2617 9.52234C13.2227 9.53194 13.1764 9.40202 13.1764 9.40202L13.1336 9.38257C13.1336 9.38257 12.8831 9.54564 12.7065 9.7379C12.5298 9.93015 12.2404 10.2564 12.1104 10.3145C11.9803 10.3726 11.5336 10.3922 11.3808 10.4253C11.2279 10.4583 11.0585 10.569 11.0352 10.5942C11.0119 10.6194 11.1033 10.6466 11.1168 10.6718C11.1304 10.6951 10.9672 10.6854 10.9536 10.7102C10.944 10.7296 10.992 10.8402 11.0159 10.8966C11.0575 10.8758 11.1032 10.8646 11.1497 10.8635C11.2992 10.8597 11.408 10.9588 11.5866 10.9588C12.0177 10.9588 12.408 10.6422 12.6953 10.5451C12.9071 10.4733 13.0896 10.4208 13.2177 10.3043C13.2798 10.2519 13.3905 10.1353 13.4915 9.96254C13.5652 9.84414 13.6372 9.73342 13.7091 9.65188L13.7087 9.65252Z" fill="#D2B257"/>
<path fill-rule="evenodd" clip-rule="evenodd" d="M7.52628 19.2622C7.52628 19.2622 7.48788 19.1185 7.13204 18.7477C7.03105 18.6429 6.96897 18.5557 6.901 18.4934C6.73204 18.334 6.63297 18.2914 6.51265 18.2001C6.24859 18.004 5.96123 18.004 5.73991 17.7632C5.5186 17.5225 5.26068 17.0624 5.08148 16.5923C4.90484 16.1224 4.8562 15.9729 4.8562 15.9593C4.8562 15.9458 4.90484 15.8545 4.96692 15.8681C5.029 15.8816 5.029 16.002 5.04462 16.0311C5.07555 16.0788 5.11063 16.1236 5.14945 16.165C5.24071 16.27 5.37076 16.3954 5.43681 16.5826C5.42324 16.4233 5.36884 16.2467 5.36884 16.2467C5.36884 16.2467 5.7106 16.4622 6.0018 16.6874C6.29505 16.9127 6.41537 16.9904 6.501 17.134C6.58663 17.2776 6.78836 17.6564 6.885 17.7671C6.98164 17.8778 8.3058 18.2952 8.3058 18.2952L8.93569 18.7648L9.24839 19.4503L9.00366 19.8343L8.53377 19.9353L7.77063 19.5935L7.52628 19.2621V19.2622Z" fill="#D2B159"/>
<path fill-rule="evenodd" clip-rule="evenodd" d="M5.83105 16.901C5.83105 16.901 5.99029 17.1554 6.37864 17.3961C6.72821 17.6078 7.28155 17.8001 7.77486 17.9147C8.05825 17.9826 8.34178 18.035 8.59611 18.0389C9.28155 18.0485 9.75336 17.8526 10.3379 17.7884C10.6545 17.7554 11.0428 17.7302 11.4467 17.6348C11.9651 17.5106 12.2719 17.3707 12.6894 17.174C12.9923 17.0343 13.27 16.9294 13.4952 16.7954C13.8117 16.6091 14.0428 16.4013 14.3108 16.3392C14.2778 16.4305 14.2428 16.5936 13.9788 16.7625C14.1185 16.7586 14.3108 16.749 14.3108 16.749C14.3108 16.749 14.1244 16.8596 13.7962 17.1081C13.5943 17.2617 13.3264 17.5217 13.0526 17.6945C12.8758 17.8052 12.6835 17.8865 12.5573 17.9528C12.2501 18.1218 12.1262 18.2071 11.9244 18.4136C11.9962 18.4098 12.0021 18.4136 12.0021 18.4136C12.0021 18.4136 11.7476 18.4466 11.5652 18.5436C11.5268 18.5436 11.4602 18.5301 11.3438 18.5631C11.2525 18.5922 11.132 18.6583 11.0079 18.6932C10.8311 18.7456 10.773 18.7223 10.773 18.7223L10.8021 18.7806C10.8021 18.7806 10.5717 18.7766 10.4949 18.7844C10.5084 18.7883 10.5046 18.7941 10.5046 18.7941C10.4911 18.7964 10.4781 18.801 10.4662 18.8077C10.4292 18.8317 10.3886 18.8493 10.3459 18.8601C10.3226 18.8639 10.3031 18.8639 10.2739 18.8698C10.2837 18.8931 10.3594 19.0234 10.3944 19.1002C10.3653 19.1196 9.92834 19.4498 9.92834 19.4498C9.94189 19.4711 9.95297 19.4939 9.96136 19.5177C9.97493 19.5604 9.98082 19.6226 9.99438 19.6516C10.0273 19.7099 10.0467 19.7196 10.0467 19.7196C10.0467 19.7196 9.99438 19.7293 9.90299 19.7526C9.82542 19.7721 9.73019 19.805 9.59579 19.8244C9.55455 19.8298 9.51307 19.833 9.4715 19.8341C9.49096 19.8769 9.57633 20.04 9.41902 20.2283C9.26171 20.4165 9.2132 20.4439 9.16469 20.5643C9.14027 20.5458 9.11427 20.5295 9.08699 20.5156C9.03464 20.4923 8.9627 20.4575 8.93749 20.4108C8.92279 20.473 8.90332 20.5341 8.87925 20.5933C8.83074 20.7234 8.75893 20.8516 8.74536 20.9486C8.69288 20.8904 8.59586 20.7758 8.46184 20.7991C8.32782 20.8224 8.22107 21.005 8.19778 21.0574C8.19778 21.0244 8.17448 20.9992 8.16872 21.038C8.16475 21.0807 8.09102 21.5272 7.67938 21.8884C7.67554 21.7972 7.67554 21.5952 7.66581 21.5292C7.62741 21.5676 7.58043 21.6244 7.30075 21.7448C7.02696 21.8651 7.07035 21.9856 7.07035 21.9856C7.07035 21.9856 7.04706 21.7936 7.19464 21.5913C7.34414 21.3895 7.43541 21.2942 7.43541 21.2788C7.43299 21.263 7.42626 21.2482 7.41595 21.236C7.39649 21.2165 7.35771 21.1932 7.35771 21.1778C7.38101 21.1682 7.61205 21.0574 7.59848 20.8282C7.58491 20.6225 7.49762 20.5156 7.43541 20.44C7.42581 20.4302 7.5268 20.3584 7.5131 20.3351C7.50338 20.3216 7.37922 20.2302 7.3636 20.1815C7.36727 20.1525 7.37379 20.1239 7.38305 20.0962C7.39662 20.0534 7.40635 20.0242 7.40251 19.9952C7.39278 19.9467 7.3403 19.8126 7.32481 19.7991C7.33838 19.8029 7.43541 19.7991 7.43541 19.7991C7.43541 19.7991 7.35784 19.6748 7.34414 19.6165C7.33045 19.5583 7.30139 19.4048 7.2859 19.3758C7.31893 19.3796 7.40046 19.3854 7.40046 19.3758C7.40443 19.3466 7.32865 19.2981 7.36206 19.2606C7.38536 19.2644 7.43003 19.2839 7.47265 19.3383C7.44936 19.2761 7.41058 19.1557 7.32891 19.1072C7.36731 19.0937 7.49787 19.0586 7.61243 19.1266C7.72699 19.1945 7.76603 19.2896 7.76603 19.2896C7.76603 19.2896 7.834 19.3421 7.93896 19.4198C8.05928 19.5149 8.21262 19.6502 8.45736 19.746C8.50984 19.7751 8.64373 19.7751 8.74088 19.7557C8.78318 19.7456 8.82374 19.7293 8.8612 19.7072C8.87473 19.6992 8.88906 19.6927 8.90395 19.6877C8.88308 19.6458 8.85907 19.6056 8.83214 19.5673C8.86517 19.5673 8.90395 19.5712 8.90395 19.5712C8.90395 19.5712 8.92725 19.5188 8.82241 19.4176C8.84571 19.3943 8.87489 19.3792 8.87489 19.3399C8.84187 19.3361 8.78363 19.2876 8.77006 19.2681C8.78939 19.2546 8.81858 19.2099 8.8516 19.1963C8.82242 19.173 8.75061 19.0759 8.71758 19.0663C8.74913 19.0546 8.77966 19.0403 8.80885 19.0235C8.80885 19.0235 8.64577 18.9808 8.59329 18.9458C8.54081 18.9074 8.46325 18.841 8.41665 18.8215C8.36801 18.8021 8.28264 18.7925 8.24769 18.7536C8.28059 18.7633 8.33307 18.7536 8.37198 18.7536C8.40104 18.7536 8.41474 18.7574 8.42434 18.7574C8.4205 18.7438 8.4205 18.7147 8.49627 18.7051C8.53272 18.6996 8.56809 18.6884 8.6011 18.672C8.6011 18.672 8.52917 18.6682 8.4475 18.5905C8.36584 18.5128 8.298 18.4507 8.25141 18.441C8.2029 18.4313 8.11163 18.474 8.05531 18.47C7.97762 18.4604 7.94459 18.4215 7.94459 18.4215C7.94459 18.4215 7.68641 18.4448 7.11361 18.0954C6.61838 17.7924 6.40283 17.5245 6.40283 17.5245C6.35648 17.5077 6.31169 17.4869 6.26894 17.4623C6.08257 17.3653 5.82427 17.1633 5.83208 16.8991L5.83105 16.901Z" fill="#C2A44D"/>
<path fill-rule="evenodd" clip-rule="evenodd" d="M12.9747 5.2466C13.0197 5.26119 13.0596 5.28811 13.0899 5.32429C13.1812 5.42912 13.2394 5.62714 13.0317 5.83885C13.1132 5.86791 13.1469 5.87725 13.2181 5.86791C13.1463 5.95341 12.9832 6.13594 12.9735 6.29517C12.9637 6.42522 13.0453 6.46413 13.0453 6.46413C13.0453 6.46413 12.921 6.60775 12.9152 6.84813C12.9739 6.78194 13.0381 6.72088 13.1072 6.6656C13.251 6.55104 13.449 6.421 13.583 6.33946C13.5812 6.37363 13.5858 6.40785 13.5966 6.44032C13.5966 6.44032 13.8469 6.2345 14.0574 6.32589C14.1525 6.36864 14.1097 6.50253 14.1097 6.50253C14.1097 6.50253 14.2399 6.45402 14.3312 6.54528C14.4224 6.63655 14.5514 6.87194 14.6176 6.9632C14.6467 7.00596 14.7225 7.08749 14.8 7.2137C14.906 7.3904 14.9945 7.57701 15.0642 7.77088C15.0681 7.66989 15.0933 7.51271 15.3808 7.61165C15.6681 7.71264 15.9943 7.92436 16.2681 8.34125C16.5418 8.75815 16.6097 9.2288 16.7475 9.408C16.8873 9.5808 17.0311 9.86816 17.0408 9.98861C17.0505 10.1091 16.998 10.4973 17.2854 11.5478C17.3669 11.2216 17.4912 10.4973 17.4912 10.4973L17.5592 9.85844L17.6369 7.88173L15.5728 6.16692L13.9592 4.99597L12.9087 5.09696L12.9746 5.24647L12.9747 5.2466Z" fill="#CAA13E"/>
<path fill-rule="evenodd" clip-rule="evenodd" d="M16.8098 8.1883C16.8098 8.1883 16.7806 7.9963 16.2952 7.6699C15.8097 7.34759 15.4311 7.34759 15.0817 7.0738C14.8136 6.85825 14.5341 6.36302 14.3521 6.19994C14.1753 6.03879 14.1462 5.57274 14.1462 5.57274L14.7423 5.07354L15.6289 3.79214L16.3783 2.96692L16.7375 3.46612L17.2367 4.05249L17.5143 5.22919L17.6153 6.95156L16.8089 8.18842L16.8098 8.1883Z" fill="#B59544"/>
<path fill-rule="evenodd" clip-rule="evenodd" d="M17.4098 10.2528C17.4245 9.99163 17.3922 9.72991 17.3146 9.48009C17.1866 9.08201 16.9069 8.3752 16.777 8.11049C16.7245 7.81725 16.7634 7.79395 16.8197 7.76093C16.876 7.7279 17.0877 7.60733 17.2037 7.18429C17.3197 6.76125 17.6795 6.74742 17.6795 6.74742L17.9008 6.58435L18.2368 7.42505L18.5299 8.18435L18.6212 8.76496L18.6891 9.26006L18.5299 10.3067L17.7436 11.0174L17.4097 10.2528H17.4098Z" fill="#C89D3A"/>
<path fill-rule="evenodd" clip-rule="evenodd" d="M6.43701 21.9186V21.8971C6.45335 21.8869 6.46778 21.8739 6.47964 21.8587C6.4932 21.8393 6.50306 21.816 6.51266 21.8102C6.53212 21.8005 6.62338 21.7718 6.67189 21.781C6.7204 21.7902 6.84866 21.8431 6.91663 21.8393C7.0564 21.8354 7.21948 21.7286 7.47778 21.7772C7.86613 21.849 7.9574 22.1131 8.18268 22.2626C8.33628 22.3675 8.49525 22.3208 8.51855 22.3208H8.5709C8.58063 22.3208 8.65244 22.2393 8.69135 22.2432C8.76904 22.2471 8.77672 22.3112 8.82524 22.315C8.9398 22.3286 9.16124 22.2568 9.27196 22.286C9.30479 22.2963 9.33464 22.3143 9.35898 22.3387C9.38332 22.363 9.40142 22.3928 9.41173 22.4256C9.43503 22.4974 9.41557 22.5887 9.35925 22.6412C9.23893 22.7518 9.12437 22.8567 9.10108 22.9484C9.13071 22.971 9.15916 22.9951 9.18632 23.0206C8.22558 22.7758 7.30121 22.4057 6.43701 21.9198V21.9186Z" fill="#CEB052"/>
<path fill-rule="evenodd" clip-rule="evenodd" d="M16.7766 18.0389C16.7766 18.0389 17.0795 17.635 17.1844 17.435C17.2893 17.2288 16.8524 14.6176 16.8524 14.6176L17.7301 11.7419L17.7067 10.806C17.7067 10.806 17.7494 9.94184 17.8504 9.56706C17.9709 9.78261 18.3456 10.0428 18.4272 10.1807C18.4656 9.9165 18.596 9.35931 18.5767 8.76514C18.6485 8.87573 18.8213 9.98843 18.8213 9.98843L18.9941 10.7379L19.2194 11.534L19.4699 12.3749L19.6194 12.9555L19.7047 13.0952L19.7767 13.3399L19.8446 13.604L20.0407 14.2234L20.1559 14.7321L20.2472 15.6545C20.2671 15.7251 20.2813 15.7972 20.29 15.87C20.2938 15.971 20.2764 16.0293 20.2764 16.0468C20.2764 16.0643 20.3094 16.2681 20.2958 16.4216C20.2764 16.5752 20.2764 16.6954 20.1559 16.8056C20.0355 16.9158 19.9598 17.5745 19.9598 17.5745L19.7443 17.4309C19.7443 17.4309 19.787 17.2346 19.6861 17.0561C19.5851 16.8775 19.389 16.8405 19.2782 16.8697C19.1677 16.893 18.9463 16.9278 18.8744 16.99C18.8064 17.0521 18.6395 17.2444 18.4861 17.3318C18.2941 17.447 17.9812 17.4561 17.8143 17.4949C17.6453 17.5333 17.459 17.6485 17.2628 17.7822C17.1089 17.8818 16.9465 17.9675 16.7774 18.0382L16.7766 18.0389Z" fill="#CCA847"/>
<path fill-rule="evenodd" clip-rule="evenodd" d="M16.7766 22.2816C16.7766 22.2816 16.7894 22.2899 16.8141 22.3035C18.1936 21.6571 19.4297 20.741 20.4493 19.6091C20.4382 19.2161 20.4237 18.8133 20.4078 18.664C20.3749 18.3475 20.3982 18.0252 20.3885 17.8388C20.3788 17.6524 20.274 16.8932 20.2254 16.6971C20.173 16.501 20.0718 16.4038 20.0565 16.4038C20.0429 16.4078 19.9613 16.7728 19.9613 16.8646C19.9613 16.9564 19.9418 17.1773 19.9418 17.2336C19.9282 17.2297 19.9225 17.1952 19.9225 17.1812C19.903 17.2297 19.8797 17.3152 19.87 17.3249C19.8603 17.3346 19.8836 17.2434 19.87 17.2239C19.8564 17.2044 19.8316 17.2142 19.837 17.1657C19.8393 17.1369 19.8438 17.1084 19.8505 17.0803C19.8505 17.0803 19.7923 17.1657 19.7497 17.3831C19.7069 17.5987 19.7069 17.6046 19.6914 17.6239C19.6779 17.6473 19.6002 17.7249 19.5962 17.7541C19.5924 17.8064 19.6681 17.8589 19.6739 17.888C19.6777 17.9366 19.6059 18.1618 19.5826 18.272C19.5593 18.3822 19.5691 18.5981 19.5442 18.7088C19.5248 18.8098 19.5058 18.8681 19.4394 18.9107C19.4879 18.9204 19.5345 18.934 19.5345 18.934C19.5345 18.934 19.6025 19.2213 19.4297 19.4661C19.3676 19.5515 19.3521 19.5904 19.2861 19.6681C19.1559 19.8117 19.0549 19.9753 19.0452 20.0816C19.0384 20.0502 19.0339 20.0184 19.0316 19.9864C19.0316 19.9864 18.8297 20.2214 18.7442 20.3554C18.6336 20.5282 18.4802 20.5185 18.437 20.5612C18.3939 20.604 18.3845 20.6816 18.3986 20.7438C18.3602 20.7534 18.288 20.7671 18.2394 20.9166C18.2161 20.9941 18.1579 21.0702 18.0666 21.1224C17.9753 21.1746 17.8646 21.1904 17.8083 21.2039C17.8568 21.2175 17.8763 21.2175 17.8996 21.233C17.8705 21.2815 17.7365 21.3573 17.587 21.4544C17.4375 21.5457 17.3655 21.6796 17.3287 21.767C17.2903 21.8485 17.2336 21.901 17.1423 21.9108C17.1807 21.934 17.2375 21.9883 17.2666 22.0059C17.2238 22.0156 17.1514 22.0156 17.022 22.1263C16.8861 22.2389 16.8395 22.272 16.7773 22.2817L16.7766 22.2816Z" fill="#C39D3C"/>
<path fill-rule="evenodd" clip-rule="evenodd" d="M14.0749 23.1814C14.1492 23.1293 14.2297 23.0866 14.3146 23.0543C14.6174 22.934 14.9378 22.9107 15.064 22.8719C15.1845 22.8335 15.2796 22.7805 15.4291 22.7515C15.4251 22.7855 15.4218 22.8175 15.4182 22.8477C14.9775 22.9863 14.5286 23.0977 14.0742 23.1814H14.0749Z" fill="#D2BA6B"/>
<path fill-rule="evenodd" clip-rule="evenodd" d="M19.6609 15.2156C19.6609 15.2156 19.5988 15.5514 19.4881 15.7631C19.3774 15.9749 19.2577 16.268 19.2577 16.268C19.2584 16.2019 19.2662 16.1361 19.281 16.0718C19.1412 16.1533 18.8014 16.3495 18.705 16.4368C18.6137 16.5183 18.4603 16.6621 18.4215 16.7301C18.5127 16.4622 18.6078 16.2214 18.6235 16.1107C18.4837 16.2117 17.8311 16.7495 17.4914 17.1048L16.4331 17.9612C16.311 18.027 16.1852 18.0859 16.0564 18.1375C15.874 18.2151 15.6585 18.2812 15.4992 18.3434C15.542 18.2288 15.6098 18.1277 15.7051 18.0307C15.8061 17.9356 16.1089 17.6074 16.1555 17.4547C16.1983 17.2954 16.208 17.2003 16.1517 17.0663C16.0992 17.0799 15.9789 17.0858 15.8973 17.1091C15.8158 17.1324 15.7284 17.2197 15.7284 17.2197C15.7284 17.2197 15.7904 16.8643 15.9245 16.5285C15.8235 16.5323 15.6507 16.5614 15.6507 16.5614C15.6507 16.5614 15.8914 16.1575 16.3035 15.876C16.1773 15.9029 16.0538 15.9412 15.9346 15.9905C15.6938 16.0915 15.4297 16.241 15.2336 16.3225C15.3442 16.1689 16.1209 15.0604 16.5831 14.0273C17.0439 12.9963 17.2161 12.7322 17.3171 12.1789C17.3695 11.9051 17.3555 11.5005 17.3695 11.1381C17.383 10.7788 17.4277 10.4565 17.3986 10.241C17.519 10.3905 17.9695 10.8118 17.985 11.7537C17.9986 12.6954 17.554 13.9673 17.0821 14.6526C17.1973 14.6856 17.4958 14.7246 17.8025 14.1918C18.1092 13.6591 18.1055 13.5103 18.2162 13.2889C18.2297 13.3996 18.2258 13.4384 18.2258 13.4384C18.2258 13.4384 18.6725 12.8967 18.8841 12.2151C18.9268 12.5084 19.053 12.7667 18.8549 13.3045C18.6783 13.7899 18.4472 13.9084 18.4472 13.9084C18.4472 13.9084 18.5618 13.889 18.7306 13.788C18.7598 13.8598 18.754 13.9416 18.8025 13.9705C18.851 13.9994 18.9171 14.0482 18.9268 14.0948C18.9792 14.0171 19.0607 13.918 19.0861 13.8443C19.0666 13.9979 19.053 14.6695 19.1245 15.0113C19.2741 14.9977 19.4274 14.988 19.5323 14.718C19.4605 14.9822 19.4605 15.1413 19.509 15.3666C19.5886 15.3123 19.6604 15.2152 19.6604 15.2152L19.6609 15.2156Z" fill="#C0993A"/>
<path fill-rule="evenodd" clip-rule="evenodd" d="M14.6157 4.51268C14.6157 4.51268 14.4662 4.57476 14.2118 4.57476C13.9905 4.57476 14.0526 4.48938 13.707 4.48938C13.175 4.48938 11.3167 4.79658 10.9904 4.79223C10.7787 4.78839 11.7049 4.88349 11.7049 4.88349L14.072 4.91652L14.5477 4.87812L14.7245 4.51844L14.6157 4.51268Z" fill="#A88F33"/>
<path fill-rule="evenodd" clip-rule="evenodd" d="M8.4777 9.1398C8.4777 9.1398 8.17472 9.37084 8.04659 9.54761C7.91847 9.72438 7.8505 9.84073 7.70483 9.98447C7.73903 9.98578 7.77319 9.98119 7.80583 9.9709C7.80583 9.9709 7.80583 10.0093 7.78253 10.0194C7.80266 10.0172 7.82304 10.0194 7.84218 10.0261C7.86131 10.0327 7.87872 10.0436 7.89312 10.0578C7.85037 10.0811 7.73389 10.1977 7.82515 10.3356C7.89312 10.4404 8.03687 10.45 8.03687 10.45C8.03687 10.45 8.00384 10.5452 8.1417 10.5355C8.43879 10.5219 8.77082 10.3918 8.92416 10.4248C9.07776 10.4632 9.16506 10.4773 9.27373 10.6657C9.38893 10.8521 9.48928 10.8812 9.48928 10.8812C9.48928 10.8812 9.55725 10.7083 9.54176 10.4501C9.59749 10.311 9.62838 10.1631 9.63303 10.0133L9.53203 9.26959L9.09133 8.71228L8.52045 9.02882L8.4777 9.13942V9.1398Z" fill="#E3C571"/>
<path fill-rule="evenodd" clip-rule="evenodd" d="M9.01929 9.02917C9.01929 9.02917 9.06204 9.13016 9.24073 9.13976C9.22127 9.18251 9.22127 9.1884 9.22716 9.22129C9.231 9.25432 9.23676 9.30283 9.23676 9.30283C9.25643 9.29331 9.27421 9.2803 9.28924 9.26443C9.29897 9.30718 9.27951 9.37502 9.28924 9.42366C9.29524 9.45324 9.30501 9.48194 9.31829 9.50904C9.32113 9.5024 9.32438 9.49594 9.32802 9.48971C9.33186 9.47998 9.36642 9.59454 9.46204 9.68171C9.46196 9.66831 9.46526 9.6551 9.47164 9.64331C9.4731 9.66766 9.48116 9.69115 9.49493 9.71128C9.48778 9.70787 9.48125 9.70328 9.47561 9.69771C9.47561 9.69771 9.48521 10.0049 9.53769 10.1638C9.54646 10.1535 9.55426 10.1424 9.56098 10.1307C9.56098 10.1211 9.55714 10.2162 9.54742 10.2843C9.53385 10.3523 9.54357 10.4474 9.54357 10.4474C9.57858 10.4198 9.61706 10.397 9.65801 10.3794C9.71625 10.356 9.81161 10.2842 9.86972 10.125C9.90343 10.0348 9.92942 9.94192 9.94742 9.84734C9.96619 9.88349 9.97915 9.92236 9.98582 9.96254C9.98978 10.0111 10.081 9.98584 10.081 9.98584L10.1005 9.77413L10.2157 9.29451L10.3205 8.99742L10.8254 8.21112L11.7375 7.50865L12.5337 7.69118L13.2054 6.77854L12.0482 6.08337L10.953 6.19793L9.95906 7.57457L9.16303 8.82321L9.01929 9.02904V9.02917Z" fill="#D8B65B"/>
<path fill-rule="evenodd" clip-rule="evenodd" d="M14.7553 7.03689C14.7553 7.03689 14.6873 7.05046 14.4912 7.15209C14.2951 7.25372 14.1592 7.28598 14.0834 7.43548C14.0077 7.58498 14.0019 7.70351 14.0019 7.70351C14.0019 7.70351 14.1359 7.64527 14.2136 7.62582C14.2951 7.60649 14.3864 7.61225 14.3767 7.64527C14.3673 7.66792 14.3544 7.68889 14.3383 7.70735C14.3383 7.70735 14.4919 7.70351 14.4878 7.77929C14.4837 7.85506 14.4587 7.93852 14.4297 7.97538C14.4005 8.01378 14.2802 8.07062 14.2666 8.11529C14.2336 8.20655 14.2802 8.21039 14.2626 8.28412C14.2491 8.35606 14.1851 8.49583 13.9753 8.74044C13.7597 8.98518 13.6681 9.15798 13.6681 9.15798C13.6681 9.15798 13.5632 8.96188 13.5088 8.79292C13.4704 8.81225 13.2642 8.92681 13.2642 8.92681L12.7865 7.26281L12.7961 7.15209C12.7961 7.15209 12.8389 7.09974 12.8486 7.00258C12.7768 6.97929 12.7671 6.95983 12.6719 6.8687C12.5766 6.77756 12.4991 6.66671 12.3399 6.59094C12.3167 6.54818 12.2875 6.49007 12.171 6.46665C12.0545 6.44322 11.9846 6.42402 11.9846 6.42402C11.9846 6.42402 12.0467 6.4006 12.0759 6.35209C12.0039 6.36182 11.9458 6.38511 11.7885 6.38127C11.6293 6.3773 11.6118 6.37154 11.5245 6.38511C11.4372 6.39868 11.3325 6.43759 11.2934 6.30358C11.2507 6.27055 11.1594 6.29974 11.0817 6.41417C11.004 6.5286 10.9769 6.61999 10.8274 6.66466C10.8169 6.73057 10.7938 6.79383 10.7594 6.85103C10.7167 6.92297 10.6487 6.99478 10.5574 7.10153C10.4137 7.27049 10.437 7.54812 10.2079 7.75983C9.97681 7.97142 10.2463 7.17334 10.2463 7.17334L10.6151 6.29014L11.6656 5.26294L13.2967 5.15234L13.456 5.99714L14.2521 6.27094L14.7551 7.03791L14.7553 7.03689Z" fill="#D3AE4D"/>
<path fill-rule="evenodd" clip-rule="evenodd" d="M15.0136 7.22336L14.3282 6.23507L13.8486 5.86605C13.8486 5.86605 13.5068 5.23705 13.4835 5.2176C13.464 5.20403 13.1417 5.16909 12.9359 5.15552L12.9743 5.25062C13.0192 5.26521 13.0592 5.29214 13.0895 5.32832C13.1808 5.43315 13.239 5.63117 13.0313 5.84288C13.1128 5.87193 13.1465 5.88128 13.2176 5.87193C13.1458 5.95744 12.9828 6.13997 12.973 6.2992C12.9633 6.42925 13.0448 6.46803 13.0448 6.46803C13.0448 6.46803 12.9206 6.61177 12.9148 6.85203C12.9735 6.78584 13.0377 6.72478 13.1068 6.6695C13.2505 6.5543 13.4486 6.42477 13.5826 6.34323C13.5807 6.37745 13.5853 6.4117 13.5961 6.44422C13.5961 6.44422 13.8465 6.2384 14.0569 6.32966C14.152 6.37241 14.1093 6.50643 14.1093 6.50643C14.1093 6.50643 14.2395 6.45792 14.3307 6.54918C14.422 6.64045 14.552 6.87533 14.6181 6.96672C14.6471 7.00947 14.7229 7.09101 14.8005 7.21709C14.9065 7.39381 14.995 7.58047 15.0647 7.7744C15.0685 7.6967 15.0841 7.58803 15.2183 7.58803L15.0144 7.22297L15.0136 7.22336Z" fill="#CAA13E"/>
<path fill-rule="evenodd" clip-rule="evenodd" d="M4.73787 10.0311C4.73787 10.0311 4.68936 9.91061 4.73787 9.67573C4.78638 9.44085 4.86216 9.33013 4.88737 8.98453C4.91259 8.63893 5.13787 8.20783 5.13787 8.20783L5.7611 7.92444L6.20193 8.04476L6.33198 8.63509L5.77467 8.94229C5.77467 8.94229 5.74561 9.07234 5.5883 9.17717C5.43099 9.28201 5.21352 9.36354 5.16117 9.47042C5.12987 9.53587 5.10703 9.60503 5.0932 9.67625C5.0932 9.67625 4.93397 9.64322 4.83886 9.74805C4.73787 9.85493 4.74171 9.95004 4.73787 10.0316V10.0311Z" fill="#F4EFC8"/>
<path fill-rule="evenodd" clip-rule="evenodd" d="M5.99612 9.87374C5.99612 9.87374 5.94364 9.90677 5.90485 9.98894C5.86645 9.92686 5.77468 9.55784 5.77084 9.22581C5.767 8.89377 5.74716 8.81147 5.82396 8.69704C5.90076 8.58261 6.20194 8.46203 6.15919 8.25595C6.11644 8.05985 5.93775 7.97832 5.71836 8.03464C5.56476 8.07304 5.45045 8.39969 5.29122 8.56276C5.17077 8.68705 5.02716 8.6676 4.98837 8.73556C4.93589 8.82683 4.98441 8.91809 4.96892 8.97633C4.96495 8.99579 4.91644 9.10062 4.82901 9.22683C4.65237 9.48117 4.35337 9.84046 4.31445 10.1628C4.32802 9.98024 4.31842 9.9764 4.36693 9.77441L4.33775 9.7259L4.52975 9.09678L4.65404 8.57838L4.9318 7.71029L5.42101 6.82299L5.89679 6.29089L6.39189 6.32392L6.45013 7.0676L6.73365 8.46382L7.32975 9.19777L6.37436 9.84072L5.99573 9.87374H5.99612Z" fill="#EBCC73"/>
<path fill-rule="evenodd" clip-rule="evenodd" d="M6.29314 10.1376C6.29314 10.1376 6.2116 10.157 6.18242 10.1415C6.15323 10.126 6.12431 10.1085 6.13391 10.0891C6.14351 10.0696 6.19599 10.0367 6.19599 10.0211C6.19706 10.007 6.1926 9.993 6.18354 9.98212C6.17448 9.97125 6.16155 9.96433 6.14747 9.96284C6.1028 9.95708 6.08923 9.98614 6.08923 9.98614C6.08923 9.98614 6.04648 9.95324 6.01167 9.94774C6.03226 9.94522 6.05299 9.94389 6.07374 9.94377C6.02009 9.91947 5.96317 9.90312 5.90479 9.89526C5.9533 9.8662 6.04853 9.7807 6.11061 9.7807C6.17269 9.7807 6.2116 9.7711 6.20187 9.73808C6.19215 9.70505 6.14363 9.65654 6.09128 9.63708C6.11061 9.61379 6.1243 9.57884 6.07771 9.48348C6.02907 9.38838 6.04853 9.32425 6.06414 9.30108C6.07771 9.2719 6.12623 9.21955 6.14952 9.18652C6.17282 9.1535 6.19227 9.10883 6.23106 9.08553C6.25051 9.07196 6.31259 9.04713 6.3748 9.02345C6.44277 9.00016 6.49909 8.97097 6.53787 9.00016C6.58062 9.02921 6.56117 9.06812 6.56117 9.06812C6.56117 9.06812 6.69518 9.01948 6.8155 9.08169C6.93595 9.1398 7.2292 9.1768 7.2292 9.1768L7.33429 9.38851L6.63912 9.9846L6.35176 10.1283L6.29352 10.1379L6.29314 10.1376Z" fill="#E5C66B"/>
<path fill-rule="evenodd" clip-rule="evenodd" d="M7.2583 9.16311C7.2583 9.16311 7.04275 9.30685 6.99424 9.35921C7.0233 9.36317 7.07181 9.38263 7.05235 9.41169C7.02906 9.44074 6.88928 9.54173 6.81158 9.63697C6.73005 9.73207 6.65235 9.85252 6.62522 9.91076C6.59616 9.96311 6.37472 10.1166 6.29907 10.1359C6.4583 10.1359 6.77869 9.93981 6.89901 9.93981C6.89517 9.99805 6.93203 10.0641 7 10.0699C7.06797 10.0756 7.26406 10.1126 7.52813 9.94954C7.79219 9.79031 7.7049 9.67178 7.81549 9.59421C8.0272 9.45431 8.11258 9.33002 8.22906 9.25245C8.34554 9.17489 8.40582 9.15722 8.40582 9.15722C8.40582 9.15722 8.40966 9.09898 8.44422 9.10487C8.45368 9.10595 8.46267 9.1096 8.4702 9.11542C8.47774 9.12125 8.48354 9.12902 8.48698 9.13789C8.48698 9.13789 8.68896 8.99415 8.94778 8.95537C8.94174 8.95267 8.93691 8.94784 8.93421 8.9418C8.93421 8.9418 8.95354 8.93207 8.9575 8.92234C8.9575 8.92234 8.97107 8.90289 8.9808 8.91261C8.99053 8.92234 9.0041 8.99415 9.02355 9.02333C9.0663 9.00388 9.14784 8.82135 9.14784 8.82135L9.34406 8.2602V7.74756L9.19046 7.77674L8.03846 8.26596L7.33933 8.99031L7.25779 9.16311H7.2583Z" fill="#E6BD62"/>
<path fill-rule="evenodd" clip-rule="evenodd" d="M10.5747 6.64861C10.637 6.63349 10.6967 6.60925 10.7519 6.57668C10.7286 6.63888 10.7286 6.70685 10.6276 6.85444C10.5267 7.00202 10.5228 7.0234 10.4413 7.17674C10.3597 7.33597 10.35 7.56509 10.2723 7.66596C10.3071 7.64903 10.3445 7.63792 10.3829 7.63306C10.3829 7.63306 10.3053 7.70103 10.2723 7.77284C10.2393 7.84464 10.1811 7.99415 10.0374 8.08554C9.89382 8.17693 9.71117 8.23504 9.51507 8.4506C9.31885 8.66218 9.11699 8.93021 9.01587 9.0266C9.06835 8.93533 9.14016 8.7528 9.15961 8.63248C9.17907 8.51216 9.15565 8.36829 9.18867 8.20919C9.22169 8.05008 9.22169 7.9354 9.38067 7.65764C9.53965 7.37988 9.81177 6.41488 9.81177 6.41488L10.3981 6.22852L10.5749 6.64797L10.5747 6.64861Z" fill="#B6933F"/>
<path fill-rule="evenodd" clip-rule="evenodd" d="M10.1513 6.2932C10.1513 6.2932 9.9747 6.54754 9.92619 6.77282C9.87767 6.9981 9.92222 6.97864 9.89316 7.08936C9.87578 7.15687 9.87578 7.22768 9.89316 7.29519C9.95434 7.19663 10.0381 7.11406 10.1375 7.05429C10.3046 6.95343 10.4405 6.88149 10.5215 6.79612C10.603 6.70485 10.671 6.55535 10.8477 6.44079C10.7758 6.43106 10.6749 6.39804 10.6557 6.40239C10.7276 6.32085 10.943 6.19656 11.1605 6.04706C11.376 5.89346 11.3625 5.83151 11.712 5.67816C11.5975 5.69762 11.5431 5.66844 11.4478 5.67816C11.4862 5.59663 11.6206 5.55772 11.755 5.42383C11.8894 5.28994 11.6697 5.0918 11.6697 5.0918L10.6457 5.71119L10.1506 6.29372L10.1513 6.2932Z" fill="#C49937"/>
<path fill-rule="evenodd" clip-rule="evenodd" d="M7.3728 5.831L7.3961 5.64463L7.68935 5.17475L7.99616 4.34953V3.22134L7.97287 2.56892L8.02138 2.14166L8.05824 2.00585L8.09716 1.95337L8.34752 2.08342L8.69325 2.55331L8.72627 3.46019L8.39027 4.89123L7.43104 5.93788L7.3728 5.831Z" fill="#DFC068"/>
<path fill-rule="evenodd" clip-rule="evenodd" d="M8.13597 1.90093C8.13597 1.90093 7.98237 1.9049 7.9496 2.54375C7.91683 3.18259 7.90096 3.51847 7.87766 3.83501C7.85437 4.15155 7.8001 4.34368 7.77283 4.53018C7.74557 4.71667 7.73008 4.97088 7.64278 5.12627C7.60438 5.19808 7.52234 5.42336 7.33008 5.59232C7.11453 5.77869 6.79248 5.90887 6.74371 5.9186C6.65821 5.93792 6.22518 5.98067 6.04854 6.07783C5.98646 6.11085 5.87958 6.14963 5.76118 6.26035C5.52618 6.47194 5.2136 6.85056 4.98832 7.30688C4.64272 7.98848 4.29712 9.91271 4.29712 9.91271L4.37482 9.78266C4.37482 9.78266 4.38454 9.60986 4.55734 9.30688C4.7263 9.00403 4.67779 8.6642 4.91267 8.08359C5.00394 7.86228 5.1185 7.57491 5.25827 7.33018C5.47971 6.9321 5.74762 6.59034 6.01757 6.40397C6.45827 6.10112 6.94378 6.03507 6.94378 6.03507L7.46614 5.68947C7.46614 5.68947 7.55741 5.51283 7.67786 5.31085C7.84669 5.02746 8.06186 4.71091 8.10883 4.25075C8.18077 3.56915 8.00784 3.12256 8.01757 2.71872C8.0273 2.31488 8.03114 2.01779 8.1128 1.94586C8.19446 1.87392 8.1361 1.90119 8.1361 1.90119L8.13597 1.90093Z" fill="#A88F33"/>
<path fill-rule="evenodd" clip-rule="evenodd" d="M8.136 4.94946C8.136 4.94946 8.3664 4.38242 8.47187 3.8795C8.49132 3.77851 8.53011 3.67765 8.53984 3.59611C8.58835 3.12034 8.60192 2.92424 8.53984 2.66402C8.49132 2.47202 8.30496 2.29896 8.2078 2.16482C8.1127 2.02491 8.06803 1.97282 8.08748 1.94338C8.10694 1.91394 8.18259 1.86581 8.25632 1.87157C8.33469 1.87385 8.41178 1.89205 8.4829 1.92505C8.55401 1.95806 8.61768 2.00519 8.67001 2.06357C8.81952 2.23637 8.93792 2.82286 8.93792 2.82286L9.06246 3.59675L9.379 4.57147L8.13625 4.95022L8.136 4.94946Z" fill="#C99E3D"/>
<path fill-rule="evenodd" clip-rule="evenodd" d="M10.3009 4.35936C10.3009 4.35936 10.2581 4.37868 10.1806 4.35936C10.1839 4.39106 10.1784 4.42305 10.1647 4.45182C10.151 4.4806 10.1296 4.50503 10.1029 4.52243C10.0213 4.4894 9.25808 4.55545 9.25808 4.55545C9.25808 4.55545 8.90275 4.49324 8.79203 4.02336C8.71446 3.71065 8.85027 3.27968 8.8056 2.99616C8.73763 2.57862 8.64253 2.49696 8.6328 2.36704C8.62307 2.23712 8.61334 2.20396 8.61334 2.12243C8.57059 2.1127 8.54537 2.09913 8.50275 2.09913C8.49302 2.06073 8.51235 2.0272 8.46973 1.95923C8.49302 1.96896 8.65225 1.98841 8.83862 2.16505C8.99222 2.3088 8.99222 2.36115 9.01539 2.39033C9.04445 2.41939 9.27945 2.62073 9.38045 2.82144C9.48144 3.02214 9.67753 3.66214 9.72221 3.76697C9.73577 3.80972 9.76496 3.85248 9.83741 3.9495C9.95005 4.0894 10.115 4.3207 10.3014 4.3591L10.3009 4.35936Z" fill="#B58634"/>
<path fill-rule="evenodd" clip-rule="evenodd" d="M9.04272 2.40002C9.16035 2.59004 9.26603 2.7872 9.35914 2.99036C9.4737 3.24854 9.54167 3.46025 9.68541 3.63305C9.60772 3.4079 9.46986 2.96514 9.38832 2.80783C9.29706 2.64143 9.11069 2.46223 9.04272 2.40015V2.40002Z" fill="#A88F33"/>
<path fill-rule="evenodd" clip-rule="evenodd" d="M7.72244 5.59229C7.72244 5.59229 7.52634 5.6408 7.16128 5.83306C7.04084 5.89514 6.9264 5.94749 6.81568 5.99613C6.52807 6.12618 6.21959 6.24637 5.97485 6.31267C5.99431 6.33597 6.00391 6.34557 6.00391 6.34557C6.00391 6.34557 6.00391 6.4408 6.05639 6.49507C6.02733 6.52426 5.63885 6.78832 5.75354 7.67178C5.83111 7.64272 5.92237 7.60381 5.93594 7.60381C5.95936 7.60778 5.96512 7.67178 5.99418 7.67178C6.02324 7.67178 6.11847 7.63338 6.21946 7.50282C6.21562 7.5553 6.15738 8.08343 6.46996 8.43876C6.5282 8.37079 6.67578 8.14551 6.67578 8.14551L6.67962 8.0737C6.67962 8.0737 6.69319 7.8232 6.77485 7.59408C6.85652 7.36496 7.01562 7.196 7.01562 7.196L7.84647 6.00957L7.72218 5.59216L7.72244 5.59229Z" fill="#E6C367"/>
<path fill-rule="evenodd" clip-rule="evenodd" d="M6.94574 7.33437C6.9077 7.36125 6.86579 7.38218 6.82145 7.39645C6.80788 7.34794 6.78843 7.1809 6.90299 7.01782C7.037 6.8216 7.33012 6.56726 7.41166 6.36502C7.46414 6.23485 7.44084 5.9087 7.90689 5.49117C8.37294 5.07363 8.55534 4.93002 8.55534 4.93002L9.30875 4.55139L10.235 4.91645L9.7748 6.71997L9.41755 7.56477L7.99675 7.29686L6.94561 7.33437H6.94574Z" fill="#DCBA5A"/>
<path fill-rule="evenodd" clip-rule="evenodd" d="M7.48804 6.84468L7.66481 6.62337V6.46606C7.66481 6.46606 7.8609 6.41358 8.07248 6.19802C8.28407 5.98247 8.57732 5.5689 8.83562 5.59412C9.09393 5.6233 9.11914 6.15527 9.12887 6.3049C9.1386 6.45454 9.17162 6.79412 9.22397 6.97678C9.28221 7.1593 8.59485 7.8505 8.59485 7.8505L8.12804 8.20583L7.48804 6.84468Z" fill="#E9CE77"/>
<path fill-rule="evenodd" clip-rule="evenodd" d="M8.03491 8.68741C8.03491 8.68741 8.17866 8.46213 8.07331 8.41362C8.13539 8.27384 8.24995 8.12626 8.24995 8.12626C8.24995 8.12626 8.33149 7.9244 8.59555 7.67582C8.85962 7.42725 9.02282 7.26213 9.06557 7.09522C9.09192 6.98644 9.10626 6.87509 9.10832 6.76318C9.13687 6.78651 9.16741 6.80728 9.19958 6.82526C9.24234 6.84472 9.44419 7.01163 9.41514 7.34763C9.38608 7.68363 9.26154 7.82341 9.26154 7.82341C9.26154 7.82341 9.14122 7.94373 9.05584 8.00594C8.96445 8.06802 8.93155 8.13982 8.77808 8.14571C8.79385 8.13317 8.81158 8.12331 8.83056 8.11653C8.83056 8.11653 8.67133 8.0972 8.58582 8.17477C8.50032 8.25234 8.31856 8.49131 8.2273 8.56325C8.13603 8.62149 8.0353 8.68754 8.0353 8.68754L8.03491 8.68741Z" fill="#CDAE50"/>
<path fill-rule="evenodd" clip-rule="evenodd" d="M14.4912 4.91064C14.2618 4.82703 14.0207 4.77987 13.7767 4.77086C13.3689 4.75729 12.7728 4.78059 12.1883 4.78443C11.5592 4.78827 10.9883 4.56888 10.1961 4.53009C10.0661 4.4524 9.73533 4.11256 8.70288 4.83294C8.76496 4.8291 9.45245 4.67371 9.69117 4.97285C9.93194 5.26993 9.86397 5.77477 9.83107 5.89509C9.76887 6.16312 9.56688 6.55339 9.48547 6.82718C9.40407 7.10097 9.42327 7.24485 9.36503 7.43685C9.30679 7.62885 9.17866 7.72421 9.25431 7.94552C9.3553 7.88344 9.4079 7.88344 9.57661 7.50481C9.74531 7.12619 9.71063 6.85624 9.99031 6.53585C10.2641 6.21355 10.7199 5.77272 10.8932 5.662C11.0665 5.55128 12.4427 4.83678 13.8836 5.51838C14.2311 5.48152 14.4913 4.91051 14.4913 4.91051L14.4912 4.91064Z" fill="#D2A83E"/>
<path fill-rule="evenodd" clip-rule="evenodd" d="M9.28345 4.64642C9.28203 4.63183 9.2788 4.61747 9.27385 4.60367C9.26038 4.57527 9.24268 4.54908 9.22137 4.52597C9.22137 4.52597 8.87961 4.46389 8.70681 4.48322C8.40383 4.51625 8.13004 4.89103 8.00192 5.08329C7.87379 5.27554 7.71456 5.5725 7.54176 5.72597C7.54365 5.71102 7.5402 5.69588 7.53203 5.68322C7.53203 5.68322 7.54176 5.69679 7.52243 5.71625C7.5031 5.7357 7.50297 5.7453 7.5127 5.75465L7.54188 5.7837C7.55148 5.7837 7.81951 5.66325 8.18457 5.3229C8.57292 4.96757 8.87001 4.7853 9.0254 4.72284C9.10827 4.68762 9.19489 4.66198 9.28358 4.64642H9.28345Z" fill="#C29637"/>
<path fill-rule="evenodd" clip-rule="evenodd" d="M15.9128 3.1864C15.9128 3.1864 15.8506 3.26397 15.7729 3.34947C15.6001 3.532 15.3748 3.7377 15.1826 3.94941C15.0002 4.15139 14.7943 4.30871 14.5632 4.57277C14.332 4.83683 14.064 5.12995 13.9961 5.21546C13.934 5.30096 13.8855 5.44074 13.8855 5.51255C13.8525 5.48925 13.8137 5.46403 13.8137 5.46403C13.83 5.49452 13.8496 5.52318 13.872 5.54954C13.9205 5.61751 13.9961 5.70314 14.035 5.75536C14.0828 5.82184 14.117 5.89703 14.1359 5.97667C14.1592 5.98051 14.3087 6.0097 14.4952 5.70288C14.6817 5.39607 14.9262 5.06019 14.9262 5.06019L15.3145 4.48343L15.5593 3.99421L15.8665 3.44663L15.9132 3.1864H15.9128Z" fill="#AC8132"/>
<path fill-rule="evenodd" clip-rule="evenodd" d="M16.3107 2.79419C16.3107 2.79419 16.0757 2.98619 15.9844 3.10139C15.8932 3.21659 15.6772 3.51893 15.6772 3.51893L15.7549 3.5092L16.1492 3.15976L16.3028 2.88597L16.3106 2.7947L16.3107 2.79419Z" fill="#A88F33"/>
<path fill-rule="evenodd" clip-rule="evenodd" d="M16.2388 18.2253C16.2388 18.2253 16.235 18.066 16.3243 17.9709C16.4156 17.8757 16.6466 17.7359 16.8719 17.2116C17.0972 16.6873 17.1223 16.5689 17.1223 16.5689C17.1223 16.5689 16.7184 16.9145 16.4695 16.9961C16.5277 16.8756 16.5607 16.7903 16.5899 16.728C16.5569 16.699 16.4171 16.666 16.4036 16.6505C16.4811 16.5728 16.5239 16.3824 16.6812 16.2562C16.8832 16.1026 17.2521 15.8387 17.5388 15.6034C17.8255 15.3682 18.3892 14.821 18.4612 14.6617C18.5039 14.7238 18.5135 14.7626 18.5135 14.7626C18.5135 14.7626 18.2301 15.1316 18.0825 15.3665C17.9524 15.5685 17.9621 15.6831 17.9621 15.6831L18.2301 15.5679C18.2301 15.5679 18.3077 15.8552 17.9563 16.2922C18.1099 16.234 18.1719 16.2689 18.2592 16.2203C18.1154 16.3117 17.9174 16.436 17.731 16.7776C17.5485 17.1193 17.2999 17.5174 16.8806 17.7659C16.4728 18.028 16.2378 18.2241 16.2378 18.2241L16.2388 18.2253Z" fill="#A67A2E"/>
<path fill-rule="evenodd" clip-rule="evenodd" d="M15.1864 5.11266C15.1864 5.11266 15.0272 5.44456 15.0039 5.70287C15.0001 5.76508 14.9844 5.81359 14.9844 5.88539C14.9806 6.11643 14.998 6.37474 14.946 6.49506C14.9266 6.44655 14.9169 6.41352 14.8974 6.39419C14.8684 6.47573 14.8159 6.73007 14.7731 6.82517C14.7538 6.76309 14.711 6.54754 14.715 6.2932C14.719 6.03887 14.7246 5.99023 14.7246 5.93787C14.715 6.01544 14.6625 6.1204 14.6431 6.18248C14.614 6.13013 14.581 6.06216 14.5421 6.00584C14.5188 6.04424 14.4897 6.10095 14.4645 6.13013C14.4605 6.10684 14.4509 6.04463 14.4451 5.95733C14.4412 5.85634 14.4353 5.72629 14.4412 5.69903C14.4508 5.64667 14.5325 5.44085 14.7053 5.25244C14.9111 5.02716 15.1228 4.59426 15.1849 4.46024C15.247 4.32623 15.511 3.76904 15.511 3.76904H15.713L15.4198 4.43695C15.4198 4.43695 15.2431 4.802 15.1519 4.93615C15.0606 5.07029 14.8684 5.45467 14.7828 5.60418C14.8449 5.52264 14.8974 5.47989 14.9596 5.40219C15.0198 5.34779 15.1867 5.11292 15.1867 5.11292L15.1864 5.11266Z" fill="#8C6228"/>
<path fill-rule="evenodd" clip-rule="evenodd" d="M16.3146 2.76892C16.2816 2.87047 16.2295 2.96475 16.161 3.04668C16.0406 3.19042 15.7822 3.38255 15.6562 3.5359C15.541 3.6854 15.3106 4.09321 15.4153 4.57666C15.4537 4.47183 15.526 4.26409 15.7182 4.02908C15.9105 3.79407 16.1163 3.52425 16.2174 3.31458C16.3183 3.10287 16.3319 2.93596 16.3319 2.93596L16.3703 2.88745L16.347 2.77673L16.314 2.76892H16.3146Z" fill="#CBA94C"/>
<path fill-rule="evenodd" clip-rule="evenodd" d="M20.2467 15.6485C20.2467 15.6485 20.169 15.4369 20.1458 15.2446C20.1225 15.0524 20.1842 15.0142 20.1127 14.7942C20.07 14.6602 19.9924 14.679 19.973 14.6602C19.9535 14.6414 19.9399 14.4389 19.9438 14.3282C19.9476 14.2174 19.9399 14.0738 19.9205 14.0116C19.8914 13.9883 19.872 13.9689 19.8292 13.8252C19.7807 13.6815 19.7574 13.6097 19.7341 13.5671C19.7108 13.5244 19.6427 13.4855 19.6427 13.4428C19.6427 13.3573 19.7204 13.3127 19.7204 13.2892C19.7166 13.2407 19.6583 13.2796 19.6427 13.2659C19.6234 13.2426 19.6914 13.1028 19.6661 13.0834C19.6564 13.0738 19.5884 13.1553 19.5709 13.132C19.5514 13.1086 19.5282 12.8775 19.4932 12.7242C19.4603 12.5747 19.4252 12.466 19.4214 12.4213C19.4176 12.3786 19.1534 11.6252 19.0894 11.4427C19.0378 11.2884 18.9944 11.1316 18.9593 10.9728C18.9399 10.8815 18.9263 10.695 18.9166 10.7145C18.9068 10.7339 18.9127 10.829 18.8971 10.8252C18.8835 10.8212 18.835 10.4893 18.8195 10.4368C18.806 10.3844 18.7243 10.2064 18.7043 10.0777C18.6849 9.94749 18.6423 9.60765 18.6131 9.37661C18.5839 9.14557 18.5703 9.05046 18.5703 8.99261C18.5751 8.8511 18.5673 8.70944 18.547 8.56931C18.5086 8.32458 18.4318 8.02749 18.3645 7.85482C18.2345 7.52854 17.8887 6.6936 17.8269 6.48586C17.8269 6.43338 17.8949 6.46256 17.8949 6.46256C17.8949 6.46256 18.0637 6.88586 18.188 7.212C18.3084 7.53827 18.423 7.82563 18.4522 7.85482C18.4755 7.88387 18.658 8.20426 18.7395 8.72854C18.8211 9.25283 18.8501 9.73629 18.8988 10.0586C18.9221 10.2122 18.9415 10.3751 18.99 10.5382C19.0424 10.715 19.1239 10.8975 19.2308 11.1771C19.3221 11.4121 19.39 11.6082 19.4269 11.7771C19.4697 11.9927 19.4697 12.1557 19.4949 12.2626C19.5183 12.3539 19.5531 12.5363 19.6348 12.8002C19.7164 13.0642 19.8366 13.4041 19.9182 13.6157C20.0775 14.039 20.1486 14.3924 20.1726 14.5808C20.1939 14.775 20.2658 15.4469 20.2464 15.6487L20.2467 15.6485Z" fill="#A88F33"/>
<path fill-rule="evenodd" clip-rule="evenodd" d="M16.3243 2.74564L16.3146 2.76894C16.3146 2.76894 16.3437 2.77866 16.3379 2.81758C16.3383 2.87081 16.3351 2.92402 16.3282 2.97681C16.3186 3.04478 16.2991 3.09713 16.2953 3.13988C16.2953 3.23114 16.3089 3.33598 16.1801 3.5962C16.1417 3.66801 16.118 3.73009 16.0985 3.77284C16.05 3.87767 16.0403 3.89329 15.9976 3.9418C16.0655 3.9034 16.3103 3.7498 16.4344 3.77284C16.349 3.82135 16.2189 3.91658 16.1373 4.04087C16.1568 4.04471 16.2383 4.06033 16.3677 4.04087C16.5833 4.00785 16.8241 3.93015 17.0356 3.94564C17.2668 3.95921 17.1755 3.66801 17.1755 3.66801L16.9088 3.08164L16.404 2.72644L16.3243 2.74577V2.74564Z" fill="#BE9C44"/>
<path fill-rule="evenodd" clip-rule="evenodd" d="M17.6407 7.13786C17.6407 7.13786 17.4155 6.91258 17.3242 6.13946C17.2329 5.36276 17.2524 4.21946 17.2524 4.21946L17.0699 3.77287C17.0699 3.77287 17.0315 3.47578 16.9358 3.36519C16.8402 3.2546 16.6524 3.06811 16.5669 2.97684C16.4814 2.88558 16.3844 2.76129 16.3262 2.74183C16.3552 2.69332 16.4854 2.41953 16.9843 2.41569C17.4833 2.41185 17.6371 2.68948 17.6892 2.79047C17.7413 2.89146 17.9766 3.32807 18.0639 4.16007C18.1454 4.99105 18.1494 5.05326 18.1358 5.34062C18.1261 5.49985 18.0736 5.86874 17.9822 6.26286C17.8988 6.59694 17.8075 6.9698 17.6405 7.13863L17.6407 7.13786Z" fill="#A17C34"/>
<path fill-rule="evenodd" clip-rule="evenodd" d="M16.9344 7.80004C17.0095 7.80545 17.0845 7.78853 17.15 7.7514C17.2218 7.74756 17.482 7.78058 17.6819 7.52625C17.6955 7.58436 17.7306 7.7418 17.6392 7.88157C17.6878 7.83293 17.7596 7.81361 17.7694 7.80004C17.7732 7.87185 17.8412 8.09316 17.5538 8.63101C17.6314 8.54564 17.7226 8.54948 17.8042 8.53975C17.8081 8.64074 17.8624 8.98045 17.7188 9.16311C17.6237 9.2874 17.4683 9.24849 17.4683 9.24849C17.4706 9.22135 17.4706 9.19408 17.4683 9.16695C17.4645 9.11447 17.445 9.06212 17.4587 9.02717C17.3836 8.99288 17.3152 8.9455 17.2567 8.88727C17.0878 8.72804 16.8684 8.45629 16.8529 8.25431C16.8334 8.02903 17.0354 7.98052 17.0354 7.98052C17.0185 7.96538 17.0041 7.94767 16.9927 7.92804C16.9829 7.89514 16.9732 7.84266 16.9344 7.80004Z" fill="#8C6228"/>
<path fill-rule="evenodd" clip-rule="evenodd" d="M15.4368 5.35732C15.4368 5.35732 15.4271 5.34376 15.3748 5.40584C15.3845 5.34376 15.3942 5.28539 15.3981 5.22907C15.4228 5.17693 15.4549 5.12857 15.4933 5.08545C15.4641 5.14356 15.4446 5.19604 15.4446 5.19604C15.4446 5.19604 15.5166 5.06203 15.6214 4.98049C15.6932 4.92225 15.7845 4.89512 15.8233 4.84072C15.866 4.78248 15.8563 4.77275 15.866 4.76302C15.866 4.76302 15.9613 4.70094 16.1069 4.51828C16.1262 4.49499 16.1554 4.46977 16.1749 4.44648C16.2078 4.43291 16.2855 4.39796 16.3767 4.35124C16.472 4.29889 16.5787 4.22708 16.6448 4.19764C16.7748 4.1394 16.9128 4.14529 16.9768 4.0539C17.0253 4.04033 17.0777 3.89467 17.0681 3.77051C17.1399 3.79956 17.5088 4.02868 17.6351 4.52968C17.7264 4.885 17.5632 5.43259 17.4952 5.69678C17.4272 5.96097 17.4176 6.15694 17.3224 6.27726C17.202 6.43662 16.8137 6.66126 16.7185 6.77249C16.637 6.86376 16.3924 7.0948 16.402 7.26171C16.4117 7.386 16.565 7.45371 16.5982 7.47726C16.6313 7.50081 16.6311 7.52974 16.6933 7.51566C16.7555 7.50158 16.7787 7.47291 16.804 7.47291C16.8331 7.47675 16.8331 7.48264 16.8466 7.48264C16.8565 7.48234 16.8663 7.48101 16.8758 7.47867C16.8758 7.47867 16.8661 7.65544 16.4525 7.70907C16.4233 7.71304 16.3943 7.72264 16.3573 7.72852C16.4059 7.70523 16.435 7.70523 16.4875 7.63342C16.4292 7.62369 16.2622 7.61396 16.2194 7.6004C16.233 7.5771 16.2777 7.51489 16.3145 7.48584C16.3476 7.45678 16.3107 7.44744 16.2816 7.46254C16.2316 7.49657 16.1836 7.5335 16.1379 7.57313C16.0894 7.61588 16.0466 7.67412 15.9689 7.72673C15.9456 7.64904 15.9495 7.50145 16.0409 7.3947C16.0174 7.39854 15.9728 7.46651 15.9301 7.45294C15.9224 7.38211 15.927 7.31049 15.9437 7.24123C15.967 7.1538 16.0932 7.00046 16.0932 7.00046L16.7029 5.91105L16.8329 5.08584L15.4368 5.35707V5.35732Z" fill="#92723A"/>
<path fill-rule="evenodd" clip-rule="evenodd" d="M15.4038 5.40385C15.4038 5.40385 15.3708 5.42714 15.4368 5.47181C15.4271 5.48538 15.4038 5.53389 15.3746 5.56692C15.3417 5.60532 15.3067 5.62913 15.2931 5.66215C15.264 5.73012 15.2408 5.77671 15.2408 5.80589C15.2408 5.83508 15.231 6.02145 15.1495 6.14177C15.1203 6.18452 15.0873 6.25633 15.064 6.30484C15.0155 6.39021 14.9727 6.45844 14.963 6.49684C14.9437 6.56481 14.9301 6.75117 14.9301 6.75117C14.9301 6.75117 14.9728 6.69869 14.9883 6.67937C14.9649 6.72788 14.9397 6.78023 14.9028 6.81914C14.9261 6.79969 14.9941 6.75117 15.1087 6.65018C15.2679 6.51629 15.5165 6.29101 15.8194 6.11258C15.728 6.14561 15.6505 6.14561 15.5884 6.15533C15.6369 6.10682 16.0738 5.59418 16.3029 5.54567C16.3168 5.52803 16.3237 5.50588 16.3224 5.48346L16.1261 5.46413L15.728 5.54951L15.6699 5.24231L15.4038 5.40346V5.40385Z" fill="#B18E3E"/>
<path fill-rule="evenodd" clip-rule="evenodd" d="M16.0371 7.15155C16.0371 7.15155 15.9846 7.2039 15.9361 7.33407C15.8987 7.29507 15.8667 7.2513 15.8408 7.2039C15.769 7.08358 15.6584 6.9301 15.4001 7.01753C15.3963 6.93599 15.3904 6.89324 15.4001 6.835C15.4429 6.8254 15.5729 6.72057 15.703 6.5671C15.7944 6.46226 15.8798 6.34182 15.938 6.18847C15.9764 6.15929 16.0428 6.11078 16.13 6.05446C16.2543 5.96908 16.4038 5.85247 16.4271 5.72242C16.3688 5.74572 16.2446 5.80396 16.0581 5.79436C16.13 5.76134 16.2406 5.72639 16.227 5.58265C16.2562 5.56319 16.2795 5.54962 16.2795 5.54962C16.2576 5.54232 16.2346 5.53903 16.2115 5.5399C16.2076 5.52633 16.2018 5.507 16.1688 5.5166C16.1358 5.5262 16.1304 5.52633 16.126 5.5399C16.1125 5.54386 16.0678 5.5399 16.0348 5.56332C16.0017 5.58675 15.9105 5.66419 15.8755 5.67775C15.8891 5.65446 15.9084 5.61964 15.9084 5.61964C15.9084 5.61964 15.8133 5.62924 15.7454 5.65804C15.6211 5.70079 15.4775 5.77849 15.3318 5.85414C15.3454 5.83084 15.3512 5.81574 15.3608 5.81139C15.3704 5.80703 15.3939 5.80179 15.3939 5.79782C15.3939 5.79385 15.3843 5.75942 15.39 5.74546C15.4336 5.65321 15.485 5.56486 15.5436 5.4814C15.6116 5.39001 15.6252 5.25996 15.6252 5.25996L15.9223 5.11046L16.7572 4.91846L17.299 4.95148L17.2311 5.32626L16.9111 5.9806L16.6373 6.5767L16.3246 6.94188L16.0372 7.15155H16.0371Z" fill="#543E26"/>
<path fill-rule="evenodd" clip-rule="evenodd" d="M17.3903 5.52965C17.3903 5.52965 17.064 5.93349 16.9728 5.9957C17.031 5.87141 17.3903 5.13157 17.5204 4.92575C17.4913 4.90245 17.4524 4.90245 17.5437 4.54175C17.4661 4.72415 17.4388 4.81938 17.3748 4.86789C17.3108 4.9164 17.3029 4.90092 17.2596 4.90092C17.2678 4.88614 17.2712 4.86918 17.2692 4.8524C17.2692 4.8524 16.9954 4.81938 16.8084 4.81938C16.6214 4.81938 16.2512 4.92037 16.0453 5.00191C15.8822 5.06988 15.791 5.06988 15.7327 5.1125C15.6745 5.16101 15.6415 5.21349 15.6123 5.22706C15.589 5.24063 15.4784 5.27557 15.453 5.31244C15.4297 5.35084 15.391 5.39397 15.391 5.4037C15.391 5.41343 15.3812 5.42712 15.4104 5.41727C15.42 5.41343 15.492 5.37452 15.5735 5.326C15.6841 5.26392 15.8181 5.19212 15.9152 5.14936C16.1929 5.03864 16.2803 5.0581 16.4045 5.0348C16.5345 5.01151 16.721 4.95711 16.8452 4.95711C16.9695 4.95327 17.2045 4.95711 17.2589 4.96684C17.2356 4.98629 17.2161 5.00959 17.2258 5.09112C17.2258 5.11442 17.2064 5.13964 17.1874 5.19596C17.1293 5.35519 17.0186 5.61925 16.957 5.75327C16.8717 5.93567 16.7746 6.08914 16.7266 6.18424C16.6786 6.27935 16.573 6.52984 16.4685 6.66386C16.3639 6.79788 16.3092 6.87941 16.2765 6.9086C16.2437 6.93778 16.0084 7.11045 16.026 7.17266C16.0687 7.15909 16.3387 7.05746 16.5346 6.83679C16.7306 6.61612 16.7696 6.48146 16.923 6.36101C17.0763 6.24056 17.1968 6.03871 17.2686 5.8718C17.3288 5.7164 17.3152 5.66789 17.3908 5.53004L17.3903 5.52965Z" fill="#806031"/>
<path fill-rule="evenodd" clip-rule="evenodd" d="M10.3593 8.54374C10.3593 8.54374 10.3166 8.72038 10.2194 8.8078C10.1243 8.89331 9.95537 8.96704 9.93604 9.11078C9.91274 9.2544 10.105 9.32633 10.105 9.32633C10.105 9.32633 10 9.49913 10 9.62918C10 9.7632 9.9962 9.78841 10.0098 9.91654C9.99437 9.92644 9.98127 9.93954 9.97137 9.95494C9.97137 9.95494 9.98097 10.0792 10.0762 10.1568C10.1714 10.2344 10.2528 10.2811 10.3014 10.2616C10.3088 10.2775 10.3153 10.2937 10.3208 10.3103C10.3208 10.3103 10.3927 10.1277 10.4413 9.96851C10.4898 9.80543 10.5325 9.8286 10.5518 9.60921C10.5712 9.38982 10.7822 9.01312 10.7822 9.01312L10.9262 8.6912L10.6914 8.50867L10.3593 8.54361V8.54374Z" fill="#B6903C"/>
<path fill-rule="evenodd" clip-rule="evenodd" d="M10.7962 8.86011C10.7477 8.90983 10.703 8.96305 10.6624 9.01934C10.6003 9.10484 10.5518 9.18241 10.4605 9.21556C10.3693 9.24871 10.311 9.24846 10.3168 9.33985C10.3226 9.43124 10.4081 9.4699 10.4566 9.51649C10.5091 9.565 10.5518 9.64654 10.5285 9.73793C10.5576 9.72436 10.61 9.70875 10.6586 9.60392C10.7071 9.49908 11.0464 8.86024 11.0464 8.86024H10.7962V8.86011Z" fill="#685026"/>
<path fill-rule="evenodd" clip-rule="evenodd" d="M12.1345 7.38639C12.1345 7.38639 12.1636 7.30882 12.1345 7.2525C12.1053 7.19426 11.9287 7.1748 11.8412 7.10875C11.75 7.04079 11.6393 6.99356 11.548 7.02338C11.5616 6.99036 11.616 6.91842 11.5713 6.90293C11.5285 6.88936 11.3694 6.96117 11.3267 6.99419C11.2839 7.02722 11.1868 7.066 11.1675 7.08943C11.1481 7.11285 11.115 7.1574 11.0955 7.13794C11.0761 7.12437 11.0665 7.08943 11.0334 7.10875C11.0004 7.12808 10.8414 7.25826 10.8121 7.33403C10.7828 7.40981 10.7169 7.57877 10.5189 7.7709C10.3209 7.96303 10.2354 8.08744 10.2936 8.15925C10.3518 8.23106 10.3791 8.17871 10.3888 8.24079C10.3963 8.30173 10.393 8.36351 10.3791 8.42332C10.3558 8.52431 10.317 8.61941 10.3694 8.63887C10.5034 8.68162 10.6336 8.60047 10.6626 8.6253C10.7209 8.67765 10.6296 8.86607 10.7675 8.90293C10.9074 8.94133 11.0452 8.86991 11.0452 8.86991L11.5539 8.59612L12.0432 8.33794L12.2936 7.84271L12.1593 7.42914L12.1337 7.38639H12.1345Z" fill="#D4B968"/>
<path fill-rule="evenodd" clip-rule="evenodd" d="M11.6544 8.56891C11.6544 8.56891 11.5689 8.43886 11.6739 8.32417C11.7788 8.20948 11.9282 8.1611 11.9864 8.08929C11.9754 8.07562 11.9605 8.06551 11.9437 8.06024C11.9824 7.99106 12.0413 7.93543 12.1127 7.90088C12.0836 7.87182 12.0447 7.84852 12.0021 7.84852C11.9068 7.84852 11.8485 7.90676 11.7612 7.90676C11.6758 7.90676 11.6661 7.86401 11.6661 7.86401C11.6661 7.86401 11.8098 7.85044 11.7961 7.78632C11.7825 7.71835 11.7577 7.71835 11.7577 7.71835C11.7577 7.71835 12.0353 7.60315 12.0839 7.54171C12.1324 7.48027 12.1266 7.40769 12.1363 7.37864C12.1692 7.37864 12.3615 7.27764 12.4392 7.32039C12.5169 7.36315 12.4625 7.47963 12.4625 7.47963C12.4625 7.47963 12.6976 7.30286 12.8174 7.12955C12.9223 7.13928 12.971 7.05774 13.0478 7.05774C13.1431 7.05774 13.2926 7.18779 13.3216 7.46542C13.3411 7.62465 13.3701 7.71592 13.3411 7.99752C13.3275 8.15675 13.3313 8.49672 13.3795 8.66542C13.4124 8.79944 13.4901 8.78587 13.4901 8.78587C13.4781 8.8267 13.4545 8.86315 13.4221 8.8907C13.3696 8.93921 13.3639 9.06747 13.3696 9.11598C13.3774 9.15145 13.3871 9.18645 13.3988 9.22081C13.3988 9.22081 13.3367 9.29262 13.3211 9.34126C13.3075 9.38977 13.2435 9.42279 13.1968 9.42279C13.1501 9.42279 13.1735 9.41883 13.1114 9.42279C13.0494 9.42676 13.0299 9.43636 12.991 9.42279C12.9521 9.40923 12.923 9.39361 12.9386 9.26919C12.9522 9.14491 12.459 8.85563 12.459 8.85563L11.6526 8.56827L11.6544 8.56891Z" fill="#CCA849"/>
<path fill-rule="evenodd" clip-rule="evenodd" d="M10.7282 9.79612C10.7282 9.79612 10.9048 10.0311 11.6311 10.0311C11.9767 10.0311 12.0971 9.99811 12.1687 9.97865C12.2464 9.95919 12.5376 9.84476 12.8308 9.49903C13.0949 9.18646 13.0367 9.05833 13.0367 9.05833L12.8831 9.03503L12.3839 9.103L10.9067 9.73212L10.7275 9.79612H10.7282Z" fill="#585136"/>
<path fill-rule="evenodd" clip-rule="evenodd" d="M11.27 9.85433C11.27 9.85433 10.6409 9.99423 10.6409 9.59615C10.6409 9.2078 11.0292 8.79999 11.1264 8.72818C11.2274 8.65625 11.4681 8.57458 11.4681 8.57458H12.0487L12.1593 8.86783L12.1108 9.50079L11.27 9.8542V9.85433Z" fill="#252211"/>
<path fill-rule="evenodd" clip-rule="evenodd" d="M11.8505 8.69323C11.8505 8.69323 11.7302 8.58251 11.4564 8.73163C11.1826 8.88075 10.9612 9.19243 10.9476 9.47543C10.934 9.7258 11.1534 9.9123 11.4952 9.92203C11.7495 9.93163 11.903 9.90257 11.9807 9.88363C11.9612 9.86033 11.8603 9.73412 11.8603 9.73412L11.8507 8.69335L11.8505 8.69323Z" fill="#C3B378"/>
<path fill-rule="evenodd" clip-rule="evenodd" d="M11.7321 8.75521C11.7321 8.75521 11.7031 8.73192 11.6169 8.77851C11.5451 8.81691 11.4403 8.91841 11.3588 8.99022C11.3063 9.03297 11.2733 9.0523 11.2436 9.08533C11.1231 9.22907 11.0221 9.46408 11.0805 9.58056C11.1389 9.69704 11.331 9.83105 11.8203 9.73979L11.7307 8.75534L11.7321 8.75521Z" fill="#E6D89C"/>
<path fill-rule="evenodd" clip-rule="evenodd" d="M11.5728 8.99611C11.5728 8.99611 11.4951 9.11656 11.4951 9.30882C11.4951 9.50491 11.6059 9.81749 12.0137 9.84078C12.3262 9.86024 12.5359 9.39035 12.7631 9.20782C12.9359 9.06805 13.0407 9.06408 13.0407 9.06408C13.0407 9.06408 12.8641 8.87208 12.3923 8.62338C11.9262 8.37288 11.4039 8.33986 11.1204 8.72437C11.2544 8.71464 11.6874 8.60392 11.6874 8.60392L11.8991 8.67189L11.5728 8.99624V8.99611Z" fill="#252211"/>
<path fill-rule="evenodd" clip-rule="evenodd" d="M12.1826 9.2504C12.169 9.22134 12.1593 9.18243 12.2156 9.17283C12.2719 9.16323 12.2971 9.16886 12.3166 9.21123C12.336 9.2536 12.355 9.28892 12.3262 9.30646C12.2971 9.32195 12.2214 9.30646 12.1824 9.25014L12.1826 9.2504ZM12.0913 8.9766C12.0913 8.9766 12.0719 8.99017 12.0816 8.96304C12.0854 8.93014 12.1108 8.87177 12.1728 8.88547C12.2349 8.89916 12.2215 8.967 12.2112 8.98646C12.201 9.00592 12.1492 9.03881 12.1103 9.02486C12.1053 9.0236 12.1008 9.02119 12.0969 9.01784C12.0931 9.01448 12.0901 9.01027 12.0882 9.00554C12.0863 9.00081 12.0856 8.99571 12.086 8.99064C12.0865 8.98556 12.0881 8.98067 12.0908 8.97635L12.0913 8.9766Z" fill="#6F674D"/>
<path fill-rule="evenodd" clip-rule="evenodd" d="M6.83521 9.10083C6.83521 9.10083 6.98881 9.21603 7.16724 9.21155C7.34388 9.20759 7.57108 9.02518 7.67591 8.90858C7.73799 8.84061 7.79111 8.7688 7.84871 8.71248C7.89735 8.66397 7.93024 8.64067 7.95354 8.60765C7.98656 8.56925 8.02151 8.49706 8.03904 8.47363C7.99629 8.50666 7.93421 8.56502 7.87008 8.60381C7.808 8.64221 7.67399 8.7144 7.61959 8.73386C7.56724 8.75331 7.02349 9.04106 7.02349 9.04106L6.83521 9.10083Z" fill="#AC924C"/>
<path fill-rule="evenodd" clip-rule="evenodd" d="M7.07007 7.66601C7.07007 7.66601 7.15544 7.60777 7.32056 7.57078C7.4798 7.53238 7.80018 7.50281 7.80018 7.50281L8.06424 7.61801L8.16908 8.01609L7.97708 8.42978L7.73247 8.58338L7.45471 8.13679L7.07071 7.66678L7.07007 7.66601Z" fill="#9F8E57"/>
<path fill-rule="evenodd" clip-rule="evenodd" d="M6.72445 8.02138L6.63306 8.0896C6.63306 8.0896 6.65648 8.04685 6.67581 7.9168C6.69514 7.78676 6.79626 7.47021 6.94384 7.28768C7.09142 7.10516 7.08758 7.11488 7.08758 7.11488C7.074 7.1124 7.06005 7.11284 7.04665 7.11617C7.03326 7.1195 7.02072 7.12565 7.00989 7.13421C7.02934 7.0912 7.15363 6.9376 7.27792 6.8608C7.40221 6.784 7.45072 6.75981 7.58077 6.8224C7.71082 6.885 7.74384 6.91751 7.83907 6.91367C7.9343 6.90983 8.01571 6.80884 8.01571 6.80884C8.01571 6.80884 8.03517 6.87092 7.96336 7.01466C7.89155 7.1584 7.60803 7.45152 7.60803 7.45152L7.0177 7.85536L6.72445 8.02176V8.02138Z" fill="#EAC970"/>
<path fill-rule="evenodd" clip-rule="evenodd" d="M7.16116 7.61749C7.16116 7.61749 7.58842 7.67573 7.71847 7.55541C7.72231 7.56898 7.73793 7.56898 7.73793 7.5787C7.73688 7.58604 7.73346 7.59282 7.7282 7.59803C7.74234 7.59577 7.75663 7.59449 7.77095 7.59419C7.78805 7.59928 7.80564 7.60254 7.82343 7.60392C7.83776 7.60361 7.85204 7.60228 7.86618 7.59995C7.86483 7.6096 7.86155 7.61888 7.85654 7.62724C7.85152 7.6356 7.84488 7.64286 7.837 7.64859C7.85645 7.64859 7.8754 7.65243 7.8754 7.66792C7.8754 7.68341 7.87924 7.73013 7.85594 7.73986C7.83664 7.74519 7.8161 7.74379 7.7977 7.73589C7.79924 7.77265 7.80923 7.80857 7.82688 7.84085C7.86528 7.91266 7.9472 7.99445 8.05728 7.9709C8.05728 7.9709 8.1154 8.11067 7.87079 8.42133C7.83789 8.46408 7.80282 8.52232 7.7602 8.57083C7.74336 8.60754 7.73048 8.64595 7.7218 8.68539C7.7218 8.68539 8.13549 8.52616 8.25389 8.16302C8.37434 7.79797 8.39764 7.4388 8.37434 7.10293C8.37037 7.0077 8.35489 6.93986 8.33159 6.89122C8.27335 6.77077 8.11015 6.79022 8.04423 6.85819C7.949 6.95342 7.78977 7.19022 7.56845 7.3533C7.34317 7.51637 7.33357 7.5453 7.16064 7.61749H7.16116Z" fill="#D7BC6B"/>
<path fill-rule="evenodd" clip-rule="evenodd" d="M6.64854 8.1418C6.64854 8.1418 6.56701 8.19031 6.52426 8.3722C6.4815 8.55857 6.56266 8.78577 6.60963 8.85758C6.65661 8.92938 6.76323 9.12561 6.98442 9.13534C7.03916 9.13505 7.0933 9.12382 7.14365 9.10231C7.22086 9.06691 7.29329 9.02188 7.3592 8.9683C7.45443 8.89649 7.532 8.83441 7.52227 8.82852C7.49898 8.81879 6.9359 8.35274 6.9359 8.35274L6.72419 8.11646L6.64842 8.14206L6.64854 8.1418Z" fill="#585136"/>
<path fill-rule="evenodd" clip-rule="evenodd" d="M7.18088 8.91461C7.18088 8.91461 7.29544 8.90501 7.36341 8.86225C7.43138 8.8195 6.96533 8.35742 6.96533 8.35742L6.99836 8.85662L7.18088 8.91461Z" fill="#453A25"/>
<path fill-rule="evenodd" clip-rule="evenodd" d="M6.68541 8.10679C6.68541 8.10679 6.62717 8.21751 6.62717 8.24669C6.61744 8.3418 6.64662 8.6408 6.66992 8.73591C6.69322 8.8369 6.81942 8.99024 6.98262 8.99024C7.08349 8.99024 7.22339 8.92816 7.22339 8.91268C7.22339 8.89322 7.07965 8.87428 7.04086 8.80196C7.01757 8.76356 7.00784 8.66807 7.00246 8.57156C6.99862 8.50948 6.99862 8.44151 7.02192 8.41796C7.0744 8.35972 7.084 8.19268 7.084 8.19268L7.27037 7.84644H7.02525L6.732 8.02896L6.68541 8.10679Z" fill="#84754B"/>
<path fill-rule="evenodd" clip-rule="evenodd" d="M6.61353 8.21362C6.61353 8.21362 6.80553 7.95928 6.97858 7.90091C7.15164 7.84254 7.22908 7.87762 7.22908 7.87762L7.12809 8.13592L6.98434 8.29515L6.99407 8.37669C6.99407 8.37669 6.97065 8.59224 7.11439 8.74174C7.25813 8.89125 7.36489 8.88549 7.42709 8.88549C7.4893 8.88549 7.66786 8.83301 7.75913 8.61746C7.84066 8.4156 7.90863 8.15666 7.74556 7.89707C7.5862 7.63877 7.30473 7.62878 7.25033 7.62878C7.19593 7.62878 6.76879 7.65016 6.61353 8.21323V8.21362Z" fill="#252211"/>
<path fill-rule="evenodd" clip-rule="evenodd" d="M11.5437 9.07758C11.4719 9.04456 11.5399 8.8427 11.6117 8.78049C11.6835 8.71829 11.7748 8.64661 11.9341 8.63675C11.9923 8.63291 12.0486 8.66977 12.039 8.70869C12.0254 8.78049 11.9244 8.88149 11.8332 8.95329C11.7069 9.05237 11.6253 9.11445 11.5437 9.07758Z" fill="#F7F7E7"/>
<path fill-rule="evenodd" clip-rule="evenodd" d="M7.66018 7.97668C7.71266 7.97284 7.78062 8.01508 7.79419 8.07191C7.80776 8.13399 7.76117 8.25828 7.66018 8.25828C7.57864 8.25828 7.53589 8.15729 7.53589 8.12824C7.53681 8.10434 7.54348 8.08103 7.55534 8.06027C7.55918 8.05438 7.56891 7.98641 7.66018 7.97668Z" fill="#F8F6DE"/>
<path fill-rule="evenodd" clip-rule="evenodd" d="M6.9028 8.02136C6.9028 8.02136 6.76878 8.08344 6.7067 8.21336C6.66235 8.3093 6.64893 8.41666 6.6683 8.52056C6.67803 8.56907 6.72654 8.68939 6.75957 8.73215C6.79259 8.7749 6.83726 8.80408 6.87029 8.80011C6.90331 8.79615 6.97115 8.70885 6.97115 8.6565C6.97115 8.60415 6.97512 8.38271 7.03912 8.26226C7.09544 8.14194 6.90318 8.02149 6.90318 8.02149L6.9028 8.02136Z" fill="#D4C38B"/>
<path fill-rule="evenodd" clip-rule="evenodd" d="M6.92239 8.01169C6.89909 8.02526 6.86031 8.04471 6.86991 8.06993C6.87963 8.09323 6.96117 8.10833 6.99035 8.16516C7.02338 8.2234 7.02338 8.28548 7.01365 8.31467C7.03901 8.30262 7.06203 8.28614 7.08162 8.26603C7.12437 8.21751 7.17672 8.15159 7.22139 8.15159C7.25058 8.15159 7.27963 8.16516 7.3069 8.16516C7.34965 8.16516 7.39227 8.15159 7.39816 8.10692C7.40776 8.04868 7.31663 7.9962 7.26415 8.00593C7.27387 7.96753 7.28744 7.91083 7.24469 7.87191C7.20194 7.833 7.06805 7.9011 7.03887 7.92055C7.00968 7.94001 6.92239 8.01182 6.92239 8.01182V8.01169Z" fill="#E2D59D"/>
<path fill-rule="evenodd" clip-rule="evenodd" d="M10.0079 12.0912L10.2953 12.0063L10.3768 12.0646C10.3768 12.0646 10.4349 12.1889 10.5263 12.2044C10.4971 12.2664 10.4214 12.3196 10.4253 12.3636C10.4293 12.4076 10.4681 12.4413 10.4681 12.4413C10.4681 12.4413 10.2098 12.8684 10.7186 13.2989C10.5981 13.3474 10.4448 13.4141 10.3633 13.4525C10.4214 13.4661 10.5457 13.4909 10.5981 13.538C10.6506 13.5851 10.6506 13.6001 10.6991 13.6293C10.7476 13.6584 10.7767 13.6972 10.7671 13.7146C10.7341 13.6952 10.6233 13.6371 10.604 13.6913C10.5847 13.7456 10.1244 13.7244 10.1244 13.7244L9.3477 13.8739C9.3477 13.8739 9.37676 13.7962 9.29522 13.7244C9.20012 13.639 9.08364 13.7282 8.95935 13.6331C8.79628 13.5088 8.79039 13.3651 8.73804 13.3108C8.79039 13.2778 8.89727 13.2293 9.15161 13.1956C9.14188 13.1761 9.10885 13.1179 9.12831 13.0655C9.1516 12.9976 9.24863 12.9548 9.21957 12.8735C9.26232 12.8638 9.28165 12.8638 9.38853 12.7298C9.48952 12.5958 9.55161 12.5667 9.6293 12.557C9.707 12.5473 9.75359 12.557 9.89733 12.423C9.9982 12.3279 9.9653 12.2463 9.9653 12.2463C9.9653 12.2463 10.0312 12.225 10.0081 12.091L10.0079 12.0912Z" fill="#CBAC5A"/>
<path fill-rule="evenodd" clip-rule="evenodd" d="M9.15939 12.1344C9.16323 12.115 9.17884 12.1052 9.28367 12.115C9.38851 12.1247 10.0526 12.0529 10.2332 12.0432C10.4157 12.0296 11.0584 12.0392 11.3711 12.1052C11.6838 12.1713 12.0002 12.249 12.1536 12.2878C12.3072 12.3305 12.3555 12.3459 12.3497 12.3653C12.3458 12.3848 12.3113 12.4037 12.2914 12.3984C12.2721 12.3945 11.7633 12.2391 11.6061 12.2064C11.4489 12.1736 10.905 12.0859 10.6077 12.0912C10.3301 12.0951 10.2194 12.0873 9.98447 12.1145C9.74947 12.1436 9.36111 12.1824 9.24463 12.1669C9.12943 12.1534 9.15324 12.1534 9.15913 12.1339L9.15939 12.1344Z" fill="#D6BC6F"/>
<path fill-rule="evenodd" clip-rule="evenodd" d="M10.7223 13.6563C10.7223 13.6563 11.1204 13.8719 11.2641 14.1359C11.369 14.332 11.2021 14.4292 11.2021 14.4292C11.2021 14.4292 11.4273 14.4292 11.3982 14.5535C11.3846 14.631 11.0098 14.8407 10.7593 14.9514C10.505 15.0621 10.5147 15.0564 10.3904 15.0757C10.27 15.0952 9.93986 15.0373 9.87189 15.1339C9.80392 15.2306 9.83349 15.3302 9.85244 15.3457C9.87189 15.3592 10.0292 15.3787 10.0292 15.3787C10.0292 15.3787 9.99618 15.4699 9.67004 15.4797C9.34389 15.4894 9.26223 15.5126 9.24277 15.5476C9.22332 15.5805 9.30485 15.5612 9.45448 15.586C9.60399 15.6093 9.81365 15.6244 9.81365 15.6244C9.81365 15.6244 9.74568 15.6827 9.56904 15.7293C9.36706 15.7816 9.05052 15.8303 8.95541 15.8885C9.00392 15.9215 9.07586 15.97 9.10901 15.9739C9.02748 15.9933 8.91279 16.0361 8.89346 16.0516C8.92252 16.071 8.96143 16.0943 8.96143 16.0943C8.96143 16.0943 8.79823 16.2904 8.70312 16.3391C8.60802 16.3877 8.06044 16.6419 7.87202 16.5934C7.40213 16.4691 7.34389 15.9546 7.22933 15.9158C7.05653 15.8575 6.975 15.9739 6.82152 15.8923C6.88949 15.8438 6.92648 15.8148 6.99829 15.7817C6.9206 15.7433 6.51868 15.4885 6.51868 15.4885C6.47665 15.3969 6.42999 15.3075 6.3789 15.2206C6.3012 15.0866 6.1869 14.9079 6.10114 14.7506C5.91477 14.405 5.90504 14.2457 5.73608 14.0497C5.76527 14.0113 5.86613 14.0166 5.86613 14.0166L7.28181 14.4827L9.79202 14.5554L10.4448 13.6234L10.7225 13.6564L10.7223 13.6563Z" fill="#DFC677"/>
<path fill-rule="evenodd" clip-rule="evenodd" d="M7.00391 15.0776C7.01905 15.0945 7.03671 15.1089 7.05626 15.1204C7.1049 15.1534 7.17671 15.1923 7.22522 15.2504C7.24467 15.2213 7.29319 15.1689 7.37882 15.2504C7.46445 15.3319 7.57082 15.2738 7.63699 15.2932C7.70496 15.3166 7.7088 15.3262 7.7088 15.3262C7.7088 15.3262 7.7472 15.2932 7.83309 15.2582C7.88557 15.2388 7.94765 15.2252 8.01562 15.2059C8.0777 15.1923 8.14567 15.1728 8.19239 15.1728C8.23514 15.2019 8.38848 15.3648 9.00403 15.1243C9.58464 14.899 9.71853 14.8738 9.81568 14.9086C9.82541 14.8853 9.83514 14.8407 9.98464 14.8466C9.98464 14.7845 9.86035 14.5728 9.86035 14.5728L9.17491 14.3379H8.8L7.67578 14.5437L7.0528 14.8992L7.00429 15.0784L7.00391 15.0776Z" fill="#C4A859"/>
<path fill-rule="evenodd" clip-rule="evenodd" d="M6.62915 14.6836C6.62915 14.6836 6.64272 14.7884 6.79811 14.8991C6.95171 15.0097 6.99997 15.0758 6.99997 15.0758C6.99997 15.0758 7.02915 15.0374 7.05245 14.9982C7.07574 14.9554 7.0952 14.9069 7.13398 14.8934C7.21168 14.8603 7.38832 14.9224 7.42723 14.9127C7.46025 14.9031 7.45053 14.8351 7.48547 14.8351C7.56701 14.8312 7.61936 14.8875 7.64854 14.8875C7.67773 14.8875 7.74941 14.8836 7.75913 14.8681C7.76886 14.8527 7.7727 14.6914 7.88342 14.6137C8.00387 14.5283 8.15145 14.5652 8.19062 14.5846C8.19062 14.6137 8.19446 14.6856 8.27216 14.6895C8.34985 14.6933 8.35753 14.6797 8.42576 14.703C8.49398 14.7263 8.57526 14.6992 8.61213 14.8136C8.64515 14.804 8.72285 14.7943 8.70339 14.6836C8.74179 14.6545 8.77533 14.6351 8.85699 14.5205C8.87645 14.4914 8.90934 14.4584 8.93469 14.4157C9.00265 14.4157 9.08419 14.4021 9.19286 14.4972C9.15984 14.5205 9.14038 14.5356 9.13078 14.5593C9.1592 14.5874 9.18516 14.618 9.20835 14.6505C9.23753 14.6889 9.25699 14.736 9.29385 14.7458C9.37539 14.7691 9.50941 14.736 9.65891 14.7458C9.80265 14.7555 9.92297 14.8079 9.97545 14.8409C9.99491 14.8313 9.99491 14.8273 10.0434 14.837C10.0919 14.8468 10.1288 14.8506 10.0764 14.7885C10.1055 14.8021 10.1385 14.8313 10.1677 14.8021C10.1969 14.7729 10.2201 14.7303 10.3016 14.7206C10.3831 14.7108 10.4123 14.7244 10.4453 14.639C10.4881 14.5342 10.3405 14.5342 10.3405 14.5342C10.3405 14.5342 10.4085 14.472 10.4843 14.3904C10.5755 14.3051 10.6804 14.1944 10.7056 14.0584C10.7483 13.8079 10.5037 13.775 10.5037 13.775L9.31728 14.1401L7.86678 14.0681L6.62992 14.6837L6.62915 14.6836Z" fill="#927D49"/>
<path fill-rule="evenodd" clip-rule="evenodd" d="M5.56326 11.2563C5.56326 11.2563 5.52486 11.3048 5.50118 11.4194C5.4775 11.5339 5.48761 11.5203 5.46815 11.6019C5.4487 11.6834 5.20972 12.4951 5.29932 12.7689C5.38892 13.0426 5.54406 13.1436 5.64108 13.365C5.66054 13.4135 5.67948 13.4426 5.68959 13.4854C5.72262 13.629 5.69356 13.7397 5.73235 13.8835C5.74591 13.932 5.78099 13.9883 5.83334 14.0466C5.94854 14.1669 6.13631 14.2814 6.21734 14.363C6.33177 14.4834 6.49497 14.7282 6.70271 14.7513C6.81343 14.7649 6.97075 14.7183 7.10079 14.6407C7.21599 14.5688 7.28716 14.4679 7.40799 14.4103C7.49337 14.3676 7.58463 14.3521 7.66617 14.3326C7.83513 14.2996 7.9886 14.2942 8.07987 14.3132C8.21964 14.3424 8.54975 14.4434 8.73267 14.4434C8.87559 14.441 9.01772 14.4215 9.15596 14.3851C9.43359 14.3036 9.76947 14.1637 9.99091 14.1016C10.121 14.0632 10.2258 14.0531 10.3327 14.0298C10.5152 13.987 10.6685 13.9288 10.756 13.8181C10.6977 13.7501 10.6259 13.6453 10.2374 13.6491C9.79673 13.6588 9.28793 13.9034 9.03743 13.9424C8.78694 13.9813 8.67827 14.0142 8.39859 13.9132C8.12441 13.8112 8.11532 13.7437 8.11532 13.7437C8.11532 13.7437 7.82745 13.5424 7.707 13.0291C7.58655 12.5158 7.707 12.1418 8.01971 11.7863C8.10124 11.6951 8.08179 11.6135 8.08179 11.6135C8.08179 11.6135 8.28761 11.3359 8.23129 11.0759C8.16921 10.8176 7.77113 10.8701 7.77113 10.8701L5.56339 11.2563H5.56326Z" fill="#6E6342"/>
<path fill-rule="evenodd" clip-rule="evenodd" d="M5.89514 12.1205C5.87803 12.1527 5.86997 12.1889 5.87185 12.2253C5.87569 12.2777 5.8913 12.3456 6.04849 12.4991C6.1825 12.633 6.15332 12.7825 6.15332 12.7825C6.15332 12.7825 6.22078 12.7961 6.40382 12.7104C6.54756 12.6425 6.59582 12.7629 6.59582 12.7629C6.63766 12.741 6.68301 12.7265 6.72983 12.7202C6.77225 12.7163 6.81331 12.7032 6.85015 12.6818C6.85015 12.6818 7.01911 12.8546 7.1667 12.9361C7.30071 13.008 7.37841 13.0565 7.44446 13.008C7.50654 12.9653 7.50654 12.8779 7.50257 12.8391C7.48717 12.8033 7.46766 12.7694 7.44446 12.7381C7.4017 12.676 7.33374 12.6041 7.32926 12.5461C7.31953 12.4122 7.43025 12.2528 7.40682 12.2141C7.3834 12.1753 7.29623 12.1655 7.08068 12.2432C6.85745 12.317 5.89425 12.1209 5.89425 12.1209L5.89514 12.1205Z" fill="#39331F"/>
<path fill-rule="evenodd" clip-rule="evenodd" d="M6.40379 12.9885C6.40379 12.9885 6.29319 12.8836 6.33198 12.3748C6.37893 12.3741 6.42581 12.3787 6.47175 12.3884C6.47175 12.3884 6.53204 12.7826 6.40379 12.9885Z" fill="#292311"/>
<path fill-rule="evenodd" clip-rule="evenodd" d="M5.61553 10.868C5.63096 10.8566 5.64527 10.8437 5.65828 10.8296C5.61988 10.9014 5.4426 11.1888 5.58634 11.6413C5.73009 12.0917 6.09117 12.4276 6.53585 12.4432C6.98052 12.4588 7.21425 12.2412 7.48151 11.9151C7.58634 11.785 7.70679 11.6218 7.81354 11.5112C7.97277 11.3383 8.09706 11.2898 8.09706 11.1229C8.09706 10.7811 7.74749 10.6276 7.23293 10.4743C6.71837 10.321 6.25425 10.3399 6.01348 10.4449C5.7786 10.5593 5.67761 10.6797 5.6154 10.8682L5.61553 10.868Z" fill="#252211"/>
<path fill-rule="evenodd" clip-rule="evenodd" d="M7.26796 13.1418L7.30636 13.1224C7.30636 13.1224 7.31596 12.9688 7.37817 12.9729C7.44025 12.9826 7.46943 13.0643 7.46355 13.0933C7.45971 13.1224 7.44422 13.171 7.38201 13.1651C7.30047 13.167 7.26758 13.1418 7.26758 13.1418H7.26796Z" fill="#3F3824"/>
<path fill-rule="evenodd" clip-rule="evenodd" d="M7.09521 12.4894C7.09521 12.4894 7.13361 12.4758 7.18059 12.5224C7.21899 12.5224 7.38641 12.503 7.43889 12.536C7.49137 12.569 7.50686 12.5981 7.50686 12.5981C7.50686 12.5981 7.31077 12.6408 7.20389 12.5981C7.09521 12.5612 7.09521 12.4894 7.09521 12.4894Z" fill="#2D2815"/>
<path fill-rule="evenodd" clip-rule="evenodd" d="M7.95927 12.5184C7.95927 12.5087 7.85444 12.4369 7.74372 12.4134C7.72427 12.4096 7.7203 12.4232 7.70532 12.4232C7.69559 12.4193 7.69175 12.3901 7.69175 12.3901L7.62878 12.4233C7.62878 12.4233 7.61905 12.4369 7.65207 12.4617C7.68113 12.485 7.72977 12.5044 7.74334 12.5432C7.75691 12.582 7.75691 12.5956 7.76279 12.6015C7.76663 12.6053 7.8346 12.6015 7.86763 12.582C7.90065 12.5626 7.96286 12.5308 7.95889 12.518L7.95927 12.5184Z" fill="#82764F"/>
<path fill-rule="evenodd" clip-rule="evenodd" d="M6.97876 12.9126C6.97876 12.9126 6.99809 12.7787 7.12826 12.7729C7.26215 12.7631 7.2875 12.8932 7.2875 12.8932L7.2098 12.9709C7.2098 12.969 7.15156 12.8874 6.9794 12.9126H6.97876Z" fill="#2D2816"/>
<path fill-rule="evenodd" clip-rule="evenodd" d="M7.82325 12.3359C7.82325 12.3359 7.75132 12.4136 7.59221 12.4369C7.57865 12.4174 7.54946 12.3786 7.59221 12.3166C7.63497 12.2545 7.68348 12.235 7.73199 12.2544C7.75339 12.2578 7.77336 12.2673 7.78953 12.2818C7.8057 12.2962 7.8174 12.315 7.82325 12.3359Z" fill="#574F35"/>
<path fill-rule="evenodd" clip-rule="evenodd" d="M8.11639 12.4311C8.12036 12.4117 8.10679 12.4078 8.11639 12.3981C8.12599 12.3884 8.1786 12.369 8.18833 12.3786C8.19217 12.3826 8.18833 12.3981 8.18833 12.417C8.18833 12.436 8.18833 12.4554 8.1786 12.4694C8.16503 12.4888 8.12625 12.4986 8.10679 12.4928C8.08734 12.487 8.0835 12.4598 8.0835 12.4544C8.0931 12.4506 8.11639 12.4408 8.11639 12.4311ZM8.44791 12.2214C8.44791 12.2117 8.48094 12.1923 8.50039 12.1923C8.52945 12.1923 8.52945 12.2156 8.53342 12.2214C8.54302 12.2253 8.54302 12.2175 8.55274 12.235C8.56247 12.2525 8.57617 12.2835 8.56631 12.303C8.55646 12.3224 8.5178 12.3359 8.5082 12.332C8.49463 12.3223 8.45188 12.235 8.44791 12.2214Z" fill="#82764F"/>
<path fill-rule="evenodd" clip-rule="evenodd" d="M7.78052 12.4757C7.78052 12.4757 7.82327 12.4853 7.88151 12.534C7.86205 12.5475 7.83287 12.563 7.83287 12.563C7.83287 12.563 7.82903 12.5183 7.78052 12.4756V12.4757Z" fill="#6E6342"/>
<path fill-rule="evenodd" clip-rule="evenodd" d="M7.68562 12.0485C7.67589 12.0389 7.71467 12.0156 7.73797 12.0195C7.76127 12.0233 7.77099 12.0389 7.79621 12.0428C7.82143 12.0466 7.82539 12.033 7.83461 12.0233C7.84383 12.0136 7.87736 12.0195 7.88312 12.0233C7.88671 12.0276 7.88996 12.0321 7.89285 12.0369C7.89326 12.0295 7.89518 12.0223 7.89851 12.0156C7.90183 12.009 7.90649 12.0032 7.91218 11.9985C7.91963 11.993 7.92822 11.9893 7.9373 11.9876C7.94639 11.9859 7.95574 11.9863 7.96466 11.9887C7.9685 12.0023 7.98795 12.0508 7.98411 12.0605C7.98027 12.0703 7.92203 12.084 7.91218 12.0741C7.92191 12.0975 7.96466 12.146 7.97042 12.1556C7.97618 12.1652 7.92767 12.1887 7.90834 12.1848C7.8812 12.1829 7.71416 12.0858 7.68511 12.0489L7.68562 12.0485ZM7.93995 11.7262C7.93636 11.7164 7.92948 11.7082 7.9205 11.7029C7.90693 11.6991 7.86226 11.7029 7.86226 11.7262C7.86226 11.7495 7.90066 11.8798 7.94379 11.9476C7.99243 12.0156 8.02533 12.0718 8.05835 12.0874C8.06872 12.0921 8.08049 12.0928 8.0913 12.0892C8.10211 12.0855 8.11114 12.078 8.11659 12.068C8.12043 12.0582 8.13016 11.9864 8.12632 11.8175C8.12248 11.6485 8.11659 11.4854 8.10687 11.4757C8.09714 11.466 8.05835 11.4661 8.04478 11.4854C8.03122 11.5048 7.94379 11.6972 7.93982 11.7262H7.93995Z" fill="#585136"/>
<path fill-rule="evenodd" clip-rule="evenodd" d="M7.76701 12.7204C7.76701 12.7204 7.69904 12.6777 7.63299 12.7068C7.57091 12.736 7.57475 12.8506 7.57475 12.8506C7.58872 12.8561 7.60381 12.858 7.61871 12.8563C7.63361 12.8546 7.64788 12.8493 7.66026 12.8409C7.70301 12.8118 7.75728 12.7633 7.76701 12.7205V12.7204Z" fill="#574F35"/>
<path fill-rule="evenodd" clip-rule="evenodd" d="M7.89509 12.8738C7.89125 12.8354 7.85669 12.8354 7.85669 12.8156C7.85907 12.8061 7.86456 12.7977 7.87229 12.7917C7.88002 12.7857 7.88954 12.7825 7.89931 12.7826C7.91877 12.7826 7.93771 12.8059 7.96152 12.821C7.98482 12.8345 8.01976 12.8594 8.0236 12.8889C8.02744 12.9185 7.9852 12.9995 7.93823 12.9995C7.89125 12.9995 7.9052 12.9121 7.89547 12.8733L7.89509 12.8738ZM8.26987 12.8214C8.26987 12.8214 8.19218 12.8446 8.19794 12.8214C8.2037 12.7981 8.22136 12.7923 8.24658 12.7923C8.25939 12.7789 8.27662 12.7706 8.29509 12.7689C8.30565 12.7684 8.31603 12.7718 8.32415 12.7786C8.32415 12.7786 8.37663 12.7553 8.39211 12.7689C8.4076 12.7824 8.39608 12.7824 8.40568 12.7981C8.41791 12.8154 8.42593 12.8353 8.42911 12.8563C8.42911 12.8718 8.37087 12.9048 8.32415 12.899C8.26987 12.8874 8.27947 12.8311 8.26987 12.8214ZM8.72223 12.7339C8.72223 12.7339 8.74552 12.7475 8.72619 12.7631C8.71263 12.7767 8.64466 12.8015 8.58629 12.8059C8.52805 12.8059 8.4757 12.8155 8.4757 12.7961C8.4757 12.7768 8.52421 12.7379 8.55327 12.7282C8.55909 12.7209 8.56649 12.715 8.57492 12.711C8.58334 12.7069 8.59257 12.7048 8.60191 12.7049C8.6252 12.7049 8.71634 12.6951 8.74168 12.6913C8.76498 12.6873 8.78443 12.7009 8.77074 12.7204C8.76498 12.7339 8.72223 12.7339 8.72223 12.7339ZM8.85624 12.1344C8.85624 12.1344 8.82706 12.1965 8.79416 12.1965C8.76114 12.1926 8.76114 12.1829 8.76114 12.1732C8.76114 12.1596 8.79416 12.1246 8.79019 12.1149C8.78059 12.1149 8.75717 12.1149 8.76114 12.0916C8.76114 12.0722 8.79416 12.0489 8.82322 12.0532C8.84517 12.0352 8.87251 12.025 8.90091 12.0242C8.93394 12.0242 8.96299 12.0338 8.96299 12.0532C8.96299 12.0727 8.92459 12.1153 8.91051 12.1252C8.89503 12.1407 8.87557 12.1508 8.85624 12.1348V12.1344ZM8.41349 13.2819C8.41349 13.2819 8.37509 13.2859 8.37509 13.3052C8.37509 13.3149 8.38469 13.3149 8.39839 13.3092C8.40628 13.3087 8.41409 13.3074 8.42168 13.3052C8.42552 13.3092 8.42552 13.3285 8.45471 13.3285C8.47867 13.3253 8.50176 13.3173 8.52267 13.3052C8.54597 13.2956 8.56543 13.2857 8.56543 13.2668C8.5557 13.2338 8.53624 13.2182 8.50719 13.2182C8.4923 13.2172 8.47745 13.2206 8.46443 13.2279C8.46443 13.2279 8.45471 13.2084 8.42168 13.2279C8.38866 13.2473 8.3925 13.2473 8.40223 13.2571C8.41963 13.2726 8.41387 13.2827 8.41387 13.2827L8.41349 13.2819ZM8.1941 13.4839C8.1941 13.4742 8.24261 13.4547 8.25618 13.4606C8.26975 13.4644 8.30853 13.5382 8.30853 13.546C8.30853 13.5557 8.26002 13.579 8.24056 13.579C8.22111 13.579 8.18821 13.546 8.18821 13.5406C8.18821 13.5367 8.21151 13.531 8.21151 13.527C8.21727 13.5174 8.1941 13.494 8.1941 13.4843V13.4839ZM8.0405 13.2004C8.05023 13.1965 8.05023 13.1868 8.06379 13.1771C8.06804 13.1742 8.07288 13.1724 8.07794 13.1718C8.083 13.1711 8.08814 13.1716 8.09298 13.1732C8.0964 13.1671 8.10114 13.1618 8.10685 13.1578C8.11256 13.1537 8.1191 13.151 8.126 13.1498C8.1493 13.146 8.16875 13.1498 8.1644 13.1595C8.1644 13.1887 8.18386 13.208 8.18386 13.2313C8.18386 13.2546 8.17029 13.2838 8.12178 13.3033C8.07327 13.3168 8.00722 13.3168 7.99749 13.313C7.98776 13.3092 7.97803 13.2702 7.98776 13.2508C7.99749 13.2313 8.02463 13.2101 8.04024 13.2004H8.0405Z" fill="#82764F"/>
<path fill-rule="evenodd" clip-rule="evenodd" d="M8.10236 13.2136C8.10236 13.2136 8.06934 13.2331 8.06934 13.2428C8.06641 13.2522 8.06511 13.262 8.0655 13.2719C8.0655 13.2776 8.10825 13.268 8.11401 13.2621C8.11593 13.2583 8.10236 13.2237 8.10236 13.2136Z" fill="#6E6342"/>
<path fill-rule="evenodd" clip-rule="evenodd" d="M7.81373 13.1223C7.83306 13.1263 7.86609 13.1223 7.8913 13.1321C7.91076 13.1418 7.92433 13.1612 7.90487 13.1845C7.88541 13.2078 7.86647 13.2428 7.82333 13.2369C7.77482 13.2331 7.72823 13.2078 7.72823 13.1884C7.72742 13.1761 7.72906 13.1637 7.73305 13.1521C7.73705 13.1404 7.74333 13.1296 7.75153 13.1204C7.77098 13.1049 7.78058 13.1147 7.81361 13.1223H7.81373Z" fill="#585136"/>
<path fill-rule="evenodd" clip-rule="evenodd" d="M7.79039 13.1417C7.79039 13.1417 7.72831 13.1902 7.71269 13.2137C7.69324 13.237 7.59814 13.3573 7.56908 13.3825C7.57873 13.3655 7.58973 13.3492 7.60198 13.334C7.56357 13.3585 7.53479 13.3955 7.52044 13.4388C7.49714 13.5107 7.65062 13.5495 7.75148 13.5787C7.85234 13.6079 7.89138 13.6171 7.89138 13.6171C7.85425 13.5613 7.82237 13.5022 7.79615 13.4405C7.75775 13.3492 7.73791 13.3395 7.76313 13.2967C7.78258 13.254 7.81177 13.2249 7.81177 13.1919C7.80012 13.1612 7.79039 13.1417 7.79039 13.1417Z" fill="#574F35"/>
<path fill-rule="evenodd" clip-rule="evenodd" d="M5.57667 13.2953C5.5908 13.2979 5.60529 13.2979 5.61942 13.2953C5.64848 13.2913 5.95146 13.1801 6.268 13.2C6.50497 13.2143 6.73984 13.2529 6.96893 13.3152C7.36701 13.4201 7.86211 13.6278 8.1825 13.7463C8.26787 13.7792 8.35146 13.8376 8.4129 13.8608C8.65763 13.956 8.66723 13.956 8.81098 13.9812C8.97994 14.0045 9.15274 13.9482 9.33334 13.9094C9.55466 13.8608 9.93328 13.8375 10.2653 13.789C10.3727 13.7741 10.4786 13.7501 10.5819 13.7171C10.5819 13.7171 10.3178 13.9812 9.6847 14.0763C9.42881 14.1152 9.16876 14.1184 8.91197 14.086C8.70998 14.0666 8.5761 14.0374 8.4751 14.0083C8.36054 13.9753 8.12554 13.8879 7.83626 13.8163C7.63427 13.7639 7.40899 13.7251 7.15082 13.6766C6.51389 13.56 5.82269 13.4261 5.57642 13.296L5.57667 13.2953Z" fill="#252211"/>
<path fill-rule="evenodd" clip-rule="evenodd" d="M4.86209 12.0952C4.70849 12.2253 4.54554 12.3496 4.38644 12.4699L3.90682 12.8384C3.74375 12.9587 3.58452 13.083 3.42132 13.2034C3.25812 13.3239 3.09518 13.4383 2.92212 13.549C3.07572 13.419 3.23866 13.2985 3.40174 13.1801C3.56481 13.0617 3.7339 12.9456 3.89121 12.8256L4.37082 12.4566C4.53582 12.3362 4.69505 12.212 4.86209 12.0955V12.0952ZM4.01358 13.4544C4.01358 13.4544 4.18638 13.3107 4.40193 13.1088C4.66983 12.8585 4.99802 12.538 5.10286 12.4799L4.01345 13.4546L4.01358 13.4544Z" fill="#CFB66C"/>
<path fill-rule="evenodd" clip-rule="evenodd" d="M4.01367 13.4543C4.09918 13.3689 4.19044 13.2854 4.2817 13.2038L4.42148 13.0835C4.46423 13.0451 4.51287 13.0019 4.5555 12.9592C4.64087 12.8738 4.72446 12.7824 4.80983 12.6951C4.85215 12.6512 4.89689 12.6097 4.94385 12.5708C4.96732 12.55 4.9934 12.5324 5.02142 12.5183C5.04484 12.5048 5.07006 12.4799 5.10295 12.4756C5.08362 12.5048 5.06033 12.5183 5.04087 12.5436C5.01758 12.563 4.99812 12.5863 4.97879 12.6056C4.93604 12.6484 4.88753 12.6872 4.84478 12.7261C4.75351 12.8038 4.65841 12.8797 4.56714 12.961C4.47588 13.0422 4.3905 13.1299 4.29911 13.2115C4.20017 13.295 4.1089 13.3766 4.01367 13.4547V13.4543ZM5.17489 12.6776C5.17489 12.6776 4.54193 13.2971 4.41175 13.398L5.17489 12.6776Z" fill="#CFB66C"/>
<path fill-rule="evenodd" clip-rule="evenodd" d="M5.17476 12.6776C5.11782 12.7435 5.05677 12.8058 4.99197 12.864L4.79997 13.0465C4.73789 13.1086 4.67953 13.1708 4.61361 13.2329C4.54564 13.2911 4.48356 13.3481 4.41162 13.4018L4.59799 13.2193C4.6602 13.1572 4.72816 13.1049 4.79421 13.0427L4.98058 12.8601C5.04458 12.7961 5.10679 12.7339 5.17476 12.6776ZM5.20381 13.0135C5.14547 13.1763 5.07672 13.3352 4.99799 13.4893C4.83492 13.8155 4.59031 14.2232 4.48343 14.4311L5.20381 13.0135Z" fill="#CFB66C"/>
<path fill-rule="evenodd" clip-rule="evenodd" d="M5.20382 13.0137C5.20382 13.0855 5.18436 13.1477 5.16106 13.2098C5.13836 13.2719 5.11246 13.3328 5.0835 13.3923C5.05431 13.4505 5.02129 13.5127 4.98826 13.5691C4.95524 13.6254 4.91646 13.6835 4.88727 13.7419L4.69118 14.0875C4.62321 14.2027 4.55716 14.3185 4.48535 14.4292C4.53386 14.3049 4.59991 14.1885 4.66212 14.0739C4.73009 13.9587 4.79217 13.8435 4.85412 13.7243C4.88437 13.6649 4.91158 13.6041 4.93566 13.5419C4.96471 13.4797 4.99377 13.4215 5.01719 13.3652C5.04625 13.3031 5.06954 13.2447 5.09873 13.1885C5.13162 13.1282 5.15889 13.07 5.20356 13.0137H5.20382Z" fill="#CFB66C"/>
<path fill-rule="evenodd" clip-rule="evenodd" d="M5.8951 14.6058C5.8951 14.6058 5.7031 14.8602 5.7223 15.1825C5.77465 15.0136 5.8407 14.7553 5.8951 14.6058ZM6.07763 14.8608C6.07763 14.8608 6.00966 15.552 5.95334 15.8919C6.03295 15.499 6.04844 15.532 6.07763 14.8608ZM7.34943 15.9327C7.34943 15.9327 7.06207 16.7775 7.05619 17.0122C7.11839 16.7708 7.23871 16.2776 7.34943 15.932V15.9327Z" fill="#DEC270"/>
<path fill-rule="evenodd" clip-rule="evenodd" d="M8.02148 14.5536C8.02148 14.5536 8.48753 15.3225 8.8371 15.9787C8.74251 15.6485 8.52491 15.0428 8.02148 14.5536Z" fill="#CBAF59"/>
<path fill-rule="evenodd" clip-rule="evenodd" d="M9.27393 15.6855C9.52981 16.1379 9.76056 16.6039 9.96513 17.0816C9.92634 16.7515 9.82138 16.1865 9.27393 15.6855Z" fill="#E3C677"/>
<path fill-rule="evenodd" clip-rule="evenodd" d="M12.9555 16.8192C13.0331 16.7707 13.1865 16.5065 13.3205 16.4405C13.4544 16.3726 13.5554 16.359 13.6759 16.225C13.7962 16.0851 13.8295 15.9997 14.0933 15.8891C14.4623 15.7298 14.2085 15.5239 14.2085 15.5239C14.2491 15.484 14.2926 15.4471 14.3385 15.4133C14.4338 15.3415 14.5444 15.2541 14.5348 15.1006C14.5212 14.8425 14.4727 14.4677 14.261 14.2502C14.4668 14.2075 14.8609 14.1784 15.1058 14.1163C15.3892 14.0444 15.5193 13.9434 15.5193 13.9434C15.5193 13.9434 15.3563 13.6658 15.6203 13.3862C15.8844 13.1067 16.0999 12.9396 16.2592 12.6269C16.0766 12.6036 15.7984 12.5066 15.0882 12.7764C15.1266 12.7945 15.1636 12.8152 15.1989 12.8385C15.1989 12.8385 14.7621 12.9589 14.6028 13.093C14.3251 13.3278 14.2901 13.5201 13.9892 13.6638C13.6883 13.8076 13.3853 13.7687 13.1349 13.8852C12.8846 14.0016 12.8476 14.1007 12.7562 14.1435C12.7756 14.1668 12.7524 14.2055 12.7892 14.2386C12.7659 14.2716 12.63 14.4929 12.4921 14.4929C12.5057 14.5454 12.6222 14.5842 12.6222 14.5842C12.6222 14.5842 12.5368 14.6464 12.3193 14.6619C12.4299 14.7771 12.5349 14.9026 12.8242 15.0852C12.8009 15.1337 12.7037 15.2056 12.7426 15.2969C12.7854 15.3881 12.8962 15.5124 13.3387 15.6134C13.1134 15.623 12.8495 15.6755 12.4939 15.627C12.1386 15.5842 12.0804 15.559 11.861 15.6134C11.8843 15.6367 11.9463 15.6367 12.0007 15.6988C11.9425 15.7026 11.5774 15.656 11.4532 15.8192C11.3231 15.9881 11.2668 16.2658 11.2765 16.4522C11.2085 16.4852 11.1425 16.5435 11.1755 16.6639C11.2085 16.7844 11.3813 16.8231 11.4921 16.8988C11.6027 16.9803 11.6124 17.0094 11.7173 16.99C11.8279 16.9668 11.991 16.8562 12.0862 16.8562C12.1815 16.8562 12.2493 16.928 12.2493 16.928C12.2493 16.928 12.5076 16.8037 12.5328 16.827C12.5561 16.8503 12.5367 16.9998 12.5619 17.0231C12.5875 17.0406 12.8784 16.8678 12.9561 16.8192H12.9555Z" fill="#ECD592"/>
<path fill-rule="evenodd" clip-rule="evenodd" d="M18.6001 9.04854C17.3866 5.91459 14.3865 5.33398 14.3865 5.33398H5.82728L5.8603 8.52618H7.56488V15.6544H5.82715V18.8408H14.1496C16.1553 18.8408 17.7631 16.8252 17.7631 16.8252C20.3379 13.1709 18.6 9.04854 18.6 9.04854H18.6001ZM14.1943 14.6776C14.1943 14.6776 13.5415 15.6194 12.8312 15.6194H11.4104L11.3767 8.53398H13.2001C13.2001 8.53398 14.0449 8.71062 14.6351 10.3824C14.6351 10.3824 15.4175 12.776 14.1943 14.6776Z" fill="white" fill-opacity="0.8"/>
</g>
<defs>
<clipPath id="clip0_1207_24539">
<rect width="24" height="24" fill="white"/>
</clipPath>
</defs>
</svg>
