<svg width="31" height="32" viewBox="0 0 31 32" fill="#91929E" xmlns="http://www.w3.org/2000/svg">
<g clip-path="url(#clip0_1488_3254)">
<g clip-path="url(#clip1_1488_3254)">
<path d="M25.827 6.24967C23.8967 5.34652 21.8327 4.69015 19.6749 4.31641C19.4099 4.79553 19.1003 5.43997 18.8868 5.95261C16.593 5.60765 14.3202 5.60765 12.0685 5.95261C11.8551 5.43997 11.5385 4.79553 11.2711 4.31641C9.11093 4.69015 7.04457 5.34893 5.11424 6.25445C1.22077 12.138 0.165309 17.8754 0.693039 23.5314C3.2754 25.4598 5.77801 26.6313 8.2384 27.3979C8.84588 26.5618 9.38767 25.673 9.85441 24.7364C8.96549 24.3986 8.11409 23.9818 7.30962 23.4979C7.52304 23.3397 7.7318 23.1744 7.93349 23.0043C12.8402 25.2993 18.1714 25.2993 23.0195 23.0043C23.2236 23.1744 23.4323 23.3397 23.6434 23.4979C22.8366 23.9841 21.9828 24.401 21.0939 24.7388C21.5607 25.673 22.1001 26.5642 22.7099 27.4002C25.1727 26.6337 27.6776 25.4622 30.26 23.5314C30.8792 16.9747 29.2022 11.29 25.827 6.24967ZM10.5229 20.053C9.04994 20.053 7.84201 18.6779 7.84201 17.0034C7.84201 15.3289 9.02415 13.9515 10.5229 13.9515C12.0217 13.9515 13.2296 15.3265 13.2038 17.0034C13.2061 18.6779 12.0217 20.053 10.5229 20.053ZM20.4301 20.053C18.9572 20.053 17.7493 18.6779 17.7493 17.0034C17.7493 15.3289 18.9314 13.9515 20.4301 13.9515C21.9289 13.9515 23.1368 15.3265 23.111 17.0034C23.111 18.6779 21.9289 20.053 20.4301 20.053Z" fill="#91929E"/>
</g>
</g>
<defs>
<clipPath id="clip0_1488_3254">
<rect width="30.9551" height="31.8149" fill="white"/>
</clipPath>
<clipPath id="clip1_1488_3254">
<rect width="29.8203" height="29.8203" fill="white" transform="translate(0.566406 0.996094)"/>
</clipPath>
</defs>
</svg>
