<svg width="40" height="40" viewBox="0 0 1488 1486" fill="none" xmlns="http://www.w3.org/2000/svg">
<path d="M1488 743C1488 1153.35 1154.9 1486 744 1486C333.1 1486 0 1153.35 0 743C0 332.652 333.1 0 744 0C1154.9 0 1488 332.652 1488 743Z" fill="#1E1C29"/>
<path fill-rule="evenodd" clip-rule="evenodd" d="M693.886 134.621C576.291 144.713 468.42 185.973 375.422 256.436C332.701 288.805 289.877 331.62 257.565 374.269C193.451 458.894 152.497 558.394 138.854 662.686C132.382 712.156 132.382 773.801 138.854 823.271C154.213 940.683 203.89 1051.21 282.048 1141.86C298.265 1160.67 329.078 1191.39 347.402 1207.01C437.561 1283.88 547.53 1332.95 663.71 1348.15C713.179 1354.62 774.821 1354.62 824.29 1348.15C940.47 1332.95 1050.44 1283.88 1140.6 1207.01C1158.92 1191.39 1189.74 1160.67 1205.95 1141.86C1284.11 1051.21 1333.79 940.683 1349.15 823.271C1355.62 773.801 1355.62 712.156 1349.15 662.686C1333.95 546.501 1284.88 436.529 1208.02 346.366C1192.4 328.041 1161.68 297.227 1142.87 281.011C1052.22 202.85 941.698 153.171 824.29 137.811C787.23 132.962 729.63 131.554 693.886 134.621ZM718.135 198.738C581.834 205.368 455.267 261.393 358.819 357.791C320.677 395.913 288.44 439.4 262.23 488.091C255.443 500.698 242.829 527.753 243.449 528.373C243.684 528.608 248.862 526.725 254.956 524.188C269.444 518.154 275.213 516.679 284.377 516.664C292.499 516.65 304.94 519.599 312.036 523.219C314.394 524.422 318.588 527.756 321.356 530.628C324.532 533.925 331.75 538.929 340.936 544.204C383.023 568.371 439.739 604.715 473.494 629.148C491.141 641.921 504.781 655.613 511.74 667.536C514.68 672.574 523.23 689.844 530.738 705.915C545.823 738.195 553.294 751.955 557.092 754.444C559.239 755.85 560.516 755.896 565.855 754.764C571.768 753.509 572.717 752.822 583.468 742.011C589.718 735.726 602.544 721.612 611.968 710.646C639.299 678.847 648.598 669.146 657.384 663.269C675.83 650.931 696.702 649.405 716.518 658.944C726.043 663.529 734.318 670.255 740.028 678.054C742.085 680.863 751.521 697.127 760.997 714.193L778.224 745.222L779.964 738.442C780.921 734.713 782.906 726.625 784.374 720.467C790.353 695.394 800.336 683.384 819.896 677.739C837.63 672.62 868.163 679.996 889.654 694.59C899.306 701.144 904.828 706.471 914.121 718.19C936.574 746.502 1020.37 844.036 1078 908.952C1115.02 950.639 1136.35 973.758 1158.75 996.467C1177.02 1014.99 1179.21 1016.85 1185.74 1019.47C1194.06 1022.8 1209.4 1024.82 1211.36 1022.84C1212.05 1022.14 1216.14 1015.27 1220.44 1007.57C1284.86 892.239 1304.74 754.261 1275.73 623.887C1246.14 490.951 1167.72 374.496 1054.43 295.257C957.251 227.29 837.536 192.93 718.135 198.738ZM268.19 589.431C261.67 592.043 247.363 597.171 236.397 600.828C225.432 604.484 216.334 607.576 216.181 607.698C215.448 608.28 209.096 638.02 206.792 651.655C187.424 766.255 205.352 885.374 257.471 988.39C334.546 1140.74 478.594 1248.45 646.27 1279.13C669.062 1283.3 668.332 1285.9 652.691 1256.26C543.758 1049.78 378.708 749.238 313.692 638.976C303.504 621.699 280.576 584.471 280.212 584.616C280.12 584.653 274.71 586.82 268.19 589.431ZM403.6 663.341C474.419 789.003 528.691 887.343 599.119 1017.61C617.243 1051.14 617.374 1051.34 618.189 1047.25C618.64 1044.99 624.331 984.206 630.835 912.185C637.339 840.165 642.86 779.784 643.106 778.005C643.497 775.163 641.639 776.679 627.765 790.512C613.697 804.54 610.983 806.74 602.82 810.737C597.781 813.203 588.809 816.461 582.882 817.976C573.442 820.389 570.433 820.678 558.633 820.303C543.578 819.823 534.535 817.357 523.36 810.684C505.171 799.82 496.364 786.981 473.375 737.806C457.135 703.07 454.237 697.895 447.895 692.296C442.515 687.544 423.872 673.976 409.462 664.323L400.933 658.609L403.6 663.341ZM842.885 756.651C838.706 772.967 831.907 786.408 823.489 794.993C819.779 798.776 815.562 802.603 814.116 803.497L811.486 805.126L922.293 1004.42C983.237 1114.03 1033.29 1203.92 1033.51 1204.18C1034.11 1204.84 1057.15 1189.17 1071.62 1178.25C1096.47 1159.52 1119.05 1139.26 1140.86 1116.12C1153.25 1102.98 1168.63 1085.05 1168.6 1083.78C1168.59 1083.36 1163.94 1081.12 1158.26 1078.8C1152.58 1076.49 1144.95 1072.42 1141.3 1069.76C1128.39 1060.35 1093.79 1024.73 1047.41 973.078C990.738 909.979 889.717 792.757 863.181 759.307C857.997 752.772 848.972 745.134 846.437 745.134C846.106 745.134 844.507 750.317 842.885 756.651ZM710.601 759.684C710.57 760.276 702.367 849.946 692.371 958.951L674.195 1157.14L695.771 1197.67C707.638 1219.96 723.143 1249.48 730.226 1263.26L743.104 1288.32L757.292 1287.73C804.453 1285.78 835.885 1281.51 876.386 1271.54C914.723 1262.11 976.874 1239.02 975.261 1234.82C974.861 1233.78 717.393 770.359 711.583 760.222C711.074 759.333 710.632 759.091 710.601 759.684Z" fill="white"/>
</svg>
