<svg id="ic_dai_40" xmlns="http://www.w3.org/2000/svg" xmlns:xlink="http://www.w3.org/1999/xlink" width="40" height="40" viewBox="0 0 40 40">
  <defs>
    <linearGradient id="linear-gradient" x1="0.5" y1="1.142" x2="0.5" y2="-0.105" gradientUnits="objectBoundingBox">
      <stop offset="0" stop-color="#f9a606"/>
      <stop offset="1" stop-color="#fbcc5f"/>
    </linearGradient>
  </defs>
  <circle id="Ellipse_82" data-name="Ellipse 82" cx="20" cy="20" r="20" fill="url(#linear-gradient)"/>
  <path id="Path_1564" data-name="Path 1564" d="M167.98,164.744h-2.307c-1.27-3.526-4.686-5.944-9.191-5.944h-7.409v5.944H146.5v2.132h2.573v2.236H146.5v2.132h2.573v5.872h7.409c4.453,0,7.843-2.4,9.146-5.872h2.353v-2.132h-1.834a9.677,9.677,0,0,0,.071-1.154v-.052c0-.35-.019-.694-.052-1.031h1.821v-2.132ZM151.147,160.7h5.334a7.274,7.274,0,0,1,6.9,4.038H151.147Zm5.334,14.5h-5.334v-3.96h12.218A7.281,7.281,0,0,1,156.482,175.2Zm7.59-7.195a7.666,7.666,0,0,1-.078,1.1H151.147V166.87H164a8.432,8.432,0,0,1,.071,1.082Z" transform="translate(-136.449 -147.952)" fill="#fff"/>
</svg>
