<svg width="24" height="24" viewBox="0 0 24 24" fill="none" xmlns="http://www.w3.org/2000/svg">
<path d="M0 12C0 5.37258 5.37258 0 12 0V0C18.6274 0 24 5.37258 24 12V12C24 18.6274 18.6274 24 12 24V24C5.37258 24 0 18.6274 0 12V12Z" fill="#E6007A"/>
<path d="M15.5241 4.05882C15.5241 5.19411 13.9419 6.11764 11.9948 6.11764C10.0477 6.11764 8.46535 5.19411 8.46535 4.05882C8.46535 2.92352 10.0536 2 11.9948 2C13.936 2 15.5241 2.92352 15.5241 4.05882ZM15.5241 19.9412C15.5241 21.0764 13.9419 22 11.9948 22C10.0477 22 8.46535 21.0764 8.46535 19.9412C8.46535 18.8058 10.0536 17.8824 11.9948 17.8824C13.936 17.8824 15.5241 18.8058 15.5241 19.9412ZM6.90653 9.14705C7.90653 7.42351 7.9124 5.55881 6.93006 4.9941C5.94182 4.42352 4.34182 5.36469 3.34182 7.08823C2.34182 8.81175 2.34182 10.6765 3.3183 11.2411C4.30653 11.8058 5.90652 10.8706 6.90653 9.14705ZM20.6594 12.7529C21.6476 13.3118 21.6419 15.1411 20.6477 16.8352C19.6477 18.5294 18.0418 19.4471 17.0595 18.8882C16.0653 18.3294 16.0712 16.4999 17.0654 14.8059C18.0653 13.1118 19.6712 12.1941 20.6594 12.7529ZM6.93593 18.9C7.92417 18.3412 7.91829 16.5117 6.9183 14.8176C5.92417 13.1235 4.31829 12.2059 3.33006 12.7647C2.33595 13.3293 2.34182 15.1529 3.34182 16.847C4.33594 18.5412 5.94182 19.4646 6.93006 18.9059L6.93593 18.9ZM20.6594 7.0941C21.6594 8.81764 21.6594 10.6765 20.6771 11.2411C19.6948 11.8117 18.0889 10.8765 17.0888 9.14705C16.1006 7.42351 16.0888 5.5647 17.0713 4.99999C18.0595 4.42941 19.6595 5.36469 20.6594 7.0941Z" fill="white"/>
</svg>
