<svg xmlns="http://www.w3.org/2000/svg" width="34" height="35" fill="none"><path fill="url(#a)" fill-rule="evenodd" d="M13.487 0 1.185 4.783C-2.298 16.794 1.922 24.766 13.487 30c11.544-5.347 15.772-13.156 12.3-25.217L13.487 0Zm.095 4.382 9.34 15.5h-3.888l-5.45-9.025-3.772 6.181h1.942l1.827-3.075 3.683 5.924H4.214l9.368-15.505Z" clip-rule="evenodd"/><path fill="#E84142" d="M33.483 25c0-5.523-4.477-10-10-10s-10 4.477-10 10 4.477 10 10 10 10-4.477 10-10Z"/><path fill="#1E1F37" d="M23.483 16.25a8.75 8.75 0 1 0 0 17.5 8.75 8.75 0 0 0 0-17.5Zm0-1.25a10 10 0 1 1 0 20 10 10 0 0 1 0-20Z"/><path fill="#fff" d="M26.056 25.025a.482.482 0 0 1 .912 0l1.57 2.761c.25.436.046.793-.46.793h-3.165c-.5 0-.706-.356-.459-.793l1.602-2.761Zm-3.044-5.317a.477.477 0 0 1 .907 0l.35.631.827 1.452a1.508 1.508 0 0 1 0 1.315l-2.774 4.806a1.46 1.46 0 0 1-1.137.666h-2.3c-.5 0-.713-.35-.459-.793l4.586-8.077Z"/><defs><linearGradient id="a" x1="23.541" x2="7.152" y1="4.26" y2="25.911" gradientUnits="userSpaceOnUse"><stop stop-color="#03D1CF" stop-opacity=".988"/><stop offset="1" stop-color="#4E09F8"/></linearGradient></defs></svg>