<svg xmlns="http://www.w3.org/2000/svg" width="40" height="40" fill="none" viewBox="0 0 40 40">
  <g clip-path="url(#a)">
    <rect width="40" height="40" fill="#fff" rx="20"/>
    <g clip-path="url(#b)">
      <path fill="#111" stroke="#111" stroke-width=".723" d="M20 .359c10.846 0 19.641 8.795 19.641 19.64 0 10.847-8.795 19.642-19.64 19.642C9.153 39.641.358 30.846.358 20 .359 9.154 9.154.359 20 .359Z"/>
      <path fill="url(#c)" fill-opacity=".7" d="M20 0C8.95 0 0 8.95 0 20c0 11.04 8.95 20 20 20 11.04 0 20-8.95 20-20S31.04 0 20 0Z"/>
      <path stroke="url(#d)" stroke-width=".733" d="M20 .369c10.846 0 19.631 8.785 19.631 19.63 0 10.847-8.785 19.632-19.631 19.632S.37 30.846.37 20 9.153.369 20 .369Z"/>
      <path fill="#fff" fill-rule="evenodd" d="M15.623 10.702h-.43l-.277.328-7.125 8.375-.513.595.513.594 7.135 8.376.277.328H29.4v-6.253h-1.845v4.407h-9.902l5.925-6.847L24.1 20l-.523-.605-5.925-6.848h9.902v4.408H29.4v-6.253H15.623Zm.01 2.337L9.708 20l5.925 6.961L21.651 20l-6.018-6.96Z" clip-rule="evenodd"/>
    </g>
  </g>
  <defs>
    <clipPath id="a">
      <rect width="40" height="40" fill="#fff" rx="20"/>
    </clipPath>
    <clipPath id="b">
      <path fill="#fff" d="M0 0h40v40H0z"/>
    </clipPath>
    <radialGradient id="c" cx="0" cy="0" r="1" gradientTransform="matrix(0 42.1683 -29.6822 0 20.045 5.84)" gradientUnits="userSpaceOnUse">
      <stop offset=".031" stop-color="#3A3A3A"/>
      <stop offset="1" stop-color="#1C1C1C"/>
    </radialGradient>
    <linearGradient id="d" x1="20" x2="20" y1="-.377" y2="40.377" gradientUnits="userSpaceOnUse">
      <stop stop-color="#fff"/>
      <stop offset="1" stop-color="#111"/>
    </linearGradient>
  </defs>
</svg>
