<svg xmlns="http://www.w3.org/2000/svg" width="33" height="34" fill="none"><path fill="url(#a)" fill-rule="evenodd" d="M14.002 0 1.7 4.783C-1.783 16.794 2.437 24.766 14.002 30c11.544-5.347 15.772-13.156 12.3-25.217L14.002 0Zm.095 4.382 9.34 15.5h-3.888l-5.451-9.025-3.771 6.181h1.942l1.827-3.075 3.683 5.924H4.728l9.369-15.505Z" clip-rule="evenodd"/><path fill="#3E4062" d="M32.462 23.462c0-5.523-4.477-10-10-10s-10 4.477-10 10 4.477 10 10 10 10-4.477 10-10Z"/><path fill="#1E1F37" d="M22.463 14.712a8.75 8.75 0 1 0 0 17.5 8.75 8.75 0 0 0 0-17.5Zm0-1.25a10 10 0 1 1 0 20 10 10 0 0 1 0-20Z"/><path fill="#2D374B" d="m24.174 22.991 1.006-1.707 2.712 4.224v.811-5.576a.421.421 0 0 0-.194-.334l-4.883-2.808a.43.43 0 0 0-.373 0l-.044.025-.017.01-4.739 2.747-.018.008a.422.422 0 0 0-.246.356l.008 4.55 2.519-3.916a1.854 1.854 0 0 1 1.658-.673l.755.02-4.449 7.133.52.3 4.5-7.428 1.99-.008-4.486 7.613 1.874 1.07.224.13a.429.429 0 0 0 .3 0l4.95-2.869-.946.549-2.621-4.227Zm.39 5.529-1.892-2.967 1.153-1.958 2.48 3.908-1.741 1.017Z"/><path fill="#28A0F0" d="m22.673 25.552 1.89 2.967 1.746-1.011-2.482-3.912-1.154 1.956Zm5.226.762v-.811l-2.712-4.224-1.006 1.707 2.618 4.234.946-.549a.42.42 0 0 0 .155-.305l-.001-.052Z"/><path fill="#fff" d="m16.534 27.082 1.336.77 4.445-7.134-.755-.019a1.85 1.85 0 0 0-1.654.677l-2.526 3.916-.85 1.3.004.49Zm8.352-6.364-1.99.008-4.5 7.428 1.573.91.428-.725 4.489-7.621Z"/><path fill="#96BEDC" d="M28.731 20.707a1.268 1.268 0 0 0-.6-1.019l-4.94-2.844a1.286 1.286 0 0 0-1.135 0c-.042.021-4.81 2.787-4.81 2.787a1.266 1.266 0 0 0-.716 1.074v5.89l.85-1.3-.008-4.55a.4.4 0 0 1 0-.049.42.42 0 0 1 .169-.266c.022-.016 4.872-2.824 4.888-2.831a.43.43 0 0 1 .373 0l4.883 2.808a.42.42 0 0 1 .194.334v5.63a.411.411 0 0 1-.146.306l-.946.549-.489.283-1.742 1.011-1.77 1.026a.429.429 0 0 1-.3 0l-2.094-1.205-.428.725 1.882 1.084.164.092.13.074a1.275 1.275 0 0 0 .961.013l5.153-2.982a1.257 1.257 0 0 0 .485-.948v-5.7l-.008.008Z"/><defs><linearGradient id="a" x1="24.056" x2="7.666" y1="4.26" y2="25.911" gradientUnits="userSpaceOnUse"><stop stop-color="#03D1CF" stop-opacity=".988"/><stop offset="1" stop-color="#4E09F8"/></linearGradient></defs></svg>