<svg width="20" height="20" viewBox="0 0 20 20" fill="none" xmlns="http://www.w3.org/2000/svg">
<path d="M16.8561 3.32324C16.8561 5.38582 15.9411 7.23474 15.09 8.51825C14.6946 9.11439 14.2983 9.60705 13.986 9.96837C14.2846 10.2859 14.6499 10.7141 15.0132 11.2498C15.857 12.4942 16.7151 14.3367 16.7151 16.6777H14.91C14.91 14.793 14.2222 13.2984 13.5203 12.2631C13.1696 11.746 12.819 11.3491 12.5598 11.0849C12.4307 10.9533 12.3245 10.8556 12.2539 10.7929C12.2192 10.762 12.1932 10.7396 12.1771 10.7262C12.1693 10.7196 12.1635 10.7145 12.1608 10.7123L11.3451 10.0678L12.1004 9.35031L12.123 9.32765C12.1424 9.30853 12.1728 9.27773 12.2124 9.23701C12.2915 9.15558 12.4079 9.03291 12.5485 8.87323C12.831 8.55248 13.2091 8.08796 13.5857 7.52003C14.3511 6.36576 15.0522 4.87334 15.0522 3.32324H16.8561Z" fill="currentColor"/>
<path fill-rule="evenodd" clip-rule="evenodd" d="M8.1777 11.1161C8.35594 10.9532 8.538 10.7889 8.723 10.6224L8.92331 10.4422C9.06519 10.3146 9.20853 10.1853 9.35241 10.0542L9.41113 10.0006C11.2636 8.30709 13.1831 6.29523 13.1831 3.30762H11.5098C11.5098 3.90984 11.4077 4.46218 11.2224 4.98086H5.10427C4.91901 4.46218 4.81686 3.90984 4.81686 3.30762H3.14362C3.14362 6.29523 5.06311 8.30709 6.91554 10.0006C5.06311 11.6941 3.14362 13.706 3.14362 16.6935H4.81686C4.81686 16.0913 4.91901 15.539 5.10427 15.0203H11.2224C11.4077 15.539 11.5098 16.0913 11.5098 16.6935H13.1831C13.1831 14.3606 12.0127 12.6227 10.6177 11.1667C10.4368 11.3321 10.2606 11.4903 10.0917 11.642L9.84235 11.8662C9.67974 12.0125 9.52328 12.1542 9.3729 12.2919C9.70879 12.6396 10.0168 12.9888 10.2881 13.3471H6.0386C6.611 12.5913 7.34688 11.8755 8.16334 11.1292L8.1777 11.1161ZM6.0386 6.6541H10.2881C9.71567 7.40994 8.9798 8.12566 8.16334 8.87198C7.34688 8.12566 6.611 7.40994 6.0386 6.6541Z" fill="currentColor"/>
</svg>
