<svg height="24.002" viewBox="0 0 24 24.002" width="24" xmlns="http://www.w3.org/2000/svg"><path d="m0 .003h24v24h-24z" fill="none"/><path d="m23.64 14.905a12 12 0 1 1 -8.74-14.545 12 12 0 0 1 8.74 14.545z" fill="#fff" transform="translate(0 -.001)"/><g transform="translate(6.858 3.628)"><path d="m383.612 0-.112.382v11.075l.112.112 5.141-3.039z" fill="#343434" transform="translate(-378.471)"/><path d="m5.141 0-5.141 8.53 5.141 3.039z" fill="#8c8c8c"/><path d="m387.3 727.927-.063.077v3.945l.063.185 5.144-7.245z" fill="#3c3c3b" transform="translate(-382.162 -715.385)"/><path d="m5.141 732.135v-4.207l-5.141-3.038z" fill="#8c8c8c" transform="translate(0 -715.385)"/><path d="m392.07 477.706 5.141-3.039-5.141-2.337z" fill="#141414" transform="translate(-386.929 -466.137)"/><path d="m0 474.667 5.141 3.039v-5.376z" fill="#393939" transform="translate(0 -466.137)"/></g></svg>