<svg xmlns="http://www.w3.org/2000/svg" width="20" height="20" fill="currentColor" viewBox="0 0 20 20">
  <path d="M1.667 10.002c0-3.929 0-5.893 1.22-7.113 1.22-1.22 3.185-1.22 7.113-1.22 3.445 0 5.38 0 6.627.822.223.17.712.583.883.884.823 1.247.823 3.181.823 6.627 0 3.928 0 5.892-1.22 7.112-1.22 1.22-3.184 1.22-7.113 1.22-3.445 0-5.38 0-6.626-.822l4.334-4.335v1.616a.625.625 0 0 0 1.25 0v-3.125a.625.625 0 0 0-.625-.625H5.208a.625.625 0 1 0 0 1.25h1.617L2.49 16.628c-.823-1.247-.823-3.181-.823-6.627Z"/>
</svg>
