<svg width="20" height="21" viewBox="0 0 20 21" fill="none" xmlns="http://www.w3.org/2000/svg">
<path d="M2.5 6.67871L9.075 11.062C9.34888 11.2448 9.67075 11.3423 10 11.3423C10.3292 11.3423 10.6511 11.2448 10.925 11.062L17.5 6.67871M4.16667 15.8454H15.8333C16.2754 15.8454 16.6993 15.6698 17.0118 15.3572C17.3244 15.0447 17.5 14.6207 17.5 14.1787V5.84538C17.5 5.40335 17.3244 4.97943 17.0118 4.66687C16.6993 4.35431 16.2754 4.17871 15.8333 4.17871H4.16667C3.72464 4.17871 3.30072 4.35431 2.98816 4.66687C2.67559 4.97943 2.5 5.40335 2.5 5.84538V14.1787C2.5 14.6207 2.67559 15.0447 2.98816 15.3572C3.30072 15.6698 3.72464 15.8454 4.16667 15.8454Z" stroke="#91929e" stroke-width="1.5" stroke-linecap="round" stroke-linejoin="round"/>
</svg>
