<svg xmlns="http://www.w3.org/2000/svg" width="33" height="34" fill="none"><path fill="url(#a)" fill-rule="evenodd" d="M14.002 0 1.7 4.783C-1.783 16.794 2.437 24.766 14.002 30c11.544-5.347 15.772-13.156 12.3-25.217L14.002 0Zm.095 4.382 9.34 15.5h-3.888l-5.451-9.025-3.771 6.181h1.942l1.827-3.075 3.683 5.924H4.728l9.369-15.505Z" clip-rule="evenodd"/><path fill="#3E4062" d="M32.462 23.462c0-5.523-4.477-10-10-10s-10 4.477-10 10 4.477 10 10 10 10-4.477 10-10Z"/><path fill="#1E1F37" d="M22.463 14.712a8.75 8.75 0 1 0 0 17.499 8.75 8.75 0 0 0 0-17.5Zm0-1.25a10 10 0 1 1 0 20 10 10 0 0 1 0-20Z"/><path fill="#213147" d="M16.847 20.775v5.374a.96.96 0 0 0 .48.831l4.654 2.687a.963.963 0 0 0 .96 0l4.654-2.687a.96.96 0 0 0 .48-.831v-5.374a.959.959 0 0 0-.48-.831l-4.654-2.687a.962.962 0 0 0-.96 0l-4.655 2.687a.958.958 0 0 0-.479.831Z"/><path fill="#12AAFF" d="m23.476 24.504-.664 1.82a.233.233 0 0 0 0 .156l1.142 3.132 1.321-.763-1.585-4.345a.114.114 0 0 0-.214 0ZM24.807 21.444a.114.114 0 0 0-.172-.054.113.113 0 0 0-.042.054l-.664 1.82a.235.235 0 0 0 0 .156l1.871 5.127 1.321-.763-2.314-6.341Z"/><path fill="#9DCCED" d="M22.46 17.457a.2.2 0 0 1 .094.025l5.036 2.908a.19.19 0 0 1 .094.163v5.815a.188.188 0 0 1-.094.163l-5.036 2.908a.186.186 0 0 1-.188 0l-5.036-2.906a.19.19 0 0 1-.094-.163v-5.816a.187.187 0 0 1 .094-.163l5.036-2.908a.19.19 0 0 1 .094-.026Zm0-.85c-.183 0-.362.049-.52.14l-5.035 2.907a1.04 1.04 0 0 0-.52.9v5.815a1.039 1.039 0 0 0 .52.9l5.036 2.908a1.044 1.044 0 0 0 1.04 0l5.036-2.908a1.038 1.038 0 0 0 .52-.9v-5.815a1.039 1.039 0 0 0-.52-.9l-5.037-2.907a1.035 1.035 0 0 0-.52-.14Z"/><path fill="#213147" d="m19.13 28.554.463-1.27.932.776-.872.8-.523-.306Z"/><path fill="#fff" d="M22.036 20.138h-1.277a.227.227 0 0 0-.214.15l-2.737 7.5 1.321.763 3.014-8.262a.113.113 0 0 0-.107-.151ZM24.27 20.138h-1.277a.227.227 0 0 0-.214.15l-3.125 8.567 1.32.763 3.4-9.327a.114.114 0 0 0-.104-.153Z"/><defs><linearGradient id="a" x1="24.056" x2="7.666" y1="4.26" y2="25.911" gradientUnits="userSpaceOnUse"><stop stop-color="#03D1CF" stop-opacity=".988"/><stop offset="1" stop-color="#4E09F8"/></linearGradient></defs></svg>