<svg width="24" height="24" viewBox="0 0 24 24" fill="none" xmlns="http://www.w3.org/2000/svg">
<g clip-path="url(#clip0_259_53)">
<circle cx="12" cy="12" r="12" fill="white"/>
<path d="M13.3462 10.2843L12.8843 12.6281L17.2694 13.2149L16.9618 14.3136L12.6538 13.7274C12.3462 14.68 12.1925 15.7056 11.8075 16.585C11.4231 17.6106 11.0387 18.6361 10.5768 19.5887C9.96125 20.8343 8.88435 21.7136 7.42311 21.9331C6.57687 22.08 5.65437 22.0068 4.96125 21.4937C4.73063 21.3475 4.50001 21.0543 4.50001 20.8343C4.50001 20.5411 4.49375 20.1974 4.88438 20.0281C5.27499 19.8594 5.43625 19.9781 5.65375 20.1017C5.88499 20.3212 6.11561 20.6144 6.26937 20.9081C6.73062 21.4937 7.34624 21.5668 7.96123 21.1268C8.65373 20.5411 9.03873 19.7356 9.26942 18.9293C9.73055 17.1712 10.1925 15.4856 10.5768 13.7274V13.4343L6.49999 12.848L6.65374 11.7493L10.885 12.3356L11.4225 10.0644L7.03811 9.40492L7.19249 8.23249L11.7306 8.81874C11.8844 8.37936 11.9618 8.01249 12.1156 7.64625C12.4999 6.3275 12.8843 5.00874 13.8074 3.83688C14.7306 2.66438 15.8074 1.93189 17.4231 2.00501C18.1156 2.00501 18.8075 2.22502 19.2693 2.73752C19.3462 2.81064 19.4999 2.9575 19.4999 3.10376C19.4999 3.39751 19.4999 3.76376 19.2687 3.98313C18.9612 4.20313 18.5768 4.13 18.2688 3.83688C18.0381 3.61689 17.8843 3.39688 17.6536 3.17751C17.1925 2.59126 16.5 2.51814 15.9618 3.03064C15.5768 3.39688 15.1924 3.91001 14.9619 4.42312C14.4232 5.96125 14.0387 7.57311 13.5 9.18558L17.7312 9.77125L17.4231 10.87L13.3462 10.2843Z" fill="#0090FF"/>
</g>
<defs>
<clipPath id="clip0_259_53">
<rect width="24" height="24" fill="white"/>
</clipPath>
</defs>
</svg>
