<svg width="24" height="24" viewBox="0 0 24 24" fill="none" xmlns="http://www.w3.org/2000/svg">
<path d="M0 12C0 5.37258 5.37258 0 12 0C18.6274 0 24 5.37258 24 12C24 18.6274 18.6274 24 12 24C5.37258 24 0 18.6274 0 12Z" fill="black"/>
<g clip-path="url(#clip0_225_1267)">
<path d="M21.2296 17.2994C20.9719 20.3598 17.3638 22.937 11.9517 22.8081C6.86179 22.6793 3.28595 20.5531 3.02824 17.4927C2.99602 17.1061 3.02824 16.7195 3.06045 16.3008C3.22153 15.1088 3.64032 13.9813 4.2524 12.9504L4.63897 13.1115C5.63763 12.7249 6.6685 12.435 7.73159 12.2417C9.11683 12.0484 10.5343 12.0162 11.9195 12.1128C13.3047 12.0162 14.7222 12.0484 16.1074 12.2417C17.1705 12.435 18.2014 12.7249 19.2 13.1115L19.5866 12.9504L19.8443 12.8216C20.4564 13.8524 20.8752 14.9799 21.1007 16.1719C21.1651 16.5263 21.1974 16.9128 21.1651 17.2672" fill="#F4A427"/>
<path d="M21.2296 17.2994C20.9719 20.3275 17.396 22.8081 11.9517 22.7759C6.86179 22.647 3.28595 20.5208 3.02824 17.4604C2.99602 17.0739 3.02824 16.6873 3.06045 16.2685C3.6081 16.1396 4.15575 16.1396 4.7034 16.2363C5.73428 16.3973 6.31414 17.0416 7.05508 17.3638C7.47387 17.5571 7.89267 17.2349 8.27924 16.8806C9.31012 15.8819 10.6953 15.302 12.1128 15.2698C13.5625 15.2376 14.7544 15.8175 16.0108 16.9772C16.2685 17.2349 16.6229 17.396 16.9772 17.3638C17.2994 17.2671 17.6215 17.1061 17.8792 16.8806C18.8457 16.2363 20.0054 15.9786 21.1329 16.1396C21.2296 16.5584 21.2618 16.9128 21.2296 17.2994Z" fill="white"/>
<path d="M6.24967 9.76119C5.89531 10.1156 5.4443 10.3733 4.96108 10.4699L4.76779 10.5021C4.5745 10.5666 4.38122 10.5988 4.15571 10.5988C4.1235 10.5988 4.05907 10.5988 4.02685 10.5988C3.93021 10.5666 3.80135 10.5343 3.70471 10.5021C3.35034 10.3411 3.0282 10.1478 2.73826 9.89005C2.1584 9.40683 1.61075 8.85918 1.19195 8.21489C-0.579858 5.6377 -0.0322067 2.15851 2.41612 0.225624C2.57719 0.128979 2.77048 0.128979 2.89934 0.290053C2.96377 0.386698 2.99598 0.483342 2.96377 0.579986C2.73826 1.61086 2.54497 3.2216 3.51142 4.60683C4.349 5.76656 6.0886 6.89408 7.15169 6.89408C7.37719 8.18267 7.02283 9.05247 6.24967 9.76119Z" fill="#F79422"/>
<path d="M6.24967 9.76119C5.89531 10.1156 5.4443 10.3733 4.96108 10.4699L4.76779 10.5021C4.5745 10.5666 4.38122 10.5988 4.15571 10.5988C4.1235 10.5988 4.05907 10.5988 4.02685 10.5988C3.93021 10.5666 3.80135 10.5343 3.70471 10.5021C3.35034 10.3411 3.0282 10.1478 2.73826 9.89005C2.1584 9.40683 1.61075 8.85918 1.19195 8.21489C-0.579858 5.6377 -0.0322067 2.15851 2.41612 0.225624C2.57719 0.128979 2.77048 0.128979 2.89934 0.290053C2.96377 0.386698 2.99598 0.483342 2.96377 0.579986C2.73826 1.61086 2.54497 3.2216 3.51142 4.60683C4.349 5.76656 6.0886 6.89408 7.15169 6.89408C7.37719 8.18267 7.02283 9.05247 6.24967 9.76119Z" stroke="#221F1F" stroke-width="0.322148" stroke-linejoin="round"/>
<path d="M10.8887 5.31543L10.4699 9.43892H10.4377C9.79336 9.53556 8.92356 9.66442 7.73161 9.85771C6.63631 10.0188 5.15443 10.7919 4.28463 11.3074L4.18799 10.6309C4.38128 10.5987 4.60678 10.5664 4.80007 10.5342L4.99336 10.502C5.47658 10.4054 5.92759 10.1476 6.28195 9.79328C7.02289 9.05234 7.40946 8.21476 7.15175 6.89395L7.28061 6.92617C7.66718 6.50738 8.11819 6.18523 8.63363 5.92751C9.31014 5.54093 10.0833 5.34764 10.8887 5.31543Z" fill="#5A595C"/>
<path d="M10.8887 5.31543L10.4699 9.43892H10.4377C9.79336 9.53556 8.92356 9.66442 7.73161 9.85771C6.63631 10.0188 5.15443 10.7919 4.28463 11.3074L4.18799 10.6309C4.38128 10.5987 4.60678 10.5664 4.80007 10.5342L4.99336 10.502C5.47658 10.4054 5.92759 10.1476 6.28195 9.79328C7.02289 9.05234 7.40946 8.21476 7.15175 6.89395L7.28061 6.92617C7.66718 6.50738 8.11819 6.18523 8.63363 5.92751C9.31014 5.54093 10.0833 5.34764 10.8887 5.31543Z" stroke="#221F1F" stroke-width="0.322148" stroke-linejoin="round"/>
<path d="M20.2953 12.7248L20.0375 12.8537L19.7798 12.9826L19.3933 13.1436C18.3946 12.7571 17.3637 12.4671 16.3006 12.2738C14.9154 12.0161 13.5302 11.8873 12.1127 11.8873C10.6953 11.8873 9.31003 11.9839 7.9248 12.2738C6.86171 12.4671 5.83084 12.7571 4.83218 13.1436C4.70332 13.0792 4.57446 13.0148 4.4456 12.9826L3.89795 12.7248C3.93016 12.2738 3.89795 12.0161 3.89795 11.5651C3.99459 11.5007 4.15567 11.404 4.31674 11.3074L4.34896 11.2752C5.18654 10.7597 6.66842 10.0188 7.76372 9.82552C8.95567 9.63223 9.79325 9.50337 10.4698 9.40673C10.8886 9.37451 11.3396 9.37451 11.7906 9.37451C12.4671 9.37451 13.0792 9.37451 13.6912 9.40673C14.3355 9.50337 15.2053 9.63223 16.4295 9.82552C17.557 9.98659 19.0389 10.7597 19.9087 11.2752H19.9409C20.102 11.3718 20.2308 11.4363 20.3275 11.5329C20.2953 12.0161 20.2631 12.2738 20.2953 12.7248Z" fill="#929497"/>
<path d="M20.2953 12.7248L20.0375 12.8537L19.7798 12.9826L19.3933 13.1436C18.3946 12.7571 17.3637 12.4671 16.3006 12.2738C14.9154 12.0483 13.5302 11.9195 12.1127 11.9195C10.6953 11.9195 9.31003 12.0161 7.9248 12.2738C6.86171 12.4671 5.83084 12.7571 4.83218 13.1436C4.70332 13.0792 4.57446 13.0148 4.4456 12.9826L3.89795 12.7248C3.93016 12.2738 3.89795 12.0161 3.89795 11.5651C3.99459 11.5007 4.15567 11.404 4.31674 11.3074L4.34896 11.2752C5.18654 10.7597 6.66842 10.0188 7.76372 9.82552C8.95567 9.63223 9.79325 9.50337 10.4698 9.40673C10.8886 9.37451 11.3396 9.37451 11.7906 9.37451C12.4671 9.37451 13.0792 9.37451 13.6912 9.40673C14.3355 9.50337 15.2053 9.63223 16.4295 9.82552C17.557 9.98659 19.0389 10.7597 19.9087 11.2752H19.9409C20.102 11.3718 20.2308 11.4363 20.3275 11.5329C20.2953 12.0161 20.2631 12.2738 20.2953 12.7248Z" stroke="#221F1F" stroke-width="0.322148" stroke-linecap="round" stroke-linejoin="round"/>
<path d="M13.6591 9.43899C13.0792 9.40678 12.4349 9.37457 11.7584 9.40678C11.3074 9.40678 10.8564 9.43899 10.4376 9.43899H10.4698L10.8886 5.31551L10.9853 4.47792C11.3074 4.28463 11.694 4.18799 12.0484 4.18799H12.1128C12.4994 4.18799 12.8537 4.28463 13.1759 4.47792L13.2725 5.31551V5.34772L13.6591 9.43899Z" fill="#929497"/>
<path d="M13.6591 9.439C13.0792 9.40678 12.4349 9.37457 11.7584 9.40678C11.3074 9.40678 10.8564 9.439 10.4376 9.439H10.4698L10.8886 5.31551L10.9853 4.47792C11.3074 4.28463 11.694 4.18799 12.0484 4.18799H12.1128C12.4994 4.18799 12.8537 4.28463 13.1759 4.47792L13.2725 5.31551V5.34772L13.6591 9.439Z" stroke="#221F1F" stroke-width="0.322148" stroke-linecap="round" stroke-linejoin="round"/>
<circle cx="20.0375" cy="12.8537" r="0.161074" fill="#221F1F"/>
<path d="M21.2296 17.3315C20.9719 20.3919 17.0739 22.8402 11.9517 22.8402C6.86181 22.7114 3.28597 20.5852 3.06046 17.5248C3.02825 17.1382 3.06046 16.7516 3.09268 16.3328C3.25375 15.1409 3.67254 14.0134 4.28462 12.9825L4.6712 13.1436C5.66986 12.757 6.70073 12.4671 7.76382 12.2738C9.14905 12.0161 10.5343 11.9194 11.9517 11.8872C13.3692 11.8872 14.7544 12.0161 16.1397 12.2738C17.2027 12.4671 18.2336 12.757 19.2323 13.1436L19.6511 12.9825L19.9088 12.8536C20.5209 13.8845 20.9397 15.012 21.1652 16.204C21.2618 16.5906 21.2618 16.9771 21.2296 17.3315Z" stroke="#221F1F" stroke-width="0.322148" stroke-linecap="round" stroke-linejoin="round"/>
<path d="M22.8081 8.21477C22.3571 8.82685 21.8417 9.40671 21.2296 9.88994C20.9396 10.1477 20.6175 10.3409 20.2631 10.502L20.1021 10.5664L20.0054 10.5987C19.7799 10.6631 19.6511 10.5987 19.2323 10.5342L19.039 10.502C18.5558 10.4054 18.1047 10.1477 17.7504 9.79329C17.0094 9.05235 16.6229 8.21477 16.8806 6.89396C17.9115 6.92618 19.6833 5.79866 20.5209 4.60671C21.4551 3.22148 21.2618 1.61074 21.0363 0.579867C21.0041 0.386579 21.1007 0.225505 21.294 0.161076C21.3907 0.128861 21.5195 0.161076 21.5839 0.225505C24.0323 2.15839 24.5799 5.6698 22.8081 8.21477Z" fill="#F79422"/>
<path d="M22.8081 8.21477C22.3571 8.82685 21.8417 9.40671 21.2296 9.88994C20.9396 10.1477 20.6175 10.3409 20.2631 10.502L20.1021 10.5664L20.0054 10.5987C19.7799 10.6631 19.6511 10.5987 19.2323 10.5342L19.039 10.502C18.5558 10.4054 18.1047 10.1477 17.7504 9.79329C17.0094 9.05235 16.6229 8.21477 16.8806 6.89396C17.9115 6.92618 19.6833 5.79866 20.5209 4.60671C21.4551 3.22148 21.2618 1.61074 21.0363 0.579867C21.0041 0.386579 21.1007 0.225505 21.294 0.161076C21.3907 0.128861 21.5195 0.161076 21.5839 0.225505C24.0323 2.15839 24.5799 5.6698 22.8081 8.21477Z" stroke="#221F1F" stroke-width="0.322148" stroke-linejoin="round"/>
<path d="M20.0053 10.5987L19.8765 11.3074C19.0067 10.7919 17.5248 10.0188 16.3973 9.85771C15.1731 9.66442 14.3355 9.53556 13.659 9.43892L13.2402 5.31543C13.9812 5.34764 14.7221 5.57315 15.3986 5.92751C15.9141 6.18523 16.3651 6.53959 16.7516 6.92617L16.8805 6.89395C16.6228 8.18254 17.0094 9.05234 17.7503 9.79328C18.1047 10.1476 18.5557 10.4054 19.0389 10.502C19.0711 10.502 19.2 10.5664 19.2322 10.5664C19.4899 10.6631 19.7476 10.6631 20.0053 10.5987Z" fill="#5A595C"/>
<path d="M20.0053 10.5987L19.8765 11.3074C19.0067 10.7919 17.5248 10.0188 16.3973 9.85771C15.1731 9.66442 14.3355 9.53556 13.659 9.43892L13.2402 5.31543C13.9812 5.34764 14.7221 5.57315 15.3986 5.92751C15.9141 6.18523 16.3651 6.53959 16.7516 6.92617L16.8805 6.89395C16.6228 8.18254 17.0094 9.05234 17.7503 9.79328C18.1047 10.1476 18.5557 10.4054 19.0389 10.502L19.2322 10.5342C19.651 10.5987 19.7798 10.6631 20.0053 10.5987Z" stroke="#221F1F" stroke-width="0.322148" stroke-linejoin="round"/>
<path d="M13.2403 5.31543H13.1115" stroke="#221F1F" stroke-width="0.322148" stroke-linejoin="round"/>
<path d="M20.0375 10.4375C20.263 10.6952 20.1986 11.0818 19.9409 11.3073C19.9087 11.3395 19.9087 11.3395 19.8765 11.3717" fill="#F79422"/>
<path d="M20.0375 10.4375C20.263 10.6952 20.1986 11.0818 19.9409 11.3073C19.9087 11.3395 19.9087 11.3395 19.8765 11.3717" stroke="#221F1F" stroke-width="0.322148" stroke-miterlimit="10"/>
<path d="M4.15569 10.4375C3.93018 10.6952 3.99461 11.0818 4.25233 11.3073C4.28455 11.3395 4.28455 11.3395 4.31676 11.3717" fill="#F79422"/>
<path d="M4.15569 10.4375C3.93018 10.6952 3.99461 11.0818 4.25233 11.3073C4.28455 11.3395 4.28455 11.3395 4.31676 11.3717" stroke="#221F1F" stroke-width="0.322148" stroke-miterlimit="10"/>
<path d="M10.8885 18.5558C11.1141 18.6202 11.3718 18.588 11.5973 18.4592C11.9516 18.3303 12.1771 17.9759 12.1449 17.5894C12.1127 17.9759 12.3382 18.3303 12.6926 18.4592C12.9181 18.5558 13.1436 18.588 13.3691 18.5558" stroke="#171717" stroke-width="0.322148" stroke-linecap="round" stroke-linejoin="round"/>
<path d="M13.4014 16.494C13.4014 16.8805 12.8215 17.396 12.1128 17.396C11.4041 17.396 10.8242 16.8805 10.8242 16.494C10.8242 16.1074 11.4041 15.9785 12.1128 15.9785C12.8215 15.9785 13.4014 16.1396 13.4014 16.494Z" fill="#171717"/>
<path d="M12.6281 16.365C12.6281 16.4617 12.3704 16.5905 12.0805 16.5905C11.7906 16.5905 11.5328 16.4617 11.5328 16.3972C11.5328 16.3328 11.7906 16.3328 12.0805 16.3328C12.3704 16.3328 12.6281 16.2684 12.6281 16.365Z" fill="white"/>
<path d="M10.0832 17.5894C10.051 18.0404 10.341 18.4269 10.792 18.5236H10.8886" stroke="#171717" stroke-width="0.322148" stroke-linecap="round" stroke-linejoin="round"/>
<path d="M12.145 17.1382C12.145 17.2993 12.145 17.4281 12.145 17.5892" stroke="#171717" stroke-width="0.322148" stroke-linecap="round" stroke-linejoin="round"/>
<path d="M13.4014 18.5558H13.498C13.949 18.4592 14.2712 18.0726 14.2067 17.6216" stroke="#171717" stroke-width="0.322148" stroke-linecap="round" stroke-linejoin="round"/>
<path d="M21.5839 0.225586C24.0322 2.15847 24.5476 5.63767 22.7758 8.18263" stroke="#221F1F" stroke-width="0.322148" stroke-linejoin="round"/>
<path d="M6.24967 9.76119C5.89531 10.1156 5.4443 10.3733 4.96108 10.4699L4.76779 10.5021C4.5745 10.5666 4.38122 10.5988 4.15571 10.5988C4.1235 10.5988 4.05907 10.5988 4.02685 10.5988C3.93021 10.5666 3.80135 10.5343 3.70471 10.5021C3.35034 10.3411 3.0282 10.1478 2.73826 9.89005C2.1584 9.40683 1.61075 8.85918 1.19195 8.21489C-0.579858 5.6377 -0.0322067 2.15851 2.41612 0.225624C2.57719 0.128979 2.77048 0.128979 2.89934 0.290053C2.96377 0.386698 2.99598 0.483342 2.96377 0.579986C2.73826 1.61086 2.54497 3.2216 3.51142 4.60683C4.349 5.76656 6.0886 6.89408 7.15169 6.89408C7.37719 8.18267 7.02283 9.05247 6.24967 9.76119Z" stroke="#221F1F" stroke-width="0.322148" stroke-linejoin="round"/>
<path d="M9.76103 14.3999C9.76103 15.1087 9.34224 15.6563 8.82681 15.6563C8.31137 15.6563 7.89258 15.0764 7.89258 14.3999C7.89258 13.7879 8.21473 13.2724 8.63352 13.1436L9.66439 13.9167C9.72882 14.0778 9.76103 14.2389 9.76103 14.3999Z" fill="#221F1F"/>
<path d="M9.40675 14.2388C9.40675 14.4966 9.24567 14.6899 9.0846 14.6899C8.92352 14.6899 8.76245 14.4966 8.76245 14.2388C8.76245 13.9811 8.92352 13.7878 9.0846 13.7878C9.24567 13.7878 9.40675 13.9811 9.40675 14.2388Z" fill="white"/>
<path d="M8.6336 15.3665C8.27924 15.6565 7.95709 15.9786 7.66716 16.333C7.5383 16.494 7.40944 16.6873 7.3128 16.9128C7.21616 17.1061 7.15173 17.3316 7.11951 17.5571C7.0873 17.6538 7.0873 17.7826 7.0873 17.8793V18.0404V18.2014C7.0873 18.4269 7.0873 18.6524 7.0873 18.9102C7.11951 19.1357 7.15173 19.3934 7.18394 19.6189C7.21615 19.7477 7.21616 19.8444 7.24837 19.9732C7.28058 20.0699 7.3128 20.1987 7.37723 20.2954C7.3128 20.1987 7.28058 20.0699 7.21615 19.9732C7.18394 19.8766 7.11951 19.7477 7.0873 19.6511C7.02287 19.4256 6.95844 19.2001 6.89401 18.9424C6.86179 18.7169 6.82958 18.4591 6.79736 18.2336V18.0726V17.8793C6.79736 17.7504 6.79736 17.6216 6.79736 17.5249C6.82958 17.2672 6.86179 17.0095 6.95844 16.784C7.05508 16.5585 7.15173 16.333 7.28058 16.1075C7.57052 15.6887 7.86045 15.3021 8.21481 14.98C8.34367 14.8833 8.50475 14.8833 8.6336 14.98C8.73025 15.0444 8.76246 15.2377 8.6336 15.3665Z" fill="#221F1F"/>
<path d="M8.40812 15.2698C8.37591 15.2698 8.37591 15.2698 8.34369 15.2698H8.31148H8.24705L8.08597 15.2376C7.98933 15.2054 7.89269 15.2054 7.79604 15.2054C7.60275 15.2054 7.37725 15.2054 7.18396 15.2698C7.08732 15.302 6.99067 15.3342 6.89403 15.3665C6.60409 15.4953 6.34638 15.7208 6.1853 15.9785C6.28195 15.753 6.37859 15.5597 6.53966 15.3987C6.60409 15.302 6.70074 15.2376 6.79738 15.1732C6.89403 15.1087 6.99067 15.0443 7.08732 14.9799C7.2806 14.851 7.50611 14.7866 7.76383 14.7222C7.89269 14.6899 7.98933 14.6899 8.11819 14.6899C8.18262 14.6899 8.24705 14.6899 8.31148 14.6899H8.44034C8.60141 14.6899 8.73027 14.8188 8.76248 14.9799C8.7947 15.1409 8.60141 15.2698 8.40812 15.2698Z" fill="#221F1F"/>
<path d="M16.3652 14.3999C16.3652 15.1087 15.9464 15.6563 15.4632 15.6563C14.9799 15.6563 14.5289 15.0764 14.5289 14.3999C14.5289 14.2389 14.5611 14.0778 14.5934 13.9167L15.6242 13.1436C16.043 13.2724 16.3652 13.7879 16.3652 14.3999Z" fill="#221F1F"/>
<path d="M14.8511 14.2388C14.8511 14.4966 15.0121 14.6899 15.1732 14.6899C15.3343 14.6899 15.4954 14.4966 15.4954 14.2388C15.4954 13.9811 15.3343 13.7878 15.1732 13.7878C15.0121 13.7878 14.8511 13.9811 14.8511 14.2388Z" fill="white"/>
<path d="M16.0429 14.9155C16.3973 15.2699 16.6872 15.6242 16.9449 16.043C17.0738 16.2363 17.2026 16.4618 17.2993 16.6873C17.3959 16.9128 17.4604 17.1706 17.4926 17.3961C17.5248 17.6538 17.5248 17.8793 17.4926 18.137C17.4604 18.3625 17.4281 18.6202 17.3959 18.8457C17.3637 19.0712 17.2993 19.2967 17.2349 19.5222C17.2026 19.6189 17.1704 19.7477 17.106 19.8444C17.0738 19.941 17.0094 20.0699 16.9449 20.1665C16.9771 20.0699 17.0416 19.941 17.0738 19.8444C17.106 19.7477 17.1382 19.6189 17.1704 19.5222C17.2026 19.2967 17.2671 19.0712 17.2671 18.8457C17.2993 18.6202 17.2993 18.3947 17.2993 18.137C17.2993 17.9115 17.2671 17.686 17.2349 17.4605C17.1704 17.235 17.106 17.0417 17.0094 16.8484C16.9127 16.6551 16.7839 16.4618 16.6228 16.3008C16.3328 15.9464 16.0107 15.6242 15.6563 15.3343C15.5275 15.2055 15.5275 15.0444 15.6563 14.9155C15.753 14.8189 15.9141 14.7867 16.0429 14.8833V14.9155Z" fill="#221F1F"/>
<path d="M15.8497 14.6899H16.0108C16.0752 14.6899 16.1396 14.6899 16.2041 14.6899C16.3329 14.6899 16.4618 14.6899 16.5907 14.7221C16.8484 14.7543 17.0739 14.8188 17.2994 14.9154C17.5249 15.0121 17.7182 15.1731 17.9115 15.3342C18.0725 15.4953 18.2014 15.7208 18.298 15.9141C18.1692 15.7208 18.0081 15.5597 17.8148 15.4309C17.6215 15.302 17.4282 15.2054 17.2027 15.1731C16.9772 15.1409 16.7517 15.1409 16.5262 15.1409C16.4296 15.1409 16.3007 15.1731 16.2041 15.1731L16.043 15.2054H15.9786H15.9464H15.9141H15.8819C15.7209 15.2376 15.5598 15.1087 15.5598 14.9476C15.5276 14.7866 15.6564 14.6255 15.8175 14.6255C15.8497 14.6255 15.8497 14.6255 15.8819 14.6255" fill="#221F1F"/>
</g>
<defs>
<clipPath id="clip0_225_1267">
<rect width="24" height="23.0013" fill="white"/>
</clipPath>
</defs>
</svg>
