<svg width="16" height="16" viewBox="0 0 16 16" fill="none" xmlns="http://www.w3.org/2000/svg">
<path d="M2 14V3.2C2 2.87 2.1176 2.5876 2.3528 2.3528C2.588 2.118 2.8704 2.0004 3.2 2H9.26C9.22 2.2 9.2 2.4 9.2 2.6C9.2 2.8 9.22 3 9.26 3.2C9.31 3.43 9.38 3.645 9.47 3.845C9.56 4.045 9.67 4.23 9.8 4.4H5C4.66863 4.4 4.4 4.66863 4.4 5C4.4 5.33137 4.66863 5.6 5 5.6H12.2C12.52 5.6 12.835 5.55 13.145 5.45C13.455 5.35 13.74 5.2 14 5V10.4C14 10.73 13.8826 11.0126 13.6478 11.2478C13.413 11.483 13.1304 11.6004 12.8 11.6H4.4L2 14ZM4.4 6.8C4.4 7.13137 4.66863 7.4 5 7.4H11C11.3314 7.4 11.6 7.13137 11.6 6.8C11.6 6.46863 11.3314 6.2 11 6.2H5C4.66863 6.2 4.4 6.46863 4.4 6.8ZM4.4 8.6C4.4 8.93137 4.66863 9.2 5 9.2H8.6C8.93137 9.2 9.2 8.93137 9.2 8.6C9.2 8.26863 8.93137 8 8.6 8H5C4.66863 8 4.4 8.26863 4.4 8.6Z" fill="currentColor"/>
<path d="M11.1526 3.51519C11.4767 3.83926 11.8702 4.0013 12.3332 4.0013C12.7961 4.0013 13.1897 3.83926 13.5137 3.51519C13.8378 3.19112 13.9998 2.7976 13.9998 2.33464C13.9998 1.87167 13.8378 1.47815 13.5137 1.15408C13.1897 0.830006 12.7961 0.667969 12.3332 0.667969C11.8702 0.667969 11.4767 0.830006 11.1526 1.15408C10.8285 1.47815 10.6665 1.87167 10.6665 2.33464C10.6665 2.7976 10.8285 3.19112 11.1526 3.51519Z" fill="#7885FF"/>
</svg>
