<svg height="24.003" viewBox="0 0 24 24.003" width="24" xmlns="http://www.w3.org/2000/svg"><path d="m0 0h24v24h-24z" fill="none"/><path d="m23.64 14.9a12 12 0 1 1 -8.74-14.54 12 12 0 0 1 8.74 14.54z" transform="translate(.001)"/><path d="m-192.871 180.3c-.468.491-.854.9-.858.913s.417.425.936.917.971.928 1 .956l.058.055-.105.176a5.988 5.988 0 0 0 -.534 5.062 5.988 5.988 0 0 0 .456 1 .609.609 0 0 1 .105.234c-.008.016-.48.515-1.049 1.111s-1.034 1.088-1.041 1.1 1.591 1.552 1.743 1.677l.059.051.9-.94c.5-.519.959-1.006 1.03-1.08l.133-.133.125.078a6.081 6.081 0 0 0 2.2.835 6.977 6.977 0 0 0 1.642.039 6.013 6.013 0 0 0 2.383-.8l.179-.109.191.187c.417.406 1.977 1.888 1.993 1.9s1.728-1.782 1.724-1.806-1.178-1.139-1.9-1.813l-.238-.226.109-.179a6 6 0 0 0 .515-5.078 8.177 8.177 0 0 0 -.5-1.069l-.074-.129 1-1.049c.55-.573 1-1.053.995-1.065-.016-.039-1.771-1.7-1.794-1.7s-.456.449-.983 1-.963 1-.975 1.006a.254.254 0 0 1 -.105-.055 6.269 6.269 0 0 0 -.655-.359 6.042 6.042 0 0 0 -1.716-.511 9.26 9.26 0 0 0 -1.576-.012 5.9 5.9 0 0 0 -1.884.573c-.172.082-.37.191-.449.238l-.14.086-.16-.156c-.086-.086-.476-.452-.862-.823s-.78-.741-.874-.835l-.172-.168zm6.548 2.543a3.613 3.613 0 0 1 1.685.643 4.23 4.23 0 0 1 .835.835 3.6 3.6 0 0 1 -.468 4.707 3.583 3.583 0 0 1 -4.1.585 3.62 3.62 0 0 1 -1.9-2.527 4.375 4.375 0 0 1 0-1.353 3.4 3.4 0 0 1 .324-.932 3.578 3.578 0 0 1 3.623-1.958z" fill="#fff" transform="translate(198.748 -174.471)"/></svg>