<svg viewBox="0 0 16 16" fill="none" xmlns="http://www.w3.org/2000/svg">
  <path
    d="M11.5 4H4.5C3.79289 4 3.43934 4 3.21967 4.1832C3 4.3664 3 4.66125 3 5.25096V5.55755C3 6.01881 3 6.24944 3.1298 6.44063C3.2596 6.63182 3.49674 6.75048 3.97101 6.9878L5.42752 7.71661C5.74573 7.87584 5.90483 7.95545 6.01876 8.04337C6.25599 8.22644 6.40204 8.44156 6.46822 8.70541C6.5 8.83211 6.5 8.98036 6.5 9.27686L6.5 10.4633C6.5 10.8675 6.5 11.0697 6.62596 11.2272C6.75192 11.3848 6.97564 11.4625 7.42308 11.618C8.36239 11.9444 8.83205 12.1076 9.16603 11.9219C9.5 11.7363 9.5 11.3119 9.5 10.4633V9.27686C9.5 8.98036 9.5 8.83211 9.53178 8.70541C9.59796 8.44156 9.74401 8.22644 9.98124 8.04337C10.0952 7.95545 10.2543 7.87584 10.5725 7.71661L12.029 6.9878C12.5033 6.75048 12.7404 6.63182 12.8702 6.44063C13 6.24944 13 6.01881 13 5.55755V5.25096C13 4.66125 13 4.3664 12.7803 4.1832C12.5607 4 12.2071 4 11.5 4Z"
    fill="currentColor" />
</svg>
  
