<svg xmlns="http://www.w3.org/2000/svg" width="24" height="24" fill="none" viewBox="0 0 24 24">
  <g clip-path="url(#a)">
    <rect width="24" height="24" fill="#E4E4E4" rx="12"/>
    <path fill="#000" d="M2 12.032a2.23 2.23 0 0 1 2.23-2.23 2.23 2.23 0 0 0 2.23-2.23 2.236 2.236 0 0 1 2.234-2.234 2.23 2.23 0 1 1 0 4.46 2.23 2.23 0 1 0 0 4.46 2.23 2.23 0 1 1-2.23 2.23 2.23 2.23 0 0 0-2.23-2.23A2.23 2.23 0 0 1 2 12.032Zm20 0a2.23 2.23 0 0 1-2.23 2.23 2.23 2.23 0 0 0-2.23 2.23 2.23 2.23 0 1 1-2.23-2.23 2.23 2.23 0 1 0 0-4.46 2.23 2.23 0 0 1-2.23-2.23 2.23 2.23 0 0 1 2.226-2.234 2.23 2.23 0 0 1 2.23 2.23 2.23 2.23 0 0 0 2.23 2.23A2.236 2.236 0 0 1 22 12.032Z"/>
    <path fill="#000" d="M14.191 12.032a2.17 2.17 0 1 1-4.339-.001 2.17 2.17 0 0 1 4.34 0Z"/>
  </g>
  <defs>
    <clipPath id="a">
      <path fill="#fff" d="M0 0h24v24H0z"/>
    </clipPath>
  </defs>
</svg>
