<svg height="40.005" viewBox="0 0 40 40.005" width="40" xmlns="http://www.w3.org/2000/svg"><path d="m0 .005h40v40h-40z" fill="none"/><path d="m39.4 24.842a20 20 0 1 1 -14.564-24.242 20 20 0 0 1 14.564 24.242z" transform="translate(0 -.001)"/><path d="m-192.184 180.908c-.78.819-1.424 1.508-1.43 1.521s.7.709 1.56 1.528 1.619 1.547 1.671 1.593l.1.091-.176.293a9.98 9.98 0 0 0 -.891 8.437 9.983 9.983 0 0 0 .761 1.664 1.016 1.016 0 0 1 .176.39c-.013.026-.8.858-1.749 1.853s-1.723 1.814-1.736 1.827 2.652 2.587 2.906 2.8l.1.085 1.5-1.567c.826-.865 1.6-1.677 1.716-1.8l.221-.221.208.13a10.135 10.135 0 0 0 3.673 1.391 11.628 11.628 0 0 0 2.737.065 10.021 10.021 0 0 0 3.972-1.333l.3-.182.318.312c.7.676 3.3 3.146 3.322 3.159s2.88-2.971 2.873-3.01c-.007-.02-1.963-1.9-3.159-3.023l-.4-.377.182-.3a10 10 0 0 0 .858-8.463 13.625 13.625 0 0 0 -.832-1.781l-.124-.215 1.671-1.749c.917-.956 1.664-1.755 1.658-1.775-.026-.065-2.951-2.828-2.99-2.828s-.761.748-1.638 1.671-1.606 1.671-1.625 1.677a.423.423 0 0 1 -.175-.091 10.447 10.447 0 0 0 -1.092-.6 10.071 10.071 0 0 0 -2.86-.852 15.433 15.433 0 0 0 -2.626-.02 9.827 9.827 0 0 0 -3.14.956c-.286.136-.618.318-.748.4l-.234.143-.266-.26c-.143-.143-.793-.754-1.437-1.372s-1.3-1.235-1.456-1.391l-.286-.279zm10.914 4.238a6.022 6.022 0 0 1 2.808 1.073 7.051 7.051 0 0 1 1.391 1.391 6 6 0 0 1 -.78 7.846 5.972 5.972 0 0 1 -6.832.975 6.034 6.034 0 0 1 -3.166-4.212 7.292 7.292 0 0 1 0-2.256 5.673 5.673 0 0 1 .54-1.554 5.964 5.964 0 0 1 6.039-3.263z" fill="#fff" transform="translate(201.98 -171.187)"/></svg>