<svg id="ic_glp_24" xmlns="http://www.w3.org/2000/svg" xmlns:xlink="http://www.w3.org/1999/xlink" width="24" height="24" viewBox="0 0 24 24">
  <defs>
    <linearGradient id="linear-gradient" x1="0.5" y1="-0.1" x2="0.435" y2="1" gradientUnits="objectBoundingBox">
      <stop offset="0" stop-color="#0ac3ce"/>
      <stop offset="1" stop-color="#2d42fc"/>
    </linearGradient>
  </defs>
  <rect id="base" width="24" height="23.833" fill="none"/>
  <g id="Groupe_1152" data-name="Groupe 1152" transform="translate(0 0.167)">
    <path id="Tracé_3513" data-name="Tracé 3513" d="M-208.168-2916.3a11.931,11.931,0,0,1-9.923,11.743,12.924,12.924,0,0,1-2.022.167,11.847,11.847,0,0,1-10.59-6.514l-.186-.353h3.121l.079.107a9.214,9.214,0,0,0,9.128,3.885,9.2,9.2,0,0,0,7.616-9.781l-5.575-.01,1.629,4.6-1.992,2.737-3.573-10.134,11.758.02.049.177a10.559,10.559,0,0,1,.314,1.364A11.435,11.435,0,0,1-208.168-2916.3Z" transform="translate(232.001 2928.222)" fill="url(#linear-gradient)"/>
    <path id="Tracé_3514" data-name="Tracé 3514" d="M-209.31-2921.55h-3.141l-.079-.108a9.2,9.2,0,0,0-9.118-3.875,9.209,9.209,0,0,0-7.626,9.771l5.594.01-1.629-4.6,2-2.737,3.563,10.134-8.981-.009h-2.787l-.049-.177a10.6,10.6,0,0,1-.294-1.344,11.91,11.91,0,0,1,9.756-13.725,11.875,11.875,0,0,1,12.6,6.308Z" transform="translate(232.024 2928.383)" fill="url(#linear-gradient)"/>
  </g>
</svg>
