<svg width="40" height="40" fill="none" xmlns="http://www.w3.org/2000/svg"><path d="m1.835 24.598-.264-.508h4.432l.111.154a13.041 13.041 0 0 0 23.78-8.379l-7.911-.014 2.308 6.536-2.828 3.888-5.078-14.397 16.7.032.073.254A16.924 16.924 0 0 1 19.744 33.61c-.948.151-1.907.229-2.866.23a16.845 16.845 0 0 1-15.036-9.248l-.007.006Zm2.843-2.702H.72l-.073-.254a15.861 15.861 0 0 1-.414-1.907A16.931 16.931 0 0 1 31.992 9.198l.261.507h-4.459l-.111-.154a13.052 13.052 0 0 0-21.71.244A13.049 13.049 0 0 0 3.9 17.93l7.944.014-2.307-6.536 2.842-3.887 5.057 14.397-12.758-.022Z" fill="url(#a)"/><path d="M40 27.692c0-6.798-5.51-12.308-12.308-12.308-6.797 0-12.308 5.51-12.308 12.308 0 6.797 5.51 12.307 12.308 12.307S40 34.49 40 27.691Z" fill="#E84142"/><path d="M27.692 16.922a10.77 10.77 0 1 0 0 21.54 10.77 10.77 0 0 0 0-21.54m0-1.538a12.308 12.308 0 1 1 0 24.615 12.308 12.308 0 0 1 0-24.615Z" fill="#1E1F37"/><path d="M30.858 27.722a.594.594 0 0 1 1.123 0l1.933 3.399c.307.537.057.975-.566.975h-3.896c-.615 0-.869-.438-.564-.975l1.97-3.399Zm-3.746-6.545a.587.587 0 0 1 1.117 0l.43.77 1.02 1.787a1.857 1.857 0 0 1 0 1.619l-3.414 5.915a1.795 1.795 0 0 1-1.4.82H22.03c-.616 0-.877-.43-.565-.975l5.646-9.936Z" fill="#fff"/><defs><linearGradient id="a" x1="27.074" y1="2.944" x2="7.616" y2="30.796" gradientUnits="userSpaceOnUse"><stop stop-color="#03D1CF" stop-opacity=".988"/><stop offset="1" stop-color="#4E09F8"/></linearGradient></defs></svg>