<svg xmlns="http://www.w3.org/2000/svg" xmlns:xlink="http://www.w3.org/1999/xlink" width="64" height="64" viewBox="0 0 64 64">
  <defs>
    <linearGradient id="linear-gradient" x1="0.5" y1="0.086" x2="0.5" y2="1" gradientUnits="objectBoundingBox">
      <stop offset="0" stop-color="#263238" stop-opacity="0.2"/>
      <stop offset="1" stop-color="#263238" stop-opacity="0.02"/>
    </linearGradient>
    <radialGradient id="radial-gradient" cx="0.032" cy="0.027" r="1.612" gradientUnits="objectBoundingBox">
      <stop offset="0" stop-color="#fff" stop-opacity="0.102"/>
      <stop offset="1" stop-color="#fff" stop-opacity="0"/>
    </radialGradient>
  </defs>
  <g id="ic_GMX_Returns_Calculator" data-name="ic_GMX Returns Calculator" transform="translate(-387 -314)">
    <rect id="Rectangle_523" data-name="Rectangle 523" width="64" height="64" transform="translate(387 314)" fill="none"/>
    <g id="Page-1" transform="translate(397.803 317.042)">
      <g id="Consumer-Apps-Sheets-Large-VD-R8-" transform="translate(0.833 0.958)">
        <g id="Hero" transform="translate(0 0)">
          <g id="Personal" transform="translate(0)">
            <g id="Sheets-icon" transform="translate(0)">
              <g id="Group">
                <g id="Clipped">
                  <path id="Path" d="M25.455,0H3.818A3.829,3.829,0,0,0,0,3.818V52.182A3.829,3.829,0,0,0,3.818,56H36.91a3.829,3.829,0,0,0,3.818-3.818V15.273L31.819,8.909Z" fill="#0f9d58"/>
                </g>
                <g id="Clipped-2" data-name="Clipped" transform="translate(26.572 14.156)">
                  <path id="Path-2" data-name="Path" d="M30.881,16.452,45.037,30.6V17.569Z" transform="translate(-30.881 -16.452)" fill="url(#linear-gradient)"/>
                </g>
                <g id="Clipped-3" data-name="Clipped" transform="translate(25.455)">
                  <g id="Group-2" data-name="Group" transform="translate(0)">
                    <g id="Group_357" data-name="Group 357">
                      <path id="Path-3" data-name="Path" d="M2.958,2.958V14.413a3.817,3.817,0,0,0,3.818,3.818H18.231Z" transform="translate(-2.958 -2.958)" fill="#87ceac"/>
                    </g>
                  </g>
                </g>
                <g id="Clipped-4" data-name="Clipped">
                  <path id="Path-4" data-name="Path" d="M3.818,0A3.829,3.829,0,0,0,0,3.818v.318A3.829,3.829,0,0,1,3.818.318H25.455V0Z" fill="rgba(255,255,255,0.2)"/>
                </g>
                <g id="Clipped-5" data-name="Clipped" transform="translate(0 51.864)">
                  <path id="Path-5" data-name="Path" d="M36.91,64.094H3.818A3.829,3.829,0,0,1,0,60.276v.318a3.829,3.829,0,0,0,3.818,3.818H36.91a3.829,3.829,0,0,0,3.818-3.818v-.318A3.829,3.829,0,0,1,36.91,64.094Z" transform="translate(0 -60.276)" fill="rgba(38,50,56,0.2)"/>
                </g>
                <g id="Clipped-6" data-name="Clipped" transform="translate(25.455 11.455)">
                  <path id="Path-6" data-name="Path" d="M33.4,17.131a3.817,3.817,0,0,1-3.818-3.818v.318A3.817,3.817,0,0,0,33.4,17.449H44.856v-.318Z" transform="translate(-29.583 -13.312)" fill="rgba(38,50,56,0.1)"/>
                </g>
              </g>
              <path id="Path-7" data-name="Path" d="M25.455,0H3.818A3.829,3.829,0,0,0,0,3.818V52.182A3.829,3.829,0,0,0,3.818,56H36.91a3.829,3.829,0,0,0,3.818-3.818V15.273Z" fill="url(#radial-gradient)"/>
            </g>
          </g>
        </g>
      </g>
      <path id="Path_4426" data-name="Path 4426" d="M549.542,713.361,537.623,696l-11.956,17.361h16.658l-4.7-6.626-2.332,3.443h-2.48l4.812-6.922,6.959,10.106Z" transform="translate(-511.943 -667.041)" fill="rgba(255,255,255,0.99)"/>
    </g>
  </g>
</svg>
