<svg xmlns="http://www.w3.org/2000/svg" width="36" height="36" fill="none" viewBox="0 0 36 36"><path fill="#fff" d="M28.823 17.845c.664 0 .997 0 1.259.107.35.144.627.42.772.767.066.158.092.342.102.61.015.395.22.76.563.958.345.198.767.19 1.119.006.239-.125.412-.195.583-.218.375-.049.755.052 1.055.28.225.172.39.458.723 1.029.332.57.499.857.536 1.136.05.372-.053.748-.283 1.045-.105.136-.253.251-.482.394-.337.21-.553.568-.553.963s.217.754.553.964c.229.142.377.257.482.392.23.298.332.675.283 1.047-.037.28-.204.565-.536 1.136-.332.57-.498.857-.723 1.028-.3.229-.68.33-1.055.28-.17-.022-.344-.092-.583-.217a1.163 1.163 0 0 0-1.119.006 1.144 1.144 0 0 0-.563.957c-.01.268-.036.453-.102.611a1.422 1.422 0 0 1-.772.766c-.262.107-.595.108-1.259.108-.664 0-.997 0-1.259-.108a1.422 1.422 0 0 1-.771-.766c-.066-.158-.093-.343-.103-.611a1.143 1.143 0 0 0-.563-.957 1.161 1.161 0 0 0-1.117-.006c-.24.125-.413.195-.585.218a1.436 1.436 0 0 1-1.054-.28c-.225-.172-.392-.458-.724-1.03-.332-.57-.498-.856-.535-1.135a1.41 1.41 0 0 1 .282-1.047c.105-.136.254-.25.483-.392.337-.21.553-.57.553-.964 0-.395-.216-.753-.553-.963-.23-.143-.378-.258-.483-.394a1.409 1.409 0 0 1-.282-1.046c.037-.278.203-.564.535-1.135.332-.571.499-.857.724-1.029.3-.228.68-.329 1.055-.28.17.023.344.093.584.218.351.184.772.191 1.117-.006.344-.197.548-.563.563-.958.01-.268.037-.452.103-.61.145-.347.422-.623.771-.767.262-.108.595-.107 1.259-.107Zm-.005 3.214a3.886 3.886 0 1 0 .002 7.77 3.886 3.886 0 0 0-.002-7.77ZM12.074 5c.995 0 1.493 0 1.886.161.523.215.94.629 1.156 1.149.099.237.138.512.153.915.023.591.329 1.138.845 1.434a1.74 1.74 0 0 0 1.674.009c.358-.188.619-.293.875-.326a2.15 2.15 0 0 1 1.58.42c.337.257.586.684 1.084 1.54.498.856.746 1.284.802 1.702a2.11 2.11 0 0 1-.423 1.567c-.158.204-.38.376-.723.59-.505.315-.83.85-.83 1.443 0 .591.325 1.128.83 1.443.344.214.565.385.723.589a2.11 2.11 0 0 1 .423 1.568c-.056.418-.305.846-.802 1.701-.498.856-.747 1.284-1.084 1.541a2.15 2.15 0 0 1-1.58.42c-.256-.033-.517-.138-.875-.326a1.74 1.74 0 0 0-1.675.009 1.713 1.713 0 0 0-.844 1.434c-.015.403-.054.678-.153.915-.217.52-.633.933-1.156 1.148-.393.161-.89.162-1.886.162-.996 0-1.494 0-1.887-.162a2.129 2.129 0 0 1-1.156-1.148c-.099-.237-.138-.512-.153-.915a1.713 1.713 0 0 0-.844-1.434 1.741 1.741 0 0 0-1.675-.009c-.358.188-.618.293-.875.326a2.15 2.15 0 0 1-1.58-.42c-.337-.257-.586-.684-1.084-1.54-.498-.855-.746-1.284-.802-1.702a2.11 2.11 0 0 1 .423-1.568c.158-.204.38-.375.723-.59.505-.314.83-.85.83-1.442s-.325-1.128-.83-1.443c-.344-.214-.565-.386-.723-.59a2.11 2.11 0 0 1-.423-1.567c.056-.418.305-.846.803-1.702.498-.856.747-1.284 1.084-1.54a2.15 2.15 0 0 1 1.58-.421c.256.033.516.139.875.327a1.74 1.74 0 0 0 1.674-.009c.516-.296.821-.843.844-1.434.015-.403.054-.678.153-.915a2.13 2.13 0 0 1 1.156-1.149C10.58 5 11.078 5 12.074 5Zm-.008 4.815a5.82 5.82 0 1 0 0 11.641 5.82 5.82 0 0 0 0-11.64Zm.065 1.88c.28 0 .506.227.506.507 0 .248.182.454.418.527.402.126.725.33.97.609.173.196.3.417.381.664.121.37-.212.696-.603.696-.39 0-.703-.362-.997-.619l-.01-.008c-.2-.17-.467-.256-.803-.256-.294 0-.524.064-.688.194a.57.57 0 0 0-.239.468c0 .16.053.282.16.37.111.083.308.15.59.204l.972.176c.618.112 1.066.31 1.343.592.282.283.423.69.424 1.22 0 .482-.166.894-.496 1.235-.25.255-.584.438-1 .546-.238.062-.421.265-.421.51a.49.49 0 0 1-.49.49h-.25a.515.515 0 0 1-.514-.514c0-.25-.18-.458-.417-.536a2.155 2.155 0 0 1-.96-.61 1.98 1.98 0 0 1-.373-.64c-.13-.368.203-.694.593-.694.39 0 .692.371.993.618l.023.018c.212.159.492.238.839.238.353 0 .618-.062.795-.185a.56.56 0 0 0 .264-.477c0-.165-.067-.3-.203-.406-.135-.112-.362-.197-.68-.256l-.971-.177c-.554-.1-.966-.291-1.237-.574-.264-.283-.397-.665-.397-1.148 0-.465.15-.865.45-1.2.224-.246.513-.427.866-.544.234-.077.415-.283.415-.53 0-.28.228-.508.508-.508h.239Z"/></svg>