<svg viewBox="0 0 20 20" fill="none" xmlns="http://www.w3.org/2000/svg">
  <g clip-path="url(#clip0_1686_108665)">
    <rect width="20" height="20" rx="10" fill="#181B1A" />
    <path
      d="M13.7158 6.52252C13.0941 6.39221 12.6757 6.39014 12.6276 6.39014L12.2357 6.3917C12.0821 6.39232 11.945 6.48842 11.8921 6.63266L10.6737 9.95417L9.51499 13.1131C9.427 13.3529 9.60455 13.6072 9.86003 13.6072H15.6092C15.8211 13.6072 15.9906 13.4279 15.9576 13.2186C15.7993 12.217 15.2794 11.3353 14.5355 10.7121C14.3529 10.5591 14.0829 10.6487 14.0024 10.8728L13.6889 11.7455H11.9998L12.7047 9.82283L13.2524 8.32988C13.4195 8.35987 13.5839 8.39762 13.7458 8.44313C14.5087 8.66522 15.5375 9.1436 16.4272 10.1771C16.559 10.3302 16.7874 10.3632 16.9489 10.2419L17.8545 9.56252C18.0161 9.4413 18.0502 9.2117 17.9223 9.0554C16.8458 7.74049 15.3619 6.85219 13.7158 6.52252Z"
      fill="#19FB80" />
    <path
      d="M6.28452 13.4747C6.90616 13.605 7.32455 13.607 7.37264 13.607L7.7646 13.6055C7.91824 13.6048 8.05528 13.5087 8.10818 13.3645L9.32656 10.043L10.4853 6.88411C10.5733 6.64425 10.3958 6.39002 10.1403 6.39002L4.39114 6.39001C4.17921 6.39001 4.00966 6.56928 4.04274 6.77861C4.20101 7.78017 4.72088 8.66182 5.46485 9.28512C5.64744 9.43812 5.91738 9.34853 5.99791 9.12434L6.3114 8.25167H8.00051L7.2956 10.1744L6.74791 11.6673C6.58086 11.6373 6.41639 11.5996 6.25451 11.5541C5.49161 11.332 4.46279 10.8536 3.57309 9.82007C3.44131 9.66701 3.21292 9.63405 3.05136 9.75527L2.1458 10.4347C1.98423 10.5559 1.95007 10.7855 2.07803 10.9418C3.15454 12.2567 4.63842 13.145 6.28452 13.4747Z"
      fill="#19FB80" />
  </g>
  <defs>
    <clipPath id="clip0_1686_108665">
      <rect width="20" height="20" fill="white" />
    </clipPath>
  </defs>
</svg>
