<svg xmlns="http://www.w3.org/2000/svg" width="40" height="40"><defs><linearGradient id="a" x1=".8" y1=".087" x2=".225" y2=".91" gradientUnits="objectBoundingBox"><stop offset="0" stop-color="#03d1cf" stop-opacity=".988"/><stop offset="1" stop-color="#4e09f8"/></linearGradient></defs><path data-name="Rectangle 545" fill="none" d="M0 0h40v40H0z"/><path data-name="Union 13" d="m21343.656 745.806-.232-.45h3.926l.1.137a11.559 11.559 0 0 0 21.076-7.426l-7.014-.012 2.047 5.793-2.508 3.446-4.5-12.761 14.8.029.064.225a13.556 13.556 0 0 1 .4 1.715 15 15 0 0 1-12.285 17.293 16.386 16.386 0 0 1-2.549.209 14.926 14.926 0 0 1-13.328-8.2Zm2.52-2.4h-3.508l-.064-.225a14.629 14.629 0 0 1-.367-1.691 15.007 15.007 0 0 1 28.148-9.339l.232.45h-3.951l-.1-.137a11.566 11.566 0 0 0-21.08 7.426l7.041.012-2.047-5.792 2.52-3.446 4.482 12.76Z" transform="translate(-21337.027 -719.004)" fill="url(#a)"/><g data-name="Group 292" transform="translate(20 20)"><rect width="20" height="20" rx="10" fill="#3e4062"/><path data-name="base - Outline" d="M10 1.25A8.75 8.75 0 1 0 18.75 10 8.75 8.75 0 0 0 10 1.25M10 0A10 10 0 1 1 0 10 10 10 0 0 1 10 0Z" fill="#1e1f37"/><path data-name="Rectangle 213" fill="none" d="M0 0h20v20H0z"/><path data-name="Path 348" d="m11.551 9.45.967-1.641 2.607 4.061v.78-5.361a.4.4 0 0 0-.186-.321l-4.7-2.7a.414.414 0 0 0-.359 0l-.042.024-.016.01-4.556 2.641-.018.007a.411.411 0 0 0-.067.039.4.4 0 0 0-.169.3l.008 4.375 2.429-3.765a1.781 1.781 0 0 1 1.59-.651l.726.019-4.278 6.859.5.29 4.332-7.14 1.914-.007-4.314 7.32 1.8 1.035.215.125a.413.413 0 0 0 .29 0l4.76-2.759-.91.528Zm.375 5.316-1.819-2.852 1.109-1.882 2.387 3.757Z" fill="#2d374b"/><path data-name="Path 349" d="m10.108 11.916 1.818 2.853 1.679-.973-2.386-3.761Z" fill="#28a0f0"/><path data-name="Path 350" d="M15.132 12.648v-.78l-2.608-4.061-.967 1.641 2.517 4.071.91-.528a.4.4 0 0 0 .149-.294Z" fill="#28a0f0"/><path data-name="Path 351" d="m4.205 13.384 1.285.74 4.277-6.859-.726-.019a1.781 1.781 0 0 0-1.59.651l-2.429 3.765-.817 1.25Z" fill="#fff"/><path data-name="Path 352" d="m12.237 7.265-1.914.008-4.329 7.143 1.512.875.411-.7Z" fill="#fff"/><path data-name="Path 353" d="M15.933 7.254a1.219 1.219 0 0 0-.572-.98l-4.75-2.735a1.238 1.238 0 0 0-1.091 0c-.04.02-4.625 2.68-4.625 2.68a1.217 1.217 0 0 0-.689 1.032v5.665l.818-1.25-.009-4.37a.389.389 0 0 1 0-.048.4.4 0 0 1 .162-.256c.021-.015 4.685-2.715 4.7-2.722a.414.414 0 0 1 .359 0l4.695 2.7a.4.4 0 0 1 .186.321v5.405a.4.4 0 0 1-.14.294l-.91.527-.47.273-1.679.973-1.7.986a.412.412 0 0 1-.29 0l-2.015-1.153-.411.7 1.81 1.042.157.089.125.071a1.176 1.176 0 0 0 .48.1 1.21 1.21 0 0 0 .444-.084l4.955-2.867a1.209 1.209 0 0 0 .466-.911V7.254Z" fill="#96bedc"/></g></svg>