<svg width="35" height="35" fill="none" xmlns="http://www.w3.org/2000/svg"><path d="m1.626 21.802-.232-.45h3.925l.1.137a11.562 11.562 0 0 0 13.396 4.395 11.558 11.558 0 0 0 7.68-11.821l-7.013-.012 2.046 5.793-2.508 3.446-4.5-12.761 14.801.029.063.225c.17.562.304 1.135.4 1.715A15 15 0 0 1 17.5 29.79c-.843.136-1.695.206-2.549.209a14.925 14.925 0 0 1-13.328-8.2l.004.002Zm2.52-2.4H.638l-.065-.225a14.635 14.635 0 0 1-.367-1.691 15.007 15.007 0 0 1 28.148-9.34l.233.45h-3.951l-.1-.136a11.565 11.565 0 0 0-21.08 7.426l7.041.012-2.047-5.792 2.52-3.446 4.482 12.76-11.306-.018Z" fill="url(#a)"/><path d="M34.998 25c0-5.523-4.477-10-10-10s-10 4.477-10 10c0 5.522 4.477 10 10 10s10-4.478 10-10Z" fill="#3E4062"/><path d="M24.998 16.25a8.75 8.75 0 1 0 0 17.499 8.75 8.75 0 0 0 0-17.5m0-1.25a10 10 0 1 1 0 20 10 10 0 0 1 0-20Z" fill="#1E1F37"/><path d="m26.549 24.45.967-1.642 2.607 4.061v.78-5.36a.4.4 0 0 0-.186-.322l-4.7-2.7a.414.414 0 0 0-.36 0l-.041.024-.016.01-4.556 2.642-.018.006a.415.415 0 0 0-.186.17.4.4 0 0 0-.05.17l.008 4.374 2.429-3.765a1.78 1.78 0 0 1 1.59-.65l.726.018-4.278 6.86.5.29 4.332-7.14 1.914-.008-4.314 7.32 1.8 1.035.215.125a.412.412 0 0 0 .29 0l4.76-2.759-.91.528-2.523-4.067Zm.375 5.316-1.82-2.852 1.11-1.883L28.6 28.79l-1.677.976Z" fill="#2D374B"/><path d="m25.106 26.915 1.818 2.853 1.679-.973-2.386-3.76-1.111 1.88ZM30.13 27.648v-.78l-2.608-4.061-.967 1.64 2.517 4.072.91-.528a.4.4 0 0 0 .149-.294l-.001-.05Z" fill="#28A0F0"/><path d="m19.203 28.384 1.285.74 4.277-6.86-.726-.018a1.781 1.781 0 0 0-1.59.65l-2.43 3.766-.816 1.25v.472ZM27.235 22.265l-1.914.008-4.33 7.143 1.513.875.41-.7 4.32-7.326Z" fill="#fff"/><path d="M30.93 22.253a1.219 1.219 0 0 0-.571-.98l-4.75-2.735a1.239 1.239 0 0 0-1.091 0c-.04.02-4.625 2.68-4.625 2.68a1.217 1.217 0 0 0-.69 1.032v5.666l.819-1.25-.01-4.37a.384.384 0 0 1 0-.049.4.4 0 0 1 .163-.256c.02-.014 4.685-2.715 4.7-2.721a.415.415 0 0 1 .359 0l4.695 2.7a.4.4 0 0 1 .186.32v5.405a.4.4 0 0 1-.14.294l-.91.527-.47.274-1.68.973-1.7.985a.411.411 0 0 1-.29 0l-2.014-1.152-.411.7 1.81 1.041.157.09.125.07a1.207 1.207 0 0 0 .924.016l4.955-2.867a1.21 1.21 0 0 0 .466-.91v-5.483h-.006Z" fill="#96BEDC"/><defs><linearGradient id="a" x1="23.996" y1="2.61" x2="6.745" y2="27.297" gradientUnits="userSpaceOnUse"><stop stop-color="#03D1CF" stop-opacity=".988"/><stop offset="1" stop-color="#4E09F8"/></linearGradient></defs></svg>
