<svg height="39.992" viewBox="0 0 39.992 39.992" width="39.992" xmlns="http://www.w3.org/2000/svg" xmlns:xlink="http://www.w3.org/1999/xlink"><linearGradient id="a" gradientUnits="objectBoundingBox" x1=".8" x2=".225" y1=".087" y2=".91"><stop offset="0" stop-color="#03d1cf" stop-opacity=".988"/><stop offset="1" stop-color="#4e09f8"/></linearGradient><path d="m21344.2 753.068-.312-.6h5.238l.129.182a15.41 15.41 0 0 0 28.1-9.9l-9.35-.016 2.73 7.722-3.344 4.594-5.994-17.011 19.732.038.086.3a17.623 17.623 0 0 1 .527 2.286 19.37 19.37 0 0 1 .279 3.343 20.02 20.02 0 0 1 -16.658 19.71 21.765 21.765 0 0 1 -3.393.279 19.888 19.888 0 0 1 -17.768-10.928zm3.363-3.193h-4.684l-.08-.3a18.123 18.123 0 0 1 -.494-2.254 20.006 20.006 0 0 1 37.525-12.45l.311.6h-5.27l-.129-.182a15.422 15.422 0 0 0 -28.107 9.9l9.391.016-2.73-7.722 3.359-4.594 5.977 17.011z" fill="url(#a)" transform="translate(-21342.027 -724.004)"/><rect fill="#e84142" height="16" rx="8" width="16" x="23.973" y="23.992"/><path d="m8 1a7 7 0 1 0 7 7 7 7 0 0 0 -7-7m0-1a8 8 0 1 1 -8 8 8 8 0 0 1 8-8z" fill="#1e1f37" transform="translate(23.973 23.992)"/><path d="m141.014 73.816a.386.386 0 0 1 .73 0l1.256 2.209c.2.349.037.634-.368.634h-2.532c-.4 0-.565-.285-.367-.634zm-2.435-4.254a.382.382 0 0 1 .726 0l.28.5.662 1.162a1.207 1.207 0 0 1 0 1.052l-2.219 3.845a1.167 1.167 0 0 1 -.91.533h-1.842c-.4 0-.57-.28-.367-.634z" fill="#fff" transform="translate(-106.983 -41.804)"/></svg>