<svg height="64" viewBox="0 0 64 64" width="64" xmlns="http://www.w3.org/2000/svg"><path d="m0 0h64v64h-64z" fill="none"/><path d="m58.027 46.731h4.039a1.362 1.362 0 1 1 0 2.72h-59.636a1.363 1.363 0 1 1 0-2.722h4.2a34.433 34.433 0 0 1 5.16-5.7c3.113-2.929 5.9-5.546 7.148-12.087s4.031-9.158 7.144-12.087a34.374 34.374 0 0 0 5.16-5.707l-3.971-5.742a.881.881 0 0 1 .273-1.256.982.982 0 0 1 1.318.258l3.65 5.273 3.65-5.273a.982.982 0 0 1 1.32-.258.88.88 0 0 1 .271 1.256l-3.972 5.738s9.829 4.219 12.119 17.794 12.127 17.791 12.127 17.791zm-6.673-42.731a5.591 5.591 0 0 0 -1.289.15.348.348 0 0 0 -.27.275.334.334 0 0 0 .162.342 4.361 4.361 0 0 1 2.172 3.744 4.46 4.46 0 0 1 -3.529 4.289.346.346 0 0 0 -.266.277.334.334 0 0 0 .162.342 5.554 5.554 0 0 0 2.855.783 5.241 5.241 0 0 0 5.359-5.1 5.242 5.242 0 0 0 -5.356-5.102zm-37.954 12.638-1.1-.115-.7-.82a.244.244 0 0 0 -.4.051l-.455.963-1.035.377a.23.23 0 0 0 -.148.17.22.22 0 0 0 .074.211l.82.709.059 1.055a.225.225 0 0 0 .123.187.248.248 0 0 0 .234 0l.961-.523 1.07.273a.25.25 0 0 0 .227-.055.219.219 0 0 0 .068-.211l-.225-1.033.6-.885a.217.217 0 0 0 .016-.221.24.24 0 0 0 -.189-.129zm6.27-6.656a.237.237 0 0 1 .187.127.217.217 0 0 1 -.016.221l-.6.887.227 1.033a.221.221 0 0 1 -.07.211.246.246 0 0 1 -.225.055l-1.07-.273-.963.523a.246.246 0 0 1 -.232 0 .227.227 0 0 1 -.123-.187l-.059-1.055-.82-.709a.221.221 0 0 1 -.074-.209.23.23 0 0 1 .148-.17l1.035-.379.455-.963a.246.246 0 0 1 .4-.051l.7.82 1.1.117zm-12.538 0-1.1-.117-.7-.818a.244.244 0 0 0 -.4.049l-.455.963-1.035.379a.23.23 0 0 0 -.148.17.219.219 0 0 0 .074.209l.82.711.059 1.055a.222.222 0 0 0 .123.186.244.244 0 0 0 .234 0l.961-.523 1.07.273a.25.25 0 0 0 .227-.055.219.219 0 0 0 .068-.211l-.23-1.038.6-.885a.217.217 0 0 0 .016-.221.238.238 0 0 0 -.189-.127zm13.437 29.118c-.078-.064-.039-.25.086-.4l11.5-17.108a.2.2 0 0 1 .227.072l.088.105c.031.039.211.312.309.467l10.8 16.159.2.3c.111.162.205.268.182.338-.045.143-.592.125-2.517.117l-2.236-.006-.059-.076q-.066-.085-.127-.174l-.174-.258q-.26-.387-.516-.777l-3.867-5.781q-.224-.352-.465-.693l-1.289-1.93q-.089-.145-.186-.285c-.143-.23-.168-.215-.473.262q-.082.127-.166.252l-3.918 5.841-.15.221-.1.152h1.08c.906 0 1.068.008 1.137-.068a.548.548 0 0 0 .062-.1.276.276 0 0 1 .059-.078c.01 0 .031-.033.047-.07a.459.459 0 0 1 .064-.105l1.691-2.525c.062-.1.127-.187.145-.207a.107.107 0 0 0 .029-.051.194.194 0 0 1 .043-.066 2.284 2.284 0 0 0 .137-.2c.127-.2.17-.2.293-.014.051.078.113.164.137.191a.182.182 0 0 1 .041.08.069.069 0 0 0 .031.051l3.4 5.082a.233.233 0 0 1 .057.082.5.5 0 0 0 .055.092c.016.014.156.219.207.3.08.133.271.414.307.451a.164.164 0 0 1 .043.066.317.317 0 0 0 .059.092c.074.09.1.209.059.238-.08.051-16.26.02-16.325-.033z" fill="#fff" fill-rule="evenodd" transform="translate(0 5)"/></svg>