<svg height="40" width="40" xmlns="http://www.w3.org/2000/svg"><linearGradient id="a" gradientUnits="objectBoundingBox" x1=".5" x2="0" y2="1"><stop offset="0" stop-color="#03d1cf" stop-opacity=".988"/><stop offset="1" stop-color="#4e09f8"/></linearGradient><path d="M0 0h40v40H0z" fill="none"/><path d="M565.51 724.971 545.619 696l-19.952 28.971h27.8l-7.845-11.057-3.892 5.745h-4.139l8.03-11.551 11.613 16.864z" fill="url(#a)" transform="translate(-525.666 -690.486)"/><rect fill="#3e4062" height="16" rx="8" width="16" x="24" y="24"/><path d="M32 25a7 7 0 1 0 7 7 7 7 0 0 0-7-7m0-1a8 8 0 1 1-8 8 8 8 0 0 1 8-8z" fill="#1e1f37"/><path d="M24 24h16v16H24z" fill="none"/><path d="m33.241 31.56.774-1.313 2.086 3.249v.624-4.289a.323.323 0 0 0-.149-.257l-3.756-2.16a.331.331 0 0 0-.287 0l-.034.019-.013.008-3.645 2.113-.014.006a.329.329 0 0 0-.054.031.324.324 0 0 0-.135.243l.006 3.5 1.943-3.012a1.425 1.425 0 0 1 1.272-.521l.581.015-3.422 5.487.4.232 3.463-5.714 1.531-.006-3.453 5.856 1.439.828.172.1a.33.33 0 0 0 .232 0l3.808-2.207-.728.422zm.3 4.253-1.455-2.282.887-1.506 1.91 3.006z" fill="#2d374b"/><path d="m32.086 33.531 1.454 2.282 1.343-.778-1.909-3.009zM36.106 34.119v-.624l-2.086-3.249-.774 1.313 2.014 3.257.728-.422a.323.323 0 0 0 .119-.235z" fill="#28a0f0"/><path d="m27.364 34.707 1.028.592 3.422-5.487-.581-.015a1.425 1.425 0 0 0-1.272.521l-1.943 3.012-.654 1zM33.789 29.812l-1.531.006-3.463 5.714 1.21.7.329-.558z" fill="#fff"/><path d="M36.746 29.804a.975.975 0 0 0-.458-.784l-3.8-2.188a.99.99 0 0 0-.873 0c-.032.016-3.7 2.144-3.7 2.144a.974.974 0 0 0-.551.826v4.532l.654-1-.006-3.5a.311.311 0 0 1 0-.038.322.322 0 0 1 .13-.2c.017-.012 3.748-2.172 3.76-2.178a.331.331 0 0 1 .287 0l3.756 2.16a.323.323 0 0 1 .149.257v4.331a.316.316 0 0 1-.112.235l-.728.422-.376.218-1.343.778-1.362.789a.33.33 0 0 1-.232 0l-1.611-.927-.329.558 1.448.834.126.071.1.057a.941.941 0 0 0 .384.079.968.968 0 0 0 .355-.067l3.964-2.299a.967.967 0 0 0 .373-.729v-4.381z" fill="#96bedc"/></svg>