<svg xmlns="http://www.w3.org/2000/svg" width="30.001" height="30"><defs><linearGradient id="a" x1=".536" y1=".026" x2=".011" y2="1" gradientUnits="objectBoundingBox"><stop offset="0" stop-color="#03d1cf"/><stop offset="1" stop-color="#4e09f8"/></linearGradient></defs><path fill="none" d="M0 0h30v30H0z"/><path data-name="Path 1450" d="M554.956 716.042 541.336 696l-13.67 20.042H546.7l-5.368-7.649-2.722 4h-2.81l5.533-8.013 8.026 11.666Z" transform="translate(-526.31 -691.059)" fill="url(#a)"/><g data-name="Group 291"><g transform="translate(14.001 13.875)" fill="#e84142" stroke="#1e1f37"><rect width="16" height="16" rx="8" stroke="none"/><rect x=".5" y=".5" width="15" height="15" rx="7.5" fill="none"/></g><path data-name="Path 1676" d="M24.059 21.895a.386.386 0 0 1 .73 0l1.256 2.209c.2.349.037.634-.368.634h-2.532c-.4 0-.565-.285-.367-.634Zm-2.435-4.254a.382.382 0 0 1 .726 0l.28.505.662 1.162a1.207 1.207 0 0 1 0 1.052l-2.219 3.845a1.167 1.167 0 0 1-.91.533h-1.842c-.4 0-.57-.28-.367-.634Z" fill="#fff"/></g></svg>
