<svg width="35" height="35" fill="none" xmlns="http://www.w3.org/2000/svg"><path d="m1.626 21.802-.234-.45h3.927l.1.137a11.563 11.563 0 0 0 19.248-.208 11.56 11.56 0 0 0 1.83-7.218l-7.014-.012 2.047 5.793-2.508 3.446-4.5-12.76 14.801.028.065.225c.17.563.302 1.136.398 1.715a15 15 0 0 1-12.285 17.293c-.843.136-1.695.207-2.549.21a14.924 14.924 0 0 1-13.328-8.2l.002.001Zm2.52-2.4H.638l-.065-.225c-.156-.555-.279-1.12-.367-1.69a15.008 15.008 0 0 1 28.15-9.34l.23.45h-3.95l-.1-.137a11.565 11.565 0 0 0-21.08 7.427l7.041.012-2.047-5.793 2.52-3.446 4.482 12.761-11.306-.019Z" fill="url(#a)"/><path d="M34.998 25c0-5.524-4.477-10-10-10s-10 4.476-10 10c0 5.522 4.477 10 10 10s10-4.478 10-10Z" fill="#E84142"/><path d="M24.998 16.25a8.75 8.75 0 1 0 0 17.5 8.75 8.75 0 0 0 0-17.5m0-1.25a10 10 0 1 1 0 20 10 10 0 0 1 0-20Z" fill="#1E1F37"/><path d="M27.57 25.024a.482.482 0 0 1 .913 0l1.57 2.761c.25.436.046.793-.46.793h-3.165c-.5 0-.706-.356-.46-.793l1.603-2.76Zm-3.043-5.317a.477.477 0 0 1 .907 0l.35.631.827 1.452a1.51 1.51 0 0 1 0 1.315l-2.774 4.806a1.459 1.459 0 0 1-1.137.666h-2.3c-.5 0-.713-.35-.46-.793l4.587-8.077Z" fill="#fff"/><defs><linearGradient id="a" x1="23.997" y1="2.61" x2="6.746" y2="27.299" gradientUnits="userSpaceOnUse"><stop stop-color="#03D1CF" stop-opacity=".988"/><stop offset="1" stop-color="#4E09F8"/></linearGradient></defs></svg>
