<svg xmlns="http://www.w3.org/2000/svg" width="35" height="35" fill="none"><path fill="url(#a)" d="m1.628 21.802-.232-.45h3.926l.1.137a11.562 11.562 0 0 0 13.396 4.395 11.555 11.555 0 0 0 7.68-11.82l-7.014-.013 2.047 5.793-2.508 3.446-4.5-12.76 14.8.028.063.225c.17.563.305 1.135.4 1.715a15 15 0 0 1-12.285 17.293c-.843.136-1.695.206-2.549.21a14.924 14.924 0 0 1-13.328-8.2l.004.001Zm2.52-2.4H.64l-.064-.225a14.629 14.629 0 0 1-.368-1.69 15.007 15.007 0 0 1 28.149-9.34l.232.45h-3.95l-.1-.137a11.565 11.565 0 0 0-21.08 7.426l7.04.012-2.046-5.792 2.52-3.446 4.481 12.76-11.306-.018Z"/><path fill="#3E4062" d="M35 25c0-5.523-4.477-10-10-10s-10 4.477-10 10 4.477 10 10 10 10-4.477 10-10Z"/><path fill="#1E1F37" d="M25 16.25a8.75 8.75 0 1 0 0 17.5 8.75 8.75 0 0 0 0-17.5ZM25 15a10 10 0 1 1 0 20 10 10 0 0 1 0-20Z"/><path fill="#213147" d="M19.385 22.313v5.374a.96.96 0 0 0 .48.831l4.654 2.687a.963.963 0 0 0 .96 0l4.654-2.687a.96.96 0 0 0 .48-.83v-5.375a.96.96 0 0 0-.48-.83l-4.654-2.688a.962.962 0 0 0-.96 0l-4.655 2.687a.958.958 0 0 0-.479.831Z"/><path fill="#12AAFF" d="m26.014 26.042-.664 1.82a.233.233 0 0 0 0 .156l1.142 3.132 1.321-.763-1.585-4.345a.115.115 0 0 0-.107-.075.114.114 0 0 0-.107.075ZM27.345 22.982a.115.115 0 0 0-.107-.075.115.115 0 0 0-.107.075l-.664 1.82a.235.235 0 0 0 0 .156l1.871 5.127 1.321-.763-2.314-6.34Z"/><path fill="#9DCCED" d="M24.998 18.995a.2.2 0 0 1 .094.025l5.036 2.908a.191.191 0 0 1 .094.163v5.815a.188.188 0 0 1-.094.163l-5.036 2.908a.186.186 0 0 1-.188 0l-5.036-2.906a.19.19 0 0 1-.094-.163v-5.816a.187.187 0 0 1 .094-.163l5.036-2.908a.19.19 0 0 1 .094-.026Zm0-.849c-.183 0-.362.048-.52.139l-5.035 2.907a1.039 1.039 0 0 0-.52.9v5.815a1.04 1.04 0 0 0 .52.9l5.036 2.908a1.044 1.044 0 0 0 1.04 0l5.036-2.908a1.04 1.04 0 0 0 .52-.9v-5.815a1.039 1.039 0 0 0-.52-.9l-5.037-2.907a1.036 1.036 0 0 0-.52-.139Z"/><path fill="#213147" d="m21.668 30.092.463-1.269.932.775-.872.8-.523-.306Z"/><path fill="#fff" d="M24.574 21.676h-1.277a.227.227 0 0 0-.214.15l-2.737 7.5 1.32.763 3.015-8.262a.113.113 0 0 0-.107-.151ZM26.808 21.676H25.53a.228.228 0 0 0-.214.15l-3.125 8.567 1.32.763 3.4-9.327a.114.114 0 0 0-.104-.153Z"/><defs><linearGradient id="a" x1="23.998" x2="6.747" y1="2.61" y2="27.297" gradientUnits="userSpaceOnUse"><stop stop-color="#03D1CF" stop-opacity=".988"/><stop offset="1" stop-color="#4E09F8"/></linearGradient></defs></svg>