<svg xmlns="http://www.w3.org/2000/svg" width="40" height="40"><defs><linearGradient id="a" x1=".5" x2="0" y2="1" gradientUnits="objectBoundingBox"><stop offset="0" stop-color="#03d1cf" stop-opacity=".988"/><stop offset="1" stop-color="#4e09f8"/></linearGradient></defs><path data-name="Rectangle 546" fill="none" d="M0 0h40v40H0z"/><path data-name="Path 1450" d="M561.667 722.177 543.694 696l-18.027 26.177h25.118l-7.088-9.99-3.517 5.191h-3.74l7.26-10.438 10.493 15.237Z" transform="translate(-523.666 -689.089)" fill="url(#a)"/><g data-name="Group 291" transform="translate(20 20)"><rect width="20" height="20" rx="10" fill="#e84142"/><path data-name="base - Outline" d="M10 1.25A8.75 8.75 0 1 0 18.75 10 8.75 8.75 0 0 0 10 1.25M10 0A10 10 0 1 1 0 10 10 10 0 0 1 10 0Z" fill="#1e1f37"/><path data-name="Path 1676" d="M12.573 10.025a.482.482 0 0 1 .912 0l1.57 2.761c.25.436.046.793-.46.793H11.43c-.5 0-.706-.356-.459-.793ZM9.529 4.708a.477.477 0 0 1 .907 0l.35.631.827 1.452a1.509 1.509 0 0 1 0 1.315l-2.774 4.806a1.459 1.459 0 0 1-1.137.666h-2.3c-.5 0-.713-.35-.459-.793Z" fill="#fff"/></g></svg>