<svg height="64" viewBox="0 0 64 64" width="64" xmlns="http://www.w3.org/2000/svg"><path d="m0 0h64v64h-64z" fill="none"/><path d="m32-58.437a32 32 0 0 0 -32 32 32 32 0 0 0 32 32 32 32 0 0 0 32-32 32 32 0 0 0 -32-32z" fill="#fff" transform="translate(0 58.438)"/><g transform="translate(9 49)"><path d="m45.068-31.973-21.057-8.092a3.352 3.352 0 0 0 -1.011-.185 3.349 3.349 0 0 0 -1.008.185l-21.06 8.092a1.541 1.541 0 0 0 -.932 1.345v3.316a1.437 1.437 0 0 0 1.438 1.438h1.437v1.438a1.437 1.437 0 0 0 1.438 1.436h37.375a1.437 1.437 0 0 0 1.438-1.437v-1.437h1.438a1.437 1.437 0 0 0 1.436-1.438v-3.316a1.431 1.431 0 0 0 -.932-1.345zm-22.068 4.661a2.875 2.875 0 0 1 -2.875-2.875 2.875 2.875 0 0 1 2.875-2.875 2.875 2.875 0 0 1 2.875 2.875 2.875 2.875 0 0 1 -2.875 2.875z" fill="#50d0fe"/><path d="m46 1.438a1.442 1.442 0 0 0 -1.437-1.438h-1.438v-2.875a2.875 2.875 0 0 0 -2.875-2.875v-17.25h-5.75v17.25h-8.625v-17.25h-5.75v17.25h-8.625v-17.25h-5.75v17.25a2.875 2.875 0 0 0 -2.875 2.875v2.875h-1.437a1.442 1.442 0 0 0 -1.438 1.438v2.875a1.442 1.442 0 0 0 1.438 1.437h43.125a1.442 1.442 0 0 0 1.437-1.437z" fill="#303fd0"/></g></svg>