<svg width="40" height="40" fill="none" xmlns="http://www.w3.org/2000/svg"><path d="m1.837 24.448-.264-.505h4.436l.112.153a13.046 13.046 0 0 0 6.72 5.02c2.736.892 5.693.86 8.41-.09a13.039 13.039 0 0 0 6.608-5.163 12.891 12.891 0 0 0 2.067-8.095l-7.92-.013 2.31 6.495-2.83 3.864-5.084-14.309 16.718.032.072.252c.192.631.341 1.274.448 1.924a16.701 16.701 0 0 1-.19 6.56 16.763 16.763 0 0 1-2.703 5.99 16.893 16.893 0 0 1-4.807 4.505 17.005 17.005 0 0 1-6.175 2.337c-.95.15-1.909.227-2.87.23-3.12 0-6.177-.859-8.834-2.481a16.788 16.788 0 0 1-6.218-6.71l-.006.004Zm2.846-2.685H.72L.65 21.51a15.662 15.662 0 0 1-.415-1.896c-.67-3.96.11-8.027 2.196-11.467a16.93 16.93 0 0 1 9.183-7.29 17.06 17.06 0 0 1 11.75.394 16.9 16.9 0 0 1 8.662 7.89l.262.505h-4.464l-.111-.153a13.057 13.057 0 0 0-6.723-5.008 13.154 13.154 0 0 0-8.404.094 13.045 13.045 0 0 0-6.606 5.156 12.898 12.898 0 0 0-2.075 8.086l7.953.013-2.31-6.495 2.845-3.864 5.063 14.309-12.772-.021Z" fill="url(#a)"/><path d="M40 27.767c0-6.756-5.516-12.232-12.32-12.232-6.805 0-12.321 5.476-12.321 12.232 0 6.756 5.516 12.233 12.32 12.233C34.484 40 40 34.523 40 27.767Z" fill="#3E4062"/><path d="M27.68 17.064c-2.133 0-4.217.627-5.99 1.803a10.721 10.721 0 0 0-3.97 4.804 10.633 10.633 0 0 0-.614 6.184 10.68 10.68 0 0 0 2.95 5.48 10.805 10.805 0 0 0 5.52 2.93c2.091.413 4.259.201 6.229-.609a10.764 10.764 0 0 0 4.838-3.942 10.65 10.65 0 0 0 1.817-5.947c0-2.838-1.136-5.561-3.158-7.568a10.82 10.82 0 0 0-7.623-3.135Zm0-1.53c2.436 0 4.818.718 6.844 2.062a12.252 12.252 0 0 1 4.538 5.49 12.151 12.151 0 0 1 .701 7.068 12.206 12.206 0 0 1-3.372 6.263 12.348 12.348 0 0 1-6.308 3.348c-2.39.472-4.867.23-7.118-.696a12.302 12.302 0 0 1-5.53-4.506 12.17 12.17 0 0 1-2.076-6.796c0-3.244 1.298-6.355 3.608-8.65a12.365 12.365 0 0 1 8.712-3.583Z" fill="#1E1F37"/><path d="m29.59 27.095 1.193-2.008 3.212 4.968v.954-6.558a.49.49 0 0 0-.23-.393l-5.784-3.303a.512.512 0 0 0-.442 0l-.052.029-.02.012-5.614 3.231-.021.01a.51.51 0 0 0-.23.21.494.494 0 0 0-.061.208l.009 5.352 2.992-4.605a2.193 2.193 0 0 1 1.96-.797l.894.023-5.27 8.39.616.355 5.333-8.738 2.358-.009-5.318 8.955 2.216 1.266.265.153a.512.512 0 0 0 .357 0l5.865-3.375-1.121.645-3.106-4.976Zm.463 6.503-2.241-3.49 1.366-2.303 2.941 4.597-2.066 1.196Z" fill="#2D374B"/><path d="m27.812 30.108 2.24 3.49 2.067-1.19-2.94-4.601-1.367 2.301ZM34.003 31.007v-.954l-3.213-4.968-1.192 2.008 3.102 4.98 1.121-.645a.495.495 0 0 0 .184-.36l-.002-.06Z" fill="#28A0F0"/><path d="m20.54 31.907 1.583.905 5.27-8.39-.895-.023a2.209 2.209 0 0 0-1.959.796l-2.992 4.606-1.007 1.53v.576ZM30.435 24.422l-2.358.009-5.334 8.737 1.864 1.07.507-.853 5.32-8.963Z" fill="#fff"/><path d="M34.989 24.41a1.482 1.482 0 0 0-.706-1.2l-5.852-3.345a1.534 1.534 0 0 0-1.345 0c-.049.024-5.698 3.278-5.698 3.278a1.496 1.496 0 0 0-.848 1.263v6.93l1.007-1.529-.01-5.352a.512.512 0 0 1 0-.058.493.493 0 0 1 .2-.306c.027-.018 5.773-3.32 5.792-3.33a.511.511 0 0 1 .442 0l5.784 3.303a.496.496 0 0 1 .23.393v6.622a.48.48 0 0 1-.173.36l-1.121.645-.58.333-2.068 1.19-2.097 1.206a.51.51 0 0 1-.358 0l-2.48-1.417-.507.853 2.23 1.275.194.109.154.087a1.501 1.501 0 0 0 1.138.018l6.105-3.515a1.48 1.48 0 0 0 .574-1.115V24.41h-.007Z" fill="#96BEDC"/><defs><linearGradient id="a" x1="27.102" y1="2.926" x2="7.811" y2="30.738" gradientUnits="userSpaceOnUse"><stop stop-color="#03D1CF" stop-opacity=".988"/><stop offset="1" stop-color="#4E09F8"/></linearGradient></defs></svg>