<svg xmlns="http://www.w3.org/2000/svg" fill="none" viewBox="0 0 143 23"><g fill="#A0A3C4" clip-path="url(#a)"><path d="m55.615 10.985-.78 6.54c-1.326 1.045-3.473 1.763-5.599 1.763-3.452 0-6.126-1.968-6.126-6.09 0-4.879 3.18-8.856 7.873-8.856 2.085 0 4.042.902 5.116 2.645l-2.59 1.927c-.568-.82-1.473-1.476-2.715-1.476-2.505 0-4.126 2.686-4.126 5.577 0 2.131 1.053 3.239 2.8 3.239.779 0 1.494-.185 2.315-.698l.274-1.824h-2.484l.357-2.747h5.685Zm13.278 2.111c-.568 4.51-2.694 6.192-6.357 6.192-3.431 0-4.947-1.968-4.947-5.167 0-.492.042-1.004.105-1.517l1.032-8.057h3.347l-1.01 8.037c-.043.43-.085.84-.085 1.21 0 1.434.484 2.419 1.81 2.419 1.516 0 2.442-.78 2.737-3.198L66.6 4.547h3.368l-1.074 8.55Zm9.455 6.007-.442-2.685h-4.463l-1.115 2.685h-3.537l6.736-14.556h3.242l3.073 14.556h-3.494Zm-3.747-5.473h2.842l-.779-4.838h-.042l-2.02 4.838Zm17.111.122v.02l2.505 5.331H90.47l-2.063-4.756H87.25l-.59 4.756h-3.304l1.83-14.556h5.326c2.99 0 4.231 1.681 4.231 4.018 0 2.42-1.073 4.285-3.03 5.187Zm-3.6-6.314-.504 4.018h1.326c1.41 0 2.294-1.066 2.294-2.522 0-1.045-.716-1.497-1.557-1.497h-1.559Zm12.434 11.665h-4.61l1.832-14.556h4.715c4.126 0 6.168 2.358 6.168 6.048 0 5.044-3.031 8.508-8.105 8.508Zm.4-2.931c2.779 0 4.21-2.46 4.21-5.515 0-2.01-.947-3.178-3.052-3.178h-1.41l-1.095 8.692h1.347Zm12.443 2.931h-3.41l1.81-14.556h3.432l-1.832 14.556Zm11.11 0-.442-2.685h-4.463l-1.115 2.685h-3.537l6.736-14.556h3.242l3.073 14.556h-3.494Zm-3.747-5.473h2.842l-.779-4.838h-.042l-2.021 4.838Zm18.879-9.083h3.368l-1.852 14.556h-3.473l-3.705-8.61h-.022l-1.094 8.61h-3.347l1.831-14.556h3.368l3.768 8.836h.043l1.115-8.836Z"/><path fill-rule="evenodd" d="M23.916.5a.084.084 0 0 0-.073.04c-2.19 3.803-4.38 7.606-6.573 11.409h-4.62a.168.168 0 0 0-.144.077l-1.943 3.184c-.031.051.008.115.072.115h4.658c-.51.814-1.029 1.543-1.608 2.139-1.049 1.08-2.537 1.727-4.613 1.53-2.99-.284-4.888-2.936-4.888-5.877 0-1.794 1.412-4.452 3.04-5.546 1.917-1.29 4.537-1.644 7.492-.012.078.043.181.021.229-.051l1.776-2.7a.145.145 0 0 0-.043-.203c-3.847-2.617-8.707-1.937-11.78.098C1.941 6.66.221 9.426.016 12.997c-.29 5.063 3.194 9.004 8.865 9.465 3.34.273 5.911-.995 7.702-2.7 1.379-1.314 2.143-2.662 2.906-4.01.399-.704 1.677-2.777 1.677-2.777l-.653 2.154c-.03.098.05.195.159.195h6.613l.69 2.554a.081.081 0 0 0 .03.042c.014.01.032.016.05.016h3.73c.054 0 .093-.047.08-.096L27.092.557a.081.081 0 0 0-.03-.041.084.084 0 0 0-.05-.016h-3.096Zm2.457 11.449-1.508-5.584-3.002 5.244-.135.225c-.03.052.01.115.072.115h4.573Z" clip-rule="evenodd"/></g><defs><clipPath id="a"><path fill="#fff" d="M0 .5h143v22H0z"/></clipPath></defs></svg>