<svg xmlns="http://www.w3.org/2000/svg" fill="none" viewBox="0 0 28 28"><path fill="#fff" d="m6.396 7.82-.015.018 6.57 4.762v5.6l-8.563-6.106A9.838 9.838 0 0 0 4.2 14c0 5.412 4.388 9.8 9.8 9.8 5.412 0 9.8-4.388 9.8-9.8 0-.523-.043-1.035-.122-1.535L15.05 18.2v-5.6l6.666-4.64-.008-.009 3.462-2.39A13.937 13.937 0 0 1 28 14c0 7.732-6.268 14-14 14S0 21.732 0 14a13.94 13.94 0 0 1 2.972-8.626l3.424 2.445ZM14 0c3.802 0 7.249 1.516 9.771 3.976l-3.55 2.45A9.76 9.76 0 0 0 14 4.2a9.756 9.756 0 0 0-6.076 2.113l-3.516-2.51A13.95 13.95 0 0 1 14 0Z"/><path fill="#fff" d="m6.396 7.82-.015.018 6.57 4.762v5.6l-8.563-6.106A9.838 9.838 0 0 0 4.2 14c0 5.412 4.388 9.8 9.8 9.8 5.412 0 9.8-4.388 9.8-9.8 0-.523-.043-1.035-.122-1.535L15.05 18.2v-5.6l6.666-4.64-.008-.009 3.462-2.39A13.937 13.937 0 0 1 28 14c0 7.732-6.268 14-14 14S0 21.732 0 14a13.94 13.94 0 0 1 2.972-8.626l3.424 2.445ZM14 0c3.802 0 7.249 1.516 9.771 3.976l-3.55 2.45A9.76 9.76 0 0 0 14 4.2a9.756 9.756 0 0 0-6.076 2.113l-3.516-2.51A13.95 13.95 0 0 1 14 0Z"/></svg>
