<svg height="48" viewBox="0 0 48 48" width="48" xmlns="http://www.w3.org/2000/svg"><path d="m4.149 0a4.149 4.149 0 0 1 4.151 4.149v14.751a4.149 4.149 0 0 1 -8.3 0v-14.751a4.149 4.149 0 0 1 4.149-4.149z" fill="#fff" transform="translate(0 24.951)"/><g fill="#7ecbbb"><path d="m4.149 0a4.149 4.149 0 1 1 -4.149 4.149 4.149 4.149 0 0 1 4.149-4.149z" transform="translate(0 13.234)"/><path d="m4.149 0a4.149 4.149 0 1 1 -4.149 4.149 4.149 4.149 0 0 1 4.149-4.149z"/><path d="m4.149 0a4.149 4.149 0 1 1 -4.149 4.149 4.149 4.149 0 0 1 4.149-4.149z" transform="translate(13.234)"/><path d="m4.149 0a4.149 4.149 0 1 1 -4.149 4.149 4.149 4.149 0 0 1 4.149-4.149z" transform="translate(25.641)"/><path d="m4.149 0a4.149 4.149 0 1 1 -4.149 4.149 4.149 4.149 0 0 1 4.149-4.149z" transform="translate(39.702)"/><path d="m4.149 0a4.149 4.149 0 1 1 -4.149 4.149 4.149 4.149 0 0 1 4.149-4.149z" transform="translate(25.641 13.234)"/></g><path d="m4.149 0a4.149 4.149 0 0 1 4.151 4.149v14.751a4.149 4.149 0 0 1 -8.3 0v-14.751a4.149 4.149 0 0 1 4.149-4.149z" fill="#fff" transform="translate(25.641 24.951)"/><path d="m4.149 0a4.149 4.149 0 0 1 4.151 4.149v29.5a4.149 4.149 0 0 1 -8.3 0v-29.5a4.149 4.149 0 0 1 4.149-4.149z" fill="#fff" transform="translate(13.234 10.2)"/><path d="m4.149 0a4.149 4.149 0 0 1 4.151 4.149v29.5a4.149 4.149 0 0 1 -8.3 0v-29.5a4.149 4.149 0 0 1 4.149-4.149z" fill="#fff" transform="translate(39.702 10.2)"/></svg>