<svg width="34" height="34" fill="none" xmlns="http://www.w3.org/2000/svg"><path d="M.00002 15a15.00003 15.00003 0 0 0 1.65155 6.8403 14.99968 14.99968 0 0 0 4.58922 5.3344 14.99972 14.99972 0 0 0 6.51691 2.6546c2.3521.3556 4.755.1467 7.0104-.6094a15.00078 15.00078 0 0 0 5.9611-3.7394 14.99966 14.99966 0 0 0 3.5998-6.0464c.7035-2.2723.8565-4.6795.4464-7.0226A15.00042 15.00042 0 0 0 26.97 5.95801l-.691.477-3.018 2.083.008.011L16.125 13.5v6l9.247-6.147c.2389 1.5155.1427 3.065-.2818 4.5394a10.49898 10.49898 0 0 1-2.1749 3.9943 10.50018 10.50018 0 0 1-3.66 2.7 10.50067 10.50067 0 0 1-4.4584.8989 10.50116 10.50116 0 0 1-4.4203-1.0707 10.5006 10.5006 0 0 1-3.55279-2.8395 10.50015 10.50015 0 0 1-2.12479-8.6224L13.875 19.5v-6L6.83602 8.40001l.016-.02-2.968-2.123-.7-.5A14.93894 14.93894 0 0 0 .00002 15ZM15 .00001c-3.8209-.00518-7.49871 1.453-10.27798 4.075l3.766 2.689a10.50007 10.50007 0 0 1 6.61068-2.26335 10.49972 10.49972 0 0 1 6.5673 2.38635l3.806-2.627C22.6733 1.5244 18.9136-.00501 15 .00001Z" fill="url(#a)"/><path d="M33.462 23.4619c0-5.5228-4.4771-10-10-10-5.5228 0-10 4.4772-10 10 0 5.5229 4.4772 10 10 10 5.5229 0 10-4.4771 10-10Z" fill="#3E4062"/><path d="M23.463 14.7119c-1.7306 0-3.4223.5132-4.8612 1.4747a8.74885 8.74885 0 0 0-3.2227 3.9268 8.75017 8.75017 0 0 0-.498 5.0556 8.75064 8.75064 0 0 0 2.3947 4.4801 8.7498 8.7498 0 0 0 4.4802 2.3947 8.75071 8.75071 0 0 0 5.0555-.4979 8.75093 8.75093 0 0 0 3.9269-3.2227 8.75046 8.75046 0 0 0 .8086-8.2098 8.75128 8.75128 0 0 0-1.8968-2.8387 8.7494 8.7494 0 0 0-2.8387-1.8967 8.74868 8.74868 0 0 0-3.3485-.6661Zm0-1.25a9.99993 9.99993 0 0 1 9.2388 6.1732c.7569 1.8272.9549 3.8379.5691 5.7777a10.0006 10.0006 0 0 1-2.7368 5.1202 10.0006 10.0006 0 0 1-5.1202 2.7368 10.00008 10.00008 0 0 1-5.7777-.5691 9.99993 9.99993 0 0 1-6.1732-9.2388c0-2.6522 1.0536-5.1957 2.9289-7.0711 1.8754-1.8753 4.4189-2.9289 7.0711-2.9289Z" fill="#1E1F37"/><path d="m25.1741 22.9911 1.006-1.707 2.712 4.224v.811-5.576a.4201.4201 0 0 0-.0564-.1906.41963.41963 0 0 0-.1376-.1434l-4.883-2.808a.43034.43034 0 0 0-.1865-.0425.42969.42969 0 0 0-.1865.0425l-.044.025-.017.01-4.739 2.747-.018.008a.42494.42494 0 0 0-.07.04.42033.42033 0 0 0-.1237.1382.41965.41965 0 0 0-.0523.1778l.008 4.55 2.519-3.916c.197-.243.4524-.4322.7423-.5499.29-.1176.6049-.16.9157-.1231l.755.02-4.449 7.133.52.3 4.5-7.428 1.99-.008-4.486 7.613 1.874 1.07.224.13a.42905.42905 0 0 0 .3 0l4.95-2.869-.946.549-2.621-4.227Zm.39 5.529-1.892-2.967 1.153-1.958 2.48 3.908-1.741 1.017Z" fill="#2D374B"/><path d="m23.6731 25.5517 1.89 2.967 1.746-1.011-2.482-3.912-1.154 1.956ZM28.899 26.3138v-.811l-2.712-4.224-1.006 1.707 2.618 4.234.946-.549a.41923.41923 0 0 0 .11-.136.41991.41991 0 0 0 .045-.169l-.001-.052Z" fill="#28A0F0"/><path d="m17.534 27.0818 1.336.77 4.445-7.134-.755-.019a1.85206 1.85206 0 0 0-.914.1257c-.2892.1184-.5438.308-.74.5513l-2.526 3.916-.85 1.3.004.49ZM25.886 20.7178l-1.99.008-4.5 7.428 1.573.91.428-.725 4.489-7.621Z" fill="#fff"/><path d="M29.731 20.7068a1.26788 1.26788 0 0 0-.6-1.019l-4.94-2.844a1.28669 1.28669 0 0 0-1.135 0c-.042.021-4.81 2.787-4.81 2.787a1.26475 1.26475 0 0 0-.5051.4389c-.126.1889-.1988.4083-.2109.6351v5.89l.85-1.3-.008-4.55a.40054.40054 0 0 1 0-.049.41908.41908 0 0 1 .169-.266c.022-.016 4.872-2.824 4.888-2.831a.43044.43044 0 0 1 .1865-.0426c.0646 0 .1283.0146.1865.0426l4.883 2.808a.41995.41995 0 0 1 .1377.1434.41876.41876 0 0 1 .0563.1906v5.63a.41071.41071 0 0 1-.0399.1687.41156.41156 0 0 1-.1061.1373l-.946.549-.489.283-1.742 1.011-1.77 1.026a.42905.42905 0 0 1-.3 0l-2.094-1.205-.428.725 1.882 1.084.164.092.13.074c.1578.0681.3282.1022.5.1.1578.0002.3142-.0294.461-.087l5.153-2.982a1.25646 1.25646 0 0 0 .485-.948v-5.7l-.008.008Z" fill="#96BEDC"/><defs><linearGradient id="a" x1="0" y1="14.9989" x2="28.68" y2="14.9989" gradientUnits="userSpaceOnUse"><stop stop-color="#410CF0"/><stop offset="1" stop-color="#28CDD9"/></linearGradient></defs></svg>