<svg xmlns="http://www.w3.org/2000/svg" width="40" height="40"><defs><linearGradient id="a" x1=".8" y1=".087" x2=".225" y2=".91" gradientUnits="objectBoundingBox"><stop offset="0" stop-color="#03d1cf" stop-opacity=".988"/><stop offset="1" stop-color="#4e09f8"/></linearGradient></defs><path data-name="Rectangle 545" fill="none" d="M0 0h40v40H0z"/><path data-name="Union 13" d="m21343.656 745.806-.234-.45h3.928l.1.137a11.56 11.56 0 0 0 21.078-7.426l-7.014-.012 2.047 5.793-2.508 3.446-4.5-12.761 14.8.029.064.225a13.555 13.555 0 0 1 .4 1.715 15 15 0 0 1-12.285 17.293 16.4 16.4 0 0 1-2.549.21 14.926 14.926 0 0 1-13.328-8.2Zm2.52-2.4h-3.508l-.064-.225a14.231 14.231 0 0 1-.367-1.691 15.008 15.008 0 0 1 28.15-9.339l.23.45h-3.951l-.1-.137a11.566 11.566 0 0 0-21.08 7.427l7.041.012-2.047-5.793 2.52-3.446 4.482 12.761Z" transform="translate(-21337.029 -719.003)" fill="url(#a)"/><g data-name="Group 291" transform="translate(-381 -256)"><rect width="20" height="20" rx="10" transform="translate(401 276)" fill="#e84142"/><path data-name="base - Outline" d="M411 277.25a8.75 8.75 0 1 0 8.75 8.75 8.75 8.75 0 0 0-8.75-8.75m0-1.25a10 10 0 1 1-10 10 10 10 0 0 1 10-10Z" fill="#1e1f37"/><path data-name="Path 1676" d="M413.573 286.025a.482.482 0 0 1 .912 0l1.57 2.761c.25.436.046.793-.46.793h-3.165c-.5 0-.706-.356-.459-.793Zm-3.044-5.317a.477.477 0 0 1 .907 0l.35.631.827 1.452a1.509 1.509 0 0 1 0 1.315l-2.774 4.806a1.459 1.459 0 0 1-1.137.666h-2.3c-.5 0-.713-.35-.459-.793Z" fill="#fff"/></g></svg>