<svg width="38" height="34" fill="none" xmlns="http://www.w3.org/2000/svg"><path d="M36.001 27.088 18.028.91.001 27.088h25.118l-7.088-9.99-3.517 5.19h-3.74l7.26-10.437 10.493 15.237h7.474Z" fill="url(#a)"/><path d="M38 24c0-5.523-4.477-10-10-10s-10 4.477-10 10 4.477 10 10 10 10-4.477 10-10Z" fill="#E84142"/><path d="M28 15.25a8.75 8.75 0 1 0 0 17.5 8.75 8.75 0 0 0 0-17.5M28 14a10 10 0 1 1 0 20 10 10 0 0 1 0-20Z" fill="#1E1F37"/><path d="M30.573 24.025a.482.482 0 0 1 .912 0l1.57 2.761c.25.436.046.793-.46.793H29.43c-.5 0-.706-.356-.459-.793l1.602-2.761Zm-3.044-5.317a.477.477 0 0 1 .907 0l.35.631.827 1.452a1.51 1.51 0 0 1 0 1.315l-2.774 4.806a1.459 1.459 0 0 1-1.137.666h-2.3c-.5 0-.713-.35-.459-.793l4.586-8.077Z" fill="#fff"/><defs><linearGradient id="a" x1="18.001" y1=".911" x2="7.493" y2="29.812" gradientUnits="userSpaceOnUse"><stop stop-color="#03D1CF" stop-opacity=".988"/><stop offset="1" stop-color="#4E09F8"/></linearGradient></defs></svg>