<svg width="24" height="24" viewBox="0 0 24 24" fill="none" xmlns="http://www.w3.org/2000/svg">
<g clip-path="url(#clip0_15_2)">
<path fill-rule="evenodd" clip-rule="evenodd" d="M12 24C18.6276 24 24 18.6276 24 12C24 9.28381 23.0976 6.77761 21.576 4.76641L21.0228 5.14801L21.0216 5.14861L18.609 6.81481L18.6156 6.82321L12.9 10.8V15.6L20.2974 10.6824C20.364 11.112 20.4 11.5518 20.4 12C20.4 16.6392 16.6392 20.4 12 20.4C7.36081 20.4 3.60001 16.6392 3.60001 12C3.60001 11.4408 3.65461 10.8942 3.75901 10.3656L11.1 15.6V10.8L5.46841 6.71761L5.48161 6.70141L3.10741 5.00641L3.10621 5.00521L2.54761 4.60681C0.893191 6.7157 -0.00408617 9.31962 1.39897e-05 12C1.39897e-05 18.6276 5.37241 24 12 24ZM12 3.60001C10.1084 3.59705 8.27168 4.23539 6.78961 5.41081L3.77761 3.25981C6.00104 1.16225 8.94332 -0.00422978 12 1.15256e-05C15.1308 -0.00414165 18.1385 1.21942 20.3772 3.40801L17.3328 5.50921C15.8313 4.27204 13.9455 3.59691 12 3.60001Z" fill="#0DB7D2"/>
<path fill-rule="evenodd" clip-rule="evenodd" d="M12 24C18.6276 24 24 18.6276 24 12C24 9.28381 23.0976 6.77761 21.576 4.76641L21.0228 5.14801L21.0216 5.14861L18.609 6.81481L18.6156 6.82321L12.9 10.8V15.6L20.2974 10.6824C20.364 11.112 20.4 11.5518 20.4 12C20.4 16.6392 16.6392 20.4 12 20.4C7.36081 20.4 3.60001 16.6392 3.60001 12C3.60001 11.4408 3.65461 10.8942 3.75901 10.3656L11.1 15.6V10.8L5.46841 6.71761L5.48161 6.70141L3.10741 5.00641L3.10621 5.00521L2.54761 4.60681C0.893191 6.7157 -0.00408617 9.31962 1.39897e-05 12C1.39897e-05 18.6276 5.37241 24 12 24ZM12 3.60001C10.1084 3.59705 8.27168 4.23539 6.78961 5.41081L3.77761 3.25981C6.00104 1.16225 8.94332 -0.00422978 12 1.15256e-05C15.1308 -0.00414165 18.1385 1.21942 20.3772 3.40801L17.3328 5.50921C15.8313 4.27204 13.9455 3.59691 12 3.60001Z" fill="url(#paint0_linear_15_2)"/>
</g>
<defs>
<linearGradient id="paint0_linear_15_2" x1="24.2436" y1="12.189" x2="0.180613" y2="11.3754" gradientUnits="userSpaceOnUse">
<stop stop-color="#03D1CF" stop-opacity="0.988"/>
<stop offset="1" stop-color="#4E09F8"/>
</linearGradient>
<clipPath id="clip0_15_2">
<rect width="24" height="24" fill="white"/>
</clipPath>
</defs>
</svg>
