<svg xmlns="http://www.w3.org/2000/svg" width="40" height="39" fill="none"><path fill-rule="evenodd" clip-rule="evenodd" d="M9.671 7.45c3.05-6.48 10.776-9.262 17.257-6.213 5.39 2.537 8.222 8.31 7.267 13.91 1.33.88 2.519 2.023 3.484 3.412 4.088 5.882 2.634 13.964-3.248 18.052-4.892 3.4-11.306 2.966-15.678-.66a12.932 12.932 0 0 1-4.698 1.31c-7.137.6-13.41-4.7-14.009-11.838-.498-5.937 3.085-11.275 8.412-13.248A12.935 12.935 0 0 1 9.67 7.45Zm4.506 16.12-5.165.124 4.974-8.38a9.079 9.079 0 1 0 1.154 17.84l-5.965-7.521 16.741-.057 2.535 4.134-9.744-.117a9.079 9.079 0 1 0 14.873-9.92L30.05 28.6l-8.4-14.074 2.293-4.66 4.77 8.498a9.079 9.079 0 1 0-16.027-7.92l9.497-1.406-8.005 14.533Z" fill="url(#a)"/><defs><linearGradient id="a" x1="36.773" y1="5.796" x2="-3.938" y2="37.018" gradientUnits="userSpaceOnUse"><stop stop-color="#03D1CF" stop-opacity=".988"/><stop offset="1" stop-color="#4E09F8"/></linearGradient></defs></svg>
