<svg width="40" height="35" fill="none" xmlns="http://www.w3.org/2000/svg"><path d="M37.144 27.008 18.601 0 0 27.008h25.917l-7.313-10.307-3.63 5.355h-3.857l7.487-10.769L29.43 27.002l7.714.006Z" fill="url(#a)"/><path d="M40 23.505c0-6.312-5.117-11.429-11.429-11.429s-11.429 5.117-11.429 11.43c0 6.311 5.117 11.428 11.429 11.428S40 29.817 40 23.505Z" fill="#3E4062"/><path d="M28.571 13.505a10 10 0 1 0 0 20 10 10 0 0 0 0-20m0-1.429a11.43 11.43 0 1 1 0 22.859 11.43 11.43 0 0 1 0-22.859Z" fill="#1E1F37"/><path d="M30.344 22.877 31.45 21l2.98 4.641v.892-6.127a.462.462 0 0 0-.213-.368l-5.366-3.085a.472.472 0 0 0-.41 0l-.049.027-.018.011-5.207 3.019-.02.008a.464.464 0 0 0-.27.392l.008 5 2.776-4.303a2.036 2.036 0 0 1 1.817-.744l.83.021-4.889 7.839.572.331 4.947-8.163 2.187-.008-4.933 8.366 2.056 1.183.246.143c.107.04.224.04.331 0l5.44-3.154-1.04.603-2.881-4.648Zm.428 6.076-2.078-3.26 1.267-2.152 2.729 4.294-1.917 1.118Z" fill="#2D374B"/><path d="m28.694 25.692 2.077 3.26 1.919-1.111-2.727-4.299-1.27 2.15ZM34.437 26.532v-.891l-2.98-4.642-1.106 1.876 2.877 4.653 1.04-.603a.462.462 0 0 0 .17-.335l-.001-.058Z" fill="#28A0F0"/><path d="m21.948 27.372 1.468.846 4.89-7.839-.83-.021a2.037 2.037 0 0 0-1.818.744l-2.776 4.303-.934 1.429v.538ZM31.127 20.38l-2.187.008-4.948 8.163 1.729 1 .47-.797 4.936-8.375Z" fill="#fff"/><path d="M35.351 20.368a1.394 1.394 0 0 0-.654-1.12l-5.429-3.126a1.414 1.414 0 0 0-1.247 0c-.046.023-5.286 3.063-5.286 3.063a1.391 1.391 0 0 0-.787 1.18v6.475l.934-1.429-.008-5a.447.447 0 0 1 0-.055.46.46 0 0 1 .185-.285c.025-.017 5.355-3.103 5.372-3.112a.474.474 0 0 1 .41 0l5.366 3.086a.462.462 0 0 1 .213.367V26.6a.451.451 0 0 1-.16.335l-1.04.603-.537.312-1.919 1.111-1.946 1.127a.472.472 0 0 1-.331 0l-2.302-1.324-.47.797 2.069 1.192.18.101.143.082a1.382 1.382 0 0 0 1.056.017l5.662-3.285a1.38 1.38 0 0 0 .533-1.041v-6.26h-.007Z" fill="#96BEDC"/><defs><linearGradient id="a" x1="18.572" y1="0" x2="7.731" y2="29.819" gradientUnits="userSpaceOnUse"><stop stop-color="#03D1CF" stop-opacity=".988"/><stop offset="1" stop-color="#4E09F8"/></linearGradient></defs></svg>