<svg width="40" height="35" fill="none" xmlns="http://www.w3.org/2000/svg"><path d="M37.144 27.008 18.601 0 0 27.008h25.917l-7.313-10.307-3.63 5.355h-3.857l7.487-10.769L29.43 27.002l7.714.006Z" fill="url(#a)"/><path d="M40 23.505c0-6.312-5.117-11.429-11.429-11.429s-11.429 5.117-11.429 11.43c0 6.311 5.117 11.428 11.429 11.428S40 29.817 40 23.505Z" fill="#E84142"/><path d="M28.571 13.505a10 10 0 1 0 0 20 10 10 0 0 0 0-20m0-1.429a11.43 11.43 0 1 1 0 22.859 11.43 11.43 0 0 1 0-22.859Z" fill="#1E1F37"/><path d="M31.511 23.534a.552.552 0 0 1 1.043 0l1.794 3.155c.286.5.053.906-.525.906h-3.618c-.571 0-.807-.407-.524-.905l1.83-3.156Zm-3.479-6.078a.546.546 0 0 1 1.038 0l.4.715.945 1.66a1.725 1.725 0 0 1 0 1.503l-3.17 5.493a1.667 1.667 0 0 1-1.3.761h-2.631c-.572 0-.815-.4-.525-.906l5.243-9.226Z" fill="#fff"/><defs><linearGradient id="a" x1="18.572" y1="0" x2="7.731" y2="29.819" gradientUnits="userSpaceOnUse"><stop stop-color="#03D1CF" stop-opacity=".988"/><stop offset="1" stop-color="#4E09F8"/></linearGradient></defs></svg>