<svg xmlns="http://www.w3.org/2000/svg" width="40" height="40" fill="none"><path fill="#0DB7D2" fill-rule="evenodd" d="M20 40c11.046 0 20-8.954 20-20 0-4.527-1.504-8.704-4.04-12.056l-.922.636-.002.001-4.021 2.777.011.014L21.5 18v8l12.329-8.196C33.94 18.52 34 19.253 34 20c0 7.732-6.268 14-14 14S6 27.732 6 20c0-.932.091-1.843.265-2.724L18.5 26v-8l-9.386-6.804.022-.027-3.957-2.825-.002-.002-.931-.664A19.914 19.914 0 0 0 0 20c0 11.046 8.954 20 20 20Zm0-34a13.94 13.94 0 0 0-8.684 3.018l-5.02-3.585A19.93 19.93 0 0 1 20 0a19.935 19.935 0 0 1 13.962 5.68l-5.074 3.502A13.942 13.942 0 0 0 20 6Z" clip-rule="evenodd"/><path fill="url(#a)" fill-rule="evenodd" d="M20 40c11.046 0 20-8.954 20-20 0-4.527-1.504-8.704-4.04-12.056l-.922.636-.002.001-4.021 2.777.011.014L21.5 18v8l12.329-8.196C33.94 18.52 34 19.253 34 20c0 7.732-6.268 14-14 14S6 27.732 6 20c0-.932.091-1.843.265-2.724L18.5 26v-8l-9.386-6.804.022-.027-3.957-2.825-.002-.002-.931-.664A19.914 19.914 0 0 0 0 20c0 11.046 8.954 20 20 20Zm0-34a13.94 13.94 0 0 0-8.684 3.018l-5.02-3.585A19.93 19.93 0 0 1 20 0a19.935 19.935 0 0 1 13.962 5.68l-5.074 3.502A13.942 13.942 0 0 0 20 6Z" clip-rule="evenodd"/><defs><linearGradient id="a" x1="40.406" x2=".301" y1="20.315" y2="18.959" gradientUnits="userSpaceOnUse"><stop stop-color="#03D1CF" stop-opacity=".988"/><stop offset="1" stop-color="#4E09F8"/></linearGradient></defs></svg>