<svg xmlns="http://www.w3.org/2000/svg" width="40" height="40"><defs><linearGradient id="a" x2=".956" y1=".5" y2=".5" gradientUnits="objectBoundingBox"><stop offset="0" stop-color="#410cf0"/><stop offset="1" stop-color="#28cdd9"/></linearGradient></defs><path fill="none" d="M0 0h40v40H0z" data-name="Rectangle 549" opacity=".684"/><path fill="url(#a)" d="M0 15a15 15 0 1 0 26.97-9.042l-.691.477-3.018 2.083.008.011-7.144 4.971v6l9.247-6.147a10.5 10.5 0 1 1-20.673-.4l9.176 6.547v-6L6.836 8.4l.016-.02-2.968-2.123-.7-.5A14.939 14.939 0 0 0 0 15M15 0A14.948 14.948 0 0 0 4.722 4.075l3.766 2.689a10.5 10.5 0 0 1 13.178.123l3.806-2.627A14.954 14.954 0 0 0 15 0Z" data-name="Path 4601" transform="translate(5 5)"/><g transform="translate(18.154 18.154)"><rect width="20" height="20" fill="#3e4062" rx="10" transform="translate(.308 .308)"/><path fill="#1e1f37" d="M10.309 1.558a8.75 8.75 0 1 0 8.75 8.75 8.75 8.75 0 0 0-8.75-8.75m0-1.25a10 10 0 1 1-10 10 10 10 0 0 1 10-10Z" data-name="base - Outline"/><path fill="none" d="M.308.308h20v20h-20z" data-name="Rectangle 213"/><path fill="#2d374b" d="m12.02 9.837 1.006-1.707 2.712 4.224v.811-5.576a.42.42 0 0 0-.194-.334l-4.883-2.808a.43.43 0 0 0-.373 0l-.044.025-.017.01-4.739 2.747-.018.008a.428.428 0 0 0-.07.04.421.421 0 0 0-.176.316l.008 4.55 2.519-3.916a1.853 1.853 0 0 1 1.658-.673l.755.02-4.449 7.133.52.3 4.5-7.428 1.99-.008-4.486 7.613 1.874 1.07.224.13a.429.429 0 0 0 .3 0l4.95-2.869-.946.549Zm.39 5.529-1.892-2.967 1.153-1.958 2.48 3.908Z" data-name="Path 348"/><path fill="#28a0f0" d="m10.519 12.398 1.89 2.967 1.746-1.011-2.482-3.912Z" data-name="Path 349"/><path fill="#28a0f0" d="M15.745 13.16v-.811l-2.712-4.224-1.006 1.707 2.618 4.234.946-.549a.42.42 0 0 0 .155-.305Z" data-name="Path 350"/><path fill="#fff" d="m4.38 13.928 1.336.77 4.445-7.134-.755-.019a1.852 1.852 0 0 0-1.654.677l-2.526 3.916-.85 1.3Z" data-name="Path 351"/><path fill="#fff" d="m12.732 7.564-1.99.008L6.242 15l1.573.91.428-.725Z" data-name="Path 352"/><path fill="#96bedc" d="M16.577 7.553a1.268 1.268 0 0 0-.6-1.019l-4.94-2.844a1.287 1.287 0 0 0-1.135 0c-.042.021-4.81 2.787-4.81 2.787a1.266 1.266 0 0 0-.716 1.074v5.89l.85-1.3-.008-4.55a.4.4 0 0 1 0-.049.419.419 0 0 1 .169-.266c.022-.016 4.872-2.824 4.888-2.831a.43.43 0 0 1 .373 0l4.883 2.808a.42.42 0 0 1 .194.334v5.63a.411.411 0 0 1-.146.306l-.946.549-.489.283-1.742 1.011-1.77 1.026a.429.429 0 0 1-.3 0l-2.094-1.205-.428.725 1.882 1.084.164.092.13.074a1.223 1.223 0 0 0 .5.1 1.258 1.258 0 0 0 .461-.087l5.153-2.982a1.257 1.257 0 0 0 .485-.948v-5.7Z" data-name="Path 353"/></g></svg>