<svg height="30" width="30" xmlns="http://www.w3.org/2000/svg" xmlns:xlink="http://www.w3.org/1999/xlink"><linearGradient id="a" gradientUnits="objectBoundingBox" x1=".536" x2=".011" y1=".026" y2="1"><stop offset="0" stop-color="#03d1cf"/><stop offset="1" stop-color="#4e09f8"/></linearGradient><path d="m0 0h30v30h-30z" fill="none"/><path d="m554.956 716.042-13.62-20.042-13.67 20.042h19.034l-5.368-7.649-2.722 4h-2.81l5.533-8.013 8.026 11.666z" fill="url(#a)" transform="translate(-526.31 -691.059)"/><g fill="#3e4062" stroke="#1e1f37"><rect height="16" rx="8" stroke="none" width="16" x="14" y="13.875"/><rect fill="none" height="15" rx="7.5" width="15" x="14.5" y="14.375"/></g><path d="m14 13.875h16v16h-16z" fill="none"/><path d="m23.241 21.435.774-1.313 2.086 3.249v.624l-.002-4.289a.323.323 0 0 0 -.149-.257l-3.756-2.16a.331.331 0 0 0 -.287 0l-.034.019-.013.008-3.645 2.113-.014.006a.329.329 0 0 0 -.054.031.324.324 0 0 0 -.135.243l.006 3.5 1.943-3.012a1.425 1.425 0 0 1 1.272-.521l.581.015-3.422 5.487.4.232 3.463-5.714 1.531-.006-3.451 5.856 1.439.828.172.1a.33.33 0 0 0 .232 0l3.808-2.207-.728.422zm.3 4.253-1.455-2.282.887-1.506 1.91 3.006z" fill="#2d374b"/><path d="m22.086 23.406 1.454 2.282 1.343-.778-1.909-3.009z" fill="#28a0f0"/><path d="m26.106 23.994v-.624l-2.086-3.249-.774 1.313 2.014 3.257.728-.422a.323.323 0 0 0 .119-.235z" fill="#28a0f0"/><path d="m17.364 24.582 1.028.592 3.422-5.487-.581-.015a1.425 1.425 0 0 0 -1.272.521l-1.943 3.012-.654 1z" fill="#fff"/><path d="m23.789 19.687-1.531.006-3.463 5.714 1.21.7.329-.558z" fill="#fff"/><path d="m26.746 19.679a.975.975 0 0 0 -.458-.784l-3.8-2.188a.99.99 0 0 0 -.873 0c-.032.016-3.7 2.144-3.7 2.144a.974.974 0 0 0 -.551.826v4.532l.654-1-.006-3.5a.311.311 0 0 1 0-.038.322.322 0 0 1 .13-.205c.017-.012 3.748-2.172 3.76-2.178a.331.331 0 0 1 .287 0l3.756 2.16a.323.323 0 0 1 .149.257v4.331a.316.316 0 0 1 -.112.235l-.728.422-.376.218-1.343.778-1.362.789a.33.33 0 0 1 -.232 0l-1.611-.927-.329.558 1.448.834.126.071.1.057a.941.941 0 0 0 .384.079.968.968 0 0 0 .355-.067l3.964-2.294a.967.967 0 0 0 .373-.729v-4.381z" fill="#96bedc"/></svg>