<svg width="40" height="40" viewBox="0 0 32 32" fill="none" xmlns="http://www.w3.org/2000/svg">
  <g clip-path="url(#clip0_5270_24492)">
    <path fill-rule="evenodd" clip-rule="evenodd"
      d="M7.7369 6.62347C10.1769 1.2972 16.3577 -0.989483 21.5425 1.51666C25.8545 3.60196 28.1201 8.34711 27.3561 12.9501C28.4201 13.6734 29.3713 14.6129 30.1433 15.7546C33.4137 20.5893 32.2505 27.2324 27.5449 30.5925C23.6313 33.3872 18.5001 33.0304 15.0025 30.05C13.8275 30.6506 12.552 31.016 11.2441 31.1268C5.5345 31.6199 0.516099 27.2636 0.0368985 21.3965C-0.361502 16.5165 2.5049 12.1289 6.7665 10.5072C6.84705 9.16116 7.1769 7.84315 7.7369 6.62347ZM11.3417 19.8734L7.2097 19.9753L11.1889 13.0873C10.134 12.966 9.06594 13.0837 8.06006 13.4323C7.05417 13.7808 6.13487 14.3516 5.36686 15.1045C4.59885 15.8575 4.00082 16.7742 3.61485 17.7902C3.22889 18.8063 3.06437 19.8969 3.1329 20.9853C3.20142 22.0737 3.50131 23.1334 4.01147 24.0899C4.52162 25.0463 5.22962 25.8763 6.08564 26.5213C6.94166 27.1663 7.92488 27.6106 8.96608 27.8231C10.0073 28.0356 11.0812 28.011 12.1121 27.751L7.3401 21.5691L20.7329 21.5222L22.7609 24.9202L14.9657 24.824C15.391 25.8232 16.0244 26.7145 16.8211 27.4351C17.6178 28.1557 18.5586 28.6882 19.5772 28.9949C20.5958 29.3017 21.6674 29.3754 22.7167 29.2108C23.766 29.0461 24.7675 28.6472 25.6505 28.042C26.5336 27.4369 27.2768 26.6402 27.8279 25.7082C28.379 24.7761 28.7245 23.7312 28.8402 22.6471C28.9559 21.563 28.8389 20.4661 28.4975 19.4334C28.1561 18.4008 27.5986 17.4576 26.8641 16.6702L24.0401 24.0078L17.3201 12.4396L19.1545 8.60931L22.9705 15.5943C23.6003 14.7162 24.0351 13.707 24.2443 12.6377C24.4535 11.5684 24.432 10.465 24.1813 9.40511C23.9307 8.34524 23.4569 7.35471 22.7935 6.50326C22.13 5.6518 21.293 4.96012 20.3413 4.47691C19.3896 3.9937 18.3463 3.73071 17.285 3.70645C16.2237 3.6822 15.1701 3.89727 14.1984 4.33652C13.2268 4.77577 12.3606 5.42852 11.661 6.24883C10.9613 7.06913 10.4452 8.03703 10.1489 9.0844L17.7465 7.92873L11.3425 19.8742L11.3417 19.8734Z"
      fill="url(#paint0_linear_5270_24492)" />
  </g>
  <defs>
    <linearGradient id="paint0_linear_5270_24492" x1="29.4185" y1="5.26395" x2="-3.7987"
      y2="30.0584" gradientUnits="userSpaceOnUse">
      <stop stop-color="#03D1CF" stop-opacity="0.988" />
      <stop offset="1" stop-color="#4E09F8" />
    </linearGradient>
    <clipPath id="clip0_5270_24492">
      <rect width="32" height="32" fill="white" transform="translate(0 0.5)" />
    </clipPath>
  </defs>
</svg>
  
