<svg width="20" height="20" viewBox="0 0 20 20" fill="none" xmlns="http://www.w3.org/2000/svg">
<g clip-path="url(#clip0_5380_44128)">
<circle cx="10" cy="10" r="10" fill="#090A14"/>
<path fill-rule="evenodd" clip-rule="evenodd" d="M6.90134 6.2963C7.81634 4.29895 10.1341 3.44144 12.0784 4.38125C13.6954 5.16323 14.545 6.94266 14.2585 8.66877C14.6575 8.94002 15.0142 9.29233 15.3037 9.72046C16.5301 11.5335 16.0939 14.0246 14.3293 15.2847C12.8617 16.3327 10.9375 16.1989 9.62594 15.0813C9.18532 15.3065 8.70701 15.4435 8.21654 15.485C6.07544 15.67 4.19354 14.0363 4.01384 11.8362C3.86444 10.0062 4.93934 8.36085 6.53744 7.7527C6.56764 7.24794 6.69134 6.75368 6.90134 6.2963ZM8.25314 11.265L6.70364 11.3032L8.19584 8.72025C7.80023 8.67475 7.39973 8.7189 7.02252 8.84959C6.64531 8.98029 6.30057 9.19434 6.01257 9.4767C5.72457 9.75905 5.50031 10.1028 5.35557 10.4838C5.21083 10.8648 5.14914 11.2738 5.17484 11.682C5.20053 12.0901 5.31299 12.4875 5.5043 12.8462C5.69561 13.2049 5.96111 13.5161 6.28211 13.758C6.60312 13.9999 6.97183 14.1665 7.36228 14.2462C7.75273 14.3258 8.15543 14.3166 8.54204 14.2191L6.75254 11.9009L11.7748 11.8833L12.5353 13.1576L9.61214 13.1215C9.77164 13.4962 10.0091 13.8304 10.3079 14.1007C10.6067 14.3709 10.9595 14.5706 11.3414 14.6856C11.7234 14.8006 12.1253 14.8283 12.5188 14.7665C12.9123 14.7048 13.2878 14.5552 13.6189 14.3283C13.9501 14.1013 14.2288 13.8026 14.4355 13.4531C14.6421 13.1035 14.7717 12.7117 14.8151 12.3052C14.8585 11.8986 14.8146 11.4873 14.6866 11.1C14.5585 10.7128 14.3495 10.3591 14.074 10.0638L13.015 12.8154L10.495 8.47736L11.1829 7.04099L12.6139 9.66036C12.8501 9.33109 13.0132 8.95264 13.0916 8.55165C13.1701 8.15065 13.162 7.73686 13.068 7.33941C12.974 6.94197 12.7964 6.57052 12.5476 6.25122C12.2988 5.93193 11.9849 5.67254 11.628 5.49134C11.2711 5.31014 10.8799 5.21152 10.4819 5.20242C10.0839 5.19332 9.6888 5.27398 9.32442 5.43869C8.96004 5.60341 8.63523 5.8482 8.37286 6.15581C8.11049 6.46342 7.91694 6.82639 7.80584 7.21915L10.6549 6.78577L8.25344 11.2653L8.25314 11.265Z" fill="url(#paint0_linear_5380_44128)"/>
</g>
<defs>
<linearGradient id="paint0_linear_5380_44128" x1="15.0319" y1="5.78648" x2="2.57549" y2="15.0844" gradientUnits="userSpaceOnUse">
<stop stop-color="#03D1CF" stop-opacity="0.988"/>
<stop offset="1" stop-color="#4E09F8"/>
</linearGradient>
<clipPath id="clip0_5380_44128">
<rect width="20" height="20" fill="white"/>
</clipPath>
</defs>
</svg>
