<svg xmlns="http://www.w3.org/2000/svg" width="38" height="34" fill="none"><path fill="url(#a)" d="M35.999 27.088 18.027.91-.001 27.088h25.118l-7.088-9.99-3.517 5.19h-3.74l7.26-10.437 10.493 15.237h7.474Z"/><path fill="#3E4062" d="M38.001 24c0-5.523-4.477-10-10-10s-10 4.477-10 10 4.477 10 10 10 10-4.477 10-10Z"/><path fill="#1E1F37" d="M28.001 15.25a8.75 8.75 0 1 0 0 17.502 8.75 8.75 0 0 0 0-17.502Zm0-1.25a10 10 0 1 1 0 20 10 10 0 0 1 0-20Z"/><path fill="#213147" d="M22.386 21.313v5.374a.96.96 0 0 0 .48.831l4.654 2.687a.963.963 0 0 0 .96 0l4.654-2.687a.96.96 0 0 0 .48-.83v-5.375a.96.96 0 0 0-.48-.83l-4.654-2.688a.962.962 0 0 0-.96 0l-4.655 2.687a.958.958 0 0 0-.479.831Z"/><path fill="#12AAFF" d="m29.015 25.042-.664 1.82a.235.235 0 0 0 0 .156l1.142 3.132 1.321-.763-1.585-4.345a.114.114 0 0 0-.214 0ZM30.346 21.982a.114.114 0 0 0-.214 0l-.664 1.82a.236.236 0 0 0 0 .156l1.871 5.127 1.321-.763-2.314-6.34Z"/><path fill="#9DCCED" d="M27.999 17.995a.2.2 0 0 1 .094.025l5.036 2.908a.19.19 0 0 1 .094.163v5.815a.187.187 0 0 1-.094.163l-5.036 2.908a.185.185 0 0 1-.094.025.2.2 0 0 1-.094-.025l-5.036-2.906a.19.19 0 0 1-.094-.163v-5.816a.187.187 0 0 1 .094-.163l5.036-2.908a.19.19 0 0 1 .094-.026Zm0-.849c-.183 0-.362.048-.52.139l-5.035 2.907a1.04 1.04 0 0 0-.52.9v5.815a1.039 1.039 0 0 0 .52.9l5.036 2.908a1.044 1.044 0 0 0 1.04 0l5.036-2.908a1.04 1.04 0 0 0 .52-.9v-5.815a1.04 1.04 0 0 0-.52-.9l-5.037-2.907a1.035 1.035 0 0 0-.52-.139Z"/><path fill="#213147" d="m24.669 29.092.463-1.269.932.775-.872.8-.523-.306Z"/><path fill="#fff" d="M27.575 20.676h-1.277a.227.227 0 0 0-.214.15l-2.737 7.5 1.32.763 3.015-8.262a.113.113 0 0 0-.107-.151ZM29.809 20.676h-1.277a.227.227 0 0 0-.214.15l-3.125 8.567 1.32.763 3.4-9.327a.115.115 0 0 0-.012-.104.114.114 0 0 0-.092-.049Z"/><defs><linearGradient id="a" x1="17.999" x2="7.491" y1=".911" y2="29.812" gradientUnits="userSpaceOnUse"><stop stop-color="#03D1CF" stop-opacity=".988"/><stop offset="1" stop-color="#4E09F8"/></linearGradient></defs></svg>