<svg xmlns="http://www.w3.org/2000/svg" fill="none" viewBox="0 0 28 28"><path fill="#fff" fill-rule="evenodd" d="M6.77 5.215a9.079 9.079 0 0 1 17.166 5.388 9.078 9.078 0 0 1 .165 15.025 9.082 9.082 0 0 1-10.974-.463A9.079 9.079 0 1 1 5.92 8.523a9.054 9.054 0 0 1 .85-3.308ZM9.924 16.5l-3.615.086L9.79 10.72a6.355 6.355 0 1 0 .808 12.488l-4.175-5.265 11.718-.04 1.775 2.894-6.82-.082a6.355 6.355 0 1 0 10.411-6.943l-2.473 6.248-5.88-9.852 1.605-3.261 3.34 5.948A6.355 6.355 0 1 0 8.88 7.31l6.647-.983L9.924 16.5Z" clip-rule="evenodd"/></svg>
