<svg height="64" viewBox="0 0 64 64" width="64" xmlns="http://www.w3.org/2000/svg"><path d="m0 0h64v64h-64z" fill="none"/><path d="m58.887-33.352h-24.421l16.263 16.263a1.661 1.661 0 0 0 2.29.077 24.747 24.747 0 0 0 7.527-14.5 1.649 1.649 0 0 0 -1.659-1.84zm-1.621-6.665a24.774 24.774 0 0 0 -22.98-22.983 1.657 1.657 0 0 0 -1.724 1.673v23.031h23.031a1.657 1.657 0 0 0 1.672-1.721zm-29.645 6.665v-24.42a1.649 1.649 0 0 0 -1.84-1.66 24.694 24.694 0 0 0 -21.2 25.3 25.014 25.014 0 0 0 25 23.841 24.525 24.525 0 0 0 13.919-4.534 1.632 1.632 0 0 0 .167-2.483z" fill="#fff" opacity=".7" transform="translate(-.562 68.647)"/></svg>