<svg height="39.947" viewBox="0 0 132.457 39.947" width="132.457" xmlns="http://www.w3.org/2000/svg" xmlns:xlink="http://www.w3.org/1999/xlink"><linearGradient id="a" gradientUnits="objectBoundingBox" x1=".536" x2=".011" y1=".026" y2="1"><stop offset="0" stop-color="#03d1cf" stop-opacity=".988"/><stop offset="1" stop-color="#4e09f8"/></linearGradient><path d="m580.6 735.947-27.422-39.947-27.511 39.947h38.328l-10.817-15.247-5.366 7.921h-5.707l11.073-15.927 16.013 23.253z" fill="url(#a)" transform="translate(-525.667 -696)"/><path d="m13.056-12.1c-.238 0-.34.1-.34.34v2.04c0 .238.1.34.34.34h6.766v3.57c-1.322 2.172-3.706 3.43-6.868 3.43-5.066 0-8.194-3.264-8.194-9.52 0-6.222 3.672-9.52 7.854-9.52 3.264 0 5.916 1.292 6.766 4.42a.4.4 0 0 0 .408.34h2.176c.238 0 .374-.1.374-.34-.918-4.76-5-7.14-9.724-7.14-5.3 0-10.846 4.08-10.846 12.24 0 8.058 5.232 12.24 11.322 12.24a10.579 10.579 0 0 0 9.248-4.9 2.22 2.22 0 0 0 .34-1.292v-5.916c0-.238-.1-.34-.34-.34zm35.292-11.36c0-.238-.1-.34-.34-.34h-3.23a.524.524 0 0 0 -.544.34l-6.6 15.13-6.6-15.13a.524.524 0 0 0 -.544-.34h-3.23c-.238 0-.34.1-.34.34v23.12c0 .238.1.34.34.34h2.176c.238 0 .34-.1.34-.34v-19.006l6.672 15.062a.468.468 0 0 0 .442.306h1.5a.468.468 0 0 0 .442-.306l6.664-15.062v19.006c0 .238.1.34.34.34h2.176c.238 0 .34-.1.34-.34zm7.412 0c-.238-.306-.238-.34-.476-.34h-2.618c-.238 0-.34.17-.238.34l7.208 10.914-8.092 12.206c-.1.17 0 .34.238.34h2.55c.238 0 .306-.034.544-.34l6.46-9.724 6.464 9.724c.238.306.306.34.544.34h2.55c.238 0 .34-.17.238-.34l-8.096-12.206 7.208-10.914c.1-.17 0-.34-.238-.34h-2.618c-.238 0-.238.034-.476.34l-5.576 8.4z" fill="#fff" transform="translate(61.29 32.607)"/></svg>