<svg height="70.618" viewBox="0 0 74.214 70.618" width="74.214" xmlns="http://www.w3.org/2000/svg" xmlns:xlink="http://www.w3.org/1999/xlink"><linearGradient id="a" gradientUnits="objectBoundingBox" x1=".5" x2=".5" y2="1"><stop offset="0" stop-color="#03d1cf" stop-opacity=".988"/><stop offset="1" stop-color="#4e09f8"/></linearGradient><filter id="b" filterUnits="userSpaceOnUse" height="58.796" width="58.796" x="0" y="1.382"><feOffset dy="4"/><feGaussianBlur result="blur" stdDeviation="3"/><feFlood flood-opacity=".612"/><feComposite in2="blur" operator="in"/><feComposite in="SourceGraphic"/></filter><filter id="c" filterUnits="userSpaceOnUse" height="58.796" width="58.796" x="0" y="1.382"><feOffset dy="2"/><feGaussianBlur result="blur-2"/><feFlood flood-color="#fff" flood-opacity=".18" result="color"/><feComposite in="SourceGraphic" in2="blur-2" operator="out"/><feComposite in="color" operator="in"/><feComposite in2="SourceGraphic" operator="in"/></filter><filter id="d" filterUnits="userSpaceOnUse" height="48.838" width="48.838" x="25.376" y="21.78"><feOffset dy="4"/><feGaussianBlur result="blur-3" stdDeviation="3"/><feFlood flood-opacity=".612"/><feComposite in2="blur-3" operator="in"/><feComposite in="SourceGraphic"/></filter><filter id="e" filterUnits="userSpaceOnUse" height="48.838" width="48.838" x="25.376" y="21.78"><feOffset dy="2"/><feGaussianBlur result="blur-4"/><feFlood flood-color="#fff" flood-opacity=".18" result="color-2"/><feComposite in="SourceGraphic" in2="blur-4" operator="out"/><feComposite in="color-2" operator="in"/><feComposite in2="SourceGraphic" operator="in"/></filter><path d="m5.289 0h64v64h-64z" fill="none"/><g filter="url(#b)" transform="translate(0 .002)"><path d="m13.719 40.8a.967.967 0 0 1 -.969-.96v-6.693h-7.65a5.106 5.106 0 0 1 -5.1-5.1v-22.947a5.105 5.105 0 0 1 5.1-5.1h30.6a5.1 5.1 0 0 1 5.1 5.1v13.655h-12.8a4.271 4.271 0 0 0 -4.266 4.265v10.492l-9.462 7.1a.934.934 0 0 1 -.553.188z" fill="url(#a)" opacity=".7" transform="translate(9 6.38)"/></g><g filter="url(#c)" transform="translate(0 .002)"><path d="m13.719 40.8a.967.967 0 0 1 -.969-.96v-6.693h-7.65a5.106 5.106 0 0 1 -5.1-5.1v-22.947a5.105 5.105 0 0 1 5.1-5.1h30.6a5.1 5.1 0 0 1 5.1 5.1v13.655h-12.8a4.271 4.271 0 0 0 -4.266 4.265v10.492l-9.462 7.1a.934.934 0 0 1 -.553.188z" fill="#fff" opacity=".7" transform="translate(9 6.38)"/></g><g filter="url(#d)" transform="translate(0 .002)"><path d="m30.838 26.984a3.862 3.862 0 0 1 -3.855 3.854h-23.128a3.862 3.862 0 0 1 -3.855-3.854v-17.347a3.862 3.862 0 0 1 3.855-3.855h5.782v-5.057a.729.729 0 0 1 1.152-.587l7.521 5.644h8.673a3.862 3.862 0 0 1 3.855 3.854z" fill="url(#a)" opacity=".7" transform="matrix(-1 0 0 -1 65.21 57.62)"/></g><g filter="url(#e)" transform="translate(0 .002)"><path d="m30.838 26.984a3.862 3.862 0 0 1 -3.855 3.854h-23.128a3.862 3.862 0 0 1 -3.855-3.854v-17.347a3.862 3.862 0 0 1 3.855-3.855h5.782v-5.057a.729.729 0 0 1 1.152-.587l7.521 5.644h8.673a3.862 3.862 0 0 1 3.855 3.854z" fill="#fff" opacity=".7" transform="matrix(-1 0 0 -1 65.21 57.62)"/></g></svg>