<svg height="40" width="40" xmlns="http://www.w3.org/2000/svg"><linearGradient id="a" gradientUnits="objectBoundingBox" x1=".5" x2="0" y2="1"><stop offset="0" stop-color="#03d1cf" stop-opacity=".988"/><stop offset="1" stop-color="#4e09f8"/></linearGradient><path d="M0 0h40v40H0z" fill="none"/><path d="M565.51 724.971 545.619 696l-19.952 28.971h27.8l-7.845-11.057-3.892 5.745h-4.139l8.03-11.551 11.613 16.864z" fill="url(#a)" transform="translate(-525.666 -690.486)"/><rect fill="#e84142" height="16" rx="8" width="16" x="24" y="24"/><path d="M32 25a7 7 0 1 0 7 7 7 7 0 0 0-7-7m0-1a8 8 0 1 1-8 8 8 8 0 0 1 8-8z" fill="#1e1f37"/><path d="M34.058 32.02a.386.386 0 0 1 .73 0l1.256 2.209c.2.349.037.634-.368.634h-2.532c-.4 0-.565-.285-.367-.634zm-2.435-4.254a.382.382 0 0 1 .726 0l.28.5.662 1.162a1.207 1.207 0 0 1 0 1.052l-2.219 3.845a1.167 1.167 0 0 1-.91.533H28.32c-.4 0-.57-.28-.367-.634z" fill="#fff"/></svg>