<svg height="64" viewBox="0 0 64 64" width="64" xmlns="http://www.w3.org/2000/svg"><path d="m32-58.437a32 32 0 0 0 -32 32 32 32 0 0 0 32 32 32 32 0 0 0 32-32 32 32 0 0 0 -32-32z" fill="#fff" transform="translate(0 58.437)"/><g transform="translate(13 51)"><path d="m25-31.25v-12.5h-20.312a4.688 4.688 0 0 0 -4.688 4.688v40.625a4.688 4.688 0 0 0 4.688 4.687h28.125a4.688 4.688 0 0 0 4.687-4.687v-32.813zm-12.5 30a1.339 1.339 0 0 1 -1.245 1.25h-3.755a1.339 1.339 0 0 1 -1.25-1.245v-6.885a1.339 1.339 0 0 1 1.25-1.245h3.76a1.339 1.339 0 0 1 1.24 1.245zm9.375 0a1.339 1.339 0 0 1 -1.245 1.25h-3.76a1.339 1.339 0 0 1 -1.245-1.245v-19.385a1.339 1.339 0 0 1 1.245-1.245h3.76a1.339 1.339 0 0 1 1.245 1.245zm9.375 0a1.339 1.339 0 0 1 -1.25 1.25h-3.76a1.339 1.339 0 0 1 -1.24-1.245v-13.135a1.339 1.339 0 0 1 1.245-1.245h3.755a1.339 1.339 0 0 1 1.25 1.245z" fill="#303fd0"/><path d="m30-15.625h-3.76a1.339 1.339 0 0 0 -1.24 1.245v13.135a1.339 1.339 0 0 0 1.245 1.245h3.755a1.339 1.339 0 0 0 1.25-1.245v-13.135a1.339 1.339 0 0 0 -1.25-1.245zm-18.75 6.25h-3.75a1.339 1.339 0 0 0 -1.25 1.245v6.885a1.339 1.339 0 0 0 1.25 1.245h3.76a1.339 1.339 0 0 0 1.24-1.245v-6.885a1.339 1.339 0 0 0 -1.245-1.245zm9.375-12.5h-3.755a1.339 1.339 0 0 0 -1.245 1.245v19.385a1.339 1.339 0 0 0 1.245 1.245h3.76a1.339 1.339 0 0 0 1.245-1.245v-19.385a1.339 1.339 0 0 0 -1.245-1.245zm4.375-21.875v12.5h12.5z" fill="#50d0fe"/></g></svg>