<svg width="263" height="274" viewBox="0 0 263 274" fill="none" xmlns="http://www.w3.org/2000/svg">
    <rect x="9.70081" y="20.2116" width="252.904" height="252.904" rx="58.0455" fill="#13B569" />
    <rect x="117.51" y="153.823" width="53.7014" height="26.295" fill="white" />
    <rect x="143.805" y="88.7372" width="89.7196" height="26.295" transform="rotate(90 143.805 88.7372)" fill="white" />
    <rect x="163.792" y="190.342" width="46.8581" height="24.7528" transform="rotate(90 163.792 190.342)"
        fill="white" />
    <path
        d="M163.6 213.477C175.95 213.444 187.781 208.507 196.491 199.752C205.201 190.997 210.076 179.14 210.043 166.79C210.011 154.44 205.074 142.609 196.319 133.899C187.563 125.189 175.707 120.314 163.357 120.346L163.417 143.509C169.624 143.493 175.583 145.943 179.983 150.32C184.384 154.697 186.865 160.644 186.881 166.85C186.897 173.057 184.447 179.016 180.07 183.416C175.692 187.817 169.746 190.298 163.539 190.314L163.6 213.477Z"
        fill="white" />
    <path
        d="M97.3038 214.827C106.908 218.102 116.765 216.334 126.681 216.91V190.56C122.847 190.56 119.298 190.697 115.763 190.533C107.608 190.154 103.226 185.951 102.36 177.815C102.191 176.226 102.189 174.614 102.187 173.013V173.013C102.173 161.679 102.175 150.345 102.187 139.011C102.189 137.907 102.289 136.803 102.367 135.224V109.192C76.8432 109.458 98.7207 108.765 76.5867 109.192V135.359H75.9222C75.9222 137.137 75.9195 138.476 75.9231 139.816C75.9653 155.499 75.7728 171.186 76.1257 186.862C76.418 199.873 84.9481 210.615 97.3038 214.827Z"
        fill="white" />
    <rect x="75.926" y="83.0105" width="26.2672" height="85.4216" fill="white" />
    <mask id="path-8-outside-1_2_7" maskUnits="userSpaceOnUse" x="29.8706" y="66.8845" width="118" height="81"
        fill="black">
        <rect fill="white" x="29.8706" y="66.8845" width="118" height="81" />
        <path
            d="M142.72 71.8091C142.72 84.2589 139.443 96.4895 133.218 107.271C126.993 118.053 118.039 127.007 107.258 133.232C96.4756 139.457 84.2451 142.734 71.7952 142.734C59.3453 142.734 47.1148 139.457 36.3329 133.232L49.4456 110.52C56.2407 114.443 63.9488 116.508 71.7952 116.508C79.6416 116.508 87.3497 114.443 94.1448 110.52C100.94 106.597 106.583 100.954 110.506 94.1587C114.429 87.3636 116.494 79.6554 116.494 71.8091H142.72Z" />
    </mask>
    <path
        d="M142.72 71.8091C142.72 84.2589 139.443 96.4895 133.218 107.271C126.993 118.053 118.039 127.007 107.258 133.232C96.4756 139.457 84.2451 142.734 71.7952 142.734C59.3453 142.734 47.1148 139.457 36.3329 133.232L49.4456 110.52C56.2407 114.443 63.9488 116.508 71.7952 116.508C79.6416 116.508 87.3497 114.443 94.1448 110.52C100.94 106.597 106.583 100.954 110.506 94.1587C114.429 87.3636 116.494 79.6554 116.494 71.8091H142.72Z"
        fill="white" />
    <path
        d="M142.72 71.8091C142.72 84.2589 139.443 96.4895 133.218 107.271C126.993 118.053 118.039 127.007 107.258 133.232C96.4756 139.457 84.2451 142.734 71.7952 142.734C59.3453 142.734 47.1148 139.457 36.3329 133.232L49.4456 110.52C56.2407 114.443 63.9488 116.508 71.7952 116.508C79.6416 116.508 87.3497 114.443 94.1448 110.52C100.94 106.597 106.583 100.954 110.506 94.1587C114.429 87.3636 116.494 79.6554 116.494 71.8091H142.72Z"
        stroke="#13B569" stroke-width="9.2815" mask="url(#path-8-outside-1_2_7)" />
    <path d="M129.549 44.1635L157.767 77.5937H101.332L129.549 44.1635Z" fill="white" />
</svg>