<svg height="30" width="30.001" xmlns="http://www.w3.org/2000/svg" xmlns:xlink="http://www.w3.org/1999/xlink"><linearGradient id="a" gradientUnits="objectBoundingBox" x1=".536" x2=".011" y1=".026" y2="1"><stop offset="0" stop-color="#03d1cf"/><stop offset="1" stop-color="#4e09f8"/></linearGradient><path d="m0 0h30v30h-30z" fill="none"/><path d="m554.956 716.042-13.62-20.042-13.67 20.042h19.034l-5.368-7.649-2.722 4h-2.81l5.533-8.013 8.026 11.666z" fill="url(#a)" transform="translate(-526.31 -691.059)"/><g fill="#e84142" stroke="#1e1f37"><rect height="16" rx="8" stroke="none" width="16" x="14.001" y="13.875"/><rect fill="none" height="15" rx="7.5" width="15" x="14.501" y="14.375"/></g><path d="m24.059 21.895a.386.386 0 0 1 .73 0l1.256 2.209c.2.349.037.634-.368.634h-2.532c-.4 0-.565-.285-.367-.634zm-2.435-4.254a.382.382 0 0 1 .726 0l.28.505.662 1.162a1.207 1.207 0 0 1 0 1.052l-2.219 3.845a1.167 1.167 0 0 1 -.91.533h-1.842c-.4 0-.57-.28-.367-.634z" fill="#fff"/></svg>