<svg width="16" height="16" viewBox="0 0 16 16" fill="none" xmlns="http://www.w3.org/2000/svg">
<g clip-path="url(#clip0_1226_20843)">
<path fill-rule="evenodd" clip-rule="evenodd" d="M7.9997 0.198013C3.58232 0.198013 0 3.77974 0 8.19769C0 11.7325 2.29195 14.7301 5.47065 15.7884C5.87075 15.8625 6.0178 15.6145 6.0178 15.4031C6.0178 15.2123 6.00983 14.5822 6.00658 13.9143C3.78078 14.3983 3.31157 12.97 3.31157 12.97C2.94777 12.0452 2.42335 11.7992 2.42335 11.7992C1.69755 11.3022 2.47857 11.3132 2.47857 11.3132C3.28172 11.3693 3.70458 12.137 3.70458 12.137C4.41857 13.3601 5.57665 13.006 6.03285 12.802C6.1049 12.2849 6.3116 11.9318 6.54073 11.7319C4.76372 11.5302 2.8958 10.844 2.8958 7.77839C2.8958 6.90524 3.2088 6.19126 3.71992 5.63139C3.63667 5.42944 3.36265 4.61624 3.797 3.51454C3.797 3.51454 4.46875 3.29929 5.99773 4.33454C6.63553 4.15766 7.31967 4.06849 7.99913 4.06554C8.67912 4.06849 9.36448 4.15736 10.0032 4.33454C11.5301 3.29989 12.2012 3.51454 12.2012 3.51454C12.6362 4.61654 12.3633 5.43031 12.2801 5.63141C12.793 6.19126 13.1033 6.90524 13.1033 7.77839C13.1033 10.8511 11.2312 11.5266 9.4504 11.7248C9.73742 11.9728 9.99372 12.4597 9.99372 13.2056C9.99372 14.2754 9.98458 15.1376 9.98458 15.4007C9.98458 15.6136 10.1287 15.8625 10.5344 15.7846C13.7113 14.7257 16.0003 11.7277 16.0003 8.19501C16.0003 3.77764 12.4186 0.195312 8.0003 0.195312L7.99973 0.197988L7.9997 0.198013Z" fill="currentColor"/>
</g>
<defs>
<clipPath id="clip0_1226_20843">
<rect width="16" height="16" fill="white"/>
</clipPath>
</defs>
</svg>
