<svg width="24" height="24" viewBox="0 0 24 24" fill="none" xmlns="http://www.w3.org/2000/svg">
<path fill-rule="evenodd" clip-rule="evenodd" d="M5.80257 4.47015C7.63243 0.581543 12.2682 -1.08741 16.1568 0.742441C19.3913 2.26452 21.0902 5.728 20.517 9.08803C21.3149 9.61637 22.0281 10.3018 22.6076 11.1356C25.0603 14.6646 24.1878 19.5137 20.6588 21.9664C17.7235 24.0065 13.875 23.7461 11.2517 21.5701C10.3952 21.9969 9.44494 22.2719 8.43313 22.3569C4.15056 22.7164 0.387335 19.5363 0.0277275 15.2537C-0.27138 11.6916 1.87844 8.48886 5.07461 7.30509C5.13315 6.34965 5.37018 5.38905 5.80257 4.47015ZM8.5063 14.1424L5.40735 14.2166L8.39162 9.18866C8.04413 9.14992 7.68782 9.14426 7.32621 9.1746C4.32842 9.42634 2.10228 12.0606 2.35401 15.0584C2.60573 18.0561 5.23999 20.2823 8.23779 20.0306C8.52754 20.0062 8.81006 19.9597 9.08383 19.8927L5.50503 15.3797L15.5498 15.3454L17.0708 17.8261L11.2244 17.7556C11.3645 18.0759 11.5377 18.3873 11.7448 18.6853C13.4618 21.1557 16.8561 21.7664 19.3265 20.0495C21.7968 18.3326 22.4075 14.9382 20.6907 12.4679C20.5247 12.2291 20.3431 12.0077 20.1482 11.8041L18.0292 17.16L12.9893 8.71534L14.3652 5.91993L17.2273 11.0183C17.4346 10.7367 17.6177 10.431 17.7722 10.1027C19.0531 7.38064 17.8848 4.13563 15.1628 2.85473C12.4407 1.57383 9.19577 2.7421 7.91487 5.46413C7.79106 5.72722 7.69014 5.99521 7.61129 6.26583L13.309 5.42294L8.5063 14.1424Z" fill="url(#paint0_linear_6_3)"/>
<defs>
<linearGradient id="paint0_linear_6_3" x1="22.0639" y1="3.47758" x2="-2.36259" y2="22.2107" gradientUnits="userSpaceOnUse">
<stop stop-color="#03D1CF" stop-opacity="0.988"/>
<stop offset="1" stop-color="#4E09F8"/>
</linearGradient>
</defs>
</svg>
