<svg width="38" height="34" fill="none" xmlns="http://www.w3.org/2000/svg"><path d="M36 26.177 18.027 0 0 26.177h25.118l-7.088-9.99-3.517 5.191h-3.74l7.26-10.438 10.493 15.237H36Z" fill="url(#a)"/><path d="M37.999 23.09c0-5.524-4.477-10-10-10s-10 4.476-10 10c0 5.522 4.477 10 10 10s10-4.478 10-10Z" fill="#E84142"/><path d="M27.999 14.34a8.75 8.75 0 1 0 0 17.498 8.75 8.75 0 0 0 0-17.499m0-1.25a10 10 0 1 1 0 20 10 10 0 0 1 0-20Z" fill="#1E1F37"/><path d="M30.572 23.114a.483.483 0 0 1 .912 0l1.57 2.761c.25.436.046.793-.46.793h-3.165c-.5 0-.706-.356-.459-.793l1.602-2.76Zm-3.044-5.317a.477.477 0 0 1 .907 0l.35.631.827 1.452a1.51 1.51 0 0 1 0 1.315l-2.774 4.806a1.459 1.459 0 0 1-1.137.666h-2.3c-.5 0-.713-.35-.459-.793l4.586-8.077Z" fill="#fff"/><defs><linearGradient id="a" x1="18" y1="0" x2="7.492" y2="28.901" gradientUnits="userSpaceOnUse"><stop stop-color="#03D1CF" stop-opacity=".988"/><stop offset="1" stop-color="#4E09F8"/></linearGradient></defs></svg>
