<svg xmlns="http://www.w3.org/2000/svg" xmlns:xlink="http://www.w3.org/1999/xlink" width="132.457" height="39.947" viewBox="0 0 132.457 39.947">
  <defs>
    <linearGradient id="linear-gradient" x1="0.536" y1="0.026" x2="0.011" y2="1" gradientUnits="objectBoundingBox">
      <stop offset="0" stop-color="#03d1cf" stop-opacity="0.988"/>
      <stop offset="1" stop-color="#4e09f8"/>
    </linearGradient>
  </defs>
  <g id="ic_gmx" transform="translate(-488.855 -147.393)">
    <path id="Path_89" data-name="Path 89" d="M580.6,735.947,553.178,696l-27.511,39.947h38.328L553.178,720.7l-5.366,7.921h-5.707l11.073-15.927,16.013,23.253Z" transform="translate(-36.812 -548.607)" fill="url(#linear-gradient)"/>
    <path id="Path_1440" data-name="Path 1440" d="M13.056-12.1c-.238,0-.34.1-.34.34v2.04c0,.238.1.34.34.34h6.766v3.57C18.5-3.638,16.116-2.38,12.954-2.38,7.888-2.38,4.76-5.644,4.76-11.9c0-6.222,3.672-9.52,7.854-9.52,3.264,0,5.916,1.292,6.766,4.42a.4.4,0,0,0,.408.34h2.176c.238,0,.374-.1.374-.34-.918-4.76-5-7.14-9.724-7.14-5.3,0-10.846,4.08-10.846,12.24C1.768-3.842,7,.34,13.09.34a10.579,10.579,0,0,0,9.248-4.9,2.22,2.22,0,0,0,.34-1.292v-5.916c0-.238-.1-.34-.34-.34ZM48.348-23.46c0-.238-.1-.34-.34-.34h-3.23a.524.524,0,0,0-.544.34l-6.6,15.13-6.6-15.13a.524.524,0,0,0-.544-.34h-3.23c-.238,0-.34.1-.34.34V-.34c0,.238.1.34.34.34h2.176c.238,0,.34-.1.34-.34V-19.346L36.448-4.284a.468.468,0,0,0,.442.306h1.5a.468.468,0,0,0,.442-.306l6.664-15.062V-.34c0,.238.1.34.34.34h2.176c.238,0,.34-.1.34-.34Zm7.412,0c-.238-.306-.238-.34-.476-.34H52.666c-.238,0-.34.17-.238.34l7.208,10.914L51.544-.34c-.1.17,0,.34.238.34h2.55c.238,0,.306-.034.544-.34l6.46-9.724L67.8-.34c.238.306.306.34.544.34h2.55c.238,0,.34-.17.238-.34L63.036-12.546,70.244-23.46c.1-.17,0-.34-.238-.34H67.388c-.238,0-.238.034-.476.34l-5.576,8.4Z" transform="translate(550.145 180)" fill="#fff"/>
  </g>
</svg>
