<svg width="35" height="35" fill="none" xmlns="http://www.w3.org/2000/svg"><path d="M.00002 15a15.00003 15.00003 0 0 0 1.65155 6.8403 14.99968 14.99968 0 0 0 4.58922 5.3344 14.99972 14.99972 0 0 0 6.51691 2.6546c2.3521.3556 4.755.1467 7.0104-.6094a15.00078 15.00078 0 0 0 5.9611-3.7394 14.99966 14.99966 0 0 0 3.5998-6.0464c.7035-2.2723.8565-4.6795.4464-7.0226A15.00042 15.00042 0 0 0 26.97 5.95801l-.691.477-3.018 2.083.008.011L16.125 13.5v6l9.247-6.147c.2389 1.5155.1427 3.065-.2818 4.5394a10.49898 10.49898 0 0 1-2.1749 3.9943 10.50018 10.50018 0 0 1-3.66 2.7 10.50067 10.50067 0 0 1-4.4584.8989 10.50116 10.50116 0 0 1-4.4203-1.0707 10.5006 10.5006 0 0 1-3.55279-2.8395 10.50015 10.50015 0 0 1-2.12479-8.6224L13.875 19.5v-6L6.83602 8.40001l.016-.02-2.968-2.123-.7-.5A14.93894 14.93894 0 0 0 .00002 15ZM15 .00001c-3.8209-.00518-7.49871 1.453-10.27798 4.075l3.766 2.689a10.50007 10.50007 0 0 1 6.61068-2.26335 10.49972 10.49972 0 0 1 6.5673 2.38635l3.806-2.627C22.6732 1.52449 18.9136-.00491 15 .00001Z" fill="url(#a)"/><path d="M35 25c0-5.5228-4.4772-10-10-10s-10 4.4772-10 10 4.4772 10 10 10 10-4.4772 10-10Z" fill="#E84142"/><path d="M25 16.25c-1.7306 0-3.4223.5132-4.8612 1.4746a8.7505 8.7505 0 0 0-3.2228 3.9269 8.75071 8.75071 0 0 0-.4979 5.0555 8.7498 8.7498 0 0 0 2.3947 4.4802 8.7498 8.7498 0 0 0 4.4802 2.3947 8.75071 8.75071 0 0 0 5.0555-.4979 8.7505 8.7505 0 0 0 3.9269-3.2228A8.75022 8.75022 0 0 0 33.75 25c0-2.3206-.9219-4.5463-2.5628-6.1872C29.5463 17.1719 27.3206 16.25 25 16.25ZM25 15a9.99993 9.99993 0 0 1 9.2388 6.1732c.7569 1.8272.9549 3.8379.5691 5.7777a10.0006 10.0006 0 0 1-2.7368 5.1202 10.0006 10.0006 0 0 1-5.1202 2.7368 10.00008 10.00008 0 0 1-5.7777-.5691A9.99993 9.99993 0 0 1 15 25c0-2.6522 1.0536-5.1957 2.9289-7.0711C19.8043 16.0536 22.3478 15 25 15Z" fill="#1E1F37"/><path d="M27.573 25.025a.4827.4827 0 0 1 .1758-.236.48189.48189 0 0 1 .2802-.0898c.1005 0 .1985.0314.2802.0898a.4827.4827 0 0 1 .1758.236l1.57 2.761c.25.436.046.793-.46.793H26.43c-.5 0-.706-.356-.459-.793l1.602-2.761Zm-3.044-5.317a.47765.47765 0 0 1 .1733-.2382.47735.47735 0 0 1 .5604 0 .47765.47765 0 0 1 .1733.2382l.35.631.827 1.452c.0992.205.1508.4298.1508.6575 0 .2278-.0516.4525-.1508.6575l-2.774 4.806c-.124.1924-.2915.353-.489.4687a1.45846 1.45846 0 0 1-.648.1973h-2.3c-.5 0-.713-.35-.459-.793l4.586-8.077Z" fill="#fff"/><defs><linearGradient id="a" x1="0" y1="14.9989" x2="28.68" y2="14.9989" gradientUnits="userSpaceOnUse"><stop stop-color="#410CF0"/><stop offset="1" stop-color="#28CDD9"/></linearGradient></defs></svg>