<svg xmlns="http://www.w3.org/2000/svg" width="40" height="40"><defs><linearGradient id="a" x2=".956" y1=".5" y2=".5" gradientUnits="objectBoundingBox"><stop offset="0" stop-color="#410cf0"/><stop offset="1" stop-color="#28cdd9"/></linearGradient></defs><path fill="none" d="M0 0h40v40H0z" data-name="Rectangle 549" opacity=".684"/><path fill="url(#a)" d="M0 15a15 15 0 1 0 26.97-9.042l-.691.477-3.018 2.083.008.011-7.144 4.971v6l9.247-6.147a10.5 10.5 0 1 1-20.673-.4l9.176 6.547v-6L6.836 8.4l.016-.02-2.968-2.123-.7-.5A14.939 14.939 0 0 0 0 15M15 0A14.948 14.948 0 0 0 4.722 4.075l3.766 2.689a10.5 10.5 0 0 1 13.178.123l3.806-2.627A14.955 14.955 0 0 0 15 0Z" data-name="Path 4601" transform="translate(5 5)"/><g transform="translate(-381 -256)"><rect width="20" height="20" fill="#e84142" rx="10" transform="translate(401 276)"/><path fill="#1e1f37" d="M411 277.25a8.75 8.75 0 1 0 8.75 8.75 8.75 8.75 0 0 0-8.75-8.75m0-1.25a10 10 0 1 1-10 10 10 10 0 0 1 10-10Z" data-name="base - Outline"/><path fill="#fff" d="M413.573 286.025a.482.482 0 0 1 .912 0l1.57 2.761c.25.436.046.793-.46.793h-3.165c-.5 0-.706-.356-.459-.793Zm-3.044-5.317a.477.477 0 0 1 .907 0l.35.631.827 1.452a1.509 1.509 0 0 1 0 1.315l-2.774 4.806a1.459 1.459 0 0 1-1.137.666h-2.3c-.5 0-.713-.35-.459-.793Z" data-name="Path 1676"/></g></svg>