<svg xmlns="http://www.w3.org/2000/svg" fill="none" viewBox="0 0 105 24"><path fill="url(#a)" d="M32.87 23.952 16.46 0 0 23.952h22.934l-6.472-9.139-3.21 4.75H9.838l6.624-9.55 9.579 13.938 6.829.001Z"/><path fill="#fff" d="M50.399 12.47c-.22 0-.313.091-.313.313v1.883c0 .22.092.314.313.314h6.232v3.295c-1.218 2.005-3.414 3.166-6.326 3.166-4.666 0-7.547-3.012-7.547-8.787 0-5.744 3.382-8.788 7.234-8.788 3.006 0 5.449 1.193 6.232 4.08a.37.37 0 0 0 .375.314h2.005c.219 0 .344-.092.344-.314-.846-4.394-4.605-6.59-8.956-6.59-4.882 0-9.99 3.765-9.99 11.298 0 7.438 4.819 11.298 10.428 11.298a9.727 9.727 0 0 0 4.856-1.132 9.753 9.753 0 0 0 3.662-3.39c.224-.357.333-.773.313-1.194v-5.46c0-.22-.092-.314-.313-.314l-8.55.007ZM82.905 1.982c0-.22-.093-.314-.314-.314h-2.975a.482.482 0 0 0-.5.314l-6.08 13.966-6.079-13.966a.483.483 0 0 0-.5-.314H63.48c-.219 0-.313.092-.313.314v21.341c0 .22.092.314.313.314h2.005c.219 0 .313-.092.313-.314V5.78l6.145 13.904a.432.432 0 0 0 .407.282h1.382a.43.43 0 0 0 .407-.282L80.278 5.78v17.544c0 .22.092.314.313.314h2.004c.22 0 .313-.092.313-.314l-.003-21.341Zm6.826 0c-.219-.283-.219-.314-.438-.314h-2.411c-.22 0-.314.157-.22.314l6.64 10.074-7.454 11.268c-.092.156 0 .313.22.313h2.348c.22 0 .282-.031.501-.314l5.95-8.976 5.954 8.976c.219.283.282.314.501.314h2.349c.219 0 .313-.157.219-.314l-7.457-11.267 6.639-10.074c.092-.157 0-.314-.219-.314h-2.412c-.219 0-.219.031-.438.314l-5.136 7.754-5.136-7.754Z"/><defs><linearGradient id="a" x1="17.618" x2="7.373" y1=".623" y2="26.706" gradientUnits="userSpaceOnUse"><stop stop-color="#03D1CF" stop-opacity=".988"/><stop offset="1" stop-color="#4E09F8"/></linearGradient></defs></svg>
