<svg height="39.992" viewBox="0 0 39.992 39.992" width="39.992" xmlns="http://www.w3.org/2000/svg" xmlns:xlink="http://www.w3.org/1999/xlink"><linearGradient id="a" gradientUnits="objectBoundingBox" x1=".8" x2=".225" y1=".087" y2=".91"><stop offset="0" stop-color="#03d1cf" stop-opacity=".988"/><stop offset="1" stop-color="#4e09f8"/></linearGradient><path d="m21344.2 753.068-.312-.6h5.238l.129.182a15.41 15.41 0 0 0 28.1-9.9l-9.35-.016 2.73 7.722-3.344 4.594-5.994-17.011 19.732.038.086.3a17.623 17.623 0 0 1 .527 2.286 19.37 19.37 0 0 1 .279 3.343 20.02 20.02 0 0 1 -16.658 19.71 21.765 21.765 0 0 1 -3.393.279 19.888 19.888 0 0 1 -17.768-10.928zm3.363-3.193h-4.684l-.08-.3a18.123 18.123 0 0 1 -.494-2.254 20.006 20.006 0 0 1 37.525-12.45l.311.6h-5.27l-.129-.182a15.422 15.422 0 0 0 -28.107 9.9l9.391.016-2.73-7.722 3.359-4.594 5.977 17.011z" fill="url(#a)" transform="translate(-21342.027 -724.004)"/><rect fill="#3e4062" height="16" rx="8" width="16" x="23.973" y="23.992"/><path d="m8 1a7 7 0 1 0 7 7 7 7 0 0 0 -7-7m0-1a8 8 0 1 1 -8 8 8 8 0 0 1 8-8z" fill="#1e1f37" transform="translate(23.973 23.992)"/><path d="m23.973 23.992h16v16h-16z" fill="none"/><path d="m55.3 49.029.774-1.313 2.086 3.249v.624-4.289a.323.323 0 0 0 -.149-.257l-3.756-2.16a.331.331 0 0 0 -.287 0l-.034.019-.013.008-3.645 2.113-.014.006a.329.329 0 0 0 -.054.031.324.324 0 0 0 -.135.243l.006 3.5 1.943-3.012a1.425 1.425 0 0 1 1.272-.521l.581.015-3.422 5.487.4.232 3.463-5.714 1.531-.006-3.453 5.856 1.439.828.172.1a.33.33 0 0 0 .232 0l3.808-2.207-.728.422zm.3 4.253-1.455-2.282.887-1.506 1.91 3.006z" fill="#2d374b" transform="translate(-22.086 -17.477)"/><path d="m237.768 260.421 1.454 2.282 1.343-.778-1.909-3.009z" fill="#28a0f0" transform="translate(-205.709 -226.898)"/><path d="m293.995 180.841v-.624l-2.086-3.249-.774 1.313 2.014 3.257.728-.422a.323.323 0 0 0 .119-.235z" fill="#28a0f0" transform="translate(-257.916 -146.73)"/><path d="m20.219 161.156 1.028.592 3.422-5.487-.581-.015a1.425 1.425 0 0 0 -1.272.521l-1.943 3.012-.654 1z" fill="#fff" transform="translate(7.118 -126.457)"/><path d="m91.163 156.964-1.531.006-3.463 5.714 1.21.7.329-.558z" fill="#fff" transform="translate(-57.401 -127.16)"/><path d="m29.6 18.09a.975.975 0 0 0 -.458-.784l-3.8-2.188a.99.99 0 0 0 -.873 0c-.032.016-3.7 2.144-3.7 2.144a.974.974 0 0 0 -.551.826v4.532l.654-1-.006-3.5a.311.311 0 0 1 0-.038.322.322 0 0 1 .13-.2c.017-.012 3.748-2.172 3.76-2.178a.331.331 0 0 1 .287 0l3.756 2.16a.323.323 0 0 1 .149.257v4.331a.316.316 0 0 1 -.112.235l-.728.422-.376.218-1.343.778-1.362.789a.33.33 0 0 1 -.232 0l-1.611-.927-.329.558 1.448.834.126.071.1.057a.941.941 0 0 0 .384.079.968.968 0 0 0 .355-.067l3.964-2.299a.967.967 0 0 0 .373-.729v-4.381z" fill="#96bedc" transform="translate(7.119 11.706)"/></svg>