<svg height="64" viewBox="0 0 64 64" width="64" xmlns="http://www.w3.org/2000/svg" xmlns:xlink="http://www.w3.org/1999/xlink"><linearGradient id="a" gradientUnits="objectBoundingBox" x1=".5" x2=".5" y2="1"><stop offset="0" stop-color="#03d1cf" stop-opacity=".988"/><stop offset="1" stop-color="#4e09f8"/></linearGradient><filter id="b" filterUnits="userSpaceOnUse" height="51.477" width="58.393" x=".762" y="11.704"><feOffset dy="4"/><feGaussianBlur result="blur" stdDeviation="3"/><feFlood flood-opacity=".612"/><feComposite in2="blur" operator="in"/><feComposite in="SourceGraphic"/></filter><filter id="c" filterUnits="userSpaceOnUse" height="51.477" width="58.393" x=".762" y="11.704"><feOffset dy="2"/><feGaussianBlur result="blur-2"/><feFlood flood-color="#fff" flood-opacity=".18" result="color"/><feComposite in="SourceGraphic" in2="blur-2" operator="out"/><feComposite in="color" operator="in"/><feComposite in2="SourceGraphic" operator="in"/></filter><path d="m32-58.437a32 32 0 0 0 -32 32 32 32 0 0 0 32 32 32 32 0 0 0 32-32 32 32 0 0 0 -32-32z" fill="#fff" transform="translate(0 58.437)"/><g filter="url(#b)" transform="translate(-.002 -.005)"><path d="m52.827-35.7c-.56 5.881-2.982 20.154-4.215 26.742-.521 2.787-1.548 3.722-2.542 3.813-2.16.2-3.8-1.427-5.892-2.8-3.274-2.146-5.123-3.482-8.3-5.576-3.672-2.42-1.292-3.75.8-5.924.548-.569 10.065-9.225 10.249-10.011a.758.758 0 0 0 -.173-.657.86.86 0 0 0 -.77-.075q-.492.112-15.689 10.37a7.061 7.061 0 0 1 -4.034 1.49 26.535 26.535 0 0 1 -5.782-1.372c-2.329-.757-4.181-1.157-4.02-2.443q.126-1 2.767-2.055 16.265-7.086 21.691-9.344c10.33-4.3 12.476-5.043 13.875-5.068a2.448 2.448 0 0 1 1.441.433 1.568 1.568 0 0 1 .529 1.007 6.6 6.6 0 0 1 .079 1.017c.002.153-.004.296-.014.453z" fill="url(#a)" opacity=".7" transform="translate(-2.69 55.31)"/></g><g filter="url(#c)" transform="translate(-.002 -.005)"><path d="m52.827-35.7c-.56 5.881-2.982 20.154-4.215 26.742-.521 2.787-1.548 3.722-2.542 3.813-2.16.2-3.8-1.427-5.892-2.8-3.274-2.146-5.123-3.482-8.3-5.576-3.672-2.42-1.292-3.75.8-5.924.548-.569 10.065-9.225 10.249-10.011a.758.758 0 0 0 -.173-.657.86.86 0 0 0 -.77-.075q-.492.112-15.689 10.37a7.061 7.061 0 0 1 -4.034 1.49 26.535 26.535 0 0 1 -5.782-1.372c-2.329-.757-4.181-1.157-4.02-2.443q.126-1 2.767-2.055 16.265-7.086 21.691-9.344c10.33-4.3 12.476-5.043 13.875-5.068a2.448 2.448 0 0 1 1.441.433 1.568 1.568 0 0 1 .529 1.007 6.6 6.6 0 0 1 .079 1.017c.002.153-.004.296-.014.453z" fill="#fff" opacity=".7" transform="translate(-2.69 55.31)"/></g></svg>