<svg id="ic_glp_40" xmlns="http://www.w3.org/2000/svg" xmlns:xlink="http://www.w3.org/1999/xlink" width="32" height="32" viewBox="0 0 39.998 39.998">
  <defs>
    <linearGradient id="linear-gradient" x1="0.8" y1="0.087" x2="0.225" y2="0.91" gradientUnits="objectBoundingBox">
      <stop offset="0" stop-color="#03d1cf" stop-opacity="0.988"/>
      <stop offset="1" stop-color="#4e09f8"/>
    </linearGradient>
  </defs>
  <path id="Union_13" data-name="Union 13" d="M21344.178,753.068l-.312-.6h5.238l.129.182a15.411,15.411,0,0,0,28.1-9.9l-9.352-.016,2.73,7.722-3.344,4.594-5.994-17.011,19.732.038.086.3a17.689,17.689,0,0,1,.525,2.286,19.371,19.371,0,0,1,.279,3.343,20.023,20.023,0,0,1-16.656,19.71,21.7,21.7,0,0,1-3.393.279A19.886,19.886,0,0,1,21344.178,753.068Zm3.363-3.193h-4.684l-.08-.3a17.768,17.768,0,0,1-.494-2.254,20.006,20.006,0,0,1,37.525-12.45l.311.6h-5.27l-.129-.182a15.422,15.422,0,0,0-28.107,9.9l9.391.016-2.73-7.722,3.359-4.594,5.977,17.011Z" transform="translate(-21342 -724.001)" fill="url(#linear-gradient)"/>
</svg>
