<svg width="24" height="24" viewBox="0 0 24 24" fill="none" xmlns="http://www.w3.org/2000/svg">
  <circle cx="12" cy="12" r="10" fill="white" />
  <path
    d="M11.9997 1.24257e-07C13.5756 -0.000226529 15.1369 0.310065 16.593 0.912551C18.0487 1.51378 19.3711 2.40065 20.4852 3.51486C21.5994 4.62912 22.4838 5.9514 23.0867 7.40722C23.6897 8.86331 24.0002 10.4248 24 12.0007C23.9999 14.3739 23.296 16.6937 21.9776 18.6671C20.6591 20.6405 18.7845 22.1787 16.5918 23.087C14.3992 23.9951 11.9861 24.2323 9.65847 23.7693C7.33099 23.3062 5.19331 22.1634 3.51526 20.4854C1.83706 18.8071 0.693312 16.6686 0.230294 14.3408C-0.232542 12.0133 0.00573615 9.60089 0.914032 7.40842C1.82252 5.21564 3.36024 3.341 5.33359 2.02239C7.30677 0.703962 9.62654 6.66e-05 11.9997 1.24257e-07ZM7.53879 7.13759V16.7454H8.93277V13.7828H15.0689V16.7454H16.4617V7.13759H15.0689V10.0322H8.93277V7.13759H7.53879ZM15.1357 11.1437V12.6725H8.99842V11.1437H15.1357Z"
    fill="black" />
</svg>
