<svg width="40" height="40" viewBox="0 0 40 40" fill="none" xmlns="http://www.w3.org/2000/svg">
<g clip-path="url(#clip0_1106_47932)">
<circle cx="20" cy="20" r="20" fill="white"/>
<path d="M19.9994 2.0709e-07C22.626 -0.000377882 25.2283 0.516719 27.655 1.52217C30.0812 2.52714 32.2851 4.00108 34.1421 5.85811C35.9991 7.71519 37.473 9.91902 38.4779 12.3454C39.4828 14.7722 40.0004 17.3746 40 20.0012C39.9998 23.9565 39.0768 27.8229 37.3794 31.1117C35.6819 34.4008 33.3075 36.9645 30.5281 38.5408C27.7487 40.1169 24.6018 40.6372 21.5974 40.1155C18.5933 39.5936 15.9055 38.0641 13.9838 35.7423C12.0617 33.4202 10.9927 30.4054 10.9884 27.273C10.984 24.1409 12.0441 21.1229 13.9587 18.796C15.873 16.4703 18.5468 14.9375 21.5405 12.3973C24.5342 9.85683 27.1476 6.00058 29.1143 1.62045C29.5167 0.439978 30.4317 0.0000441126 31.9994 2.0709e-07ZM12.5647 11.8959V27.9091H14.8879V22.9713H25.1148V27.9091H27.4362V11.8959H25.1148V16.7204H14.8879V11.8959H12.5647ZM25.2263 18.5728V21.1209H14.9974V18.5728H25.2263Z" fill="black"/>
</g>
<defs>
<clipPath id="clip0_1106_47932">
<rect width="40" height="40" fill="white"/>
</clipPath>
</defs>
</svg>