<svg xmlns="http://www.w3.org/2000/svg" width="13.962" height="22.093"><path data-name="Path 4534" d="M9.463 6.798c0-3.173-1.545-5.9-2.721-6.788 0 0-.09-.05-.083.076-.1 6.125-3.228 7.785-4.949 10.026a7.511 7.511 0 0 0 3.483 11.864c2.1.584-.486-1.036-.819-4.457-.403-4.14 5.089-7.296 5.089-10.721Z" fill="#fff"/><path data-name="Path 4535" d="M11.269 8.883c-.024-.016-.059-.027-.082.011a11.764 11.764 0 0 1-1.851 3.935c-3.387 5.136-1.457 7.613-.371 8.942.63.772 0 0 1.576-.789a7.1 7.1 0 0 0 3.392-5.483 7.942 7.942 0 0 0-2.664-6.616Z" fill="#158cd6"/></svg>