<svg xmlns="http://www.w3.org/2000/svg" xmlns:xlink="http://www.w3.org/1999/xlink" width="22.156" height="22" viewBox="0 0 22.156 22">
  <defs>
    <linearGradient id="linear-gradient" x1="1.053" y1="1.457" x2="-0.211" y2="-0.94" gradientUnits="objectBoundingBox">
      <stop offset="0.15" stop-color="#b32eff"/>
      <stop offset="0.42" stop-color="#ce60d3"/>
      <stop offset="0.65" stop-color="#e185b3"/>
      <stop offset="0.84" stop-color="#ee9c9f"/>
      <stop offset="0.96" stop-color="#f2a498"/>
    </linearGradient>
    <linearGradient id="linear-gradient-2" x1="37.925" y1="19.932" x2="36.662" y2="17.539" xlink:href="#linear-gradient"/>
  </defs>
  <g id="ic_hop" transform="translate(-927.392 -504)">
    <path id="Path_1674" data-name="Path 1674" d="M27.54,7.288,22.915.555a1.271,1.271,0,0,0-2.317.787,7.432,7.432,0,0,0,1.532,3.924l-.006.006c-.431-.32-6.88-5.161-14.544-2.583H7.571A1.48,1.48,0,0,0,6.512,4.51,1.521,1.521,0,0,0,8.246,5.584a19.015,19.015,0,0,1,4.828-.256,13,13,0,0,1,4.59,1.254,15.919,15.919,0,0,1,3.963,2.869,25.491,25.491,0,0,1,3.037,4.057.849.849,0,0,0,1.028.384.877.877,0,0,0,.5-1.14,17.7,17.7,0,0,0-1.307-2.716s0-.008.005-.006a2.9,2.9,0,0,0,1.711.333,1.664,1.664,0,0,0,1.157-.94A2.194,2.194,0,0,0,27.54,7.288Z" transform="translate(921.611 504)" fill="url(#linear-gradient)"/>
    <path id="Path_1675" data-name="Path 1675" d="M.4,83.495,5.05,90.267a1.26,1.26,0,0,0,2.292-.806,7.4,7.4,0,0,0-1.532-3.943s0-.01.005-.007c.428.321,6.877,5.161,14.54,2.583h.009a1.486,1.486,0,0,0,1.064-1.819A1.523,1.523,0,0,0,19.695,85.2a19.248,19.248,0,0,1-4.832.26,13.021,13.021,0,0,1-4.591-1.254,15.946,15.946,0,0,1-3.963-2.869,25.941,25.941,0,0,1-3.036-4.06A.853.853,0,0,0,2.2,76.91a.882.882,0,0,0-.452,1.134,17.636,17.636,0,0,0,1.3,2.709l-.006.006a2.9,2.9,0,0,0-1.711-.333,1.672,1.672,0,0,0-1.157.94A2.194,2.194,0,0,0,.4,83.495Z" transform="translate(927.392 435.184)" fill="url(#linear-gradient-2)"/>
  </g>
</svg>
