<svg width="20" height="20" viewBox="0 0 20 20" fill="none" xmlns="http://www.w3.org/2000/svg">
    <path d="M14.3086 1.90723C14.6366 1.93986 14.9455 2.0842 15.1807 2.31934C15.4494 2.58806 15.5995 2.95298 15.5996 3.33301V5C15.5996 6.48521 15.0102 7.90976 13.96 8.95996C13.5344 9.38555 13.0462 9.73333 12.5186 9.99902C13.0465 10.2648 13.5342 10.6142 13.96 11.04C15.0102 12.0902 15.5996 13.5148 15.5996 15V16.667C15.5995 17.047 15.4494 17.4119 15.1807 17.6807C14.9119 17.9494 14.547 18.0995 14.167 18.0996H5.83301C5.45298 18.0995 5.08806 17.9494 4.81934 17.6807C4.55061 17.4119 4.40048 17.047 4.40039 16.667V15C4.40039 13.5148 4.98984 12.0902 6.04004 11.04C6.46574 10.6143 6.95363 10.2657 7.48145 10C6.95363 9.73428 6.46574 9.38566 6.04004 8.95996C5.0554 7.97532 4.47582 6.66157 4.40723 5.27734L4.40039 5V3.33301C4.40048 2.95298 4.55061 2.58806 4.81934 2.31934C5.08806 2.05061 5.45298 1.90048 5.83301 1.90039H14.167L14.3086 1.90723ZM10 10.5996C8.83305 10.5996 7.71383 11.0635 6.88867 11.8887C6.30355 12.4738 5.90105 13.207 5.71582 14H14.2842C14.0991 13.207 13.6965 12.4738 13.1113 11.8887C12.3376 11.115 11.3054 10.6593 10.2178 10.6055L10 10.5996ZM5.83301 3.09961C5.77124 3.0997 5.71165 3.12429 5.66797 3.16797C5.62429 3.21165 5.5997 3.27124 5.59961 3.33301V5L5.60547 5.21777C5.65933 6.30544 6.11499 7.33764 6.88867 8.11133C7.71383 8.93649 8.83305 9.40039 10 9.40039C11.167 9.40039 12.2862 8.93649 13.1113 8.11133C13.9365 7.28617 14.4004 6.16695 14.4004 5V3.33301C14.4003 3.27124 14.3757 3.21165 14.332 3.16797C14.2991 3.13503 14.2569 3.1134 14.2119 3.10449L14.167 3.09961H5.83301Z" fill="#fff"/>
</svg>
