<svg xmlns="http://www.w3.org/2000/svg" width="24" height="24" fill="none" viewBox="0 0 24 24">
  <g clip-path="url(#a)">
    <path fill="#1D1D1D" d="M12 24c6.627 0 12-5.373 12-12S18.627 0 12 0 0 5.373 0 12s5.373 12 12 12Z"/>
    <path fill="#97FCE4" d="M20.943 11.917c0 5.912-3.619 7.81-5.526 6.12-1.569-1.377-2.036-4.288-4.396-4.587-2.996-.377-3.256 3.613-5.227 3.613-2.296 0-2.736-3.34-2.736-5.055 0-1.755.492-4.146 2.45-4.146 2.283 0 2.413 3.418 5.266 3.236 2.84-.195 2.893-3.756 4.734-5.276 1.608-1.313 5.435.104 5.435 6.095Z"/>
  </g>
  <defs>
    <clipPath id="a">
      <path fill="#fff" d="M0 0h24v24H0z"/>
    </clipPath>
  </defs>
</svg>
