<svg height="13.125" viewBox="0 0 13.125 13.125" width="13.125" xmlns="http://www.w3.org/2000/svg"><path d="m-7-11.812a6.563 6.563 0 0 0 -6.562 6.562 6.562 6.562 0 0 0 6.562 6.563 6.562 6.562 0 0 0 6.563-6.563 6.563 6.563 0 0 0 -6.563-6.562zm0 3.062a.875.875 0 0 1 .875.875.875.875 0 0 1 -.875.875.875.875 0 0 1 -.875-.875.875.875 0 0 1 .875-.875zm1.094 7h-2.188a.656.656 0 0 1 -.656-.656.656.656 0 0 1 .656-.656h.438v-1.75h-.219a.656.656 0 0 1 -.656-.656.656.656 0 0 1 .656-.656h.875a.656.656 0 0 1 .656.656v2.406h.438a.656.656 0 0 1 .656.656.656.656 0 0 1 -.656.656z" fill="#6b6d84" transform="translate(13.563 11.813)"/></svg>