<svg xmlns="http://www.w3.org/2000/svg" width="40" height="40" fill="none" viewBox="0 0 40 40">
  <path fill="url(#a)"
    d="M7.376 9.093c.208-.26.416-.51.646-.76l.041-.032.073-.062.02-.021a7.5 7.5 0 0 1 2.584-1.563 6.718 6.718 0 0 1 6.947 1.604c2.844 2.656 2.594 6.948.313 9.791-2.854 4.25-7.78 10.177-.958 15.489 1.218.948 2.135 1.74 5.989 2.854-2.52.469-4.864.312-7.468-.344-1.844-1.041-4.74-3.27-5.73-6.28-1.489-4.563 2.626-11.375 4.615-14 2.73-3.645-1.687-7.572-4.937-3.177-1.698 2.292-4.677 8.76-3.646 13.572.615 2.72 1.417 4.708 4.604 7.438a15.79 15.79 0 0 1-1.718-1.188A16.842 16.842 0 0 1 7.376 9.093Z" />
  <path fill="url(#b)"
    d="M32.624 30.904c-.208.26-.416.51-.645.76l-.042.032-.073.062-.02.021a7.504 7.504 0 0 1-2.584 1.563c-2.323.833-4.916.312-6.947-1.605-2.844-2.656-2.583-6.947-.313-9.79 2.854-4.25 7.781-10.177.959-15.49-1.22-.947-2.136-1.739-5.99-2.853a16.769 16.769 0 0 1 7.468.343c1.844 1.042 4.74 3.271 5.73 6.281 1.489 4.563-2.625 11.375-4.615 14-2.729 3.645 1.688 7.572 4.937 3.176 1.698-2.291 4.677-8.76 3.646-13.572-.615-2.718-1.417-4.708-4.604-7.437.594.354 1.167.75 1.719 1.188a16.842 16.842 0 0 1 1.374 23.321Z" />
  <defs>
    <linearGradient id="a" x1="3.335" x2="59.739" y1="18.379" y2="18.379"
      gradientUnits="userSpaceOnUse">
      <stop stop-color="#0082FA" />
      <stop offset="1" stop-color="#00F2FE" />
    </linearGradient>
    <linearGradient id="b" x1="3.335" x2="36.666" y1="19.999" y2="19.999"
      gradientUnits="userSpaceOnUse">
      <stop stop-color="#0082FA" />
      <stop offset="1" stop-color="#00F2FE" />
    </linearGradient>
  </defs>
</svg>