<svg viewBox="0 0 16 16" fill="none" xmlns="http://www.w3.org/2000/svg">
<path d="M8.00016 11.3281C8.18905 11.3281 8.3475 11.2641 8.4755 11.1361C8.6035 11.0081 8.66727 10.8499 8.66683 10.6615V7.99479C8.66683 7.8059 8.60283 7.64768 8.47483 7.52012C8.34683 7.39257 8.18861 7.32857 8.00016 7.32812C7.81172 7.32768 7.6535 7.39168 7.5255 7.52012C7.3975 7.64857 7.3335 7.80679 7.3335 7.99479V10.6615C7.3335 10.8503 7.3975 11.0088 7.5255 11.1368C7.6535 11.2648 7.81172 11.3286 8.00016 11.3281ZM8.00016 5.99479C8.18905 5.99479 8.3475 5.93079 8.4755 5.80279C8.6035 5.67479 8.66727 5.51657 8.66683 5.32812C8.66639 5.13968 8.60239 4.98146 8.47483 4.85346C8.34727 4.72546 8.18905 4.66146 8.00016 4.66146C7.81127 4.66146 7.65305 4.72546 7.5255 4.85346C7.39794 4.98146 7.33394 5.13968 7.3335 5.32812C7.33305 5.51657 7.39705 5.67501 7.5255 5.80346C7.65394 5.9319 7.81216 5.99568 8.00016 5.99479ZM8.00016 14.6615C7.07794 14.6615 6.21127 14.4863 5.40016 14.1361C4.58905 13.7859 3.8835 13.311 3.2835 12.7115C2.6835 12.1119 2.20861 11.4063 1.85883 10.5948C1.50905 9.78324 1.33394 8.91657 1.3335 7.99479C1.33305 7.07301 1.50816 6.20635 1.85883 5.39479C2.2095 4.58324 2.68439 3.87768 3.2835 3.27813C3.88261 2.67857 4.58816 2.20368 5.40016 1.85346C6.21216 1.50324 7.07883 1.32813 8.00016 1.32812C8.9215 1.32812 9.78816 1.50324 10.6002 1.85346C11.4122 2.20368 12.1177 2.67857 12.7168 3.27813C13.3159 3.87768 13.7911 4.58324 14.1422 5.39479C14.4933 6.20635 14.6682 7.07301 14.6668 7.99479C14.6655 8.91657 14.4904 9.78324 14.1415 10.5948C13.7926 11.4063 13.3177 12.1119 12.7168 12.7115C12.1159 13.311 11.4104 13.7861 10.6002 14.1368C9.78994 14.4875 8.92327 14.6623 8.00016 14.6615Z" fill="currentColor"/>
</svg>
