<svg viewBox="0 0 20 20" fill="none" xmlns="http://www.w3.org/2000/svg">
  <path
    d="M9.99998 14.165C10.2361 14.165 10.4341 14.085 10.5941 13.925C10.7541 13.765 10.8339 13.5673 10.8333 13.3317V9.99837C10.8333 9.76226 10.7533 9.56448 10.5933 9.40504C10.4333 9.24559 10.2355 9.16559 9.99998 9.16504C9.76442 9.16448 9.56664 9.24448 9.40664 9.40504C9.24664 9.56559 9.16664 9.76337 9.16664 9.99837V13.3317C9.16664 13.5678 9.24664 13.7659 9.40664 13.9259C9.56664 14.0859 9.76442 14.1656 9.99998 14.165ZM9.99998 7.49837C10.2361 7.49837 10.4341 7.41837 10.5941 7.25837C10.7541 7.09837 10.8339 6.90059 10.8333 6.66504C10.8328 6.42948 10.7528 6.23171 10.5933 6.07171C10.4339 5.91171 10.2361 5.83171 9.99998 5.83171C9.76386 5.83171 9.56609 5.91171 9.40664 6.07171C9.2472 6.23171 9.1672 6.42948 9.16664 6.66504C9.16609 6.90059 9.24609 7.09865 9.40664 7.25921C9.5672 7.41976 9.76498 7.49948 9.99998 7.49837ZM9.99998 18.3317C8.8472 18.3317 7.76386 18.1128 6.74998 17.675C5.73609 17.2373 4.85414 16.6436 4.10414 15.8942C3.35414 15.1448 2.76053 14.2628 2.32331 13.2484C1.88609 12.2339 1.6672 11.1506 1.66664 9.99837C1.66609 8.84615 1.88498 7.76282 2.32331 6.74837C2.76164 5.73393 3.35525 4.85198 4.10414 4.10254C4.85303 3.35309 5.73498 2.75948 6.74998 2.32171C7.76498 1.88393 8.84831 1.66504 9.99998 1.66504C11.1516 1.66504 12.235 1.88393 13.25 2.32171C14.265 2.75948 15.1469 3.35309 15.8958 4.10254C16.6447 4.85198 17.2386 5.73393 17.6775 6.74837C18.1164 7.76282 18.335 8.84615 18.3333 9.99837C18.3316 11.1506 18.1128 12.2339 17.6766 13.2484C17.2405 14.2628 16.6469 15.1448 15.8958 15.8942C15.1447 16.6436 14.2628 17.2375 13.25 17.6759C12.2372 18.1142 11.1539 18.3328 9.99998 18.3317Z"
    fill="currentColor" />
</svg>
