<svg xmlns="http://www.w3.org/2000/svg" width="24" height="24" fill="none" viewBox="0 0 24 24">
  <path fill="url(#a)"
    d="M4.425 5.456c.125-.157.25-.307.388-.457l.025-.018.044-.038.012-.012a4.5 4.5 0 0 1 1.55-.938 4.03 4.03 0 0 1 4.169.963c1.706 1.593 1.556 4.168.187 5.874-1.712 2.55-4.668 6.106-.575 9.293.731.57 1.281 1.044 3.594 1.713-1.513.281-2.92.187-4.481-.206-1.107-.625-2.844-1.963-3.438-3.769-.893-2.737 1.575-6.825 2.769-8.4 1.637-2.187-1.013-4.543-2.962-1.906C4.687 8.93 2.9 12.811 3.519 15.7c.369 1.63.85 2.824 2.763 4.462-.357-.213-.7-.45-1.032-.713a10.105 10.105 0 0 1-.825-13.992Z" />
  <path fill="url(#b)"
    d="M19.575 18.542c-.125.157-.25.307-.388.457l-.025.018-.043.038-.013.012a4.503 4.503 0 0 1-1.55.938c-1.393.5-2.95.187-4.168-.963-1.706-1.593-1.55-4.168-.188-5.874 1.713-2.55 4.669-6.106.575-9.293-.731-.57-1.281-1.044-3.593-1.713 1.49-.27 3.021-.199 4.48.206 1.107.625 2.844 1.963 3.438 3.769.893 2.737-1.575 6.825-2.769 8.4-1.637 2.187 1.013 4.543 2.963 1.905 1.018-1.374 2.806-5.255 2.187-8.143-.369-1.63-.85-2.824-2.762-4.462.356.213.7.45 1.03.713a10.105 10.105 0 0 1 .826 13.992Z" />
  <defs>
    <linearGradient id="a" x1="2.001" x2="35.844" y1="11.027" y2="11.027"
      gradientUnits="userSpaceOnUse">
      <stop stop-color="#0082FA" />
      <stop offset="1" stop-color="#00F2FE" />
    </linearGradient>
    <linearGradient id="b" x1="2.001" x2="22" y1="11.999" y2="11.999" gradientUnits="userSpaceOnUse">
      <stop stop-color="#0082FA" />
      <stop offset="1" stop-color="#00F2FE" />
    </linearGradient>
  </defs>
</svg>