<svg width="24" height="24" viewBox="0 0 24 24" fill="none" xmlns="http://www.w3.org/2000/svg">
<g clip-path="url(#clip0_6_105)">
<path d="M0 12C0 5.37258 5.37258 0 12 0C18.6274 0 24 5.37258 24 12C24 18.6274 18.6274 24 12 24C5.37258 24 0 18.6274 0 12Z" fill="white"/>
<mask id="mask0_6_105" style="mask-type:luminance" maskUnits="userSpaceOnUse" x="2" y="7" width="20" height="10">
<path d="M22 7H2V16.16H22V7Z" fill="white"/>
</mask>
<g mask="url(#mask0_6_105)">
<path d="M17.1394 7C16.0245 7 14.8038 7.55531 13.5162 8.65063C12.9086 9.16518 12.3735 9.72558 11.9833 10.1688C11.9833 10.1688 12.6076 10.826 13.2932 11.5341C13.6667 11.1062 14.1962 10.5254 14.8149 10.0007C15.9576 9.02254 16.7046 8.82385 17.1338 8.82385C18.7391 8.82385 20.0435 10.0567 20.0435 11.58C20.0435 13.088 18.7391 14.3209 17.1338 14.3362C17.0557 14.3362 16.9666 14.326 16.8551 14.3056C17.3233 14.5043 17.8305 14.6469 18.3043 14.6469C21.2475 14.6469 21.8272 12.7874 21.8606 12.6549C21.9443 12.3136 21.9944 11.957 21.9944 11.5902C21.9889 9.0582 19.8149 7 17.1394 7Z" fill="url(#paint0_linear_6_105)"/>
<path d="M6.85507 16.16C7.9699 16.16 9.19064 15.6047 10.4783 14.5094C11.0858 13.9948 11.621 13.4344 12.0111 12.9912C12.0111 12.9912 11.3868 12.334 10.7012 11.6258C10.3278 12.0538 9.79822 12.6346 9.17949 13.1593C8.03679 14.1273 7.28428 14.3361 6.86065 14.3361C5.2553 14.3361 3.95095 13.1033 3.95095 11.58C3.95095 10.072 5.2553 8.83912 6.86065 8.82384C6.93868 8.82384 7.02787 8.83403 7.13935 8.85441C6.67113 8.65572 6.16388 8.51307 5.69008 8.51307C2.74693 8.50798 2.16722 10.3675 2.13378 10.505C2.05017 10.8464 2 11.203 2 11.5698C2 14.1018 4.17391 16.16 6.85507 16.16Z" fill="url(#paint1_linear_6_105)"/>
<path fill-rule="evenodd" clip-rule="evenodd" d="M9.09589 10.0414C8.77259 9.75615 7.20068 8.5895 5.69566 8.54874C3.00893 8.48761 2.22298 10.2707 2.15051 10.5C2.66891 8.50289 4.58641 7.01019 6.86066 7C8.71685 7 10.5953 8.66592 11.9833 10.1688L11.9889 10.1637C11.9889 10.1637 12.6132 10.8209 13.2988 11.5291C13.2988 11.5291 14.0792 12.3697 14.9041 13.1084C15.2274 13.3937 16.7938 14.545 18.2988 14.5858C21.058 14.6571 21.8216 12.7721 21.8607 12.6295C21.3534 14.6418 19.4303 16.1396 17.1449 16.1498C15.2888 16.1498 13.4103 14.4839 12.0167 12.981C12.0167 12.9861 12.0112 12.9861 12.0112 12.9912C12.0112 12.9912 11.3869 12.334 10.7012 11.6259C10.7068 11.6259 9.92643 10.7802 9.09589 10.0414Z" fill="#29ABE2"/>
</g>
</g>
<defs>
<linearGradient id="paint0_linear_6_105" x1="14.5298" y1="7.72579" x2="20.7805" y2="14.6212" gradientUnits="userSpaceOnUse">
<stop offset="0.21" stop-color="#F15A24"/>
<stop offset="0.6841" stop-color="#FBB03B"/>
</linearGradient>
<linearGradient id="paint1_linear_6_105" x1="9.46634" y1="15.4352" x2="3.21567" y2="8.53986" gradientUnits="userSpaceOnUse">
<stop offset="0.21" stop-color="#ED1E79"/>
<stop offset="0.8929" stop-color="#522785"/>
</linearGradient>
<clipPath id="clip0_6_105">
<rect width="24" height="24" fill="white"/>
</clipPath>
</defs>
</svg>
