<svg viewBox="0 0 24 24" fill="none" xmlns="http://www.w3.org/2000/svg">
<g clip-path="url(#clip0_2767_12226)">
<path d="M21.5 12V12.0004C21.502 14.4946 20.523 16.8895 18.7744 18.6681C17.0257 20.4467 14.6478 21.4663 12.1539 21.5067C9.66005 21.5471 7.25032 20.6051 5.445 18.8841C3.64064 17.164 2.58472 14.8037 2.50488 12.3122L2.50006 11.9997L2.5039 11.7305C2.64618 6.60891 6.84266 2.5 12 2.5C17.2469 2.5 21.5 6.75314 21.5 12ZM12.0299 10.5009L12.0149 10.5H12.0138L12.0275 10.4992L12.1545 10.4922L12.1703 10.4914L12.1861 10.4895C12.5506 10.4461 12.8866 10.2706 13.1304 9.99605C13.3742 9.72154 13.5089 9.36714 13.5089 9C13.5089 8.63286 13.3742 8.27846 13.1304 8.00395C12.8866 7.72943 12.5506 7.55387 12.1861 7.5105L12.1715 7.50877L12.1569 7.50789L12.0399 7.50089L12.0112 7.49918L11.9825 7.50076L11.8555 7.50776L11.8397 7.50863L11.8239 7.5105C11.4594 7.55387 11.1234 7.72943 10.8796 8.00395C10.6358 8.27846 10.5011 8.63285 10.5011 9C10.5011 9.36715 10.6358 9.72154 10.8796 9.99605C11.1234 10.2706 11.4594 10.4461 11.8239 10.4895L11.8385 10.4912L11.8531 10.4921L11.9701 10.4991L11.9851 10.5H11H10.9851L10.9701 10.5009L10.8531 10.5079L10.8385 10.5088L10.8239 10.5105C10.4594 10.5539 10.1234 10.7294 9.87956 11.0039C9.63577 11.2785 9.50111 11.6329 9.50111 12C9.50111 12.3671 9.63577 12.7215 9.87956 12.9961C10.049 13.1868 10.2629 13.3298 10.5 13.4138V16V16.0149L10.5009 16.0299L10.5079 16.1469L10.5088 16.1612L10.5104 16.1756C10.5499 16.5104 10.7011 16.8221 10.9395 17.0605C11.1779 17.2989 11.4896 17.4501 11.8244 17.4896L11.8388 17.4912L11.8531 17.4921L11.9701 17.4991L11.9851 17.5H12H13H13.0149L13.0299 17.4991L13.1469 17.4921L13.1612 17.4912L13.1756 17.4896C13.5104 17.4501 13.8221 17.2989 14.0605 17.0605C14.2989 16.8221 14.4501 16.5104 14.4896 16.1756L14.4912 16.1612L14.4921 16.1469L14.4991 16.0299L14.5009 16L14.4991 15.9701L14.4921 15.8531L14.4913 15.8389L14.4896 15.8248C14.4537 15.5188 14.3245 15.2312 14.1195 15.0012C13.9507 14.8119 13.7374 14.6692 13.5 14.5852V12V11.9851L13.4991 11.9701L13.4921 11.8531L13.4912 11.8388L13.4896 11.8244C13.4501 11.4896 13.2989 11.1779 13.0605 10.9395C12.8221 10.7011 12.5104 10.5499 12.1756 10.5104L12.1612 10.5088L12.1469 10.5079L12.0299 10.5009Z" stroke="currentColor"/>
</g>
<defs>
<clipPath id="clip0_2767_12226">
<rect width="24" height="24"/>
</clipPath>
</defs>
</svg>
