<svg xmlns="http://www.w3.org/2000/svg" width="12" height="13" fill="none"><path fill="#fff" fill-rule="evenodd" d="M6 .627a6 6 0 1 0 0 12 6 6 0 0 0 0-12Zm.59 4.72c-.14-.223-.393-.335-.757-.335-.238 0-.451.056-.64.168a1.875 1.875 0 0 0-.483.43 2.49 2.49 0 0 0-.326.536c-.084.189-.14.357-.168.504l.567.168c.091-.315.179-.532.263-.651.084-.12.164-.179.241-.179a.16.16 0 0 1 .116.053c.035.028.052.101.052.22 0 .168-.017.382-.052.64-.035.253-.077.526-.126.82-.042.294-.08.58-.116.86a5.96 5.96 0 0 0-.052.725c0 .371.07.662.21.872.147.21.413.315.798.315.238 0 .448-.056.63-.168.189-.112.35-.252.483-.42.133-.175.238-.357.315-.546.084-.19.14-.357.168-.504l-.567-.168c-.091.315-.179.532-.263.65-.084.12-.168.18-.252.18-.035 0-.07-.018-.105-.053-.035-.035-.052-.109-.052-.22 0-.12.017-.309.052-.568l.116-.86c.042-.316.08-.617.115-.904.035-.287.053-.514.053-.682 0-.371-.074-.665-.22-.882Zm.167-2.73a.688.688 0 0 0-.556-.251.783.783 0 0 0-.567.252.92.92 0 0 0-.273.62.878.878 0 0 0 .2.608c.146.161.339.242.577.242.23 0 .423-.08.577-.242a.911.911 0 0 0 .242-.609.831.831 0 0 0-.2-.62Z" clip-rule="evenodd" opacity=".5"/></svg>