<svg width="24" height="24" viewBox="0 0 20 20" fill="none" xmlns="http://www.w3.org/2000/svg">
<g clip-path="url(#clip0_3144_56971)">
<circle cx="10" cy="10" r="10" fill="#2C2A2A"/>
<path fill-rule="evenodd" clip-rule="evenodd" d="M15.8192 8.30295C15.8215 8.28953 15.8242 8.27611 15.827 8.26302C15.847 8.17151 15.8791 8.08453 15.9216 8.00337C15.9769 7.89811 16.0496 7.80305 16.1362 7.72173C16.1548 7.7041 16.1845 7.7041 16.2031 7.72173C16.2897 7.80321 16.3624 7.89844 16.4175 8.00369C16.46 8.08469 16.4921 8.17167 16.512 8.26302C16.5148 8.27628 16.5174 8.28953 16.5198 8.30279C16.5251 8.33319 16.5293 8.36407 16.5318 8.39543C16.5321 8.39947 16.5324 8.40368 16.5327 8.40772C16.5396 8.40724 16.5466 8.40675 16.5532 8.40626C17.0515 8.37522 17.3623 8.56342 17.5471 8.75516L18.3055 9.70243C18.3413 9.74689 18.3316 9.8114 18.2843 9.84422L17.5405 10.3624C17.5095 10.3841 17.4687 10.387 17.4343 10.3711C16.8897 10.1208 16.1295 10.0248 14.9731 10.4652C13.4683 11.0384 11.8754 11.7478 11.8754 11.7478C11.8754 11.7478 9.8068 12.7138 7.85062 13.1342L7.99597 13.7723C9.02434 13.5513 10.0682 13.1906 10.8452 12.8907C11.2359 12.7399 11.5642 12.6024 11.7955 12.5023C11.9112 12.4522 12.0029 12.4115 12.0662 12.3829C12.0978 12.3686 12.1224 12.3573 12.1394 12.3496C12.1429 12.3479 12.1462 12.3465 12.1491 12.3452C12.1531 12.3434 12.1564 12.3418 12.1591 12.3405L12.1601 12.34H12.1606C12.1606 12.34 12.1606 12.3397 12.1607 12.3397C12.1635 12.3384 12.1677 12.3366 12.1732 12.3342C12.1849 12.329 12.2024 12.3213 12.2252 12.3112C12.2709 12.291 12.3382 12.2614 12.4238 12.2241C12.5949 12.1494 12.8388 12.0437 13.1295 11.9203C13.7118 11.6729 14.4775 11.3561 15.2187 11.0738C16.2341 10.6872 16.798 10.8018 17.1462 10.9619C17.3928 11.0752 17.695 11.0591 17.9327 10.8935L18.6766 10.3753C19.034 10.1263 19.1067 9.63857 18.8367 9.30131L18.0594 8.33044L18.0384 8.30861C17.8162 8.0779 17.4917 7.86659 17.0553 7.78494C16.9626 7.58349 16.8312 7.40306 16.6716 7.25254C16.3919 6.98901 15.9476 6.98884 15.6677 7.25205C15.4486 7.45819 15.2833 7.71995 15.1972 8.01452C14.7785 8.15728 14.4372 8.19544 14.1442 8.18089C13.7715 8.16229 13.4292 8.05607 13.0459 7.8952C12.9139 7.83975 12.7734 7.77492 12.6237 7.70572C11.9513 7.3953 11.0954 7 10.0068 7C8.6371 7 7.67914 7.42764 6.87304 7.78737C6.83692 7.80353 6.80095 7.81954 6.76534 7.83538C5.94538 8.20013 5.2798 8.46835 4.30321 8.35841C3.78893 8.30053 3.49942 8.22098 3.13699 8.05171C2.83532 7.91089 2.49719 7.71574 1.9721 7.41244C1.7873 7.30573 1.5792 7.1856 1.34129 7.0498L1 7.61324C1.22226 7.74032 1.42154 7.85527 1.60234 7.95971C2.85962 8.6858 3.22123 8.89469 4.22563 9.0077C5.44195 9.14464 6.26986 8.77554 7.13842 8.38848C7.94503 8.02891 8.78659 7.65366 10.0068 7.65366C10.9284 7.65366 11.6196 7.97038 12.2871 8.27628C13.2833 8.73285 14.2265 9.16502 15.8036 8.48306C15.8036 8.42162 15.8089 8.36132 15.8192 8.30295Z" fill="url(#paint0_radial_3144_56971)"/>
<path fill-rule="evenodd" clip-rule="evenodd" d="M9.86375 9.55506C9.7865 9.35878 9.62501 9.13923 9.32318 8.91935L9.72707 8.39648C10.1095 8.67505 10.3614 8.98838 10.4926 9.3216C10.6243 9.65627 10.6261 9.99046 10.5413 10.2941C10.3974 10.8089 10.0057 11.2358 9.56747 11.4706C9.48881 11.5128 9.46856 11.6155 9.53879 11.6699C9.70922 11.8018 9.96743 11.9594 10.297 12.1323C11.186 12.599 12.4141 13.0885 13.1874 13.3946L12.9336 13.9999C12.1674 13.6967 10.9039 13.1939 9.97697 12.7074C9.52478 12.4701 9.10508 12.2132 8.8775 11.9624C8.77028 11.8442 8.63495 11.651 8.67524 11.4163C8.71886 11.1624 8.93378 11.0276 9.11507 10.9573C9.45437 10.8255 9.78668 10.4989 9.89171 10.123C9.94235 9.94196 9.94031 9.75004 9.86375 9.55506Z" fill="url(#paint1_linear_3144_56971)"/>
</g>
<defs>
<radialGradient id="paint0_radial_3144_56971" cx="0" cy="0" r="1" gradientTransform="matrix(-6.5199 6.30877 -16.749 -16.3613 12.7375 7)" gradientUnits="userSpaceOnUse">
<stop offset="0.5625" stop-color="white"/>
<stop offset="0.990797" stop-color="white" stop-opacity="0"/>
</radialGradient>
<linearGradient id="paint1_linear_3144_56971" x1="8.86214" y1="10.7567" x2="8.24819" y2="9.25525" gradientUnits="userSpaceOnUse">
<stop stop-color="white"/>
<stop offset="1" stop-color="white" stop-opacity="0"/>
</linearGradient>
<clipPath id="clip0_3144_56971">
<rect width="20" height="20" fill="white"/>
</clipPath>
</defs>
</svg>