<svg width="24" height="35" fill="none" xmlns="http://www.w3.org/2000/svg"><path d="m10.239 17.158 12.75 7.353a.673.673 0 0 0 .915-.246.684.684 0 0 0 .094-.335L24 10.39a.681.681 0 0 0-.339-.58.671.671 0 0 0-.669 0L10.24 17.158ZM22.248 6.642 13.784.136a.676.676 0 0 0-1.067.394L9.622 15.013l12.558-7.25a.666.666 0 0 0 .277-.866.667.667 0 0 0-.209-.255ZM13.778 34.191l8.487-6.512a.676.676 0 0 0 .165-.892.676.676 0 0 0-.234-.23L9.621 19.313l3.1 14.485a.669.669 0 0 0 .42.491.661.661 0 0 0 .637-.098Z" fill="#31CB9E"/><path d="m6.97 17.158 3.34-15.605a.675.675 0 0 0-.3-.712.665.665 0 0 0-.767.043L.698 7.445a1.778 1.778 0 0 0-.695 1.417L0 25.482a1.789 1.789 0 0 0 .695 1.416l8.543 6.555a.673.673 0 0 0 1.066-.669L6.97 17.158Z" fill="#31CB9E"/><path d="m10.239 17.158 12.75 7.353a.673.673 0 0 0 .915-.246.684.684 0 0 0 .094-.335L24 10.39a.681.681 0 0 0-.339-.58.671.671 0 0 0-.669 0L10.24 17.158ZM22.248 6.642 13.784.136a.676.676 0 0 0-1.067.394L9.622 15.013l12.558-7.25a.666.666 0 0 0 .277-.866.667.667 0 0 0-.209-.255ZM13.778 34.191l8.487-6.512a.676.676 0 0 0 .165-.892.676.676 0 0 0-.234-.23L9.621 19.313l3.1 14.485a.669.669 0 0 0 .42.491.661.661 0 0 0 .637-.098Z" fill="#31CB9E"/><path d="m6.97 17.158 3.34-15.605a.675.675 0 0 0-.3-.712.665.665 0 0 0-.767.043L.698 7.445a1.778 1.778 0 0 0-.695 1.417L0 25.482a1.789 1.789 0 0 0 .695 1.416l8.543 6.555a.673.673 0 0 0 1.066-.669L6.97 17.158Z" fill="#31CB9E"/></svg>