<svg width="16" height="16" viewBox="0 0 16 16" fill="none" xmlns="http://www.w3.org/2000/svg">
<path d="M5.90664 12.8841L5.0797 13.711C4.86776 13.9229 4.57097 14.0271 4.27307 13.994L2.88068 13.8392C2.73223 13.8228 2.59381 13.7562 2.4882 13.6506L2.34939 13.5118C2.24377 13.4062 2.17725 13.2678 2.16075 13.1193L2.00604 11.7269C1.97294 11.429 2.07705 11.1322 2.28899 10.9203L4.76372 8.44557C4.94328 8.26601 4.99937 8.00003 4.93621 7.75408C4.5446 6.2291 4.94578 4.54257 6.13974 3.34861C7.93788 1.55046 10.8532 1.55046 12.6514 3.34861C14.4495 5.14675 14.4495 8.06212 12.6514 9.86026C11.4574 11.0542 9.77089 11.4554 8.24592 11.0638C7.99997 11.0006 7.73417 11.0565 7.55461 11.2361L5.90664 12.8841ZM5.90664 12.8841L4.74061 11.7308M8.39052 7.60948C7.86982 7.08878 7.86982 6.24456 8.39052 5.72386C8.91122 5.20316 9.75544 5.20316 10.2761 5.72386C10.7968 6.24456 10.7968 7.08878 10.2761 7.60948C9.75544 8.13017 8.91122 8.13017 8.39052 7.60948Z" stroke="currentColor" stroke-linejoin="round"/>
</svg>
