<svg width="24" height="24" viewBox="0 0 24 24" fill="none" xmlns="http://www.w3.org/2000/svg">
  <path
    d="M7.50972 12C7.50972 11.4624 7.52795 10.9337 7.56253 10.4175C6.8898 10.5338 6.27732 10.6732 5.74091 10.8341C4.95238 11.0706 4.37326 11.3357 4.00997 11.5934C3.83055 11.7207 3.72923 11.8281 3.67713 11.9043C3.65237 11.9406 3.64194 11.9663 3.63727 11.9801C3.63296 11.9928 3.63229 11.9985 3.63229 12L3.63727 12.0199C3.64194 12.0337 3.65237 12.0594 3.67713 12.0957C3.72923 12.1719 3.83055 12.2793 4.00997 12.4066C4.37326 12.6643 4.95238 12.9294 5.74091 13.1659C6.27727 13.3268 6.88986 13.4652 7.56253 13.5815C7.528 13.0656 7.50972 12.5372 7.50972 12ZM14.575 15.4609C13.7527 15.5307 12.8891 15.5715 12 15.5715C11.1106 15.5715 10.2466 15.5308 9.42402 15.4609C9.60103 16.4991 9.85398 17.4241 10.1604 18.1903C10.47 18.9643 10.818 19.5366 11.1629 19.9013C11.4632 20.2188 11.7175 20.3379 11.9173 20.3627L12 20.3677C12.2104 20.3677 12.4937 20.2644 12.8371 19.9013C13.182 19.5366 13.53 18.9643 13.8396 18.1903C14.146 17.4241 14.398 16.499 14.575 15.4609ZM3.93622 14.2322C4.65929 16.85 6.62038 18.9531 9.15197 19.8695C8.96679 19.538 8.79722 19.1784 8.64474 18.7972C8.24303 17.7929 7.93337 16.5903 7.73991 15.2636C6.83042 15.1256 5.99761 14.9483 5.27155 14.7304C4.78827 14.5855 4.33815 14.4189 3.93622 14.2322ZM20.0628 14.2322C19.6611 14.4188 19.2114 14.5856 18.7285 14.7304C18.0021 14.9483 17.169 15.1256 16.2591 15.2636C16.0656 16.5902 15.757 17.793 15.3553 18.7972C15.2027 19.1786 15.0323 19.5378 14.847 19.8695C17.379 18.9533 19.3396 16.8502 20.0628 14.2322ZM9.15197 4.12955C6.62052 5.04576 4.65953 7.14928 3.93622 9.76682C4.33805 9.58016 4.78843 9.41449 5.27155 9.26956C5.99765 9.05174 6.83036 8.87339 7.73991 8.73543C7.93338 7.40912 8.24313 6.20683 8.64474 5.20279C8.79734 4.82132 8.96662 4.46126 9.15197 4.12955ZM14.847 4.12955C15.0325 4.46138 15.2026 4.82115 15.3553 5.20279C15.7569 6.20679 16.0656 7.40918 16.2591 8.73543C17.169 8.8734 18.0021 9.05166 18.7285 9.26956C19.2112 9.4144 19.6612 9.58032 20.0628 9.76682C19.3393 7.1491 17.3788 5.04557 14.847 4.12955ZM12 3.63229C11.7896 3.63229 11.5063 3.73562 11.1629 4.09865C10.818 4.46342 10.47 5.03567 10.1604 5.80967C9.85408 6.57566 9.60102 7.50034 9.42402 8.53812C10.2466 8.46825 11.1106 8.4285 12 8.4285C12.889 8.4285 13.7527 8.4683 14.575 8.53812C14.398 7.50041 14.1459 6.57562 13.8396 5.80967C13.53 5.03567 13.182 4.46342 12.8371 4.09865C12.4937 3.73562 12.2104 3.63229 12 3.63229ZM9.143 12C9.143 12.6204 9.16773 13.2237 9.21574 13.8037C10.087 13.8894 11.0227 13.9392 12 13.9392C12.9769 13.9392 13.9123 13.8894 14.7833 13.8037C14.8313 13.2237 14.857 12.6205 14.857 12C14.857 11.3792 14.8313 10.7756 14.7833 10.1953C13.9123 10.1097 12.9769 10.0608 12 10.0608C11.0227 10.0608 10.087 10.1096 9.21574 10.1953C9.16767 10.7756 9.143 11.3792 9.143 12ZM16.4903 12C16.4903 12.5372 16.471 13.0655 16.4365 13.5815C17.1095 13.4652 17.7225 13.3269 18.2591 13.1659C19.0476 12.9294 19.6267 12.6643 19.99 12.4066C20.1695 12.2793 20.2708 12.1719 20.3229 12.0957C20.3476 12.0594 20.3581 12.0337 20.3627 12.0199C20.367 12.0072 20.3677 12.0015 20.3677 12C20.3677 11.9985 20.367 11.9928 20.3627 11.9801C20.3581 11.9663 20.3476 11.9406 20.3229 11.9043C20.2708 11.8281 20.1695 11.7207 19.99 11.5934C19.6267 11.3357 19.0476 11.0706 18.2591 10.8341C17.7224 10.6731 17.1096 10.5338 16.4365 10.4175C16.4711 10.9338 16.4903 11.4624 16.4903 12ZM21.987 12.5142C21.7194 17.7982 17.3505 22 12 22C6.6495 22 2.28059 17.7982 2.01295 12.5142L2 12L2.01295 11.4858C2.28059 6.20181 6.6495 2 12 2L12.5142 2.01295C17.6279 2.27196 21.728 6.37212 21.987 11.4858L22 12L21.987 12.5142Z"
    fill="currentColor" />
</svg>
