<svg width="24" height="24" fill="none" xmlns="http://www.w3.org/2000/svg"><g clip-path="url(#a)"><path d="M12 24c6.6274 0 12-5.3726 12-12 0-6.62742-5.3726-12-12-12C5.37258 0 0 5.37258 0 12c0 6.6274 5.37258 12 12 12Z" fill="#BFBBBB"/><path fill-rule="evenodd" clip-rule="evenodd" d="M7.82025 14.4105 6.75 14.826l.516-2.0692 1.083-.435L9.90975 6h3.84675l-1.1393 4.647 1.0575-.4282-.51 2.0624-1.0702.4283-.636 2.6123H17.25L16.5953 18H6.939l.88125-3.5895Z" fill="#fff"/></g><defs><clipPath id="a"><path fill="#fff" d="M0 0h24v24H0z"/></clipPath></defs></svg>