<svg xmlns="http://www.w3.org/2000/svg" width="64" height="64" viewBox="0 0 16 16">
  <g id="ic_language16" transform="translate(-494.25 -372.25)">
    <rect id="Rectangle_486" data-name="Rectangle 486" width="24" height="24" transform="translate(494.25 372.25)" fill="rgba(255,255,255,0)"/>
    <path id="Path_4459" data-name="Path 4459" d="M7-11.812A6.562,6.562,0,0,0,.438-5.25,6.562,6.562,0,0,0,7,1.313,6.562,6.562,0,0,0,13.563-5.25,6.562,6.562,0,0,0,7-11.812ZM6.381-1.931a.881.881,0,0,1-.255-.619v-.875a.875.875,0,0,0-.45-.766c-.394-.219-.954-.52-1.334-.714A3.908,3.908,0,0,1,3.474-5.5l-.02-.021a3.024,3.024,0,0,1-.493-.564c-.217-.319-.543-.8-.8-1.189A5.275,5.275,0,0,1,5.1-10.138l.391.2a.438.438,0,0,0,.636-.39v-.089A5.236,5.236,0,0,1,7-10.5l.567.567a.441.441,0,0,1,0,.619l-.129.126L7.156-8.9a.215.215,0,0,0,0,.308l.126.13a.215.215,0,0,1,0,.308l-.219.219a.215.215,0,0,1-.152.065H6.662a.217.217,0,0,0-.152.062l-.272.263a.23.23,0,0,0-.043.256l.427.851a.219.219,0,0,1-.2.318H6.275a.227.227,0,0,1-.146-.055L5.878-6.4a.441.441,0,0,0-.427-.085L4.6-6.2a.327.327,0,0,0-.225.311.322.322,0,0,0,.182.291l.3.154a1.894,1.894,0,0,0,.831.195c.288,0,.616.745.874.875H8.387a.879.879,0,0,1,.619.256l.374.373a.841.841,0,0,1,.245.591,1.28,1.28,0,0,1-.374.9c-.109.106-.219.215-.311.308a.654.654,0,0,0-.169.294,4.534,4.534,0,0,1-.129.461L8.258-.159A5.226,5.226,0,0,1,7,0V-.53A2.044,2.044,0,0,0,6.381-1.931Zm5.242-2.82a.656.656,0,0,1-.387-.273l-.493-.738a.655.655,0,0,1,0-.725l.536-.807a.669.669,0,0,1,.252-.222l.16-.08a5.21,5.21,0,0,1,.56,2.346,5.251,5.251,0,0,1-.044.644Z" transform="translate(495.254 385.25)" fill="#a0a3c4"/>
  </g>
</svg>
