<svg viewBox="0 0 20 20" fill="none" xmlns="http://www.w3.org/2000/svg">
  <path
    d="M17.999 10C17.999 11.0506 17.7921 12.0909 17.3901 13.0615C16.988 14.0321 16.3987 14.914 15.6559 15.6569C14.913 16.3997 14.0311 16.989 13.0605 17.391C12.0899 17.7931 11.0496 18 9.99902 18C8.94845 18 7.90816 17.7931 6.93756 17.391C5.96695 16.989 5.08504 16.3997 4.34217 15.6569C3.5993 14.914 3.01002 14.0321 2.60799 13.0615C2.20595 12.0909 1.99902 11.0506 1.99902 10C1.99902 8.94942 2.20595 7.90914 2.60799 6.93853C3.01003 5.96793 3.5993 5.08601 4.34217 4.34315C5.08504 3.60028 5.96695 3.011 6.93756 2.60896C7.90816 2.20693 8.94845 2 9.99902 2C11.0496 2 12.0899 2.20693 13.0605 2.60896C14.0311 3.011 14.913 3.60028 15.6559 4.34315C16.3987 5.08602 16.988 5.96793 17.3901 6.93853C17.7921 7.90914 17.999 8.94943 17.999 10L17.999 10Z"
    stroke="currentColor" stroke-width="1.3" />
  <path
    d="M12.999 10C12.999 11.0506 12.9214 12.0909 12.7707 13.0615C12.6199 14.0321 12.3989 14.914 12.1203 15.6569C11.8418 16.3997 11.5111 16.989 11.1471 17.391C10.7831 17.7931 10.393 18 9.99902 18C9.60506 18 9.21495 17.7931 8.85097 17.391C8.487 16.989 8.15628 16.3997 7.8777 15.6569C7.59913 14.914 7.37815 14.0321 7.22738 13.0615C7.07662 12.0909 6.99902 11.0506 6.99902 10C6.99902 8.94942 7.07662 7.90914 7.22738 6.93853C7.37815 5.96793 7.59913 5.08601 7.8777 4.34315C8.15628 3.60028 8.487 3.011 8.85097 2.60896C9.21495 2.20693 9.60506 2 9.99902 2C10.393 2 10.7831 2.20693 11.1471 2.60896C11.5111 3.011 11.8418 3.60028 12.1203 4.34315C12.3989 5.08602 12.6199 5.96793 12.7707 6.93853C12.9214 7.90914 12.999 8.94943 12.999 10L12.999 10Z"
    stroke="currentColor" stroke-width="1.3" />
  <path d="M1.99902 10H17.999" stroke="currentColor" stroke-width="1.3" />
</svg>
  
