<svg xmlns="http://www.w3.org/2000/svg" fill="none" viewBox="0 0 127 35"><g fill="#A0A3C4" clip-path="url(#a)"><path d="M10.286.5a9.593 9.593 0 0 0-6.777 2.85 9.614 9.614 0 0 0-2.778 6.813v3.191h7.763V8.73a1.655 1.655 0 0 1 1.652-1.653h.28a1.65 1.65 0 0 1 1.652 1.653v12.396a7.757 7.757 0 0 0 7.172-4.798 7.78 7.78 0 0 0 .59-2.974v-3.191a9.685 9.685 0 0 0-2.798-6.832A9.475 9.475 0 0 0 10.286.5Z"/><path d="M10.426 27.4h-.28a1.652 1.652 0 0 1-1.651-1.653V13.351a7.755 7.755 0 0 0-7.173 4.798 7.778 7.778 0 0 0-.59 2.974v3.147a9.576 9.576 0 0 0 2.763 6.828 9.556 9.556 0 0 0 6.791 2.836 9.546 9.546 0 0 0 6.791-2.836 9.568 9.568 0 0 0 2.764-6.828v-3.147h-7.763v4.624a1.655 1.655 0 0 1-1.652 1.654ZM33.11 10.313h-2.72V24.13h7.985v-2.605H33.11V10.313ZM47.09 15.43a3.87 3.87 0 0 0-3.215-1.44 4.461 4.461 0 0 0-3.382 1.51 5.562 5.562 0 0 0 0 7.403 4.468 4.468 0 0 0 3.382 1.51c1.38 0 2.452-.48 3.214-1.441v1.165h2.544v-9.87H47.09v1.163Zm-.78 5.775a2.66 2.66 0 0 1-1.961.78 2.624 2.624 0 0 1-1.953-.78 2.994 2.994 0 0 1 0-4.008 2.631 2.631 0 0 1 1.953-.78 2.662 2.662 0 0 1 1.962.78 2.968 2.968 0 0 1 0 4.008ZM56.188 20.892l-2.571-6.634h-2.78l4.04 9.555a3.04 3.04 0 0 1-.956 1.46 2.558 2.558 0 0 1-1.627.435v2.37a4.677 4.677 0 0 0 3.16-.86c.847-.64 1.527-1.664 2.04-3.073l3.594-9.887h-2.72l-2.18 6.634ZM66.595 13.987a5.012 5.012 0 0 0-3.746 1.491 5.459 5.459 0 0 0 .02 7.452c.985.987 2.293 1.48 3.923 1.48 1.893 0 3.326-.703 4.299-2.111l-2.05-1.185a2.6 2.6 0 0 1-2.21.987c-1.511 0-2.438-.618-2.78-1.855h7.434c.064-.346.097-.696.099-1.047a5.214 5.214 0 0 0-1.41-3.711 4.701 4.701 0 0 0-3.579-1.5Zm-2.583 4.284c.113-.58.427-1.1.887-1.47a2.675 2.675 0 0 1 1.696-.524 2.57 2.57 0 0 1 1.548.494c.478.368.798.904.897 1.5h-5.028ZM75.899 15.957V14.26h-2.544v9.87h2.544v-4.717c0-.948.305-1.625.916-2.034a2.994 2.994 0 0 1 2.081-.473v-2.842a3.576 3.576 0 0 0-1.824.473 2.657 2.657 0 0 0-1.173 1.421ZM91.297 12.45v-2.137h-9.048v2.605h5.6l-5.746 9.037v2.176h9.304v-2.606H85.55l5.746-9.075ZM97.414 13.987a5.013 5.013 0 0 0-3.746 1.491 5.458 5.458 0 0 0 .02 7.452c.986.987 2.294 1.48 3.923 1.48 1.893 0 3.326-.703 4.299-2.111l-2.05-1.185a2.6 2.6 0 0 1-2.209.987c-1.512 0-2.439-.618-2.78-1.855h7.434c.063-.346.096-.696.098-1.047a5.216 5.216 0 0 0-1.41-3.711 4.693 4.693 0 0 0-3.579-1.5Zm-2.582 4.284c.112-.58.426-1.101.887-1.47a2.673 2.673 0 0 1 1.695-.524c.556-.007 1.1.166 1.549.494.477.368.798.904.896 1.5h-5.027ZM106.719 15.957V14.26h-2.544v9.87h2.544v-4.717c0-.948.305-1.625.917-2.034a2.99 2.99 0 0 1 2.08-.473v-2.842a3.574 3.574 0 0 0-1.824.473 2.65 2.65 0 0 0-1.173 1.421ZM115.516 13.986a5.164 5.164 0 0 0-5.02 4.208 5.18 5.18 0 0 0 3.128 5.758 5.166 5.166 0 0 0 6.257-1.934 5.181 5.181 0 0 0-.658-6.522 5.027 5.027 0 0 0-3.707-1.51Zm1.912 7.166a2.588 2.588 0 0 1-1.912.768 2.559 2.559 0 0 1-1.904-.768 2.896 2.896 0 0 1 0-3.91 2.559 2.559 0 0 1 1.904-.768 2.596 2.596 0 0 1 1.912.769 2.865 2.865 0 0 1 0 3.909ZM126.078 21.094h-3.096v3.04h3.096v-3.04Z"/><path d="M126.078 21.094h-3.096v3.04h3.096v-3.04Z"/></g><defs><clipPath id="a"><path fill="#fff" d="M.73.5H126.27v34H.73z"/></clipPath></defs></svg>