<svg width="20" height="21" viewBox="0 0 20 21" fill="none" xmlns="http://www.w3.org/2000/svg">
<path d="M17.5 10.0117C17.5 5.86958 14.1421 2.51172 10 2.51172C5.85786 2.51172 2.5 5.86958 2.5 10.0117C2.5 14.1539 5.85786 17.5117 10 17.5117C14.1421 17.5117 17.5 14.1539 17.5 10.0117Z" stroke="#91929e" stroke-width="1.5" stroke-miterlimit="10"/>
<path d="M14.3284 16.1377L13.7919 15.2491C13.7345 15.1538 13.6494 15.0783 13.5481 15.0325C13.4467 14.9867 13.3339 14.9728 13.2244 14.9926L10.4324 15.4973C10.3098 15.5194 10.1833 15.4992 10.0737 15.44L8.53008 14.6052C8.46608 14.5706 8.40961 14.5236 8.36394 14.4669L7.33343 13.1891C7.26508 13.1044 7.22349 13.0012 7.21393 12.8927C7.20437 12.7843 7.22728 12.6754 7.27975 12.5801L7.58887 12.018C7.65272 11.9019 7.75643 11.8128 7.88083 11.7672L8.17357 11.6599C8.27185 11.6238 8.35777 11.5605 8.42121 11.4772C8.48464 11.3939 8.52294 11.2943 8.5316 11.1899C8.54025 11.0856 8.51889 10.981 8.47004 10.8884C8.42119 10.7959 8.34688 10.7192 8.25589 10.6674L7.60703 10.2986C7.54212 10.2617 7.48542 10.2119 7.44041 10.1523C7.39539 10.0927 7.363 10.0246 7.34523 9.9521C7.32745 9.87958 7.32466 9.80419 7.33702 9.73055C7.34938 9.65692 7.37664 9.58658 7.41712 9.52384L8.14379 8.39771C8.20382 8.30467 8.23431 8.19566 8.23126 8.08497C8.2282 7.97429 8.19174 7.86712 8.12667 7.77754C8.06159 7.68796 7.97094 7.62016 7.86663 7.58304C7.76231 7.54591 7.64921 7.54121 7.54217 7.56954V7.56954C7.41852 7.60227 7.28733 7.59079 7.17125 7.53708C7.05516 7.48337 6.96149 7.39081 6.90639 7.27537L6.16569 5.72342C6.1137 5.61448 6.02724 5.52572 5.91971 5.47088C5.81218 5.41605 5.68956 5.39819 5.57085 5.42007L3.83594 5.73992" stroke="#91929e" stroke-width="1.5" stroke-linecap="round" stroke-linejoin="round"/>
<path d="M15.6273 5.05653L14.4869 6.19469C14.4358 6.24567 14.3953 6.30622 14.3676 6.37288C14.34 6.43954 14.3258 6.511 14.3258 6.58317L14.3258 7.47654C14.3258 7.55537 14.3088 7.63328 14.276 7.70496C14.2432 7.77665 14.1953 7.84042 14.1356 7.89194C14.076 7.94347 14.0059 7.98153 13.9302 8.00355C13.8545 8.02557 13.7749 8.03102 13.697 8.01954L12.4338 7.83354C12.348 7.82091 12.2664 7.78812 12.1957 7.73786C12.125 7.68761 12.0672 7.62132 12.0271 7.54442L11.0544 5.68013C11.0029 5.58135 10.9826 5.46923 10.9964 5.35867C11.0101 5.2481 11.0571 5.14433 11.1312 5.06115L12.888 3.08929" stroke="#91929e" stroke-width="1.5" stroke-linecap="round" stroke-linejoin="round"/>
</svg>
