<svg height="24.003" viewBox="0 0 24 24.003" width="24" xmlns="http://www.w3.org/2000/svg"><path d="m.33.329h23.341v23.341h-23.341z" fill="none"/><path d="m23.641 14.905a12 12 0 1 1 -8.741-14.545 12 12 0 0 1 8.739 14.545z" fill="#2a5ada" transform="translate(0 -.001)"/><path d="m5 4.999h14v14h-14z" fill="none"/><path d="m6.414 0-1.358.781-3.7 2.138-1.356.781v7.4l1.357.781 3.733 2.134 1.357.781 1.357-.781 3.665-2.138 1.357-.781v-7.396l-1.356-.782-3.699-2.137zm-3.7 9.536v-4.276l3.7-2.138 3.7 2.138v4.276l-3.7 2.138z" fill="#fff" transform="translate(5.586 4.605)"/></svg>