<svg width="1em" height="1em" viewBox="0 0 16 16" fill="none" xmlns="http://www.w3.org/2000/svg">
  <path fill-rule="evenodd" clip-rule="evenodd"
    d="M3.95 7.09182V5.90361C3.95 3.74771 5.76325 2 8 2C10.2368 2 12.05 3.74771 12.05 5.90361V7.09182C12.7189 7.13997 13.1544 7.26152 13.4728 7.56839C14 8.07655 14 8.8944 14 10.5301C14 12.1658 14 12.9837 13.4728 13.4918C12.9456 14 12.0971 14 10.4 14H5.6C3.90294 14 3.05442 14 2.52721 13.4918C2 12.9837 2 12.1658 2 10.5301C2 8.8944 2 8.07655 2.52721 7.56839C2.84559 7.26152 3.28115 7.13997 3.95 7.09182ZM4.85 5.90361C4.85 4.2268 6.2603 2.86747 8 2.86747C9.7397 2.86747 11.15 4.2268 11.15 5.90361V7.06231C10.9202 7.06024 10.6709 7.06024 10.4 7.06024H5.6C5.32909 7.06024 5.07981 7.06024 4.85 7.06231V5.90361Z"
    fill="currentColor" />
</svg>
