<svg width="24" height="24" fill="none" xmlns="http://www.w3.org/2000/svg"><g clip-path="url(#a)"><path d="M11.9985 0A12.00142 12.00142 0 0 0 .91065 7.4087a12.00141 12.00141 0 0 0-.68295 6.9341 12.00173 12.00173 0 0 0 3.28454 6.145 12.00179 12.00179 0 0 0 6.14494 3.2845 12.001 12.001 0 0 0 6.93412-.683 12.00087 12.00087 0 0 0 5.3861-4.4202A12.00166 12.00166 0 0 0 24 12.0015a12.0002 12.0002 0 0 0-.9136-4.5928 12.00133 12.00133 0 0 0-2.6015-3.89356A12.00156 12.00156 0 0 0 11.9985 0Zm.1946 12.3963-1.2484 4.2124h6.6772a.3427.3427 0 0 1 .1529.0364.3427.3427 0 0 1 .1833.245.34183.34183 0 0 1-.0082.157l-.5806 2.0002a.45838.45838 0 0 1-.1653.2392.45928.45928 0 0 1-.276.0918H6.72941l1.72444-5.8237-1.90734.5806.42095-1.3615 1.91025-.5806 2.42119-8.181a.45596.45596 0 0 1 .163-.24068.45606.45606 0 0 1 .2754-.09318h2.5837a.34225.34225 0 0 1 .1529.0354.3424.3424 0 0 1 .1849.24327.34214.34214 0 0 1-.0068.1568l-2.0322 6.91809 1.9074-.5806-.4094 1.3848-1.9247.5603Z" fill="#F8FCFE"/></g><defs><clipPath id="a"><path fill="#fff" d="M0 0h24v24H0z"/></clipPath></defs></svg>