<svg viewBox="0 0 20 20" fill="none" xmlns="http://www.w3.org/2000/svg">
  <g clip-path="url(#clip0_1678_83329)">
    <circle cx="10" cy="10" r="10" fill="#141829" />
    <path
      d="M10.0086 4.09055C10.2063 4.84326 10.5048 5.55625 10.8923 6.20732C11.0392 6.09224 11.1828 5.98343 11.3219 5.88179C10.6572 4.73926 10.2753 3.4125 10.2753 2H9.74182C9.74182 3.4125 9.35992 4.73926 8.69531 5.88179C8.83426 5.98343 8.97797 6.09299 9.12484 6.20732C9.51231 5.55625 9.81086 4.84326 10.0086 4.09055Z"
      fill="#E5D540" />
    <path
      d="M14.137 8.69538C13.9798 8.60723 13.8273 8.51115 13.6805 8.40956C13.5201 8.30236 13.3684 8.18803 13.2183 8.06813C13.077 7.95857 12.9404 7.84424 12.8071 7.72119C12.6308 7.55842 12.4601 7.38768 12.2973 7.21143C12.1583 7.30986 12.0147 7.41942 11.8701 7.53455C12.0623 7.75052 12.2679 7.95616 12.4839 8.1459C12.6149 8.2658 12.7506 8.38328 12.892 8.4929C13.0412 8.61274 13.1961 8.72552 13.3541 8.83428C13.5034 8.93592 13.6558 9.032 13.8106 9.12486C14.4649 9.51232 15.1747 9.81088 15.9274 10.0086C15.1747 10.2063 14.4641 10.5048 13.8106 10.8923C13.6558 10.986 13.5034 11.082 13.3541 11.1829C13.1969 11.2925 13.0421 11.4044 12.892 11.5243C12.7506 11.6339 12.6141 11.7513 12.4839 11.8713C12.268 12.061 12.0623 12.2667 11.8701 12.4826C12.0146 12.5977 12.1583 12.7065 12.2973 12.8058C12.4601 12.6295 12.6308 12.4588 12.8071 12.296C12.9404 12.173 13.077 12.0586 13.2183 11.949C13.3676 11.8292 13.5201 11.714 13.6805 11.6076C13.8273 11.506 13.9798 11.4099 14.137 11.3218C15.2796 10.6573 16.6039 10.2753 18.0188 10.2753V9.74178C16.6039 9.74189 15.2796 9.35994 14.137 8.69538Z"
      fill="#E5D540" />
    <path
      d="M6.3383 11.6084C6.49865 11.7155 6.65034 11.8299 6.80042 11.9497C6.94173 12.0594 7.07832 12.1736 7.2117 12.2967C7.38796 12.4595 7.5587 12.6302 7.72147 12.8065C7.86042 12.7081 8.00408 12.5985 8.14864 12.4834C7.95649 12.2674 7.75085 12.0618 7.53488 11.872C7.40385 11.7521 7.26812 11.6346 7.12676 11.525C6.97753 11.4051 6.82269 11.2924 6.66469 11.1836C6.51541 11.082 6.36297 10.9859 6.20818 10.893C5.5539 10.5056 4.84411 10.207 4.0914 10.0093C4.84411 9.81161 5.5547 9.51306 6.20818 9.12559C6.36297 9.03193 6.51541 8.93585 6.66469 8.83501C6.82189 8.72545 6.97668 8.61347 7.12676 8.49363C7.26812 8.38407 7.40466 8.26658 7.53488 8.14664C7.75085 7.95689 7.95649 7.75125 8.14864 7.53528C8.00413 7.42015 7.86042 7.31139 7.72147 7.21216C7.5587 7.38841 7.38796 7.55916 7.2117 7.72192C7.07832 7.84497 6.94173 7.9593 6.80042 8.06887C6.65114 8.18876 6.49871 8.30389 6.3383 8.4103C6.19143 8.51194 6.03899 8.60802 5.88179 8.69612C4.73926 9.36057 3.41486 9.74251 2 9.74251V10.276C3.41486 10.276 4.73926 10.6579 5.88179 11.3225C6.03899 11.4106 6.19143 11.5067 6.3383 11.6084Z"
      fill="#E5D540" />
    <path
      d="M10.0086 15.9281C9.81086 15.1753 9.51231 14.4623 9.12484 13.8113C8.97797 13.9264 8.83426 14.0352 8.69531 14.1368C9.35987 15.2793 9.74182 16.6061 9.74182 18.0186H10.2753C10.2753 16.6061 10.6572 15.2793 11.3219 14.1368C11.1829 14.0352 11.0392 13.9256 10.8923 13.8113C10.5048 14.4623 10.2062 15.1753 10.0086 15.9281Z"
      fill="#E5D540" />
    <path
      d="M13.9862 12.0462C13.829 12.1526 13.6742 12.2677 13.5241 12.3908C14.1863 13.3864 14.4904 14.1764 14.6238 14.625C14.1752 14.4917 13.3852 14.1875 12.3895 13.5254C12.2482 13.4293 12.1013 13.3277 11.9489 13.2181C11.8099 13.1165 11.671 13.0101 11.5241 12.8926C11.3907 12.7854 11.2518 12.671 11.1104 12.5511C11.012 12.4654 10.9103 12.3749 10.8063 12.2812H10.8039C10.6761 12.1637 10.5475 12.0438 10.4164 11.9152L11.7432 10.5884L11.9139 10.4177C12.0417 10.5487 12.1648 10.6797 12.2799 10.8052H12.2823C12.3728 10.9092 12.4641 11.0108 12.5491 11.1125C12.6983 10.9926 12.8532 10.8774 13.0112 10.771C12.9095 10.6511 12.8032 10.528 12.6856 10.4026C12.5705 10.2772 12.4506 10.1406 12.3228 10.0103C12.4506 9.87931 12.5713 9.74358 12.6856 9.61812C12.8032 9.49265 12.9095 9.3696 13.0112 9.24971C12.854 9.1425 12.6992 9.02817 12.5491 8.90828C12.4633 9.00992 12.3728 9.11156 12.2823 9.21556H12.2799C12.1648 9.34102 12.0425 9.47199 11.9139 9.60302L11.7432 9.43233L10.4164 8.10558C10.5474 7.97776 10.6753 7.85706 10.8039 7.73952H10.8063C10.9103 7.64586 11.012 7.55529 11.1104 7.46955C11.2517 7.34971 11.3907 7.23452 11.5241 7.12817C11.671 7.01063 11.8099 6.90428 11.9489 6.80264C12.1013 6.69302 12.2482 6.59143 12.3895 6.49535C13.3852 5.83315 14.1752 5.52908 14.6238 5.3957C14.4904 5.84429 14.1863 6.63436 13.5241 7.63001C13.6734 7.75307 13.8282 7.86739 13.9862 7.97455C15.1367 6.26354 15.2836 5.10988 15.2916 5.04554L15.3344 4.68506L14.974 4.72793C14.9097 4.73585 13.7568 4.88278 12.045 6.03328C11.9037 6.12695 11.7568 6.22779 11.6075 6.34051C11.4686 6.44215 11.3272 6.54856 11.1827 6.66604C11.0469 6.77245 10.908 6.88758 10.7659 7.01063C10.646 7.10906 10.5229 7.21868 10.3999 7.33376H10.3975C10.2697 7.44889 10.141 7.57119 10.01 7.69981L10.0076 7.6974L10.0051 7.69981C9.87412 7.57199 9.7463 7.44889 9.61768 7.33376H9.61527C9.49222 7.21868 9.36997 7.10986 9.24927 7.01063C9.10792 6.88758 8.96897 6.77325 8.83243 6.66604C8.68791 6.54856 8.54661 6.44215 8.40761 6.34051C8.25838 6.22859 8.11146 6.12695 7.97015 6.03328C6.25915 4.88288 5.10549 4.73596 5.04115 4.72804L4.68066 4.68517L4.72354 5.04565C4.73146 5.10999 4.87838 6.26284 6.02883 7.97465C6.18603 7.86825 6.34088 7.75312 6.49091 7.63012C5.82881 6.63441 5.52469 5.84439 5.3913 5.39575C5.83989 5.52913 6.62991 5.83326 7.62556 6.49541C7.76687 6.59148 7.91379 6.69313 8.06623 6.80269C8.20518 6.90433 8.34407 7.01068 8.491 7.12822C8.62438 7.23538 8.76333 7.34976 8.90468 7.4696C9.00312 7.55535 9.10476 7.64591 9.20876 7.73958H9.21117C9.33898 7.85712 9.4676 7.97696 9.59868 8.10563L8.27192 9.43239L8.10118 9.60307C7.97336 9.47205 7.85026 9.34107 7.73513 9.21561H7.73272C7.64221 9.11162 7.55095 9.00997 7.46596 8.90833C7.31673 9.02823 7.16188 9.14336 7.00388 9.24976C7.10552 9.3696 7.21188 9.49271 7.32942 9.61817C7.44449 9.74363 7.56444 9.88022 7.69226 10.0104C7.56444 10.1414 7.44374 10.2772 7.32942 10.4027C7.21188 10.5281 7.10552 10.6511 7.00388 10.7711C7.16108 10.8783 7.31587 10.9926 7.46596 11.1125C7.5517 11.0109 7.64226 10.9092 7.73272 10.8052H7.73513C7.85026 10.6798 7.97256 10.5488 8.10118 10.4178L8.27187 10.5885L9.59863 11.9152C9.4676 12.043 9.33973 12.1637 9.21111 12.2813H9.2087C9.10471 12.3749 9.00306 12.4655 8.90463 12.5512C8.76333 12.6711 8.62433 12.7862 8.49094 12.8926C8.34402 13.0102 8.20512 13.1165 8.06618 13.2182C7.91374 13.3277 7.76681 13.4294 7.62551 13.5254C6.62985 14.1876 5.83984 14.4917 5.39125 14.6251C5.52463 14.1765 5.82876 13.3864 6.49091 12.3908C6.34168 12.2678 6.18683 12.1534 6.02883 12.0462C4.87833 13.7573 4.73146 14.911 4.72354 14.9752L4.68066 15.3357L5.04115 15.2928C5.10549 15.2849 6.25834 15.138 7.97015 13.9875C8.11146 13.8938 8.25838 13.7929 8.40761 13.6802C8.54655 13.5786 8.68791 13.4722 8.83243 13.3546C8.96822 13.2482 9.10711 13.1332 9.24927 13.0101C9.36911 12.9117 9.49222 12.8021 9.61527 12.6869H9.61768C9.7455 12.5718 9.87412 12.4495 10.0051 12.3209L10.0076 12.3233L10.01 12.3209C10.141 12.4487 10.2688 12.5718 10.3975 12.6869H10.3999C10.5229 12.8021 10.6452 12.9108 10.7659 13.0101C10.9072 13.1332 11.0462 13.2475 11.1827 13.3546C11.3272 13.4722 11.4685 13.5785 11.6075 13.6802C11.7568 13.7921 11.9037 13.8938 12.045 13.9875C13.756 15.138 14.9097 15.2848 14.974 15.2928L15.3344 15.3357L15.2916 14.9752C15.2835 14.9109 15.1367 13.758 13.9862 12.0462ZM10.1822 11.3387L10.0084 11.5126L9.83445 11.3387L8.67844 10.1827L8.50459 10.0088L8.67844 9.83494L9.83445 8.67893L10.0084 8.50508L10.1822 8.67893L11.3382 9.83494L11.5121 10.0088L11.3382 10.1827L10.1822 11.3387Z"
      fill="#E5D540" />
  </g>
  <defs>
    <clipPath id="clip0_1678_83329">
      <rect width="20" height="20" fill="white" />
    </clipPath>
  </defs>
</svg>
