<svg xmlns="http://www.w3.org/2000/svg" width="31.25" height="17.748" viewBox="0 0 31.25 17.748">
  <path id="ic_medium_" data-name="ic_medium&apos;" d="M8.813-18.249A8.844,8.844,0,0,0,0-9.375,8.844,8.844,0,0,0,8.813-.5a8.844,8.844,0,0,0,8.813-8.874A8.844,8.844,0,0,0,8.813-18.249Zm14.075.52c-2.434,0-4.406,3.741-4.406,8.354S20.455-1.02,22.888-1.02,27.3-4.762,27.3-9.375h0c0-4.614-1.973-8.354-4.407-8.354Zm6.812.87c-.856,0-1.55,3.351-1.55,7.484s.693,7.484,1.55,7.484,1.55-3.352,1.55-7.484-.694-7.484-1.55-7.484Z" transform="translate(0 18.249)" fill="#91929e"/>
</svg>
