<svg id="ic_mim_24" xmlns="http://www.w3.org/2000/svg" width="24" height="24" viewBox="0 0 24 24">
  <rect id="Rectangle_179" data-name="Rectangle 179" width="24" height="24" fill="none"/>
  <path id="Path_1467" data-name="Path 1467" d="M22.985,14.492A11.664,11.664,0,1,1,14.488.35a11.665,11.665,0,0,1,8.5,14.142h0Z" transform="translate(0.333 0.333)" fill="#101124"/>
  <g id="MIM" transform="translate(2.666 2.67)">
    <rect id="Rectangle_229" data-name="Rectangle 229" width="1.556" height="1.556" transform="translate(4.667 7.778) rotate(180)" fill="#fed955"/>
    <rect id="Rectangle_230" data-name="Rectangle 230" width="1.556" height="1.556" transform="translate(4.667 10.889) rotate(180)" fill="#fed955"/>
    <rect id="Rectangle_231" data-name="Rectangle 231" width="1.556" height="1.556" transform="translate(4.667 9.334) rotate(180)" fill="#fed955"/>
    <rect id="Rectangle_232" data-name="Rectangle 232" width="1.556" height="1.556" transform="translate(4.667 12.445) rotate(180)" fill="#fed955"/>
    <rect id="Rectangle_233" data-name="Rectangle 233" width="1.556" height="1.556" transform="translate(10.889 4.667) rotate(180)" fill="#fed955"/>
    <rect id="Rectangle_234" data-name="Rectangle 234" width="1.556" height="1.556" transform="translate(10.889 15.556) rotate(180)" fill="#fed955"/>
    <rect id="Rectangle_235" data-name="Rectangle 235" width="1.556" height="1.556" transform="translate(12.445 4.667) rotate(180)" fill="#fed955"/>
    <rect id="Rectangle_236" data-name="Rectangle 236" width="1.556" height="1.556" transform="translate(14 4.667) rotate(180)" fill="#9695f8"/>
    <rect id="Rectangle_237" data-name="Rectangle 237" width="1.556" height="1.556" transform="translate(4.667 3.111)" fill="#9695f8"/>
    <rect id="Rectangle_238" data-name="Rectangle 238" width="1.556" height="1.556" transform="translate(14 12.445)" fill="#9695f8"/>
    <rect id="Rectangle_239" data-name="Rectangle 239" width="1.556" height="1.556" transform="translate(4.667 14) rotate(180)" fill="#9695f8"/>
    <rect id="Rectangle_240" data-name="Rectangle 240" width="1.556" height="1.556" transform="translate(12.445 3.111) rotate(180)" fill="#9695f8"/>
    <rect id="Rectangle_241" data-name="Rectangle 241" width="1.556" height="1.556" transform="translate(12.445 1.556) rotate(180)" fill="#5552fd"/>
    <rect id="Rectangle_242" data-name="Rectangle 242" width="1.556" height="1.556" transform="translate(12.445 18.667) rotate(180)" fill="#5552fd"/>
    <rect id="Rectangle_243" data-name="Rectangle 243" width="1.556" height="1.556" transform="translate(12.445 17.112) rotate(180)" fill="#9695f8"/>
    <rect id="Rectangle_244" data-name="Rectangle 244" width="1.556" height="1.556" transform="translate(9.334 3.111) rotate(180)" fill="#9695f8"/>
    <rect id="Rectangle_245" data-name="Rectangle 245" width="1.556" height="1.556" transform="translate(9.334 1.556) rotate(180)" fill="#5552fd"/>
    <rect id="Rectangle_246" data-name="Rectangle 246" width="1.556" height="1.556" transform="translate(9.334 18.667) rotate(180)" fill="#5552fd"/>
    <rect id="Rectangle_247" data-name="Rectangle 247" width="1.556" height="1.556" transform="translate(9.334 17.112) rotate(180)" fill="#9695f8"/>
    <rect id="Rectangle_248" data-name="Rectangle 248" width="1.556" height="1.556" transform="translate(10.889 3.111) rotate(180)" fill="#9695f8"/>
    <rect id="Rectangle_249" data-name="Rectangle 249" width="1.556" height="1.556" transform="translate(10.889 1.556) rotate(180)" fill="#5552fd"/>
    <rect id="Rectangle_250" data-name="Rectangle 250" width="1.556" height="1.556" transform="translate(10.889 18.667) rotate(180)" fill="#5552fd"/>
    <rect id="Rectangle_251" data-name="Rectangle 251" width="1.556" height="1.556" transform="translate(10.889 17.112) rotate(180)" fill="#9695f8"/>
    <rect id="Rectangle_252" data-name="Rectangle 252" width="1.556" height="1.556" transform="translate(7.778 3.111) rotate(180)" fill="#9695f8"/>
    <rect id="Rectangle_253" data-name="Rectangle 253" width="1.556" height="1.556" transform="translate(7.778 1.556) rotate(180)" fill="#5552fd"/>
    <rect id="Rectangle_254" data-name="Rectangle 254" width="1.556" height="1.556" transform="translate(7.778 18.667) rotate(180)" fill="#5552fd"/>
    <rect id="Rectangle_255" data-name="Rectangle 255" width="1.556" height="1.556" transform="translate(7.778 17.112) rotate(180)" fill="#9695f8"/>
    <rect id="Rectangle_256" data-name="Rectangle 256" width="1.556" height="1.556" transform="translate(15.556 6.222) rotate(180)" fill="#9695f8"/>
    <rect id="Rectangle_257" data-name="Rectangle 257" width="1.556" height="1.556" transform="translate(3.111 4.667)" fill="#9695f8"/>
    <rect id="Rectangle_258" data-name="Rectangle 258" width="1.556" height="1.556" transform="translate(12.445 14)" fill="#9695f8"/>
    <rect id="Rectangle_259" data-name="Rectangle 259" width="1.556" height="1.556" transform="translate(6.222 15.556) rotate(180)" fill="#9695f8"/>
    <rect id="Rectangle_260" data-name="Rectangle 260" width="1.556" height="1.556" transform="translate(17.112 7.778) rotate(180)" fill="#9695f8"/>
    <rect id="Rectangle_261" data-name="Rectangle 261" width="1.556" height="1.556" transform="translate(3.111 7.778) rotate(180)" fill="#9695f8"/>
    <rect id="Rectangle_262" data-name="Rectangle 262" width="1.556" height="1.556" transform="translate(1.556 7.778) rotate(180)" fill="#5552fd"/>
    <rect id="Rectangle_263" data-name="Rectangle 263" width="1.556" height="1.556" transform="translate(3.111 6.222) rotate(180)" fill="#5552fd"/>
    <rect id="Rectangle_264" data-name="Rectangle 264" width="1.556" height="1.556" transform="translate(15.556 4.667)" fill="#5552fd"/>
    <rect id="Rectangle_265" data-name="Rectangle 265" width="1.556" height="1.556" transform="translate(14 17.112) rotate(180)" fill="#5552fd"/>
    <rect id="Rectangle_266" data-name="Rectangle 266" width="1.556" height="1.556" transform="translate(1.556 14) rotate(-90)" fill="#5552fd"/>
    <rect id="Rectangle_267" data-name="Rectangle 267" width="1.556" height="1.556" transform="translate(4.667 4.667) rotate(180)" fill="#5552fd"/>
    <rect id="Rectangle_268" data-name="Rectangle 268" width="1.556" height="1.556" transform="translate(14 3.111)" fill="#5552fd"/>
    <rect id="Rectangle_269" data-name="Rectangle 269" width="1.556" height="1.556" transform="translate(15.556 15.556) rotate(180)" fill="#5552fd"/>
    <rect id="Rectangle_270" data-name="Rectangle 270" width="1.556" height="1.556" transform="translate(3.111 15.556) rotate(-90)" fill="#5552fd"/>
    <rect id="Rectangle_271" data-name="Rectangle 271" width="1.556" height="1.556" transform="translate(6.222 3.111) rotate(180)" fill="#5552fd"/>
    <rect id="Rectangle_272" data-name="Rectangle 272" width="1.556" height="1.556" transform="translate(12.445 1.556)" fill="#5552fd"/>
    <rect id="Rectangle_273" data-name="Rectangle 273" width="1.556" height="1.556" transform="translate(17.112 14) rotate(180)" fill="#5552fd"/>
    <rect id="Rectangle_274" data-name="Rectangle 274" width="1.556" height="1.556" transform="translate(4.667 17.112) rotate(-90)" fill="#5552fd"/>
    <rect id="Rectangle_275" data-name="Rectangle 275" width="1.556" height="1.556" transform="translate(18.667 7.778) rotate(180)" fill="#5552fd"/>
    <rect id="Rectangle_276" data-name="Rectangle 276" width="1.556" height="1.556" transform="translate(17.112 9.334) rotate(180)" fill="#9695f8"/>
    <rect id="Rectangle_277" data-name="Rectangle 277" width="1.556" height="1.556" transform="translate(3.111 9.334) rotate(180)" fill="#9695f8"/>
    <rect id="Rectangle_278" data-name="Rectangle 278" width="1.556" height="1.556" transform="translate(1.556 9.334) rotate(180)" fill="#5552fd"/>
    <rect id="Rectangle_279" data-name="Rectangle 279" width="1.556" height="1.556" transform="translate(18.667 9.334) rotate(180)" fill="#5552fd"/>
    <rect id="Rectangle_280" data-name="Rectangle 280" width="1.556" height="1.556" transform="translate(17.112 10.889) rotate(180)" fill="#9695f8"/>
    <rect id="Rectangle_281" data-name="Rectangle 281" width="1.556" height="1.556" transform="translate(3.111 10.889) rotate(180)" fill="#9695f8"/>
    <rect id="Rectangle_282" data-name="Rectangle 282" width="1.556" height="1.556" transform="translate(1.556 10.889) rotate(180)" fill="#5552fd"/>
    <rect id="Rectangle_283" data-name="Rectangle 283" width="1.556" height="1.556" transform="translate(18.667 10.889) rotate(180)" fill="#5552fd"/>
    <rect id="Rectangle_284" data-name="Rectangle 284" width="1.556" height="1.556" transform="translate(17.112 12.445) rotate(180)" fill="#9695f8"/>
    <rect id="Rectangle_285" data-name="Rectangle 285" width="1.556" height="1.556" transform="translate(3.111 12.445) rotate(180)" fill="#9695f8"/>
    <rect id="Rectangle_286" data-name="Rectangle 286" width="1.556" height="1.556" transform="translate(1.556 12.445) rotate(180)" fill="#5552fd"/>
    <rect id="Rectangle_287" data-name="Rectangle 287" width="1.556" height="1.556" transform="translate(18.667 12.445) rotate(180)" fill="#5552fd"/>
    <rect id="Rectangle_288" data-name="Rectangle 288" width="1.556" height="1.556" transform="translate(12.445 15.556) rotate(180)" fill="#fed955"/>
    <rect id="Rectangle_289" data-name="Rectangle 289" width="1.556" height="1.556" transform="translate(10.889 7.778) rotate(180)" fill="#fed955"/>
    <rect id="Rectangle_290" data-name="Rectangle 290" width="1.556" height="1.556" transform="translate(10.889 10.889) rotate(180)" fill="#fed955"/>
    <rect id="Rectangle_291" data-name="Rectangle 291" width="1.556" height="1.556" transform="translate(10.889 12.445) rotate(180)" fill="#fed955"/>
    <rect id="Rectangle_292" data-name="Rectangle 292" width="1.556" height="1.556" transform="translate(10.889 6.222) rotate(180)" fill="#fed955"/>
    <rect id="Rectangle_293" data-name="Rectangle 293" width="1.556" height="1.556" transform="translate(10.889 14.001) rotate(180)" fill="#fed955"/>
    <rect id="Rectangle_294" data-name="Rectangle 294" width="1.556" height="1.556" transform="translate(7.778 10.889) rotate(180)" fill="#fed955"/>
    <rect id="Rectangle_295" data-name="Rectangle 295" width="1.556" height="1.556" transform="translate(7.778 9.334) rotate(180)" fill="#fed955"/>
    <rect id="Rectangle_296" data-name="Rectangle 296" width="1.556" height="1.556" transform="translate(7.778 12.445) rotate(180)" fill="#fed955"/>
    <rect id="Rectangle_297" data-name="Rectangle 297" width="1.556" height="1.556" transform="translate(7.778 6.222) rotate(180)" fill="#fed955"/>
    <rect id="Rectangle_298" data-name="Rectangle 298" width="1.556" height="1.556" transform="translate(7.778 14.001) rotate(180)" fill="#fed955"/>
    <rect id="Rectangle_299" data-name="Rectangle 299" width="1.556" height="1.556" transform="translate(12.445 10.889) rotate(180)" fill="#fed955"/>
    <rect id="Rectangle_300" data-name="Rectangle 300" width="1.556" height="1.556" transform="translate(12.445 9.334) rotate(180)" fill="#fed955"/>
    <rect id="Rectangle_301" data-name="Rectangle 301" width="1.556" height="1.556" transform="translate(12.445 12.445) rotate(180)" fill="#fed955"/>
    <rect id="Rectangle_302" data-name="Rectangle 302" width="1.556" height="1.556" transform="translate(12.445 6.222) rotate(180)" fill="#fed955"/>
    <rect id="Rectangle_303" data-name="Rectangle 303" width="1.556" height="1.556" transform="translate(12.445 14.001) rotate(180)" fill="#fed955"/>
    <rect id="Rectangle_304" data-name="Rectangle 304" width="1.556" height="1.556" transform="translate(9.334 4.667) rotate(180)" fill="#fed955"/>
    <rect id="Rectangle_305" data-name="Rectangle 305" width="1.556" height="1.556" transform="translate(9.334 15.556) rotate(180)" fill="#fed955"/>
    <rect id="Rectangle_306" data-name="Rectangle 306" width="1.556" height="1.556" transform="translate(7.778 4.667) rotate(180)" fill="#fed955"/>
    <rect id="Rectangle_307" data-name="Rectangle 307" width="1.556" height="1.556" transform="translate(7.778 15.556) rotate(180)" fill="#fed955"/>
    <rect id="Rectangle_308" data-name="Rectangle 308" width="1.556" height="1.556" transform="translate(9.334 7.778) rotate(180)" fill="#fed955"/>
    <rect id="Rectangle_309" data-name="Rectangle 309" width="1.556" height="1.556" transform="translate(9.334 10.889) rotate(180)" fill="#fed955"/>
    <rect id="Rectangle_310" data-name="Rectangle 310" width="1.556" height="1.556" transform="translate(7.778 7.778) rotate(180)" fill="#5552fd"/>
    <rect id="Rectangle_311" data-name="Rectangle 311" width="1.556" height="1.556" transform="translate(10.889 9.334) rotate(180)" fill="#5552fd"/>
    <rect id="Rectangle_312" data-name="Rectangle 312" width="1.556" height="1.556" transform="translate(14 7.778) rotate(180)" fill="#5552fd"/>
    <rect id="Rectangle_313" data-name="Rectangle 313" width="1.556" height="1.556" transform="translate(14 10.889) rotate(180)" fill="#5552fd"/>
    <rect id="Rectangle_314" data-name="Rectangle 314" width="1.556" height="1.556" transform="translate(14 9.334) rotate(180)" fill="#5552fd"/>
    <rect id="Rectangle_315" data-name="Rectangle 315" width="1.556" height="1.556" transform="translate(14 12.445) rotate(180)" fill="#5552fd"/>
    <rect id="Rectangle_316" data-name="Rectangle 316" width="1.556" height="1.556" transform="translate(14 6.222) rotate(180)" fill="#5552fd"/>
    <rect id="Rectangle_317" data-name="Rectangle 317" width="1.556" height="1.556" transform="translate(14 14.001) rotate(180)" fill="#5552fd"/>
    <rect id="Rectangle_318" data-name="Rectangle 318" width="1.556" height="1.556" transform="translate(6.222 7.778) rotate(180)" fill="#5552fd"/>
    <rect id="Rectangle_319" data-name="Rectangle 319" width="1.556" height="1.556" transform="translate(6.222 10.889) rotate(180)" fill="#5552fd"/>
    <rect id="Rectangle_320" data-name="Rectangle 320" width="1.556" height="1.556" transform="translate(6.222 9.334) rotate(180)" fill="#5552fd"/>
    <rect id="Rectangle_321" data-name="Rectangle 321" width="1.556" height="1.556" transform="translate(6.222 12.445) rotate(180)" fill="#5552fd"/>
    <rect id="Rectangle_322" data-name="Rectangle 322" width="1.556" height="1.556" transform="translate(6.222 6.222) rotate(180)" fill="#5552fd"/>
    <rect id="Rectangle_323" data-name="Rectangle 323" width="1.556" height="1.556" transform="translate(6.222 14.001) rotate(180)" fill="#5552fd"/>
    <rect id="Rectangle_324" data-name="Rectangle 324" width="1.556" height="1.556" transform="translate(12.445 7.778) rotate(180)" fill="#5552fd"/>
    <rect id="Rectangle_325" data-name="Rectangle 325" width="1.556" height="1.556" transform="translate(9.334 9.334) rotate(180)" fill="#5552fd"/>
    <rect id="Rectangle_326" data-name="Rectangle 326" width="1.556" height="1.556" transform="translate(9.334 12.445) rotate(180)" fill="#fed955"/>
    <rect id="Rectangle_327" data-name="Rectangle 327" width="1.556" height="1.556" transform="translate(9.334 6.222) rotate(180)" fill="#fed955"/>
    <rect id="Rectangle_328" data-name="Rectangle 328" width="1.556" height="1.556" transform="translate(9.334 14.001) rotate(180)" fill="#fed955"/>
    <rect id="Rectangle_329" data-name="Rectangle 329" width="1.556" height="1.556" transform="translate(15.556 7.778) rotate(180)" fill="#fed955"/>
    <rect id="Rectangle_330" data-name="Rectangle 330" width="1.556" height="1.556" transform="translate(15.556 10.889) rotate(180)" fill="#fed955"/>
    <rect id="Rectangle_331" data-name="Rectangle 331" width="1.556" height="1.556" transform="translate(15.556 9.334) rotate(180)" fill="#fed955"/>
    <rect id="Rectangle_332" data-name="Rectangle 332" width="1.556" height="1.556" transform="translate(15.556 12.445) rotate(180)" fill="#fed955"/>
  </g>
</svg>
