<svg viewBox="0 0 20 20" fill="none" xmlns="http://www.w3.org/2000/svg">
  <g clip-path="url(#clip0_1686_108654)">
    <circle cx="10" cy="10" r="10" fill="#2973FF" />
    <g clip-path="url(#clip1_1686_108654)">
      <mask id="mask0_1686_108654" style="mask-type:luminance" maskUnits="userSpaceOnUse" x="4"
        y="4" width="12" height="12">
        <path d="M16 4H4V16H16V4Z" fill="white" />
      </mask>
      <g mask="url(#mask0_1686_108654)">
        <path
          d="M5.40137 12.1088V15.5636C5.40137 15.7763 5.5692 15.8645 5.62141 15.8846C5.67363 15.9087 5.84891 15.9608 6.00554 15.8043L8.44251 13.2927C8.65005 13.0789 8.85034 12.854 9.00085 12.591C9.0717 12.4673 9.10107 12.3977 9.10107 12.3977C9.25026 12.0727 9.25026 11.7597 9.10475 11.4467C8.88853 10.9813 8.33651 10.5078 7.5048 10.0583L6.08387 10.909C5.66244 11.1658 5.40137 11.6193 5.40137 12.1088Z"
          fill="white" fill-opacity="0.8" />
        <path
          d="M4 4.42465V8.04801C4 8.50141 4.28345 8.90267 4.68624 9.03107C6.05871 9.45641 8.44932 10.3713 9.02742 11.7155C9.10195 11.892 9.14672 12.0646 9.16174 12.2451C9.54585 11.4948 9.72113 10.6321 9.63909 9.75734C9.52715 8.51747 8.91549 7.38994 7.96078 6.67169L4.55571 4.11568C4.49603 4.06753 4.42517 4.04346 4.35431 4.04346C4.29463 4.04346 4.24242 4.0555 4.18648 4.0876C4.07459 4.15581 4 4.2802 4 4.42465Z"
          fill="white" />
        <path
          d="M14.4654 12.1088V15.5636C14.4654 15.7763 14.2976 15.8645 14.2453 15.8846C14.1932 15.9087 14.0178 15.9608 13.8612 15.8043L11.3675 13.2343C11.1978 13.0593 11.0357 12.8743 10.9078 12.6622C10.8065 12.4944 10.7657 12.3977 10.7657 12.3977C10.6165 12.0727 10.6165 11.7597 10.7619 11.4467C10.9782 10.9813 11.5303 10.5078 12.3619 10.0583L13.7828 10.909C14.2081 11.1658 14.4654 11.6193 14.4654 12.1088Z"
          fill="white" fill-opacity="0.8" />
        <path
          d="M15.8689 4.42441V8.04776C15.8689 8.50116 15.5854 8.90242 15.1826 9.03083C13.8101 9.45616 11.4195 10.371 10.8415 11.7152C10.7668 11.8918 10.722 12.0643 10.7071 12.2449C10.323 11.4946 10.1477 10.6318 10.2298 9.75711C10.3416 8.51722 10.9532 7.3897 11.9081 6.67144L15.3132 4.11544C15.3728 4.06729 15.4437 4.04321 15.5145 4.04321C15.5742 4.04321 15.6265 4.05525 15.6823 4.08735C15.7942 4.15557 15.8689 4.27996 15.8689 4.42441Z"
          fill="white" />
      </g>
    </g>
  </g>
  <defs>
    <clipPath id="clip0_1686_108654">
      <rect width="20" height="20" fill="white" />
    </clipPath>
    <clipPath id="clip1_1686_108654">
      <rect width="12" height="12" fill="white" transform="translate(4 4)" />
    </clipPath>
  </defs>
</svg>
