<svg width="24" height="24" viewBox="0 0 64 64" fill="none" xmlns="http://www.w3.org/2000/svg">
<g clip-path="url(#clip0_1106_47937)">
<circle cx="32" cy="32" r="32" fill="black"/>
<path d="M29.9927 39.5375C30.6441 39.7115 31.3198 39.7976 32.0012 39.7977H32.0199V56H32.0012C30.7579 56 29.5118 55.9032 28.2925 55.7141L29.5256 47.7734C28.976 47.6893 28.4324 47.5748 27.8978 47.4336L29.9927 39.5398V39.5375ZM39.9369 45.6992C40.4115 45.4227 40.8749 45.1207 41.3195 44.7992L46.1352 51.3969C45.1227 52.136 44.0432 52.7996 42.9286 53.3703L39.2643 46.2172C38.5194 46.5986 37.7506 46.9221 36.9546 47.1805L39.4465 54.8188C38.2569 55.2061 37.0221 55.5041 35.7846 55.7023L34.5024 47.6352C35.046 47.548 35.5845 47.4317 36.1162 47.2906L34.0307 39.5328C34.6855 39.3556 35.3172 39.0948 35.906 38.7523L39.9369 45.6992ZM24.8408 46.1281C25.5765 46.5034 26.3479 46.8227 27.1318 47.075L24.6236 54.8469C23.4311 54.4593 22.2595 53.9756 21.1391 53.4078L24.8408 46.1281ZM26.4942 37.5266C26.9779 38.0102 27.5231 38.4268 28.115 38.7664L24.0374 45.8422L24.035 45.8445C23.5545 45.5653 23.0889 45.2619 22.6384 44.9375L17.9209 51.4414C16.9088 50.7056 15.9437 49.8869 15.0577 49.0039L26.4942 37.5266ZM45.8362 39.9711C45.5601 40.4514 45.2542 40.9176 44.9301 41.368L51.4296 46.0883C50.6936 47.1007 49.873 48.0661 48.9867 48.9523L37.5174 37.5102C38.0006 37.0269 38.4183 36.4812 38.7576 35.893L38.7622 35.8883L45.8362 39.9711ZM24.4647 34.0367C24.6418 34.6909 24.9028 35.3212 25.2448 35.9094L18.3039 39.9453H18.2992C18.5786 40.4199 18.8762 40.8835 19.2007 41.3281L12.6078 46.1469C11.8688 45.1345 11.2052 44.0575 10.6344 42.943L17.7831 39.275C17.4017 38.5332 17.0792 37.7617 16.8209 36.9688L9.18173 39.4648C8.79419 38.2722 8.49721 37.04 8.29893 35.7992L16.3655 34.5125C16.4496 35.0562 16.5669 35.5956 16.7111 36.1273L24.4647 34.0367ZM54.8393 39.3898C54.4549 40.5822 53.9683 41.7576 53.4007 42.875L46.1211 39.1695C46.4937 38.4336 46.8117 37.6614 47.067 36.8773L54.8393 39.3898ZM56 32C55.9999 33.2464 55.905 34.4995 55.7127 35.7219L47.7723 34.4844C47.6852 35.0337 47.573 35.5736 47.429 36.1109L39.5376 34.0109C39.7116 33.3596 39.7991 32.6844 39.7992 32H56ZM24.4601 29.9891C24.286 30.6408 24.1985 31.3175 24.1985 32.0023H8C8 30.7555 8.09499 29.5009 8.28726 28.2781L16.2277 29.518C16.3148 28.9685 16.4246 28.4265 16.5687 27.8891L24.4601 29.9891ZM51.3922 17.8555C52.131 18.8676 52.7951 19.9459 53.3656 21.057L46.2146 24.725C46.5961 25.4671 46.9184 26.2404 47.1768 27.0336L54.8159 24.5352C55.2034 25.7277 55.5005 26.9602 55.6987 28.2008L47.6345 29.4875C47.5503 28.9438 47.4331 28.4044 47.2889 27.8727L39.5329 29.9656C39.3557 29.3108 39.0952 28.6793 38.7529 28.0906L45.6961 24.0547H45.6984C45.4192 23.5804 45.1213 23.1185 44.797 22.6742L51.3922 17.8555ZM26.4826 26.4875C25.9991 26.971 25.5818 27.5185 25.2424 28.107L25.2401 28.1117L18.1638 24.0289C18.4401 23.5483 18.7479 23.0827 19.0723 22.632L12.5704 17.9117C13.3065 16.8993 14.127 15.9339 15.0133 15.0477L26.4826 26.4875ZM17.8788 24.8305C17.5064 25.5663 17.1883 26.3387 16.933 27.1227L9.16071 24.6102C9.54523 23.4176 10.0286 22.2425 10.5993 21.125L17.8788 24.8305ZM46.0791 12.5609C47.0913 13.2969 48.0562 14.1177 48.9423 15.0008L37.5034 26.4758C37.02 25.9926 36.4764 25.5753 35.885 25.2359L39.9626 18.1578H39.965C40.4455 18.4371 40.911 18.7405 41.3616 19.0648L46.0791 12.5609ZM29.4929 16.3648C28.9493 16.4519 28.4107 16.5682 27.8791 16.7094L29.9647 24.4672C29.3103 24.6443 28.6777 24.9033 28.0893 25.2453L24.0607 18.3031C23.5861 18.5795 23.1228 18.8793 22.6781 19.2008L17.8625 12.6031C18.8749 11.8641 19.9544 11.2005 21.069 10.6297L24.7333 17.7828C25.4781 17.4014 26.2501 17.0802 27.0431 16.8219L24.5465 9.18125C25.7359 8.79376 26.9708 8.49594 28.2084 8.29766L29.4929 16.3648ZM31.9988 8C33.2421 8.00003 34.4883 8.09677 35.7075 8.28594L34.4767 16.2266L34.4744 16.2289C35.0239 16.313 35.5677 16.4276 36.1022 16.5688L34.0073 24.4625C33.3559 24.2885 32.6802 24.2024 31.9988 24.2023H31.9801V8H31.9988ZM39.3764 9.15781C40.568 9.54503 41.7389 10.0274 42.8586 10.5945L39.1616 17.8742C38.4256 17.4987 37.6522 17.182 36.8682 16.9297L39.3764 9.15781Z" fill="white"/>
</g>
<defs>
<clipPath id="clip0_1106_47937">
<rect width="64" height="64" fill="white"/>
</clipPath>
</defs>
</svg>
