<svg width="40" height="40" viewBox="0 0 40 40" fill="none" xmlns="http://www.w3.org/2000/svg">
<g clip-path="url(#clip0_3_21)">
<path d="M20 40C8.9543 40 0 31.0457 0 20C0 8.9543 8.9543 0 20 0C31.0457 0 40 8.9543 40 20C40 31.0457 31.0457 40 20 40Z" fill="#EC1C24"/>
<path d="M6.45962 19.6272L6.41342 19.6608C6.41342 19.6608 7.38764 8.88561 10.978 3.51482C11.3223 2.99832 12.0572 2.92693 12.4939 3.36365C13.5227 4.39666 15.2066 7.16393 16.8862 11.7831C17.7849 11.6319 18.7171 11.5563 19.6745 11.5563C20.6319 11.5563 21.5642 11.6361 22.4628 11.7831C24.1425 7.16393 25.8264 4.39666 26.851 3.36365C27.2877 2.92693 28.0225 2.99832 28.3669 3.51482C31.953 8.88561 32.9272 19.6608 32.9272 19.6608L32.881 19.6272C33.196 20.551 33.3681 21.521 33.3681 22.5246C33.3681 26.7028 30.4497 30.331 26.1581 32.1828C24.2265 33.0142 22.0177 33.4888 19.6703 33.4888C17.323 33.4888 15.1184 33.0142 13.1867 32.1828C8.89096 30.331 5.97251 26.6986 5.97251 22.5204C5.97251 21.521 6.14468 20.551 6.45962 19.6272Z" fill="white"/>
<path d="M37.1895 28.3156C37.3155 28.3156 37.4414 28.2526 37.517 28.1392C37.643 27.9586 37.5968 27.7067 37.412 27.5849C33.6873 25.0402 31.109 25.7372 30.9998 25.7666C30.7857 25.8254 30.6639 26.048 30.7269 26.2621C30.7857 26.4721 31.0082 26.5981 31.2182 26.5351C31.2476 26.5267 33.5782 25.9304 36.9627 28.2442C37.0341 28.2946 37.1097 28.3156 37.1895 28.3156Z" fill="#231F20"/>
<path d="M35.0773 31.4016C35.1529 31.4016 35.2242 31.3806 35.2956 31.3386C35.4804 31.221 35.535 30.9733 35.4132 30.7885C33.5782 27.9457 30.5211 27.3746 30.391 27.3536C30.1768 27.3158 29.9668 27.4585 29.929 27.6769C29.8913 27.8953 30.034 28.101 30.2524 28.1388C30.2902 28.1472 33.1036 28.6847 34.7413 31.221C34.8169 31.3344 34.9471 31.4016 35.0773 31.4016Z" fill="#231F20"/>
<path d="M2.31082 28.3156C2.3864 28.3156 2.46619 28.2946 2.53338 28.2442C5.92213 25.9304 8.25689 26.5309 8.27789 26.5351C8.48785 26.5939 8.71041 26.4679 8.7692 26.2579C8.82799 26.048 8.70621 25.8254 8.49625 25.7666C8.38707 25.7372 5.80876 25.0402 2.08406 27.5849C1.90349 27.7109 1.8531 27.9586 1.97908 28.1392C2.05886 28.2568 2.18064 28.3156 2.31082 28.3156Z" fill="#231F20"/>
<path d="M4.42295 31.4016C4.55312 31.4016 4.6833 31.3386 4.75889 31.221C6.40497 28.6679 9.22264 28.143 9.24783 28.1388C9.46619 28.101 9.60897 27.8953 9.57117 27.6769C9.53338 27.4585 9.32342 27.3158 9.10926 27.3536C8.97909 27.3746 5.92207 27.9457 4.08701 30.7885C3.96943 30.9733 4.01982 31.221 4.20459 31.3386C4.27178 31.3806 4.34736 31.4016 4.42295 31.4016Z" fill="#231F20"/>
<path d="M23.0886 21.4329C23.1306 23.4905 24.8061 25.145 26.8721 25.145C28.9381 25.145 30.6598 23.4486 30.6598 21.3574C30.6598 20.7527 30.517 20.1858 30.2651 19.6819L23.0886 21.4329Z" fill="#A7DFF8"/>
<path d="M24.319 21.1306C24.3106 21.2146 24.2938 21.3826 24.2938 21.4666C24.2938 22.8271 25.3982 23.9315 26.7587 23.9315C28.1192 23.9315 29.2236 22.8271 29.2236 21.4666C29.2236 20.9669 29.0095 20.4378 28.7575 20.0515L24.319 21.1306Z" fill="#231F20"/>
<path d="M16.6762 21.4329C16.6342 23.4905 14.9588 25.145 12.8927 25.145C10.8015 25.145 9.10506 23.4486 9.10506 21.3574C9.10506 20.7527 9.24783 20.1858 9.49979 19.6819L16.6762 21.4329Z" fill="#A7DFF8"/>
<path d="M15.4208 21.0971C15.4292 21.181 15.4712 21.3826 15.4712 21.4666C15.4712 22.8271 14.3668 23.9315 13.0063 23.9315C11.6457 23.9315 10.5413 22.8271 10.5413 21.4666C10.5413 20.9669 10.7303 20.4378 10.9822 20.0515L15.4208 21.0971Z" fill="#231F20"/>
<path d="M18.8684 28.6135C19.2463 28.6135 19.6537 28.5001 20.0484 28.1936C21.1108 29.0208 22.2656 28.4498 22.7569 27.9962C22.9207 27.8451 22.9291 27.5931 22.7779 27.4335C22.6267 27.274 22.3748 27.2614 22.2152 27.4126C22.1186 27.5007 21.22 28.2692 20.3759 27.4252C20.3003 27.3496 20.1996 27.3076 20.0946 27.3076H20.0022C19.8972 27.3076 19.7964 27.3496 19.7209 27.4252C18.8768 28.2692 17.9782 27.5049 17.8816 27.4126C17.7178 27.2656 17.4659 27.274 17.3189 27.4377C17.1719 27.5973 17.1803 27.8493 17.3399 28.0004C17.6506 28.2818 18.2217 28.6135 18.8684 28.6135Z" fill="#231F20"/>
<path d="M20.0777 27.19C19.4353 27.19 18.9145 26.9418 18.9145 26.6357C18.9145 26.3295 19.4353 26.0814 20.0777 26.0814C20.7201 26.0814 21.2408 26.3295 21.2408 26.6357C21.2408 26.9418 20.7201 27.19 20.0777 27.19Z" fill="#F7BAD5"/>
<path d="M30.8403 15.995C30.8403 15.995 30.2104 9.01171 27.884 5.53057C27.6615 5.19883 27.1869 5.14844 26.9014 5.43399C26.2337 6.10586 24.9866 8.99071 23.8948 12.0015C23.8948 11.9973 25.1587 12.2829 30.8403 15.995Z" fill="#F7BAD5"/>
<path d="M8.37035 15.995C8.37035 15.995 9.00023 9.01171 11.3266 5.53057C11.5491 5.19883 12.0237 5.14844 12.3092 5.43399C12.9769 6.10586 14.2912 8.99071 15.3788 12.0015C15.383 11.9973 13.3968 12.2829 8.37035 15.995Z" fill="#F7BAD5"/>
<path d="M15.6729 14.7856C14.3795 9.94812 21.6105 10.767 21.4468 5.93788C21.43 7.99129 21.8121 10.1707 20.4138 11.8294C22.6771 12.0939 23.3742 9.06629 23.9873 7.65116C24.1805 10.2883 24.6718 14.3909 21.6861 15.5205" fill="#D5E9F8"/>
<path d="M15.0891 14.7856C13.6194 8.7681 21.5643 10.116 21.4047 5.28696C21.3879 7.34037 21.6693 9.2888 20.2751 10.9475C22.5385 11.212 23.3951 8.43216 24.0124 7.01703C24.2056 9.65413 22.7233 14.4916 18.6122 15.5204" fill="white"/>
</g>
<defs>
<clipPath id="clip0_3_21">
<rect width="40" height="40" rx="12" fill="white"/>
</clipPath>
</defs>
</svg>
