<svg height="15.918" viewBox="0 0 31.37 15.918" width="31.37" xmlns="http://www.w3.org/2000/svg"><g fill="#fff" transform="translate(-433.803 -606.652)"><path d="m591 607 .037.007z" transform="translate(-135.463 -.3)"/><path d="m548.183 647.91q-.736.736-1.475 1.471l-.207.207v-.083c.012.014.026.026.039.039l.169-.167z" transform="translate(-97.116 -35.554)"/><path d="m582.623 607-.073.014.062-.014z" transform="translate(-128.182 -.3)"/><path d="m590.953 607.01-.037-.007h-.015.014z" transform="translate(-135.377 -.3)"/><path d="m594.57 608.037-.05-.017.044.014z" transform="translate(-138.497 -1.179)"/><path d="m566.586 655.68h-.019-.014a.042.042 0 0 1 -.014 0c-.077.014-.243.044-.459.073a5.384 5.384 0 0 1 -1.706.007c-.03-.007-.061-.015-.09-.024h-.014l-.047-.014a7.946 7.946 0 0 1 -3.36-2.36c-1.642-1.709-3.349-3.357-5-5.008l1.784-1.688c.543.554 1.195 1.232 1.857 1.9q1.972 1.983 3.957 3.956a2.883 2.883 0 0 0 1.81.863 2.459 2.459 0 0 0 1.951-.741 2.592 2.592 0 0 0 -.086-3.714c-.236-.25-.442-.528-.706-.849l-1.013.953v-3.634h3.6l-.888.989-.036.034.734.8.008.008.241.263.017.018a4.985 4.985 0 0 1 -2.507 8.168z" transform="translate(-105.182 -33.391)"/><path d="m503.22 607.91.037-.007a.394.394 0 0 0 -.037.007z" transform="translate(-59.819 -1.076)"/><path d="m481.563 610.2-1.721 1.713-1.271-1.268a1.582 1.582 0 0 0 -2.52-.012l-.144.142c-.048.047-.1.094-.142.142l-.285.286c-.079.079-.156.158-.234.238l-.235.235q-.236.234-.478.463a1.177 1.177 0 0 1 -1.727.064 1.156 1.156 0 0 1 -.008-1.723c.3-.307.586-.624.883-.929l.182-.184c.055-.055.111-.111.167-.163.1-.1.2-.195.307-.289.065-.058.131-.116.2-.173l.006-.006c.069-.058.14-.115.212-.171q.191-.149.39-.282c.041-.029.084-.057.127-.083s.064-.04.1-.058a4.54 4.54 0 0 1 .444-.236c.047-.022.094-.043.142-.064s.1-.04.145-.059c.026-.01.053-.021.079-.029l.05-.017a4.1 4.1 0 0 1 .448-.131l.037-.007h.015a3.059 3.059 0 0 1 1.081 0l.073.014c.076.017.153.035.232.058l.044.014a6.919 6.919 0 0 1 2.9 2.008z" transform="translate(-33.274 -.776)"/><path d="m536.532 634.993-1.642 1.607 1.64-1.608z" transform="translate(-87.11 -24.42)"/><path d="m546.949 658.52-.166.166s0 0 0 0z" transform="translate(-97.356 -44.697)"/><path d="m511.431 607.9h-.011l.073.014z" transform="translate(-66.885 -1.072)"/><path d="m503.259 607.9c-.012 0-.026.006-.039.01l.037-.007a.056.056 0 0 1 .015 0z" transform="translate(-59.819 -1.072)"/><path d="m499.611 608.933c.017-.007.035-.013.051-.018l-.044.014z" transform="translate(-56.708 -1.951)"/><path d="m524.839 655.5-.149.147q.073-.077.145-.149z" transform="translate(-78.321 -42.095)"/><path d="m516.75 657.651 1.1-1.071c-.33.337-.693.712-1.07 1.1z" transform="translate(-71.479 -43.025)"/><path d="m546.5 659.45c.012.014.026.026.039.039l-.039.039z" transform="translate(-97.116 -45.498)"/><path d="m546.77 633.114.311-.3-.307.308z" transform="translate(-97.348 -22.542)"/><path d="m558.692 647.75v.058l-.022-.036z" transform="translate(-107.603 -35.416)"/><path d="m459.446 611.308a1.177 1.177 0 0 1 -1.727-.064q-.243-.228-.478-.463l-.235-.235c-.077-.08-.155-.159-.234-.238-.094-.1-.189-.191-.285-.286-.047-.048-.094-.1-.142-.142l-.144-.142a1.582 1.582 0 0 0 -2.521.012l-2.591 2.584-.022.022-1.475 1.467-.169.167c-.012-.012-.026-.025-.039-.039v.077l-2.35 2.338-.01-.01c-1.247 1.232-2.507 2.471-3.73 3.744a7.947 7.947 0 0 1 -3.36 2.36l-.047.014h-.014c-.029.008-.059.017-.09.023a5.384 5.384 0 0 1 -1.706-.007c-.216-.029-.382-.06-.459-.073a.039.039 0 0 1 -.014 0h-.014-.019a4.985 4.985 0 0 1 -2.5-8.166l.017-.018.241-.263.008-.008.734-.8-.036-.035-.888-.989h3.6v3.638l-1.013-.953c-.264.321-.47.6-.707.849a2.592 2.592 0 0 0 -.086 3.714 2.459 2.459 0 0 0 1.951.741 2.883 2.883 0 0 0 1.81-.863q1.987-1.97 3.957-3.956c.216-.217.431-.436.642-.651.282-.289.556-.571.814-.835l.256-.263.149-.146 1.172-1.145.089-.086 1.643-1.605.307-.308.008-.008q.728-.732 1.453-1.467a6.919 6.919 0 0 1 2.9-2.008l.044-.014c.079-.024.156-.042.232-.058l.073-.014a3.06 3.06 0 0 1 1.081 0h.015l.037.007a4.1 4.1 0 0 1 .448.131l.05.016c.026.008.053.019.079.029.05.019.1.039.145.059s.1.042.142.064a4.512 4.512 0 0 1 .444.236c.032.018.064.039.1.058s.086.054.127.083q.2.133.39.282c.072.057.142.113.212.171l.006.006c.068.057.134.115.2.173.1.094.206.189.307.289.057.052.112.108.167.163l.182.184c.3.306.588.622.883.929a1.156 1.156 0 0 1 -.01 1.728z"/><path d="m524.839 655.5-.149.147q.073-.077.145-.149z" transform="translate(-78.321 -42.094)"/></g></svg>