<svg width="24" height="24" viewBox="0 0 24 24" fill="none" xmlns="http://www.w3.org/2000/svg">
<g clip-path="url(#clip0_1218_24214)">
<path d="M12 24C18.6274 24 24 18.6274 24 12C24 5.37258 18.6274 0 12 0C5.37258 0 0 5.37258 0 12C0 18.6274 5.37258 24 12 24Z" fill="#6F41D8"/>
<path d="M15.819 9.51975C15.5423 9.3585 15.183 9.3585 14.8785 9.51975L12.7193 10.7603L11.253 11.5688L9.09379 12.8085C8.81704 12.9705 8.45779 12.9705 8.15329 12.8085L6.43729 11.838C6.16054 11.6768 5.96704 11.3805 5.96704 11.0565V9.1425C5.96704 8.81925 6.13279 8.523 6.43729 8.361L8.12479 7.4175C8.40229 7.2555 8.76229 7.2555 9.06679 7.4175L10.7543 8.361C11.0318 8.523 11.2253 8.81925 11.2253 9.1425V10.383L12.6915 9.54675V8.307C12.6932 8.14598 12.6501 7.98766 12.567 7.84969C12.484 7.71171 12.3643 7.59948 12.2213 7.5255L9.09379 5.7465C8.81704 5.5845 8.45779 5.5845 8.15329 5.7465L4.97029 7.5255C4.82726 7.59948 4.70757 7.71171 4.62455 7.84969C4.54153 7.98766 4.49842 8.14598 4.50004 8.307V11.892C4.50004 12.216 4.66579 12.5123 4.97029 12.6743L8.15329 14.4532C8.43004 14.6145 8.79004 14.6145 9.09379 14.4532L11.253 13.2397L12.7193 12.4042L14.8785 11.1915C15.1553 11.0295 15.5145 11.0295 15.819 11.1915L17.5073 12.135C17.7848 12.2963 17.9775 12.5925 17.9775 12.9165V14.8305C17.9775 15.1538 17.8125 15.45 17.5073 15.612L15.8198 16.5825C15.5423 16.7445 15.1823 16.7445 14.8785 16.5825L13.1903 15.639C12.9128 15.477 12.7193 15.1807 12.7193 14.8575V13.617L11.253 14.4532V15.693C11.253 16.0162 11.4188 16.3132 11.7233 16.4745L14.9063 18.2535C15.183 18.4155 15.5423 18.4155 15.8468 18.2535L19.0298 16.4745C19.3065 16.3132 19.5 16.017 19.5 15.693V12.108C19.5017 11.947 19.4586 11.7887 19.3755 11.6507C19.2925 11.5127 19.1728 11.4005 19.0298 11.3265L15.8198 9.51975H15.819Z" fill="white"/>
</g>
<defs>
<clipPath id="clip0_1218_24214">
<rect width="24" height="24" fill="white"/>
</clipPath>
</defs>
</svg>
