<svg width="40" height="40" viewBox="0 0 40 40" fill="none" xmlns="http://www.w3.org/2000/svg">
<g clip-path="url(#clip0_3_21)">
<mask id="mask0_3_21" style="mask-type:luminance" maskUnits="userSpaceOnUse" x="0" y="0" width="40" height="40">
<path d="M20 39.4412C30.7371 39.4412 39.4412 30.7371 39.4412 20C39.4412 9.26292 30.7371 0.558807 20 0.558807C9.26292 0.558807 0.558807 9.26292 0.558807 20C0.558807 30.7371 9.26292 39.4412 20 39.4412Z" fill="white"/>
</mask>
<g mask="url(#mask0_3_21)">
<path fill-rule="evenodd" clip-rule="evenodd" d="M1.87864 -0.710114H5.76178C6.68196 1.80693 5.81901 3.53277 3.17302 4.46741C3.51941 2.69509 2.87222 1.50857 1.23145 0.907864C1.87864 0.692136 2.52583 0.476401 3.17302 0.260673C2.58032 0.0804817 2.14886 -0.243114 1.87864 -0.710114Z" fill="#072234"/>
<path fill-rule="evenodd" clip-rule="evenodd" d="M31.6494 -0.710114H40.7101V0.584269C38.5568 0.0752467 36.3995 0.290975 34.2382 1.23146C35.836 1.66382 37.3461 2.09528 38.7685 2.52584H32.9438C32.5123 1.44719 32.0809 0.36854 31.6494 -0.710114Z" fill="#1E572B"/>
<path fill-rule="evenodd" clip-rule="evenodd" d="M40.7101 0.584262V3.82022C39.9273 3.5406 39.2801 3.10914 38.7685 2.52583C37.3461 2.09527 35.836 1.66381 34.2382 1.23145C36.3995 0.290968 38.5568 0.0752395 40.7101 0.584262Z" fill="#215925"/>
<path fill-rule="evenodd" clip-rule="evenodd" d="M11.5865 -0.710114H14.8225C15.3158 0.430508 16.1787 1.0777 17.4112 1.23146C17.6269 1.66292 17.8427 2.09438 18.0584 2.52584C16.275 3.01387 14.5492 3.01387 12.8809 2.52584C12.6269 1.37138 12.1954 0.292729 11.5865 -0.710114Z" fill="#B2BFBE"/>
<path fill-rule="evenodd" clip-rule="evenodd" d="M14.8225 -0.710114H25.8247V1.23146H23.8832C22.7398 1.72103 21.5533 2.15249 20.3236 2.52584C19.4134 1.93443 18.4426 1.50296 17.4112 1.23146C16.1787 1.0777 15.3158 0.430508 14.8225 -0.710114Z" fill="#235B2F"/>
<path fill-rule="evenodd" clip-rule="evenodd" d="M8.35056 -0.710114H11.5865C12.1954 0.292728 12.6269 1.37138 12.8809 2.52584C12.018 2.52584 11.5865 2.9573 11.5865 3.82022C10.942 3.87573 10.4027 3.66 9.96853 3.17303C9.54449 1.79553 9.00513 0.501143 8.35056 -0.710114Z" fill="#6796BE"/>
<path fill-rule="evenodd" clip-rule="evenodd" d="M17.4112 1.23146C18.4426 1.50296 19.4134 1.93443 20.3236 2.52584C21.5533 2.15249 22.7398 1.72103 23.8831 1.23146C23.92 1.94916 24.1357 2.59635 24.5303 3.17303H23.2359C21.4375 3.3163 19.7117 3.10057 18.0584 2.52584C17.8427 2.09438 17.6269 1.66292 17.4112 1.23146Z" fill="#568BA2"/>
<path fill-rule="evenodd" clip-rule="evenodd" d="M-0.710083 -0.710098H1.87868C2.1489 -0.243099 2.58036 0.0804962 3.17306 0.260688C2.52587 0.476417 1.87868 0.692151 1.23149 0.907879C2.87226 1.50859 3.51945 2.69511 3.17306 4.46743C2.09441 5.97754 0.800026 7.2719 -0.710083 8.35057V-0.710098Z" fill="#041E31"/>
<path fill-rule="evenodd" clip-rule="evenodd" d="M25.8247 -0.710114H27.1191C27.1531 2.43498 28.6632 3.51363 31.6494 2.52584C30.7109 1.65224 30.2795 0.57359 30.355 -0.710114H31.6494C32.0809 0.36854 32.5123 1.44719 32.9438 2.52584C34.6581 3.56744 36.5997 4.10677 38.7685 4.14382C39.1284 4.39142 39.3441 4.71502 39.4157 5.1146C35.2541 5.05788 31.1552 4.51855 27.1191 3.49663C26.263 2.96855 25.8316 2.2135 25.8247 1.23146V-0.710114Z" fill="#6B94BD"/>
<path fill-rule="evenodd" clip-rule="evenodd" d="M27.1191 -0.710114H30.355C30.2794 0.57359 30.7109 1.65224 31.6494 2.52584C28.6631 3.51363 27.1531 2.43498 27.1191 -0.710114Z" fill="#5F95DF"/>
<path fill-rule="evenodd" clip-rule="evenodd" d="M32.9438 2.52585H38.7685C39.2801 3.10915 39.9273 3.54061 40.7101 3.82023V5.11461H39.4157C39.3441 4.71502 39.1284 4.39143 38.7685 4.14383C36.5997 4.10677 34.6582 3.56745 32.9438 2.52585Z" fill="#28655F"/>
<path fill-rule="evenodd" clip-rule="evenodd" d="M12.8809 2.52585C14.5492 3.01388 16.275 3.01388 18.0584 2.52585C19.7117 3.10057 21.4375 3.31631 23.2359 3.17304C23.3076 3.57263 23.5233 3.89622 23.8831 4.14383C22.2713 4.31159 20.6533 4.20372 19.0292 3.82023C17.9412 3.8903 17.1861 4.32176 16.764 5.11461C14.5921 5.52738 13.2977 4.66446 12.8809 2.52585Z" fill="#71A1D5"/>
<path fill-rule="evenodd" clip-rule="evenodd" d="M23.8831 1.23146H25.8247C25.8316 2.2135 26.263 2.96855 27.1191 3.49663C31.1552 4.51855 35.2541 5.05788 39.4157 5.11461H40.7101V7.70337C39.8472 7.91908 38.9842 8.13485 38.1213 8.35056C38.6341 6.89024 37.9869 6.02734 36.1798 5.7618C33.3168 5.47752 30.5123 5.47752 27.7663 5.7618C26.3075 5.35814 25.2289 4.49522 24.5303 3.17303C24.1357 2.59635 23.92 1.94916 23.8831 1.23146Z" fill="#ADB9CE"/>
<path fill-rule="evenodd" clip-rule="evenodd" d="M12.8809 2.52585C13.2978 4.66446 14.5921 5.52738 16.764 5.11461C17.5927 6.04092 18.6714 6.47235 20 6.40899V7.70338H14.8225C13.5193 6.61422 12.4407 5.31982 11.5865 3.82023C11.5865 2.95731 12.018 2.52585 12.8809 2.52585Z" fill="#6C96CC"/>
<path fill-rule="evenodd" clip-rule="evenodd" d="M7.05618 -0.710113H8.35056C9.00513 0.501144 9.5445 1.79553 9.96854 3.17303C10.4027 3.66001 10.942 3.87573 11.5865 3.82022C12.4407 5.31982 13.5193 6.61421 14.8225 7.70337C13.8784 7.65975 13.0155 7.87546 12.2337 8.35056C11.8022 7.91908 11.3708 7.48766 10.9393 7.05618C9.92796 6.12112 9.06506 5.04247 8.35057 3.82022C7.73638 2.37227 7.30496 0.862153 7.05618 -0.710113Z" fill="#BCDDE4"/>
<path fill-rule="evenodd" clip-rule="evenodd" d="M23.236 7.70337C22.6376 6.00045 21.559 5.56899 20 6.40899C20.3044 5.63658 20.9516 5.20512 21.9416 5.11461C23.3154 4.93331 24.1783 5.47263 24.5303 6.73259C24.3128 7.39913 23.8813 7.72272 23.236 7.70337Z" fill="#665156"/>
<path fill-rule="evenodd" clip-rule="evenodd" d="M8.35057 3.82022C9.06507 5.04247 9.92797 6.12111 10.9393 7.05618C9.79886 9.15126 8.07306 10.6614 5.76181 11.5865H5.11462C4.60531 10.5483 3.74238 10.1168 2.52586 10.2921C2.57309 9.30393 2.14163 8.65674 1.23148 8.35056C2.88082 6.69109 4.60667 5.07309 6.409 3.49662C7.1059 3.19272 7.75309 3.30058 8.35057 3.82022Z" fill="#0B2437"/>
<path fill-rule="evenodd" clip-rule="evenodd" d="M36.1798 5.76179C36.9634 7.09675 36.424 7.74395 34.5618 7.70337C33.2453 7.79812 32.1666 7.36663 31.3258 6.40898C30.4482 6.97864 29.4774 7.19435 28.4135 7.05618C28.1978 6.62469 27.982 6.19328 27.7663 5.76179C30.5123 5.47751 33.3168 5.47751 36.1798 5.76179Z" fill="#B5B6B1"/>
<path fill-rule="evenodd" clip-rule="evenodd" d="M5.7618 -0.710098H7.05618C7.30496 0.862168 7.73637 2.37228 8.35056 3.82024C7.75307 3.3006 7.10588 3.19273 6.40899 3.49664C4.60665 5.07311 2.88081 6.69111 1.23146 8.35057C0.584269 8.78206 -0.0629221 9.21347 -0.710114 9.64496V8.35057C0.799996 7.2719 2.09438 5.97754 3.17303 4.46743C5.81902 3.53278 6.68197 1.80694 5.7618 -0.710098Z" fill="#95ACBC"/>
<path fill-rule="evenodd" clip-rule="evenodd" d="M36.1798 5.7618C37.9869 6.02734 38.6341 6.89024 38.1213 8.35056C36.645 8.07699 35.5663 8.50847 34.8854 9.64494H30.3551C30.1799 8.39554 29.5327 7.53264 28.4135 7.05618C29.4774 7.19435 30.4482 6.97864 31.3258 6.40899C32.1666 7.36663 33.2453 7.79812 34.5618 7.70337C36.424 7.74395 36.9634 7.09676 36.1798 5.7618Z" fill="#ABBBD0"/>
<path fill-rule="evenodd" clip-rule="evenodd" d="M23.2359 3.17304H24.5303C25.2289 4.49523 26.3075 5.35815 27.7663 5.7618C27.982 6.19328 28.1978 6.6247 28.4135 7.05618C29.5327 7.53264 30.1799 8.39554 30.355 9.64495C27.6501 9.17483 25.0613 9.17483 22.5888 9.64495H21.9416C21.8943 8.65675 22.3258 8.00956 23.2359 7.70337C23.8813 7.72272 24.3128 7.39913 24.5303 6.73259C24.1783 5.47263 23.3154 4.9333 21.9416 5.11461C20.9516 5.20512 20.3044 5.63658 20 6.40899C18.6714 6.47235 17.5927 6.04091 16.764 5.11461C17.1861 4.32175 17.9412 3.89029 19.0292 3.82023C20.6533 4.20372 22.2713 4.31159 23.8831 4.14382C23.5233 3.89622 23.3076 3.57263 23.2359 3.17304Z" fill="#6992D1"/>
<path fill-rule="evenodd" clip-rule="evenodd" d="M14.8225 7.70336H20V9.64494H15.4697C14.1753 9.86064 12.8809 10.0764 11.5865 10.2921C11.1083 10.3769 10.6768 10.269 10.2921 9.96853C10.9851 9.41725 11.6323 8.87795 12.2337 8.35055C13.0155 7.87545 13.8784 7.65974 14.8225 7.70336Z" fill="#543A30"/>
<path fill-rule="evenodd" clip-rule="evenodd" d="M23.2359 7.70337C22.3258 8.00955 21.8943 8.65674 21.9416 9.64494C21.1327 9.69503 20.5934 10.1264 20.3236 10.9393C20.0029 12.216 19.8951 13.5104 20 14.8225C18.6637 14.8113 17.3693 14.5956 16.1168 14.1753C14.9762 13.6819 14.329 12.819 14.1753 11.5865C15.8298 11.3286 17.5557 11.1128 19.3528 10.9393C17.9737 10.5065 16.6793 10.0751 15.4696 9.64494H20V6.40898C21.5589 5.56898 22.6376 6.00044 23.2359 7.70337Z" fill="#714233"/>
<path fill-rule="evenodd" clip-rule="evenodd" d="M30.355 9.64495H34.8854C35.2838 10.0994 35.2838 10.7466 34.8854 11.5865C33.5859 12.6108 32.0759 13.258 30.355 13.5281V14.1753C28.7999 14.2089 27.2898 13.9932 25.8247 13.5281C25.3932 13.0966 24.9618 12.6652 24.5303 12.2337C23.5761 11.6277 22.9289 10.7648 22.5887 9.64495C25.0613 9.17483 27.6501 9.17483 30.355 9.64495Z" fill="#5E96DE"/>
<path fill-rule="evenodd" clip-rule="evenodd" d="M1.23146 8.35056C2.14162 8.65674 2.57307 9.30393 2.52584 10.2921C2.53669 12.4821 3.18388 14.4237 4.46741 16.1168C2.33385 16.0316 1.2552 14.9529 1.23146 12.8809H-0.710114V9.64494C-0.0629229 9.21346 0.584268 8.78204 1.23146 8.35056Z" fill="#0E2234"/>
<path fill-rule="evenodd" clip-rule="evenodd" d="M10.9393 7.05618C11.3708 7.48766 11.8022 7.91908 12.2337 8.35057C11.6323 8.87796 10.9851 9.41726 10.2921 9.96854C10.6768 10.269 11.1083 10.3769 11.5865 10.2921C10.7897 11.0802 10.0347 11.9431 9.32133 12.8809C8.58043 12.8038 7.82535 12.5881 7.05616 12.2337C6.41441 12.3448 5.98293 12.129 5.76178 11.5865C8.07303 10.6614 9.79883 9.15127 10.9393 7.05618Z" fill="#644E46"/>
<path fill-rule="evenodd" clip-rule="evenodd" d="M40.7101 7.70337V12.8809C39.766 12.8373 38.9031 13.053 38.1213 13.5281C37.9957 11.9672 37.1328 11.32 35.5326 11.5865H34.8854C35.2839 10.7466 35.2839 10.0994 34.8854 9.64494C35.5663 8.50847 36.645 8.07699 38.1213 8.35056C38.9842 8.13485 39.8472 7.91908 40.7101 7.70337Z" fill="#6197D6"/>
<path fill-rule="evenodd" clip-rule="evenodd" d="M15.4697 9.64494C16.6793 10.0751 17.9737 10.5065 19.3528 10.9393C17.5557 11.1128 15.8298 11.3286 14.1753 11.5865C13.6783 12.08 13.3547 12.7272 13.2045 13.5281C12.9366 13.2321 12.613 13.0164 12.2337 12.8809C10.4285 14.0447 8.48693 14.3683 6.409 13.8517C6.89594 13.4175 7.11172 12.8782 7.05619 12.2337C7.82537 12.5881 8.58045 12.8038 9.32136 12.8809C10.0347 11.9431 10.7898 11.0802 11.5865 10.2921C12.8809 10.0764 14.1753 9.86065 15.4697 9.64494Z" fill="#734D3C"/>
<path fill-rule="evenodd" clip-rule="evenodd" d="M35.5326 11.5865C37.1328 11.32 37.9957 11.9672 38.1213 13.5281H35.5326V11.5865Z" fill="#195466"/>
<path fill-rule="evenodd" clip-rule="evenodd" d="M-0.710114 12.8809H1.23146C1.2552 14.9529 2.33385 16.0316 4.46741 16.1168C5.0722 16.8078 5.28793 17.6707 5.1146 18.7056C2.78582 18.5147 0.844244 17.6518 -0.710114 16.1168V12.8809Z" fill="#081F42"/>
<path fill-rule="evenodd" clip-rule="evenodd" d="M5.1146 11.5865H5.76179C5.98294 12.129 6.41442 12.3448 7.05617 12.2337C7.1117 12.8782 6.89593 13.4175 6.40898 13.8517C8.48692 14.3683 10.4285 14.0447 12.2337 12.8809C12.613 13.0164 12.9366 13.2321 13.2045 13.5281C13.3547 12.7272 13.6783 12.08 14.1753 11.5865C14.329 12.819 14.9762 13.6819 16.1168 14.1753C16.4044 15.2193 17.0516 15.9743 18.0584 16.4404C16.9871 17.3752 16.5556 18.5617 16.764 20H10.9393C12.3618 19.5694 13.8719 19.138 15.4697 18.7056C15.7044 18.2633 15.9202 17.8318 16.1168 17.4112C14.6679 16.7774 13.5892 15.6987 12.8809 14.1753C11.5235 15.7645 10.0134 16.4116 8.35056 16.1168C7.59632 15.0753 6.73336 14.8596 5.76179 15.4697C5.15013 14.5035 4.50294 13.5327 3.82022 12.5573C4.03775 11.8908 4.46921 11.5672 5.1146 11.5865Z" fill="#865643"/>
<path fill-rule="evenodd" clip-rule="evenodd" d="M25.8247 14.1753V13.5281C27.2898 13.9932 28.7999 14.2089 30.355 14.1753V15.4697C29.2531 14.7188 28.8217 15.1503 29.0607 16.764C28.6292 16.3326 28.1978 15.9011 27.7663 15.4697C26.9394 15.287 26.2922 14.8555 25.8247 14.1753Z" fill="#728DB5"/>
<path fill-rule="evenodd" clip-rule="evenodd" d="M21.9416 9.64494H22.5887C22.9289 10.7648 23.5761 11.6277 24.5303 12.2337C24.9081 14.0361 24.261 15.1148 22.5887 15.4697C22.6735 14.9025 22.4577 14.471 21.9416 14.1753C21.3482 14.5812 20.701 14.797 20 14.8225C19.8951 13.5104 20.0029 12.216 20.3236 10.9393C20.5934 10.1265 21.1327 9.69504 21.9416 9.64494Z" fill="#6A4637"/>
<path fill-rule="evenodd" clip-rule="evenodd" d="M30.355 13.5281C31.6671 13.4232 32.9615 13.531 34.2382 13.8517C34.7796 14.5062 34.9954 15.2612 34.8854 16.1169H32.2966C31.4611 16.2704 30.8139 16.0547 30.355 15.4697L30.355 13.5281Z" fill="#1F594C"/>
<path fill-rule="evenodd" clip-rule="evenodd" d="M34.8854 11.5865H35.5326V13.5281H38.1213C38.9031 13.053 39.766 12.8373 40.7101 12.8809V17.4112C37.733 17.5539 34.9285 17.1225 32.2966 16.1169H34.8854C34.9954 15.2612 34.7796 14.5062 34.2382 13.8517C32.9615 13.531 31.6671 13.4232 30.355 13.5281C32.0759 13.258 33.5859 12.6108 34.8854 11.5865Z" fill="#699AC4"/>
<path fill-rule="evenodd" clip-rule="evenodd" d="M24.5303 12.2337C24.9618 12.6652 25.3932 13.0966 25.8247 13.5281V14.1753C25.3057 15.1147 24.9821 16.1934 24.8539 17.4112C24.3329 15.8573 23.7936 15.9651 23.2359 17.7348C24.1894 18.1941 24.6209 18.9491 24.5303 20C23.2809 19.8249 22.418 19.1777 21.9416 18.0584C21.0007 16.9172 21.2164 16.0543 22.5887 15.4697C24.261 15.1148 24.9081 14.0361 24.5303 12.2337Z" fill="#84594D"/>
<path fill-rule="evenodd" clip-rule="evenodd" d="M16.1169 17.4112C13.5593 17.9109 10.9706 18.1266 8.35056 18.0584V20C7.78337 20.0847 7.35188 19.8689 7.05618 19.3528C7.39764 18.1645 7.82906 17.0858 8.35056 16.1169C10.0135 16.4116 11.5235 15.7645 12.8809 14.1753C13.5892 15.6987 14.6679 16.7774 16.1169 17.4112Z" fill="#794E38"/>
<path fill-rule="evenodd" clip-rule="evenodd" d="M16.1168 17.4112C15.9202 17.8318 15.7044 18.2633 15.4697 18.7056C13.8719 19.138 12.3618 19.5694 10.9393 20H8.35056V18.0584C10.9706 18.1266 13.5593 17.9109 16.1168 17.4112Z" fill="#7E4F3F"/>
<path fill-rule="evenodd" clip-rule="evenodd" d="M16.1169 14.1753C17.3693 14.5956 18.6637 14.8113 20 14.8225C20.2347 17.3353 20.2347 19.924 20 22.5888C19.7044 24.0596 18.8415 24.9225 17.4112 25.1775C18.4148 23.616 18.8463 21.8902 18.7056 20H16.764C16.5556 18.5617 16.9871 17.3752 18.0584 16.4404C17.0516 15.9743 16.4044 15.2193 16.1169 14.1753Z" fill="#864C39"/>
<path fill-rule="evenodd" clip-rule="evenodd" d="M22.5888 15.4697C21.2165 16.0543 21.0007 16.9172 21.9416 18.0584V20C21.2944 20.8629 20.6472 21.7259 20 22.5888C20.2347 19.924 20.2347 17.3353 20 14.8225C20.701 14.797 21.3482 14.5812 21.9416 14.1753C22.4577 14.471 22.6735 14.9025 22.5888 15.4697Z" fill="#7C4D36"/>
<path fill-rule="evenodd" clip-rule="evenodd" d="M30.3551 15.4697C30.8139 16.0547 31.4611 16.2704 32.2966 16.1168C34.9286 17.1225 37.733 17.5539 40.7101 17.4112V18.7056C37.3482 18.4982 34.1123 18.7139 31.0022 19.3528C30.5708 19.3528 30.3551 19.1371 30.3551 18.7056C30.0754 17.9228 29.644 17.2756 29.0607 16.764C28.8217 15.1503 29.2531 14.7188 30.3551 15.4697Z" fill="#96C2D2"/>
<path fill-rule="evenodd" clip-rule="evenodd" d="M27.7663 15.4697C28.1978 15.9011 28.6292 16.3326 29.0607 16.764C29.644 17.2757 30.0754 17.9228 30.3551 18.7056C29.2926 19.7287 27.9982 20.1602 26.4719 20C26.268 18.2456 26.6995 16.7355 27.7663 15.4697Z" fill="#4D3227"/>
<path fill-rule="evenodd" clip-rule="evenodd" d="M40.7101 18.7056V20H31.0022V19.3528C34.1122 18.7139 37.3482 18.4982 40.7101 18.7056Z" fill="#DEF1F5"/>
<path fill-rule="evenodd" clip-rule="evenodd" d="M2.52585 10.2921C3.74237 10.1168 4.6053 10.5483 5.11461 11.5865C4.46922 11.5672 4.03776 11.8908 3.82023 12.5573C4.50295 13.5327 5.15014 14.5035 5.7618 15.4697C5.90813 17.2489 5.6924 18.9748 5.11461 20.6472C6.24286 21.6428 7.53724 22.2899 8.99776 22.5888H9.64495V23.8831H8.99776C8.21602 23.408 7.35305 23.1923 6.40899 23.2359C4.47728 22.2015 4.04582 20.6913 5.11461 18.7056C5.28794 17.6708 5.07221 16.8078 4.46742 16.1168C3.18389 14.4237 2.5367 12.4821 2.52585 10.2921Z" fill="#745F60"/>
<path fill-rule="evenodd" clip-rule="evenodd" d="M8.35055 16.1169C7.82904 17.0858 7.39762 18.1645 7.05617 19.3528C7.35187 19.8689 7.78335 20.0847 8.35055 20H13.5281V20.6472C12.0028 20.5415 10.4926 20.6494 8.99774 20.9708C8.28706 21.4689 8.28706 22.0082 8.99774 22.5888C7.53722 22.29 6.24284 21.6428 5.11459 20.6472C5.69238 18.9748 5.90811 17.2489 5.76178 15.4697C6.73335 14.8596 7.59631 15.0753 8.35055 16.1169Z" fill="#7F4638"/>
<path fill-rule="evenodd" clip-rule="evenodd" d="M25.8247 14.1753C26.2922 14.8555 26.9394 15.287 27.7663 15.4697C26.6995 16.7355 26.268 18.2456 26.4719 20C27.9982 20.1602 29.2926 19.7287 30.3551 18.7056C30.3551 19.1371 30.5708 19.3528 31.0022 19.3528V23.8831C30.5352 24.1533 30.2116 24.5848 30.0315 25.1775C29.1981 22.4118 27.4722 21.1174 24.8539 21.2944C24.5534 20.9097 24.4456 20.4782 24.5303 20C24.6209 18.9491 24.1895 18.1941 23.236 17.7348C23.7936 15.9651 24.333 15.8573 24.8539 17.4112C24.9821 16.1934 25.3057 15.1147 25.8247 14.1753Z" fill="#6B4235"/>
<path fill-rule="evenodd" clip-rule="evenodd" d="M32.9438 20H40.7101V20.6472C38.7175 20.4919 36.776 20.7076 34.8854 21.2944C34.0837 21.0081 33.4365 20.5766 32.9438 20Z" fill="#9DC9DD"/>
<path fill-rule="evenodd" clip-rule="evenodd" d="M-0.710114 25.1775V21.9416C0.340776 22.0321 1.09583 21.6007 1.55505 20.6472C4.0121 23.4832 3.25704 24.9933 -0.710114 25.1775Z" fill="#022749"/>
<path fill-rule="evenodd" clip-rule="evenodd" d="M31.0022 20.6472V20H32.9438C33.4365 20.5766 34.0837 21.0081 34.8854 21.2944C36.7759 20.7076 38.7175 20.4919 40.7101 20.6472V21.2944C38.7395 21.2995 36.798 21.5153 34.8854 21.9416C33.591 21.5101 32.2966 21.0787 31.0022 20.6472Z" fill="#3A5E6D"/>
<path fill-rule="evenodd" clip-rule="evenodd" d="M-0.710113 16.1169C0.844245 17.6518 2.78582 18.5147 5.1146 18.7056C4.04581 20.6913 4.47728 22.2015 6.40899 23.2359C4.96763 23.8188 4.32044 24.8974 4.46741 26.4719C2.72215 25.7404 0.996309 25.7404 -0.710114 26.4719V25.1775C3.25704 24.9933 4.0121 23.4832 1.55505 20.6472C1.09583 21.6007 0.340776 22.0321 -0.710114 21.9416L-0.710113 16.1169Z" fill="#052742"/>
<path fill-rule="evenodd" clip-rule="evenodd" d="M13.5281 20.6472C13.0966 21.0787 12.6652 21.5101 12.2337 21.9416C11.8391 22.5182 11.6234 23.1654 11.5865 23.8831C10.7596 23.7005 10.1124 23.269 9.64495 22.5888H8.99776C8.28708 22.0082 8.28708 21.4689 8.99776 20.9708C10.4926 20.6494 12.0028 20.5415 13.5281 20.6472Z" fill="#64180A"/>
<path fill-rule="evenodd" clip-rule="evenodd" d="M13.5281 20H18.7056C18.8463 21.8902 18.4148 23.616 17.4112 25.1775C15.841 26.2897 14.1152 26.6133 12.2337 26.1483C11.7468 25.7142 11.531 25.1749 11.5865 24.5303C15.1184 25.4715 16.6285 24.1771 16.1169 20.6472C14.5844 21.2093 13.6137 22.288 13.2045 23.8831C13.0543 23.0822 12.7307 22.4351 12.2337 21.9416C12.6652 21.5101 13.0966 21.0787 13.5281 20.6472V20Z" fill="#AC4640"/>
<path fill-rule="evenodd" clip-rule="evenodd" d="M21.9416 18.0584C22.418 19.1777 23.2809 19.8249 24.5303 20C24.4455 20.4782 24.5534 20.9097 24.8539 21.2944C27.4722 21.1174 29.1981 22.4118 30.0314 25.1775C30.2116 24.5848 30.5352 24.1533 31.0022 23.8831C31.0459 24.8272 30.8301 25.6902 30.355 26.4719C28.6292 27.1191 26.9034 27.7663 25.1775 28.4135C25.2156 26.7639 24.5684 25.4695 23.2359 24.5303C23.6674 24.3146 24.0988 24.0989 24.5303 23.8831C24.3002 23.2215 23.8688 22.79 23.2359 22.5888C22.7627 22.3028 22.1155 22.1949 21.2944 22.2652C22.4668 21.5916 22.6825 20.8366 21.9416 20L21.9416 18.0584Z" fill="#794E3B"/>
<path fill-rule="evenodd" clip-rule="evenodd" d="M40.7101 21.2944V29.0607C40.0027 27.8639 39.1398 26.7853 38.1213 25.8247C37.0427 24.5303 35.964 23.2359 34.8854 21.9416C36.798 21.5153 38.7395 21.2995 40.7101 21.2944Z" fill="#0F2F45"/>
<path fill-rule="evenodd" clip-rule="evenodd" d="M31.0022 21.2944V20.6472C32.2966 21.0787 33.591 21.5101 34.8854 21.9416C35.964 23.2359 37.0427 24.5303 38.1213 25.8247C38.2324 26.4665 38.0166 26.8979 37.4741 27.1191C35.9508 24.95 34.0093 23.2242 31.6494 21.9416C31.6494 21.5101 31.4337 21.2944 31.0022 21.2944Z" fill="#ADB9BE"/>
<path fill-rule="evenodd" clip-rule="evenodd" d="M11.5865 24.5303V23.8831C11.6233 23.1654 11.8391 22.5182 12.2337 21.9416C12.7307 22.4351 13.0543 23.0822 13.2045 23.8831C13.6136 22.288 14.5844 21.2093 16.1169 20.6472C16.6285 24.1771 15.1184 25.4715 11.5865 24.5303Z" fill="#E66D6E"/>
<path fill-rule="evenodd" clip-rule="evenodd" d="M6.40899 23.236C7.35305 23.1923 8.21601 23.408 8.99776 23.8831C9.15134 24.7187 8.93563 25.3659 8.35057 25.8247C8.14994 25.0233 7.82634 25.0233 7.37978 25.8247C6.73259 27.1191 6.0854 28.4135 5.43821 29.7079C5.12576 29.0943 5.01789 28.4471 5.11461 27.7663C5.89232 26.5415 6.75524 25.355 7.70338 24.2067C7.27189 23.7753 6.84048 23.7753 6.409 24.2067C5.97967 25.1895 5.33248 25.9445 4.46742 26.4719C4.32045 24.8974 4.96763 23.8188 6.40899 23.236Z" fill="#1F4B65"/>
<path fill-rule="evenodd" clip-rule="evenodd" d="M31.6494 21.9416C34.0093 23.2242 35.9508 24.95 37.4741 27.1191C38.0075 29.2318 38.2233 31.3891 38.1213 33.591C37.3554 31.6059 36.4925 29.6644 35.5326 27.7663C35.4957 27.0486 35.28 26.4014 34.8854 25.8247C34.1834 24.4741 33.1048 23.6112 31.6494 23.236V21.9416Z" fill="#EAE7E3"/>
<path fill-rule="evenodd" clip-rule="evenodd" d="M5.1146 27.7663C4.50982 28.4572 4.29409 29.3202 4.46741 30.355C4.05271 29.3569 3.40552 28.4939 2.52584 27.7663C1.50916 28.2901 0.430502 28.5058 -0.710114 28.4135V26.4719C0.996308 25.7404 2.72215 25.7404 4.46741 26.4719C5.33247 25.9445 5.97966 25.1895 6.40899 24.2067C6.84047 23.7752 7.27188 23.7752 7.70337 24.2067C6.75523 25.355 5.89231 26.5415 5.1146 27.7663Z" fill="#033251"/>
<path fill-rule="evenodd" clip-rule="evenodd" d="M21.9416 20C22.6825 20.8366 22.4668 21.5916 21.2944 22.2652C22.1155 22.1949 22.7627 22.3028 23.236 22.5888C21.769 24.063 20.0432 25.2496 18.0584 26.1483C19.7843 26.7955 19.7843 27.4427 18.0584 28.0899C19.3496 28.6876 19.5654 29.4427 18.7056 30.3551H16.7641C16.9031 29.2685 16.4716 28.6214 15.4697 28.4135C15.0382 28.4135 14.8225 28.1978 14.8225 27.7663C16.0138 27.1823 16.8767 26.3194 17.4112 25.1775C18.8415 24.9225 19.7044 24.0596 20 22.5888C20.6472 21.7259 21.2944 20.8629 21.9416 20Z" fill="#875945"/>
<path fill-rule="evenodd" clip-rule="evenodd" d="M9.64493 22.5888C10.1124 23.269 10.7596 23.7005 11.5865 23.8831V24.5303C11.531 25.1749 11.7467 25.7142 12.2337 26.1483C14.1151 26.6133 15.841 26.2897 17.4112 25.1775C16.8766 26.3194 16.0137 27.1823 14.8225 27.7663C13.5596 28.505 12.2652 28.505 10.9393 27.7663C10.2286 27.1858 10.2286 26.6465 10.9393 26.1483C10.5871 25.6841 10.1556 25.3605 9.64493 25.1775L9.64493 22.5888Z" fill="#894334"/>
<path fill-rule="evenodd" clip-rule="evenodd" d="M23.2359 22.5888C23.8688 22.79 24.3002 23.2215 24.5303 23.8831C24.0988 24.0989 23.6674 24.3146 23.2359 24.5303C24.5684 25.4695 25.2156 26.7639 25.1775 28.4135V30.3551C23.3101 30.1568 21.5842 30.3725 20 31.0022C19.3582 31.1133 18.9267 30.8975 18.7056 30.3551C19.5653 29.4427 19.3496 28.6876 18.0584 28.0899C19.7843 27.4427 19.7843 26.7955 18.0584 26.1483C20.0432 25.2496 21.769 24.063 23.2359 22.5888Z" fill="#7A4B37"/>
<path fill-rule="evenodd" clip-rule="evenodd" d="M31.0022 21.2944C31.4337 21.2944 31.6494 21.5101 31.6494 21.9416V23.2359C31.876 26.1683 31.4445 28.9728 30.3551 31.6494C29.7784 32.0441 29.1312 32.2598 28.4135 32.2966C28.4135 31.8651 28.1978 31.6494 27.7663 31.6494C28.2895 29.7401 29.1524 28.0142 30.3551 26.4719C30.8302 25.6902 31.0459 24.8272 31.0022 23.8831V21.2944Z" fill="#B8A18E"/>
<path fill-rule="evenodd" clip-rule="evenodd" d="M34.8854 25.8247C35.28 26.4014 35.4957 27.0485 35.5326 27.7663C35.6861 28.6018 35.4704 29.249 34.8854 29.7079C32.9516 29.9313 32.0887 29.0684 32.2966 27.1191C32.5123 26.4719 32.7281 25.8247 32.9438 25.1775C33.5371 25.5834 34.1843 25.7992 34.8854 25.8247Z" fill="#665B49"/>
<path fill-rule="evenodd" clip-rule="evenodd" d="M8.35057 25.8247C7.78842 27.2595 7.57265 28.7697 7.70338 30.355C7.09858 31.046 6.88287 31.909 7.05619 32.9438H5.76181V32.2966C6.67713 30.9386 6.24565 30.2914 4.46743 30.355C4.2941 29.3202 4.50983 28.4572 5.11462 27.7663C5.0179 28.4471 5.12576 29.0943 5.43821 29.7079C6.0854 28.4135 6.7326 27.1191 7.37979 25.8247C7.82635 25.0233 8.14994 25.0233 8.35057 25.8247Z" fill="#143F5A"/>
<path fill-rule="evenodd" clip-rule="evenodd" d="M8.99776 23.8831H9.64495V29.7079C9.0683 30.1025 8.42111 30.3182 7.70338 30.3551C7.57264 28.7697 7.78842 27.2595 8.35057 25.8247C8.93563 25.3659 9.15134 24.7187 8.99776 23.8831Z" fill="#C8CAD0"/>
<path fill-rule="evenodd" clip-rule="evenodd" d="M10.9393 27.7663C12.2652 28.505 13.5596 28.505 14.8225 27.7663C14.8225 28.1978 15.0382 28.4135 15.4697 28.4135C15.9879 29.4113 16.2036 30.49 16.1168 31.6494C15.6498 31.9196 15.3262 32.3511 15.1461 32.9438C14.9138 30.9736 14.4824 30.7579 13.8517 32.2966C13.5292 30.9735 12.7741 30.1106 11.5865 29.7079C11.0015 29.249 10.7857 28.6018 10.9393 27.7663Z" fill="#804F3B"/>
<path fill-rule="evenodd" clip-rule="evenodd" d="M30.355 26.4719C29.1524 28.0142 28.2895 29.7401 27.7663 31.6494C26.9034 32.2966 26.0404 32.9438 25.1775 33.591C23.7308 33.7817 22.4364 33.566 21.2944 32.9438C23.2271 32.9856 24.7372 32.2305 25.8247 30.6786C25.6769 30.4205 25.4611 30.3127 25.1775 30.3551V28.4135C26.9034 27.7663 28.6292 27.1191 30.355 26.4719Z" fill="#78513E"/>
<path fill-rule="evenodd" clip-rule="evenodd" d="M9.64493 25.1775C10.1556 25.3605 10.5871 25.6841 10.9393 26.1483C10.2286 26.6465 10.2286 27.1858 10.9393 27.7663C10.7857 28.6018 11.0014 29.249 11.5865 29.7079C11.7179 30.7073 12.1494 31.5703 12.8809 32.2966C11.4203 33.1184 10.1259 32.9027 8.99774 31.6494C9.3924 31.0728 9.60811 30.4256 9.64493 29.7079L9.64493 25.1775Z" fill="#8F5C46"/>
<path fill-rule="evenodd" clip-rule="evenodd" d="M4.46741 30.355C6.24563 30.2914 6.67712 30.9386 5.76179 32.2966C4.34648 31.4824 2.83636 30.8353 1.23146 30.355H-0.710114V28.4135C0.430502 28.5058 1.50916 28.2901 2.52584 27.7663C3.40552 28.4939 4.05271 29.3569 4.46741 30.355Z" fill="#063865"/>
<path fill-rule="evenodd" clip-rule="evenodd" d="M1.23145 30.3551C2.83635 30.8353 4.34647 31.4825 5.76178 32.2966V32.9438C5.68413 33.6468 5.25267 34.0782 4.4674 34.2382C3.17302 33.3753 1.87864 32.5123 0.584259 31.6494C0.819014 31.2071 1.03475 30.7757 1.23145 30.3551Z" fill="#07416C"/>
<path fill-rule="evenodd" clip-rule="evenodd" d="M25.1775 30.355C25.4611 30.3127 25.6769 30.4205 25.8247 30.6786C24.7372 32.2305 23.2271 32.9856 21.2944 32.9438C20.6141 32.4763 20.1826 31.8292 20 31.0022C21.5843 30.3725 23.3101 30.1567 25.1775 30.355Z" fill="#813E30"/>
<path fill-rule="evenodd" clip-rule="evenodd" d="M15.4697 28.4135C16.4716 28.6214 16.9031 29.2686 16.764 30.3551H18.7056C18.9268 30.8975 19.3582 31.1133 20 31.0022C20.1826 31.8292 20.6141 32.4764 21.2944 32.9438C19.6142 33.4391 17.8883 33.6549 16.1169 33.591V31.6494C16.2036 30.49 15.9879 29.4113 15.4697 28.4135Z" fill="#8D5445"/>
<path fill-rule="evenodd" clip-rule="evenodd" d="M38.1213 25.8247C39.1398 26.7853 40.0027 27.8639 40.7101 29.0607V29.7079C39.8235 29.9386 39.1763 30.4779 38.7685 31.3258C39.338 33.7851 39.338 36.266 38.7685 38.7685H38.1213V33.591C38.2233 31.3891 38.0076 29.2318 37.4742 27.1191C38.0166 26.8979 38.2324 26.4665 38.1213 25.8247Z" fill="#80A8B4"/>
<path fill-rule="evenodd" clip-rule="evenodd" d="M11.5865 29.7079C12.7741 30.1106 13.5292 30.9735 13.8517 32.2966C14.4824 30.7579 14.9138 30.9736 15.146 32.9438C15.3262 32.3511 15.6498 31.9196 16.1168 31.6494V33.591C14.7554 34.5046 13.2453 35.1518 11.5865 35.5326C10.8688 35.4957 10.2216 35.28 9.64493 34.8854C8.99774 34.6697 8.56625 34.2382 8.35054 33.591C8.19697 32.7555 8.41268 32.1083 8.99774 31.6494C10.1259 32.9026 11.4203 33.1184 12.8809 32.2966C12.1494 31.5703 11.7179 30.7073 11.5865 29.7079Z" fill="#7B4333"/>
<path fill-rule="evenodd" clip-rule="evenodd" d="M31.6494 23.2359C33.1048 23.6112 34.1834 24.4741 34.8854 25.8247C34.1843 25.7992 33.5372 25.5834 32.9438 25.1775C32.7281 25.8247 32.5123 26.4719 32.2966 27.1191C32.0887 29.0684 32.9516 29.9313 34.8854 29.7079C34.2382 30.1393 33.591 30.5708 32.9438 31.0022C32.5291 32.0004 31.8819 32.8634 31.0022 33.591C30.7017 32.8555 30.486 32.2083 30.355 31.6494C31.4445 28.9728 31.876 26.1683 31.6494 23.2359Z" fill="#B1AB93"/>
<path fill-rule="evenodd" clip-rule="evenodd" d="M9.64493 29.7079C9.60811 30.4256 9.3924 31.0728 8.99774 31.6494C8.41268 32.1083 8.19698 32.7555 8.35055 33.591H7.70336C7.27188 33.591 7.05617 33.3753 7.05617 32.9438C6.88285 31.909 7.09856 31.046 7.70336 30.355C8.4211 30.3182 9.06829 30.1025 9.64493 29.7079Z" fill="#665350"/>
<path fill-rule="evenodd" clip-rule="evenodd" d="M35.5326 27.7663C36.4926 29.6644 37.3555 31.6059 38.1213 33.591V34.2382C37.5363 34.697 37.3206 35.3442 37.4742 36.1798C36.4102 36.0416 35.4394 36.2573 34.5618 36.827C34.2447 35.99 34.1368 35.127 34.2382 34.2382C35.3318 31.6418 34.9003 31.2104 32.9438 32.9438V31.0022C33.591 30.5708 34.2382 30.1393 34.8854 29.7079C35.4705 29.249 35.6862 28.6018 35.5326 27.7663Z" fill="#BBAA97"/>
<path fill-rule="evenodd" clip-rule="evenodd" d="M40.7101 29.7079V38.7685H38.7685C39.338 36.266 39.338 33.7851 38.7685 31.3258C39.1763 30.4779 39.8235 29.9386 40.7101 29.7079Z" fill="#4795B0"/>
<path fill-rule="evenodd" clip-rule="evenodd" d="M-0.710113 30.355H1.23146C1.03476 30.7757 0.819025 31.2071 0.584269 31.6494C1.87865 32.5123 3.17303 33.3753 4.46741 34.2382C5.25268 34.0782 5.68415 33.6468 5.7618 32.9438H7.05618C7.05618 33.3753 7.27188 33.591 7.70337 33.591V38.1213H5.76179C5.89998 37.0574 5.68424 36.0866 5.1146 35.209C3.03019 35.0292 1.08862 34.4899 -0.710114 33.591L-0.710113 30.355Z" fill="#1A5788"/>
<path fill-rule="evenodd" clip-rule="evenodd" d="M32.9438 31.0022V32.9438C31.8271 34.0621 30.9641 35.3565 30.355 36.827C28.8763 36.1498 27.3661 36.1498 25.8247 36.827C25.7342 37.8779 26.1656 38.6329 27.1191 39.0921C25.8303 39.3339 24.7517 39.8733 23.8831 40.7101H20.6472C20.654 39.7281 21.0855 38.973 21.9416 38.4449C25.8516 38.0317 26.0673 37.2766 22.5888 36.1798C24.161 35.931 25.6711 35.4996 27.1191 34.8854C26.9438 33.6689 27.3753 32.806 28.4135 32.2966C29.1312 32.2598 29.7784 32.0441 30.355 31.6494C30.486 32.2083 30.7018 32.8555 31.0022 33.591C31.8819 32.8634 32.5291 32.0004 32.9438 31.0022Z" fill="#B7AA97"/>
<path fill-rule="evenodd" clip-rule="evenodd" d="M-0.710114 33.591C1.08862 34.4899 3.03019 35.0292 5.1146 35.209C5.68424 36.0866 5.89998 37.0574 5.76179 38.1213C3.60449 37.9056 1.44719 37.6899 -0.710114 37.4742V33.591Z" fill="#18528C"/>
<path fill-rule="evenodd" clip-rule="evenodd" d="M27.7663 31.6494C28.1978 31.6494 28.4135 31.8651 28.4135 32.2966C27.3753 32.806 26.9438 33.6689 27.1191 34.8854C25.6711 35.4996 24.161 35.931 22.5888 36.1798H20C19.9153 35.6126 20.1311 35.1811 20.6472 34.8854C22.2537 34.5184 23.7639 34.0869 25.1775 33.591C26.0404 32.9438 26.9034 32.2966 27.7663 31.6494Z" fill="#BDA994"/>
<path fill-rule="evenodd" clip-rule="evenodd" d="M21.2944 32.9438C22.4364 33.566 23.7308 33.7817 25.1775 33.591C23.7639 34.0869 22.2537 34.5184 20.6472 34.8854C20.1311 35.1811 19.9153 35.6126 20 36.1798C20 37.0427 19.5685 37.4742 18.7056 37.4742C17.1637 36.4735 15.4379 36.0421 13.5281 36.1798C13.8591 37.8117 14.5063 39.3218 15.4697 40.7101H12.8809C12.0722 39.0882 11.6408 37.3624 11.5865 35.5326C13.2453 35.1518 14.7554 34.5046 16.1169 33.591C17.8883 33.6549 19.6142 33.4391 21.2944 32.9438Z" fill="#B09A8A"/>
<path fill-rule="evenodd" clip-rule="evenodd" d="M20 36.1798H22.5887C26.0673 37.2766 25.8516 38.0317 21.9416 38.4449C21.0855 38.973 20.654 39.7281 20.6472 40.7101H17.4112C18.3443 39.8561 18.7758 38.7775 18.7056 37.4741C19.5685 37.4741 20 37.0427 20 36.1798Z" fill="#B0A492"/>
<path fill-rule="evenodd" clip-rule="evenodd" d="M34.2382 34.2382C33.1833 35.2259 32.644 36.5203 32.6202 38.1213C31.7773 38.4998 31.0223 38.9313 30.3551 39.4157C29.7097 39.4351 29.2782 39.1115 29.0607 38.4449C29.4202 37.7906 29.8517 37.2513 30.3551 36.827C30.9641 35.3565 31.8271 34.0621 32.9438 32.9438C34.9003 31.2104 35.3318 31.6418 34.2382 34.2382Z" fill="#837463"/>
<path fill-rule="evenodd" clip-rule="evenodd" d="M34.2382 34.2382C34.1368 35.127 34.2447 35.99 34.5618 36.827C35.4394 36.2573 36.4102 36.0416 37.4741 36.1798C37.3206 35.3442 37.5363 34.697 38.1213 34.2382V38.7685C38.0845 39.4863 37.8688 40.1335 37.4741 40.7101H35.5326C35.6941 39.7897 36.2335 39.1425 37.1505 38.7685C37.582 38.1213 37.582 37.4741 37.1505 36.827C35.0519 37.5237 33.4339 38.818 32.2966 40.7101H30.355V39.4157C31.0223 38.9313 31.7773 38.4998 32.6202 38.1213C32.644 36.5202 33.1833 35.2259 34.2382 34.2382Z" fill="#C0A69B"/>
<path fill-rule="evenodd" clip-rule="evenodd" d="M9.64493 34.8854C10.2216 35.28 10.8688 35.4957 11.5865 35.5326C11.6407 37.3624 12.0722 39.0882 12.8809 40.7101H9.64493V34.8854Z" fill="#C3BFBE"/>
<path fill-rule="evenodd" clip-rule="evenodd" d="M18.7056 37.4742C18.7758 38.7775 18.3443 39.8561 17.4112 40.7101H15.4696C14.5063 39.3218 13.8591 37.8117 13.5281 36.1798C15.4379 36.0421 17.1637 36.4735 18.7056 37.4742Z" fill="#B3AD99"/>
<path fill-rule="evenodd" clip-rule="evenodd" d="M7.70337 33.591H8.35056C8.56627 34.2382 8.99775 34.6697 9.64494 34.8854V40.7101H6.40898V38.7685C3.99221 38.8833 1.61917 38.6675 -0.710114 38.1213V37.4742C1.44719 37.6899 3.60449 37.9056 5.76179 38.1213H7.70337V33.591Z" fill="#77A5C5"/>
<path fill-rule="evenodd" clip-rule="evenodd" d="M-0.710114 38.1213C1.61917 38.6675 3.99221 38.8833 6.40898 38.7685V40.7101H-0.710114V38.1213Z" fill="#1D5788"/>
<path fill-rule="evenodd" clip-rule="evenodd" d="M30.3551 36.827C29.8517 37.2513 29.4203 37.7906 29.0607 38.4449C29.2782 39.1115 29.7097 39.4351 30.3551 39.4157V40.7101H23.8831C24.7517 39.8733 25.8304 39.3339 27.1191 39.0921C26.1656 38.6329 25.7342 37.8779 25.8247 36.827C27.3661 36.1498 28.8763 36.1498 30.3551 36.827Z" fill="#A89D8C"/>
<path fill-rule="evenodd" clip-rule="evenodd" d="M35.5326 40.7101H32.2966C33.4339 38.8181 35.0519 37.5237 37.1506 36.827C37.582 37.4742 37.582 38.1213 37.1506 38.7685C36.2335 39.1426 35.6941 39.7897 35.5326 40.7101Z" fill="#715E4C"/>
<path fill-rule="evenodd" clip-rule="evenodd" d="M38.1213 38.7685H40.7101V40.7101H37.4742C37.8688 40.1335 38.0845 39.4863 38.1213 38.7685Z" fill="#9275BA"/>
</g>
</g>
<defs>
<clipPath id="clip0_3_21">
<rect width="40" height="40" fill="white"/>
</clipPath>
</defs>
</svg>
