<?xml version="1.0" encoding="UTF-8"?><svg xmlns="http://www.w3.org/2000/svg" xmlns:xlink="http://www.w3.org/1999/xlink" width="40px" height="40px" viewBox="0 0 512 512"><defs><linearGradient id="Degradado_sin_nombre_10" x1="256" y1="478" x2="256" y2="990" gradientTransform="translate(0 -478)" gradientUnits="userSpaceOnUse"><stop offset="0" stop-color="#4fa89b"/><stop offset="1" stop-color="#6acebb"/></linearGradient></defs><g id="BG_WHITE"><circle cx="280.45998" cy="262.72693" r="220.27922" fill="#fff"/></g><g id="CIRCLE_OUTLINE_BLACK"><path d="m256,0C114.61511,0,0,114.61523,0,256s114.61511,256,256,256,256-114.61523,256-256S397.38489,0,256,0Zm-11.3067,332.80005h-23.32159v-51.72046l-91.37494-68.77026v120.49072h-23.33014v-139.94678c.01361-2.9104.95697-5.74048,2.69244-8.07715,4.49609-6.05347,13.04822-7.31592,19.10168-2.81982l110.8139,83.43042c3.40424,2.56396,5.40997,6.57544,5.41864,10.8374v56.57593Zm161.33978,0h-23.33014v-120.49072l-91.37494,68.77026v51.72046h-23.32159v-56.57593c.00867-4.26196,2.0144-8.27344,5.41864-10.8374l110.8139-83.39648c6.05341-4.49609,14.60553-3.23389,19.10175,2.81958,1.72864,2.32739,2.67163,5.14453,2.69238,8.04346v139.94678Z" fill="url(#Degradado_sin_nombre_10)"/></g></svg>