<svg viewBox="0 0 20 20" fill="none" xmlns="http://www.w3.org/2000/svg">
  <g clip-path="url(#clip0_3155_64819)">
    <path
      d="M11.3571 17.0592L10.9054 17.8224C10.5027 18.5027 9.4969 18.5027 9.09426 17.8224L8.64251 17.0592C8.29211 16.4672 8.11691 16.1712 7.8355 16.0076C7.55408 15.8439 7.19977 15.8378 6.49115 15.8256C5.44502 15.8075 4.78891 15.7434 4.23866 15.5155C3.21771 15.0926 2.40656 14.2815 1.98367 13.2605C1.6665 12.4948 1.6665 11.5241 1.6665 9.58268V8.74935C1.6665 6.02149 1.6665 4.65756 2.2805 3.6556C2.62407 3.09496 3.09545 2.62358 3.65609 2.28002C4.65805 1.66602 6.02198 1.66602 8.74984 1.66602H11.2498C13.9777 1.66602 15.3416 1.66602 16.3436 2.28002C16.9042 2.62358 17.3756 3.09496 17.7192 3.6556C18.3332 4.65756 18.3332 6.02149 18.3332 8.74935V9.58268C18.3332 11.5241 18.3332 12.4948 18.016 13.2605C17.5931 14.2815 16.782 15.0926 15.761 15.5155C15.2108 15.7434 14.5546 15.8075 13.5085 15.8256C12.7999 15.8378 12.4456 15.8439 12.1641 16.0076C11.8827 16.1712 11.7075 16.4672 11.3571 17.0592Z"
      stroke="currentColor" stroke-width="1.5" stroke-linecap="round" stroke-linejoin="round" />
    <path d="M10 12.5007V5.83398" stroke="currentColor" stroke-width="1.5" stroke-linecap="round"
      stroke-linejoin="round" />
    <path d="M6.6665 10.8333V7.5" stroke="currentColor" stroke-width="1.5" stroke-linecap="round"
      stroke-linejoin="round" />
    <path d="M13.3335 10.8333V7.5" stroke="currentColor" stroke-width="1.5" stroke-linecap="round"
      stroke-linejoin="round" />
  </g>
  <defs>
    <clipPath id="clip0_3155_64819">
      <rect width="20" height="20" fill="white" />
    </clipPath>
  </defs>
</svg>
