<svg width="24" height="24" viewBox="0 0 24 24" fill="none" xmlns="http://www.w3.org/2000/svg">
<g clip-path="url(#clip0_218_1206)">
<path d="M12 24C5.37258 24 0 18.6274 0 12C0 5.37258 5.37258 0 12 0C18.6274 0 24 5.37258 24 12C24 18.6274 18.6274 24 12 24Z" fill="#EC1C24"/>
<path d="M3.87577 11.7763L3.84805 11.7965C3.84805 11.7965 4.43258 5.3314 6.58678 2.10893C6.79338 1.79903 7.23429 1.7562 7.49632 2.01823C8.11361 2.63803 9.12394 4.2984 10.1317 7.06987C10.6709 6.97917 11.2303 6.93382 11.8047 6.93382C12.3792 6.93382 12.9385 6.98169 13.4777 7.06987C14.4855 4.2984 15.4958 2.63803 16.1106 2.01823C16.3726 1.7562 16.8135 1.79903 17.0201 2.10893C19.1718 5.3314 19.7563 11.7965 19.7563 11.7965L19.7286 11.7763C19.9176 12.3306 20.0209 12.9127 20.0209 13.5148C20.0209 16.0217 18.2698 18.1986 15.6949 19.3097C14.5359 19.8086 13.2106 20.0933 11.8022 20.0933C10.3938 20.0933 9.07103 19.8086 7.91205 19.3097C5.33457 18.1986 3.5835 16.0192 3.5835 13.5123C3.5835 12.9127 3.68681 12.3306 3.87577 11.7763Z" fill="white"/>
<path d="M22.3137 16.9893C22.3893 16.9893 22.4649 16.9515 22.5102 16.8834C22.5858 16.7751 22.5581 16.6239 22.4472 16.5509C20.2124 15.024 18.6654 15.4423 18.5999 15.4599C18.4714 15.4952 18.3983 15.6287 18.4361 15.7572C18.4714 15.8832 18.6049 15.9588 18.7309 15.921C18.7486 15.9159 20.1469 15.5582 22.1776 16.9464C22.2205 16.9767 22.2658 16.9893 22.3137 16.9893Z" fill="#231F20"/>
<path d="M21.0464 18.8409C21.0917 18.8409 21.1345 18.8283 21.1774 18.8031C21.2882 18.7326 21.321 18.5839 21.2479 18.4731C20.1469 16.7673 18.3127 16.4247 18.2346 16.4121C18.1061 16.3894 17.9801 16.4751 17.9574 16.6061C17.9348 16.7371 18.0204 16.8606 18.1514 16.8832C18.1741 16.8883 19.8622 17.2108 20.8448 18.7326C20.8902 18.8006 20.9683 18.8409 21.0464 18.8409Z" fill="#231F20"/>
<path d="M1.38649 16.9893C1.43184 16.9893 1.47971 16.9767 1.52002 16.9464C3.55328 15.5582 4.95413 15.9185 4.96673 15.921C5.09271 15.9562 5.22624 15.8807 5.26152 15.7547C5.29679 15.6287 5.22372 15.4952 5.09775 15.4599C5.03224 15.4423 3.48525 15.024 1.25044 16.5509C1.1421 16.6264 1.11186 16.7751 1.18745 16.8834C1.23532 16.954 1.30839 16.9893 1.38649 16.9893Z" fill="#231F20"/>
<path d="M2.65377 18.8409C2.73187 18.8409 2.80998 18.8031 2.85533 18.7326C3.84298 17.2007 5.53358 16.8858 5.5487 16.8832C5.67971 16.8606 5.76538 16.7371 5.7427 16.6061C5.72003 16.4751 5.59405 16.3894 5.46556 16.4121C5.38745 16.4247 3.55324 16.7673 2.45221 18.4731C2.38166 18.5839 2.41189 18.7326 2.52275 18.8031C2.56306 18.8283 2.60842 18.8409 2.65377 18.8409Z" fill="#231F20"/>
<path d="M13.8532 12.8597C13.8784 14.0943 14.8837 15.087 16.1233 15.087C17.3629 15.087 18.3959 14.0691 18.3959 12.8144C18.3959 12.4516 18.3102 12.1114 18.159 11.8091L13.8532 12.8597Z" fill="#A7DFF8"/>
<path d="M14.5914 12.6783C14.5863 12.7287 14.5763 12.8295 14.5763 12.8798C14.5763 13.6962 15.2389 14.3588 16.0552 14.3588C16.8715 14.3588 17.5342 13.6962 17.5342 12.8798C17.5342 12.58 17.4057 12.2626 17.2545 12.0308L14.5914 12.6783Z" fill="#231F20"/>
<path d="M10.0057 12.8597C9.98054 14.0943 8.97525 15.087 7.73565 15.087C6.48092 15.087 5.46304 14.0691 5.46304 12.8144C5.46304 12.4516 5.5487 12.1114 5.69987 11.8091L10.0057 12.8597Z" fill="#A7DFF8"/>
<path d="M9.25248 12.6581C9.25752 12.7085 9.28271 12.8295 9.28271 12.8798C9.28271 13.6962 8.62008 14.3588 7.80375 14.3588C6.98743 14.3588 6.3248 13.6962 6.3248 12.8798C6.3248 12.58 6.43817 12.2626 6.58935 12.0308L9.25248 12.6581Z" fill="#231F20"/>
<path d="M11.3211 17.1682C11.5478 17.1682 11.7922 17.1002 12.029 16.9162C12.6665 17.4126 13.3593 17.0699 13.6541 16.7978C13.7524 16.7071 13.7574 16.556 13.6667 16.4602C13.576 16.3645 13.4249 16.3569 13.3291 16.4476C13.2712 16.5005 12.732 16.9616 12.2256 16.4552C12.1802 16.4098 12.1197 16.3846 12.0568 16.3846H12.0013C11.9383 16.3846 11.8779 16.4098 11.8325 16.4552C11.3261 16.9616 10.7869 16.503 10.729 16.4476C10.6307 16.3594 10.4795 16.3645 10.3913 16.4627C10.3032 16.5585 10.3082 16.7096 10.4039 16.8003C10.5904 16.9692 10.933 17.1682 11.3211 17.1682Z" fill="#231F20"/>
<path d="M12.0466 16.3141C11.6612 16.3141 11.3487 16.1652 11.3487 15.9815C11.3487 15.7978 11.6612 15.6489 12.0466 15.6489C12.432 15.6489 12.7445 15.7978 12.7445 15.9815C12.7445 16.1652 12.432 16.3141 12.0466 16.3141Z" fill="#F7BAD5"/>
<path d="M18.5042 9.59691C18.5042 9.59691 18.1262 5.40695 16.7304 3.31826C16.5969 3.11922 16.3122 3.08899 16.1408 3.26031C15.7402 3.66344 14.9919 5.39435 14.3369 7.20085C14.3369 7.19833 15.0952 7.36966 18.5042 9.59691Z" fill="#F7BAD5"/>
<path d="M5.02221 9.59691C5.02221 9.59691 5.40013 5.40695 6.79595 3.31826C6.92949 3.11922 7.21419 3.08899 7.38552 3.26031C7.78612 3.66344 8.57473 5.39435 9.22729 7.20085C9.22981 7.19833 8.03808 7.36966 5.02221 9.59691Z" fill="#F7BAD5"/>
<path d="M9.40372 8.87138C8.62771 5.96889 12.9663 6.4602 12.8681 3.56274C12.858 4.79479 13.0873 6.10242 12.2483 7.09764C13.6063 7.25637 14.0245 5.43979 14.3924 4.59071C14.5083 6.17297 14.8031 8.63454 13.0117 9.3123" fill="#D5E9F8"/>
<path d="M9.05346 8.87128C8.17162 5.2608 12.9386 6.06957 12.8428 3.17212C12.8327 4.40417 13.0016 5.57322 12.1651 6.56844C13.5231 6.72717 14.0371 5.05924 14.4074 4.21016C14.5233 5.79242 13.634 8.69491 11.1673 9.3122" fill="white"/>
</g>
<defs>
<clipPath id="clip0_218_1206">
<rect width="24" height="24" rx="12" fill="white"/>
</clipPath>
</defs>
</svg>
