<svg xmlns="http://www.w3.org/2000/svg" width="32" height="32" viewBox="0 0 32 32">
  <g id="ic_medium" transform="translate(-842 -2956.297)">
    <rect id="bg" width="32" height="32" transform="translate(842 2956.297)" fill="none"/>
    <path id="ic_medium_" data-name="ic_medium&apos;" d="M7.9-18.249A7.931,7.931,0,0,0,0-10.292,7.931,7.931,0,0,0,7.9-2.334a7.931,7.931,0,0,0,7.9-7.957A7.93,7.93,0,0,0,7.9-18.249Zm12.621.466c-2.182,0-3.951,3.355-3.951,7.491S18.342-2.8,20.524-2.8s3.952-3.355,3.952-7.492h0c0-4.138-1.769-7.491-3.952-7.491Zm6.108.78c-.767,0-1.389,3-1.389,6.711s.622,6.711,1.389,6.711,1.39-3.006,1.39-6.711S27.4-17,26.633-17Z" transform="translate(843.988 2982.917)" fill="#91929e"/>
  </g>
</svg>
