<svg viewBox="0 0 20 20" fill="none" xmlns="http://www.w3.org/2000/svg">
  <path
    d="M16.3461 9.89979L15.7898 9.56363V9.56363L16.3461 9.89979ZM10.0992 3.65293L9.76307 3.09661L9.76307 3.09661L10.0992 3.65293ZM16.999 10H16.349C16.349 13.507 13.506 16.35 9.99902 16.35V17V17.65C14.224 17.65 17.649 14.225 17.649 10H16.999ZM9.99902 17V16.35C6.49202 16.35 3.64902 13.507 3.64902 10H2.99902H2.34902C2.34902 14.225 5.77404 17.65 9.99902 17.65V17ZM2.99902 10H3.64902C3.64902 6.49299 6.49202 3.65 9.99902 3.65V3V2.35C5.77404 2.35 2.34902 5.77502 2.34902 10H2.99902ZM12.449 12.1V11.45C10.2951 11.45 8.54902 9.70391 8.54902 7.55H7.89902H7.24902C7.24902 10.4219 9.57714 12.75 12.449 12.75V12.1ZM16.3461 9.89979L15.7898 9.56363C15.1058 10.6956 13.8652 11.45 12.449 11.45V12.1V12.75C14.339 12.75 15.9928 11.7413 16.9024 10.236L16.3461 9.89979ZM7.89902 7.55H8.54902C8.54902 6.13384 9.30343 4.89326 10.4354 4.20925L10.0992 3.65293L9.76307 3.09661C8.25774 4.00622 7.24902 5.66 7.24902 7.55H7.89902ZM9.99902 3V3.65C9.90301 3.65 9.79784 3.60818 9.72156 3.52878C9.65525 3.45976 9.63565 3.38961 9.63039 3.35065C9.62216 3.28977 9.63724 3.17264 9.76307 3.09661L10.0992 3.65293L10.4354 4.20925C10.8384 3.96572 10.9653 3.52212 10.9187 3.17666C10.87 2.8162 10.5815 2.35 9.99902 2.35V3ZM16.3461 9.89979L16.9024 10.236C16.8264 10.3618 16.7093 10.3769 16.6484 10.3686C16.6094 10.3634 16.5393 10.3438 16.4702 10.2775C16.3908 10.2012 16.349 10.096 16.349 10H16.999H17.649C17.649 9.41748 17.1828 9.12902 16.8224 9.08033C16.4769 9.03368 16.0333 9.16059 15.7898 9.56363L16.3461 9.89979Z"
    fill="currentColor" />
</svg>
