<svg width="101" height="100" viewBox="0 0 101 100" fill="none" xmlns="http://www.w3.org/2000/svg">
<circle cx="50.5155" cy="50" r="50" fill="#131313"/>
<circle cx="22.0487" cy="64.8497" r="8.16114" fill="url(#paint0_linear_4_19)"/>
<path d="M35.8598 45.1793C38.8731 47.3556 40.3709 49.1312 41.9283 52.5034C44.2264 57.4791 42.5561 63.3849 42.5561 66.5238C42.5561 69.6627 46.3228 73.8479 52.8099 72.3831C59.2969 70.9183 58.4599 65.059 58.2506 57.5256C58.0414 49.9923 60.971 46.4349 65.1562 46.4349C69.3414 46.4349 71.8525 50.8293 70.8062 61.0831C69.7599 71.3368 81.897 77.6146 85.873 69.2442C89.8489 60.8738 83.7804 58.3627 77.5026 52.9219C71.2248 47.4812 73.1081 39.9478 72.8988 34.9255C72.6896 29.9033 68.5044 27.1829 64.7377 27.1829C60.971 27.1829 58.2506 30.5311 56.9951 33.8792C55.7395 37.2274 57.4136 44.5515 55.5303 49.783C53.6469 55.0145 49.0479 54.7131 46.7413 52.5034C44.2302 50.0977 44.2302 39.9478 44.2302 35.7626C44.2302 31.5774 38.1617 22.3699 31.0468 29.4848C23.952 36.5796 32.0472 42.4258 35.8278 45.1562L35.8598 45.1793Z" fill="url(#paint1_linear_4_19)"/>
<defs>
<linearGradient id="paint0_linear_4_19" x1="22.0487" y1="56.6886" x2="22.0487" y2="73.0109" gradientUnits="userSpaceOnUse">
<stop stop-color="#77F588"/>
<stop offset="1" stop-color="#66F49A"/>
</linearGradient>
<linearGradient id="paint1_linear_4_19" x1="57.6871" y1="26.8699" x2="57.6871" y2="73.1301" gradientUnits="userSpaceOnUse">
<stop stop-color="#ACFB51"/>
<stop offset="1" stop-color="#5DF3A3"/>
</linearGradient>
</defs>
</svg>
