<svg width="1em" height="1em" viewBox="0 0 24 24" fill="none" xmlns="http://www.w3.org/2000/svg">
<g clip-path="url(#clip0_5528_216489)">
<circle cx="12" cy="12" r="12" fill="white"/>
<path d="M17.723 2.78544C17.6773 2.87677 17.5681 2.91574 17.4759 2.87373C16.0952 2.24503 14.416 2.03374 13.3129 2.03374C9.3457 2.03374 5.37786 3.96793 5.37786 7.14855C5.37786 8.85318 6.65601 10.2963 8.52546 10.2963C10.5906 10.2963 12.1319 8.78802 13.3777 7.41068C14.4925 6.16456 15.8045 4.78752 17.6724 4.78752C19.7052 4.78752 21.18 6.29578 21.18 8.32861C21.18 11.5415 17.3116 15.1486 11.9667 15.1486C6.62184 15.1486 2.75381 12.2956 2.75381 8.32861C2.75381 4.62372 7.14719 1.27961 11.967 1.27961C14.4263 1.27961 16.2791 1.79536 17.6419 2.53457C17.732 2.58298 17.7683 2.69441 17.7217 2.78635L17.7233 2.78544H17.723ZM11.9676 0C5.37726 0 0 5.37694 0 11.9674C0 18.5579 5.37726 24 11.9676 24C18.558 24 24 18.6231 24 11.9674C24 5.31178 18.6237 0 11.9676 0Z" fill="#3EBE6A"/>
</g>
<defs>
<clipPath id="clip0_5528_216489">
<rect width="24" height="24" fill="white"/>
</clipPath>
</defs>
</svg>
