<svg width="24" height="24" viewBox="0 0 24 24" fill="none" xmlns="http://www.w3.org/2000/svg">
<g clip-path="url(#clip0_3_21)">
<mask id="mask0_3_21" style="mask-type:luminance" maskUnits="userSpaceOnUse" x="0" y="0" width="24" height="24">
<path d="M12 23.6647C18.4422 23.6647 23.6647 18.4422 23.6647 12C23.6647 5.55775 18.4422 0.335281 12 0.335281C5.55777 0.335281 0.335297 5.55775 0.335297 12C0.335297 18.4422 5.55777 23.6647 12 23.6647Z" fill="white"/>
</mask>
<g mask="url(#mask0_3_21)">
<path fill-rule="evenodd" clip-rule="evenodd" d="M1.12721 -0.426071H3.45709C4.0092 1.08415 3.49143 2.11966 1.90384 2.68045C2.11167 1.61705 1.72335 0.905141 0.738892 0.544715C1.12721 0.415278 1.51552 0.285838 1.90384 0.156401C1.54822 0.048286 1.28934 -0.145871 1.12721 -0.426071Z" fill="#072234"/>
<path fill-rule="evenodd" clip-rule="evenodd" d="M18.9897 -0.426071H24.4261V0.350558C23.1341 0.045145 21.8397 0.174582 20.5429 0.738873C21.5016 0.998286 22.4076 1.25716 23.2611 1.5155H19.7663C19.5074 0.868309 19.2485 0.221121 18.9897 -0.426071Z" fill="#1E572B"/>
<path fill-rule="evenodd" clip-rule="evenodd" d="M24.4261 0.35056V2.29213C23.9564 2.12436 23.5681 1.86548 23.2611 1.5155C22.4077 1.25717 21.5016 0.998288 20.5429 0.738875C21.8397 0.174584 23.1341 0.0451468 24.4261 0.35056Z" fill="#215925"/>
<path fill-rule="evenodd" clip-rule="evenodd" d="M6.95193 -0.426071H8.89351C9.18952 0.258302 9.70726 0.646617 10.4468 0.738872C10.5762 0.99775 10.7057 1.25662 10.8351 1.5155C9.76504 1.80832 8.72952 1.80832 7.72856 1.5155C7.57615 0.822826 7.31726 0.175634 6.95193 -0.426071Z" fill="#B2BFBE"/>
<path fill-rule="evenodd" clip-rule="evenodd" d="M8.89349 -0.426071H15.4948V0.738873H14.3299C13.6439 1.03261 12.932 1.29149 12.1942 1.5155C11.648 1.16065 11.0656 0.901774 10.4468 0.738873C9.70725 0.646617 9.18951 0.258302 8.89349 -0.426071Z" fill="#235B2F"/>
<path fill-rule="evenodd" clip-rule="evenodd" d="M5.01035 -0.426071H6.95192C7.31724 0.175634 7.57613 0.822826 7.72855 1.5155C7.21081 1.5155 6.95192 1.77438 6.95192 2.29213C6.5652 2.32544 6.24161 2.196 5.98113 1.90382C5.72671 1.07731 5.40309 0.300683 5.01035 -0.426071Z" fill="#6796BE"/>
<path fill-rule="evenodd" clip-rule="evenodd" d="M10.4467 0.738876C11.0656 0.901778 11.648 1.16066 12.1942 1.51551C12.932 1.29149 13.6439 1.03262 14.3299 0.738876C14.352 1.1695 14.4814 1.55781 14.7182 1.90382H13.9416C12.8625 1.98978 11.827 1.86034 10.8351 1.51551C10.7056 1.25663 10.5762 0.997754 10.4467 0.738876Z" fill="#568BA2"/>
<path fill-rule="evenodd" clip-rule="evenodd" d="M-0.426025 -0.426056H1.12723C1.28937 -0.145856 1.54824 0.0483008 1.90386 0.156416C1.51555 0.285853 1.12723 0.415294 0.738918 0.544731C1.72338 0.905156 2.11169 1.61707 1.90386 2.68046C1.25667 3.58653 0.48004 4.36314 -0.426025 5.01035V-0.426056Z" fill="#041E31"/>
<path fill-rule="evenodd" clip-rule="evenodd" d="M15.4948 -0.426071H16.2715C16.2919 1.46098 17.1979 2.10817 18.9897 1.5155C18.4266 0.991343 18.1677 0.344151 18.213 -0.426071H18.9897C19.2486 0.221121 19.5074 0.868309 19.7663 1.5155C20.7949 2.14046 21.9599 2.46406 23.2611 2.48629C23.477 2.63485 23.6065 2.82901 23.6494 3.06876C21.1525 3.03472 18.6932 2.71113 16.2715 2.09797C15.7578 1.78113 15.499 1.3281 15.4948 0.738873V-0.426071Z" fill="#6B94BD"/>
<path fill-rule="evenodd" clip-rule="evenodd" d="M16.2715 -0.426071H18.213C18.1677 0.344151 18.4266 0.991343 18.9897 1.5155C17.1979 2.10817 16.2918 1.46098 16.2715 -0.426071Z" fill="#5F95DF"/>
<path fill-rule="evenodd" clip-rule="evenodd" d="M19.7663 1.5155H23.2611C23.5681 1.86548 23.9564 2.12436 24.4261 2.29213V3.06876H23.6494C23.6065 2.82901 23.477 2.63485 23.2611 2.48629C21.9598 2.46406 20.7949 2.14046 19.7663 1.5155Z" fill="#28655F"/>
<path fill-rule="evenodd" clip-rule="evenodd" d="M7.72855 1.5155C8.7295 1.80832 9.76502 1.80832 10.8351 1.5155C11.827 1.86034 12.8625 1.98978 13.9416 1.90382C13.9846 2.14357 14.114 2.33773 14.3299 2.48629C13.3628 2.58695 12.392 2.52223 11.4175 2.29213C10.7647 2.33417 10.3117 2.59305 10.0584 3.06876C8.75529 3.31642 7.97866 2.79867 7.72855 1.5155Z" fill="#71A1D5"/>
<path fill-rule="evenodd" clip-rule="evenodd" d="M14.3299 0.738876H15.4948C15.499 1.3281 15.7578 1.78113 16.2715 2.09798C18.6932 2.71113 21.1525 3.03473 23.6494 3.06876H24.4261V4.62202C23.9083 4.75145 23.3906 4.88091 22.8728 5.01034C23.1805 4.13414 22.7922 3.61641 21.7079 3.45708C19.9901 3.28651 18.3074 3.28651 16.6598 3.45708C15.7845 3.21489 15.1374 2.69713 14.7182 1.90382C14.4814 1.55781 14.352 1.1695 14.3299 0.738876Z" fill="#ADB9CE"/>
<path fill-rule="evenodd" clip-rule="evenodd" d="M7.72856 1.5155C7.97868 2.79867 8.75531 3.31642 10.0585 3.06876C10.5556 3.62454 11.2029 3.88341 12 3.84539V4.62202H8.89351C8.1116 3.96852 7.46443 3.19189 6.95193 2.29213C6.95193 1.77438 7.21082 1.5155 7.72856 1.5155Z" fill="#6C96CC"/>
<path fill-rule="evenodd" clip-rule="evenodd" d="M4.2337 -0.426071H5.01033C5.40307 0.300683 5.72669 1.07731 5.98112 1.90382C6.2416 2.196 6.56518 2.32544 6.95191 2.29213C7.4644 3.19189 8.11157 3.96852 8.89348 4.62202C8.32704 4.59585 7.80926 4.72527 7.34022 5.01033C7.08133 4.75144 6.82248 4.49259 6.56359 4.2337C5.95677 3.67267 5.43903 3.02548 5.01033 2.29213C4.64182 1.42336 4.38297 0.517289 4.2337 -0.426071Z" fill="#BCDDE4"/>
<path fill-rule="evenodd" clip-rule="evenodd" d="M13.9416 4.62202C13.5826 3.60026 12.9354 3.34139 12 3.84539C12.1827 3.38194 12.571 3.12307 13.1649 3.06876C13.9893 2.95998 14.507 3.28357 14.7182 4.03955C14.5877 4.43947 14.3288 4.63363 13.9416 4.62202Z" fill="#665156"/>
<path fill-rule="evenodd" clip-rule="evenodd" d="M5.01035 2.29213C5.43905 3.02548 5.95679 3.67267 6.56361 4.23371C5.87932 5.49076 4.84384 6.39685 3.45709 6.95191H3.06878C2.76319 6.32897 2.24544 6.07008 1.51552 6.17528C1.54386 5.58236 1.28499 5.19405 0.738892 5.01033C1.7285 4.01466 2.76401 3.04385 3.84541 2.09797C4.26354 1.91563 4.65186 1.98035 5.01035 2.29213Z" fill="#0B2437"/>
<path fill-rule="evenodd" clip-rule="evenodd" d="M21.7079 3.45707C22.178 4.25805 21.8544 4.64636 20.7371 4.62202C19.9472 4.67887 19.3 4.41998 18.7955 3.84539C18.2689 4.18718 17.6865 4.31661 17.0481 4.2337C16.9187 3.97481 16.7892 3.71596 16.6598 3.45707C18.3074 3.28651 19.9901 3.28651 21.7079 3.45707Z" fill="#B5B6B1"/>
<path fill-rule="evenodd" clip-rule="evenodd" d="M3.45709 -0.426056H4.23372C4.38299 0.517304 4.64184 1.42337 5.01035 2.29215C4.65186 1.98036 4.26354 1.91564 3.8454 2.09799C2.764 3.04387 1.7285 4.01467 0.738888 5.01035C0.350573 5.26924 -0.0377411 5.52809 -0.426056 5.78698V5.01035C0.48001 4.36314 1.25664 3.58653 1.90383 2.68046C3.49142 2.11967 4.0092 1.08417 3.45709 -0.426056Z" fill="#95ACBC"/>
<path fill-rule="evenodd" clip-rule="evenodd" d="M21.7079 3.45708C22.7922 3.61641 23.1805 4.13414 22.8728 5.01033C21.987 4.84619 21.3398 5.10508 20.9312 5.78696H18.213C18.108 5.03732 17.7196 4.51958 17.0481 4.23371C17.6864 4.31661 18.2689 4.18719 18.7955 3.84539C19.3 4.41998 19.9472 4.67887 20.7371 4.62202C21.8544 4.64637 22.178 4.25805 21.7079 3.45708Z" fill="#ABBBD0"/>
<path fill-rule="evenodd" clip-rule="evenodd" d="M13.9416 1.90381H14.7182C15.1374 2.69712 15.7845 3.21488 16.6598 3.45707C16.7892 3.71596 16.9187 3.97481 17.0481 4.2337C17.7197 4.51957 18.108 5.03731 18.213 5.78695C16.5901 5.50488 15.0368 5.50488 13.5533 5.78695H13.165C13.1366 5.19404 13.3955 4.80572 13.9416 4.62201C14.3288 4.63362 14.5877 4.43946 14.7182 4.03954C14.507 3.28356 13.9893 2.95997 13.165 3.06875C12.571 3.12306 12.1827 3.38194 12 3.84538C11.2028 3.8834 10.5556 3.62454 10.0584 3.06875C10.3117 2.59304 10.7647 2.33416 11.4175 2.29212C12.392 2.52222 13.3628 2.58694 14.3299 2.48628C14.114 2.33772 13.9846 2.14356 13.9416 1.90381Z" fill="#6992D1"/>
<path fill-rule="evenodd" clip-rule="evenodd" d="M8.89349 4.62202H12V5.78696H9.28181C8.50518 5.91638 7.72855 6.04585 6.95192 6.17527C6.665 6.22614 6.40611 6.16141 6.17529 5.98112C6.59106 5.65035 6.97938 5.32677 7.34024 5.01033C7.80928 4.72527 8.32706 4.59584 8.89349 4.62202Z" fill="#543A30"/>
<path fill-rule="evenodd" clip-rule="evenodd" d="M13.9416 4.62202C13.3955 4.80573 13.1366 5.19404 13.165 5.78696C12.6796 5.81702 12.3561 6.07587 12.1942 6.56359C12.0018 7.32962 11.9371 8.10625 12 8.89348C11.1982 8.8868 10.4216 8.75737 9.67013 8.50516C8.98577 8.20915 8.59745 7.69141 8.50519 6.9519C9.49791 6.79716 10.5334 6.6677 11.6117 6.56359C10.7842 6.30392 10.0076 6.04503 9.28182 5.78696H12V3.84539C12.9354 3.34139 13.5826 3.60026 13.9416 4.62202Z" fill="#714233"/>
<path fill-rule="evenodd" clip-rule="evenodd" d="M18.213 5.78696H20.9312C21.1703 6.05964 21.1703 6.44795 20.9312 6.95191C20.1516 7.56645 19.2455 7.95477 18.213 8.11685V8.50516C17.2799 8.52536 16.3739 8.39589 15.4948 8.11685C15.2359 7.85796 14.9771 7.59911 14.7182 7.34022C14.1457 6.97664 13.7574 6.45886 13.5533 5.78696C15.0368 5.50489 16.5901 5.50489 18.213 5.78696Z" fill="#5E96DE"/>
<path fill-rule="evenodd" clip-rule="evenodd" d="M0.738888 5.01033C1.28498 5.19404 1.54386 5.58236 1.51552 6.17527C1.52202 7.48925 1.91034 8.6542 2.68046 9.67011C1.40032 9.61896 0.753131 8.97176 0.738888 7.72853H-0.426056V5.78696C-0.0377415 5.52807 0.350573 5.26922 0.738888 5.01033Z" fill="#0E2234"/>
<path fill-rule="evenodd" clip-rule="evenodd" d="M6.56361 4.2337C6.8225 4.49259 7.08135 4.75144 7.34024 5.01033C6.97938 5.32677 6.59106 5.65035 6.17529 5.98112C6.40611 6.16141 6.665 6.22615 6.95192 6.17528C6.47387 6.64813 6.02082 7.16587 5.59282 7.72853C5.14828 7.68229 4.69523 7.55286 4.23372 7.34022C3.84867 7.40685 3.58978 7.27739 3.45709 6.95191C4.84384 6.39685 5.87932 5.49076 6.56361 4.2337Z" fill="#644E46"/>
<path fill-rule="evenodd" clip-rule="evenodd" d="M24.4261 4.62202V7.72854C23.8596 7.70237 23.3419 7.83179 22.8728 8.11686C22.7974 7.18032 22.2797 6.792 21.3196 6.95191H20.9312C21.1703 6.44796 21.1703 6.05964 20.9312 5.78697C21.3398 5.10509 21.987 4.8462 22.8728 5.01034C23.3906 4.88091 23.9083 4.75145 24.4261 4.62202Z" fill="#6197D6"/>
<path fill-rule="evenodd" clip-rule="evenodd" d="M9.2818 5.78696C10.0076 6.04503 10.7842 6.30392 11.6117 6.56359C10.5334 6.66769 9.4979 6.79716 8.50517 6.9519C8.20698 7.24799 8.01283 7.6363 7.9227 8.11684C7.76194 7.93923 7.56778 7.8098 7.34023 7.72853C6.2571 8.4268 5.09216 8.62095 3.8454 8.311C4.13757 8.05052 4.26703 7.72694 4.23371 7.34021C4.69522 7.55286 5.14827 7.68228 5.59281 7.72853C6.02081 7.16586 6.47386 6.64812 6.95191 6.17527C7.72854 6.04585 8.50517 5.91638 9.2818 5.78696Z" fill="#734D3C"/>
<path fill-rule="evenodd" clip-rule="evenodd" d="M21.3195 6.95191C22.2797 6.79201 22.7974 7.18032 22.8728 8.11686H21.3195V6.95191Z" fill="#195466"/>
<path fill-rule="evenodd" clip-rule="evenodd" d="M-0.426056 7.72853H0.738888C0.753131 8.97176 1.40032 9.61896 2.68046 9.6701C3.04333 10.0847 3.17277 10.6024 3.06877 11.2234C1.6715 11.1088 0.506559 10.5911 -0.426056 9.6701V7.72853Z" fill="#081F42"/>
<path fill-rule="evenodd" clip-rule="evenodd" d="M3.06877 6.95191H3.45709C3.58978 7.27739 3.84866 7.40686 4.23372 7.34022C4.26703 7.72695 4.13757 8.05053 3.8454 8.31101C5.09216 8.62096 6.25711 8.4268 7.34023 7.72854C7.56779 7.80981 7.76194 7.93924 7.9227 8.11685C8.01283 7.63631 8.20699 7.248 8.50518 6.95191C8.59744 7.69141 8.98575 8.20915 9.67012 8.50517C9.84265 9.13159 10.231 9.5846 10.8351 9.86427C10.1922 10.4251 9.9334 11.137 10.0584 12H6.5636C7.41708 11.7417 8.32313 11.4828 9.2818 11.2234C9.42265 10.958 9.55211 10.6991 9.67012 10.4467C8.80072 10.0664 8.15352 9.41922 7.72855 8.50517C6.91414 9.45867 6.00808 9.84699 5.01035 9.67011C4.5578 9.04516 4.04003 8.91573 3.45709 9.2818C3.09009 8.70212 2.70178 8.11965 2.29214 7.53438C2.42266 7.13445 2.68154 6.9403 3.06877 6.95191Z" fill="#865643"/>
<path fill-rule="evenodd" clip-rule="evenodd" d="M15.4948 8.50517V8.11685C16.3739 8.39589 17.28 8.52536 18.213 8.50517V9.2818C17.5519 8.83127 17.293 9.09016 17.4364 10.0584C17.1775 9.79954 16.9187 9.54068 16.6598 9.2818C16.1636 9.17221 15.7753 8.91332 15.4948 8.50517Z" fill="#728DB5"/>
<path fill-rule="evenodd" clip-rule="evenodd" d="M13.1649 5.78696H13.5533C13.7574 6.45886 14.1457 6.97664 14.7182 7.34022C14.9449 8.42167 14.5566 9.06888 13.5533 9.28179C13.6041 8.94147 13.4746 8.68258 13.1649 8.50516C12.8089 8.74871 12.4206 8.87817 12 8.89347C11.937 8.10624 12.0017 7.32961 12.1942 6.56359C12.356 6.07586 12.6796 5.81701 13.1649 5.78696Z" fill="#6A4637"/>
<path fill-rule="evenodd" clip-rule="evenodd" d="M18.213 8.11685C19.0003 8.0539 19.7769 8.11859 20.5429 8.311C20.8678 8.70371 20.9973 9.15671 20.9312 9.67011H19.378C18.8767 9.76225 18.4884 9.63283 18.213 9.28179L18.213 8.11685Z" fill="#1F594C"/>
<path fill-rule="evenodd" clip-rule="evenodd" d="M20.9312 6.9519H21.3196V8.11685H22.8728C23.3419 7.83179 23.8596 7.70236 24.4261 7.72853V10.4467C22.6398 10.5323 20.9571 10.2735 19.378 9.67011H20.9312C20.9973 9.15672 20.8678 8.70371 20.5429 8.311C19.7769 8.11859 19.0003 8.0539 18.213 8.11685C19.2455 7.95477 20.1516 7.56645 20.9312 6.9519Z" fill="#699AC4"/>
<path fill-rule="evenodd" clip-rule="evenodd" d="M14.7182 7.34023C14.9771 7.59911 15.2359 7.85797 15.4948 8.11685V8.50517C15.1834 9.06885 14.9893 9.71605 14.9124 10.4467C14.5998 9.51436 14.2762 9.57909 13.9416 10.6409C14.5137 10.9164 14.7725 11.3695 14.7182 12C13.9686 11.8949 13.4508 11.5066 13.1649 10.8351C12.6004 10.1503 12.7299 9.63256 13.5533 9.2818C14.5566 9.06889 14.9449 8.42168 14.7182 7.34023Z" fill="#84594D"/>
<path fill-rule="evenodd" clip-rule="evenodd" d="M9.67011 10.4467C8.1356 10.7465 6.58235 10.876 5.01033 10.835V12C4.67001 12.0508 4.41112 11.9214 4.2337 11.6117C4.43858 10.8987 4.69743 10.2515 5.01033 9.6701C6.00807 9.84698 6.91412 9.45866 7.72853 8.50516C8.15351 9.41921 8.80071 10.0664 9.67011 10.4467Z" fill="#794E38"/>
<path fill-rule="evenodd" clip-rule="evenodd" d="M9.67012 10.4467C9.55211 10.6991 9.42265 10.9579 9.2818 11.2234C8.32313 11.4828 7.41708 11.7416 6.5636 12H5.01035V10.835C6.58236 10.876 8.13562 10.7465 9.67012 10.4467Z" fill="#7E4F3F"/>
<path fill-rule="evenodd" clip-rule="evenodd" d="M9.67014 8.50516C10.4216 8.75737 11.1982 8.88679 12 8.89347C12.1409 10.4011 12.1409 11.9544 12 13.5532C11.8226 14.4358 11.3049 14.9535 10.4468 15.1065C11.0489 14.1696 11.3078 13.1341 11.2234 12H10.0584C9.93341 11.137 10.1923 10.4251 10.8351 9.86426C10.231 9.58459 9.84266 9.13159 9.67014 8.50516Z" fill="#864C39"/>
<path fill-rule="evenodd" clip-rule="evenodd" d="M13.5533 9.28179C12.7299 9.63255 12.6004 10.1503 13.1649 10.835V12C12.7766 12.5177 12.3883 13.0355 12 13.5532C12.1408 11.9544 12.1408 10.4011 12 8.89347C12.4206 8.87817 12.8089 8.74871 13.1649 8.50516C13.4746 8.68258 13.6041 8.94147 13.5533 9.28179Z" fill="#7C4D36"/>
<path fill-rule="evenodd" clip-rule="evenodd" d="M18.213 9.2818C18.4884 9.63284 18.8767 9.76226 19.378 9.67011C20.9571 10.2735 22.6398 10.5323 24.4261 10.4467V11.2234C22.4089 11.0989 20.4674 11.2283 18.6014 11.6117C18.3425 11.6117 18.213 11.4823 18.213 11.2234C18.0453 10.7537 17.7864 10.3654 17.4364 10.0584C17.293 9.09017 17.5519 8.83128 18.213 9.2818Z" fill="#96C2D2"/>
<path fill-rule="evenodd" clip-rule="evenodd" d="M16.6598 9.2818C16.9187 9.54069 17.1775 9.79954 17.4364 10.0584C17.7864 10.3654 18.0452 10.7537 18.213 11.2234C17.5755 11.8372 16.7989 12.0961 15.8832 12C15.7608 10.9474 16.0197 10.0413 16.6598 9.2818Z" fill="#4D3227"/>
<path fill-rule="evenodd" clip-rule="evenodd" d="M24.4261 11.2234V12H18.6013V11.6117C20.4674 11.2283 22.4089 11.0989 24.4261 11.2234Z" fill="#DEF1F5"/>
<path fill-rule="evenodd" clip-rule="evenodd" d="M1.5155 6.17528C2.24542 6.07008 2.76317 6.32897 3.06876 6.95191C2.68153 6.9403 2.42265 7.13445 2.29213 7.53438C2.70177 8.11965 3.09008 8.70212 3.45708 9.28179C3.54487 10.3493 3.41543 11.3849 3.06876 12.3883C3.74571 12.9857 4.52234 13.374 5.39865 13.5533H5.78696V14.3299H5.39865C4.9296 14.0448 4.41182 13.9154 3.84539 13.9416C2.68636 13.3209 2.42749 12.4148 3.06876 11.2234C3.17276 10.6025 3.04332 10.0847 2.68045 9.67011C1.91033 8.6542 1.52201 7.48926 1.5155 6.17528Z" fill="#745F60"/>
<path fill-rule="evenodd" clip-rule="evenodd" d="M5.01036 9.67011C4.69745 10.2515 4.4386 10.8987 4.23373 11.6117C4.41115 11.9214 4.67004 12.0508 5.01036 12H8.11687V12.3883C7.20169 12.3249 6.2956 12.3896 5.39867 12.5825C4.97227 12.8814 4.97227 13.2049 5.39867 13.5533C4.52236 13.374 3.74574 12.9857 3.06879 12.3883C3.41546 11.3849 3.5449 10.3494 3.4571 9.2818C4.04004 8.91573 4.55782 9.04516 5.01036 9.67011Z" fill="#7F4638"/>
<path fill-rule="evenodd" clip-rule="evenodd" d="M15.4948 8.50516C15.7753 8.91331 16.1636 9.1722 16.6598 9.28179C16.0197 10.0413 15.7608 10.9473 15.8832 12C16.7989 12.0961 17.5756 11.8372 18.213 11.2234C18.213 11.4822 18.3425 11.6117 18.6014 11.6117V14.3299C18.3212 14.492 18.127 14.7509 18.0189 15.1065C17.5189 13.447 16.4833 12.6704 14.9124 12.7766C14.7321 12.5458 14.6673 12.2869 14.7182 12C14.7725 11.3694 14.5137 10.9164 13.9416 10.6409C14.2762 9.57908 14.5998 9.51435 14.9124 10.4467C14.9893 9.71604 15.1835 9.06883 15.4948 8.50516Z" fill="#6B4235"/>
<path fill-rule="evenodd" clip-rule="evenodd" d="M19.7663 12H24.4261V12.3883C23.2305 12.2952 22.0656 12.4246 20.9312 12.7766C20.4502 12.6048 20.0619 12.3459 19.7663 12Z" fill="#9DC9DD"/>
<path fill-rule="evenodd" clip-rule="evenodd" d="M-0.426056 15.1065V13.1649C0.204478 13.2193 0.657512 12.9604 0.933045 12.3883C2.40727 14.0899 1.95423 14.996 -0.426056 15.1065Z" fill="#022749"/>
<path fill-rule="evenodd" clip-rule="evenodd" d="M18.6013 12.3883V12H19.7663C20.0619 12.3459 20.4502 12.6048 20.9312 12.7766C22.0656 12.4246 23.2305 12.2952 24.4261 12.3883V12.7766C23.2437 12.7797 22.0788 12.9092 20.9312 13.1649C20.1546 12.9061 19.378 12.6472 18.6013 12.3883Z" fill="#3A5E6D"/>
<path fill-rule="evenodd" clip-rule="evenodd" d="M-0.426055 9.6701C0.506559 10.5911 1.6715 11.1088 3.06878 11.2234C2.4275 12.4148 2.68638 13.3209 3.8454 13.9416C2.98059 14.2913 2.59227 14.9384 2.68046 15.8831C1.6333 15.4442 0.597798 15.4442 -0.426056 15.8831V15.1065C1.95423 14.996 2.40727 14.0899 0.933045 12.3883C0.657513 12.9604 0.204478 13.2193 -0.426056 13.1649L-0.426055 9.6701Z" fill="#052742"/>
<path fill-rule="evenodd" clip-rule="evenodd" d="M8.11686 12.3883C7.85798 12.6472 7.59913 12.9061 7.34024 13.1649C7.10344 13.5109 6.97402 13.8992 6.95192 14.3299C6.45577 14.2203 6.06746 13.9614 5.78698 13.5533H5.39866C4.97226 13.2049 4.97226 12.8814 5.39866 12.5825C6.29559 12.3896 7.20168 12.3249 8.11686 12.3883Z" fill="#64180A"/>
<path fill-rule="evenodd" clip-rule="evenodd" d="M8.11687 12H11.2234C11.3078 13.1341 11.0489 14.1696 10.4468 15.1065C9.50462 15.7738 8.46911 15.968 7.34024 15.689C7.04807 15.4285 6.91861 15.1049 6.95192 14.7182C9.07103 15.2829 9.97709 14.5063 9.67012 12.3883C8.75067 12.7256 8.1682 13.3728 7.92271 14.3299C7.83258 13.8493 7.63842 13.461 7.34024 13.1649C7.59913 12.9061 7.85798 12.6472 8.11687 12.3883V12Z" fill="#AC4640"/>
<path fill-rule="evenodd" clip-rule="evenodd" d="M13.165 10.8351C13.4508 11.5066 13.9686 11.8949 14.7182 12C14.6673 12.2869 14.7321 12.5458 14.9124 12.7766C16.4833 12.6704 17.5189 13.4471 18.0189 15.1065C18.127 14.7509 18.3212 14.492 18.6014 14.3299C18.6275 14.8963 18.4981 15.4141 18.213 15.8831C17.1775 16.2715 16.142 16.6598 15.1065 17.0481C15.1294 16.0583 14.7411 15.2817 13.9416 14.7182C14.2005 14.5888 14.4593 14.4593 14.7182 14.3299C14.5802 13.9329 14.3213 13.674 13.9416 13.5533C13.6576 13.3817 13.2693 13.317 12.7766 13.3591C13.4801 12.955 13.6095 12.502 13.165 12L13.165 10.8351Z" fill="#794E3B"/>
<path fill-rule="evenodd" clip-rule="evenodd" d="M24.4261 12.7766V17.4364C24.0016 16.7183 23.4839 16.0712 22.8728 15.4948C22.2256 14.7182 21.5784 13.9416 20.9312 13.1649C22.0788 12.9092 23.2437 12.7797 24.4261 12.7766Z" fill="#0F2F45"/>
<path fill-rule="evenodd" clip-rule="evenodd" d="M18.6013 12.7766V12.3883C19.378 12.6472 20.1546 12.906 20.9312 13.1649C21.5784 13.9416 22.2256 14.7182 22.8728 15.4948C22.9394 15.8799 22.81 16.1388 22.4845 16.2715C21.5705 14.97 20.4056 13.9345 18.9897 13.1649C18.9897 12.906 18.8602 12.7766 18.6013 12.7766Z" fill="#ADB9BE"/>
<path fill-rule="evenodd" clip-rule="evenodd" d="M6.95193 14.7182V14.3299C6.97403 13.8992 7.10346 13.5109 7.34025 13.1649C7.63844 13.461 7.83259 13.8493 7.92272 14.3299C8.16821 13.3728 8.75069 12.7256 9.67014 12.3883C9.9771 14.5063 9.07104 15.2829 6.95193 14.7182Z" fill="#E66D6E"/>
<path fill-rule="evenodd" clip-rule="evenodd" d="M3.8454 13.9416C4.41183 13.9154 4.92961 14.0448 5.39865 14.3299C5.4908 14.8312 5.36138 15.2195 5.01034 15.4948C4.88996 15.014 4.69581 15.014 4.42787 15.4948C4.03955 16.2715 3.65124 17.0481 3.26293 17.8247C3.07545 17.4566 3.01073 17.0683 3.06877 16.6598C3.53539 15.9249 4.05315 15.213 4.62203 14.524C4.36314 14.2651 4.10429 14.2651 3.8454 14.524C3.5878 15.1137 3.19949 15.5667 2.68045 15.8831C2.59227 14.9384 2.98058 14.2913 3.8454 13.9416Z" fill="#1F4B65"/>
<path fill-rule="evenodd" clip-rule="evenodd" d="M18.9897 13.1649C20.4056 13.9345 21.5705 14.97 22.4845 16.2714C22.8045 17.5391 22.934 18.8334 22.8728 20.1546C22.4133 18.9636 21.8955 17.7986 21.3195 16.6598C21.2974 16.2291 21.168 15.8408 20.9312 15.4948C20.5101 14.6844 19.8629 14.1667 18.9897 13.9416V13.1649Z" fill="#EAE7E3"/>
<path fill-rule="evenodd" clip-rule="evenodd" d="M3.06877 16.6598C2.7059 17.0743 2.57647 17.5921 2.68046 18.213C2.43164 17.6141 2.04333 17.0963 1.51552 16.6598C0.905506 16.9741 0.258314 17.1035 -0.426056 17.0481V15.8831C0.597797 15.4442 1.6333 15.4442 2.68046 15.8831C3.19949 15.5667 3.58781 15.1137 3.8454 14.524C4.10429 14.2651 4.36314 14.2651 4.62203 14.524C4.05315 15.213 3.5354 15.9249 3.06877 16.6598Z" fill="#033251"/>
<path fill-rule="evenodd" clip-rule="evenodd" d="M13.165 12C13.6095 12.502 13.4801 12.955 12.7766 13.3591C13.2693 13.317 13.6576 13.3817 13.9416 13.5533C13.0614 14.4378 12.0259 15.1497 10.8351 15.689C11.8706 16.0773 11.8706 16.4656 10.8351 16.8539C11.6098 17.2126 11.7392 17.6656 11.2234 18.213H10.0584C10.1418 17.5611 9.88296 17.1728 9.28181 17.0481C9.02292 17.0481 8.89349 16.9187 8.89349 16.6598C9.60826 16.3094 10.126 15.7917 10.4468 15.1065C11.3049 14.9535 11.8226 14.4358 12 13.5533C12.3883 13.0355 12.7766 12.5177 13.165 12Z" fill="#875945"/>
<path fill-rule="evenodd" clip-rule="evenodd" d="M5.78699 13.5533C6.06747 13.9614 6.45578 14.2203 6.95193 14.3299V14.7182C6.91861 15.1049 7.04808 15.4285 7.34025 15.689C8.46911 15.968 9.50463 15.7738 10.4468 15.1065C10.126 15.7917 9.60827 16.3094 8.8935 16.6598C8.13579 17.103 7.35916 17.103 6.56362 16.6598C6.13721 16.3115 6.13721 15.9879 6.56362 15.689C6.3523 15.4105 6.09341 15.2163 5.78699 15.1065L5.78699 13.5533Z" fill="#894334"/>
<path fill-rule="evenodd" clip-rule="evenodd" d="M13.9416 13.5533C14.3213 13.674 14.5802 13.9329 14.7182 14.3299C14.4593 14.4593 14.2005 14.5888 13.9416 14.7182C14.7411 15.2817 15.1294 16.0583 15.1065 17.0481V18.213C13.9861 18.094 12.9506 18.2235 12 18.6013C11.6149 18.668 11.3561 18.5385 11.2234 18.213C11.7392 17.6656 11.6098 17.2126 10.8351 16.8539C11.8706 16.4656 11.8706 16.0773 10.8351 15.689C12.0259 15.1497 13.0614 14.4378 13.9416 13.5533Z" fill="#7A4B37"/>
<path fill-rule="evenodd" clip-rule="evenodd" d="M18.6014 12.7766C18.8603 12.7766 18.9897 12.9061 18.9897 13.1649V13.9416C19.1256 15.701 18.8667 17.3837 18.213 18.9897C17.8671 19.2265 17.4787 19.3559 17.0481 19.378C17.0481 19.1191 16.9187 18.9897 16.6598 18.9897C16.9737 17.8441 17.4915 16.8085 18.213 15.8831C18.4981 15.4141 18.6275 14.8963 18.6014 14.3299V12.7766Z" fill="#B8A18E"/>
<path fill-rule="evenodd" clip-rule="evenodd" d="M20.9312 15.4948C21.168 15.8408 21.2975 16.2291 21.3195 16.6598C21.4117 17.1611 21.2823 17.5494 20.9312 17.8247C19.7709 17.9588 19.2532 17.4411 19.378 16.2715C19.5074 15.8831 19.6369 15.4948 19.7663 15.1065C20.1223 15.3501 20.5106 15.4795 20.9312 15.4948Z" fill="#665B49"/>
<path fill-rule="evenodd" clip-rule="evenodd" d="M5.01035 15.4948C4.67306 16.3557 4.5436 17.2618 4.62204 18.213C4.25916 18.6276 4.12974 19.1454 4.23373 19.7663H3.4571V19.378C4.00629 18.5632 3.7474 18.1749 2.68047 18.213C2.57647 17.5921 2.70591 17.0743 3.06878 16.6598C3.01075 17.0683 3.07547 17.4566 3.26294 17.8247C3.65125 17.0481 4.03957 16.2715 4.42788 15.4948C4.69582 15.014 4.88998 15.014 5.01035 15.4948Z" fill="#143F5A"/>
<path fill-rule="evenodd" clip-rule="evenodd" d="M5.39865 14.3299H5.78696V17.8247C5.44097 18.0615 5.05266 18.1909 4.62202 18.213C4.54358 17.2618 4.67304 16.3557 5.01033 15.4948C5.36137 15.2195 5.4908 14.8312 5.39865 14.3299Z" fill="#C8CAD0"/>
<path fill-rule="evenodd" clip-rule="evenodd" d="M6.56359 16.6598C7.35913 17.103 8.13576 17.103 8.89348 16.6598C8.89348 16.9186 9.0229 17.0481 9.28179 17.0481C9.59272 17.6468 9.72214 18.294 9.67011 18.9896C9.3899 19.1518 9.19574 19.4107 9.08764 19.7663C8.94827 18.5841 8.68942 18.4547 8.31101 19.378C8.11751 18.5841 7.66446 18.0664 6.95191 17.8247C6.60087 17.5494 6.47144 17.1611 6.56359 16.6598Z" fill="#804F3B"/>
<path fill-rule="evenodd" clip-rule="evenodd" d="M18.213 15.8831C17.4915 16.8085 16.9737 17.844 16.6598 18.9897C16.142 19.378 15.6243 19.7663 15.1065 20.1546C14.2385 20.269 13.4619 20.1396 12.7766 19.7663C13.9363 19.7913 14.8424 19.3383 15.4948 18.4072C15.4062 18.2523 15.2767 18.1876 15.1065 18.213V17.0481C16.142 16.6598 17.1775 16.2714 18.213 15.8831Z" fill="#78513E"/>
<path fill-rule="evenodd" clip-rule="evenodd" d="M5.78697 15.1065C6.09339 15.2163 6.35227 15.4105 6.56359 15.689C6.13719 15.9879 6.13719 16.3114 6.56359 16.6598C6.47145 17.1611 6.60087 17.5494 6.95191 17.8247C7.03078 18.4244 7.28967 18.9422 7.72854 19.378C6.85219 19.871 6.07556 19.7416 5.39865 18.9897C5.63545 18.6437 5.76487 18.2553 5.78697 17.8247L5.78697 15.1065Z" fill="#8F5C46"/>
<path fill-rule="evenodd" clip-rule="evenodd" d="M2.68046 18.213C3.74739 18.1749 4.00628 18.5632 3.45709 19.378C2.6079 18.8895 1.70183 18.5012 0.738888 18.213H-0.426056V17.0481C0.258313 17.1035 0.905505 16.9741 1.51552 16.6598C2.04333 17.0964 2.43164 17.6141 2.68046 18.213Z" fill="#063865"/>
<path fill-rule="evenodd" clip-rule="evenodd" d="M0.7389 18.213C1.70184 18.5012 2.60791 18.8895 3.4571 19.378V19.7663C3.41051 20.1881 3.15163 20.4469 2.68047 20.5429C1.90384 20.0252 1.12721 19.5074 0.350586 18.9897C0.491439 18.7242 0.62088 18.4654 0.7389 18.213Z" fill="#07416C"/>
<path fill-rule="evenodd" clip-rule="evenodd" d="M15.1065 18.213C15.2767 18.1876 15.4061 18.2523 15.4948 18.4072C14.8423 19.3383 13.9363 19.7913 12.7766 19.7663C12.3685 19.4858 12.1096 19.0975 12 18.6013C12.9506 18.2235 13.9861 18.094 15.1065 18.213Z" fill="#813E30"/>
<path fill-rule="evenodd" clip-rule="evenodd" d="M9.2818 17.0481C9.88295 17.1728 10.1418 17.5611 10.0584 18.213H11.2234C11.3561 18.5385 11.6149 18.668 12 18.6013C12.1096 19.0975 12.3685 19.4858 12.7766 19.7663C11.7685 20.0635 10.733 20.1929 9.67011 20.1546V18.9897C9.72215 18.294 9.59272 17.6468 9.2818 17.0481Z" fill="#8D5445"/>
<path fill-rule="evenodd" clip-rule="evenodd" d="M22.8728 15.4948C23.4839 16.0712 24.0016 16.7183 24.4261 17.4364V17.8247C23.8941 17.9631 23.5058 18.2867 23.2611 18.7955C23.6028 20.2711 23.6028 21.7596 23.2611 23.2611H22.8728V20.1546C22.934 18.8334 22.8045 17.5391 22.4845 16.2715C22.81 16.1388 22.9394 15.8799 22.8728 15.4948Z" fill="#80A8B4"/>
<path fill-rule="evenodd" clip-rule="evenodd" d="M6.95191 17.8247C7.66447 18.0664 8.11752 18.5841 8.31101 19.378C8.68943 18.4547 8.94828 18.5841 9.08764 19.7663C9.19575 19.4107 9.38991 19.1518 9.67011 18.9896V20.1546C8.85325 20.7028 7.9472 21.0911 6.95191 21.3195C6.52127 21.2974 6.13296 21.168 5.78697 20.9312C5.39865 20.8018 5.13976 20.5429 5.01034 20.1546C4.91819 19.6533 5.04762 19.265 5.39865 18.9896C6.07556 19.7416 6.85219 19.871 7.72854 19.378C7.28967 18.9422 7.03078 18.4244 6.95191 17.8247Z" fill="#7B4333"/>
<path fill-rule="evenodd" clip-rule="evenodd" d="M18.9897 13.9416C19.8629 14.1667 20.5101 14.6844 20.9312 15.4948C20.5106 15.4795 20.1223 15.3501 19.7663 15.1065C19.6369 15.4948 19.5074 15.8831 19.378 16.2714C19.2532 17.4411 19.771 17.9588 20.9312 17.8247C20.5429 18.0836 20.1546 18.3424 19.7663 18.6013C19.5175 19.2002 19.1292 19.718 18.6014 20.1546C18.4211 19.7133 18.2916 19.325 18.213 18.9896C18.8667 17.3837 19.1256 15.701 18.9897 13.9416Z" fill="#B1AB93"/>
<path fill-rule="evenodd" clip-rule="evenodd" d="M5.78698 17.8247C5.76488 18.2553 5.63546 18.6437 5.39866 18.9897C5.04763 19.265 4.9182 19.6533 5.01035 20.1546H4.62204C4.36315 20.1546 4.23372 20.0252 4.23372 19.7663C4.12973 19.1454 4.25916 18.6276 4.62204 18.213C5.05268 18.1909 5.44099 18.0615 5.78698 17.8247Z" fill="#665350"/>
<path fill-rule="evenodd" clip-rule="evenodd" d="M21.3196 16.6598C21.8955 17.7986 22.4133 18.9636 22.8728 20.1546V20.5429C22.5218 20.8182 22.3923 21.2065 22.4845 21.7078C21.8461 21.6249 21.2637 21.7544 20.7371 22.0962C20.5468 21.594 20.4821 21.0762 20.5429 20.5429C21.1991 18.9851 20.9402 18.7262 19.7663 19.7663V18.6013C20.1546 18.3424 20.5429 18.0836 20.9312 17.8247C21.2823 17.5494 21.4117 17.1611 21.3196 16.6598Z" fill="#BBAA97"/>
<path fill-rule="evenodd" clip-rule="evenodd" d="M24.4261 17.8247V23.2611H23.2611C23.6028 21.7596 23.6028 20.2711 23.2611 18.7955C23.5058 18.2867 23.8941 17.9631 24.4261 17.8247Z" fill="#4795B0"/>
<path fill-rule="evenodd" clip-rule="evenodd" d="M-0.426055 18.213H0.738888C0.620868 18.4654 0.491427 18.7242 0.350574 18.9897C1.1272 19.5074 1.90383 20.0252 2.68046 20.5429C3.15162 20.4469 3.4105 20.1881 3.45709 19.7663H4.23372C4.23372 20.0252 4.36314 20.1546 4.62203 20.1546V22.8728H3.45709C3.54 22.2345 3.41056 21.652 3.06877 21.1254C1.81813 21.0175 0.653183 20.6939 -0.426056 20.1546L-0.426055 18.213Z" fill="#1A5788"/>
<path fill-rule="evenodd" clip-rule="evenodd" d="M19.7663 18.6013V19.7663C19.0963 20.4373 18.5785 21.2139 18.2131 22.0962C17.3258 21.6899 16.4197 21.6899 15.4949 22.0962C15.4405 22.7267 15.6994 23.1797 16.2715 23.4553C15.4982 23.6004 14.851 23.924 14.3299 24.4261H12.3883C12.3925 23.8368 12.6513 23.3838 13.165 23.067C15.511 22.819 15.6404 22.366 13.5533 21.7079C14.4967 21.5586 15.4027 21.2997 16.2715 20.9312C16.1663 20.2013 16.4252 19.6836 17.0481 19.378C17.4788 19.3559 17.8671 19.2265 18.2131 18.9897C18.2916 19.325 18.4211 19.7133 18.6014 20.1546C19.1292 19.718 19.5175 19.2002 19.7663 18.6013Z" fill="#B7AA97"/>
<path fill-rule="evenodd" clip-rule="evenodd" d="M-0.426056 20.1546C0.653183 20.6939 1.81813 21.0175 3.06877 21.1254C3.41056 21.652 3.54 22.2345 3.45709 22.8728C2.16271 22.7434 0.868324 22.6139 -0.426056 22.4845V20.1546Z" fill="#18528C"/>
<path fill-rule="evenodd" clip-rule="evenodd" d="M16.6598 18.9897C16.9187 18.9897 17.0481 19.1191 17.0481 19.378C16.4252 19.6836 16.1663 20.2013 16.2715 20.9312C15.4027 21.2997 14.4966 21.5586 13.5533 21.7079H12C11.9492 21.3675 12.0786 21.1086 12.3883 20.9312C13.3522 20.711 14.2583 20.4522 15.1065 20.1546C15.6243 19.7663 16.142 19.378 16.6598 18.9897Z" fill="#BDA994"/>
<path fill-rule="evenodd" clip-rule="evenodd" d="M12.7767 19.7663C13.4619 20.1396 14.2385 20.269 15.1065 20.1546C14.2583 20.4522 13.3522 20.711 12.3883 20.9312C12.0787 21.1086 11.9492 21.3675 12 21.7079C12 22.2256 11.7411 22.4845 11.2234 22.4845C10.2982 21.8841 9.26275 21.6252 8.11688 21.7079C8.3155 22.687 8.70381 23.5931 9.28182 24.4261H7.72856C7.24333 23.4529 6.98447 22.4175 6.95193 21.3195C7.94722 21.0911 8.85328 20.7028 9.67014 20.1546C10.733 20.1929 11.7685 20.0635 12.7767 19.7663Z" fill="#B09A8A"/>
<path fill-rule="evenodd" clip-rule="evenodd" d="M12 21.7079H13.5533C15.6404 22.366 15.511 22.819 13.1649 23.067C12.6513 23.3838 12.3924 23.8368 12.3883 24.4261H10.4467C11.0066 23.9137 11.2655 23.2665 11.2234 22.4845C11.7411 22.4845 12 22.2256 12 21.7079Z" fill="#B0A492"/>
<path fill-rule="evenodd" clip-rule="evenodd" d="M20.5429 20.5429C19.91 21.1355 19.5864 21.9121 19.5721 22.8728C19.0664 23.0999 18.6134 23.3588 18.213 23.6494C17.8258 23.661 17.5669 23.4669 17.4364 23.067C17.6521 22.6743 17.911 22.3508 18.213 22.0962C18.5785 21.2139 19.0963 20.4373 19.7663 19.7663C20.9402 18.7262 21.1991 18.9851 20.5429 20.5429Z" fill="#837463"/>
<path fill-rule="evenodd" clip-rule="evenodd" d="M20.5429 20.5429C20.4821 21.0762 20.5468 21.594 20.7371 22.0962C21.2637 21.7544 21.8462 21.6249 22.4845 21.7079C22.3924 21.2065 22.5218 20.8182 22.8728 20.5429V23.2611C22.8507 23.6918 22.7213 24.0801 22.4845 24.4261H21.3196C21.4165 23.8738 21.7401 23.4855 22.2903 23.2611C22.5492 22.8728 22.5492 22.4845 22.2903 22.0962C21.0312 22.5142 20.0604 23.2908 19.378 24.4261H18.213V23.6494C18.6134 23.3588 19.0664 23.0999 19.5721 22.8728C19.5864 21.9121 19.91 21.1355 20.5429 20.5429Z" fill="#C0A69B"/>
<path fill-rule="evenodd" clip-rule="evenodd" d="M5.78699 20.9312C6.13298 21.168 6.52129 21.2974 6.95193 21.3195C6.98447 22.4175 7.24332 23.4529 7.72856 24.4261H5.78699V20.9312Z" fill="#C3BFBE"/>
<path fill-rule="evenodd" clip-rule="evenodd" d="M11.2234 22.4845C11.2655 23.2665 11.0066 23.9137 10.4467 24.4261H9.2818C8.70379 23.5931 8.31547 22.687 8.11685 21.7079C9.26273 21.6252 10.2982 21.8841 11.2234 22.4845Z" fill="#B3AD99"/>
<path fill-rule="evenodd" clip-rule="evenodd" d="M4.62203 20.1546H5.01035C5.13977 20.5429 5.39866 20.8018 5.78698 20.9312V24.4261H3.8454V23.2611C2.39534 23.33 0.971515 23.2005 -0.426056 22.8728V22.4845C0.868325 22.6139 2.16271 22.7434 3.45709 22.8728H4.62203V20.1546Z" fill="#77A5C5"/>
<path fill-rule="evenodd" clip-rule="evenodd" d="M-0.426056 22.8728C0.971515 23.2005 2.39534 23.33 3.8454 23.2611V24.4261H-0.426056V22.8728Z" fill="#1D5788"/>
<path fill-rule="evenodd" clip-rule="evenodd" d="M18.213 22.0962C17.911 22.3508 17.6522 22.6743 17.4364 23.067C17.5669 23.4669 17.8258 23.661 18.213 23.6494V24.4261H14.3299C14.851 23.924 15.4982 23.6004 16.2715 23.4553C15.6994 23.1797 15.4405 22.7267 15.4948 22.0962C16.4197 21.6899 17.3258 21.6899 18.213 22.0962Z" fill="#A89D8C"/>
<path fill-rule="evenodd" clip-rule="evenodd" d="M21.3196 24.4261H19.378C20.0604 23.2908 21.0312 22.5142 22.2904 22.0962C22.5492 22.4845 22.5492 22.8728 22.2904 23.2611C21.7401 23.4855 21.4165 23.8738 21.3196 24.4261Z" fill="#715E4C"/>
<path fill-rule="evenodd" clip-rule="evenodd" d="M22.8728 23.2611H24.4261V24.4261H22.4845C22.7213 24.0801 22.8507 23.6917 22.8728 23.2611Z" fill="#9275BA"/>
</g>
</g>
<defs>
<clipPath id="clip0_3_21">
<rect width="24" height="24" fill="white"/>
</clipPath>
</defs>
</svg>
