<svg id="ic_mim_40" xmlns="http://www.w3.org/2000/svg" width="40" height="40.005" viewBox="0 0 40 40.005">
  <rect id="Rectangle_179" data-name="Rectangle 179" width="40" height="40" transform="translate(0 0.005)" fill="none"/>
  <path id="Path_1467" data-name="Path 1467" d="M39.4,24.842A20,20,0,1,1,24.836.6,20,20,0,0,1,39.4,24.842h0Z" transform="translate(0 -0.001)" fill="#101124"/>
  <g id="MIM" transform="translate(4 4.005)">
    <rect id="Rectangle_229" data-name="Rectangle 229" width="2.667" height="2.667" transform="translate(8 13.333) rotate(180)" fill="#fed955"/>
    <rect id="Rectangle_230" data-name="Rectangle 230" width="2.667" height="2.667" transform="translate(8 18.667) rotate(180)" fill="#fed955"/>
    <rect id="Rectangle_231" data-name="Rectangle 231" width="2.667" height="2.667" transform="translate(8 16) rotate(180)" fill="#fed955"/>
    <rect id="Rectangle_232" data-name="Rectangle 232" width="2.667" height="2.667" transform="translate(8 21.333) rotate(180)" fill="#fed955"/>
    <rect id="Rectangle_233" data-name="Rectangle 233" width="2.667" height="2.667" transform="translate(18.667 8) rotate(180)" fill="#fed955"/>
    <rect id="Rectangle_234" data-name="Rectangle 234" width="2.667" height="2.667" transform="translate(18.667 26.667) rotate(180)" fill="#fed955"/>
    <rect id="Rectangle_235" data-name="Rectangle 235" width="2.667" height="2.667" transform="translate(21.333 8) rotate(180)" fill="#fed955"/>
    <rect id="Rectangle_236" data-name="Rectangle 236" width="2.667" height="2.667" transform="translate(24 8) rotate(180)" fill="#9695f8"/>
    <rect id="Rectangle_237" data-name="Rectangle 237" width="2.667" height="2.667" transform="translate(8 5.333)" fill="#9695f8"/>
    <rect id="Rectangle_238" data-name="Rectangle 238" width="2.667" height="2.667" transform="translate(24 21.333)" fill="#9695f8"/>
    <rect id="Rectangle_239" data-name="Rectangle 239" width="2.667" height="2.667" transform="translate(8 24) rotate(180)" fill="#9695f8"/>
    <rect id="Rectangle_240" data-name="Rectangle 240" width="2.667" height="2.667" transform="translate(21.333 5.333) rotate(180)" fill="#9695f8"/>
    <rect id="Rectangle_241" data-name="Rectangle 241" width="2.667" height="2.667" transform="translate(21.333 2.667) rotate(180)" fill="#5552fd"/>
    <rect id="Rectangle_242" data-name="Rectangle 242" width="2.667" height="2.667" transform="translate(21.333 32) rotate(180)" fill="#5552fd"/>
    <rect id="Rectangle_243" data-name="Rectangle 243" width="2.667" height="2.667" transform="translate(21.333 29.333) rotate(180)" fill="#9695f8"/>
    <rect id="Rectangle_244" data-name="Rectangle 244" width="2.667" height="2.667" transform="translate(16 5.333) rotate(180)" fill="#9695f8"/>
    <rect id="Rectangle_245" data-name="Rectangle 245" width="2.667" height="2.667" transform="translate(16 2.667) rotate(180)" fill="#5552fd"/>
    <rect id="Rectangle_246" data-name="Rectangle 246" width="2.667" height="2.667" transform="translate(16 32) rotate(180)" fill="#5552fd"/>
    <rect id="Rectangle_247" data-name="Rectangle 247" width="2.667" height="2.667" transform="translate(16 29.333) rotate(180)" fill="#9695f8"/>
    <rect id="Rectangle_248" data-name="Rectangle 248" width="2.667" height="2.667" transform="translate(18.667 5.333) rotate(180)" fill="#9695f8"/>
    <rect id="Rectangle_249" data-name="Rectangle 249" width="2.667" height="2.667" transform="translate(18.667 2.667) rotate(180)" fill="#5552fd"/>
    <rect id="Rectangle_250" data-name="Rectangle 250" width="2.667" height="2.667" transform="translate(18.667 32) rotate(180)" fill="#5552fd"/>
    <rect id="Rectangle_251" data-name="Rectangle 251" width="2.667" height="2.667" transform="translate(18.667 29.333) rotate(180)" fill="#9695f8"/>
    <rect id="Rectangle_252" data-name="Rectangle 252" width="2.667" height="2.667" transform="translate(13.333 5.333) rotate(180)" fill="#9695f8"/>
    <rect id="Rectangle_253" data-name="Rectangle 253" width="2.667" height="2.667" transform="translate(13.333 2.667) rotate(180)" fill="#5552fd"/>
    <rect id="Rectangle_254" data-name="Rectangle 254" width="2.667" height="2.667" transform="translate(13.333 32) rotate(180)" fill="#5552fd"/>
    <rect id="Rectangle_255" data-name="Rectangle 255" width="2.667" height="2.667" transform="translate(13.333 29.333) rotate(180)" fill="#9695f8"/>
    <rect id="Rectangle_256" data-name="Rectangle 256" width="2.667" height="2.667" transform="translate(26.667 10.667) rotate(180)" fill="#9695f8"/>
    <rect id="Rectangle_257" data-name="Rectangle 257" width="2.667" height="2.667" transform="translate(5.333 8)" fill="#9695f8"/>
    <rect id="Rectangle_258" data-name="Rectangle 258" width="2.667" height="2.667" transform="translate(21.333 24)" fill="#9695f8"/>
    <rect id="Rectangle_259" data-name="Rectangle 259" width="2.667" height="2.667" transform="translate(10.667 26.667) rotate(180)" fill="#9695f8"/>
    <rect id="Rectangle_260" data-name="Rectangle 260" width="2.667" height="2.667" transform="translate(29.333 13.333) rotate(180)" fill="#9695f8"/>
    <rect id="Rectangle_261" data-name="Rectangle 261" width="2.667" height="2.667" transform="translate(5.333 13.333) rotate(180)" fill="#9695f8"/>
    <rect id="Rectangle_262" data-name="Rectangle 262" width="2.667" height="2.667" transform="translate(2.667 13.333) rotate(180)" fill="#5552fd"/>
    <rect id="Rectangle_263" data-name="Rectangle 263" width="2.667" height="2.667" transform="translate(5.333 10.667) rotate(180)" fill="#5552fd"/>
    <rect id="Rectangle_264" data-name="Rectangle 264" width="2.667" height="2.667" transform="translate(26.667 8)" fill="#5552fd"/>
    <rect id="Rectangle_265" data-name="Rectangle 265" width="2.667" height="2.667" transform="translate(24 29.333) rotate(180)" fill="#5552fd"/>
    <rect id="Rectangle_266" data-name="Rectangle 266" width="2.667" height="2.667" transform="translate(2.667 24) rotate(-90)" fill="#5552fd"/>
    <rect id="Rectangle_267" data-name="Rectangle 267" width="2.667" height="2.667" transform="translate(8 8) rotate(180)" fill="#5552fd"/>
    <rect id="Rectangle_268" data-name="Rectangle 268" width="2.667" height="2.667" transform="translate(24 5.333)" fill="#5552fd"/>
    <rect id="Rectangle_269" data-name="Rectangle 269" width="2.667" height="2.667" transform="translate(26.667 26.667) rotate(180)" fill="#5552fd"/>
    <rect id="Rectangle_270" data-name="Rectangle 270" width="2.667" height="2.667" transform="translate(5.333 26.667) rotate(-90)" fill="#5552fd"/>
    <rect id="Rectangle_271" data-name="Rectangle 271" width="2.667" height="2.667" transform="translate(10.667 5.333) rotate(180)" fill="#5552fd"/>
    <rect id="Rectangle_272" data-name="Rectangle 272" width="2.667" height="2.667" transform="translate(21.333 2.667)" fill="#5552fd"/>
    <rect id="Rectangle_273" data-name="Rectangle 273" width="2.667" height="2.667" transform="translate(29.333 24) rotate(180)" fill="#5552fd"/>
    <rect id="Rectangle_274" data-name="Rectangle 274" width="2.667" height="2.667" transform="translate(8 29.333) rotate(-90)" fill="#5552fd"/>
    <rect id="Rectangle_275" data-name="Rectangle 275" width="2.667" height="2.667" transform="translate(32 13.333) rotate(180)" fill="#5552fd"/>
    <rect id="Rectangle_276" data-name="Rectangle 276" width="2.667" height="2.667" transform="translate(29.333 16) rotate(180)" fill="#9695f8"/>
    <rect id="Rectangle_277" data-name="Rectangle 277" width="2.667" height="2.667" transform="translate(5.333 16) rotate(180)" fill="#9695f8"/>
    <rect id="Rectangle_278" data-name="Rectangle 278" width="2.667" height="2.667" transform="translate(2.667 16) rotate(180)" fill="#5552fd"/>
    <rect id="Rectangle_279" data-name="Rectangle 279" width="2.667" height="2.667" transform="translate(32 16) rotate(180)" fill="#5552fd"/>
    <rect id="Rectangle_280" data-name="Rectangle 280" width="2.667" height="2.667" transform="translate(29.333 18.667) rotate(180)" fill="#9695f8"/>
    <rect id="Rectangle_281" data-name="Rectangle 281" width="2.667" height="2.667" transform="translate(5.333 18.667) rotate(180)" fill="#9695f8"/>
    <rect id="Rectangle_282" data-name="Rectangle 282" width="2.667" height="2.667" transform="translate(2.667 18.667) rotate(180)" fill="#5552fd"/>
    <rect id="Rectangle_283" data-name="Rectangle 283" width="2.667" height="2.667" transform="translate(32 18.667) rotate(180)" fill="#5552fd"/>
    <rect id="Rectangle_284" data-name="Rectangle 284" width="2.667" height="2.667" transform="translate(29.333 21.333) rotate(180)" fill="#9695f8"/>
    <rect id="Rectangle_285" data-name="Rectangle 285" width="2.667" height="2.667" transform="translate(5.333 21.333) rotate(180)" fill="#9695f8"/>
    <rect id="Rectangle_286" data-name="Rectangle 286" width="2.667" height="2.667" transform="translate(2.667 21.333) rotate(180)" fill="#5552fd"/>
    <rect id="Rectangle_287" data-name="Rectangle 287" width="2.667" height="2.667" transform="translate(32 21.333) rotate(180)" fill="#5552fd"/>
    <rect id="Rectangle_288" data-name="Rectangle 288" width="2.667" height="2.667" transform="translate(21.333 26.667) rotate(180)" fill="#fed955"/>
    <rect id="Rectangle_289" data-name="Rectangle 289" width="2.667" height="2.667" transform="translate(18.667 13.333) rotate(180)" fill="#fed955"/>
    <rect id="Rectangle_290" data-name="Rectangle 290" width="2.667" height="2.667" transform="translate(18.667 18.667) rotate(180)" fill="#fed955"/>
    <rect id="Rectangle_291" data-name="Rectangle 291" width="2.667" height="2.667" transform="translate(18.667 21.333) rotate(180)" fill="#fed955"/>
    <rect id="Rectangle_292" data-name="Rectangle 292" width="2.667" height="2.667" transform="translate(18.667 10.667) rotate(180)" fill="#fed955"/>
    <rect id="Rectangle_293" data-name="Rectangle 293" width="2.667" height="2.667" transform="translate(18.667 24) rotate(180)" fill="#fed955"/>
    <rect id="Rectangle_294" data-name="Rectangle 294" width="2.667" height="2.667" transform="translate(13.333 18.667) rotate(180)" fill="#fed955"/>
    <rect id="Rectangle_295" data-name="Rectangle 295" width="2.667" height="2.667" transform="translate(13.333 16) rotate(180)" fill="#fed955"/>
    <rect id="Rectangle_296" data-name="Rectangle 296" width="2.667" height="2.667" transform="translate(13.333 21.333) rotate(180)" fill="#fed955"/>
    <rect id="Rectangle_297" data-name="Rectangle 297" width="2.667" height="2.667" transform="translate(13.333 10.667) rotate(180)" fill="#fed955"/>
    <rect id="Rectangle_298" data-name="Rectangle 298" width="2.667" height="2.667" transform="translate(13.333 24) rotate(180)" fill="#fed955"/>
    <rect id="Rectangle_299" data-name="Rectangle 299" width="2.667" height="2.667" transform="translate(21.333 18.667) rotate(180)" fill="#fed955"/>
    <rect id="Rectangle_300" data-name="Rectangle 300" width="2.667" height="2.667" transform="translate(21.333 16) rotate(180)" fill="#fed955"/>
    <rect id="Rectangle_301" data-name="Rectangle 301" width="2.667" height="2.667" transform="translate(21.333 21.333) rotate(180)" fill="#fed955"/>
    <rect id="Rectangle_302" data-name="Rectangle 302" width="2.667" height="2.667" transform="translate(21.333 10.667) rotate(180)" fill="#fed955"/>
    <rect id="Rectangle_303" data-name="Rectangle 303" width="2.667" height="2.667" transform="translate(21.333 24) rotate(180)" fill="#fed955"/>
    <rect id="Rectangle_304" data-name="Rectangle 304" width="2.667" height="2.667" transform="translate(16 8) rotate(180)" fill="#fed955"/>
    <rect id="Rectangle_305" data-name="Rectangle 305" width="2.667" height="2.667" transform="translate(16 26.667) rotate(180)" fill="#fed955"/>
    <rect id="Rectangle_306" data-name="Rectangle 306" width="2.667" height="2.667" transform="translate(13.333 8) rotate(180)" fill="#fed955"/>
    <rect id="Rectangle_307" data-name="Rectangle 307" width="2.667" height="2.667" transform="translate(13.333 26.667) rotate(180)" fill="#fed955"/>
    <rect id="Rectangle_308" data-name="Rectangle 308" width="2.667" height="2.667" transform="translate(16 13.333) rotate(180)" fill="#fed955"/>
    <rect id="Rectangle_309" data-name="Rectangle 309" width="2.667" height="2.667" transform="translate(16 18.667) rotate(180)" fill="#fed955"/>
    <rect id="Rectangle_310" data-name="Rectangle 310" width="2.667" height="2.667" transform="translate(13.333 13.333) rotate(180)" fill="#5552fd"/>
    <rect id="Rectangle_311" data-name="Rectangle 311" width="2.667" height="2.667" transform="translate(18.667 16) rotate(180)" fill="#5552fd"/>
    <rect id="Rectangle_312" data-name="Rectangle 312" width="2.667" height="2.667" transform="translate(24 13.333) rotate(180)" fill="#5552fd"/>
    <rect id="Rectangle_313" data-name="Rectangle 313" width="2.667" height="2.667" transform="translate(24 18.667) rotate(180)" fill="#5552fd"/>
    <rect id="Rectangle_314" data-name="Rectangle 314" width="2.667" height="2.667" transform="translate(24 16) rotate(180)" fill="#5552fd"/>
    <rect id="Rectangle_315" data-name="Rectangle 315" width="2.667" height="2.667" transform="translate(24 21.333) rotate(180)" fill="#5552fd"/>
    <rect id="Rectangle_316" data-name="Rectangle 316" width="2.667" height="2.667" transform="translate(24 10.667) rotate(180)" fill="#5552fd"/>
    <rect id="Rectangle_317" data-name="Rectangle 317" width="2.667" height="2.667" transform="translate(24 24) rotate(180)" fill="#5552fd"/>
    <rect id="Rectangle_318" data-name="Rectangle 318" width="2.667" height="2.667" transform="translate(10.667 13.333) rotate(180)" fill="#5552fd"/>
    <rect id="Rectangle_319" data-name="Rectangle 319" width="2.667" height="2.667" transform="translate(10.667 18.667) rotate(180)" fill="#5552fd"/>
    <rect id="Rectangle_320" data-name="Rectangle 320" width="2.667" height="2.667" transform="translate(10.667 16) rotate(180)" fill="#5552fd"/>
    <rect id="Rectangle_321" data-name="Rectangle 321" width="2.667" height="2.667" transform="translate(10.667 21.333) rotate(180)" fill="#5552fd"/>
    <rect id="Rectangle_322" data-name="Rectangle 322" width="2.667" height="2.667" transform="translate(10.667 10.667) rotate(180)" fill="#5552fd"/>
    <rect id="Rectangle_323" data-name="Rectangle 323" width="2.667" height="2.667" transform="translate(10.667 24) rotate(180)" fill="#5552fd"/>
    <rect id="Rectangle_324" data-name="Rectangle 324" width="2.667" height="2.667" transform="translate(21.333 13.333) rotate(180)" fill="#5552fd"/>
    <rect id="Rectangle_325" data-name="Rectangle 325" width="2.667" height="2.667" transform="translate(16 16) rotate(180)" fill="#5552fd"/>
    <rect id="Rectangle_326" data-name="Rectangle 326" width="2.667" height="2.667" transform="translate(16 21.333) rotate(180)" fill="#fed955"/>
    <rect id="Rectangle_327" data-name="Rectangle 327" width="2.667" height="2.667" transform="translate(16 10.667) rotate(180)" fill="#fed955"/>
    <rect id="Rectangle_328" data-name="Rectangle 328" width="2.667" height="2.667" transform="translate(16 24) rotate(180)" fill="#fed955"/>
    <rect id="Rectangle_329" data-name="Rectangle 329" width="2.667" height="2.667" transform="translate(26.667 13.333) rotate(180)" fill="#fed955"/>
    <rect id="Rectangle_330" data-name="Rectangle 330" width="2.667" height="2.667" transform="translate(26.667 18.667) rotate(180)" fill="#fed955"/>
    <rect id="Rectangle_331" data-name="Rectangle 331" width="2.667" height="2.667" transform="translate(26.667 16) rotate(180)" fill="#fed955"/>
    <rect id="Rectangle_332" data-name="Rectangle 332" width="2.667" height="2.667" transform="translate(26.667 21.333) rotate(180)" fill="#fed955"/>
  </g>
</svg>
