<svg width="1em" height="1em" viewBox="0 0 16 16" fill="none" xmlns="http://www.w3.org/2000/svg">
  <path
    d="M8.00033 11.3353C8.35395 11.3353 8.69309 11.4758 8.94313 11.7258C9.19318 11.9759 9.33366 12.315 9.33366 12.6686C9.33366 13.0222 9.19318 13.3614 8.94313 13.6114C8.69309 13.8615 8.35395 14.002 8.00033 14.002C7.6467 14.002 7.30757 13.8615 7.05752 13.6114C6.80747 13.3614 6.66699 13.0222 6.66699 12.6686C6.66699 12.315 6.80747 11.9759 7.05752 11.7258C7.30757 11.4758 7.6467 11.3353 8.00033 11.3353ZM8.00033 6.66862C8.35395 6.66862 8.69309 6.8091 8.94313 7.05914C9.19318 7.30919 9.33366 7.64833 9.33366 8.00195C9.33366 8.35557 9.19318 8.69471 8.94313 8.94476C8.69309 9.19481 8.35395 9.33529 8.00033 9.33529C7.6467 9.33529 7.30757 9.19481 7.05752 8.94476C6.80747 8.69471 6.66699 8.35558 6.66699 8.00195C6.66699 7.64833 6.80747 7.30919 7.05752 7.05914C7.30756 6.8091 7.6467 6.66862 8.00033 6.66862ZM8.00033 2.00195C8.35395 2.00195 8.69309 2.14243 8.94313 2.39248C9.19318 2.64253 9.33366 2.98166 9.33366 3.33529C9.33366 3.68891 9.19318 4.02805 8.94313 4.2781C8.69309 4.52814 8.35395 4.66862 8.00033 4.66862C7.6467 4.66862 7.30756 4.52814 7.05752 4.2781C6.80747 4.02805 6.66699 3.68891 6.66699 3.33529C6.66699 2.98166 6.80747 2.64253 7.05752 2.39248C7.30756 2.14243 7.6467 2.00195 8.00033 2.00195Z"
    fill="currentColor" />
</svg>
  
