<svg height="40.005" viewBox="0 0 40 40.005" width="40" xmlns="http://www.w3.org/2000/svg"><path d="m0 .005h40v40h-40z" fill="none"/><path d="m39.4 24.842a20 20 0 1 1 -14.564-24.242 20 20 0 0 1 14.564 24.242z" fill="#101124" transform="translate(0 -.001)"/><path d="m0 0h2.667v2.667h-2.667z" fill="#fed955" transform="matrix(-1 0 0 -1 12 17.338)"/><path d="m0 0h2.667v2.667h-2.667z" fill="#fed955" transform="matrix(-1 0 0 -1 12 22.672)"/><path d="m0 0h2.667v2.667h-2.667z" fill="#fed955" transform="matrix(-1 0 0 -1 12 20.005)"/><path d="m0 0h2.667v2.667h-2.667z" fill="#fed955" transform="matrix(-1 0 0 -1 12 25.338)"/><path d="m0 0h2.667v2.667h-2.667z" fill="#fed955" transform="matrix(-1 0 0 -1 22.667 12.005)"/><path d="m0 0h2.667v2.667h-2.667z" fill="#fed955" transform="matrix(-1 0 0 -1 22.667 30.672)"/><path d="m0 0h2.667v2.667h-2.667z" fill="#fed955" transform="matrix(-1 0 0 -1 25.333 12.005)"/><path d="m0 0h2.667v2.667h-2.667z" fill="#9695f8" transform="matrix(-1 0 0 -1 28 12.005)"/><path d="m12 9.338h2.667v2.667h-2.667z" fill="#9695f8"/><path d="m28 25.338h2.667v2.667h-2.667z" fill="#9695f8"/><path d="m0 0h2.667v2.667h-2.667z" fill="#9695f8" transform="matrix(-1 0 0 -1 12 28.005)"/><path d="m0 0h2.667v2.667h-2.667z" fill="#9695f8" transform="matrix(-1 0 0 -1 25.333 9.338)"/><path d="m0 0h2.667v2.667h-2.667z" fill="#5552fd" transform="matrix(-1 0 0 -1 25.333 6.672)"/><path d="m0 0h2.667v2.667h-2.667z" fill="#5552fd" transform="matrix(-1 0 0 -1 25.333 36.005)"/><path d="m0 0h2.667v2.667h-2.667z" fill="#9695f8" transform="matrix(-1 0 0 -1 25.333 33.338)"/><path d="m0 0h2.667v2.667h-2.667z" fill="#9695f8" transform="matrix(-1 0 0 -1 20 9.338)"/><path d="m0 0h2.667v2.667h-2.667z" fill="#5552fd" transform="matrix(-1 0 0 -1 20 6.672)"/><path d="m0 0h2.667v2.667h-2.667z" fill="#5552fd" transform="matrix(-1 0 0 -1 20 36.005)"/><path d="m0 0h2.667v2.667h-2.667z" fill="#9695f8" transform="matrix(-1 0 0 -1 20 33.338)"/><path d="m0 0h2.667v2.667h-2.667z" fill="#9695f8" transform="matrix(-1 0 0 -1 22.667 9.338)"/><path d="m0 0h2.667v2.667h-2.667z" fill="#5552fd" transform="matrix(-1 0 0 -1 22.667 6.672)"/><path d="m0 0h2.667v2.667h-2.667z" fill="#5552fd" transform="matrix(-1 0 0 -1 22.667 36.005)"/><path d="m0 0h2.667v2.667h-2.667z" fill="#9695f8" transform="matrix(-1 0 0 -1 22.667 33.338)"/><path d="m0 0h2.667v2.667h-2.667z" fill="#9695f8" transform="matrix(-1 0 0 -1 17.333 9.338)"/><path d="m0 0h2.667v2.667h-2.667z" fill="#5552fd" transform="matrix(-1 0 0 -1 17.333 6.672)"/><path d="m0 0h2.667v2.667h-2.667z" fill="#5552fd" transform="matrix(-1 0 0 -1 17.333 36.005)"/><path d="m0 0h2.667v2.667h-2.667z" fill="#9695f8" transform="matrix(-1 0 0 -1 17.333 33.338)"/><path d="m0 0h2.667v2.667h-2.667z" fill="#9695f8" transform="matrix(-1 0 0 -1 30.667 14.672)"/><path d="m9.333 12.005h2.667v2.667h-2.667z" fill="#9695f8"/><path d="m25.333 28.005h2.667v2.667h-2.667z" fill="#9695f8"/><path d="m0 0h2.667v2.667h-2.667z" fill="#9695f8" transform="matrix(-1 0 0 -1 14.667 30.672)"/><path d="m0 0h2.667v2.667h-2.667z" fill="#9695f8" transform="matrix(-1 0 0 -1 33.333 17.338)"/><path d="m0 0h2.667v2.667h-2.667z" fill="#9695f8" transform="matrix(-1 0 0 -1 9.333 17.338)"/><path d="m0 0h2.667v2.667h-2.667z" fill="#5552fd" transform="matrix(-1 0 0 -1 6.667 17.338)"/><path d="m0 0h2.667v2.667h-2.667z" fill="#5552fd" transform="matrix(-1 0 0 -1 9.333 14.672)"/><path d="m30.667 12.005h2.667v2.667h-2.667z" fill="#5552fd"/><path d="m0 0h2.667v2.667h-2.667z" fill="#5552fd" transform="matrix(-1 0 0 -1 28 33.338)"/><path d="m0 0h2.667v2.667h-2.667z" fill="#5552fd" transform="matrix(0 -1 1 0 6.667 28.005)"/><path d="m0 0h2.667v2.667h-2.667z" fill="#5552fd" transform="matrix(-1 0 0 -1 12 12.005)"/><path d="m28 9.338h2.667v2.667h-2.667z" fill="#5552fd"/><path d="m0 0h2.667v2.667h-2.667z" fill="#5552fd" transform="matrix(-1 0 0 -1 30.667 30.672)"/><path d="m0 0h2.667v2.667h-2.667z" fill="#5552fd" transform="matrix(0 -1 1 0 9.333 30.672)"/><path d="m0 0h2.667v2.667h-2.667z" fill="#5552fd" transform="matrix(-1 0 0 -1 14.667 9.338)"/><path d="m25.333 6.672h2.667v2.667h-2.667z" fill="#5552fd"/><path d="m0 0h2.667v2.667h-2.667z" fill="#5552fd" transform="matrix(-1 0 0 -1 33.333 28.005)"/><path d="m0 0h2.667v2.667h-2.667z" fill="#5552fd" transform="matrix(0 -1 1 0 12 33.338)"/><path d="m0 0h2.667v2.667h-2.667z" fill="#5552fd" transform="matrix(-1 0 0 -1 36 17.338)"/><path d="m0 0h2.667v2.667h-2.667z" fill="#9695f8" transform="matrix(-1 0 0 -1 33.333 20.005)"/><path d="m0 0h2.667v2.667h-2.667z" fill="#9695f8" transform="matrix(-1 0 0 -1 9.333 20.005)"/><path d="m0 0h2.667v2.667h-2.667z" fill="#5552fd" transform="matrix(-1 0 0 -1 6.667 20.005)"/><path d="m0 0h2.667v2.667h-2.667z" fill="#5552fd" transform="matrix(-1 0 0 -1 36 20.005)"/><path d="m0 0h2.667v2.667h-2.667z" fill="#9695f8" transform="matrix(-1 0 0 -1 33.333 22.672)"/><path d="m0 0h2.667v2.667h-2.667z" fill="#9695f8" transform="matrix(-1 0 0 -1 9.333 22.672)"/><path d="m0 0h2.667v2.667h-2.667z" fill="#5552fd" transform="matrix(-1 0 0 -1 6.667 22.672)"/><path d="m0 0h2.667v2.667h-2.667z" fill="#5552fd" transform="matrix(-1 0 0 -1 36 22.672)"/><path d="m0 0h2.667v2.667h-2.667z" fill="#9695f8" transform="matrix(-1 0 0 -1 33.333 25.338)"/><path d="m0 0h2.667v2.667h-2.667z" fill="#9695f8" transform="matrix(-1 0 0 -1 9.333 25.338)"/><path d="m0 0h2.667v2.667h-2.667z" fill="#5552fd" transform="matrix(-1 0 0 -1 6.667 25.338)"/><path d="m0 0h2.667v2.667h-2.667z" fill="#5552fd" transform="matrix(-1 0 0 -1 36 25.338)"/><g fill="#fed955"><path d="m0 0h2.667v2.667h-2.667z" transform="matrix(-1 0 0 -1 25.333 30.672)"/><path d="m0 0h2.667v2.667h-2.667z" transform="matrix(-1 0 0 -1 22.667 17.338)"/><path d="m0 0h2.667v2.667h-2.667z" transform="matrix(-1 0 0 -1 22.667 22.672)"/><path d="m0 0h2.667v2.667h-2.667z" transform="matrix(-1 0 0 -1 22.667 25.338)"/><path d="m0 0h2.667v2.667h-2.667z" transform="matrix(-1 0 0 -1 22.667 14.672)"/><path d="m0 0h2.667v2.667h-2.667z" transform="matrix(-1 0 0 -1 22.667 28.005)"/><path d="m0 0h2.667v2.667h-2.667z" transform="matrix(-1 0 0 -1 17.333 22.672)"/><path d="m0 0h2.667v2.667h-2.667z" transform="matrix(-1 0 0 -1 17.333 20.005)"/><path d="m0 0h2.667v2.667h-2.667z" transform="matrix(-1 0 0 -1 17.333 25.338)"/><path d="m0 0h2.667v2.667h-2.667z" transform="matrix(-1 0 0 -1 17.333 14.672)"/><path d="m0 0h2.667v2.667h-2.667z" transform="matrix(-1 0 0 -1 17.333 28.005)"/><path d="m0 0h2.667v2.667h-2.667z" transform="matrix(-1 0 0 -1 25.333 22.672)"/><path d="m0 0h2.667v2.667h-2.667z" transform="matrix(-1 0 0 -1 25.333 20.005)"/><path d="m0 0h2.667v2.667h-2.667z" transform="matrix(-1 0 0 -1 25.333 25.338)"/><path d="m0 0h2.667v2.667h-2.667z" transform="matrix(-1 0 0 -1 25.333 14.672)"/><path d="m0 0h2.667v2.667h-2.667z" transform="matrix(-1 0 0 -1 25.333 28.005)"/><path d="m0 0h2.667v2.667h-2.667z" transform="matrix(-1 0 0 -1 20 12.005)"/><path d="m0 0h2.667v2.667h-2.667z" transform="matrix(-1 0 0 -1 20 30.672)"/><path d="m0 0h2.667v2.667h-2.667z" transform="matrix(-1 0 0 -1 17.333 12.005)"/><path d="m0 0h2.667v2.667h-2.667z" transform="matrix(-1 0 0 -1 17.333 30.672)"/><path d="m0 0h2.667v2.667h-2.667z" transform="matrix(-1 0 0 -1 20 17.338)"/><path d="m0 0h2.667v2.667h-2.667z" transform="matrix(-1 0 0 -1 20 22.672)"/></g><path d="m0 0h2.667v2.667h-2.667z" fill="#5552fd" transform="matrix(-1 0 0 -1 17.333 17.338)"/><path d="m0 0h2.667v2.667h-2.667z" fill="#5552fd" transform="matrix(-1 0 0 -1 22.667 20.005)"/><path d="m0 0h2.667v2.667h-2.667z" fill="#5552fd" transform="matrix(-1 0 0 -1 28 17.338)"/><path d="m0 0h2.667v2.667h-2.667z" fill="#5552fd" transform="matrix(-1 0 0 -1 28 22.672)"/><path d="m0 0h2.667v2.667h-2.667z" fill="#5552fd" transform="matrix(-1 0 0 -1 28 20.005)"/><path d="m0 0h2.667v2.667h-2.667z" fill="#5552fd" transform="matrix(-1 0 0 -1 28 25.338)"/><path d="m0 0h2.667v2.667h-2.667z" fill="#5552fd" transform="matrix(-1 0 0 -1 28 14.672)"/><path d="m0 0h2.667v2.667h-2.667z" fill="#5552fd" transform="matrix(-1 0 0 -1 28 28.005)"/><path d="m0 0h2.667v2.667h-2.667z" fill="#5552fd" transform="matrix(-1 0 0 -1 14.667 17.338)"/><path d="m0 0h2.667v2.667h-2.667z" fill="#5552fd" transform="matrix(-1 0 0 -1 14.667 22.672)"/><path d="m0 0h2.667v2.667h-2.667z" fill="#5552fd" transform="matrix(-1 0 0 -1 14.667 20.005)"/><path d="m0 0h2.667v2.667h-2.667z" fill="#5552fd" transform="matrix(-1 0 0 -1 14.667 25.338)"/><path d="m0 0h2.667v2.667h-2.667z" fill="#5552fd" transform="matrix(-1 0 0 -1 14.667 14.672)"/><path d="m0 0h2.667v2.667h-2.667z" fill="#5552fd" transform="matrix(-1 0 0 -1 14.667 28.005)"/><path d="m0 0h2.667v2.667h-2.667z" fill="#5552fd" transform="matrix(-1 0 0 -1 25.333 17.338)"/><path d="m0 0h2.667v2.667h-2.667z" fill="#5552fd" transform="matrix(-1 0 0 -1 20 20.005)"/><path d="m0 0h2.667v2.667h-2.667z" fill="#fed955" transform="matrix(-1 0 0 -1 20 25.338)"/><path d="m0 0h2.667v2.667h-2.667z" fill="#fed955" transform="matrix(-1 0 0 -1 20 14.672)"/><path d="m0 0h2.667v2.667h-2.667z" fill="#fed955" transform="matrix(-1 0 0 -1 20 28.005)"/><path d="m0 0h2.667v2.667h-2.667z" fill="#fed955" transform="matrix(-1 0 0 -1 30.667 17.338)"/><path d="m0 0h2.667v2.667h-2.667z" fill="#fed955" transform="matrix(-1 0 0 -1 30.667 22.672)"/><path d="m0 0h2.667v2.667h-2.667z" fill="#fed955" transform="matrix(-1 0 0 -1 30.667 20.005)"/><path d="m0 0h2.667v2.667h-2.667z" fill="#fed955" transform="matrix(-1 0 0 -1 30.667 25.338)"/></svg>