<svg height="24" viewBox="0 0 24 24" width="24" xmlns="http://www.w3.org/2000/svg"><path d="m0 0h24v24h-24z" fill="none"/><path d="m22.985 14.492a11.664 11.664 0 1 1 -8.497-14.142 11.665 11.665 0 0 1 8.5 14.142z" fill="#101124" transform="translate(.333 .333)"/><path d="m0 0h1.556v1.556h-1.556z" fill="#fed955" transform="matrix(-1 0 0 -1 7.333 10.448)"/><path d="m0 0h1.556v1.556h-1.556z" fill="#fed955" transform="matrix(-1 0 0 -1 7.333 13.559)"/><path d="m0 0h1.556v1.556h-1.556z" fill="#fed955" transform="matrix(-1 0 0 -1 7.333 12.004)"/><path d="m0 0h1.556v1.556h-1.556z" fill="#fed955" transform="matrix(-1 0 0 -1 7.333 15.115)"/><path d="m0 0h1.556v1.556h-1.556z" fill="#fed955" transform="matrix(-1 0 0 -1 13.555 7.337)"/><path d="m0 0h1.556v1.556h-1.556z" fill="#fed955" transform="matrix(-1 0 0 -1 13.555 18.226)"/><path d="m0 0h1.556v1.556h-1.556z" fill="#fed955" transform="matrix(-1 0 0 -1 15.111 7.337)"/><path d="m0 0h1.556v1.556h-1.556z" fill="#9695f8" transform="matrix(-1 0 0 -1 16.666 7.337)"/><path d="m7.333 5.781h1.556v1.556h-1.556z" fill="#9695f8"/><path d="m16.666 15.115h1.556v1.556h-1.556z" fill="#9695f8"/><path d="m0 0h1.556v1.556h-1.556z" fill="#9695f8" transform="matrix(-1 0 0 -1 7.333 16.67)"/><path d="m0 0h1.556v1.556h-1.556z" fill="#9695f8" transform="matrix(-1 0 0 -1 15.111 5.781)"/><path d="m0 0h1.556v1.556h-1.556z" fill="#5552fd" transform="matrix(-1 0 0 -1 15.111 4.226)"/><path d="m0 0h1.556v1.556h-1.556z" fill="#5552fd" transform="matrix(-1 0 0 -1 15.111 21.337)"/><path d="m0 0h1.556v1.556h-1.556z" fill="#9695f8" transform="matrix(-1 0 0 -1 15.111 19.782)"/><path d="m0 0h1.556v1.556h-1.556z" fill="#9695f8" transform="matrix(-1 0 0 -1 12 5.781)"/><path d="m0 0h1.556v1.556h-1.556z" fill="#5552fd" transform="matrix(-1 0 0 -1 12 4.226)"/><path d="m0 0h1.556v1.556h-1.556z" fill="#5552fd" transform="matrix(-1 0 0 -1 12 21.337)"/><path d="m0 0h1.556v1.556h-1.556z" fill="#9695f8" transform="matrix(-1 0 0 -1 12 19.782)"/><path d="m0 0h1.556v1.556h-1.556z" fill="#9695f8" transform="matrix(-1 0 0 -1 13.555 5.781)"/><path d="m0 0h1.556v1.556h-1.556z" fill="#5552fd" transform="matrix(-1 0 0 -1 13.555 4.226)"/><path d="m0 0h1.556v1.556h-1.556z" fill="#5552fd" transform="matrix(-1 0 0 -1 13.555 21.337)"/><path d="m0 0h1.556v1.556h-1.556z" fill="#9695f8" transform="matrix(-1 0 0 -1 13.555 19.782)"/><path d="m0 0h1.556v1.556h-1.556z" fill="#9695f8" transform="matrix(-1 0 0 -1 10.444 5.781)"/><path d="m0 0h1.556v1.556h-1.556z" fill="#5552fd" transform="matrix(-1 0 0 -1 10.444 4.226)"/><path d="m0 0h1.556v1.556h-1.556z" fill="#5552fd" transform="matrix(-1 0 0 -1 10.444 21.337)"/><path d="m0 0h1.556v1.556h-1.556z" fill="#9695f8" transform="matrix(-1 0 0 -1 10.444 19.782)"/><path d="m0 0h1.556v1.556h-1.556z" fill="#9695f8" transform="matrix(-1 0 0 -1 18.222 8.892)"/><path d="m5.777 7.337h1.556v1.556h-1.556z" fill="#9695f8"/><path d="m15.111 16.67h1.556v1.556h-1.556z" fill="#9695f8"/><path d="m0 0h1.556v1.556h-1.556z" fill="#9695f8" transform="matrix(-1 0 0 -1 8.888 18.226)"/><path d="m0 0h1.556v1.556h-1.556z" fill="#9695f8" transform="matrix(-1 0 0 -1 19.778 10.448)"/><path d="m0 0h1.556v1.556h-1.556z" fill="#9695f8" transform="matrix(-1 0 0 -1 5.777 10.448)"/><path d="m0 0h1.556v1.556h-1.556z" fill="#5552fd" transform="matrix(-1 0 0 -1 4.222 10.448)"/><path d="m0 0h1.556v1.556h-1.556z" fill="#5552fd" transform="matrix(-1 0 0 -1 5.777 8.892)"/><path d="m18.222 7.337h1.556v1.556h-1.556z" fill="#5552fd"/><path d="m0 0h1.556v1.556h-1.556z" fill="#5552fd" transform="matrix(-1 0 0 -1 16.666 19.782)"/><path d="m0 0h1.556v1.556h-1.556z" fill="#5552fd" transform="matrix(0 -1 1 0 4.222 16.67)"/><path d="m0 0h1.556v1.556h-1.556z" fill="#5552fd" transform="matrix(-1 0 0 -1 7.333 7.337)"/><path d="m16.666 5.781h1.556v1.556h-1.556z" fill="#5552fd"/><path d="m0 0h1.556v1.556h-1.556z" fill="#5552fd" transform="matrix(-1 0 0 -1 18.222 18.226)"/><path d="m0 0h1.556v1.556h-1.556z" fill="#5552fd" transform="matrix(0 -1 1 0 5.777 18.226)"/><path d="m0 0h1.556v1.556h-1.556z" fill="#5552fd" transform="matrix(-1 0 0 -1 8.888 5.781)"/><path d="m15.111 4.226h1.556v1.556h-1.556z" fill="#5552fd"/><path d="m0 0h1.556v1.556h-1.556z" fill="#5552fd" transform="matrix(-1 0 0 -1 19.778 16.67)"/><path d="m0 0h1.556v1.556h-1.556z" fill="#5552fd" transform="matrix(0 -1 1 0 7.333 19.782)"/><path d="m0 0h1.556v1.556h-1.556z" fill="#5552fd" transform="matrix(-1 0 0 -1 21.333 10.448)"/><path d="m0 0h1.556v1.556h-1.556z" fill="#9695f8" transform="matrix(-1 0 0 -1 19.778 12.004)"/><path d="m0 0h1.556v1.556h-1.556z" fill="#9695f8" transform="matrix(-1 0 0 -1 5.777 12.004)"/><path d="m0 0h1.556v1.556h-1.556z" fill="#5552fd" transform="matrix(-1 0 0 -1 4.222 12.004)"/><path d="m0 0h1.556v1.556h-1.556z" fill="#5552fd" transform="matrix(-1 0 0 -1 21.333 12.004)"/><path d="m0 0h1.556v1.556h-1.556z" fill="#9695f8" transform="matrix(-1 0 0 -1 19.778 13.559)"/><path d="m0 0h1.556v1.556h-1.556z" fill="#9695f8" transform="matrix(-1 0 0 -1 5.777 13.559)"/><path d="m0 0h1.556v1.556h-1.556z" fill="#5552fd" transform="matrix(-1 0 0 -1 4.222 13.559)"/><path d="m0 0h1.556v1.556h-1.556z" fill="#5552fd" transform="matrix(-1 0 0 -1 21.333 13.559)"/><path d="m0 0h1.556v1.556h-1.556z" fill="#9695f8" transform="matrix(-1 0 0 -1 19.778 15.115)"/><path d="m0 0h1.556v1.556h-1.556z" fill="#9695f8" transform="matrix(-1 0 0 -1 5.777 15.115)"/><path d="m0 0h1.556v1.556h-1.556z" fill="#5552fd" transform="matrix(-1 0 0 -1 4.222 15.115)"/><path d="m0 0h1.556v1.556h-1.556z" fill="#5552fd" transform="matrix(-1 0 0 -1 21.333 15.115)"/><g fill="#fed955"><path d="m0 0h1.556v1.556h-1.556z" transform="matrix(-1 0 0 -1 15.111 18.226)"/><path d="m0 0h1.556v1.556h-1.556z" transform="matrix(-1 0 0 -1 13.555 10.448)"/><path d="m0 0h1.556v1.556h-1.556z" transform="matrix(-1 0 0 -1 13.555 13.559)"/><path d="m0 0h1.556v1.556h-1.556z" transform="matrix(-1 0 0 -1 13.555 15.115)"/><path d="m0 0h1.556v1.556h-1.556z" transform="matrix(-1 0 0 -1 13.555 8.892)"/><path d="m0 0h1.556v1.556h-1.556z" transform="matrix(-1 0 0 -1 13.555 16.671)"/><path d="m0 0h1.556v1.556h-1.556z" transform="matrix(-1 0 0 -1 10.444 13.559)"/><path d="m0 0h1.556v1.556h-1.556z" transform="matrix(-1 0 0 -1 10.444 12.004)"/><path d="m0 0h1.556v1.556h-1.556z" transform="matrix(-1 0 0 -1 10.444 15.115)"/><path d="m0 0h1.556v1.556h-1.556z" transform="matrix(-1 0 0 -1 10.444 8.892)"/><path d="m0 0h1.556v1.556h-1.556z" transform="matrix(-1 0 0 -1 10.444 16.671)"/><path d="m0 0h1.556v1.556h-1.556z" transform="matrix(-1 0 0 -1 15.111 13.559)"/><path d="m0 0h1.556v1.556h-1.556z" transform="matrix(-1 0 0 -1 15.111 12.004)"/><path d="m0 0h1.556v1.556h-1.556z" transform="matrix(-1 0 0 -1 15.111 15.115)"/><path d="m0 0h1.556v1.556h-1.556z" transform="matrix(-1 0 0 -1 15.111 8.892)"/><path d="m0 0h1.556v1.556h-1.556z" transform="matrix(-1 0 0 -1 15.111 16.671)"/><path d="m0 0h1.556v1.556h-1.556z" transform="matrix(-1 0 0 -1 12 7.337)"/><path d="m0 0h1.556v1.556h-1.556z" transform="matrix(-1 0 0 -1 12 18.226)"/><path d="m0 0h1.556v1.556h-1.556z" transform="matrix(-1 0 0 -1 10.444 7.337)"/><path d="m0 0h1.556v1.556h-1.556z" transform="matrix(-1 0 0 -1 10.444 18.226)"/><path d="m0 0h1.556v1.556h-1.556z" transform="matrix(-1 0 0 -1 12 10.448)"/><path d="m0 0h1.556v1.556h-1.556z" transform="matrix(-1 0 0 -1 12 13.559)"/></g><path d="m0 0h1.556v1.556h-1.556z" fill="#5552fd" transform="matrix(-1 0 0 -1 10.444 10.448)"/><path d="m0 0h1.556v1.556h-1.556z" fill="#5552fd" transform="matrix(-1 0 0 -1 13.555 12.004)"/><path d="m0 0h1.556v1.556h-1.556z" fill="#5552fd" transform="matrix(-1 0 0 -1 16.666 10.448)"/><path d="m0 0h1.556v1.556h-1.556z" fill="#5552fd" transform="matrix(-1 0 0 -1 16.666 13.559)"/><path d="m0 0h1.556v1.556h-1.556z" fill="#5552fd" transform="matrix(-1 0 0 -1 16.666 12.004)"/><path d="m0 0h1.556v1.556h-1.556z" fill="#5552fd" transform="matrix(-1 0 0 -1 16.666 15.115)"/><path d="m0 0h1.556v1.556h-1.556z" fill="#5552fd" transform="matrix(-1 0 0 -1 16.666 8.892)"/><path d="m0 0h1.556v1.556h-1.556z" fill="#5552fd" transform="matrix(-1 0 0 -1 16.666 16.671)"/><path d="m0 0h1.556v1.556h-1.556z" fill="#5552fd" transform="matrix(-1 0 0 -1 8.888 10.448)"/><path d="m0 0h1.556v1.556h-1.556z" fill="#5552fd" transform="matrix(-1 0 0 -1 8.888 13.559)"/><path d="m0 0h1.556v1.556h-1.556z" fill="#5552fd" transform="matrix(-1 0 0 -1 8.888 12.004)"/><path d="m0 0h1.556v1.556h-1.556z" fill="#5552fd" transform="matrix(-1 0 0 -1 8.888 15.115)"/><path d="m0 0h1.556v1.556h-1.556z" fill="#5552fd" transform="matrix(-1 0 0 -1 8.888 8.892)"/><path d="m0 0h1.556v1.556h-1.556z" fill="#5552fd" transform="matrix(-1 0 0 -1 8.888 16.671)"/><path d="m0 0h1.556v1.556h-1.556z" fill="#5552fd" transform="matrix(-1 0 0 -1 15.111 10.448)"/><path d="m0 0h1.556v1.556h-1.556z" fill="#5552fd" transform="matrix(-1 0 0 -1 12 12.004)"/><path d="m0 0h1.556v1.556h-1.556z" fill="#fed955" transform="matrix(-1 0 0 -1 12 15.115)"/><path d="m0 0h1.556v1.556h-1.556z" fill="#fed955" transform="matrix(-1 0 0 -1 12 8.892)"/><path d="m0 0h1.556v1.556h-1.556z" fill="#fed955" transform="matrix(-1 0 0 -1 12 16.671)"/><path d="m0 0h1.556v1.556h-1.556z" fill="#fed955" transform="matrix(-1 0 0 -1 18.222 10.448)"/><path d="m0 0h1.556v1.556h-1.556z" fill="#fed955" transform="matrix(-1 0 0 -1 18.222 13.559)"/><path d="m0 0h1.556v1.556h-1.556z" fill="#fed955" transform="matrix(-1 0 0 -1 18.222 12.004)"/><path d="m0 0h1.556v1.556h-1.556z" fill="#fed955" transform="matrix(-1 0 0 -1 18.222 15.115)"/></svg>