<svg xmlns="http://www.w3.org/2000/svg" width="16" height="16" viewBox="0 0 16 16">
  <g id="ic_new_link_16" transform="translate(-494.25 -348.25)">
    <rect id="Rectangle_485" data-name="Rectangle 485" width="16" height="16" transform="translate(494.25 348.25)" fill="rgba(255,255,255,0)"/>
    <g id="Group_331" data-name="Group 331" transform="translate(0 1)">
      <path id="Path_4413" data-name="Path 4413" d="M504.656,361.75h-7.312a2.1,2.1,0,0,1-2.094-2.094v-7.312a2.1,2.1,0,0,1,2.094-2.094H501a.75.75,0,0,1,0,1.5h-3.656a.6.6,0,0,0-.594.594v7.312a.6.6,0,0,0,.594.594h7.312a.6.6,0,0,0,.594-.594V356a.75.75,0,0,1,1.5,0v3.656A2.1,2.1,0,0,1,504.656,361.75Z" fill="#a0a3c4"/>
      <path id="Path_4414" data-name="Path 4414" d="M508,353.75a.75.75,0,0,1-.75-.75v-3.25H504a.75.75,0,0,1,0-1.5h4a.75.75,0,0,1,.75.75v4A.75.75,0,0,1,508,353.75Z" fill="#a0a3c4"/>
      <path id="Path_4415" data-name="Path 4415" d="M500,357.75a.75.75,0,0,1-.53-1.28l8-8a.75.75,0,0,1,1.06,1.06l-8,8A.744.744,0,0,1,500,357.75Z" fill="#a0a3c4"/>
    </g>
  </g>
</svg>
