<svg xmlns="http://www.w3.org/2000/svg" width="24" height="24"><path style="stroke:none;fill-rule:evenodd;fill:#fff;fill-opacity:1" d="M12 0c6.629 0 12 5.371 12 12s-5.371 12-12 12S0 18.629 0 12 5.371 0 12 0Zm0 0"/><path style="stroke:none;fill-rule:nonzero;fill:#000;fill-opacity:1" d="M16.54 5.246 13.394 9.91a.341.341 0 0 0 .058.442c.129.109.32.105.445-.008l3.094-2.692a.127.127 0 0 1 .133-.02c.043.024.07.071.066.122v8.41a.12.12 0 0 1-.082.113.121.121 0 0 1-.136-.03L7.613 5.042c-.3-.363-.75-.574-1.226-.566h-.332a1.599 1.599 0 0 0-1.586 1.605v11.836a1.602 1.602 0 0 0 1.168 1.547 1.608 1.608 0 0 0 1.808-.707l3.145-4.668a.341.341 0 0 0-.059-.442.339.339 0 0 0-.445.008l-3.094 2.676a.118.118 0 0 1-.133.016c-.046-.02-.07-.067-.066-.118V7.836c0-.05.031-.098.078-.113a.126.126 0 0 1 .14.03l9.36 11.2c.3.363.746.574 1.219.57h.336c.426 0 .832-.168 1.137-.468.3-.305.468-.711.468-1.137V6.082a1.618 1.618 0 0 0-1.18-1.547 1.623 1.623 0 0 0-1.812.711Zm0 0"/></svg>