<svg width="20" height="20" viewBox="0 0 20 20" fill="none" xmlns="http://www.w3.org/2000/svg">
<g id="external">
<path id="Union" fill-rule="evenodd" clip-rule="evenodd" d="M7.32559 11.8281C7.0913 12.0625 7.09135 12.4424 7.32569 12.6767C7.56003 12.9109 7.93993 12.9109 8.17422 12.6766L15.1499 5.69917L15.1499 8.75039C15.1499 9.08176 15.4185 9.35039 15.7499 9.35039C16.0813 9.35039 16.3499 9.08176 16.3499 8.75039L16.3499 4.25039V3.65039L15.7499 3.65039L11.2499 3.65039C10.9185 3.65039 10.6499 3.91902 10.6499 4.25039C10.6499 4.58176 10.9185 4.85039 11.2499 4.85039L14.3016 4.85039L7.32559 11.8281ZM6.2499 6.35234H9.2499C9.58127 6.35234 9.8499 6.08371 9.8499 5.75234C9.8499 5.42097 9.58127 5.15234 9.2499 5.15234L6.2499 5.15234C4.81396 5.15234 3.6499 6.3164 3.6499 7.75234L3.6499 13.7523C3.6499 15.1883 4.81396 16.3523 6.2499 16.3523H12.2499C13.6858 16.3523 14.8499 15.1883 14.8499 13.7523V10.7523C14.8499 10.421 14.5813 10.1523 14.2499 10.1523C13.9185 10.1523 13.6499 10.421 13.6499 10.7523V13.7523C13.6499 14.5255 13.0231 15.1523 12.2499 15.1523H6.2499C5.4767 15.1523 4.8499 14.5255 4.8499 13.7523L4.8499 7.75234C4.8499 6.97915 5.4767 6.35234 6.2499 6.35234Z" fill="#9EA4C2"/>
</g>
</svg>
