<svg xmlns="http://www.w3.org/2000/svg" width="24" height="24" fill="none" viewBox="0 0 24 24">
  <g clip-path="url(#a)">
    <rect width="24" height="24" fill="#fff" rx="12"/>
    <g clip-path="url(#b)">
      <path fill="#06070A" fill-rule="evenodd" d="M12 1.714C6.321 1.714 1.714 6.321 1.714 12c0 5.679 4.607 10.286 10.286 10.286h6.16C16.34 23.357 14.25 24 12 24 5.357 24 0 18.59 0 12 0 5.357 5.357 0 12 0s12 5.357 12 12c0 .59-.054 1.179-.107 1.714h-1.714a8.87 8.87 0 0 0 .16-1.714C22.286 6.321 17.68 1.714 12 1.714Z" clip-rule="evenodd"/>
      <path fill="#06070A" fill-rule="evenodd" d="M21.857 18.857c-.428.59-.964 1.179-1.5 1.715H12c-4.714 0-8.571-3.858-8.571-8.572 0-4.714 3.857-8.571 8.571-8.571 4.714 0 8.572 3.857 8.572 8.571a8.87 8.87 0 0 1-.161 1.714h-1.768c.16-.535.214-1.125.214-1.714A6.836 6.836 0 0 0 12 5.143 6.836 6.836 0 0 0 5.143 12 6.836 6.836 0 0 0 12 18.857h9.857Z" clip-rule="evenodd"/>
      <path fill="#06070A" fill-rule="evenodd" d="M22.822 17.143a9.404 9.404 0 0 0 .642-1.714H11.946c-1.874 0-3.428-1.554-3.428-3.429 0-1.875 1.553-3.428 3.428-3.428 1.876 0 3.43 1.553 3.43 3.428 0 .643-.162 1.232-.483 1.714h1.875c.214-.535.268-1.125.268-1.714a5.144 5.144 0 0 0-5.143-5.143A5.144 5.144 0 0 0 6.75 12a5.144 5.144 0 0 0 5.143 5.143H22.82Z" clip-rule="evenodd"/>
    </g>
  </g>
  <defs>
    <clipPath id="a">
      <rect width="24" height="24" fill="#fff" rx="12"/>
    </clipPath>
    <clipPath id="b">
      <path fill="#fff" d="M0 0h24v24H0z"/>
    </clipPath>
  </defs>
</svg>
