<svg width="24" height="24" viewBox="0 0 20 20" fill="none" xmlns="http://www.w3.org/2000/svg">
<circle cx="10" cy="10" r="10" fill="black"/>
<path d="M14.7969 11.6729C14.9072 11.673 14.9971 11.7627 14.9971 11.873V14.7998C14.9971 14.9102 14.9072 14.9999 14.7969 15H11.8672C11.7569 14.9998 11.668 14.9102 11.668 14.7998V11.873C11.668 11.7627 11.7569 11.673 11.8672 11.6729H14.7969ZM8.12109 11.6846C8.23135 11.6847 8.32118 11.7745 8.32129 11.8848V14.7881C8.32129 14.8984 8.23142 14.9881 8.12109 14.9883H5.21582C5.10536 14.9883 5.01562 14.8985 5.01562 14.7881V11.8848C5.01574 11.7744 5.10543 11.6846 5.21582 11.6846H8.12109ZM11.4199 8.36426C11.5303 8.36432 11.6201 8.45404 11.6201 8.56445V11.4326C11.6201 11.543 11.5303 11.6327 11.4199 11.6328H8.5498C8.43938 11.6328 8.34966 11.543 8.34961 11.4326V8.56445C8.34961 8.454 8.43935 8.36426 8.5498 8.36426H11.4199ZM8.13672 5C8.24718 5 8.33691 5.08974 8.33691 5.2002V8.13477C8.33691 8.24522 8.24718 8.33496 8.13672 8.33496H5.2002C5.08974 8.33496 5 8.24522 5 8.13477V5.2002C5 5.08974 5.08974 5 5.2002 5H8.13672ZM14.7998 5C14.9103 5 15 5.08974 15 5.2002V8.13477C15 8.24522 14.9103 8.33496 14.7998 8.33496H11.8623C11.752 8.3348 11.6631 8.24512 11.6631 8.13477V5.2002C11.6631 5.08984 11.752 5.00016 11.8623 5H14.7998Z" fill="white"/>
</svg>
