<svg width="24" height="24" viewBox="0 0 24 24" fill="none" xmlns="http://www.w3.org/2000/svg">
<g clip-path="url(#clip0_0_3)">
<path fill-rule="evenodd" clip-rule="evenodd" d="M24 12C24 14.3734 23.2962 16.6935 21.9776 18.6668C20.6591 20.6402 18.7849 22.1783 16.5922 23.0866C14.3995 23.9948 11.9867 24.2324 9.65892 23.7694C7.33115 23.3064 5.19295 22.1635 3.51472 20.4853C1.83649 18.8071 0.693605 16.6689 0.230582 14.3411C-0.232441 12.0133 0.00519941 9.60051 0.913451 7.4078C1.8217 5.21509 3.35977 3.34094 5.33316 2.02236C7.30655 0.703788 9.62663 0 12 0C15.1826 0 18.2348 1.26428 20.4853 3.51472C22.7357 5.76516 24 8.8174 24 12Z" fill="black"/>
<mask id="mask0_0_3" style="mask-type:luminance" maskUnits="userSpaceOnUse" x="3" y="4" width="18" height="16">
<path d="M20.2548 4.52754H3.74518V19.4723H20.2548V4.52754Z" fill="white"/>
</mask>
<g mask="url(#mask0_0_3)">
<path d="M11.9928 8.95855C11.3839 8.95641 10.788 9.13496 10.2806 9.4716C9.77324 9.80823 9.37712 10.2878 9.1424 10.8497C8.90768 11.4115 8.84492 12.0304 8.96205 12.6279C9.07918 13.2254 9.37094 13.7748 9.80041 14.2065C10.2299 14.6381 10.7777 14.9327 11.3747 15.0528C11.9716 15.173 12.5908 15.1134 13.1538 14.8815C13.7168 14.6496 14.1984 14.2559 14.5376 13.7503C14.8768 13.2446 15.0584 12.6497 15.0594 12.0407C15.061 11.2255 14.7389 10.443 14.1639 9.86506C13.5889 9.28714 12.808 8.96109 11.9928 8.95855ZM11.9826 13.5623C11.6808 13.5629 11.3856 13.4739 11.1345 13.3066C10.8834 13.1393 10.6876 12.9011 10.5719 12.6224C10.4563 12.3436 10.426 12.0369 10.4849 11.7409C10.5438 11.4449 10.6892 11.1731 10.9028 10.9599C11.1164 10.7467 11.3884 10.6016 11.6845 10.5432C11.9805 10.4848 12.2873 10.5155 12.5658 10.6316C12.8444 10.7477 13.0822 10.9439 13.2491 11.1953C13.4161 11.4467 13.5046 11.742 13.5036 12.0437C13.5006 12.446 13.3393 12.8309 13.0546 13.1151C12.77 13.3993 12.3848 13.56 11.9826 13.5623ZM20.2536 11.1875C20.2536 11.1179 20.2182 11.1095 20.163 11.1059C19.9062 11.0867 19.65 11.0693 19.3944 11.0459C19.3285 11.0481 19.2645 11.024 19.2164 10.979C19.1683 10.934 19.1399 10.8718 19.1376 10.8059C19.1157 10.6197 19.1047 10.4324 19.1046 10.2449C19.1046 9.18715 19.1046 8.12995 19.101 7.07215C19.1003 6.90901 19.0831 6.74637 19.0494 6.58675C18.9479 5.993 18.6338 5.45651 18.1656 5.07754C17.6974 4.69856 17.1072 4.50306 16.5054 4.52755H13.2594V6.53095C13.2804 6.53095 13.2942 6.53815 13.308 6.53815C14.148 6.53815 14.9838 6.53095 15.8226 6.53275C15.93 6.53069 16.0371 6.54651 16.1394 6.57955C16.2818 6.63363 16.4048 6.72899 16.4926 6.85342C16.5805 6.97784 16.6292 7.12566 16.6326 7.27795C16.6997 7.81999 16.7229 8.36656 16.7022 8.91235C16.689 9.49675 16.668 10.0811 16.6494 10.6649C16.6311 10.9112 16.6806 11.1578 16.7924 11.3779C16.9042 11.5981 17.074 11.7835 17.2836 11.9141C17.3436 11.9561 17.4078 11.9993 17.4792 12.0473C17.4288 12.0905 17.385 12.1253 17.3454 12.1631C17.2194 12.2777 17.0868 12.3857 16.9716 12.5111C16.7719 12.7101 16.6563 12.9782 16.6488 13.2599C16.6452 14.4599 16.6488 15.6599 16.6488 16.8599C16.6594 17.0093 16.618 17.1578 16.5316 17.28C16.4452 17.4023 16.3191 17.4909 16.1748 17.5307C16.0049 17.5798 15.829 17.6046 15.6522 17.6045C14.8938 17.6123 14.1354 17.6081 13.377 17.6081H13.2492V19.4681C13.2822 19.4681 13.3092 19.4723 13.3362 19.4723C14.6562 19.4627 15.9804 19.4555 17.3022 19.4381C17.4587 19.4406 17.6137 19.4063 17.7546 19.3379C18.1486 19.1544 18.4832 18.864 18.7204 18.4998C18.9577 18.1356 19.0881 17.7121 19.0968 17.2775C19.128 16.0817 19.1028 14.8847 19.1064 13.6883C19.1082 13.5494 19.126 13.4111 19.1592 13.2761C19.1719 13.1922 19.2151 13.1158 19.2805 13.0616C19.3459 13.0074 19.4289 12.9791 19.5138 12.9821C19.6338 12.9737 19.7502 12.9749 19.8684 12.9743C19.9866 12.9737 20.1174 12.9743 20.2434 12.9743C20.2483 12.9631 20.2521 12.9515 20.2548 12.9395C20.2548 12.3551 20.2548 11.7707 20.2548 11.1863M10.623 17.6075H8.37897C8.27817 17.6075 8.17737 17.6033 8.07897 17.5937C7.98374 17.5953 7.88917 17.5777 7.80083 17.5422C7.71249 17.5066 7.63215 17.4537 7.56456 17.3866C7.49696 17.3195 7.44347 17.2396 7.40724 17.1515C7.371 17.0634 7.35276 16.969 7.35357 16.8737C7.35357 15.6837 7.35357 14.4941 7.35357 13.3049C7.353 13.2287 7.34456 13.1527 7.32837 13.0781C7.2384 12.7462 7.03772 12.4549 6.75957 12.2525L6.51957 12.0479C6.57957 12.0095 6.61977 11.9807 6.66297 11.9531C6.88756 11.8204 7.07119 11.6283 7.19366 11.398C7.31614 11.1676 7.37271 10.908 7.35717 10.6475C7.34937 9.67795 7.35717 8.70715 7.35297 7.73635C7.35297 7.59655 7.32537 7.45735 7.31217 7.31635C7.30824 7.28567 7.30824 7.25462 7.31217 7.22395C7.34907 7.05308 7.43541 6.89685 7.56045 6.77469C7.68548 6.65253 7.84369 6.56985 8.01537 6.53695C8.12286 6.52999 8.23068 6.52999 8.33817 6.53695H10.7382V4.52755H10.6092C9.63177 4.52755 8.65377 4.53655 7.67637 4.52755C7.31128 4.52673 6.94837 4.58384 6.60117 4.69675C6.1017 4.8457 5.66467 5.15398 5.35679 5.57453C5.0489 5.99508 4.88706 6.50482 4.89597 7.02595C4.89597 8.14595 4.89597 9.26595 4.89597 10.3859C4.89562 10.5214 4.88479 10.6566 4.86357 10.7903C4.86281 10.8248 4.85515 10.8588 4.84105 10.8902C4.82695 10.9217 4.80668 10.95 4.78146 10.9735C4.75624 10.997 4.72656 11.0152 4.69419 11.027C4.66181 11.0388 4.6274 11.044 4.59297 11.0423C4.34697 11.0675 4.10077 11.0875 3.85437 11.1023C3.76677 11.1065 3.74637 11.1389 3.74637 11.2223C3.74637 11.7719 3.74637 12.3215 3.74637 12.8711C3.74637 12.9041 3.75057 12.9371 3.75357 12.9791C3.79377 12.9791 3.82497 12.9791 3.85557 12.9791C4.06077 12.9791 4.26597 12.9749 4.47057 12.9833C4.56112 12.9767 4.65077 13.0051 4.72093 13.0627C4.79108 13.1204 4.83636 13.2028 4.84737 13.2929C4.8778 13.4212 4.8941 13.5524 4.89597 13.6841C4.89957 14.8775 4.89597 16.0709 4.89597 17.2637C4.89373 17.3575 4.89934 17.4512 4.91277 17.5439C5.01963 18.1423 5.33667 18.6827 5.80677 19.0679C6.08941 19.3204 6.45683 19.4571 6.83577 19.4507C8.10117 19.4507 9.36777 19.4645 10.6338 19.4741C10.6704 19.4741 10.7076 19.4741 10.7538 19.4741V17.6075H10.623Z" fill="white"/>
</g>
</g>
<defs>
<clipPath id="clip0_0_3">
<rect width="24" height="24" fill="white"/>
</clipPath>
</defs>
</svg>
