<svg width="12" height="18" viewBox="0 0 12 18" fill="none" xmlns="http://www.w3.org/2000/svg">
<g clip-path="url(#clip0_3040_7199)">
<path fill-rule="evenodd" clip-rule="evenodd" d="M0.837211 9.00001C0.837211 6.14867 3.14867 3.83721 6.00001 3.83721C8.83678 3.83721 11.1392 6.12516 11.1626 8.95634C11.1645 9.18752 11.3535 9.37338 11.5847 9.37147C11.8159 9.36956 12.0017 9.1806 11.9998 8.94942C11.9726 5.65895 9.29684 3 6.00001 3C2.6863 3 0 5.6863 0 9.00001C0 12.2968 2.65895 14.9726 5.94942 14.9998C6.1806 15.0017 6.36956 14.8159 6.37147 14.5847C6.37338 14.3535 6.18752 14.1645 5.95634 14.1626C3.12516 14.1392 0.837211 11.8368 0.837211 9.00001ZM6.00001 6.62791C4.68994 6.62791 3.62791 7.68994 3.62791 9.00001C3.62791 9.99545 4.24121 10.8487 5.11213 11.2005C5.32649 11.2871 5.43007 11.531 5.34347 11.7454C5.25688 11.9598 5.01291 12.0633 4.79855 11.9767C3.62205 11.5015 2.7907 10.3483 2.7907 9.00001C2.7907 7.22756 4.22756 5.7907 6.00001 5.7907C7.34834 5.7907 8.50148 6.62205 8.97674 7.79855C9.06333 8.01291 8.95975 8.25688 8.74539 8.34347C8.53103 8.43007 8.28706 8.32649 8.20047 8.11213C7.84866 7.24121 6.99545 6.62791 6.00001 6.62791ZM7.49021 14.1692L6.03199 9.79454C5.87489 9.32326 6.32326 8.87489 6.79454 9.03199L11.1692 10.4902C11.7188 10.6734 11.7188 11.4508 11.1692 11.634L9.55379 12.1725C9.37377 12.2325 9.23252 12.3738 9.17251 12.5538L8.63404 14.1692C8.45083 14.7188 7.67341 14.7188 7.49021 14.1692Z" fill="#F3B50C"/>
</g>
<defs>
<clipPath id="clip0_3040_7199">
<rect width="12" height="12" fill="white" transform="translate(0 3)"/>
</clipPath>
</defs>
</svg>
