<?xml version="1.0" encoding="UTF-8"?><svg id="CIRCLE_OUTLINE_BLACK" xmlns="http://www.w3.org/2000/svg" xmlns:xlink="http://www.w3.org/1999/xlink" width="24px" height="24px" viewBox="0 0 512 512"><defs><linearGradient id="Degradado_sin_nombre_27" x1="74.98066" y1="437.01934" x2="437.01934" y2="74.98066" gradientUnits="userSpaceOnUse"><stop offset=".12431" stop-color="#f9b48f"/><stop offset=".35348" stop-color="#f1a4a7"/><stop offset=".58238" stop-color="#eb98b8"/><stop offset=".75047" stop-color="#ea95bf"/></linearGradient></defs><circle cx="256" cy="256" r="256" fill="url(#Degradado_sin_nombre_27)" stroke-width="0"/><rect x="232.19116" y="189.56792" width="48.78256" height="48.79985" transform="translate(-76.14886 244.07876) rotate(-44.99618)" fill="#000" stroke-width="0"/><path d="M139.35507,212.79559l-31.99994,33.54832,92.90304,89.29014s21.16125,20.12899,56.77408,20.12899,58.83859-24.25802,58.83859-24.25802l88.77401-85.67725-33.03219-33.03219-84.12886,84.12886s-8.77418,14.9648-30.96768,14.45013-27.35478-10.3211-27.35478-10.3211l-89.80627-88.25789Z" fill="#000" stroke-width="0"/><path d="M422.63324,89.3667c-44.50879-44.50977-103.6875-69.02197-166.63281-69.02197s-122.12402,24.51221-166.63379,69.02197c-44.50879,44.50928-69.02148,103.6875-69.02148,166.6333s24.5127,122.12402,69.02148,166.6333c44.50977,44.50977,103.6875,69.02197,166.63379,69.02197s122.12402-24.51221,166.63281-69.02197c44.50879-44.50928,69.02148-103.6875,69.02148-166.6333s-24.5127-122.12402-69.02148-166.6333ZM414.14789,414.14795c-42.24219,42.24316-98.40723,65.50732-158.14746,65.50732s-115.90527-23.26416-158.14844-65.50732c-42.24316-42.24268-65.50684-98.40723-65.50684-158.14795s23.26367-115.90527,65.50684-158.14795c42.24316-42.24316,98.40723-65.50732,158.14844-65.50732s115.90527,23.26416,158.14746,65.50732c42.24316,42.24268,65.50684,98.40723,65.50684,158.14795s-23.26367,115.90527-65.50684,158.14795Z" fill="#000" stroke-width="0"/></svg>