<svg xmlns="http://www.w3.org/2000/svg" width="40" height="40" viewBox="0 0 40 40">
  <g id="ic_olympus" transform="translate(-197 -16)">
    <rect id="Rectangle_433" data-name="Rectangle 433" width="40" height="40" transform="translate(197 16)" fill="rgba(255,255,255,0)"/>
    <path id="Path_1632" data-name="Path 1632" d="M15.292,39.372V32.448A12.674,12.674,0,0,1,6.318,20.427,12.8,12.8,0,0,1,19.281,7.8a12.8,12.8,0,0,1,12.963,12.63,12.674,12.674,0,0,1-8.974,12.021v6.924H37.562V34.221H30.5a17.336,17.336,0,0,0,6.975-13.835c0-9.706-8.147-17.575-18.2-17.575s-18.2,7.868-18.2,17.575A17.336,17.336,0,0,0,8.058,34.221H1v5.152Z" transform="translate(197.438 14.628)" fill="#fff"/>
  </g>
</svg>
