<svg height="64" viewBox="0 0 64 64" width="64" xmlns="http://www.w3.org/2000/svg"><rect fill="#fff" height="64" rx="32" width="64"/><path d="m100 181.147a20.046 20.046 0 0 1 20.638 14.447v.092c.046.138.183.183.321.229h.041a14.087 14.087 0 0 0 3.577-.459c.046 0 .092-.046.138-.046h.138a.724.724 0 0 1 .734.734v3.348a.733.733 0 0 1 -.413.6c-.092 0-.138.046-.229.046a18.421 18.421 0 0 1 -3.21.6h-.135a.393.393 0 0 0 -.275.321v.046.046c0 .459 0 .917-.046 1.376v.046a.389.389 0 0 0 .321.367h.092a14.008 14.008 0 0 0 2.843-.459c.046 0 .092-.046.138-.046h.138a.741.741 0 0 1 .734.642v3.44a.69.69 0 0 1 -.459.642c-.046 0-.138.046-.183.046a21.048 21.048 0 0 1 -4.494.688h-.046a.464.464 0 0 0 -.321.183.045.045 0 0 1 -.046.046 20.016 20.016 0 0 1 -38.753-8.347 20.42 20.42 0 0 1 18.757-18.628zm1.376 4.953a15 15 0 1 0 13.524 21.417c.046-.046.046-.138.092-.183v-.046a.345.345 0 0 0 -.229-.321h-.092l-.183-.046a18.322 18.322 0 0 0 -10.181-.275h-.183a.744.744 0 0 1 -.734-.6v-3.715a.854.854 0 0 1 .413-.55h.046c1.192-.459 4.632-1.376 10.594.183a11.982 11.982 0 0 0 1.238.275c.046 0 .138.046.183.046a.307.307 0 0 0 .321-.275v-.138c0-.275.046-.5.046-.78v-.5a.291.291 0 0 0 -.229-.275h-.046c-.459-.092-.871-.229-1.33-.367l-.183-.046a17.814 17.814 0 0 0 -10-.321c-.092.046-.229.046-.321.092h-.046a.744.744 0 0 1 -.734-.6v-3.715a.661.661 0 0 1 .413-.5c.046 0 .092-.046.138-.046 1.238-.459 4.586-1.284 10.273.183h.138a.362.362 0 0 0 .367-.367v-.092c0-.046-.046-.092-.046-.138a14.511 14.511 0 0 0 -13.252-8.3z" fill="#393e4d" transform="translate(-69.388 -168.166)"/></svg>