<svg width="24" height="24" fill="none" xmlns="http://www.w3.org/2000/svg"><g clip-path="url(#a)"><path d="M24 12c0-2.37337-.7038-4.69345-2.0224-6.66684A11.99996 11.99996 0 0 0 3.51472 3.51472 12.00001 12.00001 0 0 0 .91345 16.5922a11.99955 11.99955 0 0 0 4.41971 5.3854A11.99986 11.99986 0 0 0 12 24c3.1823-.0011 6.2339-1.2657 8.4841-3.5159C22.7343 18.2339 23.9989 15.1823 24 12Z" fill="#FF0420"/><path d="M8.50553 15.1871a2.8677 2.8677 0 0 1-1.7568-.5088 1.73968 1.73968 0 0 1-.51979-.646 1.73964 1.73964 0 0 1-.16181-.8132 3.47196 3.47196 0 0 1 .048-.4896c.0768-.432.192-.9504.336-1.5648a2.9676 2.9676 0 0 1 3.168-2.47678 3.0472 3.0472 0 0 1 1.24797.24c.3493.14115.6496.38142.864.6912.216.3198.3267.69908.3168 1.08478a3.4812 3.4812 0 0 1-.048.48c-.096.54-.2016 1.056-.3264 1.5648a3.32681 3.32681 0 0 1-1.0944 1.8528 3.28739 3.28739 0 0 1-2.07357.6048v-.0192Zm.1344-1.296c.31152.0055.61467-.101.8544-.3a1.68779 1.68779 0 0 0 .51837-.912c.144-.5664.2496-1.056.3168-1.4784.0275-.1293.0404-.2614.0384-.3936a.74509.74509 0 0 0-.222-.6251.7454.7454 0 0 0-.29264-.1745.74523.74523 0 0 0-.33973-.02598 1.34698 1.34698 0 0 0-.864.29998 1.67997 1.67997 0 0 0-.5088.912c-.1152.4032-.2208.8928-.3264 1.4784a1.67976 1.67976 0 0 0-.0384.384c-.0096.5568.288.8352.864.8352ZM12.4513 15.1009a.1791.1791 0 0 1-.0851-.0147.18098.18098 0 0 1-.0685-.0525.23979.23979 0 0 1-.0288-.1632l1.248-5.85603a.23605.23605 0 0 1 .0352-.09299.23554.23554 0 0 1 .0704-.07021.26355.26355 0 0 1 .1728-.0672h2.4a2.83182 2.83182 0 0 1 1.6032.4128c.1979.12933.3587.30804.4664.51848a1.3587 1.3587 0 0 1 .148.68155 2.03355 2.03355 0 0 1-.06.4704 2.46025 2.46025 0 0 1-.912 1.536 3.06464 3.06464 0 0 1-1.86.4992h-1.2192l-.4128 1.98a.27235.27235 0 0 1-.1056.1632.26361.26361 0 0 1-.1728.0672h-1.2288l.0096-.012Zm3.1872-3.4464c.2376.0061.4702-.0683.66-.2112.1943-.1468.3304-.3577.384-.5952.0176-.0886.0273-.1786.0288-.2688a.54992.54992 0 0 0-.1536-.4032.77173.77173 0 0 0-.528-.144h-1.0848l-.3456 1.6128h1.0368l.0024.0096Z" fill="#fff"/></g><defs><clipPath id="a"><path fill="#fff" d="M0 0h24v24H0z"/></clipPath></defs></svg>