<svg width="20" height="20" viewBox="0 0 20 20" fill="none" xmlns="http://www.w3.org/2000/svg">
<path d="M15.041 8.21973C15.1723 8.05255 15.3894 8.00508 15.5684 8.10449C15.7474 8.20399 15.8423 8.42462 15.7988 8.64062L15.1875 11.6768H17.1963C17.3676 11.6768 17.5235 11.7879 17.5947 11.96C17.6658 12.132 17.6396 12.3346 17.5273 12.4775L12.7842 18.5186C12.6528 18.6857 12.4348 18.7333 12.2559 18.6338C12.0769 18.5343 11.9819 18.3126 12.0254 18.0967L12.6367 15.0605H10.6289C10.4575 15.0605 10.3017 14.9495 10.2305 14.7773C10.1595 14.6055 10.1859 14.4036 10.2979 14.2607L15.041 8.21973ZM10 1.40039C13.8829 1.40039 17.1633 3.97283 18.2324 7.50586L18.3291 7.85059L18.3477 7.9707C18.3616 8.24938 18.1782 8.50879 17.8975 8.58105C17.6167 8.65329 17.3313 8.51443 17.209 8.26367L17.167 8.14941L17.084 7.85254C16.1638 4.81253 13.3395 2.59961 10 2.59961C5.91309 2.59961 2.59961 5.91309 2.59961 10C2.59961 13.9592 5.70922 17.1924 9.61914 17.3906L10 17.4004L10.1211 17.4121C10.3944 17.4681 10.5996 17.7101 10.5996 18C10.5996 18.2899 10.3944 18.5319 10.1211 18.5879L10 18.5996L9.55762 18.5889C5.01355 18.3586 1.40039 14.6013 1.40039 10C1.40039 5.25035 5.25035 1.40039 10 1.40039ZM9.36621 5.16406C10.8307 4.94073 12.2422 5.40063 13.2754 6.30371L13.4766 6.49023L13.5547 6.58398C13.7104 6.8151 13.6878 7.13091 13.4854 7.33789C13.2825 7.54501 12.9659 7.5751 12.7314 7.42383L12.6367 7.34668L12.4854 7.20703C11.7072 6.52659 10.647 6.18184 9.54688 6.34961C7.56515 6.65211 6.20359 8.50458 6.50586 10.4863C6.67384 11.5864 7.31873 12.4953 8.2002 13.0352L8.37891 13.1387L8.48047 13.2061C8.69478 13.3847 8.7612 13.6958 8.62402 13.9512C8.48684 14.2063 8.19094 14.322 7.92383 14.2422L7.81152 14.1953L7.57324 14.0586C6.40322 13.3418 5.54401 12.1322 5.32031 10.668C4.91788 8.03091 6.72916 5.56649 9.36621 5.16406Z" fill="white"/>
</svg>
