<svg height="18.078" viewBox="0 0 20.002 18.078" width="20.002" xmlns="http://www.w3.org/2000/svg"><path d="m15.8 9.392v.072a.166.166 0 0 1 -.155.125l-.079-.017c-.18-.04-.363-.082-.554-.133a7.941 7.941 0 0 0 -4.8-.091h-.013a.339.339 0 0 0 -.2.242v1.668a.339.339 0 0 0 .332.271.329.329 0 0 0 .066-.007h.012a8.149 8.149 0 0 1 4.594.123l.074.025h.013.011a.148.148 0 0 1 .091.182l-.041.085a6.778 6.778 0 1 1 -.067-5.957.168.168 0 0 1 .028.058.171.171 0 0 1 .008.042.16.16 0 0 1 -.214.16.152.152 0 0 1 -.024-.006 7.973 7.973 0 0 0 -4.634-.077l-.072.028a.337.337 0 0 0 -.177.232v1.69a.339.339 0 0 0 .332.271h.014l.137-.035a8.13 8.13 0 0 1 4.521.141l.087.029c.2.067.4.121.6.167a.17.17 0 0 1 .019 0 .168.168 0 0 1 .1.128v.048.179c0 .119-.009.235-.015.353m3.859-2.963a.344.344 0 0 0 -.067.007l-.066.021a6.036 6.036 0 0 1 -1.625.216h-.027a.168.168 0 0 1 -.139-.094.148.148 0 0 1 -.01-.035 9.039 9.039 0 1 0 -.2 5.615.2.2 0 0 1 .012-.031.167.167 0 0 1 .135-.089h.023a8.519 8.519 0 0 0 2.023-.3l.087-.025a.339.339 0 0 0 .2-.289v-1.545a.342.342 0 0 0 -.337-.284.366.366 0 0 0 -.062.008l-.061.018a5.66 5.66 0 0 1 -1.294.209h-.034a.167.167 0 0 1 -.155-.162s0-.01 0-.015c.013-.2.022-.406.022-.611 0-.006 0-.012 0-.019s0-.019 0-.029a.166.166 0 0 1 .121-.147l.063-.005a8.4 8.4 0 0 0 1.444-.265l.106-.031a.339.339 0 0 0 .188-.273v-1.509a.339.339 0 0 0 -.339-.332" fill="#fff"/></svg>