<svg width="20" height="20" viewBox="0 0 20 20" fill="none" xmlns="http://www.w3.org/2000/svg">
<path fill-rule="evenodd" clip-rule="evenodd" d="M3.0999 6.4999C3.0999 5.7267 3.7267 5.0999 4.4999 5.0999L15.4999 5.0999C16.2731 5.0999 16.8999 5.72671 16.8999 6.4999L16.8999 13.4999C16.8999 14.2731 16.2731 14.8999 15.4999 14.8999H4.4999C3.7267 14.8999 3.0999 14.2731 3.0999 13.4999L3.0999 6.4999ZM4.4999 3.8999C3.06396 3.8999 1.8999 5.06396 1.8999 6.4999V13.4999C1.8999 14.9358 3.06396 16.0999 4.4999 16.0999H15.4999C16.9358 16.0999 18.0999 14.9358 18.0999 13.4999V6.4999C18.0999 5.06396 16.9358 3.8999 15.4999 3.8999H4.4999ZM15.455 7.64083C15.671 7.3895 15.6423 7.01068 15.391 6.79472C15.1397 6.57876 14.7609 6.60743 14.5449 6.85876L11.5822 10.3067L8.07244 9.17858C7.8544 9.1085 7.61549 9.16865 7.45664 9.33361L4.56778 12.3336C4.33793 12.5723 4.3451 12.9521 4.58379 13.182C4.82249 13.4118 5.20232 13.4047 5.43217 13.166L8.06147 10.4355L11.5941 11.571C11.8239 11.6449 12.0755 11.5739 12.2328 11.3908L15.455 7.64083Z" fill="#9EA4C2"/>
</svg>
