<svg xmlns="http://www.w3.org/2000/svg" width="20" height="20" fill="currentColor" viewBox="0 0 20 20">
  <path fill-rule="evenodd" d="M2.887 2.887c-1.22 1.22-1.22 3.185-1.22 7.113 0 3.928 0 5.893 1.22 7.113 1.22 1.22 3.185 1.22 7.113 1.22 3.928 0 5.893 0 7.113-1.22 1.22-1.22 1.22-3.185 1.22-7.113 0-3.928 0-5.893-1.22-7.113-1.22-1.22-3.184-1.22-7.113-1.22-3.928 0-5.892 0-7.113 1.22Zm11.28 7.321c.345 0 .625.28.625.625V15a.625.625 0 1 1-1.25 0v-4.167c0-.345.28-.625.625-.625ZM10.625 5a.625.625 0 1 0-1.25 0v10a.625.625 0 1 0 1.25 0V5ZM5.833 6.875c.346 0 .625.28.625.625V15a.625.625 0 1 1-1.25 0V7.5c0-.345.28-.625.625-.625Z" clip-rule="evenodd"/>
</svg>
