<svg width="16" height="16" viewBox="0 0 16 16" fill="none" xmlns="http://www.w3.org/2000/svg">
<path d="M1 8C1 4.70017 1 3.05025 2.02513 2.02513C3.05025 1 4.70017 1 8 1C11.2998 1 12.9497 1 13.9749 2.02513C15 3.05025 15 4.70017 15 8C15 11.2998 15 12.9497 13.9749 13.9749C12.9497 15 11.2998 15 8 15C4.70017 15 3.05025 15 2.02513 13.9749C1 12.9497 1 11.2998 1 8Z" stroke="currentColor" stroke-linecap="round" stroke-linejoin="round"/>
<path d="M5 11.5999V6.19995" stroke="currentColor" stroke-linecap="round" stroke-linejoin="round"/>
<path d="M8 11.5998V4.3999" stroke="currentColor" stroke-linecap="round" stroke-linejoin="round"/>
<path d="M11 11.6001V8.6001" stroke="currentColor" stroke-linecap="round" stroke-linejoin="round"/>
</svg>
