<svg xmlns="http://www.w3.org/2000/svg" width="24" height="24" fill="none" viewBox="0 0 24 24">
  <g clip-path="url(#a)">
    <rect width="24" height="24" fill="#E9F7FA" rx="12"/>
    <path fill="#7EACF9" d="M20.035 18.896c-.728-1.181-1.482-1.779-1.49-1.785a.173.173 0 0 1-.018-.255c.756-.791 1.09-1.712.996-2.736-.077-.826-.409-1.477-.55-1.755-.067-.132-.09-.177-.072-.25 0-.002.079-.324.041-.853-.035-.488-.177-1.258-.66-2.155-.715-1.327-2.688-1.793-3.726-1.95-.05.12-.153.238-.253.332l.388.566a.173.173 0 0 1-.183.266l-.496-.119a.173.173 0 0 1 .081-.336l.059.014-.222-.323a.173.173 0 0 1 .035-.233c.086-.07.174-.158.228-.227a.168.168 0 0 1-.034-.023 5.517 5.517 0 0 0-.843.022.172.172 0 0 1-.156-.274c.267-.366.342-.59.36-.709-.486.074-1.231.58-1.503.789a.173.173 0 0 1-.095.036c-2.162.135-3.871.851-3.888.859a5.263 5.263 0 0 0-1.289.839c-.873.763-1.392 1.689-1.542 2.753-.317 2.253.499 3.718.937 4.506.071.127.132.237.178.33.291.602.05.97-.14 1.1-.89 1.066-2.009 2.793-2.328 5a7.557 7.557 0 0 0-.044 1.917h4.188c.056-.524.181-1.396.442-2.205.37-1.146-.18-2.194-.186-2.204a.173.173 0 0 1 .305-.164c.026.048.625 1.19.21 2.474-.243.754-.365 1.585-.423 2.099h12.246c-.198-1.933-.685-3.302-1.07-4.125-.443-.945-.85-1.395-.854-1.399a.173.173 0 0 1 .254-.234c.068.073 1.623 1.8 2.018 5.758h.498c.046-2.467-.733-4.267-1.399-5.346Z"/>
    <path fill="#FFFDF4" fill-rule="evenodd" d="M8.997 24.232h11.539s-.12-3.777-2.2-5.859c0 0-.715-.565.148-1.368.862-.803 1.249-1.933 1.249-1.933l.03-1.07-.694-1.844.099-1.07s-.208-1.964-2.23-2.231c0 0-.803-.12-1.844 1.1 0 0-.238.297-.595 0s-2.141-1.576-4.193-1.398c-1.687.147-2.891 1.714-3.003 3.336-.121 1.763.732 3.513 1.932 4.753 2.647 2.736.744 5.383.744 5.383l-.982 2.2Z" clip-rule="evenodd"/>
    <path fill="#11151F" d="M20.32 18.7c-.576-.93-1.157-1.505-1.419-1.74.74-.836 1.065-1.801.966-2.872-.083-.892-.448-1.61-.586-1.88l-.032-.064c.055-.281.229-1.545-.663-3.2-.4-.745-1.18-1.325-2.314-1.726a9.126 9.126 0 0 0-1.815-.423c-.11-.056-.335-.096-.819-.07.327-.556.23-.811.185-.883a.173.173 0 0 0-.136-.082c-.63-.039-1.601.658-1.838.836-2.2.147-3.88.852-3.948.882-.028.01-.674.28-1.374.889-1.175 1.022-1.555 2.181-1.666 2.974-.333 2.367.52 3.9.977 4.722.068.123.127.229.169.314.234.482-.005.65-.03.666a.14.14 0 0 0-.046.04c-1.675 1.997-2.244 3.936-2.426 5.21a7.89 7.89 0 0 0-.048 1.949h.349a7.557 7.557 0 0 1 .044-1.916c.32-2.208 1.438-3.935 2.328-5.001.19-.13.431-.498.14-1.1a7.94 7.94 0 0 0-.178-.33c-.438-.788-1.254-2.253-.937-4.506.15-1.064.669-1.99 1.542-2.753a5.262 5.262 0 0 1 1.289-.84c.017-.007 1.726-.723 3.888-.858a.173.173 0 0 0 .095-.036c.272-.21 1.017-.715 1.503-.789-.018.118-.093.343-.36.709a.173.173 0 0 0 .156.274c.297-.028.648-.04.843-.022.01.01.021.017.034.023a1.533 1.533 0 0 1-.228.227.173.173 0 0 0-.035.233l.222.323-.059-.014a.173.173 0 1 0-.08.336l.495.119a.173.173 0 0 0 .183-.266l-.388-.566c.1-.094.203-.211.253-.332 1.038.157 3.011.623 3.726 1.95.483.897.625 1.667.66 2.155.038.53-.04.85-.041.854-.018.072.005.117.072.249.142.278.473.929.55 1.755.095 1.025-.24 1.945-.996 2.736a.173.173 0 0 0 .019.255c.007.006.76.604 1.49 1.785.665 1.08 1.444 2.88 1.398 5.346h.346c.045-2.555-.766-4.422-1.46-5.541Z"/>
    <path fill="#11151F" d="M18.674 18.474a.173.173 0 0 0-.01.244c.004.005.411.454.854 1.4.385.823.872 2.19 1.07 4.124h.348c-.395-3.958-1.95-5.685-2.018-5.758a.173.173 0 0 0-.244-.01ZM8.555 19.67a.173.173 0 0 0-.305.162c.006.011.556 1.06.186 2.205-.26.809-.386 1.681-.442 2.205h.348c.058-.514.18-1.345.423-2.099.415-1.284-.184-2.426-.21-2.474Z"/>
    <path fill="#060606" d="M11.417 13.239c.536 0 .97-.493.97-1.1 0-.608-.434-1.1-.97-1.1s-.97.492-.97 1.1c0 .607.434 1.1.97 1.1Z"/>
    <path fill="#FFFEF3" d="M11.007 12.871a.218.218 0 1 0 0-.436.218.218 0 0 0 0 .436Zm.713-.333c.276 0 .5-.284.5-.634 0-.35-.224-.633-.5-.633s-.499.283-.499.633c0 .35.223.634.5.634Z"/>
    <path fill="#060606" d="M17.629 13.11c.412 0 .746-.46.746-1.026 0-.567-.334-1.026-.746-1.026s-.746.459-.746 1.026c0 .566.334 1.025.746 1.025Z"/>
    <path fill="#FFFEF3" d="M17.291 12.724a.218.218 0 1 0 0-.436.218.218 0 0 0 0 .436Zm.582-.445c.202-.024.34-.266.307-.541-.032-.275-.222-.479-.424-.455-.202.024-.34.266-.307.54.032.276.222.48.424.456Z"/>
    <path fill="#F6B438" d="m15.384 14.16.21-.092.17-.153.107-.114.079-.117.056-.106.072-.127.022-.068c-.038-.044-.228-.265-.392-.308l-.086-.038-.114-.04-.214-.054h-.018c-.062-.003-.108-.02-.18-.019-.63.007-1.002.272-1.177.442a.195.195 0 0 0-.009.274c.2.218.652.623 1.24.609.029-.001.057-.003.084-.006l-.013-.04.163-.042Z"/>
    <path fill="#010100" d="M15.903 13.478c-.513.148-1.047.107-1.573.079.486.135 1.119.17 1.573-.079Z"/>
    <path fill="#010100" d="M15.15 12.926v.008c.045.005.09.007.135.014.134.02.265.06.387.12.157.077.303.189.41.327-.153.364-.44.726-.849.793-.523.067-.998-.28-1.337-.647.11-.266.393-.422.656-.51.083-.029.206-.056.293-.075l-.001-.007c-.303.03-.618.115-.846.328a.689.689 0 0 0-.188.28l.013.016c.379.441 1 .842 1.596.62.342-.143.572-.466.7-.803-.23-.295-.6-.452-.969-.464Z"/>
  </g>
  <defs>
    <clipPath id="a">
      <rect width="24" height="24" fill="#fff" rx="12"/>
    </clipPath>
  </defs>
</svg>
