<svg width="24" height="24" viewBox="0 0 24 24" fill="none" xmlns="http://www.w3.org/2000/svg">
<g clip-path="url(#clip0_7895_10132)">
<path fill-rule="evenodd" clip-rule="evenodd" d="M24 12C24 14.3734 23.2962 16.6935 21.9776 18.6668C20.6591 20.6402 18.7849 22.1783 16.5922 23.0866C14.3995 23.9948 11.9867 24.2324 9.65892 23.7694C7.33115 23.3064 5.19295 22.1635 3.51472 20.4853C1.83649 18.8071 0.693605 16.6689 0.230582 14.3411C-0.232441 12.0133 0.00519941 9.60051 0.913451 7.4078C1.8217 5.21509 3.35977 3.34094 5.33316 2.02236C7.30655 0.703788 9.62663 0 12 0C15.1826 0 18.2348 1.26428 20.4853 3.51472C22.7357 5.76516 24 8.8174 24 12Z" fill="#30621F"/>
<mask id="mask0_7895_10132" style="mask-type:luminance" maskUnits="userSpaceOnUse" x="2" y="4" width="20" height="16">
<path d="M2.65381 4.3584H21.348V19.6416H2.65381V4.3584Z" fill="white"/>
</mask>
<g mask="url(#mask0_7895_10132)">
<path d="M12.1648 5.31309C12.1648 5.31309 12.3064 5.22789 12.5542 5.09169C13.2392 4.6742 14.0267 4.45545 14.8288 4.45989C15.3019 4.40024 15.7823 4.44785 16.2344 4.59919C16.6865 4.75052 17.0988 5.0017 17.4406 5.33409C17.6105 5.51248 17.7126 5.7447 17.7292 5.99049C17.948 6.01298 18.1627 6.06485 18.3676 6.14469C18.7456 6.31039 19.0887 6.54637 19.3786 6.84009C19.5183 7.00148 19.6363 7.18039 19.7296 7.37229C20.1647 7.45245 20.5562 7.68678 20.8324 8.03229C21.0461 8.32816 21.1838 8.67207 21.2332 9.03369C21.2336 9.03486 21.2336 9.03612 21.2332 9.03729C21.2338 9.03946 21.2338 9.04172 21.2332 9.04389V9.48549C21.2332 9.50769 21.2332 9.53709 21.2296 9.56349C21.2296 9.57849 21.2296 9.59469 21.226 9.61029C21.2224 9.62589 21.226 9.65409 21.22 9.67569C21.2152 9.72009 21.2104 9.76569 21.2038 9.81249L21.1888 9.91389L21.1744 9.99009C21.1284 10.2159 21.0707 10.4392 21.0016 10.6591C20.7562 11.3344 20.3002 11.9129 19.7008 12.3091C19.8724 12.6715 19.996 13.0547 20.0686 13.4491C20.1693 13.4137 20.2781 13.4088 20.3815 13.4352C20.4848 13.4616 20.5781 13.518 20.6494 13.5973C20.7503 13.7669 20.7989 13.9624 20.7892 14.1595C20.7853 14.2525 20.7591 14.3432 20.7129 14.424C20.6666 14.5049 20.6017 14.5734 20.5234 14.6239C20.6196 14.6709 20.6972 14.7488 20.7436 14.8453C20.7901 14.9867 20.8043 15.1368 20.7852 15.2844C20.7661 15.4321 20.7142 15.5736 20.6332 15.6985C20.3509 16.08 19.9444 16.3512 19.4836 16.4653C19.3581 16.6773 19.2177 16.8802 19.0636 17.0725C18.4954 17.7889 17.7478 18.8635 15.0514 19.3687C12.5147 19.7219 9.93121 19.5048 7.48903 18.7333C6.20143 18.2533 2.79103 16.9189 2.74903 13.9069C2.70823 10.9309 5.19763 8.62149 5.25763 8.56689C5.47725 7.45811 6.04049 6.44667 6.86743 5.67609C7.5494 5.05903 8.4105 4.67571 9.3254 4.58193C10.2403 4.48816 11.1613 4.68881 11.9542 5.15469L12.1648 5.31309Z" fill="#52AA35"/>
<path d="M12.8422 19.6417C11.014 19.6502 9.19573 19.3722 7.45359 18.8179C6.27699 18.3793 2.69619 17.0449 2.65359 13.9063C2.61399 11.0227 4.89759 8.77326 5.16999 8.51586C5.39956 7.40093 5.9696 6.38477 6.80139 5.60766C7.49647 4.96949 8.37923 4.57311 9.318 4.47763C10.2568 4.38215 11.2013 4.5927 12.0106 5.07786L12.1714 5.19786C12.2314 5.16126 12.3514 5.09466 12.5086 5.00706C12.532 4.99446 12.5578 4.97886 12.5878 4.96146C13.2672 4.56711 14.039 4.36006 14.8246 4.36146C15.3104 4.30045 15.8038 4.34968 16.268 4.50549C16.7322 4.6613 17.1553 4.91969 17.506 5.26146C17.6771 5.4349 17.7856 5.66035 17.8144 5.90226C18.0162 5.92831 18.214 5.97889 18.4036 6.05286C18.7945 6.22415 19.149 6.46853 19.4482 6.77286C19.5859 6.92943 19.7028 7.10305 19.7962 7.28946C20.237 7.37841 20.632 7.62077 20.911 7.97346C21.1322 8.28061 21.2752 8.63713 21.3274 9.01206C21.3275 9.01426 21.3275 9.01646 21.3274 9.01866C21.3278 9.02385 21.3278 9.02907 21.3274 9.03426V9.06066C21.3279 9.06484 21.3279 9.06907 21.3274 9.07326C21.3278 9.07825 21.3278 9.08326 21.3274 9.08826C21.3277 9.09305 21.3277 9.09787 21.3274 9.10266V9.47946C21.3274 9.49986 21.3274 9.53466 21.3232 9.56226C21.3232 9.57966 21.3232 9.59286 21.3196 9.60546C21.3196 9.62946 21.316 9.65526 21.313 9.67986C21.3082 9.72786 21.3034 9.77226 21.2968 9.81786V9.83046C21.2926 9.86046 21.2884 9.89046 21.283 9.92166L21.2686 9.99966C21.2221 10.2292 21.1636 10.4561 21.0934 10.6795C20.8548 11.3499 20.4107 11.928 19.8244 12.3313C19.8508 12.3913 19.8844 12.4741 19.9312 12.5971C20.0215 12.8351 20.0929 13.0798 20.1448 13.3291C20.2512 13.3084 20.3611 13.3165 20.4634 13.3523C20.5657 13.3881 20.6566 13.4505 20.7268 13.5331C20.8407 13.7206 20.8956 13.938 20.8846 14.1571C20.8768 14.3275 20.8053 14.4887 20.6842 14.6089C20.7424 14.6611 20.791 14.7233 20.8276 14.7925C20.8817 14.9486 20.8997 15.115 20.8803 15.279C20.8609 15.4431 20.8045 15.6007 20.7154 15.7399C20.4312 16.1296 20.0228 16.411 19.5574 16.5379C19.4341 16.743 19.2972 16.9396 19.1476 17.1265L19.0768 17.2159C18.4954 17.9545 17.6968 18.9655 15.0784 19.4569C14.3404 19.5869 13.5921 19.6492 12.8428 19.6429M9.69699 4.65786C8.66837 4.64312 7.67525 5.03364 6.93219 5.74506C6.12087 6.50288 5.5677 7.4961 5.35059 8.58486C5.34677 8.6047 5.33667 8.62279 5.32179 8.63646C5.21919 8.73126 2.80179 10.9891 2.84439 13.9057C2.88639 16.9141 6.37539 18.2143 7.52439 18.6415C9.95461 19.4028 12.5232 19.6172 15.046 19.2691C17.5966 18.7891 18.3676 17.8117 18.9304 17.0971L19.0018 17.0071C19.1531 16.8182 19.2908 16.6189 19.414 16.4107C19.4253 16.3915 19.4429 16.3768 19.4638 16.3693C19.9024 16.2592 20.2904 16.0031 20.5642 15.6433C20.6362 15.5322 20.6832 15.4068 20.7019 15.2757C20.7207 15.1446 20.7107 15.0111 20.6728 14.8843C20.6367 14.8072 20.5764 14.744 20.5012 14.7043C20.4845 14.6976 20.47 14.6863 20.4594 14.6718C20.4488 14.6572 20.4425 14.64 20.4412 14.6221C20.44 14.6042 20.4439 14.5864 20.4524 14.5707C20.4609 14.555 20.4736 14.542 20.4892 14.5333C20.5537 14.4907 20.6071 14.4334 20.6449 14.3661C20.6828 14.2988 20.7041 14.2234 20.707 14.1463C20.7149 13.9696 20.6718 13.7944 20.5828 13.6417C20.5221 13.5787 20.4443 13.5349 20.359 13.5156C20.2737 13.4963 20.1847 13.5024 20.1028 13.5331C20.09 13.5367 20.0765 13.5376 20.0633 13.5357C20.0501 13.5339 20.0374 13.5293 20.0261 13.5222C20.0148 13.5151 20.0051 13.5058 19.9977 13.4947C19.9902 13.4837 19.9851 13.4712 19.9828 13.4581C19.911 13.073 19.79 12.6987 19.6228 12.3445C19.6127 12.3241 19.6102 12.3008 19.6158 12.2788C19.6214 12.2567 19.6347 12.2375 19.6534 12.2245C20.2368 11.8419 20.6804 11.2804 20.9176 10.6243C20.9858 10.4074 21.0427 10.1871 21.088 9.96426L21.1024 9.88926C21.1072 9.86166 21.1108 9.83226 21.115 9.80406V9.79146C21.1238 9.72727 21.1308 9.66284 21.136 9.59826C21.1366 9.58026 21.136 9.56046 21.1402 9.54366C21.1444 9.52686 21.1402 9.49866 21.1432 9.47466C21.1462 9.45066 21.1432 9.43686 21.1432 9.42006V9.08706C21.1429 9.08206 21.1429 9.07705 21.1432 9.07206V9.05946C21.143 9.05666 21.143 9.05385 21.1432 9.05106V9.04506C21.0955 8.6984 20.9634 8.36876 20.7586 8.08506C20.4949 7.75975 20.1231 7.54 19.711 7.46586C19.6979 7.46212 19.6858 7.45563 19.6755 7.44684C19.6651 7.43804 19.6568 7.42714 19.651 7.41486C19.5618 7.23204 19.4495 7.06144 19.3168 6.90726C19.0368 6.62284 18.7051 6.39455 18.3394 6.23466C18.1423 6.15819 17.9359 6.10855 17.7256 6.08706C17.7041 6.08472 17.6841 6.07512 17.6688 6.05985C17.6535 6.04457 17.6439 6.02454 17.6416 6.00306C17.6284 5.77881 17.5366 5.56639 17.3824 5.40306C17.049 5.07867 16.6465 4.83391 16.2051 4.68709C15.7637 4.54027 15.2949 4.4952 14.8336 4.55526C14.079 4.55209 13.3371 4.74942 12.6838 5.12706L12.6004 5.17506C12.3604 5.30826 12.2158 5.39406 12.214 5.39466C12.1977 5.4044 12.179 5.40909 12.1601 5.40813C12.1412 5.40717 12.123 5.4006 12.1078 5.38926L11.8936 5.23026C11.228 4.84108 10.4679 4.64302 9.69699 4.65786Z" fill="black"/>
<path d="M19.9852 13.4598C19.9194 13.0902 19.8042 12.7312 19.6426 12.3924L19.8112 12.3048C19.9821 12.6603 20.1033 13.0376 20.1712 13.4262L19.9852 13.4598Z" fill="black"/>
<path d="M15.2574 9.3444C16.1574 8.52595 17.3416 8.09166 18.5574 8.1342C20.5794 8.2194 21.2346 9.0342 21.2346 9.0342C21.2726 9.32612 21.2604 9.62238 21.1986 9.9102C21.0936 10.3206 20.8494 11.1222 20.268 11.2572C19.6866 11.3922 18.15 11.7054 17.208 11.334C16.266 10.9626 15.1362 10.3914 15.1362 10.3914C15.1743 10.1648 15.1743 9.93341 15.1362 9.7068C15.063 9.531 15.2562 9.3468 15.2562 9.3468" fill="white"/>
<path d="M18.3377 11.5542C17.9472 11.5647 17.558 11.5037 17.1893 11.3742C16.2539 11.0064 15.1247 10.4352 15.1133 10.4298L15.0827 10.4142L15.0875 10.3806C15.1265 10.1624 15.1275 9.93915 15.0905 9.72062C15.0065 9.52022 15.2105 9.32222 15.2237 9.30782C16.1357 8.48398 17.3314 8.04549 18.5597 8.08442C20.6243 8.17142 21.2789 9.01022 21.2807 9.01862L21.2897 9.05702H21.2861C21.3211 9.3435 21.3071 9.63383 21.2447 9.91562C21.0329 10.7436 20.7167 11.1954 20.2787 11.2956C19.6426 11.4497 18.9916 11.5344 18.3371 11.5482M15.1865 10.362C15.3719 10.455 16.3781 10.9548 17.2265 11.2878C18.0959 11.6298 19.5005 11.385 20.2601 11.2086C20.6549 11.1168 20.9561 10.6752 21.1553 9.89642C21.215 9.61908 21.2273 9.33367 21.1919 9.05222C21.1103 8.96222 20.4119 8.26022 18.5585 8.18162C17.3567 8.14336 16.1867 8.57191 15.2939 9.37742C15.2939 9.37742 15.1229 9.54182 15.1829 9.68462C15.2253 9.90832 15.2265 10.1379 15.1865 10.362Z" fill="black"/>
<path d="M8.43823 10.0818C8.43823 10.0818 10.8448 8.48283 12.4894 8.35923C14.134 8.23563 14.8852 8.99463 14.9836 9.19203C15.082 9.38943 15.4924 10.9602 13.3438 11.472C11.1952 11.9838 10.0102 11.0814 10.0102 11.0814L8.43823 10.0818Z" fill="white"/>
<path d="M12.0671 11.6724C11.6588 11.675 11.2521 11.6206 10.8587 11.511C10.5462 11.4306 10.2497 11.2973 9.98212 11.1168L8.35132 10.0824L8.41132 10.0416C8.43532 10.0254 10.8473 8.43421 12.4853 8.31121C14.1587 8.18581 14.9255 8.97121 15.0257 9.17041C15.1745 9.57394 15.1579 10.0199 14.9795 10.4112C14.8118 10.7078 14.578 10.9618 14.2962 11.1534C14.0144 11.345 13.6922 11.469 13.3547 11.5158C12.9331 11.618 12.501 11.6705 12.0671 11.6724ZM8.52712 10.0812L10.0373 11.0412C10.0523 11.0526 11.2373 11.9238 13.3343 11.4258C13.6577 11.3817 13.9665 11.2637 14.237 11.0811C14.5076 10.8985 14.7324 10.6562 14.8943 10.3728C15.0621 10.0081 15.0791 9.59198 14.9417 9.21481C14.8475 9.02521 14.1155 8.28661 12.4937 8.40841C11.0255 8.51881 8.91352 9.83521 8.52712 10.0836" fill="black"/>
<path d="M12.8411 19.6417C11.0132 19.6508 9.19513 19.3735 7.4531 18.8197C6.2765 18.3805 2.6957 17.0449 2.6531 13.9081C2.6111 10.8883 5.1671 8.51887 5.1935 8.49487L5.3219 8.63527C5.2967 8.65807 2.8019 10.9753 2.8439 13.9057C2.8859 16.9123 6.3749 18.2143 7.5239 18.6415C9.95344 19.4031 12.5214 19.6179 15.0437 19.2703C17.5943 18.7903 18.3653 17.8129 18.9281 17.0983L18.9989 17.0083C19.1502 16.8195 19.288 16.6202 19.4111 16.4119L19.5749 16.5085C19.4472 16.7243 19.3045 16.9308 19.1477 17.1265L19.0775 17.2159C18.4961 17.9545 17.6975 18.9655 15.0791 19.4569C14.3405 19.5869 13.5916 19.6492 12.8417 19.6429" fill="black"/>
<path d="M17.9352 12.9997C17.4801 12.9967 17.0293 12.9115 16.6044 12.7483L16.5612 12.7303L16.5492 12.6847C16.4469 12.3099 16.3184 11.9428 16.1646 11.5861C15.8827 11.1437 15.5141 10.7631 15.081 10.4671L15.0522 10.4473L15.0432 10.4137C14.9931 10.1771 14.9708 9.93545 14.9766 9.69367C14.9658 9.41125 14.8874 9.13554 14.748 8.88967L14.718 8.83987L14.7486 8.79067C15.2895 8.10869 16.0482 7.63317 16.8978 7.44367C18.6108 6.92167 20.3364 7.15027 20.9106 7.97527C21.4998 8.82127 21.4212 9.63727 21.1026 10.6795C20.8942 11.2173 20.5634 11.6991 20.1364 12.0868C19.7094 12.4746 19.198 12.7575 18.6426 12.9133C18.4107 12.9711 18.1724 12.9998 17.9334 12.9985M16.7184 12.5881C17.3186 12.8102 17.9692 12.859 18.5958 12.7291C19.1199 12.5824 19.6026 12.3159 20.0058 11.9504C20.409 11.585 20.7217 11.1308 20.919 10.6237C21.2286 9.61027 21.3006 8.86987 20.7528 8.08327C20.2236 7.32307 18.5892 7.12327 16.9512 7.62487C16.1711 7.81513 15.4687 8.24154 14.94 8.84587C15.0792 9.10719 15.1562 9.39712 15.165 9.69307C15.162 9.90728 15.1796 10.1213 15.2178 10.3321C15.67 10.64 16.0513 11.041 16.3362 11.5081C16.4881 11.8589 16.6158 12.2198 16.7184 12.5881Z" fill="black"/>
<path d="M14.7431 9.09246L14.7341 8.84466C14.7197 8.51724 14.5896 8.20555 14.3669 7.96506C14.1713 7.79072 13.9529 7.64378 13.7177 7.52826L13.5935 7.47486L13.6859 7.37646C13.8769 7.18069 14.0816 6.99882 14.2985 6.83226L14.3093 6.82446C14.8049 6.41911 15.3891 6.13645 16.0145 5.99946C16.5825 5.88829 17.1629 5.85379 17.7401 5.89686C17.9673 5.92035 18.1903 5.97423 18.4031 6.05706C18.7979 6.22323 19.1545 6.46824 19.4513 6.77706C19.5566 6.9145 19.6517 7.05949 19.7357 7.21086L19.8191 7.36026L19.6481 7.35186C18.7039 7.30678 17.7584 7.40983 16.8461 7.65726C16.2594 7.8248 15.7161 8.11775 15.2537 8.51586C15.1306 8.63853 15.0133 8.76687 14.9021 8.90046L14.7431 9.09246ZM13.9151 7.41246C14.1205 7.5278 14.3135 7.66391 14.4911 7.81866C14.7106 8.03179 14.8534 8.31152 14.8973 8.61426C14.9669 8.53566 15.0515 8.44446 15.1229 8.37426C15.6038 7.95745 16.1697 7.65034 16.7813 7.47426C17.6584 7.22395 18.5699 7.11518 19.4813 7.15206C19.4284 7.06258 19.3694 6.97678 19.3049 6.89526C19.0281 6.60977 18.697 6.38251 18.3311 6.22686C18.134 6.15044 17.9276 6.10079 17.7173 6.07926C17.1575 6.03821 16.5947 6.07211 16.0439 6.18006C15.4496 6.31219 14.8946 6.58226 14.4239 6.96846L14.4077 6.97986C14.2355 7.11383 14.0706 7.25704 13.9139 7.40886" fill="black"/>
<path d="M18.6168 11.5639C17.984 11.5812 17.3528 11.4911 16.7502 11.2975C16.362 11.1295 15.1428 10.5001 15.0912 10.4731L15.0366 10.4449L15.0396 10.3849C15.0607 10.1105 15.0384 9.83451 14.9736 9.56707L14.949 9.50707L14.9922 9.46147C15.7383 8.71078 16.7103 8.22593 17.7588 8.08147C18.6722 7.93103 19.6094 8.03481 20.4678 8.38147C20.7805 8.5211 21.0641 8.71856 21.3036 8.96347L21.3258 8.98687L21.3294 9.01867C21.3294 9.03967 21.5406 11.0971 20.0526 11.4187C19.5806 11.517 19.0995 11.5654 18.6174 11.5633M15.2328 10.3315C15.4782 10.4575 16.4928 10.9771 16.8264 11.1223C17.8628 11.4239 18.9582 11.4619 20.013 11.2327C21.2382 10.9693 21.1626 9.32467 21.144 9.07267C20.9281 8.85801 20.6752 8.68403 20.3976 8.55907C19.5672 8.2242 18.6607 8.12436 17.7774 8.27047C16.7951 8.41129 15.8827 8.86 15.1716 9.55207C15.2268 9.80816 15.2469 10.0706 15.2316 10.3321" fill="black"/>
<path d="M13.684 7.50602C13.6291 7.50602 13.5756 7.48924 13.5305 7.45792C13.4855 7.4266 13.4511 7.38225 13.432 7.33082C13.3111 7.0075 13.1795 6.68832 13.0372 6.37382C12.821 5.97262 12.5034 5.63502 12.1162 5.39462L11.989 5.31842L12.109 5.23442C12.2377 5.1495 12.3717 5.07313 12.5104 5.00582C12.5416 4.99022 12.5776 4.96982 12.6202 4.94582C13.293 4.56767 14.0511 4.36736 14.8228 4.36382C15.3087 4.30241 15.8021 4.35146 16.2664 4.50729C16.7307 4.66312 17.1538 4.92172 17.5042 5.26382C17.6914 5.45737 17.8041 5.71095 17.8222 5.97962L17.8348 6.09962L17.7148 6.08642C17.1548 6.04533 16.5918 6.07923 16.0408 6.18722C15.4465 6.3192 14.8916 6.58906 14.4208 6.97502L14.4046 6.98642C14.275 7.08182 14.0344 7.28642 13.8556 7.44122C13.8067 7.48377 13.744 7.50721 13.6792 7.50722M12.3406 5.31542C12.7078 5.56414 13.0067 5.90103 13.21 6.29522C13.3816 6.67022 13.5226 7.02962 13.6102 7.26482C13.6147 7.2768 13.6219 7.28753 13.6314 7.29609C13.6409 7.30465 13.6524 7.31078 13.6647 7.31396C13.6771 7.31715 13.6901 7.31729 13.7025 7.31437C13.715 7.31145 13.7265 7.30557 13.7362 7.29722C13.9162 7.14062 14.1622 6.93242 14.3008 6.83042L14.3674 6.89942L14.3074 6.82442C14.803 6.41908 15.3872 6.13642 16.0126 5.99942C16.541 5.89915 17.0792 5.8611 17.6164 5.88602C17.5884 5.70491 17.5045 5.53709 17.3764 5.40602C17.044 5.08203 16.6428 4.83722 16.2026 4.68981C15.7624 4.5424 15.2947 4.49619 14.8342 4.55462C14.092 4.5573 13.3628 4.74936 12.7156 5.11262C12.6764 5.13539 12.6363 5.15681 12.5956 5.17682C12.5086 5.21993 12.4231 5.26616 12.3394 5.31542" fill="black"/>
<path d="M5.09335 9.84189L5.08255 9.74769C5.05192 8.97427 5.18979 8.20343 5.4866 7.48858C5.78342 6.77372 6.2321 6.13194 6.80155 5.60769C7.49654 4.96927 8.37941 4.57282 9.31829 4.47755C10.2572 4.38227 11.2017 4.59329 12.0108 5.07909C12.4134 5.36348 12.7766 5.70001 13.0908 6.07989C13.356 6.47617 13.5466 6.91764 13.653 7.38249C13.6583 7.40392 13.656 7.42655 13.6465 7.44648C13.637 7.4664 13.6207 7.48237 13.6007 7.49162C13.5806 7.50087 13.558 7.50282 13.5366 7.49714C13.5153 7.49145 13.4966 7.47849 13.4838 7.46049C13.1464 7.07578 12.7245 6.77444 12.2512 6.58009C11.7778 6.38574 11.2659 6.30366 10.7556 6.34029C10.2414 6.33031 9.73058 6.42488 9.25408 6.61827C8.77758 6.81165 8.34533 7.09982 7.98355 7.46529L7.92355 7.53909L7.77595 7.41909L7.83595 7.34529C8.21237 6.95485 8.66589 6.64697 9.16768 6.44121C9.66948 6.23545 10.2086 6.13631 10.7508 6.15009C11.7033 6.09512 12.6392 6.41687 13.3566 7.04589C13.2701 6.74419 13.1316 6.45992 12.9474 6.20589C12.6423 5.83651 12.2891 5.50961 11.8974 5.23389C11.1216 4.78425 10.2234 4.59182 9.33159 4.6842C8.43974 4.77658 7.60006 5.14901 6.93295 5.74809C6.38428 6.25101 5.95151 6.86721 5.66464 7.55399C5.37776 8.24078 5.24363 8.98172 5.27155 9.72549L5.28235 9.81969L5.09335 9.84189Z" fill="black"/>
<path d="M12.1738 11.6436C11.411 11.6621 10.6549 11.4975 9.96883 11.1636C9.4232 10.8914 8.90587 10.5658 8.42443 10.1916C7.90783 10.416 7.65343 10.2444 7.52983 10.056C7.4871 9.99437 7.45941 9.92355 7.44899 9.84926C7.43857 9.77496 7.44571 9.69926 7.46983 9.62823C7.60843 9.22263 8.25823 8.97963 8.38663 8.93463C8.53123 8.88483 8.90023 8.72463 9.32803 8.53923C10.1026 8.20323 11.164 7.74303 11.7562 7.55943C12.721 7.25943 14.0458 7.27923 14.5048 7.83123C14.7676 8.10666 14.9175 8.47064 14.9248 8.85123L14.7976 8.83983C14.988 9.0174 15.1145 9.25273 15.1576 9.50943C15.1986 9.7045 15.1986 9.90595 15.1576 10.101C15.0638 10.5109 14.8357 10.8776 14.5096 11.143C14.1835 11.4083 13.778 11.5571 13.3576 11.5656C12.9656 11.6157 12.5709 11.6421 12.1756 11.6448M8.61523 10.0998C9.06623 10.4425 9.54833 10.7422 10.0552 10.995C11.0833 11.4569 12.2288 11.5901 13.3354 11.3766C13.7154 11.3716 14.0829 11.2397 14.3792 11.0018C14.6756 10.7639 14.8839 10.4337 14.971 10.0638C15.0065 9.89487 15.0065 9.72039 14.971 9.55143C14.8354 8.95143 14.533 8.84283 13.9306 8.62623C13.1307 8.36643 12.2675 8.37803 11.4748 8.65923C10.5815 8.94852 9.73206 9.35873 8.95003 9.87843C8.84416 9.96025 8.73246 10.0342 8.61583 10.0998M13.0558 7.55823C12.6347 7.55906 12.2158 7.62132 11.8126 7.74303C11.23 7.92303 10.1746 8.38143 9.40363 8.71563C8.95483 8.91003 8.60023 9.06423 8.44903 9.11643C8.10883 9.23643 7.72903 9.45783 7.64983 9.69183C7.63508 9.73576 7.63119 9.78263 7.63851 9.82839C7.64582 9.87416 7.66412 9.91748 7.69183 9.95463C7.81723 10.146 8.05543 10.1604 8.40043 9.99783C8.55365 9.92329 8.69882 9.83322 8.83363 9.72903C9.63448 9.19607 10.5046 8.77536 11.4196 8.47863C12.2513 8.18507 13.1566 8.17452 13.9948 8.44863C14.2572 8.52574 14.507 8.64053 14.7364 8.78943C14.702 8.47838 14.5697 8.18633 14.3584 7.95543C14.1788 7.80573 13.971 7.69352 13.7472 7.6254C13.5235 7.55729 13.2884 7.53405 13.0558 7.55823Z" fill="black"/>
<path d="M11.6262 13.3548H11.5572C10.6706 13.3178 9.81469 13.0195 9.09717 12.4974L9.21717 12.348C9.90388 12.8396 10.7178 13.1225 11.5614 13.1628C12.0061 13.1714 12.4459 13.0676 12.8399 12.8611C13.2339 12.6546 13.5695 12.3521 13.8156 11.9814L13.9752 12.0846C13.7173 12.4719 13.3686 12.7901 12.9594 13.0115C12.5503 13.2329 12.0932 13.3508 11.628 13.3548" fill="black"/>
<path d="M12.4607 12.4009C11.4917 12.3841 10.5434 12.118 9.70728 11.6281L9.80868 11.4673C10.7018 11.9832 11.7221 12.2373 12.7529 12.2005C14.0897 12.1105 14.7887 11.5009 14.8889 10.3363L15.0779 10.3525C14.9699 11.6083 14.1917 12.2941 12.7655 12.3925C12.6627 12.3993 12.5609 12.4027 12.4601 12.4027" fill="black"/>
<path d="M20.6429 15.6924C20.3606 16.074 19.9541 16.3451 19.4933 16.4592C18.3654 16.8074 17.2044 17.0375 16.0289 17.1456C13.895 17.3257 11.746 17.1657 9.66233 16.6716C7.68773 16.23 7.03973 15.6768 6.83453 14.9664C6.62933 14.256 7.06433 13.7064 8.12933 13.8444C10.2259 14.3672 12.3832 14.6061 14.5433 14.5548C18.9347 14.571 19.4879 13.6704 19.9619 13.4814C19.9994 13.4662 20.0379 13.4536 20.0771 13.4436C20.1777 13.4082 20.2866 13.4034 20.39 13.4297C20.4933 13.4561 20.5866 13.5125 20.6579 13.5918C20.7588 13.7614 20.8074 13.9569 20.7977 14.154C20.7938 14.247 20.7676 14.3378 20.7214 14.4186C20.6751 14.4994 20.6101 14.5679 20.5319 14.6184C20.6281 14.6654 20.7057 14.7434 20.7521 14.8398C20.7986 14.9812 20.8128 15.1313 20.7937 15.2789C20.7746 15.4266 20.7227 15.5681 20.6417 15.693" fill="#BD3F4E"/>
<path d="M14.4629 17.3275C12.8406 17.3123 11.2246 17.1234 9.64252 16.7641C7.83052 16.3585 6.99112 15.8455 6.74452 14.9923C6.68856 14.839 6.67258 14.674 6.69809 14.5129C6.7236 14.3517 6.78976 14.1997 6.89032 14.0713C7.05377 13.9141 7.25509 13.8019 7.47471 13.7456C7.69433 13.6892 7.9248 13.6906 8.14372 13.7497C8.39752 13.7833 8.65072 13.8427 8.94412 13.9117C10.7802 14.3341 12.6631 14.5182 14.5463 14.4595H14.6603C18.2039 14.4595 19.1819 13.8433 19.6547 13.5451C19.7416 13.486 19.8335 13.4348 19.9295 13.3921C19.9707 13.3752 20.013 13.3612 20.0561 13.3501C20.1748 13.31 20.3027 13.3064 20.4234 13.3397C20.5441 13.3729 20.6521 13.4415 20.7335 13.5367C20.8474 13.7242 20.9024 13.9415 20.8913 14.1607C20.8835 14.3311 20.812 14.4923 20.6909 14.6125C20.7492 14.6647 20.7978 14.7268 20.8343 14.7961C20.8884 14.9522 20.9065 15.1185 20.887 15.2826C20.8676 15.4467 20.8112 15.6043 20.7221 15.7435C20.4268 16.1426 20.003 16.4278 19.5221 16.5511C18.3877 16.9001 17.2203 17.1315 16.0385 17.2417C15.5146 17.3026 14.9874 17.3318 14.4599 17.3293M7.81612 13.9171C7.67381 13.905 7.53057 13.9235 7.39602 13.9715C7.26148 14.0194 7.13876 14.0955 7.03612 14.1949C6.95699 14.2999 6.9057 14.4232 6.88703 14.5534C6.86836 14.6836 6.8829 14.8164 6.92932 14.9395C7.15372 15.7159 7.94932 16.1905 9.68632 16.5787C11.7594 17.0719 13.8978 17.2313 16.0211 17.0509C17.189 16.9422 18.3426 16.714 19.4639 16.3699C19.9023 16.2597 20.2901 16.0037 20.5637 15.6439C20.6357 15.5328 20.6827 15.4073 20.7015 15.2763C20.7202 15.1452 20.7103 15.0117 20.6723 14.8849C20.6362 14.8078 20.576 14.7446 20.5007 14.7049L20.3207 14.6299L20.4911 14.5333C20.5556 14.4908 20.6091 14.4335 20.6469 14.3662C20.6848 14.2988 20.7061 14.2234 20.7089 14.1463C20.717 13.9696 20.6738 13.7944 20.5847 13.6417C20.5243 13.5792 20.4471 13.5357 20.3624 13.5164C20.2777 13.4971 20.1892 13.5029 20.1077 13.5331C20.0726 13.5421 20.0381 13.5535 20.0045 13.5673C19.9194 13.606 19.8377 13.652 19.7603 13.7047C19.2293 14.0389 18.2423 14.6647 14.5499 14.6479C12.6524 14.7067 10.7552 14.521 8.90512 14.0953C8.61712 14.0275 8.36512 13.9693 8.12512 13.9369C8.02568 13.9233 7.92547 13.9163 7.82512 13.9159" fill="black"/>
<path d="M8.36816 14.8867C10.9926 15.8809 14.7768 15.6511 17.559 15.3847C18.5891 15.3148 19.5973 15.0546 20.5326 14.6173C20.0979 14.908 19.6206 15.1291 19.1178 15.2725C17.601 15.6542 16.0449 15.8572 14.481 15.8773C12.5442 15.9373 10.1064 15.7933 8.36816 14.8861" fill="black"/>
<path d="M5.59314 15.2995C5.43349 14.8696 5.4055 14.4019 5.51274 13.9561C5.55875 13.788 5.63942 13.6314 5.74957 13.4963C5.85973 13.3613 5.99692 13.2507 6.15234 13.1719L6.22254 13.3489C6.09304 13.4176 5.97914 13.5123 5.88797 13.6272C5.7968 13.742 5.73034 13.8744 5.69274 14.0161C5.60067 14.4205 5.62776 14.8429 5.77074 15.2323L5.59314 15.2995Z" fill="black"/>
<path d="M13.0386 9.98707C13.0386 10.2263 12.9676 10.4602 12.8347 10.6591C12.7018 10.858 12.5129 11.013 12.2919 11.1046C12.0709 11.1961 11.8276 11.2201 11.593 11.1734C11.3584 11.1268 11.1428 11.0115 10.9737 10.8424C10.8045 10.6732 10.6893 10.4577 10.6426 10.223C10.596 9.98841 10.6199 9.7452 10.7115 9.52417C10.803 9.30315 10.958 9.11423 11.157 8.98132C11.3559 8.84841 11.5897 8.77747 11.829 8.77747C12.1498 8.77747 12.4575 8.90491 12.6843 9.13175C12.9111 9.35859 13.0386 9.66626 13.0386 9.98707Z" fill="black"/>
<path d="M11.6489 10.284C11.6489 10.3361 11.6334 10.3871 11.6045 10.4304C11.5755 10.4737 11.5344 10.5074 11.4863 10.5274C11.4381 10.5473 11.3852 10.5525 11.3341 10.5424C11.283 10.5322 11.2361 10.5071 11.1992 10.4703C11.1624 10.4334 11.1373 10.3865 11.1271 10.3354C11.117 10.2843 11.1222 10.2314 11.1421 10.1832C11.1621 10.1351 11.1958 10.094 11.2391 10.065C11.2824 10.0361 11.3334 10.0206 11.3855 10.0206C11.4553 10.0206 11.5223 10.0484 11.5717 10.0978C11.6211 10.1472 11.6489 10.2142 11.6489 10.284Z" fill="white"/>
<path d="M12.6575 9.50285C12.6575 9.72425 12.3725 9.90365 12.0215 9.90365C11.6705 9.90365 11.3855 9.72365 11.3855 9.50285C11.3855 9.28205 11.6705 9.10205 12.0215 9.10205C12.3725 9.10205 12.6575 9.28205 12.6575 9.50285Z" fill="white"/>
<path d="M18.939 9.90369C18.939 10.1429 18.868 10.3768 18.7351 10.5757C18.6022 10.7746 18.4133 10.9297 18.1923 11.0212C17.9712 11.1128 17.728 11.1367 17.4934 11.09C17.2588 11.0434 17.0432 10.9282 16.8741 10.759C16.7049 10.5898 16.5897 10.3743 16.543 10.1397C16.4963 9.90503 16.5203 9.66182 16.6119 9.4408C16.7034 9.21977 16.8584 9.03086 17.0574 8.89795C17.2563 8.76503 17.4901 8.69409 17.7294 8.69409C18.0502 8.69409 18.3578 8.82153 18.5847 9.04838C18.8115 9.27522 18.939 9.58289 18.939 9.90369Z" fill="black"/>
<path d="M17.5493 10.2007C17.5493 10.2528 17.5338 10.3037 17.5049 10.347C17.4759 10.3903 17.4348 10.4241 17.3867 10.444C17.3385 10.4639 17.2856 10.4692 17.2345 10.459C17.1834 10.4488 17.1364 10.4237 17.0996 10.3869C17.0628 10.3501 17.0377 10.3031 17.0275 10.252C17.0174 10.2009 17.0226 10.148 17.0425 10.0999C17.0624 10.0517 17.0962 10.0106 17.1395 9.98165C17.1828 9.9527 17.2338 9.93726 17.2859 9.93726C17.3557 9.93726 17.4227 9.96501 17.4721 10.0144C17.5215 10.0638 17.5493 10.1308 17.5493 10.2007Z" fill="white"/>
<path d="M18.5574 9.41887C18.5574 9.64027 18.273 9.81967 17.9214 9.81967C17.5698 9.81967 17.2854 9.63967 17.2854 9.41887C17.2854 9.19807 17.5698 9.01807 17.9214 9.01807C18.273 9.01807 18.5574 9.19807 18.5574 9.41887Z" fill="white"/>
</g>
</g>
<defs>
<clipPath id="clip0_7895_10132">
<rect width="24" height="24" fill="white"/>
</clipPath>
</defs>
</svg>
