<svg viewBox="0 0 16 16" fill="none" xmlns="http://www.w3.org/2000/svg">
  <g clip-path="url(#clip0_3046_26771)">
    <path
      d="M5.40401 1.85952L5.59872 2.32005L5.40401 1.85952ZM4.29636 2.45679L4.01858 2.04105L4.01858 2.04105L4.29636 2.45679ZM1.84097 5.44869L1.37903 5.25735H1.37903L1.84097 5.44869ZM3.28612 12.714L3.63967 12.3604L3.28612 12.714ZM13.5433 11.7037L13.959 11.9815V11.9815L13.5433 11.7037ZM14.1406 10.5961L13.68 10.4014V10.4014L14.1406 10.5961ZM12.0002 7.99992V8.49992V7.99992ZM10.6668 7.99992V7.49992V7.99992ZM8.00016 5.33325H7.50016H8.00016ZM8.00016 3.99992H8.50016H8.00016ZM8.39069 7.60939L8.74424 7.25584L8.74424 7.25584L8.39069 7.60939ZM14.3382 8.59654L13.9214 8.87281L13.9214 8.87281L14.3382 8.59654ZM7.40354 1.66189L7.12727 2.07864L7.12727 2.07864L7.40354 1.66189ZM5.40401 1.85952L5.2093 1.39899C4.79498 1.57416 4.39615 1.78877 4.01858 2.04105L4.29636 2.45679L4.57415 2.87252C4.89904 2.65543 5.24222 2.47078 5.59872 2.32005L5.40401 1.85952ZM4.29636 2.45679L4.01858 2.04105C2.84003 2.82854 1.92146 3.94781 1.37903 5.25735L1.84097 5.44869L2.30291 5.64004C2.76965 4.51322 3.56005 3.55012 4.57415 2.87252L4.29636 2.45679ZM1.84097 5.44869L1.37903 5.25735C0.836601 6.56689 0.694677 8.00787 0.971205 9.39806L1.4616 9.30052L1.95199 9.20297C1.71405 8.00676 1.83617 6.76685 2.30291 5.64004L1.84097 5.44869ZM1.4616 9.30052L0.971205 9.39806C1.24773 10.7883 1.93029 12.0652 2.93257 13.0675L3.28612 12.714L3.63967 12.3604C2.77725 11.498 2.18993 10.3992 1.95199 9.20297L1.4616 9.30052ZM3.28612 12.714L2.93257 13.0675C3.93484 14.0698 5.21182 14.7523 6.60202 15.0289L6.69956 14.5385L6.79711 14.0481C5.60089 13.8101 4.5021 13.2228 3.63967 12.3604L3.28612 12.714ZM6.69956 14.5385L6.60202 15.0289C7.99222 15.3054 9.43319 15.1635 10.7427 14.6211L10.5514 14.1591L10.36 13.6972C9.23324 14.1639 7.99332 14.286 6.79711 14.0481L6.69956 14.5385ZM10.5514 14.1591L10.7427 14.6211C12.0523 14.0786 13.1715 13.1601 13.959 11.9815L13.5433 11.7037L13.1276 11.4259C12.45 12.44 11.4869 13.2304 10.36 13.6972L10.5514 14.1591ZM13.5433 11.7037L13.959 11.9815C14.2113 11.6039 14.4259 11.2051 14.6011 10.7908L14.1406 10.5961L13.68 10.4014C13.5293 10.7579 13.3446 11.101 13.1276 11.4259L13.5433 11.7037ZM12.0002 7.99992V7.49992H10.6668V7.99992V8.49992H12.0002V7.99992ZM8.00016 5.33325H8.50016V3.99992H8.00016H7.50016V5.33325H8.00016ZM10.6668 7.99992V7.49992C10.0242 7.49992 9.59245 7.49885 9.27043 7.45556C8.96278 7.4142 8.83112 7.34272 8.74424 7.25584L8.39069 7.60939L8.03714 7.96294C8.34078 8.26659 8.71865 8.39037 9.13718 8.44664C9.54132 8.50098 10.0524 8.49992 10.6668 8.49992V7.99992ZM8.00016 5.33325H7.50016C7.50016 5.94765 7.4991 6.45876 7.55344 6.8629C7.60971 7.28143 7.73349 7.6593 8.03714 7.96295L8.39069 7.60939L8.74424 7.25584C8.65736 7.16896 8.58588 7.0373 8.54452 6.72965C8.50123 6.40763 8.50016 5.97592 8.50016 5.33325H8.00016ZM14.1406 10.5961L14.6011 10.7908C14.7896 10.345 14.9685 9.93037 15.0297 9.54842C15.099 9.11574 15.0218 8.72288 14.7549 8.32027L14.3382 8.59654L13.9214 8.87281C14.0501 9.06683 14.0718 9.20609 14.0423 9.3902C14.0046 9.62504 13.887 9.91191 13.68 10.4014L14.1406 10.5961ZM12.0002 7.99992V8.49992C12.6684 8.49992 13.0953 8.50221 13.4085 8.5648C13.6812 8.61929 13.8125 8.70853 13.9214 8.87281L14.3382 8.59654L14.7549 8.32027C14.4683 7.88792 14.0782 7.67886 13.6045 7.58419C13.1713 7.49762 12.6269 7.49992 12.0002 7.49992V7.99992ZM5.40401 1.85952L5.59872 2.32005C6.08817 2.11312 6.37504 1.99544 6.60988 1.95781C6.79399 1.92831 6.93325 1.95002 7.12727 2.07864L7.40354 1.66189L7.67981 1.24515C7.2772 0.978258 6.88434 0.901072 6.45166 0.970406C6.06971 1.03161 5.65512 1.2105 5.2093 1.39899L5.40401 1.85952ZM8.00016 3.99992H8.50016C8.50016 3.37316 8.50246 2.82881 8.41589 2.39561C8.32122 1.92188 8.11216 1.53176 7.67981 1.24515L7.40354 1.66189L7.12727 2.07864C7.29155 2.18754 7.38079 2.31892 7.43528 2.59158C7.49787 2.90476 7.50016 3.33166 7.50016 3.99992H8.00016Z"
      fill="currentColor" />
    <path d="M9.6665 1.54297C12.0092 2.14593 13.8535 3.99026 14.4565 6.33294" stroke="currentColor"
      stroke-linecap="round" />
  </g>
  <defs>
    <clipPath id="clip0_3046_26771">
      <rect width="16" height="16" fill="white" />
    </clipPath>
  </defs>
</svg>
  
