<svg width="24" height="24" viewBox="0 0 24 24" fill="none" xmlns="http://www.w3.org/2000/svg">
<path d="M20 10.0003C20 14.4186 16.4183 18.0005 11.9998 18.0005C7.58135 18.0005 3.99951 14.4186 3.99951 10.0003C3.99951 5.58186 7.58135 2 11.9998 2C16.4183 2 20 5.58186 20 10.0003Z" fill="#DEDEDE"/>
<path d="M8.40075 22C10.8315 22 12.802 20.0295 12.802 17.5987C12.802 15.168 10.8315 13.1975 8.40075 13.1975C5.97001 13.1975 3.99951 15.168 3.99951 17.5987C3.99951 20.0295 5.97001 22 8.40075 22Z" fill="#152E51" fill-opacity="0.9"/>
<path d="M7.9165 3.11914V14.2491H8.89763V2.62378C8.558 2.76676 8.23033 2.93253 7.9165 3.11914Z" fill="#152E51" fill-opacity="0.9"/>
</svg>
