<svg width="24" height="24" viewBox="0 0 24 24" fill="none" xmlns="http://www.w3.org/2000/svg">
<g clip-path="url(#clip0_3_121)">
<path fill-rule="evenodd" clip-rule="evenodd" d="M12 24C18.6107 24 24 18.6107 24 12C24 5.39259 18.6107 0 12 0C5.39259 0 0 5.39259 0 12C0 18.6107 5.39259 24 12 24Z" fill="#572878"/>
<path fill-rule="evenodd" clip-rule="evenodd" d="M12 20.7473C16.8197 20.7473 20.7473 16.8198 20.7473 12C20.7473 7.18355 16.8197 3.25269 12 3.25269C7.18354 3.25269 3.25267 7.18355 3.25267 12C3.25267 16.8198 7.18354 20.7473 12 20.7473Z" fill="#FBB34B"/>
<path fill-rule="evenodd" clip-rule="evenodd" d="M12 19.177C15.9506 19.177 19.177 15.9506 19.177 12C19.177 8.0494 15.9506 4.82635 12 4.82635C8.04939 4.82635 4.82634 8.0494 4.82634 12C4.82634 15.9506 8.04939 19.177 12 19.177Z" fill="#572878"/>
<path fill-rule="evenodd" clip-rule="evenodd" d="M14.0872 12.4741V10.9037H15.1078C15.921 10.9037 16.586 10.2354 16.586 9.42221V8.56295H15.0453V9.35965H11.7366V9.36295H8.89218C8.07901 9.36295 7.41399 10.028 7.41399 10.8411V11.7004H8.95473V10.9037H9.91275V12.688V16.395C9.91275 16.5201 9.99835 16.586 10.1037 16.5432L11.2625 16.0955C11.3679 16.0559 11.4535 15.921 11.4535 15.7992V12.4741V10.9037H12.5465V12.688V16.395C12.5465 16.5201 12.6321 16.586 12.7407 16.5432L13.8963 16.0955C14.0016 16.0559 14.0872 15.921 14.0872 15.7992V12.4741ZM12.6946 7.4436H13.9424C14.0214 7.4436 14.0872 7.50945 14.0872 7.59175V8.5827C14.0872 8.66171 14.0214 8.72756 13.9424 8.72756H12.6946C12.6123 8.72756 12.5465 8.66171 12.5465 8.5827V7.59175C12.5465 7.50945 12.6123 7.4436 12.6946 7.4436ZM10.0609 7.4436H11.3053C11.3876 7.4436 11.4535 7.50945 11.4535 7.59175V8.5827C11.4535 8.66171 11.3876 8.72756 11.3053 8.72756H10.0609C9.9786 8.72756 9.91275 8.66171 9.91275 8.5827V7.59175C9.91275 7.50945 9.9786 7.4436 10.0609 7.4436Z" fill="#FBB34B"/>
</g>
<defs>
<clipPath id="clip0_3_121">
<rect width="24" height="24" fill="white"/>
</clipPath>
</defs>
</svg>
