<svg width="20" height="20" viewBox="0 0 20 20" fill="none" xmlns="http://www.w3.org/2000/svg">
<path fill-rule="evenodd" clip-rule="evenodd" d="M8.35973 3.58914C8.39657 3.91846 8.15947 4.21528 7.83015 4.25212C7.21062 4.32142 6.61014 4.51797 6.06714 4.83147C5.37787 5.22942 4.8055 5.8018 4.40755 6.49106C4.0096 7.18033 3.8001 7.96221 3.8001 8.75811C3.8001 9.55401 4.0096 10.3359 4.40755 11.0252C4.68447 11.5048 5.04586 11.9278 5.47232 12.2749C5.72935 12.484 5.76815 12.862 5.55899 13.119C5.34983 13.376 4.97192 13.4148 4.7149 13.2056C4.17557 12.7667 3.71854 12.2317 3.36832 11.6252C2.86505 10.7535 2.6001 9.76465 2.6001 8.75811C2.6001 7.75157 2.86505 6.76276 3.36832 5.89106C3.87159 5.01937 4.59545 4.29551 5.46714 3.79224C6.15386 3.39577 6.91326 3.1472 7.69675 3.05956C8.02607 3.02272 8.3229 3.25982 8.35973 3.58914ZM12.7164 6.01683C13.0159 5.87489 13.3737 6.00256 13.5156 6.302C13.8787 7.0679 14.0683 7.90666 14.0683 8.75811C14.0683 9.08948 13.7996 9.35811 13.4683 9.35811C13.1369 9.35811 12.8683 9.08948 12.8683 8.75811C12.8683 8.08485 12.7184 7.42162 12.4313 6.816C12.2893 6.51657 12.417 6.15877 12.7164 6.01683ZM11.5412 3.20064C11.8282 3.36629 11.9265 3.73324 11.7609 4.02023L9.38691 8.1329C9.49583 8.31589 9.55839 8.52969 9.55839 8.75811C9.55839 9.43416 9.01034 9.98221 8.33428 9.98221C7.65823 9.98221 7.11018 9.43416 7.11018 8.75811C7.11018 8.08206 7.65823 7.53401 8.33428 7.53401C8.33853 7.53401 8.34277 7.53403 8.347 7.53407L10.7216 3.42032C10.8872 3.13333 11.2542 3.03498 11.5412 3.20064ZM7.76331 13.4624C8.09469 13.4624 8.36331 13.731 8.36331 14.0624L8.36331 16.3442C8.36331 16.6756 8.09469 16.9442 7.76331 16.9442C7.43194 16.9442 7.16331 16.6756 7.16331 16.3442V14.0624C7.16331 13.731 7.43194 13.4624 7.76331 13.4624ZM11.2156 11.2786C11.2156 10.9472 10.947 10.6786 10.6156 10.6786C10.2842 10.6786 10.0156 10.9472 10.0156 11.2786V16.3442C10.0156 16.6755 10.2842 16.9442 10.6156 16.9442C10.947 16.9442 11.2156 16.6755 11.2156 16.3442V11.2786ZM13.4679 11.5207C13.7993 11.5207 14.0679 11.7894 14.0679 12.1207V16.3442C14.0679 16.6755 13.7993 16.9442 13.4679 16.9442C13.1365 16.9442 12.8679 16.6755 12.8679 16.3442L12.8679 12.1207C12.8679 11.7894 13.1365 11.5207 13.4679 11.5207ZM16.9202 8.35779C16.9202 8.02642 16.6516 7.75779 16.3202 7.75779C15.9888 7.75779 15.7202 8.02642 15.7202 8.35779L15.7202 16.3442C15.7202 16.6755 15.9888 16.9442 16.3202 16.9442C16.6516 16.9442 16.9202 16.6755 16.9202 16.3442V8.35779Z" fill="currentColor"/>
</svg>
