<svg viewBox="0 0 16 16" fill="none" xmlns="http://www.w3.org/2000/svg">
  <path
    d="M11.2985 11.8891L13.1768 6.25428C13.9259 4.00729 14.3004 2.88379 13.7073 2.29074C13.1142 1.69768 11.9907 2.07218 9.7436 2.82118L4.14486 4.68736C2.89577 5.1037 2.27122 5.31188 2.08165 5.76987C2.03709 5.87751 2.01015 5.99162 2.00186 6.10782C1.9666 6.60224 2.43211 7.06773 3.36313 7.99872L3.5327 8.16829C3.68552 8.3211 3.76193 8.39751 3.81969 8.48256C3.93361 8.65031 3.99828 8.8466 4.00636 9.04921C4.01046 9.15194 3.99442 9.2588 3.96234 9.47251C3.84493 10.2548 3.78622 10.6459 3.85538 10.9469C3.99323 11.5468 4.45759 12.0177 5.05554 12.164C5.35553 12.2374 5.74746 12.1842 6.53132 12.0778L6.57418 12.072C6.79515 12.042 6.90564 12.027 7.01172 12.0334C7.2043 12.0451 7.3903 12.1078 7.55058 12.2152C7.63888 12.2743 7.71772 12.3531 7.8754 12.5108L8.02615 12.6616C8.93232 13.5677 9.38541 14.0208 9.86606 13.9972C9.99855 13.9907 10.1287 13.9599 10.2502 13.9065C10.6906 13.7127 10.8932 13.1048 11.2985 11.8891Z"
    stroke="currentColor" stroke-width="1.5" stroke-linecap="round" />
  <path d="M5 11L13 3" stroke="currentColor" stroke-width="1.5" stroke-linecap="round" />
</svg>
