<svg width="1em" height="1em" viewBox="0 0 16 16" fill="none" xmlns="http://www.w3.org/2000/svg">
  <g clip-path="url(#clip0_5101_304265)">
    <path
      d="M5.4045 1.86245L5.59921 2.32298L5.4045 1.86245ZM4.29685 2.45972L4.01907 2.04398L4.01907 2.04398L4.29685 2.45972ZM1.84146 5.45162L1.37952 5.26028H1.37952L1.84146 5.45162ZM3.28661 12.7169L3.64016 12.3633L3.28661 12.7169ZM13.5438 11.7066L13.9595 11.9844V11.9844L13.5438 11.7066ZM14.141 10.599L13.6805 10.4043V10.4043L14.141 10.599ZM12.0007 8.00285V8.50285V8.00285ZM10.6673 8.00285V7.50285V8.00285ZM8.00065 5.33618H7.50065H8.00065ZM8.00065 4.00285H8.50065H8.00065ZM8.39118 7.61232L8.74473 7.25877L8.74473 7.25877L8.39118 7.61232ZM14.3387 8.59947L13.9219 8.87574L13.9219 8.87574L14.3387 8.59947ZM7.40403 1.66482L7.12776 2.08157L7.12776 2.08157L7.40403 1.66482ZM5.4045 1.86245L5.20979 1.40192C4.79547 1.57709 4.39664 1.7917 4.01907 2.04398L4.29685 2.45972L4.57464 2.87545C4.89953 2.65836 5.24271 2.47371 5.59921 2.32298L5.4045 1.86245ZM4.29685 2.45972L4.01907 2.04398C2.84051 2.83147 1.92195 3.95074 1.37952 5.26028L1.84146 5.45162L2.3034 5.64296C2.77014 4.51615 3.56053 3.55305 4.57464 2.87545L4.29685 2.45972ZM1.84146 5.45162L1.37952 5.26028C0.837089 6.56982 0.695165 8.0108 0.971693 9.40099L1.46209 9.30345L1.95248 9.2059C1.71454 8.00969 1.83666 6.76978 2.3034 5.64296L1.84146 5.45162ZM1.46209 9.30345L0.971693 9.40099C1.24822 10.7912 1.93078 12.0682 2.93306 13.0704L3.28661 12.7169L3.64016 12.3633C2.77774 11.5009 2.19042 10.4021 1.95248 9.2059L1.46209 9.30345ZM3.28661 12.7169L2.93306 13.0704C3.93533 14.0727 5.21231 14.7553 6.60251 15.0318L6.70005 14.5414L6.7976 14.051C5.60138 13.8131 4.50259 13.2258 3.64016 12.3633L3.28661 12.7169ZM6.70005 14.5414L6.60251 15.0318C7.9927 15.3083 9.43368 15.1664 10.7432 14.624L10.5519 14.162L10.3605 13.7001C9.23372 14.1668 7.99381 14.289 6.7976 14.051L6.70005 14.5414ZM10.5519 14.162L10.7432 14.624C12.0528 14.0816 13.172 13.163 13.9595 11.9844L13.5438 11.7066L13.128 11.4289C12.4504 12.443 11.4873 13.2334 10.3605 13.7001L10.5519 14.162ZM13.5438 11.7066L13.9595 11.9844C14.2118 11.6069 14.4264 11.208 14.6016 10.7937L14.141 10.599L13.6805 10.4043C13.5298 10.7608 13.3451 11.104 13.128 11.4289L13.5438 11.7066ZM12.0007 8.00285V7.50285H10.6673V8.00285V8.50285H12.0007V8.00285ZM8.00065 5.33618H8.50065V4.00285H8.00065H7.50065V5.33618H8.00065ZM10.6673 8.00285V7.50285C10.0246 7.50285 9.59294 7.50178 9.27091 7.45849C8.96327 7.41713 8.83161 7.34565 8.74473 7.25877L8.39118 7.61232L8.03762 7.96587C8.34127 8.26952 8.71914 8.3933 9.13767 8.44957C9.54181 8.50391 10.0529 8.50285 10.6673 8.50285V8.00285ZM8.00065 5.33618H7.50065C7.50065 5.95058 7.49959 6.46169 7.55393 6.86583C7.6102 7.28436 7.73398 7.66223 8.03762 7.96588L8.39118 7.61232L8.74473 7.25877C8.65785 7.17189 8.58637 7.04023 8.54501 6.73258C8.50171 6.41056 8.50065 5.97885 8.50065 5.33618H8.00065ZM14.141 10.599L14.6016 10.7937C14.7901 10.3479 14.969 9.9333 15.0302 9.55135C15.0995 9.11867 15.0223 8.72581 14.7554 8.3232L14.3387 8.59947L13.9219 8.87574C14.0505 9.06976 14.0723 9.20902 14.0428 9.39313C14.0051 9.62797 13.8875 9.91484 13.6805 10.4043L14.141 10.599ZM12.0007 8.00285V8.50285C12.6689 8.50285 13.0958 8.50514 13.409 8.56773C13.6816 8.62222 13.813 8.71146 13.9219 8.87574L14.3387 8.59947L14.7554 8.3232C14.4688 7.89085 14.0787 7.68179 13.605 7.58712C13.1718 7.50055 12.6274 7.50285 12.0007 7.50285V8.00285ZM5.4045 1.86245L5.59921 2.32298C6.08866 2.11605 6.37553 1.99837 6.61037 1.96074C6.79447 1.93124 6.93374 1.95295 7.12776 2.08157L7.40403 1.66482L7.68029 1.24808C7.27769 0.981187 6.88483 0.904002 6.45214 0.973335C6.0702 1.03454 5.65561 1.21343 5.20979 1.40192L5.4045 1.86245ZM8.00065 4.00285H8.50065C8.50065 3.37609 8.50295 2.83174 8.41638 2.39854C8.32171 1.92481 8.11265 1.53469 7.68029 1.24808L7.40403 1.66482L7.12776 2.08157C7.29203 2.19047 7.38128 2.32185 7.43577 2.5945C7.49835 2.90769 7.50065 3.33459 7.50065 4.00285H8.00065Z"
      fill="currentColor" />
    <path d="M9.66602 1.5459C12.0087 2.14886 13.853 3.99319 14.456 6.33587" stroke="currentColor"
      stroke-linecap="round" />
  </g>
  <defs>
    <clipPath id="clip0_5101_304265">
      <rect width="16" height="16" fill="white" transform="translate(0 0.00292969)" />
    </clipPath>
  </defs>
</svg>
