<svg xmlns="http://www.w3.org/2000/svg" width="36" height="36" fill="none"><path fill="#fff" d="M18 4c1.104 0 2.172.376 4.305 1.127l.779.274c4.092 1.441 6.139 2.161 6.652 2.914.514.754.514 2.992.514 7.468v2.205c0 7.893-5.77 11.723-9.39 13.35-.982.441-1.473.662-2.86.662-1.387 0-1.878-.22-2.86-.662-3.62-1.627-9.39-5.457-9.39-13.35v-2.205c0-4.476 0-6.714.514-7.468.514-.753 2.56-1.473 6.652-2.914l.78-.274C15.828 4.376 16.895 4 18 4Zm0 3c-.87 0-1.71.295-3.392.885l-.614.216c-3.224 1.132-4.837 1.698-5.242 2.29-.405.591-.404 2.35-.404 5.868v1.731c0 6.202 4.546 9.213 7.398 10.49.774.347 1.16.52 2.254.52 1.093 0 1.48-.173 2.254-.52 2.852-1.277 7.4-4.288 7.4-10.49V16.26c0-3.518-.001-5.277-.406-5.868-.405-.592-2.018-1.158-5.242-2.29l-.614-.216C19.71 7.295 18.87 7 18 7Z"/><rect width="3.071" height="5.625" x="12.5" y="16.375" fill="#fff" rx="1.125"/><rect width="3.068" height="9" x="16.696" y="13" fill="#fff" rx="1.125"/><rect width="3.071" height="6.75" x="20.89" y="15.25" fill="#fff" rx="1.125"/></svg>