<svg xmlns="http://www.w3.org/2000/svg" width="24" height="24" fill="none" viewBox="0 0 24 24">
  <rect width="24" height="24" fill="url(#a)" rx="12"/>
  <path fill="#fff" d="M7.925 9.277a1.009 1.009 0 0 1 1.007 0l2.3 1.363 1.563.887 2.306 1.363c.292.177.678.177 1.002 0l1.831-1.064c.296-.178.654-.504.654-.86v-2.1c0-.354-.33-.68-.659-.858l-1.797-1.036a1.008 1.008 0 0 0-1.003 0l-1.802 1.036c-.292.177-.386.504-.386.859v1.358L11.53 9.31V7.943c0-.355-.094-.682.236-.859l3.336-1.95a1.008 1.008 0 0 1 1.002 0l3.393 1.95a.965.965 0 0 1 .504.863v3.94a.968.968 0 0 1-.504.858l-3.393 1.95a1.011 1.011 0 0 1-1.002 0l-2.306-1.33-1.562-.919-2.306-1.33a1.01 1.01 0 0 0-1.002 0l-1.798 1.036c-.296.178-.715.504-.715.859v2.1c0 .355.39.681.715.859l1.798 1.064a1.02 1.02 0 0 0 1.007 0l1.797-1.036c.297-.178.8-.504.8-.859v-1.358l1.412.915v1.363c0 .354-.32.68-.645.858l-3.402 1.946a.983.983 0 0 1-1.002 0L4.5 16.913a1.03 1.03 0 0 1-.5-.854v-3.94c0-.354.179-.68.504-.858l3.42-1.984Z"/>
  <defs>
    <linearGradient id="a" x1="0" x2="24" y1="0" y2="24" gradientUnits="userSpaceOnUse">
      <stop stop-color="#8F34C2"/>
      <stop offset="1" stop-color="#7442DB"/>
    </linearGradient>
  </defs>
</svg>
