<svg width="24" height="24" viewBox="0 0 24 24" fill="none" xmlns="http://www.w3.org/2000/svg">
<g clip-path="url(#clip0_8_97)">
<mask id="mask0_8_97" style="mask-type:luminance" maskUnits="userSpaceOnUse" x="0" y="0" width="24" height="24">
<path d="M24 12C24 5.37258 18.6274 0 12 0C5.37258 0 0 5.37258 0 12C0 18.6274 5.37258 24 12 24C18.6274 24 24 18.6274 24 12Z" fill="white"/>
</mask>
<g mask="url(#mask0_8_97)">
<path d="M0 12C0 5.37258 5.37258 0 12 0C18.6274 0 24 5.37258 24 12C24 18.6274 18.6274 24 12 24C5.37258 24 0 18.6274 0 12Z" fill="#CF1111"/>
<path fill-rule="evenodd" clip-rule="evenodd" d="M12 4C14.1353 4 16.1452 4.83166 17.6549 6.34325H17.6568C19.1683 7.85483 20 9.8628 20 12C20 14.1372 19.1683 16.1452 17.6568 17.6568C16.1452 19.1683 14.1372 20 12 20C9.8628 20 7.85483 19.1683 6.34325 17.6568C4.83166 16.1452 4 14.1372 4 12C4 10.4528 4.43643 8.96933 5.26434 7.6825C5.02084 7.38657 4.87474 7.00632 4.87474 6.59424C4.87474 5.64645 5.64645 4.87474 6.59424 4.87474C7.54203 4.87474 8.31373 5.64645 8.31373 6.59424C8.31373 7.54203 7.54203 8.31373 6.59424 8.31373C6.30953 8.31373 6.04168 8.24257 5.80379 8.11893C5.07516 9.28027 4.69117 10.6102 4.69117 11.9981C4.69117 13.9499 5.45165 15.7855 6.83212 17.166C8.2126 18.5465 10.0482 19.307 12 19.307C13.9518 19.307 15.7874 18.5465 17.1679 17.166C18.5484 15.7855 19.3088 13.9499 19.3088 11.9981C19.3088 10.0464 18.5484 8.21073 17.1679 6.83025C15.7874 5.44978 13.9518 4.6893 12 4.6893V4ZM7.62443 6.59424C7.62443 6.02669 7.16179 5.56404 6.59424 5.56404C6.02669 5.56404 5.56404 6.02669 5.56404 6.59424C5.56404 7.16179 6.02669 7.62443 6.59424 7.62443C7.16179 7.62443 7.62443 7.16179 7.62443 6.59424ZM15.8267 12C15.8267 14.1128 14.1128 15.8267 12 15.8267C9.8871 15.8267 8.17323 14.1128 8.17323 12C8.17323 9.8871 9.8871 8.17323 12 8.17323C14.1128 8.17323 15.8267 9.8871 15.8267 12Z" fill="#F2F2F2"/>
</g>
</g>
<defs>
<clipPath id="clip0_8_97">
<rect width="24" height="24" fill="white"/>
</clipPath>
</defs>
</svg>
