<svg xmlns="http://www.w3.org/2000/svg" width="16" height="16" fill="currentColor" viewBox="0 0 16 16">
  <path d="M12 7.333h-1.333a.643.643 0 0 1-.475-.192.648.648 0 0 1-.192-.474c0-.189.064-.347.192-.475A.646.646 0 0 1 10.667 6H12V4.667c0-.19.064-.347.192-.475A.648.648 0 0 1 12.667 4c.188 0 .347.064.475.192a.64.64 0 0 1 .191.475V6h1.334c.189 0 .347.064.475.192a.642.642 0 0 1 .191.475.65.65 0 0 1-.192.475.638.638 0 0 1-.474.191h-1.334v1.334a.646.646 0 0 1-.192.475.642.642 0 0 1-.474.191.648.648 0 0 1-.475-.192.643.643 0 0 1-.192-.474V7.333ZM6 8a2.568 2.568 0 0 1-1.883-.783 2.568 2.568 0 0 1-.784-1.884c0-.733.262-1.36.784-1.883A2.568 2.568 0 0 1 6 2.667c.733 0 1.361.26 1.883.783.523.522.784 1.15.784 1.883 0 .734-.261 1.361-.784 1.884A2.568 2.568 0 0 1 6 8ZM.667 12v-.533c0-.378.097-.725.292-1.042.194-.316.453-.558.774-.725a9.884 9.884 0 0 1 2.1-.775 9.208 9.208 0 0 1 4.334 0 9.98 9.98 0 0 1 2.1.775c.322.167.58.408.775.725.195.317.292.664.291 1.042V12c0 .367-.13.68-.39.942a1.28 1.28 0 0 1-.943.391H2c-.367 0-.68-.13-.941-.391A1.287 1.287 0 0 1 .667 12Z"/>
</svg>
