<svg width="16" height="16" viewBox="0 0 16 16" fill="none" xmlns="http://www.w3.org/2000/svg">
<path fill-rule="evenodd" clip-rule="evenodd" d="M8.0013 1.33325C4.3194 1.33325 1.33463 4.31802 1.33463 7.99992C1.33463 11.6818 4.3194 14.6666 8.0013 14.6666C11.6832 14.6666 14.668 11.6818 14.668 7.99992C14.668 4.31802 11.6832 1.33325 8.0013 1.33325ZM9.5013 9.99992C9.5013 10.2761 9.27744 10.4999 9.0013 10.4999H6.0013C5.72516 10.4999 5.5013 10.2761 5.5013 9.99992V6.99992C5.5013 6.72378 5.72516 6.49992 6.0013 6.49992C6.27744 6.49992 6.5013 6.72378 6.5013 6.99992V8.79281L9.64775 5.64637C9.84301 5.4511 10.1596 5.4511 10.3549 5.64637C10.5501 5.84163 10.5501 6.15821 10.3549 6.35347L7.20841 9.49992H9.0013C9.27744 9.49992 9.5013 9.72378 9.5013 9.99992Z" fill="currentColor"/>
</svg>
