<svg width="40" height="40" viewBox="0 0 40 40" fill="none" xmlns="http://www.w3.org/2000/svg">
<g clip-path="url(#clip0_8_97)">
<mask id="mask0_8_97" style="mask-type:luminance" maskUnits="userSpaceOnUse" x="0" y="0" width="40" height="40">
<path d="M40 20C40 8.9543 31.0457 0 20 0C8.9543 0 0 8.9543 0 20C0 31.0457 8.9543 40 20 40C31.0457 40 40 31.0457 40 20Z" fill="white"/>
</mask>
<g mask="url(#mask0_8_97)">
<path d="M0 20C0 8.9543 8.9543 0 20 0C31.0457 0 40 8.9543 40 20C40 31.0457 31.0457 40 20 40C8.9543 40 0 31.0457 0 20Z" fill="#CF1111"/>
<path fill-rule="evenodd" clip-rule="evenodd" d="M20 6.66666C23.5588 6.66666 26.9087 8.05276 29.4248 10.5721H29.428C31.9472 13.0914 33.3333 16.438 33.3333 20C33.3333 23.562 31.9472 26.9087 29.428 29.428C26.9087 31.9472 23.562 33.3333 20 33.3333C16.438 33.3333 13.0914 31.9472 10.5721 29.428C8.05277 26.9087 6.66667 23.562 6.66667 20C6.66667 17.4213 7.39405 14.9489 8.7739 12.8042C8.36807 12.3109 8.12457 11.6772 8.12457 10.9904C8.12457 9.41074 9.41076 8.12456 10.9904 8.12456C12.5701 8.12456 13.8562 9.41074 13.8562 10.9904C13.8562 12.57 12.5701 13.8562 10.9904 13.8562C10.5159 13.8562 10.0695 13.7376 9.67299 13.5315C8.45861 15.4671 7.81862 17.6837 7.81862 19.9968C7.81862 23.2498 9.08609 26.3092 11.3869 28.61C13.6877 30.9108 16.747 32.1783 20 32.1783C23.253 32.1783 26.3123 30.9108 28.6132 28.61C30.914 26.3092 32.1813 23.2498 32.1813 19.9968C32.1813 16.744 30.914 13.6845 28.6132 11.3837C26.3123 9.08296 23.253 7.81549 20 7.81549V6.66666ZM12.7074 10.9904C12.7074 10.0445 11.9363 9.27339 10.9904 9.27339C10.0445 9.27339 9.27341 10.0445 9.27341 10.9904C9.27341 11.9363 10.0445 12.7074 10.9904 12.7074C11.9363 12.7074 12.7074 11.9363 12.7074 10.9904ZM26.3778 20C26.3778 23.5213 23.5213 26.3778 20 26.3778C16.4785 26.3778 13.6221 23.5213 13.6221 20C13.6221 16.4785 16.4785 13.622 20 13.622C23.5213 13.622 26.3778 16.4785 26.3778 20Z" fill="#F2F2F2"/>
</g>
</g>
<defs>
<clipPath id="clip0_8_97">
<rect width="40" height="40" fill="white"/>
</clipPath>
</defs>
</svg>
