<svg xmlns="http://www.w3.org/2000/svg" width="24" height="24" fill="none" viewBox="0 0 24 24">
  <g clip-path="url(#a)">
    <path fill="#fff" d="M12 24c6.627 0 12-5.373 12-12S18.627 0 12 0 0 5.373 0 12s5.373 12 12 12Z"/>
    <path fill="#000" d="M20.485 3.515A11.921 11.921 0 0 0 12 0a11.921 11.921 0 0 0-8.485 3.515A11.921 11.921 0 0 0 0 12c0 3.205 1.248 6.219 3.515 8.485A11.921 11.921 0 0 0 12 24c3.205 0 6.219-1.248 8.485-3.515A11.921 11.921 0 0 0 24 12c0-3.205-1.248-6.219-3.515-8.485Zm1.494 7.178a18.328 18.328 0 0 1-4.947-1.411c-1.683-.742-3.326-1.745-4.884-2.98a25.322 25.322 0 0 1-3.775-3.69A10.013 10.013 0 0 1 12 1.936c5.107 0 9.337 3.823 9.98 8.757ZM6.754 20.586a10.117 10.117 0 0 1-1.4-1.036c1.895-1.848 4.055-2.913 5.597-3.494.47-.178.91-.32 1.306-.436-2.486 1.639-4.597 3.92-5.503 4.966Zm-2.966-2.774a10.006 10.006 0 0 1-1.797-4.762h10.39c-5.64 1.744-7.788 3.708-8.593 4.762ZM3.724 6.28c1.357 1.382 3.443 2.692 6.214 3.901.898.392 1.74.715 2.436.964H1.973c.152-1.797.777-3.46 1.751-4.865Zm2.852-2.754c1.655 2.336 3.752 4.187 5.16 5.291-2.773-.987-4.413-2.022-5.338-2.77-.716-.58-1.105-1.066-1.302-1.363.456-.43.95-.818 1.48-1.158ZM12 22.064a10.03 10.03 0 0 1-3.456-.611 23.792 23.792 0 0 1 4.655-4.108 23.068 23.068 0 0 1 5.014-2.539 21.977 21.977 0 0 1 3.684-.979c-.862 4.68-4.971 8.237-9.897 8.237Z"/>
  </g>
  <defs>
    <clipPath id="a">
      <path fill="#fff" d="M0 0h24v24H0z"/>
    </clipPath>
  </defs>
</svg>
