<svg xmlns="http://www.w3.org/2000/svg" width="40" height="40" fill="none"><circle cx="20" cy="20" r="20" fill="#373D62"/><circle cx="20" cy="20" r="20" fill="#000" fill-opacity=".2"/><path fill="#A9B3DB" d="M23.045 16c-.06-.758-.344-1.348-.852-1.773-.5-.424-1.261-.636-2.284-.636-.651 0-1.185.08-1.602.239-.41.151-.712.36-.91.624-.196.266-.298.569-.306.91-.015.28.034.534.148.761.12.22.31.42.568.602.257.174.587.334.988.477.402.145.88.273 1.432.387l1.91.409c1.287.273 2.39.633 3.306 1.08.917.447 1.667.973 2.25 1.58a5.633 5.633 0 0 1 1.284 2.022c.28.75.424 1.568.432 2.454-.008 1.53-.39 2.826-1.148 3.887-.757 1.06-1.84 1.867-3.25 2.42-1.401.553-3.087.83-5.056.83-2.023 0-3.788-.3-5.296-.898-1.5-.599-2.667-1.519-3.5-2.761-.826-1.25-1.242-2.849-1.25-4.796h6c.038.712.216 1.31.534 1.796.318.485.765.852 1.341 1.102.583.25 1.277.375 2.08.375.674 0 1.238-.084 1.693-.25.454-.167.799-.398 1.034-.693.235-.296.356-.633.363-1.012a1.437 1.437 0 0 0-.352-.931c-.22-.273-.583-.516-1.09-.728-.508-.22-1.194-.424-2.058-.613l-2.318-.5c-2.06-.447-3.685-1.194-4.875-2.239-1.181-1.053-1.769-2.489-1.761-4.307-.008-1.477.386-2.769 1.182-3.875.803-1.114 1.913-1.98 3.33-2.602 1.424-.621 3.056-.932 4.897-.932 1.879 0 3.504.314 4.875.943s2.428 1.515 3.17 2.66c.75 1.136 1.13 2.465 1.137 3.988h-6.046Z"/></svg>