<svg width="20" height="21" viewBox="0 0 20 21" fill="none" xmlns="http://www.w3.org/2000/svg">
<path d="M11.3958 3.60922C11.0408 2.14589 8.95917 2.14589 8.60417 3.60922C8.37417 4.55505 7.29083 5.00339 6.46083 4.49672C5.17417 3.71339 3.7025 5.18589 4.48583 6.47172C4.60359 6.66485 4.67407 6.88305 4.69156 7.10856C4.70904 7.33408 4.67303 7.56054 4.58645 7.76951C4.49988 7.97848 4.36518 8.16405 4.19333 8.31113C4.02148 8.4582 3.81733 8.56262 3.5975 8.61589C2.13417 8.97089 2.13417 11.0526 3.5975 11.4076C3.81714 11.461 4.02107 11.5654 4.19273 11.7125C4.36438 11.8596 4.49892 12.0451 4.58539 12.2539C4.67187 12.4627 4.70785 12.689 4.6904 12.9144C4.67296 13.1398 4.60258 13.3578 4.485 13.5509C3.70167 14.8376 5.17417 16.3092 6.46 15.5259C6.65313 15.4081 6.87133 15.3376 7.09685 15.3202C7.32236 15.3027 7.54882 15.3387 7.75779 15.4253C7.96676 15.5118 8.15233 15.6465 8.29941 15.8184C8.44648 15.9902 8.5509 16.1944 8.60417 16.4142C8.95917 17.8776 11.0408 17.8776 11.3958 16.4142C11.4492 16.1946 11.5537 15.9906 11.7008 15.819C11.8479 15.6473 12.0333 15.5128 12.2422 15.4263C12.451 15.3398 12.6773 15.3039 12.9027 15.3213C13.1281 15.3388 13.3461 15.4091 13.5392 15.5267C14.8258 16.3101 16.2975 14.8376 15.5142 13.5517C15.3964 13.3586 15.3259 13.1404 15.3084 12.9149C15.291 12.6894 15.327 12.4629 15.4135 12.2539C15.5001 12.045 15.6348 11.8594 15.8067 11.7123C15.9785 11.5652 16.1827 11.4608 16.4025 11.4076C17.8658 11.0526 17.8658 8.97089 16.4025 8.61589C16.1829 8.56247 15.9789 8.45799 15.8073 8.31093C15.6356 8.16387 15.5011 7.97838 15.4146 7.76954C15.3281 7.56069 15.2922 7.33439 15.3096 7.10903C15.327 6.88367 15.3974 6.6656 15.515 6.47255C16.2983 5.18589 14.8258 3.71422 13.54 4.49755C13.3469 4.6153 13.1287 4.68579 12.9032 4.70328C12.6776 4.72076 12.4512 4.68475 12.2422 4.59817C12.0332 4.5116 11.8477 4.3769 11.7006 4.20505C11.5535 4.0332 11.4491 3.82905 11.3958 3.60922Z" stroke="white" stroke-width="1.5" stroke-linecap="round" stroke-linejoin="round"/>
<path d="M11.7678 11.7795C12.2366 11.3106 12.5 10.6748 12.5 10.0117C12.5 9.34868 12.2366 8.71279 11.7678 8.24395C11.2989 7.77511 10.663 7.51172 10 7.51172C9.33696 7.51172 8.70107 7.77511 8.23223 8.24395C7.76339 8.71279 7.5 9.34868 7.5 10.0117C7.5 10.6748 7.76339 11.3106 8.23223 11.7795C8.70107 12.2483 9.33696 12.5117 10 12.5117C10.663 12.5117 11.2989 12.2483 11.7678 11.7795Z" stroke="white" stroke-width="1.5" stroke-linecap="round" stroke-linejoin="round"/>
</svg>
