<svg width="1em" height="1em" viewBox="0 0 16 16" fill="none" xmlns="http://www.w3.org/2000/svg">
  <g clip-path="url(#clip0_3144_57879)">
    <path
      d="M7.99967 1.33398C4.85698 1.33398 3.28563 1.33398 2.30932 2.3103C1.33301 3.28661 1.33301 4.85795 1.33301 8.00065C1.33301 11.1433 1.33301 12.7147 2.30932 13.691C3.28563 14.6673 4.85698 14.6673 7.99967 14.6673C11.1424 14.6673 12.7137 14.6673 13.69 13.691C14.4327 12.9483 14.6104 11.8612 14.653 10"
      stroke="currentColor" stroke-linecap="round" stroke-linejoin="round" />
    <path
      d="M11.6033 2.12407L13.1748 3.48605C14.2566 4.42361 14.7975 4.89238 14.7975 5.50122C14.7975 6.11006 14.2566 6.57884 13.1748 7.51639L11.6033 8.87837C11.1276 9.29064 10.8898 9.49677 10.6949 9.40778C10.5 9.3188 10.5 9.00406 10.5 8.37458V7.35836C8.5 7.35836 6.33333 8.28694 5.5 9.83455C5.5 4.88217 8.46296 3.64408 10.5 3.64408V2.62786C10.5 1.99838 10.5 1.68364 10.6949 1.59466C10.8898 1.50567 11.1276 1.71181 11.6033 2.12407Z"
      stroke="currentColor" stroke-linecap="round" stroke-linejoin="round" />
  </g>
  <defs>
    <clipPath id="clip0_3144_57879">
      <rect width="16" height="16" fill="white" />
    </clipPath>
  </defs>
</svg>
