<svg height="40" viewBox="0 0 47 40" width="47" xmlns="http://www.w3.org/2000/svg"><rect fill="#03cfcd" height="32" rx="4" width="40"/><rect fill="#303fd0" height="32" rx="4" width="40" x="7" y="8"/><path d="m4 0h29a0 0 0 0 1 0 0v20a4 4 0 0 1 -4 4h-29a0 0 0 0 1 0 0v-20a4 4 0 0 1 4-4z" fill="#50d0fe" transform="translate(7 8)"/><path d="m44.876-27.5h-11.991a2.437 2.437 0 0 0 -1.724 4.161l3.291 3.291-7.452 7.448-7.452-7.452a3.249 3.249 0 0 0 -4.6 0l-6.972 6.981a1.625 1.625 0 0 0 0 2.3l2.3 2.3a1.625 1.625 0 0 0 2.3 0l4.678-4.679 7.446 7.45a3.249 3.249 0 0 0 4.6 0l9.75-9.75 3.291 3.291a2.438 2.438 0 0 0 4.159-1.726v-11.99a1.623 1.623 0 0 0 -1.624-1.625z" fill="#fff" transform="translate(-3.5 37.75)"/></svg>