<svg width="40" height="40" viewBox="0 0 40 40" fill="none" xmlns="http://www.w3.org/2000/svg">
<path d="M27.6462 17.2373C29.0295 19.0133 29.7785 21.2013 29.7735 23.4523C29.7735 25.8345 28.95 28.0205 27.5873 29.7458L27.4698 29.8927L27.4403 29.6967C27.412 29.5358 27.3793 29.3755 27.3425 29.2163C26.6562 26.1482 24.4407 23.511 20.7743 21.3743C18.304 19.9428 16.8827 18.2177 16.5101 16.2571C16.3077 15.0358 16.4088 13.7835 16.8042 12.6104C17.0833 11.6936 17.5177 10.8315 18.0883 10.0617L19.5198 8.27754C19.5777 8.2059 19.6508 8.14812 19.7338 8.10844C19.8168 8.06874 19.908 8.04814 20.0002 8.04814C20.092 8.04814 20.1832 8.06874 20.2662 8.10844C20.3493 8.14812 20.4223 8.2059 20.4805 8.27754L27.6462 17.2373ZM29.9008 15.4532L20.3528 3.50355C20.3107 3.45047 20.257 3.40759 20.1958 3.37812C20.1348 3.34864 20.0678 3.33334 20.0002 3.33334C19.9322 3.33334 19.8652 3.34864 19.804 3.37812C19.743 3.40759 19.6893 3.45047 19.6472 3.50355L10.0991 15.463L10.0697 15.4925C8.24038 17.8168 7.2491 20.6905 7.2563 23.6483C7.2563 30.834 12.9615 36.6667 20.0002 36.6667C27.0385 36.6667 32.7437 30.834 32.7437 23.6483C32.7508 20.6905 31.7597 17.8168 29.9303 15.4925L29.9008 15.4532ZM12.3832 17.198L13.236 16.1296L13.2654 16.3257L13.3341 16.7962C13.8928 19.7665 15.8632 22.2368 19.1668 24.1483C22.039 25.8247 23.7057 27.746 24.186 29.8537C24.382 30.7358 24.421 31.5987 24.3328 32.3535V32.4023L24.2937 32.422C22.9607 33.0883 21.4903 33.434 20.0002 33.4317C14.6084 33.4317 10.2266 28.9615 10.2266 23.4523C10.2266 21.09 11.0304 18.9135 12.3832 17.198Z" fill="#4BA2FF"/>
</svg>
