<svg width="29" height="30" viewBox="0 0 29 30" fill="none" xmlns="http://www.w3.org/2000/svg">
<g clip-path="url(#clip0_120_1575)">
<mask id="mask0_120_1575" style="mask-type:luminance" maskUnits="userSpaceOnUse" x="0" y="0" width="29" height="30">
<path d="M29 0.652466H0V29.6525H29V0.652466Z" fill="white"/>
</mask>
<g mask="url(#mask0_120_1575)">
<path d="M28.8795 15.1522C28.8795 23.1215 22.4195 29.5815 14.4503 29.5815C6.48112 29.5815 0.0209961 23.1215 0.0209961 15.1522C0.0209961 7.18304 6.48112 0.722916 14.4503 0.722916C22.4195 0.722916 28.8795 7.18304 28.8795 15.1522Z" fill="#F7931A"/>
<path d="M17.9537 19.3693C17.8949 19.5691 17.7969 19.7552 17.6656 19.9169C17.5343 20.0786 17.3722 20.2126 17.1887 20.3111C17.0058 20.4108 16.8049 20.4732 16.5977 20.4947C16.3905 20.5162 16.1811 20.4964 15.9817 20.4364L11.9183 19.2262L12.8235 16.1869L16.8867 17.3973C17.7245 17.6467 18.2033 18.5314 17.9537 19.3693ZM19.3242 13.1409C19.4238 13.3239 19.4861 13.5248 19.5076 13.732C19.5291 13.9392 19.5093 14.1486 19.4493 14.3481C19.1997 15.1857 18.3146 15.6642 17.4773 15.4151L13.4138 14.2049L14.3188 11.1657L18.3823 12.3759C18.5821 12.4348 18.7682 12.5327 18.9299 12.6641C19.0916 12.7954 19.2256 12.9575 19.3242 13.1409ZM21.1432 12.1568C20.6787 11.2985 19.9077 10.6722 18.9726 10.3937L18.4349 10.2337L19.1876 7.70655L17.2565 7.1314L16.5039 9.65854L14.8552 9.16751L15.608 6.64037L15.1454 6.50257L13.2713 5.94445L12.5458 8.38039L10.2619 7.7002L9.61736 9.86459L11.9012 10.5449L9.55488 18.423L7.27102 17.7428L6.62646 19.9074L8.91018 20.5874L8.29795 22.6435L8.76042 22.7813L10.6345 23.3394L11.274 21.1922L12.9266 21.6843L12.2871 23.8317L14.2103 24.4045L14.8498 22.2572L15.3912 22.4184C15.7313 22.52 16.0843 22.5717 16.4392 22.572C17.038 22.572 17.6312 22.4233 18.1728 22.1302C19.0312 21.6657 19.6572 20.8949 19.9359 19.9595C20.2288 18.9755 20.0842 17.9648 19.6183 17.1328C20.4641 16.6914 21.1381 15.9227 21.4313 14.9384C21.7099 14.0029 21.6075 13.0151 21.1432 12.1568Z" fill="white"/>
<mask id="mask1_120_1575" style="mask-type:luminance" maskUnits="userSpaceOnUse" x="0" y="0" width="29" height="30">
<path d="M29 0.652466H0V29.6525H29V0.652466Z" fill="white"/>
</mask>
<g mask="url(#mask1_120_1575)">
<path d="M14.5029 0.663788C22.5087 0.663788 28.9972 7.15227 28.9972 15.1582C28.9972 23.164 22.5087 29.6525 14.5029 29.6525C6.49703 29.6525 0.00854492 23.164 0.00854492 15.1582C0.00854492 7.15227 6.49986 0.663788 14.5029 0.663788Z" fill="#3E5BF2"/>
<path d="M14.5058 4.82242V19.2658L20.8527 15.4611L14.5058 4.82242ZM14.5058 25.4939L20.8527 16.3811L14.5058 20.2199V25.4939ZM14.5058 4.82242V19.2658L8.15601 15.4611L14.5058 4.82242Z" fill="white"/>
<path d="M14.5058 20.2199V25.4939L8.15601 16.3811L14.5058 20.2199Z" fill="white"/>
</g>
</g>
</g>
<defs>
<clipPath id="clip0_120_1575">
<rect width="29" height="29" fill="white" transform="translate(0 0.652466)"/>
</clipPath>
</defs>
</svg>
