<svg width="24" height="24" viewBox="0 0 24 24" fill="none" xmlns="http://www.w3.org/2000/svg">
<g clip-path="url(#clip0_128_1153)">
<circle cx="12" cy="12" r="12" fill="black"/>
<path d="M18.9267 15.7664L16.6155 18.2445C16.5656 18.2983 16.505 18.3412 16.4377 18.3706C16.3704 18.4 16.2977 18.4152 16.2243 18.4153H5.26853C5.21627 18.4153 5.16516 18.4 5.12145 18.3714C5.07774 18.3428 5.04333 18.302 5.02243 18.2541C5.00153 18.2062 4.99505 18.1533 5.00378 18.1018C5.01251 18.0502 5.03607 18.0024 5.07158 17.964L7.38011 15.486C7.43011 15.4321 7.49064 15.3892 7.55796 15.3598C7.62527 15.3304 7.69793 15.3152 7.77139 15.3151H18.7271C18.7798 15.314 18.8317 15.3285 18.8762 15.3569C18.9207 15.3852 18.9559 15.426 18.9772 15.4743C18.9985 15.5225 19.0051 15.576 18.9961 15.628C18.9871 15.6799 18.9629 15.7281 18.9267 15.7664ZM16.6155 10.775C16.5654 10.7214 16.5048 10.6786 16.4375 10.6492C16.3702 10.6199 16.2977 10.6045 16.2243 10.6041H5.26853C5.21627 10.6042 5.16516 10.6194 5.12145 10.6481C5.07774 10.6767 5.04333 10.7175 5.02243 10.7653C5.00153 10.8132 4.99505 10.8662 5.00378 10.9177C5.01251 10.9692 5.03607 11.0171 5.07158 11.0554L7.38011 13.5348C7.43029 13.5884 7.49087 13.6312 7.55814 13.6605C7.62542 13.6899 7.69799 13.7053 7.77139 13.7056H18.7271C18.7793 13.7054 18.8302 13.6899 18.8737 13.6612C18.9173 13.6325 18.9515 13.5917 18.9722 13.5438C18.9929 13.496 18.9993 13.4432 18.9905 13.3918C18.9817 13.3404 18.9582 13.2926 18.9228 13.2544L16.6155 10.775ZM5.26853 8.99467H16.2243C16.2977 8.99461 16.3704 8.97939 16.4377 8.94999C16.505 8.92061 16.5656 8.87764 16.6155 8.82382L18.9267 6.34574C18.9629 6.30746 18.9871 6.25931 18.9961 6.20733C19.0051 6.15536 18.9985 6.10189 18.9772 6.05365C18.9559 6.00541 18.9207 5.96456 18.8762 5.93623C18.8317 5.90791 18.7798 5.89338 18.7271 5.89447H7.77139C7.69793 5.89454 7.62527 5.90975 7.55796 5.93915C7.49064 5.96855 7.43011 6.0115 7.38011 6.06532L5.07158 8.5434C5.03607 8.58173 5.01251 8.6296 5.00378 8.68112C4.99505 8.73264 5.00153 8.78558 5.02243 8.83347C5.04333 8.88136 5.07774 8.92212 5.12145 8.95075C5.16516 8.97939 5.21627 8.99465 5.26853 8.99467Z" fill="url(#paint0_linear_128_1153)"/>
</g>
<defs>
<linearGradient id="paint0_linear_128_1153" x1="6.1815" y1="18.714" x2="17.6694" y2="5.76274" gradientUnits="userSpaceOnUse">
<stop offset="0.08" stop-color="#9945FF"/>
<stop offset="0.3" stop-color="#8752F3"/>
<stop offset="0.5" stop-color="#5497D5"/>
<stop offset="0.6" stop-color="#43B4CA"/>
<stop offset="0.72" stop-color="#28E0B9"/>
<stop offset="0.97" stop-color="#19FB9B"/>
</linearGradient>
<clipPath id="clip0_128_1153">
<rect width="24" height="24" fill="white"/>
</clipPath>
</defs>
</svg>
