<svg xmlns="http://www.w3.org/2000/svg" width="20" height="20" fill="currentColor" viewBox="0 0 20 20">
  <path d="M17.656 18.75s-2.577-1.014-4.663-1.827h-8.77c-1.037 0-1.88-.892-1.88-1.993V3.243c0-1.1.843-1.993 1.88-1.993h11.553c1.038 0 1.88.893 1.88 1.993V18.75Zm-2.263-6.553a.482.482 0 0 0-.707-.057c-.016.014-1.649 1.466-4.687 1.466-3 0-4.657-1.441-4.687-1.467a.482.482 0 0 0-.706.058.553.553 0 0 0 .055.75c.077.07 1.934 1.723 5.338 1.723 3.405 0 5.262-1.653 5.34-1.723a.553.553 0 0 0 .054-.75Z"/>
</svg>
