<svg width="40" height="40" viewBox="0 0 40 40" fill="none" xmlns="http://www.w3.org/2000/svg">
<path d="M20 36.6667C29.2047 36.6667 36.6667 29.2047 36.6667 20C36.6667 10.7952 29.2047 3.33333 20 3.33333C10.7952 3.33333 3.33333 10.7952 3.33333 20C3.33333 29.2047 10.7952 36.6667 20 36.6667Z" fill="white"/>
<path d="M34.1617 28.7498C35.9773 25.8347 36.8425 22.4273 36.637 18.9992C36.4317 15.5709 35.166 12.2913 33.015 9.61385C32.1818 9.82035 31.6522 10.2892 30.797 11.0302C30.721 11.0885 30.6447 11.1573 30.5687 11.2367C29.2683 12.5147 27.5188 13.2324 25.6955 13.236C24.5828 13.236 23.718 13.0271 22.9673 12.6627C22.3235 12.3299 21.845 11.8926 21.5218 11.6011L21.449 11.5282C21.104 11.2172 20.8853 11.0399 20.5743 10.9038C20.0433 10.7002 19.476 10.6084 18.9078 10.6342C17.7198 10.6342 16.4931 11.1954 15.3464 12.0699C14.4096 12.7917 13.588 13.6518 12.9098 14.6207L10.308 12.8935C11.1732 11.6357 12.2308 10.5216 13.4418 9.59199C14.9882 8.32079 16.9075 7.5897 18.9078 7.51004C20.1152 7.51004 21.0627 7.6971 21.8547 8.05179C22.6467 8.40647 23.1762 8.88505 23.5503 9.21787C23.9463 9.58227 24.1333 9.73775 24.3837 9.87379C24.6143 9.98797 24.9788 10.1119 25.6955 10.1119C26.9465 10.1119 27.6317 9.63329 28.5062 8.86319L28.7783 8.63482C29.3548 8.09874 29.9832 7.62989 30.6635 7.22824C28.3607 5.30067 25.5803 4.03015 22.6158 3.55069C19.6512 3.07122 16.6121 3.40054 13.819 4.50392C11.026 5.60732 8.58236 7.44392 6.74588 9.82004C4.9094 12.1962 3.74806 15.0238 3.38435 18.0048C4.33933 17.6112 5.36138 17.4058 6.39431 17.4C8.03819 17.3677 9.63993 17.9213 10.9129 18.962L10.9542 18.9937C11.423 19.3265 11.7437 19.5572 12.1397 19.7225C12.5041 19.8778 12.973 20.0042 13.7018 20.0042C14.9213 20.0042 15.7108 19.4407 16.9085 18.515L16.9813 18.4518C18.128 17.5578 19.678 16.3602 22.0417 16.3602C23.9877 16.3602 25.9262 17.3708 27.413 18.3912C28.737 19.3095 29.9528 20.3747 31.0375 21.5663L28.6957 23.6483C27.7805 22.6397 26.7535 21.738 25.6347 20.9613C24.2792 20.0358 23.011 19.4843 22.0417 19.4843C20.8125 19.4843 20.023 20.0455 18.8252 20.9712L18.7523 21.0343C17.6057 21.9307 16.0558 23.1283 13.692 23.1283C12.577 23.1283 11.683 22.9195 10.9129 22.5963C10.1841 22.283 9.61076 21.8675 9.16376 21.5542L9.13218 21.5347C8.76428 21.2485 8.36586 21.0042 7.94423 20.806C7.44844 20.6055 6.91668 20.5095 6.38216 20.5242C5.18449 20.5242 4.13501 21.0148 3.33333 21.5857C3.63971 24.8717 4.92331 27.9905 7.01865 30.5403C7.57011 29.9573 8.22603 29.3427 8.94511 28.7693C10.3177 27.6567 12.1081 26.5318 13.9933 26.272C15.1909 26.0947 16.2015 26.272 17.0858 26.646C17.9288 27.0202 18.5847 27.562 19.0852 27.9992L19.1993 28.1037C20.2197 28.9782 20.6788 29.3742 21.5218 29.3742C22.4887 29.3742 23.1568 28.9272 24.1237 28.1572L24.3107 27.9992C25.1975 27.302 26.4972 26.2502 28.3093 26.2502C29.1112 26.2502 29.9225 26.4808 30.6318 26.7602C31.3607 27.042 32.0895 27.438 32.777 27.8437C33.2555 28.1353 33.7342 28.4487 34.1715 28.7597L34.1617 28.7498ZM32.2668 31.2472C31.9033 30.987 31.528 30.7438 31.142 30.5185C30.6125 30.1858 30.0548 29.9007 29.4755 29.6657C29.1043 29.4988 28.7058 29.4002 28.2997 29.3742C27.6438 29.3742 27.1748 29.7168 26.0817 30.5913C25.093 31.3833 23.6767 32.4983 21.5218 32.4983C19.4593 32.4983 18.1377 31.3323 17.2728 30.5622L17.0348 30.3532C16.5659 29.9475 16.2015 29.6755 15.825 29.52C15.3867 29.328 14.9017 29.2698 14.4306 29.3523C13.3908 29.5103 12.1397 30.2075 10.9007 31.1962C10.3117 31.687 9.74899 32.2083 9.21478 32.7583C12.2215 35.2837 16.0235 36.6662 19.95 36.6623C22.2667 36.6652 24.5585 36.1853 26.679 35.253C28.7998 34.3207 30.703 32.9563 32.2668 31.2472Z" fill="url(#paint0_linear_1_2)"/>
<defs>
<linearGradient id="paint0_linear_1_2" x1="19.95" y1="3.34614" x2="19.95" y2="36.6623" gradientUnits="userSpaceOnUse">
<stop stop-color="#90305C"/>
<stop offset="1" stop-color="#DF3C41"/>
</linearGradient>
</defs>
</svg>
