<svg xmlns="http://www.w3.org/2000/svg" width="24" height="24" fill="none" viewBox="0 0 24 24">
  <path fill="#FF8B00" fill-rule="evenodd" d="M24 12a12 12 0 1 1-24 0 12 12 0 0 1 24 0Z" clip-rule="evenodd"/>
  <path fill="#fff" d="M17.571 14.161a2.88 2.88 0 0 1-1.867 4.405 8.022 8.022 0 0 1-2.546.223l-.72 2.577-1.684-.385.732-2.433a19.648 19.648 0 0 1-1.36-.324l-.612 2.37-1.806-.446.672-2.48a17.179 17.179 0 0 1-2.592-1.15 7.695 7.695 0 0 1-1.084-.733l1.42-1.746a14.493 14.493 0 0 0 3.35 1.867c1.867.71 4.2.934 4.851-.06.651-.993-.264-1.846-2.07-2.77-1.806-.922-5.338-2.487-5.258-5.043.066-2.071 1.827-3.105 4.76-2.857l.7-2.543 1.624.467-.651 2.288c.464.095.92.222 1.367.38l.6-2.323 1.725.467-.718 2.467c1.029.352 2.002.847 2.892 1.47l-1.36 1.665a15.23 15.23 0 0 0-3.997-1.847c-2.111-.568-3.166-.141-3.37.365-.204.507-.12 1.461 1.745 2.477 1.866 1.016 4.161 2.049 5.257 3.652Z"/>
</svg>
