<svg xmlns="http://www.w3.org/2000/svg" width="16" height="16" viewBox="0 0 16 16">
  <g id="ic_sign_in_16" data-name="ic_sign in_16" transform="translate(-494.25 -372.25)">
    <rect id="Rectangle_486" data-name="Rectangle 486" width="16" height="16" transform="translate(494.25 372.25)" fill="rgba(255,255,255,0)"/>
    <g id="Group_334" data-name="Group 334" transform="translate(0 9)">
      <path id="Path_4416" data-name="Path 4416" d="M507.266,377.75h-5.532a1.486,1.486,0,0,1-1.484-1.484V374a.75.75,0,0,1,1.5,0v2.266l5.516-.016-.016-10.516-5.516.016.016,2.25a.75.75,0,0,1-1.5,0v-2.266a1.486,1.486,0,0,1,1.484-1.484h5.532a1.486,1.486,0,0,1,1.484,1.484v10.532A1.486,1.486,0,0,1,507.266,377.75Z" fill="#a0a3c4"/>
      <path id="Path_4417" data-name="Path 4417" d="M504,371.75h-8a.75.75,0,0,1,0-1.5h8a.75.75,0,0,1,0,1.5Z" fill="#a0a3c4"/>
      <path id="Path_4418" data-name="Path 4418" d="M503,373.75a.75.75,0,0,1-.53-1.28l1.469-1.47-1.469-1.47a.75.75,0,0,1,1.06-1.06l2,2a.749.749,0,0,1,0,1.06l-2,2A.744.744,0,0,1,503,373.75Z" fill="#a0a3c4"/>
    </g>
  </g>
</svg>
