<svg viewBox="0 0 16 16" fill="none" xmlns="http://www.w3.org/2000/svg">
<path d="M8.65997 1.77344C9.389 1.77344 9.98009 2.33025 9.98028 3.01758C9.98028 3.8043 10.8225 4.30485 11.5135 3.92871L11.5828 3.89062C12.2142 3.54695 13.0219 3.7506 13.3865 4.3457L14.0467 5.42383C14.4113 6.0192 14.1947 6.78126 13.5633 7.125C12.8725 7.50141 12.8725 8.49273 13.5633 8.86914C14.1947 9.21288 14.4113 9.97494 14.0467 10.5703L13.3865 11.6484C13.0219 12.2435 12.2142 12.4472 11.5828 12.1035L11.5135 12.0654C10.8225 11.6893 9.98028 12.1898 9.98028 12.9766C9.9801 13.6639 9.389 14.2207 8.65997 14.2207H7.33966C6.6107 14.2206 6.01953 13.6638 6.01934 12.9766C6.01934 12.1899 5.17805 11.6895 4.48712 12.0654L4.41681 12.1035C3.78542 12.4472 2.97773 12.2436 2.61309 11.6484L1.95294 10.5703C1.58836 9.97494 1.80488 9.21288 2.43634 8.86914C3.12736 8.49278 3.12736 7.50136 2.43634 7.125C1.80488 6.78126 1.58836 6.0192 1.95294 5.42383L2.61309 4.3457C2.97773 3.7505 3.78542 3.54693 4.41681 3.89062L4.48712 3.92871C5.17805 4.30462 6.01934 3.80421 6.01934 3.01758C6.01953 2.3303 6.6107 1.77352 7.33966 1.77344H8.65997ZM7.99981 5.66309C6.71079 5.66309 5.66583 6.70805 5.66583 7.99707C5.66593 9.28601 6.71085 10.3311 7.99981 10.3311C9.28875 10.331 10.3337 9.28599 10.3338 7.99707C10.3338 6.70807 9.28881 5.66312 7.99981 5.66309Z" fill="currentColor"/>
</svg>
