<svg xmlns="http://www.w3.org/2000/svg" width="20" height="20" fill="currentColor" viewBox="0 0 20 20">
  <path fill-rule="evenodd" d="M2.917 7.973v4.054c0 1.911 0 2.867.601 3.46.546.54 1.395.59 2.997.594a5.988 5.988 0 0 1-.012-.088c-.096-.703-.096-1.596-.096-2.705v-.045c0-.336.276-.608.616-.608.34 0 .616.272.616.608 0 1.164.001 1.976.085 2.588.08.595.229.91.456 1.135.227.224.547.37 1.15.45.62.083 1.442.084 2.62.084h.822c1.179 0 2-.001 2.621-.084.603-.08.922-.226 1.15-.45.227-.225.375-.54.456-1.135.083-.612.084-1.424.084-2.588V6.757c0-1.164 0-1.976-.084-2.588-.081-.595-.23-.91-.457-1.135-.227-.224-.546-.37-1.149-.45-.62-.083-1.442-.084-2.621-.084h-.821c-1.18 0-2.001.001-2.622.084-.602.08-.922.226-1.149.45-.227.225-.375.54-.456 1.135-.084.612-.085 1.424-.085 2.588a.612.612 0 0 1-.616.608.612.612 0 0 1-.616-.608v-.045c0-1.109 0-2.002.096-2.705a6.05 6.05 0 0 1 .012-.088c-1.602.005-2.45.054-2.997.594-.601.593-.601 1.549-.601 3.46Zm8.237 4.484 2.053-2.027a.603.603 0 0 0 0-.86l-2.053-2.027a.622.622 0 0 0-.87 0 .603.603 0 0 0 0 .86l1 .989H5.382a.612.612 0 0 0-.616.608c0 .336.275.608.616.608h5.904l-1.002.989a.603.603 0 0 0 0 .86c.24.237.63.237.871 0Z" clip-rule="evenodd"/>
</svg>
