<svg xmlns="http://www.w3.org/2000/svg" width="24" height="24"><defs><linearGradient id="a" y1=".5" x2="1" y2=".5" gradientUnits="objectBoundingBox"><stop offset="0" stop-color="#03d1cf"/><stop offset="1" stop-color="#4e09f8"/></linearGradient><filter id="b" x="2.831" y="4.665" width="17.981" height="15.271" filterUnits="userSpaceOnUse"><feOffset dy="1"/><feGaussianBlur result="blur"/><feFlood flood-opacity=".2"/><feComposite operator="in" in2="blur"/><feComposite in="SourceGraphic"/></filter></defs><g transform="translate(-141.912 -3127.912)"><circle data-name="Ellipse 142" cx="12" cy="12" r="12" transform="translate(141.912 3127.912)" fill="url(#a)"/><g transform="translate(141.91 3127.91)" filter="url(#b)"><path data-name="Union 20" d="m6.815 18.709-3.764-3.795a.763.763 0 0 1 0-1.073l3.764-3.794a.748.748 0 0 1 .821-.164.759.759 0 0 1 .465.7v1.759a.516.516 0 0 0 .514.518h4a.756.756 0 0 1 .753.759v1.518a.756.756 0 0 1-.753.759H8.784a.686.686 0 0 0-.683.689v1.588a.76.76 0 0 1-.465.7.75.75 0 0 1-.821-.164Zm9.19-5a.759.759 0 0 1-.465-.7v-1.59a.685.685 0 0 0-.683-.688h-3.835a.756.756 0 0 1-.753-.759V8.454a.755.755 0 0 1 .753-.759h4a.516.516 0 0 0 .514-.518V5.419a.76.76 0 0 1 .465-.7.75.75 0 0 1 .829.163l3.765 3.794a.763.763 0 0 1 0 1.073l-3.765 3.795a.748.748 0 0 1-.821.164Z" fill="#fff"/></g></g></svg>