<svg xmlns="http://www.w3.org/2000/svg" width="24" height="24" viewBox="0 0 24 24">
  <g id="ic_settings_16" transform="translate(-494.25 -372.25)">
    <rect id="Rectangle_486" data-name="Rectangle 486" width="24" height="24" transform="translate(494.25 372.25)" fill="rgba(255,255,255,0)"/>
    <path id="Path_4419" data-name="Path 4419" d="M13.573.71a1.019,1.019,0,0,0-.507-.877l-1.35-.778q.04-.4.04-.8t-.04-.8l1.35-.778a1.019,1.019,0,0,0,.507-.877c0-.872-2.023-5.257-3.467-5.257A1,1,0,0,0,9.6-9.33l-1.345.778a8,8,0,0,0-1.4-.81v-1.556a1.009,1.009,0,0,0-.752-.979A10.525,10.525,0,0,0,3.4-12.25,10.569,10.569,0,0,0,.686-11.9a1.009,1.009,0,0,0-.752.979v1.556a8,8,0,0,0-1.4.81L-2.807-9.33a1,1,0,0,0-.507-.138h0c-1.332,0-3.466,4.173-3.466,5.257a1.019,1.019,0,0,0,.507.877l1.35.778q-.04.4-.04.8t.04.8l-1.35.778A1.019,1.019,0,0,0-6.781.71c0,.872,2.023,5.257,3.467,5.257a1,1,0,0,0,.507-.138l1.345-.778a8,8,0,0,0,1.4.81V7.417A1.009,1.009,0,0,0,.686,8.4a10.525,10.525,0,0,0,2.708.353A10.569,10.569,0,0,0,6.106,8.4a1.009,1.009,0,0,0,.752-.979V5.861a8,8,0,0,0,1.4-.81L9.6,5.83a1,1,0,0,0,.507.138C11.438,5.967,13.573,1.795,13.573.71ZM9.927,3.744,8.136,2.708A11.1,11.1,0,0,1,4.889,4.59V6.651a8.62,8.62,0,0,1-1.495.13A8.571,8.571,0,0,1,1.9,6.651V4.59A11.09,11.09,0,0,1-1.344,2.708l-1.79,1.036A8.506,8.506,0,0,1-4.627,1.156L-2.84.125C-2.944-.926-3-1.337-3-1.748s.052-.824.156-1.877L-4.628-4.656A8.494,8.494,0,0,1-3.135-7.244l1.791,1.036A11.1,11.1,0,0,1,1.9-8.09v-2.061a8.62,8.62,0,0,1,1.495-.13,8.571,8.571,0,0,1,1.491.13V-8.09A11.09,11.09,0,0,1,8.136-6.208l1.79-1.036a8.508,8.508,0,0,1,1.493,2.588L9.632-3.625c.1,1.052.156,1.462.156,1.874S9.737-.928,9.632.125L11.42,1.156A8.494,8.494,0,0,1,9.927,3.744ZM3.4-5.687A3.945,3.945,0,0,0-.541-1.75,3.945,3.945,0,0,0,3.4,2.188,3.945,3.945,0,0,0,7.334-1.75,3.945,3.945,0,0,0,3.4-5.687ZM3.4.219A1.971,1.971,0,0,1,1.427-1.75,1.971,1.971,0,0,1,3.4-3.719,1.971,1.971,0,0,1,5.365-1.75,1.971,1.971,0,0,1,3.4.219Z" transform="translate(502.859 385.625)" fill="#a0a3c4"/>
  </g>
</svg>
