<svg xmlns="http://www.w3.org/2000/svg" width="16" height="16" viewBox="0 0 16 16">
  <g id="ic_settings_16" transform="translate(-494.25 -372.25)">
    <rect id="Rectangle_486" data-name="Rectangle 486" width="16" height="16" transform="translate(494.25 372.25)" fill="rgba(255,255,255,0)"/>
    <path id="Path_4419" data-name="Path 4419" d="M6.788-3.61a.68.68,0,0,0-.338-.585l-.9-.519q.026-.267.026-.536t-.026-.536l.9-.519a.68.68,0,0,0,.338-.585c0-.582-1.349-3.5-2.311-3.5a.666.666,0,0,0-.338.092l-.9.519a5.333,5.333,0,0,0-.932-.54v-1.037a.673.673,0,0,0-.5-.653A7.016,7.016,0,0,0,0-12.25a7.046,7.046,0,0,0-1.808.236.673.673,0,0,0-.5.653v1.037a5.333,5.333,0,0,0-.932.54l-.9-.519a.666.666,0,0,0-.338-.092h0c-.888,0-2.311,2.782-2.311,3.5a.68.68,0,0,0,.338.585l.9.519q-.026.267-.026.536t.026.536l-.9.519a.68.68,0,0,0-.338.585c0,.582,1.349,3.5,2.311,3.5A.666.666,0,0,0-4.132-.2l.9-.519a5.333,5.333,0,0,0,.932.54V.862a.673.673,0,0,0,.5.653A7.017,7.017,0,0,0,0,1.75,7.046,7.046,0,0,0,1.81,1.514a.673.673,0,0,0,.5-.653V-.176a5.333,5.333,0,0,0,.932-.54l.9.519a.666.666,0,0,0,.338.092C5.365-.105,6.788-2.887,6.788-3.61ZM4.358-1.587,3.164-2.278A7.4,7.4,0,0,1,1-1.023V.351A5.746,5.746,0,0,1,0,.438,5.714,5.714,0,0,1-.992.351V-1.023A7.393,7.393,0,0,1-3.157-2.278l-1.193.691a5.671,5.671,0,0,1-1-1.726L-4.154-4c-.069-.7-.1-.975-.1-1.249s.035-.549.1-1.251l-1.192-.687a5.663,5.663,0,0,1,1-1.726l1.194.691A7.4,7.4,0,0,1-.992-9.477v-1.374a5.747,5.747,0,0,1,1-.087A5.714,5.714,0,0,1,1-10.851v1.374A7.393,7.393,0,0,1,3.164-8.222l1.193-.691a5.672,5.672,0,0,1,1,1.726L4.161-6.5c.069.7.1.975.1,1.249S4.231-4.7,4.161-4l1.192.687A5.663,5.663,0,0,1,4.358-1.587ZM0-7.875A2.63,2.63,0,0,0-2.621-5.25,2.63,2.63,0,0,0,0-2.625,2.63,2.63,0,0,0,2.629-5.25,2.63,2.63,0,0,0,0-7.875ZM0-3.937A1.314,1.314,0,0,1-1.309-5.25,1.314,1.314,0,0,1,0-6.562,1.314,1.314,0,0,1,1.316-5.25,1.314,1.314,0,0,1,0-3.937Z" transform="translate(502.25 385.25)" fill="#a0a3c4"/>
  </g>
</svg>
