<svg width="24" height="24" viewBox="0 0 24 24" fill="none" xmlns="http://www.w3.org/2000/svg">
<g clip-path="url(#clip0_0_12)">
<path fill-rule="evenodd" clip-rule="evenodd" d="M24 12C24 14.3734 23.2962 16.6935 21.9776 18.6668C20.6591 20.6402 18.7849 22.1783 16.5922 23.0866C14.3995 23.9948 11.9867 24.2324 9.65892 23.7694C7.33115 23.3064 5.19295 22.1635 3.51472 20.4853C1.83649 18.8071 0.693605 16.6689 0.230582 14.3411C-0.232441 12.0133 0.00519941 9.60051 0.913451 7.4078C1.8217 5.21509 3.35977 3.34094 5.33316 2.02236C7.30655 0.703788 9.62663 0 12 0C15.1826 0 18.2348 1.26428 20.4853 3.51472C22.7357 5.76516 24 8.8174 24 12Z" fill="#EC6230"/>
<path d="M5.8248 12.7674V14.3982H9.7734L7.0248 18.7146H9.0702L12.2994 13.6464L15.5286 18.7146H17.5752L14.8248 14.3982H18.7734V12.7674H5.8248ZM15.561 5.28545L12.2994 10.4334L9.0384 5.28545H6.9756L9.6936 9.55385H5.8248V11.2008L18.7746 11.1846V9.55385H14.9058L17.6232 5.28545H15.561Z" fill="white"/>
</g>
<defs>
<clipPath id="clip0_0_12">
<rect width="24" height="24" fill="white"/>
</clipPath>
</defs>
</svg>
