<svg width="20" height="20" viewBox="0 0 20 20" fill="none" xmlns="http://www.w3.org/2000/svg">
  <path
    d="M9.99967 2.16699C11.978 2.16699 13.412 2.1684 14.5055 2.31543C15.5846 2.46053 16.2577 2.73944 16.7594 3.24121C17.2611 3.743 17.5401 4.41604 17.6852 5.49512C17.8322 6.58862 17.8337 8.02193 17.8337 10C17.8337 11.9783 17.8322 13.4123 17.6852 14.5059C17.5401 15.5849 17.2612 16.258 16.7594 16.7598C16.2577 17.2615 15.5846 17.5404 14.5055 17.6855C13.412 17.8326 11.978 17.834 9.99967 17.834C8.0216 17.834 6.58829 17.8325 5.49479 17.6855C4.41571 17.5405 3.74268 17.2615 3.24088 16.7598C2.73911 16.258 2.4602 15.5849 2.3151 14.5059C2.16807 13.4123 2.16666 11.9783 2.16666 10C2.16666 8.0219 2.16809 6.58863 2.3151 5.49512C2.4602 4.41592 2.73907 3.74302 3.24088 3.24121C3.74269 2.7394 4.41559 2.46052 5.49479 2.31543C6.5883 2.16842 8.02157 2.16699 9.99967 2.16699Z"
    stroke="currentColor" stroke-linecap="round" stroke-linejoin="round" />
  <path
    d="M5.83334 11.6663L7.33074 9.86945C7.92412 9.15741 8.2208 8.80138 8.61111 8.80138C9.00143 8.80138 9.29811 9.15741 9.89148 9.86945L10.1085 10.1299C10.7019 10.8419 10.9986 11.198 11.3889 11.198C11.7792 11.198 12.0759 10.8419 12.6693 10.1299L14.1667 8.33301"
    stroke="currentColor" stroke-linecap="round" stroke-linejoin="round" />
</svg>
  
