<svg viewBox="0 0 14 14" fill="none" xmlns="http://www.w3.org/2000/svg">
  <path
    d="M5.81969 1.76285C6.3025 0.745719 7.6975 0.745717 8.18031 1.76285L9.01474 3.52071C9.20646 3.92461 9.57707 4.20456 10.0058 4.26933L11.8716 4.55122C12.9512 4.71432 13.3823 6.09373 12.6011 6.88545L11.251 8.25375C10.9407 8.56815 10.7992 9.02112 10.8724 9.46505L11.1911 11.3971C11.3755 12.5151 10.247 13.3676 9.28134 12.8398L7.6125 11.9276C7.22905 11.718 6.77095 11.718 6.3875 11.9276L4.71866 12.8398C3.75304 13.3676 2.62445 12.5151 2.80887 11.3971L3.12759 9.46505C3.20083 9.02112 3.05927 8.56815 2.74905 8.25375L1.39893 6.88545C0.61772 6.09373 1.0488 4.71432 2.1284 4.55122L3.99422 4.26933C4.42293 4.20456 4.79354 3.92461 4.98526 3.52071L5.81969 1.76285Z"
    stroke="currentColor"
  />
</svg>
