<svg xmlns="http://www.w3.org/2000/svg" fill="none" viewBox="0.17 0.67 13.67 13.67"><path fill="#7885FF" d="M13.834 7.5c0-.953-.587-1.78-1.46-2.226.306-.927.133-1.934-.54-2.607-.674-.673-1.68-.847-2.607-.54C8.787 1.254 7.954.667 7 .667c-.953 0-1.78.587-2.22 1.46-.933-.307-1.94-.133-2.613.54s-.84 1.68-.533 2.607C.76 5.72.167 6.547.167 7.5c0 .954.593 1.78 1.467 2.227-.307.927-.14 1.933.533 2.607.673.673 1.68.84 2.607.54.446.873 1.273 1.46 2.226 1.46.954 0 1.787-.587 2.227-1.46.927.3 1.933.133 2.607-.54.673-.674.846-1.68.54-2.607.873-.447 1.46-1.273 1.46-2.227Zm-7.807 2.8L3.534 7.807l.94-.947L5.98 8.367l3.2-3.487.98.907L6.027 10.3Z"/></svg>
