<svg xmlns="http://www.w3.org/2000/svg" width="40" height="40" fill="none" viewBox="0 0 40 40">
  <g clip-path="url(#a)">
    <path fill="#fff" d="M20 40c11.046 0 20-8.954 20-20S31.046 0 20 0 0 8.954 0 20s8.954 20 20 20Z"/>
    <path fill="#000" d="M34.142 5.858A19.869 19.869 0 0 0 20 0 19.869 19.869 0 0 0 5.858 5.858 19.869 19.869 0 0 0 0 20c0 5.342 2.08 10.365 5.858 14.142A19.87 19.87 0 0 0 20 40c5.342 0 10.365-2.08 14.142-5.858A19.869 19.869 0 0 0 40 20c0-5.342-2.08-10.365-5.858-14.142Zm2.49 11.964a30.583 30.583 0 0 1-8.246-2.352c-2.804-1.237-5.543-2.908-8.14-4.966-3.1-2.459-5.262-4.895-6.29-6.15A16.688 16.688 0 0 1 20 3.226c8.51 0 15.561 6.372 16.632 14.596ZM11.258 34.31a16.872 16.872 0 0 1-2.336-1.727c3.16-3.08 6.76-4.855 9.33-5.824a29.809 29.809 0 0 1 2.176-.725c-4.143 2.73-7.662 6.534-9.17 8.276Zm-4.944-4.623a16.677 16.677 0 0 1-2.996-7.937h17.319c-9.403 2.907-12.981 6.18-14.323 7.937Zm-.107-19.22c2.261 2.303 5.738 4.487 10.357 6.501 1.496.653 2.9 1.192 4.059 1.606H3.288a16.671 16.671 0 0 1 2.92-8.108Zm4.753-4.59c2.759 3.893 6.253 6.978 8.6 8.819-4.622-1.646-7.355-3.371-8.896-4.619-1.194-.966-1.842-1.775-2.17-2.27a16.886 16.886 0 0 1 2.466-1.93ZM20 36.773a16.72 16.72 0 0 1-5.76-1.018 39.652 39.652 0 0 1 7.758-6.848 38.439 38.439 0 0 1 8.358-4.23 36.626 36.626 0 0 1 6.14-1.631c-1.437 7.8-8.287 13.727-16.496 13.727Z"/>
  </g>
  <defs>
    <clipPath id="a">
      <path fill="#fff" d="M0 0h40v40H0z"/>
    </clipPath>
  </defs>
</svg>
