<svg width="16" height="16" viewBox="0 0 16 16" fill="none" xmlns="http://www.w3.org/2000/svg">
<path d="M11.9814 10.2021L13.0113 7.11248C13.9109 4.41345 14.3608 3.06393 13.6484 2.35157C12.9361 1.63921 11.5866 2.08905 8.88752 2.98873L5.79792 4.01859C3.61954 4.74472 2.53035 5.10778 2.22084 5.64019C1.92639 6.14667 1.92639 6.77221 2.22083 7.2787C2.53035 7.81111 3.61954 8.17417 5.79792 8.9003C6.06789 8.99029 6.3716 8.92603 6.57376 8.72575L9.87714 5.45297C10.063 5.26885 10.3629 5.27025 10.547 5.45609C10.7311 5.64193 10.7298 5.94185 10.5439 6.12597L7.29387 9.3459C7.07105 9.56665 7.00052 9.90452 7.09971 10.2021C7.82582 12.3804 8.18889 13.4696 8.7213 13.7792C9.22778 14.0736 9.85332 14.0736 10.3598 13.7792C10.8922 13.4696 11.2553 12.3805 11.9814 10.2021Z" fill="currentColor"/>
</svg>
