<svg width="20" height="20" viewBox="0 0 20 20" fill="none" xmlns="http://www.w3.org/2000/svg">
<g id="exit">
<path id="Union" fill-rule="evenodd" clip-rule="evenodd" d="M16.1608 14.5004C16.1608 15.9363 14.9967 17.1004 13.5608 17.1004L10.5608 17.1004C9.12481 17.1004 7.96076 15.9363 7.96076 14.5004V13.0004C7.96076 12.669 8.22938 12.4004 8.56076 12.4004C8.89213 12.4004 9.16076 12.669 9.16076 13.0004V14.5004C9.16076 15.2736 9.78756 15.9004 10.5608 15.9004H13.5608C14.334 15.9004 14.9608 15.2736 14.9608 14.5004L14.9608 5.50039C14.9608 4.72719 14.334 4.10039 13.5608 4.10039L10.5606 4.10039C9.78746 4.10039 9.16067 4.72713 9.16062 5.50029L9.16051 7.00043C9.16049 7.3318 8.89184 7.60041 8.56047 7.60039C8.2291 7.60037 7.96049 7.33172 7.96051 7.00035L7.96062 5.50021C7.96072 4.06434 9.12475 2.90039 10.5606 2.90039L13.5608 2.90039C14.9967 2.90039 16.1608 4.06445 16.1608 5.50039V14.5004ZM12.5605 10.6004C12.8918 10.6004 13.1605 10.3318 13.1605 10.0004C13.1605 9.66902 12.8918 9.40039 12.5605 9.40039L4.50909 9.40039L5.98495 7.92468C6.21928 7.69037 6.2193 7.31047 5.98499 7.07615C5.75069 6.84182 5.37079 6.8418 5.13646 7.07611L2.63622 9.57611L2.21191 10.0004L2.6362 10.4247L5.1362 12.9247C5.37051 13.159 5.75041 13.159 5.98473 12.9247C6.21904 12.6903 6.21904 12.3104 5.98473 12.0761L4.50899 10.6004H12.5605Z" fill="#9EA4C2"/>
</g>
</svg>
