<svg xmlns="http://www.w3.org/2000/svg" width="24" height="24" fill="none"><circle cx="12" cy="12" r="12" fill="#373D62"/><circle cx="12" cy="12" r="12" fill="#000" fill-opacity=".2"/><path fill="#A9B3DB" d="M14.182 9.555c-.037-.455-.207-.81-.511-1.064-.3-.255-.757-.382-1.371-.382-.39 0-.711.048-.961.143-.246.091-.428.216-.546.375a.927.927 0 0 0-.184.546c-.009.168.02.32.089.457.072.131.186.252.34.36.155.105.353.2.594.287.24.087.527.164.859.232l1.145.245c.773.164 1.434.38 1.985.648.55.269 1 .584 1.35.948.35.36.606.764.77 1.214.168.45.255.94.259 1.472-.005.918-.234 1.696-.689 2.332-.454.637-1.104 1.12-1.95 1.453-.84.331-1.852.497-3.034.497-1.213 0-2.272-.18-3.177-.539-.9-.358-1.6-.91-2.1-1.656-.495-.75-.745-1.71-.75-2.878h3.6c.023.428.13.787.32 1.078.191.29.46.511.805.661.35.15.766.225 1.248.225.404 0 .743-.05 1.016-.15.272-.1.48-.239.62-.416a.982.982 0 0 0 .218-.607.862.862 0 0 0-.211-.559c-.132-.163-.35-.309-.655-.436-.304-.132-.715-.255-1.234-.368l-1.39-.3c-1.237-.268-2.212-.716-2.926-1.343-.709-.632-1.061-1.494-1.056-2.585-.005-.886.231-1.66.709-2.325.482-.668 1.147-1.188 1.997-1.56.855-.374 1.834-.56 2.939-.56 1.127 0 2.102.189 2.925.566.823.377 1.457.909 1.902 1.595.45.682.678 1.48.682 2.394h-3.627Z"/></svg>