<svg width="16" height="16" viewBox="0 0 16 16" fill="none" xmlns="http://www.w3.org/2000/svg">
<path d="M14.2195 10.6458L13.793 10.3847H13.793L14.2195 10.6458ZM13.5407 11.7543L13.9671 12.0155V12.0155L13.5407 11.7543ZM1.78367 5.35435L1.35726 5.09324H1.35726L1.78367 5.35435ZM2.46246 4.24584L2.88887 4.50694V4.50694L2.46246 4.24584ZM4.31695 3.77732L4.55601 3.33817L4.55601 3.33817L4.31695 3.77732ZM2.28058 7.10286L2.04153 7.54201H2.04153L2.28058 7.10286ZM11.6862 12.2229L11.4471 12.662H11.4471L11.6862 12.2229ZM13.7225 8.89732L13.4835 9.33647V9.33647L13.7225 8.89732ZM2.46246 11.7544L2.03605 12.0155H2.03605L2.46246 11.7544ZM1.78367 10.6458L2.21008 10.3847H2.21008L1.78367 10.6458ZM13.5407 4.24585L13.9671 3.98474V3.98474L13.5407 4.24585ZM14.2195 5.35436L13.793 5.61547L13.793 5.61547L14.2195 5.35436ZM13.7225 7.10287L13.9616 7.54202H13.9616L13.7225 7.10287ZM11.6862 3.77733L11.9252 4.21648V4.21648L11.6862 3.77733ZM2.28058 8.89733L2.51963 9.33648H2.51963L2.28058 8.89733ZM4.31695 12.2229L4.0779 11.7837L4.0779 11.7837L4.31695 12.2229ZM11.614 3.81661L11.375 3.37746L11.375 3.37746L11.614 3.81661ZM4.38912 3.81661L4.15006 4.25576L4.15006 4.25576L4.38912 3.81661ZM11.614 12.1836L11.8531 11.7444H11.8531L11.614 12.1836ZM4.38912 12.1836L4.62817 12.6227L4.62817 12.6227L4.38912 12.1836ZM7.32277 1.6001V2.1001H8.68035V1.6001V1.1001H7.32277V1.6001ZM8.68035 14.4001V13.9001H7.32277V14.4001V14.9001H8.68035V14.4001ZM7.32277 14.4001V13.9001C6.82102 13.9001 6.46519 13.5236 6.46519 13.1201H5.96519H5.46519C5.46519 14.1305 6.32499 14.9001 7.32277 14.9001V14.4001ZM10.0379 13.1201H9.53793C9.53793 13.5236 9.18211 13.9001 8.68035 13.9001V14.4001V14.9001C9.67814 14.9001 10.5379 14.1305 10.5379 13.1201H10.0379ZM8.68035 1.6001V2.1001C9.18211 2.1001 9.53793 2.47663 9.53793 2.8801H10.0379H10.5379C10.5379 1.86972 9.67814 1.1001 8.68035 1.1001V1.6001ZM7.32277 1.6001V1.1001C6.32499 1.1001 5.46519 1.86972 5.46519 2.8801H5.96519H6.46519C6.46519 2.47663 6.82102 2.1001 7.32277 2.1001V1.6001ZM14.2195 10.6458L13.793 10.3847L13.1143 11.4932L13.5407 11.7543L13.9671 12.0155L14.6459 10.9069L14.2195 10.6458ZM1.78367 5.35435L2.21008 5.61546L2.88887 4.50694L2.46246 4.24584L2.03605 3.98473L1.35726 5.09324L1.78367 5.35435ZM2.46246 4.24584L2.88887 4.50694C3.11806 4.13266 3.65106 3.98412 4.0779 4.21647L4.31695 3.77732L4.55601 3.33817C3.6842 2.8636 2.55664 3.13458 2.03605 3.98473L2.46246 4.24584ZM2.28058 7.10286L2.51964 6.66371C2.10839 6.43985 1.99238 5.97097 2.21008 5.61546L1.78367 5.35435L1.35726 5.09324C0.825193 5.96215 1.15413 7.05895 2.04153 7.54201L2.28058 7.10286ZM13.5407 11.7543L13.1143 11.4932C12.8851 11.8675 12.3521 12.0161 11.9252 11.7837L11.6862 12.2229L11.4471 12.662C12.3189 13.1366 13.4465 12.8656 13.9671 12.0155L13.5407 11.7543ZM14.2195 10.6458L14.6459 10.9069C15.1779 10.038 14.849 8.94124 13.9616 8.45817L13.7225 8.89732L13.4835 9.33647C13.8947 9.56034 14.0107 10.0292 13.793 10.3847L14.2195 10.6458ZM2.46246 11.7544L2.88887 11.4933L2.21008 10.3847L1.78367 10.6458L1.35726 10.907L2.03605 12.0155L2.46246 11.7544ZM13.5407 4.24585L13.1143 4.50695L13.793 5.61547L14.2195 5.35436L14.6459 5.09325L13.9671 3.98474L13.5407 4.24585ZM14.2195 5.35436L13.793 5.61547C14.0107 5.97098 13.8947 6.43986 13.4835 6.66372L13.7225 7.10287L13.9616 7.54202C14.849 7.05896 15.1779 5.96216 14.6459 5.09325L14.2195 5.35436ZM11.6862 3.77733L11.9252 4.21648C12.3521 3.98413 12.8851 4.13267 13.1143 4.50695L13.5407 4.24585L13.9671 3.98474C13.4465 3.13459 12.3189 2.86361 11.4471 3.33818L11.6862 3.77733ZM1.78367 10.6458L2.21008 10.3847C1.99238 10.0292 2.10839 9.56035 2.51963 9.33648L2.28058 8.89733L2.04153 8.45818C1.15413 8.94125 0.825192 10.038 1.35726 10.907L1.78367 10.6458ZM2.46246 11.7544L2.03605 12.0155C2.55664 12.8656 3.6842 13.1366 4.55601 12.662L4.31695 12.2229L4.0779 11.7837C3.65106 12.0161 3.11806 11.8675 2.88887 11.4933L2.46246 11.7544ZM11.614 3.81661L11.8531 4.25576L11.9252 4.21648L11.6862 3.77733L11.4471 3.33818L11.375 3.37746L11.614 3.81661ZM4.31695 3.77732L4.0779 4.21647L4.15006 4.25576L4.38912 3.81661L4.62817 3.37746L4.55601 3.33817L4.31695 3.77732ZM11.6862 12.2229L11.9252 11.7837L11.8531 11.7444L11.614 12.1836L11.375 12.6227L11.4471 12.662L11.6862 12.2229ZM4.38912 12.1836L4.15007 11.7444L4.0779 11.7837L4.31695 12.2229L4.556 12.662L4.62817 12.6227L4.38912 12.1836ZM2.28058 7.10286L2.04153 7.54201C2.40445 7.73957 2.40445 8.26062 2.04153 8.45818L2.28058 8.89733L2.51963 9.33648C3.57842 8.76013 3.57842 7.24007 2.51964 6.66371L2.28058 7.10286ZM4.38912 12.1836L4.62817 12.6227C5.00551 12.4173 5.46519 12.6905 5.46519 13.1201H5.96519H6.46519C6.46519 11.9318 5.19376 11.1763 4.15006 11.7444L4.38912 12.1836ZM10.0379 13.1201H10.5379C10.5379 12.6905 10.9976 12.4173 11.375 12.6227L11.614 12.1836L11.8531 11.7444C10.8094 11.1763 9.53793 11.9318 9.53793 13.1201H10.0379ZM13.7225 8.89732L13.9616 8.45817C13.5987 8.26061 13.5987 7.73958 13.9616 7.54202L13.7225 7.10287L13.4835 6.66372C12.4247 7.24007 12.4247 8.76012 13.4835 9.33647L13.7225 8.89732ZM4.38912 3.81661L4.15006 4.25576C5.19376 4.8239 6.46519 4.06841 6.46519 2.8801H5.96519H5.46519C5.46519 3.30972 5.00551 3.58287 4.62817 3.37746L4.38912 3.81661ZM11.614 3.81661L11.375 3.37746C10.9976 3.58287 10.5379 3.30973 10.5379 2.8801H10.0379H9.53793C9.53793 4.06841 10.8094 4.82391 11.8531 4.25576L11.614 3.81661ZM10.1349 8.0001H9.6349C9.6349 8.90216 8.90363 9.63343 8.00157 9.63343V10.1334V10.6334C9.45592 10.6334 10.6349 9.45445 10.6349 8.0001H10.1349ZM8.00157 10.1334V9.63343C7.0995 9.63343 6.36824 8.90216 6.36824 8.0001H5.86824H5.36824C5.36824 9.45445 6.54722 10.6334 8.00157 10.6334V10.1334ZM5.86824 8.0001H6.36824C6.36824 7.09803 7.0995 6.36676 8.00157 6.36676V5.86676V5.36676C6.54722 5.36676 5.36824 6.54575 5.36824 8.0001H5.86824ZM8.00157 5.86676V6.36676C8.90363 6.36676 9.6349 7.09803 9.6349 8.0001H10.1349H10.6349C10.6349 6.54575 9.45592 5.36676 8.00157 5.36676V5.86676Z" fill="currentColor"/>
</svg>
