<?xml version="1.0" encoding="UTF-8"?>
<svg id="Layer_2" xmlns="http://www.w3.org/2000/svg" viewBox="0 0 875.36 875.41" width="24" height="24">
  <defs>
    <style>.cls-1{fill:#262626;}.cls-2{fill:#fed866;}</style>
  </defs>
  <g id="NAtive">
    <path class="cls-2"
      d="M459.58,0l37.44,3.75c191.9,26.12,345.34,177.82,373.62,369.37l4.5,42.54c-.49,14.51.67,29.27,0,43.75-9.69,210.76-174.76,387.52-383.86,412.73C183.63,909.23-64.7,624.65,15.07,324.35,63.04,143.75,226.68,8.63,414.38,0h45.2Z" />
    <path class="cls-1"
      d="M467.58,164.1l-18.94,78,38.62,8,18.27-75.8,47.39,11.27.76,1.49-18.94,77.2c8.88,4.39,18.76,7.32,27.91,11.5,47.87,21.83,79.5,54.36,65.87,110.89-7.41,30.75-27.87,52.07-58.85,59.28,27.15,13.33,49.41,36.21,51.76,67.83,1.71,22.93-7.38,53.16-19.09,72.77-30.98,51.9-87.92,51.26-141.54,43.41-2.56-.37-15.6-3.2-16.57-2.49l-20.03,79.2-47.73-11.69,18.91-78.29-.66-.84-37.11-9.02-19.72,77.64-46.2-10.77-1.17-1.05c5.17-26.73,13.8-52.97,18.88-79.74l-95.47-23.37-.04-1.79,22.69-53.55c10.63,1.52,20.77,5.55,31.27,7.6,11.34,2.21,20.07,2.65,25.43-9.58l54.69-219.32c0-28.26-37.84-28.17-57.52-33.99l12.46-50.97,96.48,23.19,20.1-78.69,48.09,11.7ZM412.25,394.46c29.75,7.15,73.4,20.94,102.5,6.74,21.54-10.51,29.17-40.81,15.85-60.59-18.03-26.77-65.03-35.5-94.61-41.57l-23.74,95.41ZM373.61,548.32c15.43,4,30.88,8.46,46.58,11.39,31.28,5.85,85.49,12.31,99.19-25.53,13.2-36.48-16.46-58.35-45.97-70.73-23.45-9.83-48.57-14.75-73.19-20.73l-26.61,105.6Z" />
  </g>
  <g id="Layer_3">
    <path class="cls-1"
      d="M212.95,128.09l32.14,155.65c1.9,6.11,3.76,12.44,7.76,17.56,6.71,8.6,14.13,8.9,23.99,11.47,9.25,2.41,18.68,4.45,28.06,6.31l-11.55,51.36c-15.52-4.11-31.65-6.59-47.02-11.22-36.32-10.93-45.67-33.02-53.91-67.66-12.04-50.6-19.84-102.99-29.3-154.16l49.84-9.31Z" />
    <path class="cls-1"
      d="M281.78,414.59l-12.33,50.63-47.45-10.03c-12.26,0-31.13,25.74-38.6,35.05-27.36,34.12-52.44,70.13-78.89,104.94l-1.06.36-40.08-29.79.26-2.07,103.13-134.23c10.55-11.84,23.53-20.85,39.18-24.5,26.33-6.14,50.2,5.58,75.85,9.65Z" />
    <path class="cls-1"
      d="M774.25,260.51l39.32,29.25c1.4,1.12.5,2.75-.4,3.92-34.84,42.18-65.71,88.99-100.6,130.96-16.23,19.52-36.93,30.08-62.9,28.33-2.36-.16-13.31-1.71-14.82-2.55-1.33-.74-.14-1.17.37-1.82,8.72-11.04,15.96-19.61,21.16-33.11,1.23-3.18,3.88-14.12,5.22-15.77.96-1.18,5.76-3.72,7.65-5.38,3.81-3.36,7.05-7.47,10.84-10.86,32.85-39.84,62.38-82.28,94.15-122.96Z" />
    <path class="cls-1"
      d="M714.38,718.48l-49.85,10.2-26.79-132.1c11.05-27.14,21.47-57.52,18.83-87.18.76-.81,7.19,5.96,7.97,6.85,20.89,23.73,28.32,83.51,34.48,115.32,5.6,28.86,10.98,57.84,15.35,86.91Z" />
    <path class="cls-1"
      d="M661.64,327.74c-3-15.2-12.42-29.4-22.07-41.26-1.24-1.52-5.15-4.02-4.63-5.99l80.47-129.26,43.1,27.67-83.84,136.92c-1.01,1.85-11.56,13.26-13.04,11.92Z" />
    <path class="cls-1"
      d="M601.58,640.39l11.58,157.77-48.74,5.01-13.53-139.9c12.71-3.09,25.1-6.97,36.44-13.61,1.41-.82,13.71-9.93,14.25-9.26Z" />
    <path class="cls-1"
      d="M313.61,56.35l10.85,119.42c-.66.66-15.38-3.62-18.44-3.67-3.58-.06-12.84,2.04-16.3,3.29-6.9,2.5-12.15,8.71-16.62,14.13l-9.42-128.1,49.93-5.07Z" />
    <path class="cls-1"
      d="M181.93,579.59c-.31,4.14,4.43,10.43,7.25,13.38,9.7,10.14,21.2,9.65,33.67,13.38.81.24,1.28-.48,1.05,1.09l-62.45,100.87-42.36-26.03-.08-1.67,62.93-101.01Z" />
  </g>
</svg>
