<svg height="15.631" viewBox="0 0 20.001 15.631" width="20.001" xmlns="http://www.w3.org/2000/svg" xmlns:xlink="http://www.w3.org/1999/xlink"><clipPath id="a"><path d="m0 0h20.001v15.631h-20.001z"/></clipPath><g clip-path="url(#a)"><path d="m0 14.765c-.021.858.107.964.751.8 1.461-.365 2.924-.721 4.381-1.1 2.28-.6 4.59-1.114 6.823-1.855a5.505 5.505 0 0 0 4.024-4.924c.082-.781-.177-.993-.949-.794q-3.53.908-7.061 1.808a18.77 18.77 0 0 0 -5.159 1.833 5.783 5.783 0 0 0 -2.81 4.232m4.034-7.031c-.031 1.047.174 1.21.934 1.015q4.008-1.025 8.015-2.049a13.306 13.306 0 0 0 4.662-1.9 5.493 5.493 0 0 0 2.348-4.177c.047-.615-.1-.709-.681-.563-1.953.491-3.911.965-5.858 1.48-1.91.505-3.852.934-5.7 1.613a5.369 5.369 0 0 0 -3.719 4.58"/><g fill="#fff"><path d="m0 39.192a5.783 5.783 0 0 1 2.807-4.229 18.774 18.774 0 0 1 5.16-1.833q3.533-.9 7.064-1.812c.772-.2 1.03.013.949.794a5.506 5.506 0 0 1 -4.024 4.924c-2.234.742-4.543 1.256-6.823 1.855-1.456.383-2.92.739-4.381 1.1-.644.161-.772.055-.751-.8" transform="translate(0 -24.427)"/><path d="m18.47 7.734a5.369 5.369 0 0 1 3.719-4.58c1.848-.679 3.791-1.108 5.7-1.613 1.947-.515 3.9-.989 5.858-1.48.583-.146.728-.052.681.563a5.493 5.493 0 0 1 -2.347 4.176 13.306 13.306 0 0 1 -4.661 1.9q-4.007 1.026-8.02 2.049c-.76.194-.965.032-.934-1.015" transform="translate(-14.436)"/></g></g></svg>