<svg xmlns="http://www.w3.org/2000/svg" width="55.415" height="47.193" viewBox="0 0 55.415 47.193">
  <g id="ic_simpleswaps" transform="translate(5.145)">
    <rect id="Rectangle_1" data-name="Rectangle 1" width="40" height="40" rx="4" transform="translate(0)" fill="none"/>
    <path id="Path_178" data-name="Path 178" d="M27.089,34.7H8.908a4.277,4.277,0,0,1-3.025-7.3L9.9,23.384,1.588,15.069a4.278,4.278,0,0,1,0-6.05L4.612,6a4.278,4.278,0,0,1,6.05,0l8.314,8.315,4.019-4.019a4.278,4.278,0,0,1,7.3,3.025V31.5A3.208,3.208,0,0,1,27.089,34.7Z" transform="translate(19.159 -1.846) rotate(45)" fill="#04cfd0"/>
    <path id="Path_179" data-name="Path 179" d="M1.422,2.621H19.6a4.277,4.277,0,0,1,3.025,7.3l-4.019,4.019,8.314,8.315a4.278,4.278,0,0,1,0,6.05L23.9,31.331a4.278,4.278,0,0,1-6.05,0L9.535,23.016,5.516,27.035a4.278,4.278,0,0,1-7.3-3.025V5.829A3.208,3.208,0,0,1,1.422,2.621Z" transform="translate(32.201 4.23) rotate(45)" fill="#4e09f8"/>
    <path id="Intersection_3" data-name="Intersection 3" d="M-5218.687-931.5h-5.683a4.292,4.292,0,0,1-3.953-2.64,4.274,4.274,0,0,1,.929-4.661l8.5-8.5v10.244h5.684a4.287,4.287,0,0,1,3.952,2.64,4.271,4.271,0,0,1-.927,4.661l-8.5,8.5Z" transform="translate(5241.355 958.744)" fill="#04cfd0" stroke="rgba(0,0,0,0)" stroke-width="1" style="mix-blend-mode: screen;isolation: isolate"/>
  </g>
</svg>
