<svg xmlns="http://www.w3.org/2000/svg" width="16" height="16"><g data-name="ic_sign out_16"><path data-name="Rectangle 486" fill="rgba(255,255,255,0)" d="M0 0h16v16H0z"/><g data-name="Group 334" fill="#a0a3c4"><path data-name="Path 4416" d="M13.016 14.5H7.484A1.486 1.486 0 0 1 6 13.016V10.75a.75.75 0 0 1 1.5 0v2.266L13.016 13 13 2.484 7.484 2.5 7.5 4.75a.75.75 0 0 1-1.5 0V2.484A1.486 1.486 0 0 1 7.484 1h5.532A1.486 1.486 0 0 1 14.5 2.484v10.532a1.486 1.486 0 0 1-1.484 1.484Z"/><path data-name="Union 15" d="M4.281 10.279a.75.75 0 0 0 0-1.061l-.72-.721h7.193a.75.75 0 0 0 0-1.5H3.561l.721-.721a.75.75 0 0 0-1.061-1.057l-2 2a.754.754 0 0 0 0 1.061l2 2a.743.743 0 0 0 .531.217.729.729 0 0 0 .529-.218Z" stroke="rgba(0,0,0,0)"/></g></g></svg>
