<svg width="40" height="40" viewBox="0 0 40 40" fill="none" xmlns="http://www.w3.org/2000/svg">
<g clip-path="url(#clip0_128_1149)">
<circle cx="20" cy="20" r="20" fill="black"/>
<path d="M31.5445 26.2772L27.6926 30.4074C27.6093 30.4971 27.5084 30.5687 27.3962 30.6177C27.284 30.6667 27.1629 30.692 27.0405 30.6921H8.78092C8.69383 30.6921 8.60864 30.6667 8.53579 30.6189C8.46294 30.5712 8.40559 30.5033 8.37076 30.4235C8.33592 30.3436 8.32512 30.2554 8.33967 30.1695C8.35422 30.0837 8.39349 30.0039 8.45268 29.94L12.3002 25.8099C12.3836 25.7202 12.4844 25.6486 12.5966 25.5996C12.7088 25.5506 12.8299 25.5252 12.9524 25.5251H31.2119C31.2997 25.5233 31.3863 25.5475 31.4604 25.5947C31.5345 25.642 31.5932 25.71 31.6286 25.7904C31.6643 25.8708 31.6752 25.96 31.6602 26.0466C31.6452 26.1332 31.6049 26.2135 31.5445 26.2772ZM27.6926 17.9583C27.609 17.869 27.508 17.7977 27.3959 17.7487C27.2838 17.6997 27.1628 17.6742 27.0405 17.6735H8.78092C8.69383 17.6736 8.60864 17.699 8.53579 17.7467C8.46294 17.7944 8.40559 17.8624 8.37076 17.9422C8.33592 18.022 8.32512 18.1103 8.33967 18.1961C8.35422 18.282 8.39349 18.3618 8.45268 18.4256L12.3002 22.558C12.3839 22.6473 12.4848 22.7186 12.5969 22.7675C12.7091 22.8165 12.83 22.8421 12.9524 22.8427H31.2119C31.2989 22.8422 31.3837 22.8165 31.4563 22.7686C31.5289 22.7207 31.5858 22.6528 31.6204 22.573C31.6549 22.4933 31.6656 22.4052 31.6508 22.3196C31.6362 22.2339 31.5971 22.1543 31.538 22.0906L27.6926 17.9583ZM8.78092 14.9911H27.0405C27.1629 14.991 27.284 14.9656 27.3962 14.9166C27.5084 14.8676 27.6093 14.796 27.6926 14.7063L31.5445 10.5762C31.6049 10.5124 31.6452 10.4321 31.6602 10.3455C31.6752 10.2589 31.6643 10.1698 31.6286 10.0894C31.5932 10.009 31.5345 9.94089 31.4604 9.89368C31.3863 9.84648 31.2997 9.82225 31.2119 9.82407H12.9524C12.8299 9.8242 12.7088 9.84955 12.5966 9.89854C12.4844 9.94754 12.3836 10.0191 12.3002 10.1088L8.45268 14.239C8.39349 14.3028 8.35422 14.3826 8.33967 14.4685C8.32512 14.5544 8.33592 14.6426 8.37076 14.7224C8.40559 14.8022 8.46294 14.8702 8.53579 14.9179C8.60864 14.9656 8.69383 14.991 8.78092 14.9911Z" fill="url(#paint0_linear_128_1149)"/>
</g>
<defs>
<linearGradient id="paint0_linear_128_1149" x1="10.3025" y1="31.19" x2="29.449" y2="9.60452" gradientUnits="userSpaceOnUse">
<stop offset="0.08" stop-color="#9945FF"/>
<stop offset="0.3" stop-color="#8752F3"/>
<stop offset="0.5" stop-color="#5497D5"/>
<stop offset="0.6" stop-color="#43B4CA"/>
<stop offset="0.72" stop-color="#28E0B9"/>
<stop offset="0.97" stop-color="#19FB9B"/>
</linearGradient>
<clipPath id="clip0_128_1149">
<rect width="40" height="40" fill="white"/>
</clipPath>
</defs>
</svg>
