<svg xmlns="http://www.w3.org/2000/svg" width="12" height="12" fill="currentColor" viewBox="0 0 12 12">
  <path d="M6.622 1.689a.877.877 0 0 1 .472.177c.094.066.2.157.304.245l2.646 2.247c.24.203.447.378.603.535.16.16.308.343.394.577.126.343.126.718 0 1.06a1.613 1.613 0 0 1-.394.578c-.156.157-.364.331-.603.535L7.398 9.89c-.104.088-.21.18-.304.245a.877.877 0 0 1-.472.177.833.833 0 0 1-.66-.286.847.847 0 0 1-.188-.485c-.01-.113-.01-.252-.01-.383V8.33c-1.008.095-2.012.439-2.762.968-.254.18-.462.327-.617.426a2.21 2.21 0 0 1-.238.135.778.778 0 0 1-.752-.028.82.82 0 0 1-.276-.272.745.745 0 0 1-.108-.374 1.675 1.675 0 0 1 .014-.253c.019-.157.056-.366.1-.611.317-1.773 1.129-2.948 2.135-3.67.8-.576 1.696-.84 2.504-.923v-.886c0-.131 0-.27.01-.384.01-.1.036-.308.188-.484l.065-.068a.836.836 0 0 1 .595-.218Z"/>
</svg>
