<svg width="24" height="24" viewBox="0 0 64 64" fill="none" xmlns="http://www.w3.org/2000/svg">
<g clip-path="url(#clip0_1106_47940)">
<circle cx="32" cy="32" r="32" fill="#ECBE4F"/>
<path d="M12.6648 27.5784L13.3393 25.4662L52.1402 25.4307L52.6904 26.1584L51.8739 29.4421L41.8276 31.3946L58.2993 31.5898L58.7608 31.8738L56.2048 37.4117H4.60645L7.21565 32.5838L7.46415 31.6253H10.7656L11.0673 30.5426L12.6648 29.1936V27.5784Z" fill="white"/>
<path fill-rule="evenodd" clip-rule="evenodd" d="M30.9632 17.1322C29.2336 17.8249 25.3604 19.7542 23.7921 20.7042C22.1153 21.7199 20.2264 23.0708 18.724 24.3287L17.6745 25.2072L15.4616 25.2285C14.2445 25.2402 13.199 25.2805 13.138 25.3183C13.0769 25.3559 12.9819 25.6589 12.9266 25.9913C12.8712 26.3239 12.7374 26.7691 12.6291 26.9806L12.4321 27.3654V28.216V29.0667L11.6261 29.7545C11.1829 30.1326 10.733 30.6504 10.6264 30.905L10.4325 31.3679H8.87051H7.30833L7.07312 32.187C6.94383 32.6374 6.48868 33.6471 6.06175 34.4305L5.28558 35.855L4.70627 36.3631L4.12695 36.8712L4.18967 38.1838L4.25254 39.4963L4.56928 39.8124L4.88616 40.1283L7.80553 40.0887L10.7249 40.049L11.2272 41.0921C14.4928 49.3949 32.2957 47.6732 40.3714 42.2964C40.3714 42.2232 40.2864 42.1959 40.1826 42.2357C35.9073 43.8758 22.8283 44.5956 19.6849 40.4524L19.5301 40.1634L19.7229 40.0382L19.9158 39.9131L25.1983 39.997L30.4808 40.0811L30.6712 39.8519L30.8616 39.6227L31.1163 39.853L31.3711 40.0833L36.7628 40.0346L42.1544 39.9859L42.8983 39.618L43.6421 39.2499L44.038 39.671L44.434 40.092L49.8022 40.0169L55.1705 39.9417L55.8248 39.5587C56.1846 39.3479 56.5986 39.0053 56.7448 38.7972C56.8909 38.5892 57.4362 37.6364 57.9566 36.68L58.9025 34.941V33.3857V31.8302L58.677 31.6431L58.4515 31.4561L54.8639 31.3978C52.8907 31.3658 51.248 31.3125 51.2135 31.2793C51.1792 31.2461 51.2859 31.1244 51.451 31.0088C51.6161 30.8933 52.0131 30.4067 52.3334 29.9275L52.9155 29.0563V27.4662V25.8759L52.7221 25.595L52.5285 25.314C53.0639 21.4268 51.9098 18.2437 47.4691 17.3456C46.0871 17.0661 44.8699 17.0642 43.161 17.339C40.273 17.8034 37.1273 18.9646 34.1435 20.6678C33.2176 21.1963 32.3478 21.6707 32.2105 21.7219C31.923 21.8293 31.8705 22.2514 32.1448 22.2514C32.2457 22.2514 32.5826 22.1206 32.8932 21.9607C38.6009 19.0217 47.1388 18.7057 47.7522 25.1715L43.8595 25.2428C41.7186 25.2819 39.9195 25.3616 39.8616 25.4195C39.8036 25.4777 39.6725 25.4559 39.5703 25.371L39.3844 25.2168L31.0043 25.2312L22.6242 25.2455L22.4318 25.1201L22.2393 24.9948L23.5498 23.3206C25.4568 21.3352 28.3528 19.3435 31.1414 17.6302C31.749 17.2568 32.2462 16.894 32.2462 16.8237C32.2462 16.7534 32.198 16.6979 32.1392 16.7C32.0805 16.7021 31.5512 16.8966 30.9632 17.1322ZM15.2474 25.6341L13.4299 25.6787V25.965C13.4299 26.1224 13.2985 26.5087 13.1378 26.8235L12.8456 27.3957L12.929 27.6582C12.9749 27.8028 13.1545 27.9554 13.3281 27.9977C13.5017 28.0398 15.1511 28.3675 16.9936 28.7258C18.836 29.0842 20.4397 29.4207 20.5573 29.4735L20.7711 29.5696L19.9158 29.6698C19.4454 29.725 17.8878 29.7771 16.4545 29.7855L13.8484 29.801L13.332 29.5854L12.8157 29.3698L12.5169 29.5725C12.0124 29.9151 11.2917 30.6313 11.2917 30.7902V30.9406H17.2818H23.2719L23.6799 30.2977C23.9043 29.9442 24.1708 29.4549 24.2722 29.2103L24.4565 28.7657L24.2216 28.5941C24.0926 28.4998 22.4293 28.1502 20.5259 27.8172C18.6223 27.4843 16.9527 27.1812 16.8154 27.1437C16.6781 27.1061 16.5659 27.0156 16.5659 26.9426V26.8097H19.6971H22.8283L23.306 27.0373L23.7837 27.2649L24.8076 26.6031C25.3708 26.239 25.8315 25.8902 25.8315 25.8279C25.8315 25.5881 20.8521 25.4967 15.2474 25.6341ZM26.6868 25.8399C26.6868 26.0013 26.4939 26.5128 26.258 26.9765L25.8294 27.8196L25.9162 28.1658L26.0031 28.5119L25.62 28.6864L25.2367 28.8609L24.8117 29.7019C24.5781 30.1644 24.4213 30.6325 24.4634 30.7417L24.5396 30.9406L30.4955 30.9385L36.4513 30.9362L36.8895 30.1194L37.3275 29.3025L37.7111 29.2572L38.0947 29.2119L38.3877 28.638C38.5489 28.3223 38.6461 27.9742 38.6039 27.8642L38.5272 27.6643H33.9611H29.3952V27.4779C29.3952 27.3753 29.4763 27.1806 29.5755 27.0451L29.7557 26.7987L32.8898 26.8427L36.0237 26.8869L36.477 27.0894L36.9304 27.292L37.9546 26.6114L38.9788 25.9309L38.8554 25.8182C38.7875 25.7563 36.022 25.6698 32.7094 25.6259L26.6868 25.5465V25.8399ZM40.3714 25.9591C40.3714 26.444 38.1981 30.5133 37.9389 30.5133C37.8655 30.5133 37.8055 30.6037 37.8055 30.7141V30.915L38.9989 31.0144C39.6552 31.0689 40.3845 31.0715 40.6194 31.0199L41.0466 30.9262L41.4574 30.1861C41.6832 29.779 41.9142 29.3335 41.9705 29.1962L42.0728 28.9464H45.8594H49.6461L50.1048 28.7532C50.7944 28.463 51.9735 27.3334 52.2678 26.681L52.5282 26.104L52.3481 25.887L52.1679 25.6701H46.2697H40.3714V25.9591ZM43.8289 26.9139L43.2236 26.9685L43.0689 27.2574C42.9837 27.4163 42.9567 27.5888 43.0086 27.6408C43.0607 27.6928 44.1724 27.7354 45.4791 27.7354L47.8551 27.7356L48.3184 27.4826C48.5733 27.3436 48.7817 27.1763 48.7817 27.1112C48.7817 26.8621 45.7473 26.7412 43.8289 26.9139ZM28.2598 29.3643C28.1787 29.5159 28.1123 29.6761 28.1123 29.7204C28.1123 29.7647 29.3929 29.801 30.9582 29.801H33.8042L33.9517 29.5255C34.0328 29.374 34.0993 29.2137 34.0993 29.1694C34.0993 29.1251 32.8186 29.0888 31.2533 29.0888H28.4074L28.2598 29.3643ZM7.81309 31.7721L7.56449 31.8202L7.64674 32.0342L7.72884 32.2481L6.64021 34.2418C6.04151 35.3383 5.42513 36.3532 5.27047 36.4973C5.11581 36.6413 5.03199 36.828 5.08416 36.9123L5.17895 37.0658H10.7849H16.3909L17.1415 36.6739L17.8922 36.282L18.3713 35.5873C18.6349 35.2051 18.8912 34.7305 18.9409 34.5325L19.0313 34.1725L18.7691 33.981L18.5071 33.7895H15.0618C13.1669 33.7895 11.324 33.7495 10.9664 33.7005L10.3162 33.6115L10.4705 33.2731L10.6247 32.9348H13.8875H17.1502L17.5649 33.1491L17.9794 33.3633L19.0545 32.7111C19.6458 32.3524 20.1296 32.0008 20.1296 31.93V31.8013L14.0956 31.7626C10.7769 31.7414 7.94979 31.7457 7.81309 31.7721ZM21.6976 31.9C21.183 32.0975 20.4656 32.7836 19.9653 33.5566L19.4243 34.3919L19.5681 34.6606L19.712 34.9291H23.5201H27.3283L27.7089 34.4523L28.0895 33.9757L25.7296 33.8871C24.4316 33.8382 23.3358 33.7646 23.2945 33.7233C23.2531 33.6821 23.2937 33.4852 23.3846 33.2858L23.5498 32.9234L26.1112 32.9412C27.52 32.9509 28.8004 32.9924 28.9566 33.0331L29.2404 33.1073L28.5872 34.4099C28.228 35.1264 27.8618 35.7597 27.7737 35.8172C27.6855 35.8748 26.2204 35.9228 24.5178 35.9241L21.4222 35.9262L20.9374 35.6951L20.4526 35.4642L19.432 36.13C18.8706 36.4961 18.449 36.8565 18.4949 36.9307L18.5784 37.0658H23.038C25.4908 37.0658 28.1684 37.0247 28.9881 36.9746L30.4786 36.8836L30.8753 36.1555C31.9213 34.2366 33.1014 31.9755 33.1014 31.8903C33.1014 31.7746 21.9993 31.784 21.6976 31.9ZM34.1068 32.2168C33.7582 32.448 33.3215 32.8803 33.1368 33.1777C32.5876 34.0612 31.3909 36.4743 31.3909 36.6984V36.9058L32.0459 37.0039C32.4061 37.0579 34.8596 37.0732 37.4983 37.0378L42.2958 36.9735L42.761 36.73C43.369 36.4119 44.0482 35.4774 44.9578 33.7076L45.6954 32.2726L45.6037 32.0339L45.5121 31.7953L40.1263 31.7958L34.7407 31.7966L34.1068 32.2168ZM47.1388 32.1417C46.8234 32.3307 46.3678 32.7628 46.1266 33.1018C45.6046 33.8355 44.2202 36.4521 44.2202 36.7049V36.8823L45.3657 36.9779C45.9957 37.0303 48.4493 37.0307 50.8181 36.9787L55.125 36.884L55.5028 36.6937C56.1172 36.3842 56.7826 35.4805 57.6738 33.7449L58.5118 32.1126L58.4136 31.954L58.3155 31.7953L53.0141 31.7966L47.7126 31.798L47.1388 32.1417ZM38.2511 33.071L36.3445 33.1485L35.7226 34.2881C35.3806 34.9148 35.1 35.5399 35.099 35.6769L35.0971 35.9262H37.7982H40.4994L40.8473 35.4632C41.2321 34.9513 42.0819 33.3116 42.0819 33.0814V32.9348L41.1197 32.9642C40.5906 32.9803 39.2997 33.0283 38.2511 33.071ZM49.1189 33.0438C48.9681 33.1414 47.6413 35.653 47.6413 35.8409C47.6413 35.8879 48.9503 35.9262 50.5503 35.9262H53.4594L54.1815 34.5211L54.9038 33.116L54.1591 33.0267C53.1285 32.9029 49.3165 32.9159 49.1189 33.0438ZM9.79493 35.0185C9.47092 35.1061 9.15346 35.463 9.15346 35.7397V35.9262H12.0011H14.8488L15.0852 35.5657C15.2153 35.3674 15.2857 35.1691 15.2417 35.1252C15.1346 35.0182 10.1571 34.9207 9.79493 35.0185Z" fill="black"/>
</g>
<defs>
<clipPath id="clip0_1106_47940">
<rect width="64" height="64" fill="white"/>
</clipPath>
</defs>
</svg>
