<svg width="16" height="16" viewBox="0 0 16 16" fill="none" xmlns="http://www.w3.org/2000/svg">
<path d="M5.4375 10.5602C5.4375 12.3704 5.4375 13.2755 5.99986 13.8379C6.56222 14.4002 7.46733 14.4002 9.27754 14.4002H9.91754C11.7278 14.4002 12.6329 14.4002 13.1952 13.8379C13.7576 13.2755 13.7576 12.3704 13.7576 10.5602V5.44014C13.7576 3.62992 13.7576 2.72482 13.1952 2.16246C12.6329 1.6001 11.7278 1.6001 9.91755 1.6001H9.27754C7.46733 1.6001 6.56222 1.6001 5.99986 2.16246C5.4375 2.72482 5.4375 3.62992 5.4375 5.44014" stroke="currentColor" stroke-linecap="round"/>
<path d="M5.44222 12.8C3.93371 12.8 3.17946 12.8 2.71082 12.3314C2.24219 11.8628 2.24219 11.1085 2.24219 9.60002V6.39998C2.24219 4.89147 2.24219 4.13722 2.71082 3.66859C3.17946 3.19995 3.93371 3.19995 5.44222 3.19995" stroke="currentColor"/>
<path d="M4.16182 8.00016L9.92187 8.00016M9.92187 8.00016L8.32186 9.60018M9.92187 8.00016L8.32186 6.40015" stroke="currentColor" stroke-linecap="round" stroke-linejoin="round"/>
</svg>
