<svg xmlns="http://www.w3.org/2000/svg" width="40" height="40"><defs><linearGradient id="a" y1=".5" x2="1" y2=".5" gradientUnits="objectBoundingBox"><stop offset="0" stop-color="#03d1cf"/><stop offset="1" stop-color="#4e09f8"/></linearGradient><filter id="b" x="5" y="8" width="29.416" height="24.345" filterUnits="userSpaceOnUse"><feOffset dy="1"/><feGaussianBlur result="blur"/><feFlood flood-opacity=".2"/><feComposite operator="in" in2="blur"/><feComposite in="SourceGraphic"/></filter></defs><g transform="translate(-141.725 -3127.725)"><circle data-name="Ellipse 142" cx="20" cy="20" r="20" transform="translate(141.725 3127.725)" fill="url(#a)"/><g transform="translate(141.72 3127.72)" filter="url(#b)"><path data-name="Union 20" d="m11.52 30.982-6.159-6.207a1.248 1.248 0 0 1 0-1.756l6.159-6.206a1.224 1.224 0 0 1 1.343-.269 1.241 1.241 0 0 1 .76 1.147v2.876a.844.844 0 0 0 .841.848h6.55a1.237 1.237 0 0 1 1.232 1.241v2.483a1.236 1.236 0 0 1-1.232 1.241H14.74a1.122 1.122 0 0 0-1.117 1.127v2.6a1.243 1.243 0 0 1-.76 1.147 1.226 1.226 0 0 1-1.343-.269ZM26.553 22.8a1.241 1.241 0 0 1-.76-1.147v-2.6a1.121 1.121 0 0 0-1.117-1.126H18.4a1.236 1.236 0 0 1-1.231-1.242v-2.478a1.236 1.236 0 0 1 1.231-1.241h6.55a.844.844 0 0 0 .841-.848V9.241a1.243 1.243 0 0 1 .76-1.147 1.227 1.227 0 0 1 1.343.269l6.159 6.207a1.248 1.248 0 0 1 0 1.756L27.9 22.533a1.223 1.223 0 0 1-1.343.269Z" fill="#fff"/></g></g></svg>