<svg xmlns="http://www.w3.org/2000/svg" width="24" height="24" fill="none" viewBox="0 0 24 24">
  <path stroke="currentColor" stroke-linecap="round" stroke-linejoin="round" stroke-width="1.5" d="m14.069 5.08 5.291 4.492c.99.84 1.484 1.26 1.666 1.756.16.436.16.91 0 1.346-.182.495-.677.915-1.666 1.755l-5.291 4.493c-.45.381-.674.572-.864.578a.543.543 0 0 1-.43-.184c-.122-.14-.122-.427-.122-1.001v-2.833c-2.58 0-5.307.792-7.298 2.198-1.036.731-1.554 1.097-1.752 1.083a.483.483 0 0 1-.414-.244c-.102-.162-.012-.667.17-1.678 1.174-6.566 5.904-8.321 9.294-8.321V5.687c0-.574 0-.86.121-1.001a.543.543 0 0 1 .43-.185c.191.007.416.198.865.579Z"/>
</svg>
