<svg width="24" height="24" viewBox="0 0 24 24" fill="none" xmlns="http://www.w3.org/2000/svg">
<path d="M16.5877 10.3424C17.4177 11.408 17.8671 12.7208 17.8641 14.0714C17.8641 15.5007 17.37 16.8123 16.5524 17.8475L16.4819 17.9356L16.4642 17.818C16.4472 17.7215 16.4276 17.6253 16.4055 17.5298C15.9937 15.6889 14.6644 14.1066 12.4646 12.8246C10.9824 11.9657 10.1296 10.9306 9.90606 9.75423C9.7846 9.02147 9.84526 8.27007 10.0825 7.56624C10.25 7.01615 10.5106 6.49889 10.853 6.03699L11.7119 4.96652C11.7466 4.92354 11.7905 4.88887 11.8403 4.86506C11.8901 4.84124 11.9448 4.82888 12.0001 4.82888C12.0552 4.82888 12.1099 4.84124 12.1597 4.86506C12.2096 4.88887 12.2534 4.92354 12.2883 4.96652L16.5877 10.3424ZM17.9405 9.27193L12.2117 2.10213C12.1864 2.07028 12.1542 2.04455 12.1175 2.02687C12.0809 2.00918 12.0407 2 12.0001 2C11.9593 2 11.9191 2.00918 11.8824 2.02687C11.8458 2.04455 11.8136 2.07028 11.7883 2.10213L6.05947 9.27782L6.04183 9.29547C4.94423 10.6901 4.34946 12.4143 4.35378 14.189C4.35378 18.5004 7.77693 22 12.0001 22C16.2231 22 19.6462 18.5004 19.6462 14.189C19.6505 12.4143 19.0558 10.6901 17.9582 9.29547L17.9405 9.27193ZM7.42992 10.3188L7.94162 9.67778L7.95927 9.7954L8.00044 10.0777C8.3357 11.8599 9.51794 13.3421 11.5001 14.489C13.2234 15.4948 14.2234 16.6476 14.5116 17.9122C14.6292 18.4415 14.6526 18.9592 14.5997 19.4121V19.4414L14.5762 19.4532C13.7764 19.853 12.8942 20.0604 12.0001 20.059C8.76506 20.059 6.13594 17.3769 6.13594 14.0714C6.13594 12.654 6.61824 11.3481 7.42992 10.3188Z" fill="#4BA2FF"/>
</svg>
