<svg width="1em" height="1em" viewBox="0 0 16 16" fill="none" xmlns="http://www.w3.org/2000/svg">
  <path
    d="M6.81969 2.76675C7.3025 1.74963 8.6975 1.74962 9.18031 2.76675L10.0147 4.52461C10.2065 4.92852 10.5771 5.20847 11.0058 5.27324L12.8716 5.55512C13.9512 5.71823 14.3823 7.09763 13.6011 7.88936L12.251 9.25766C11.9407 9.57205 11.7992 10.025 11.8724 10.469L12.1911 12.401C12.3755 13.519 11.247 14.3715 10.2813 13.8437L8.6125 12.9315C8.22905 12.7219 7.77095 12.7219 7.3875 12.9315L5.71866 13.8437C4.75304 14.3715 3.62445 13.519 3.80887 12.401L4.12759 10.469C4.20083 10.025 4.05927 9.57206 3.74905 9.25766L2.39893 7.88936C1.61772 7.09763 2.0488 5.71823 3.1284 5.55512L4.99422 5.27324C5.42293 5.20847 5.79354 4.92852 5.98526 4.52461L6.81969 2.76675Z"
    fill="url(#paint0_linear_5355_34561)" />
  <defs>
    <linearGradient id="paint0_linear_5355_34561" x1="8.432" y1="2.31591" x2="2.132" y2="14.0039"
      gradientUnits="userSpaceOnUse">
      <stop stop-color="#03D1CF" stop-opacity="0.988" />
      <stop offset="1" stop-color="#4E09F8" />
    </linearGradient>
  </defs>
</svg>
