<svg xmlns="http://www.w3.org/2000/svg" xmlns:xlink="http://www.w3.org/1999/xlink" width="22.208" height="25.341" viewBox="0 0 22.208 25.341">
  <defs>
    <radialGradient id="radial-gradient" cx="0.5" cy="0.5" r="0.5" gradientUnits="objectBoundingBox">
      <stop offset="0" stop-color="#fd00fe"/>
      <stop offset="1" stop-color="#724be1"/>
    </radialGradient>
  </defs>
  <g id="ic_synapse" transform="translate(0.5 0.5)">
    <path id="Union_1" data-name="Union 1" d="M9.524,23.267A1.074,1.074,0,1,1,10.6,24.341,1.074,1.074,0,0,1,9.524,23.267ZM4.813,20.419a1.074,1.074,0,1,1,1.072,1.074A1.073,1.073,0,0,1,4.813,20.419Zm9.425-.036a1.074,1.074,0,1,1,1.072,1.074A1.073,1.073,0,0,1,14.239,20.383Zm-4.92-2.76A1.281,1.281,0,1,1,10.6,18.9,1.28,1.28,0,0,1,9.319,17.623ZM0,17.785A1.074,1.074,0,1,1,1.075,18.86,1.075,1.075,0,0,1,0,17.785Zm19.05-.036a1.074,1.074,0,1,1,1.072,1.074A1.072,1.072,0,0,1,19.05,17.749Zm-4.917-2.781a1.265,1.265,0,0,1,.055-.374l-2.956-1.705a.968.968,0,0,1-1.3-.032L7.006,14.583a1.3,1.3,0,0,1,.059.385,1.282,1.282,0,1,1-2.5-.392L1.824,12.933a1.074,1.074,0,1,1-.006-1.566L4.463,9.75A1.281,1.281,0,1,1,6.9,9.72L9.92,11.462a.97.97,0,0,1,1.312-.044l2.857-1.686a1.281,1.281,0,1,1,2.5-.386,1.291,1.291,0,0,1-.056.379l2.841,1.657a1.073,1.073,0,1,1,.008,1.55l-2.751,1.645a1.281,1.281,0,1,1-2.5.392Zm.345-.874a1.28,1.28,0,0,1,1.859-.014l2.751-1.645a1.1,1.1,0,0,1-.038-.281,1.113,1.113,0,0,1,.035-.271l-2.841-1.657a1.282,1.282,0,0,1-1.861,0l-2.844,1.678a1.008,1.008,0,0,1,.032.246.975.975,0,0,1-.031.242Zm-7.765-.009L9.65,12.351a.927.927,0,0,1-.021-.2.909.909,0,0,1,.018-.181L6.615,10.222a1.28,1.28,0,0,1-1.848.023L2.12,11.861a1.059,1.059,0,0,1,.041.293,1.036,1.036,0,0,1-.039.284L4.861,14.08a1.281,1.281,0,0,1,1.851.006ZM9.319,6.613A1.281,1.281,0,1,1,10.6,7.894,1.28,1.28,0,0,1,9.319,6.613Zm9.743.036a1.073,1.073,0,1,1,1.074,1.074A1.073,1.073,0,0,1,19.062,6.649ZM.013,6.613A1.074,1.074,0,1,1,1.086,7.687,1.074,1.074,0,0,1,.013,6.613Zm14.238-2.6a1.074,1.074,0,1,1,1.072,1.074A1.072,1.072,0,0,1,14.25,4.015ZM4.826,3.979A1.073,1.073,0,1,1,5.9,5.054,1.072,1.072,0,0,1,4.826,3.979Zm4.7-2.9A1.074,1.074,0,1,1,10.6,2.146,1.074,1.074,0,0,1,9.524,1.074Z" stroke="rgba(0,0,0,0)" stroke-width="1" fill="url(#radial-gradient)"/>
  </g>
</svg>
