<svg xmlns="http://www.w3.org/2000/svg" width="24" height="24"><g transform="translate(-141.725 -3127.725)"><circle data-name="Ellipse 142" cx="12" cy="12" r="12" transform="translate(141.725 3127.725)" fill="#005ed2"/><path data-name="Path 4629" d="M160.199 3138.88h-12.951a.9.9 0 0 1-.9-.9.9.9 0 0 1 .9-.9h10.875l-2.416-2.572a.9.9 0 0 1 .037-1.268.9.9 0 0 1 1.268.039l3.84 4.083a.889.889 0 0 1 .168.97.892.892 0 0 1-.821.548Z" fill="#fff"/><path data-name="Path 4630" d="M151.092 3146.053a.9.9 0 0 1-.654-.282l-3.84-4.083a.893.893 0 0 1-.17-.97.9.9 0 0 1 .822-.541h12.951a.9.9 0 0 1 .9.9.9.9 0 0 1-.9.9h-10.875l2.416 2.572a.9.9 0 0 1-.037 1.268.893.893 0 0 1-.613.236Z" fill="#fff"/></g></svg>