<svg width="24" height="24" viewBox="0 0 24 24" fill="none" xmlns="http://www.w3.org/2000/svg">
<g clip-path="url(#clip0_1218_24206)">
<path d="M12 24C18.6274 24 24 18.6274 24 12C24 5.37258 18.6274 0 12 0C5.37258 0 0 5.37258 0 12C0 18.6274 5.37258 24 12 24Z" fill="#EF0027"/>
<path d="M16.449 7.43475L5.625 5.44275L11.3213 19.7767L19.2585 10.1062L16.449 7.43475ZM16.275 8.31225L17.931 9.8865L13.4025 10.7062L16.275 8.31225ZM12.4185 10.542L7.6455 6.5835L15.447 8.019L12.4185 10.542ZM12.0787 11.2425L11.3003 17.6775L7.104 7.11525L12.0787 11.2425ZM12.7988 11.5837L17.814 10.6762L12.0615 17.6835L12.7988 11.5837Z" fill="white"/>
</g>
<defs>
<clipPath id="clip0_1218_24206">
<rect width="24" height="24" fill="white"/>
</clipPath>
</defs>
</svg>
