<svg width="28" height="28" viewBox="0 0 28 28" fill="none" xmlns="http://www.w3.org/2000/svg">
<path d="M11.5996 2.2002H16.4004C18.0835 2.2002 19.3339 2.20035 20.3242 2.28125C21.3122 2.36197 22.024 2.52192 22.6328 2.83203C23.7242 3.3881 24.6119 4.27585 25.168 5.36719C25.4781 5.97596 25.638 6.68781 25.7188 7.67578C25.7996 8.66614 25.7998 9.9165 25.7998 11.5996V16.4004C25.7998 18.0835 25.7996 19.3339 25.7188 20.3242C25.638 21.3122 25.4781 22.024 25.168 22.6328C24.6119 23.7242 23.7242 24.6119 22.6328 25.168C22.024 25.4781 21.3122 25.638 20.3242 25.7188C19.3339 25.7996 18.0835 25.7998 16.4004 25.7998H11.5996C9.9165 25.7998 8.66614 25.7996 7.67578 25.7188C6.68781 25.638 5.97596 25.4781 5.36719 25.168C4.27585 24.6119 3.3881 23.7242 2.83203 22.6328C2.52192 22.024 2.36197 21.3122 2.28125 20.3242C2.20035 19.3339 2.2002 18.0835 2.2002 16.4004V11.5996C2.2002 9.9165 2.20035 8.66614 2.28125 7.67578C2.36197 6.68781 2.52192 5.97596 2.83203 5.36719C3.3881 4.27585 4.27585 3.3881 5.36719 2.83203C5.97596 2.52192 6.68781 2.36197 7.67578 2.28125C8.66614 2.20035 9.9165 2.2002 11.5996 2.2002Z" stroke="currentColor" stroke-width="0.4"/>
<path d="M13.9748 6.73047L15.8771 10.1615L13.9748 13.5925L12.0725 10.1615L13.9748 6.73047Z" fill="currentColor"/>
<path d="M20.2828 10.3437L18.2626 13.7066L14.3401 13.7747L16.3603 10.4118L20.2828 10.3437Z" fill="currentColor"/>
<path d="M20.308 17.6132L16.3855 17.5452L14.3653 14.1822L18.2878 14.2503L20.308 17.6132Z" fill="currentColor"/>
<path d="M14.0252 21.2695L12.1229 17.8385L14.0252 14.4075L15.9275 17.8385L14.0252 21.2695Z" fill="currentColor"/>
<path d="M7.71719 17.6563L9.73739 14.2934L13.6599 14.2253L11.6397 17.5882L7.71719 17.6563Z" fill="currentColor"/>
<path d="M7.69199 10.3868L11.6145 10.4548L13.6347 13.8178L9.71218 13.7497L7.69199 10.3868Z" fill="currentColor"/>
</svg>
