<svg viewBox="0 0 16 16" fill="none" xmlns="http://www.w3.org/2000/svg">
<g clip-path="url(#clip0_1226_20848)">
<path fill-rule="evenodd" clip-rule="evenodd" d="M12.2563 14.522C12.4709 14.674 12.7476 14.712 12.9943 14.6187C13.2409 14.5247 13.4223 14.314 13.4769 14.0587C14.0563 11.336 15.4616 4.4447 15.9889 1.96804C16.0289 1.78137 15.9623 1.58737 15.8156 1.4627C15.6689 1.33804 15.4656 1.30204 15.2843 1.36937C12.4889 2.40404 3.88026 5.63403 0.361599 6.93603C0.138265 7.0187 -0.0070681 7.23337 0.000265236 7.4687C0.00826524 7.7047 0.166932 7.90937 0.395599 7.97803C1.9736 8.45003 4.04493 9.1067 4.04493 9.1067C4.04493 9.1067 5.01293 12.03 5.5176 13.5167C5.58093 13.7034 5.72693 13.85 5.9196 13.9007C6.1116 13.9507 6.31693 13.898 6.46026 13.7627C7.27093 12.9974 8.52426 11.814 8.52426 11.814C8.52426 11.814 10.9056 13.56 12.2563 14.522ZM4.91627 8.73737L6.0356 12.4294L6.28426 10.0914C6.28426 10.0914 10.6089 6.1907 13.0743 3.96737C13.1463 3.90204 13.1563 3.7927 13.0963 3.71604C13.0369 3.63937 12.9276 3.62137 12.8456 3.67337C9.98827 5.49804 4.91627 8.73737 4.91627 8.73737Z" fill="currentColor"/>
</g>
<defs>
<clipPath id="clip0_1226_20848">
<rect width="16" height="16" fill="white"/>
</clipPath>
</defs>
</svg>
