<svg width="28" height="28" viewBox="0 0 28 28" fill="none" xmlns="http://www.w3.org/2000/svg">
<rect x="2.2" y="2.2" width="23.6" height="23.6" rx="5.8" stroke="currentColor" stroke-width="0.4"/>
<path d="M19.9731 9V16.7666L19.5945 17.2168L19.3191 17.5332C17.915 19.0889 16.0916 20.2928 14.0234 21.0264L13.5996 20.873C11.6345 20.1276 9.90001 18.9569 8.54809 17.4629L8.2641 17.1377L7.95215 16.7666V9L13.9626 7L19.9731 9ZM9.49471 16.293C10.6793 17.6976 12.2358 18.8023 14.0148 19.5098C15.727 18.806 17.2249 17.7279 18.3693 16.3672L18.4306 16.2939V10.208L13.9626 8.7082L9.49471 10.208V16.293Z" fill="currentColor"/>
<path d="M17.8016 10.7232V15.8867L17.5598 16.186L17.3839 16.3964C16.4871 17.4306 15.3225 18.231 14.0017 18.7187L13.731 18.6168C12.4759 18.1212 11.3681 17.3428 10.5046 16.3496L10.3233 16.1334L10.124 15.8867V10.7232L13.9628 9.39355L17.8016 10.7232Z" fill="currentColor"/>
</svg>
