<svg width="40" height="40" viewBox="0 0 40 40" fill="none" xmlns="http://www.w3.org/2000/svg">
<g clip-path="url(#clip0_1218_24173)">
<path d="M20 40C31.0457 40 40 31.0457 40 20C40 8.9543 31.0457 0 20 0C8.9543 0 0 8.9543 0 20C0 31.0457 8.9543 40 20 40Z" fill="#EF0027"/>
<path d="M27.415 12.3913L9.375 9.07129L18.8688 32.9613L32.0975 16.8438L27.415 12.3913ZM27.125 13.8538L29.885 16.4775L22.3375 17.8438L27.125 13.8538ZM20.6975 17.57L12.7425 10.9725L25.745 13.365L20.6975 17.57ZM20.1312 18.7375L18.8338 29.4625L11.84 11.8588L20.1312 18.7375ZM21.3313 19.3063L29.69 17.7938L20.1025 29.4725L21.3313 19.3063Z" fill="white"/>
</g>
<defs>
<clipPath id="clip0_1218_24173">
<rect width="40" height="40" fill="white"/>
</clipPath>
</defs>
</svg>
