<svg width="28" height="23" fill="none" xmlns="http://www.w3.org/2000/svg"><g clip-path="url(#a)"><path d="M24.328 6.265A11.456 11.456 0 0 0 27 3.507c-.975.426-2.008.704-3.064.825a5.314 5.314 0 0 0 2.343-2.936 10.493 10.493 0 0 1-3.382 1.287A5.316 5.316 0 0 0 19.003 1a5.326 5.326 0 0 0-5.329 5.33c.002.41.046.819.132 1.22A15.147 15.147 0 0 1 2.814 1.973a5.293 5.293 0 0 0-.726 2.693 5.325 5.325 0 0 0 2.376 4.438 5.366 5.366 0 0 1-2.41-.676v.066a5.329 5.329 0 0 0 4.272 5.23 5.63 5.63 0 0 1-1.402.185 6.72 6.72 0 0 1-1.006-.083 5.338 5.338 0 0 0 4.984 3.688 10.672 10.672 0 0 1-6.615 2.277c-.43.002-.86-.02-1.287-.067 2.44 1.569 5.281 2.4 8.183 2.393 9.8 0 15.161-8.118 15.161-15.162 0-.231 0-.462-.016-.69Z" fill="#91929E"/></g><defs><clipPath id="a"><path fill="#fff" d="M0 0h28v22.741H0z"/></clipPath></defs></svg>