<svg height="32" viewBox="0 0 32 32" width="32" xmlns="http://www.w3.org/2000/svg"><path d="m0 0h32v32h-32z" fill="none"/><path d="m13.078-23.2a13.076 13.076 0 0 0 -13.078 13.075 13.076 13.076 0 0 0 13.078 13.078 13.076 13.076 0 0 0 13.078-13.078 13.076 13.076 0 0 0 -13.078-13.075zm6.423 8.96-2.146 10.111c-.158.717-.585.891-1.181.554l-3.274-2.41-1.573 1.518a.825.825 0 0 1 -.659.322l.232-3.327 6.059-5.474c.264-.232-.058-.364-.406-.132l-7.488 4.714-3.227-1.007c-.7-.221-.717-.7.148-1.039l12.609-4.862c.585-.211 1.096.142.905 1.028z" fill="#91929e" transform="translate(3 26.203)"/></svg>