<svg width="24" height="24" viewBox="0 0 24 24" fill="none" xmlns="http://www.w3.org/2000/svg">
<path fill-rule="evenodd" clip-rule="evenodd" d="M24 12C24 14.3734 23.2962 16.6935 21.9776 18.6668C20.6591 20.6402 18.7849 22.1783 16.5922 23.0866C14.3995 23.9948 11.9867 24.2324 9.65892 23.7694C7.33115 23.3064 5.19295 22.1635 3.51472 20.4853C1.83649 18.807 0.693605 16.6689 0.230582 14.3411C-0.232441 12.0133 0.00519941 9.60051 0.913451 7.4078C1.8217 5.21508 3.35977 3.34094 5.33316 2.02236C7.30655 0.703788 9.62663 0 12 0C15.1826 0 18.2348 1.26428 20.4853 3.51472C22.7357 5.76515 24 8.8174 24 12Z" fill="black"/>
<path fill-rule="evenodd" clip-rule="evenodd" d="M16.1981 6.81422C17.8919 6.96422 19.2329 7.49043 19.3817 9.05763C19.4643 9.50074 19.3989 9.9588 19.1955 10.3611C18.9921 10.7634 18.662 11.0875 18.2561 11.2836C19.5082 11.589 20.2919 12.3384 20.1364 14.0208C19.9445 16.1094 18.4007 16.6686 16.1951 16.7958V17.7822H14.8835V16.8222C14.5433 16.8222 14.1953 16.8222 13.8359 16.8114V17.7786H12.5225V16.7904C12.3708 16.7904 11.9482 16.7884 11.521 16.7863C11.0848 16.7842 10.644 16.782 10.4825 16.782L10.4921 15.6324H11.5859V7.98961L10.4915 7.98361L10.4957 6.81722C10.4957 6.81722 12.2399 6.81722 12.5237 6.81301V5.80981H13.8341V6.7698C14.1845 6.76321 14.5367 6.75662 14.8817 6.75662V5.8104H16.1926L16.1981 6.81422ZM14.1215 15.2142C15.1961 15.2298 17.5415 15.2634 17.5415 13.7556C17.5415 12.2141 15.284 12.267 14.1826 12.2928H14.1815C14.1169 12.2928 14.0554 12.2944 13.9984 12.2958L13.9338 12.2974C13.909 12.2979 13.8852 12.2982 13.8629 12.2982V15.2112H14.1191L14.1215 15.2142ZM14.0825 10.9704H14.0832C14.9806 10.9854 16.9337 11.018 16.9337 9.65041C16.9337 8.24962 15.0563 8.29862 14.1369 8.32261C14.0331 8.32261 13.9409 8.3274 13.8659 8.3274V10.9674H14.0825V10.9704Z" fill="white"/>
<path d="M7.37334 8.59921H5.26074V10.7298H7.37275V12.8598H5.26074V14.9904H7.37334L7.37275 12.8598H9.48535V10.7292H7.37334V8.59921Z" fill="white"/>
<path d="M5.25957 10.7292H3.14697V12.8598H5.25957V10.7292Z" fill="white"/>
</svg>
