<svg xmlns="http://www.w3.org/2000/svg" width="19.989" height="19.996"><defs><clipPath id="a"><path data-name="Path 4575" d="M1.76 0A1.761 1.761 0 0 0 0 1.761v16.474A1.76 1.76 0 0 0 1.76 20h10.822l7.407-7.409V1.761A1.76 1.76 0 0 0 18.229 0Z" fill="none"/></clipPath><clipPath id="c"><path data-name="Rectangle 536" fill="none" d="M0 0h19.989v19.996H0z"/></clipPath><linearGradient id="b" x1=".616" y1=".027" x2=".377" y2=".974" gradientUnits="objectBoundingBox"><stop offset="0" stop-color="#348bed"/><stop offset=".13" stop-color="#348bed"/><stop offset=".31" stop-color="#2b80e8"/><stop offset=".64" stop-color="#1461db"/><stop offset=".72" stop-color="#0e57d7"/><stop offset="1" stop-color="#0e57d7"/></linearGradient></defs><g data-name="Group 384"><g data-name="Group 383" clip-path="url(#a)"><path data-name="Rectangle 535" transform="rotate(-60 8.658 14.997)" fill="url(#b)" d="M0 0h27.311v27.309H0z"/></g></g><g data-name="Group 386"><g data-name="Group 385" clip-path="url(#c)"><path data-name="Path 4576" d="M12.582 19.995h5.647a1.761 1.761 0 0 0 1.76-1.761v-5.648Z" fill="#2970d8"/><path data-name="Path 4577" d="m17.076 9.316-3.168-3.169-.005-.005-.012-.011a.858.858 0 0 0-.065-.055.459.459 0 0 0-.05-.035l-.022-.014a.859.859 0 0 0-1.147.191L7.68 11.147V6.758a.87.87 0 1 0-1.739-.059v4.448l-1.8-1.8a.87.87 0 1 0-1.23 1.23l3.284 3.285a.888.888 0 0 0 .065.059.707.707 0 0 0 .069.05.862.862 0 0 0 .392.141h.097a.469.469 0 0 0 .071 0h.017a.342.342 0 0 0 .067-.01h.01a.716.716 0 0 0 .073-.018.811.811 0 0 0 .078-.028.854.854 0 0 0 .1-.053l.019-.012a.769.769 0 0 0 .095-.067s.005 0 .008-.007a.715.715 0 0 0 .054-.05l4.991-4.993v4.377a.87.87 0 0 0 1.739.083V8.857l1.689 1.689a.87.87 0 0 0 1.23-1.231Z" fill="#fff"/></g></g></svg>