<svg xmlns="http://www.w3.org/2000/svg" width="28" height="22.741" viewBox="0 0 28 22.741">
  <path id="ic_twitter" d="M25.122-16.2A12.335,12.335,0,0,0,28-19.17a11.5,11.5,0,0,1-3.3.888,5.723,5.723,0,0,0,2.523-3.162,11.3,11.3,0,0,1-3.642,1.386,5.725,5.725,0,0,0-4.193-1.812,5.736,5.736,0,0,0-5.739,5.739,6.478,6.478,0,0,0,.142,1.315A16.312,16.312,0,0,1,1.954-20.822a5.7,5.7,0,0,0-.782,2.9,5.735,5.735,0,0,0,2.558,4.779,5.779,5.779,0,0,1-2.594-.728v.071a5.739,5.739,0,0,0,4.6,5.632,6.068,6.068,0,0,1-1.51.2,7.233,7.233,0,0,1-1.084-.089A5.749,5.749,0,0,0,8.51-4.086,11.493,11.493,0,0,1,1.386-1.634,11.876,11.876,0,0,1,0-1.706,16.217,16.217,0,0,0,8.812.871C19.366.871,25.14-7.871,25.14-15.457,25.14-15.706,25.14-15.954,25.122-16.2Z" transform="translate(0 21.871)" fill="#91929e"/>
</svg>
