<svg width="1em" height="1em" viewBox="0 0 28 28" fill="none" xmlns="http://www.w3.org/2000/svg">
  <path
    d="M8.75 3.5C9.39433 3.5 9.91667 4.02233 9.91667 4.66667V5.84473C11.2248 5.96265 12.25 7.06138 12.25 8.40023V19.5998C12.25 20.9386 11.2248 22.0362 9.91667 22.1541V23.3333C9.91667 23.9777 9.39433 24.5 8.75 24.5C8.10567 24.5 7.58333 23.9777 7.58333 23.3333V22.1541C6.27524 22.0362 5.25 20.9386 5.25 19.5998V8.40023C5.25 7.06138 6.27519 5.96265 7.58333 5.84473V4.66667C7.58333 4.02233 8.10567 3.5 8.75 3.5ZM19.25 3.5C19.8943 3.5 20.4167 4.02233 20.4167 4.66667V8.17806C21.7248 8.29599 22.75 9.39471 22.75 10.7336V17.2664C22.75 18.6053 21.7248 19.7028 20.4167 19.8208V23.3333C20.4167 23.9777 19.8943 24.5 19.25 24.5C18.6057 24.5 18.0833 23.9777 18.0833 23.3333V19.8208C16.7752 19.7028 15.75 18.6053 15.75 17.2664V10.7336C15.75 9.39471 16.7752 8.29599 18.0833 8.17806V4.66667C18.0833 4.02233 18.6057 3.5 19.25 3.5Z"
    fill="currentColor" />
</svg>
