<svg width="265" height="265" viewBox="0 0 265 265" fill="none" xmlns="http://www.w3.org/2000/svg">
<rect x="24.6035" y="24.7369" width="215.31" height="215.31" rx="49.4172" fill="#FF7028"/>
<rect x="116.388" y="138.488" width="45.7188" height="22.3863" fill="white"/>
<rect x="138.773" y="83.0763" width="76.383" height="22.3863" transform="rotate(90 138.773 83.0763)" fill="white"/>
<rect x="155.791" y="169.578" width="39.8927" height="21.0733" transform="rotate(90 155.791 169.578)" fill="white"/>
<path d="M155.626 189.273C166.14 189.246 176.213 185.043 183.628 177.589C191.043 170.135 195.193 160.041 195.166 149.527C195.139 139.013 190.936 128.94 183.482 121.525C176.028 114.11 165.933 109.959 155.419 109.987L155.471 129.706C160.755 129.692 165.828 131.778 169.574 135.505C173.32 139.232 175.433 144.294 175.446 149.578C175.46 154.862 173.374 159.935 169.648 163.682C165.921 167.428 160.859 169.54 155.575 169.554L155.626 189.273Z" fill="white"/>
<path d="M99.1847 190.423C107.361 193.211 115.753 191.706 124.195 192.196V169.764C120.931 169.764 117.909 169.88 114.9 169.74C107.957 169.418 104.227 165.84 103.489 158.913C103.345 157.56 103.344 156.188 103.342 154.825V154.824C103.33 145.175 103.332 135.526 103.342 125.877C103.344 124.937 103.429 123.997 103.495 122.653V100.491C81.7654 100.717 100.391 100.127 81.5471 100.491V122.768H80.9814C80.9814 124.282 80.979 125.422 80.9822 126.563C81.0181 139.914 80.8542 153.269 81.1546 166.615C81.4035 177.692 88.6656 186.837 99.1847 190.423Z" fill="white"/>
<rect x="80.9844" y="78.2009" width="22.3627" height="72.7239" fill="white"/>
<mask id="path-8-outside-1_301_32" maskUnits="userSpaceOnUse" x="41.0859" y="64.2827" width="101" height="69" fill="black">
<rect fill="white" x="41.0859" y="64.2827" width="101" height="69"/>
<path d="M137.85 68.6645C137.85 79.2638 135.06 89.6763 129.76 98.8555C124.46 108.035 116.838 115.657 107.659 120.957C98.4795 126.256 88.067 129.046 77.4678 129.046C66.8685 129.046 56.4561 126.256 47.2769 120.957L58.4404 101.621C64.2254 104.961 70.7878 106.719 77.4678 106.719C84.1478 106.719 90.7101 104.961 96.4952 101.621C102.28 98.281 107.084 93.477 110.424 87.692C113.764 81.9069 115.523 75.3446 115.523 68.6645H137.85Z"/>
</mask>
<path d="M137.85 68.6645C137.85 79.2638 135.06 89.6763 129.76 98.8555C124.46 108.035 116.838 115.657 107.659 120.957C98.4795 126.256 88.067 129.046 77.4678 129.046C66.8685 129.046 56.4561 126.256 47.2769 120.957L58.4404 101.621C64.2254 104.961 70.7878 106.719 77.4678 106.719C84.1478 106.719 90.7101 104.961 96.4952 101.621C102.28 98.281 107.084 93.477 110.424 87.692C113.764 81.9069 115.523 75.3446 115.523 68.6645H137.85Z" fill="white"/>
<path d="M137.85 68.6645C137.85 79.2638 135.06 89.6763 129.76 98.8555C124.46 108.035 116.838 115.657 107.659 120.957C98.4795 126.256 88.067 129.046 77.4678 129.046C66.8685 129.046 56.4561 126.256 47.2769 120.957L58.4404 101.621C64.2254 104.961 70.7878 106.719 77.4678 106.719C84.1478 106.719 90.7101 104.961 96.4952 101.621C102.28 98.281 107.084 93.477 110.424 87.692C113.764 81.9069 115.523 75.3446 115.523 68.6645H137.85Z" stroke="#FF7028" stroke-width="7.90183" mask="url(#path-8-outside-1_301_32)"/>
<path d="M126.637 45.1284L150.66 73.5893H102.614L126.637 45.1284Z" fill="white"/>
</svg>
