<svg id="ic_tether_24" xmlns="http://www.w3.org/2000/svg" width="24" height="24" viewBox="0 0 24 24">
  <rect id="Rectangle_179" data-name="Rectangle 179" width="24" height="24" fill="none"/>
  <path id="Path_1467" data-name="Path 1467" d="M23.633,14.9A11.993,11.993,0,1,1,14.9.36,11.994,11.994,0,0,1,23.633,14.9h0Z" transform="translate(0.004 -0.001)" fill="#50af95"/>
  <path id="Path_1483" data-name="Path 1483" d="M72.476,48.1h0c-.079.007-.487.035-1.4.035-.724,0-1.238-.025-1.419-.035h0c-2.8-.141-4.887-.7-4.887-1.365s2.089-1.224,4.887-1.367V47.55c.183.015.707.05,1.431.05.869,0,1.3-.041,1.382-.05V45.374c2.793.142,4.877.7,4.877,1.365s-2.084,1.223-4.877,1.365h0Zm0-2.956V43.2h3.9V40.23H65.762V43.2h3.9v1.947c-3.167.166-5.549.884-5.549,1.744s2.382,1.577,5.549,1.744v6.243h2.816V48.634c3.16-.166,5.538-.883,5.538-1.743s-2.376-1.576-5.538-1.743h0Zm0,0Z" transform="translate(-59.063 -34.578)" fill="#fff"/>
</svg>
