<svg width="40" height="40" viewBox="0 0 40 40" fill="none" xmlns="http://www.w3.org/2000/svg">
<rect width="40" height="40" rx="20" fill="white"/>
<path d="M22.4286 26.4705V17.4567C22.4286 15.1553 20.619 13.3333 18.3333 13.3333V27.813C18.3333 29.9226 19.9524 31.6487 22.0476 31.6487C22.1429 31.6487 22.1429 31.6487 22.2381 31.6487C23.1905 31.7446 24.2381 31.4569 25 30.7857C22.619 30.5939 22.4286 29.1555 22.4286 26.4705Z" fill="#292929"/>
<path d="M13.6278 10C11.6744 10 10 11.5 10 13.3333H26.3718C28.4182 13.3333 29.9996 11.8333 29.9996 10C30.0926 10 13.6278 10 13.6278 10Z" fill="#292929"/>
</svg>
