<svg xmlns="http://www.w3.org/2000/svg" width="93" height="64" viewBox="0 0 93 64">
  <g id="ic_tokens" transform="translate(-0.25 -0.219)">
    <rect id="ic_base_token" width="93" height="64" transform="translate(0.25 0.219)" fill="none"/>
    <g id="Group_116" data-name="Group 116" transform="translate(4.657 4.157)">
      <ellipse id="Ellipse_21" data-name="Ellipse 21" cx="28.5" cy="28" rx="28.5" ry="28" transform="translate(-0.407 0.062)" fill="#303fd0"/>
      <circle id="Ellipse_22" data-name="Ellipse 22" cx="24" cy="24" r="24" transform="translate(27.593 8.062)" fill="rgba(3,209,207,0.99)"/>
      <path id="Intersection_6" data-name="Intersection 6" d="M-2,24.968A28.2,28.2,0,0,1,14.135-.523,24.17,24.17,0,0,1,6.247,44.891,28.1,28.1,0,0,1-2,24.968Z" transform="translate(54.583 53.029) rotate(180)" fill="#50d0fe"/>
      <ellipse id="Ellipse_23" data-name="Ellipse 23" cx="16.5" cy="16" rx="16.5" ry="16" transform="translate(51.593 24.062)" fill="#fff"/>
      <path id="Intersection_7" data-name="Intersection 7" d="M.838,28.805A24.2,24.2,0,0,1,15.255,0a16.112,16.112,0,0,1-7.2,30.524A15.857,15.857,0,0,1,.838,28.805Z" transform="translate(75.725 54.559) rotate(180)" fill="#52f6ff"/>
    </g>
  </g>
</svg>
