<svg width="1em" height="1em" viewBox="0 0 24 24" fill="none" xmlns="http://www.w3.org/2000/svg">
  <g clip-path="url(#clip0_5528_217849)">
    <path
      d="M12.0067 24.0134C18.6378 24.0134 24.0134 18.6378 24.0134 12.0067C24.0134 5.37559 18.6378 0 12.0067 0C5.37559 0 0 5.37559 0 12.0067C0 18.6378 5.37559 24.0134 12.0067 24.0134Z"
      fill="url(#paint0_linear_5528_217849)" />
    <path
      d="M19.5892 11.273L16.1979 7.88163L16.1918 7.87548L16.1783 7.86373C16.1564 7.84389 16.1334 7.82522 16.1095 7.80778C16.0927 7.79436 16.076 7.78149 16.058 7.76974C16.0502 7.76415 16.0424 7.75967 16.034 7.75464C15.8407 7.62801 15.6068 7.57871 15.3788 7.61654C15.1508 7.65437 14.9453 7.77655 14.8032 7.95883L9.52882 13.2338V8.5345C9.52882 8.28746 9.43068 8.05053 9.256 7.87585C9.08131 7.70116 8.84439 7.60303 8.59735 7.60303C8.35031 7.60303 8.11338 7.70116 7.9387 7.87585C7.76402 8.05053 7.66588 8.28746 7.66588 8.5345V13.2338L5.74029 11.3082C5.56427 11.1404 5.3296 11.048 5.08641 11.0509C4.84322 11.0538 4.61081 11.1517 4.43884 11.3237C4.26686 11.4956 4.16897 11.7281 4.16608 11.9713C4.16319 12.2144 4.25553 12.4491 4.42336 12.6251L7.93889 16.1406C7.96098 16.163 7.98433 16.1841 8.00882 16.2039C8.03232 16.2229 8.05693 16.2413 8.08155 16.2598C8.20857 16.3421 8.35373 16.3922 8.50448 16.4058H8.5084C8.53861 16.4086 8.56882 16.4103 8.59903 16.4103H8.61301C8.63837 16.4103 8.66355 16.4092 8.68854 16.4069H8.707C8.73106 16.4041 8.75511 16.4014 8.77861 16.3963H8.78924C8.81553 16.3907 8.84182 16.3846 8.86756 16.3767H8.87204C8.90012 16.3683 8.92776 16.3584 8.95483 16.3471C8.99342 16.3311 9.03081 16.3124 9.06672 16.2911L9.08798 16.2788C9.12316 16.2573 9.15681 16.2334 9.18868 16.2072L9.19819 16.1988C9.21777 16.1821 9.23735 16.1653 9.25413 16.1462L14.6024 10.7946V15.4794C14.6024 15.7264 14.7005 15.9634 14.8752 16.138C15.0499 16.3127 15.2868 16.4109 15.5339 16.4109C15.7809 16.4109 16.0178 16.3127 16.1925 16.138C16.3672 15.9634 16.4653 15.7264 16.4653 15.4794V10.7801L18.2723 12.5904C18.4477 12.7617 18.6836 12.8568 18.9287 12.8553C19.1738 12.8538 19.4085 12.7558 19.5818 12.5824C19.755 12.409 19.853 12.1743 19.8544 11.9292C19.8558 11.6841 19.7605 11.4483 19.5892 11.273Z"
      fill="white" />
  </g>
  <defs>
    <linearGradient id="paint0_linear_5528_217849" x1="1.60671" y1="6.00224" x2="22.4067"
      y2="18.0106" gradientUnits="userSpaceOnUse">
      <stop offset="0.13" stop-color="#348BED" />
      <stop offset="0.31" stop-color="#2B80E8" />
      <stop offset="0.64" stop-color="#1461DB" />
      <stop offset="0.72" stop-color="#0E57D7" />
    </linearGradient>
    <clipPath id="clip0_5528_217849">
      <rect width="24" height="24" fill="white" />
    </clipPath>
  </defs>
</svg>
  
