<svg width="40" height="40" viewBox="0 0 40 40" fill="none" xmlns="http://www.w3.org/2000/svg">
<g clip-path="url(#clip0_227_5)">
<path d="M40 20C40 8.9543 31.0457 0 20 0C8.9543 0 0 8.9543 0 20C0 31.0457 8.9543 40 20 40C31.0457 40 40 31.0457 40 20Z" fill="#7A2BF9"/>
<path fill-rule="evenodd" clip-rule="evenodd" d="M33.7445 26.0075C34.5433 24.1802 34.9697 22.2117 34.9985 20.2175C35.0273 18.2232 34.6583 16.2432 33.9128 14.3934C33.1673 12.5435 32.0605 10.8609 30.657 9.44392C29.2533 8.02695 27.5813 6.90412 25.7387 6.14114C23.896 5.37812 21.9197 4.99024 19.9253 5.00019C17.9307 5.01015 15.9584 5.41774 14.1234 6.19909C12.2883 6.98047 10.6276 8.11994 9.23828 9.55082C7.84893 10.9817 6.7589 12.6753 6.03195 14.5326C4.60033 18.19 4.66033 22.263 6.1991 25.8765C7.73786 29.4903 10.6326 32.3563 14.2614 33.859C17.8903 35.3615 21.9638 35.3808 25.6067 33.9128C29.2497 32.4447 32.1713 29.6065 33.7445 26.0075ZM17.5632 6.70444C16.7852 6.81692 15.9226 7.0513 14.9757 7.41692C13.8814 7.83074 12.8473 8.38877 11.9007 9.07629C11.7507 9.1888 12.1257 9.35754 12.4819 9.2919C13.9538 9.0294 15.3601 9.16067 16.8225 9.32005C17.4318 9.39505 18.3507 9.58255 19.5977 9.9013C19.8788 9.96692 20.132 9.8263 20.282 9.58255C20.8093 8.62794 21.4975 7.7716 22.3165 7.0513C22.3468 7.02875 22.3697 6.99745 22.3822 6.96155C22.3945 6.92567 22.3958 6.88687 22.3855 6.85029C22.3755 6.8137 22.3545 6.78107 22.3253 6.75669C22.2962 6.73232 22.2603 6.71735 22.2227 6.71379C21.3168 6.54549 20.3967 6.47009 19.4758 6.48879C18.8288 6.50755 18.2007 6.62004 17.5632 6.70444ZM19.8133 20.1293C19.9913 20.1293 20.1693 20.0825 20.3568 19.9888L22.3257 19.0512C24.1475 18.1973 26.0467 17.5192 27.9977 17.0263C28.4382 16.9137 28.7662 16.5014 28.7102 16.07C28.6633 15.695 28.607 15.3482 28.5227 15.0013C28.3913 14.345 27.7725 13.9325 27.2288 13.5669L26.9758 13.4075C25.6787 12.5071 24.2972 11.7347 22.8507 11.1013L21.5945 10.5669C21.3693 10.4638 21.3133 10.3044 21.4257 10.0982C21.9602 9.06692 22.8693 7.94192 23.957 7.5763C25.2413 7.14504 26.46 8.27942 27.0977 9.2638C27.632 10.1075 28.0727 11.0263 28.4102 12.0388C28.8695 13.445 29.1883 14.8794 29.3475 16.3231C29.404 16.8295 29.4602 17.392 29.5068 18.0107C29.6008 19.2105 29.6008 20.4295 29.5353 21.6295V21.6762C29.5068 22.1262 29.4787 22.642 29.16 22.8855C25.8147 25.4198 22.1202 27.4565 18.1912 28.9325C17.1977 29.3077 16.1383 29.617 15.0319 29.8795C14.0663 30.1137 13.1569 30.2545 12.2851 30.3012C11.6288 30.3387 11.0101 30.2545 10.4476 30.048C9.04131 29.523 10.4757 27.517 11.0101 26.8887L11.9757 25.773C12.0507 25.6795 12.1632 25.5105 12.0695 25.3982C11.6476 24.8732 11.2444 24.8262 10.7944 25.2762C10.0913 25.9982 9.4632 26.8512 8.91945 27.8357C8.76006 28.1075 8.45068 27.9295 8.31943 27.7232C7.00713 25.6362 6.25183 23.2477 6.12568 20.7855C6.08818 20.0262 5.84443 17.7762 6.6882 17.3452C8.18818 22.098 12.5945 25.4543 16.8695 27.6295C17.2725 27.8357 17.6662 28.0043 18.0413 28.1263C18.5102 28.2762 19.2788 27.9202 19.6443 27.6577C19.8038 27.5543 19.8507 27.367 19.8318 27.1887L19.7007 26.5325C19.3352 24.8452 18.9508 23.1388 18.9508 21.4045C18.9508 20.27 18.9508 19.1825 19.1008 18.0107C19.3633 16.1076 19.8227 14.2982 20.3757 12.4513C20.4318 12.2638 20.3757 12.1232 20.1977 12.0388C19.9787 11.9341 19.7443 11.8645 19.5037 11.8325C19.4758 11.8325 19.4477 11.8325 19.4195 11.8513C19.2783 11.9455 19.178 12.0895 19.1382 12.2544C18.8498 13.191 18.6122 14.1423 18.4258 15.1044C18.182 16.5108 17.8632 17.8232 17.7695 19.267C17.7413 19.8105 17.4882 20.073 16.982 20.3827C15.9788 20.9732 15.2663 21.5545 14.4976 22.1262L13.035 23.2045C12.6694 23.467 12.3226 23.167 12.0507 22.9327C9.86631 21.0575 7.71943 18.3388 7.70068 15.3013C7.70068 13.8388 8.2632 12.4419 9.51008 11.6169C11.1038 10.5669 13.1944 10.2669 15.0694 10.3794C15.6318 10.4169 16.1851 10.4732 16.7383 10.5575C20.807 11.1482 24.6695 13.0513 27.9037 15.62C28.035 15.7138 27.7162 15.8263 27.6602 15.8357C25.0352 16.5108 22.5038 17.5137 20.0663 18.7605C19.8133 18.8918 19.4852 20.1482 19.8227 20.1293H19.8133ZM17.9758 26.7668L18.3977 26.9357C18.4818 26.9637 18.557 26.8887 18.5288 26.8138C18.0038 25.07 17.8725 23.2325 17.7318 21.4327C16.3257 22.2857 15.0788 23.1762 13.7944 24.1888C15.0822 25.2093 16.4856 26.0745 17.9758 26.7668ZM29.3568 11.0263C29.2633 10.82 29.1977 10.6232 29.132 10.4263C29.057 10.1732 29.3757 10.2482 29.4695 10.3326C30.6557 11.5338 31.6372 12.9208 32.3757 14.4388C32.432 14.5513 32.8257 15.4326 32.4975 15.4044C32.029 15.3669 31.5318 15.3388 30.9975 15.3201C30.8562 15.3225 30.7185 15.275 30.6087 15.1858C30.4987 15.0966 30.4242 14.9715 30.3975 14.8325C30.1737 13.5333 29.8252 12.2587 29.3568 11.0263ZM32.9193 18.9575C33.0602 18.7605 33.1727 18.5262 33.2663 18.2637C33.3977 17.898 33.5288 17.467 33.2477 17.1482C32.8538 16.7077 32.0945 16.5294 31.4757 16.52L31.1477 16.5294C31.1118 16.5298 31.0772 16.5403 31.0473 16.5598C31.0173 16.5792 30.9935 16.6068 30.9787 16.6394C30.964 16.6718 30.9588 16.7078 30.9638 16.743C30.9688 16.7785 30.9838 16.8118 31.0068 16.8388L32.6008 18.967C32.6943 19.0702 32.8538 19.0607 32.9288 18.967L32.9193 18.9575ZM31.71 20.5512C31.4852 20.8327 31.2227 21.0857 30.9225 21.3013C30.8007 21.3855 30.7727 21.142 30.7727 21.0857C30.7912 20.5138 30.7912 19.9607 30.7727 19.4545C30.7727 19.3045 30.7727 19.1637 30.7912 19.042C30.8102 18.9107 30.979 18.8638 31.0632 18.967C31.3257 19.2855 31.5508 19.6325 31.7382 20.017C31.8227 20.1857 31.832 20.3918 31.71 20.542V20.5512ZM30.2193 27.9202C31.0378 27.5887 31.7365 27.0172 32.2233 26.2808C32.7103 25.5443 32.963 24.6777 32.9477 23.7952C32.9477 23.3263 32.8633 22.9045 32.7788 22.4637C32.7473 22.263 32.6668 22.0728 32.5445 21.9105C32.508 21.8682 32.4573 21.8412 32.4018 21.834C32.3465 21.827 32.2902 21.8412 32.2445 21.8732C31.8695 22.1545 31.5225 22.4637 31.1287 22.8107C30.735 23.1575 30.5943 23.5232 30.5382 24.0105C30.3888 25.2303 30.1473 26.4368 29.8162 27.62C29.7507 27.8545 30.0227 28.0137 30.2193 27.9202ZM23.1695 28.0887C25.1913 27.0717 27.1318 25.8995 28.9727 24.5827C29.0943 24.4982 29.16 24.5262 29.16 24.6762C29.1788 24.817 29.16 24.9575 29.1415 25.0982C28.9298 26.1417 28.6672 27.1742 28.354 28.192C28.325 28.2965 28.2645 28.3898 28.1805 28.4587C28.0968 28.5273 27.9933 28.5685 27.8852 28.5763C26.432 28.7918 25.007 28.6887 23.5445 28.5107C23.3008 28.4825 22.7008 28.3232 23.1695 28.0887ZM29.2257 30.4325L29.9663 29.6543C30.0603 29.5512 29.9475 29.3732 29.8068 29.4107C29.6382 29.467 29.1977 29.5045 29.1132 29.692L28.8038 30.3482C28.682 30.6107 29.1132 30.5545 29.2257 30.4325ZM20.9007 30.1887L20.6477 29.6357C20.5727 29.467 20.6288 29.2045 20.8352 29.1763C20.9288 29.1763 21.0132 29.1763 21.1163 29.2045C21.9602 29.448 22.7102 29.617 23.3757 29.7013C24.6225 29.87 25.8318 29.9825 27.0883 29.9357C27.1818 29.9357 27.6412 29.8982 27.5382 30.1137C26.8352 31.6325 25.3537 33.7887 23.385 33.0857C23.0102 32.945 22.5413 32.5795 22.26 32.27C21.6982 31.6538 21.2393 30.9508 20.9007 30.1887ZM12.5569 31.9327C14.0893 32.8797 15.7885 33.5258 17.5632 33.8357C18.8475 34.0888 20.207 34.0232 21.5007 33.967C21.6413 33.967 22.0163 33.817 21.8383 33.62C21.4913 33.2452 21.0977 32.842 20.807 32.4577C20.3383 31.8013 19.9445 31.1075 19.635 30.3577C19.4945 30.0202 19.3818 29.8232 18.9787 29.9638C17.7883 30.4232 16.5132 30.8077 15.1538 31.117C14.2257 31.3327 13.3538 31.3982 12.4351 31.6045C12.2288 31.642 12.5007 31.895 12.5569 31.9327Z" fill="white"/>
</g>
<defs>
<clipPath id="clip0_227_5">
<rect width="40" height="40" fill="white"/>
</clipPath>
</defs>
</svg>
