<svg width="24" height="24" viewBox="0 0 24 24" fill="none" xmlns="http://www.w3.org/2000/svg">
<rect width="24" height="24" rx="12" fill="#7A2BF9"/>
<path fill-rule="evenodd" clip-rule="evenodd" d="M20.2467 15.6045C20.726 14.5081 20.9818 13.327 20.9991 12.1305C21.0164 10.9339 20.795 9.74594 20.3477 8.63602C19.9004 7.5261 19.2363 6.51653 18.3942 5.66635C17.552 4.81617 16.5488 4.14247 15.4432 3.68468C14.3376 3.22687 13.1518 2.99414 11.9552 3.00011C10.7584 3.00609 9.57507 3.25064 8.47402 3.71945C7.37301 4.18828 6.37658 4.87196 5.54297 5.73049C4.70936 6.58904 4.05534 7.60518 3.61917 8.71953C2.7602 10.914 2.7962 13.3578 3.71946 15.5259C4.64272 17.6942 6.37956 19.4138 8.55685 20.3154C10.7342 21.2169 13.1783 21.2285 15.364 20.3477C17.5498 19.4668 19.3028 17.7639 20.2467 15.6045ZM10.5379 4.02266C10.0711 4.09015 9.55354 4.23078 8.98542 4.45015C8.32884 4.69844 7.70837 5.03326 7.14042 5.44577C7.05042 5.51328 7.27542 5.61452 7.48917 5.57514C8.37229 5.41764 9.21605 5.4964 10.0935 5.59203C10.4591 5.63703 11.0104 5.74953 11.7586 5.94078C11.9273 5.98015 12.0792 5.89578 12.1692 5.74953C12.4856 5.17676 12.8985 4.66296 13.3899 4.23078C13.4081 4.21725 13.4218 4.19847 13.4293 4.17693C13.4367 4.1554 13.4375 4.13212 13.4313 4.11017C13.4253 4.08822 13.4127 4.06864 13.3952 4.05401C13.3777 4.03939 13.3562 4.03041 13.3336 4.02827C12.7901 3.92729 12.238 3.88205 11.6855 3.89327C11.2973 3.90453 10.9204 3.97202 10.5379 4.02266ZM11.888 12.0776C11.9948 12.0776 12.1016 12.0495 12.2141 11.9933L13.3954 11.4307C14.4885 10.9184 15.628 10.5115 16.7986 10.2158C17.0629 10.1482 17.2597 9.90081 17.2261 9.64199C17.198 9.41702 17.1642 9.20889 17.1136 9.00077C17.0348 8.60702 16.6635 8.35952 16.3373 8.14015L16.1855 8.04452C15.4072 7.50423 14.5783 7.0408 13.7104 6.66078L12.9567 6.34015C12.8216 6.27828 12.788 6.18265 12.8554 6.05889C13.1761 5.44015 13.7216 4.76515 14.3742 4.54578C15.1448 4.28702 15.876 4.96765 16.2586 5.55828C16.5792 6.06452 16.8436 6.61578 17.0461 7.22328C17.3217 8.06702 17.513 8.92765 17.6085 9.79385C17.6424 10.0977 17.6761 10.4352 17.7041 10.8064C17.7605 11.5263 17.7605 12.2577 17.7212 12.9777V13.0057C17.7041 13.2757 17.6872 13.5852 17.496 13.7313C15.4888 15.2519 13.2721 16.4739 10.9147 17.3595C10.3186 17.5846 9.68296 17.7702 9.01917 17.9277C8.4398 18.0682 7.89417 18.1527 7.37104 18.1807C6.97729 18.2032 6.60604 18.1527 6.26855 18.0288C5.42479 17.7138 6.28542 16.5102 6.60604 16.1332L7.18542 15.4638C7.23041 15.4077 7.29792 15.3063 7.24168 15.2389C6.98854 14.9239 6.74667 14.8957 6.47667 15.1657C6.05479 15.5989 5.67792 16.1107 5.35167 16.7014C5.25604 16.8645 5.07041 16.7577 4.99166 16.6339C4.20428 15.3817 3.7511 13.9486 3.67541 12.4713C3.65291 12.0157 3.50666 10.6657 4.01292 10.4071C4.91291 13.2588 7.55668 15.2726 10.1217 16.5777C10.3635 16.7014 10.5997 16.8026 10.8248 16.8758C11.1061 16.9657 11.5673 16.7521 11.7866 16.5946C11.8823 16.5326 11.9104 16.4202 11.8991 16.3132L11.8204 15.9195C11.6011 14.9071 11.3705 13.8833 11.3705 12.8427C11.3705 12.162 11.3705 11.5095 11.4605 10.8064C11.618 9.66456 11.8936 8.57889 12.2254 7.47078C12.2591 7.35827 12.2254 7.2739 12.1186 7.22328C11.9872 7.16046 11.8466 7.1187 11.7022 7.09952C11.6855 7.09952 11.6686 7.09952 11.6517 7.11077C11.567 7.16732 11.5068 7.25369 11.4829 7.35265C11.3099 7.91458 11.1673 8.4854 11.0555 9.06265C10.9092 9.90645 10.7179 10.6939 10.6617 11.5602C10.6448 11.8863 10.4929 12.0438 10.1892 12.2296C9.58727 12.5839 9.15979 12.9327 8.69855 13.2757L7.82103 13.9227C7.60167 14.0802 7.39354 13.9002 7.23041 13.7596C5.91979 12.6345 4.63166 11.0033 4.62041 9.18078C4.62041 8.30328 4.95792 7.46514 5.70605 6.97014C6.6623 6.34014 7.91667 6.16015 9.04166 6.22765C9.37911 6.25015 9.71104 6.28389 10.043 6.33452C12.4842 6.68889 14.8017 7.83078 16.7422 9.37202C16.821 9.42828 16.6297 9.49578 16.5961 9.50139C15.0211 9.90645 13.5023 10.5082 12.0398 11.2563C11.888 11.3351 11.6911 12.0889 11.8936 12.0776H11.888ZM10.7855 16.0601L11.0386 16.1614C11.0891 16.1782 11.1342 16.1332 11.1173 16.0883C10.8023 15.042 10.7235 13.9395 10.6391 12.8596C9.79543 13.3714 9.0473 13.9057 8.27667 14.5133C9.04932 15.1256 9.89138 15.6447 10.7855 16.0601ZM17.6141 6.61577C17.558 6.49202 17.5186 6.37389 17.4792 6.25577C17.4342 6.1039 17.6254 6.1489 17.6817 6.19953C18.3934 6.92026 18.9823 7.75248 19.4254 8.66327C19.4592 8.73078 19.6954 9.25953 19.4985 9.24265C19.2174 9.22015 18.9191 9.20328 18.5985 9.19203C18.5137 9.19352 18.4311 9.165 18.3652 9.11148C18.2992 9.05796 18.2545 8.98289 18.2385 8.89952C18.1042 8.11999 17.8951 7.35521 17.6141 6.61577ZM19.7516 11.3745C19.8361 11.2563 19.9036 11.1157 19.9598 10.9582C20.0386 10.7388 20.1173 10.4802 19.9486 10.2889C19.7123 10.0246 19.2567 9.91761 18.8854 9.91197L18.6886 9.91761C18.6671 9.91787 18.6463 9.92417 18.6284 9.93586C18.6104 9.94754 18.5961 9.96407 18.5872 9.98363C18.5784 10.0031 18.5753 10.0247 18.5783 10.0458C18.5813 10.0671 18.5903 10.0871 18.6041 10.1033L19.5605 11.3802C19.6166 11.4421 19.7123 11.4364 19.7573 11.3802L19.7516 11.3745ZM19.026 12.3307C18.8911 12.4996 18.7336 12.6514 18.5535 12.7808C18.4804 12.8313 18.4636 12.6852 18.4636 12.6514C18.4747 12.3083 18.4747 11.9764 18.4636 11.6727C18.4636 11.5827 18.4636 11.4982 18.4747 11.4252C18.4861 11.3464 18.5874 11.3183 18.6379 11.3802C18.7954 11.5713 18.9305 11.7795 19.0429 12.0102C19.0936 12.1114 19.0992 12.2351 19.026 12.3252V12.3307ZM18.1316 16.7521C18.6227 16.5532 19.0419 16.2103 19.334 15.7685C19.6262 15.3266 19.7778 14.8066 19.7686 14.2771C19.7686 13.9958 19.718 13.7427 19.6673 13.4782C19.6484 13.3578 19.6001 13.2437 19.5267 13.1463C19.5048 13.1209 19.4744 13.1047 19.4411 13.1004C19.4079 13.0962 19.3741 13.1047 19.3467 13.1239C19.1217 13.2927 18.9135 13.4782 18.6772 13.6864C18.441 13.8945 18.3566 14.1139 18.3229 14.4063C18.2333 15.1382 18.0884 15.8621 17.8897 16.572C17.8504 16.7127 18.0136 16.8082 18.1316 16.7521ZM13.9017 16.8532C15.1148 16.243 16.2791 15.5397 17.3836 14.7496C17.4566 14.6989 17.496 14.7157 17.496 14.8057C17.5073 14.8902 17.496 14.9745 17.4849 15.0589C17.3579 15.685 17.2003 16.3045 17.0124 16.9152C16.995 16.9779 16.9587 17.0339 16.9083 17.0752C16.8581 17.1164 16.796 17.1411 16.7311 17.1458C15.8592 17.2751 15.0042 17.2132 14.1267 17.1064C13.9805 17.0895 13.6205 16.9939 13.9017 16.8532ZM17.5354 18.2595L17.9798 17.7926C18.0362 17.7307 17.9685 17.6239 17.8841 17.6464C17.7829 17.6802 17.5186 17.7027 17.4679 17.8152L17.2823 18.2089C17.2092 18.3664 17.4679 18.3327 17.5354 18.2595ZM12.5404 18.1132L12.3886 17.7814C12.3436 17.6802 12.3773 17.5227 12.5011 17.5058C12.5573 17.5058 12.6079 17.5058 12.6698 17.5227C13.1761 17.6688 13.6261 17.7702 14.0254 17.8208C14.7735 17.922 15.4991 17.9895 16.253 17.9614C16.3091 17.9614 16.5847 17.9389 16.5229 18.0682C16.1011 18.9795 15.2122 20.2732 14.031 19.8514C13.8061 19.767 13.5248 19.5477 13.356 19.362C13.0189 18.9923 12.7436 18.5705 12.5404 18.1132ZM7.53417 19.1596C8.45358 19.7278 9.47309 20.1155 10.5379 20.3014C11.3085 20.4533 12.1242 20.4139 12.9004 20.3802C12.9848 20.3802 13.2098 20.2902 13.103 20.172C12.8948 19.9471 12.6586 19.7052 12.4842 19.4746C12.203 19.0808 11.9667 18.6645 11.781 18.2146C11.6967 18.0121 11.6291 17.8939 11.3872 17.9783C10.673 18.2539 9.90791 18.4846 9.09231 18.6702C8.53542 18.7996 8.01229 18.8389 7.46104 18.9627C7.33729 18.9852 7.50042 19.137 7.53417 19.1596Z" fill="white"/>
</svg>
