<svg width="24" height="24" viewBox="0 0 24 24" fill="none" xmlns="http://www.w3.org/2000/svg">
<rect width="24" height="24" rx="12" fill="white"/>
<path d="M13.4571 15.8823V10.474C13.4571 9.09317 12.3714 8 11 8V16.6878C11 17.9536 11.9714 18.9892 13.2286 18.9892C13.2857 18.9892 13.2857 18.9892 13.3429 18.9892C13.9143 19.0467 14.5429 18.8741 15 18.4714C13.5714 18.3563 13.4571 17.4933 13.4571 15.8823Z" fill="#292929"/>
<path d="M8.1767 6C7.00463 6 6 6.9 6 8H15.8231C17.0509 8 17.9998 7.1 17.9998 6C18.0556 6 8.1767 6 8.1767 6Z" fill="#292929"/>
</svg>
