<svg width="265" height="265" viewBox="0 0 265 265" fill="none" xmlns="http://www.w3.org/2000/svg">
<mask id="mask0_301_33" style="mask-type:alpha" maskUnits="userSpaceOnUse" x="21" y="23" width="219" height="219">
<rect x="21.999" y="23.769" width="217.462" height="217.462" rx="50.379" fill="url(#paint0_linear_301_33)"/>
</mask>
<g mask="url(#mask0_301_33)">
<rect x="12.8276" y="23.769" width="230.478" height="217.462" fill="url(#paint1_linear_301_33)"/>
<rect x="19.4033" y="20.6742" width="223.074" height="223.075" fill="#FF7028"/>
</g>
<path d="M77.0845 187.861C83.4569 190.034 89.9972 188.861 96.5764 189.243V171.76C94.0326 171.76 91.6774 171.851 89.3319 171.742C83.9215 171.491 81.0141 168.702 80.4394 163.304C80.3269 162.249 80.3257 161.179 80.3245 160.117V160.117C80.3154 152.597 80.3166 145.077 80.3245 137.557C80.3257 136.824 80.392 136.092 80.4437 135.044V117.772C63.5088 117.949 78.0246 117.489 63.3386 117.772V135.134H62.8977C62.8977 136.314 62.8959 137.202 62.8984 138.091C62.9263 148.497 62.7986 158.905 63.0327 169.306C63.2267 177.939 68.8865 185.066 77.0845 187.861Z" fill="white"/>
<rect x="62.8999" y="100.4" width="17.4283" height="56.6773" fill="white"/>
<rect x="83.8545" y="108.47" width="17.4283" height="56.6773" fill="white"/>
<rect x="134.484" y="108.47" width="17.4283" height="56.6773" fill="white"/>
<rect x="101.283" y="197.635" width="113.546" height="17.4674" transform="rotate(-45.9359 101.283 197.635)" fill="#FF7028"/>
<rect x="118.74" y="68.2082" width="113.546" height="17.4674" transform="rotate(45 118.74 68.2082)" fill="#FF7028"/>
<rect x="84.7134" y="120.794" width="17.4283" height="43.8787" transform="rotate(-45 84.7134 120.794)" fill="white"/>
<rect width="17.4283" height="43.7921" transform="matrix(-0.707107 -0.707107 -0.707107 0.707107 146.687 120.855)" fill="white"/>
<mask id="path-12-outside-1_301_33" maskUnits="userSpaceOnUse" x="33.1006" y="89.9098" width="77" height="53" fill="black">
<rect fill="white" x="33.1006" y="89.9098" width="77" height="53"/>
<path d="M107.218 92.9684C107.218 101.229 105.043 109.344 100.913 116.498C96.7828 123.651 90.8422 129.592 83.6884 133.722C76.5346 137.853 68.4196 140.027 60.1591 140.027C51.8986 140.027 43.7837 137.852 36.6298 133.722L45.3301 118.653C49.8387 121.256 54.9531 122.626 60.1591 122.626C65.3652 122.626 70.4795 121.256 74.9881 118.653C79.4967 116.05 83.2407 112.306 85.8437 107.797C88.4467 103.289 89.8171 98.1744 89.8171 92.9684H107.218Z"/>
</mask>
<path d="M107.218 92.9684C107.218 101.229 105.043 109.344 100.913 116.498C96.7828 123.651 90.8422 129.592 83.6884 133.722C76.5346 137.853 68.4196 140.027 60.1591 140.027C51.8986 140.027 43.7837 137.852 36.6298 133.722L45.3301 118.653C49.8387 121.256 54.9531 122.626 60.1591 122.626C65.3652 122.626 70.4795 121.256 74.9881 118.653C79.4967 116.05 83.2407 112.306 85.8437 107.797C88.4467 103.289 89.8171 98.1744 89.8171 92.9684H107.218Z" fill="white"/>
<path d="M107.218 92.9684C107.218 101.229 105.043 109.344 100.913 116.498C96.7828 123.651 90.8422 129.592 83.6884 133.722C76.5346 137.853 68.4196 140.027 60.1591 140.027C51.8986 140.027 43.7837 137.852 36.6298 133.722L45.3301 118.653C49.8387 121.256 54.9531 122.626 60.1591 122.626C65.3652 122.626 70.4795 121.256 74.9881 118.653C79.4967 116.05 83.2407 112.306 85.8437 107.797C88.4467 103.289 89.8171 98.1744 89.8171 92.9684H107.218Z" stroke="#FF7028" stroke-width="5.01844" mask="url(#path-12-outside-1_301_33)"/>
<path d="M98.4786 74.6255L117.201 96.8064H79.7562L98.4786 74.6255Z" fill="white"/>
<rect x="227.912" y="176.38" width="17.8412" height="114.853" transform="rotate(136.432 227.912 176.38)" fill="white"/>
<rect width="17.8412" height="100.344" transform="matrix(0.724562 0.689209 0.689209 -0.724562 137.022 164.963)" fill="white"/>
<rect x="134.484" y="92.0801" width="86.8215" height="16.39" fill="#FF7028"/>
<rect x="134.484" y="165.147" width="88.2295" height="16.39" fill="#FF7028"/>
<rect x="96.5757" y="169.739" width="134.582" height="19.504" fill="#FF7028"/>
<defs>
<linearGradient id="paint0_linear_301_33" x1="144.8" y1="45.7035" x2="223.238" y2="268.261" gradientUnits="userSpaceOnUse">
<stop stop-color="#0EB5FD"/>
<stop offset="1" stop-color="#2346FF"/>
</linearGradient>
<linearGradient id="paint1_linear_301_33" x1="172.081" y1="23.769" x2="140.19" y2="242.995" gradientUnits="userSpaceOnUse">
<stop stop-color="#A1FE9F"/>
<stop offset="0.210844" stop-color="#01F8A1"/>
<stop offset="0.542909" stop-color="#6FAAFC"/>
<stop offset="0.914268" stop-color="#5052FF"/>
</linearGradient>
</defs>
</svg>
