<svg width="24" height="24" viewBox="0 0 24 24" fill="none" xmlns="http://www.w3.org/2000/svg">
<rect width="24" height="24" rx="12" fill="#0088CC"/>
<path d="M19.6988 8.92209L12.7247 19.58C12.6398 19.7087 12.5223 19.8146 12.3834 19.8881C12.2442 19.9615 12.0881 20 11.9294 20C11.7694 20.0003 11.6121 19.9615 11.4721 19.8872C11.3321 19.813 11.2142 19.7056 11.1294 19.5755L4.29177 8.91758C4.10022 8.61885 3.99919 8.2748 4 7.92404C4.00868 7.4062 4.23106 6.9128 4.61836 6.55213C5.00568 6.19145 5.52625 5.99295 6.06589 6.00019H17.9435C19.0777 6.00019 20 6.85825 20 7.91952C20 8.27178 19.8965 8.61951 19.6988 8.92209ZM5.97177 8.56532L11.0588 16.0936V7.80663H6.50353C5.97647 7.80663 5.74118 8.14081 5.97177 8.56532ZM12.9411 16.0936L18.0282 8.56532C18.2636 8.14081 18.0235 7.80663 17.4965 7.80663H12.9411V16.0936Z" fill="white"/>
</svg>
