<svg height="49.792" viewBox="0 0 49 49.792" width="49" xmlns="http://www.w3.org/2000/svg"><path d="m37.207-28.7-15.671-5.979a4.878 4.878 0 0 0 -1.736-.321 4.878 4.878 0 0 0 -1.738.321l-15.673 5.979a3.712 3.712 0 0 0 -2.389 3.467v20.062a3.712 3.712 0 0 0 2.389 3.471l15.671 5.975a4.878 4.878 0 0 0 1.74.325 4.878 4.878 0 0 0 1.738-.321l15.669-5.979a3.712 3.712 0 0 0 2.393-3.471v-20.062a3.712 3.712 0 0 0 -2.393-3.467z" fill="#03cfcd" transform="translate(0 35)"/><path d="m37.207-28.7-15.671-5.979a4.878 4.878 0 0 0 -1.736-.321 4.878 4.878 0 0 0 -1.738.321l-15.673 5.979a3.712 3.712 0 0 0 -2.389 3.467v20.062a3.712 3.712 0 0 0 2.389 3.471l15.671 5.975a4.878 4.878 0 0 0 1.74.325 4.878 4.878 0 0 0 1.738-.321l15.669-5.979a3.712 3.712 0 0 0 2.393-3.471v-20.062a3.712 3.712 0 0 0 -2.393-3.467z" fill="#303fd0" transform="translate(9.404 45.196)"/><path d="m8.656 29.08-8.656-3.303v-16.01a3.714 3.714 0 0 1 2.389-3.467l15.671-5.98a4.88 4.88 0 0 1 3.476 0l8.656 3.3v16.01a3.712 3.712 0 0 1 -2.392 3.47l-15.668 5.98a4.88 4.88 0 0 1 -3.476 0z" fill="#50d0fe" transform="translate(9.404 10.196)"/><path d="m17.6-8.25h-10.378a2.44 2.44 0 0 0 -2.255 1.506 2.438 2.438 0 0 0 .533 2.661l2.29 2.292-5.955 5.955a2.441 2.441 0 0 0 0 3.451l1.725 1.726a2.441 2.441 0 0 0 3.452 0l5.954-5.955 2.294 2.294a2.441 2.441 0 0 0 4.167-1.726v-10.373a1.831 1.831 0 0 0 -1.827-1.831zm-17.552 36h10.37a2.441 2.441 0 0 0 1.726-4.167l-2.293-2.297 5.954-5.955a2.441 2.441 0 0 0 0-3.452l-1.725-1.724a2.441 2.441 0 0 0 -3.452 0l-5.954 5.954-2.294-2.293a2.441 2.441 0 0 0 -4.167 1.726v10.373a1.831 1.831 0 0 0 1.831 1.831z" fill="#fff" transform="matrix(.70710678 -.70710678 .70710678 .70710678 10.37 24.136)"/></svg>