<svg xmlns="http://www.w3.org/2000/svg" width="27" height="27" fill="none"><path fill="#FF007A" d="M23.562 14.961A11.916 11.916 0 1 1 .436 9.199a11.916 11.916 0 0 1 23.126 5.762Z"/><path fill="#fff" d="M7.013 4.891c-.316-.045-.331-.06-.18-.075.475-.028.95.012 1.414.12a6.078 6.078 0 0 1 3.1 2.075l.271.316.391-.06a8.386 8.386 0 0 1 4.812.6 6.23 6.23 0 0 1 1.083.632c.056.134.091.276.105.421a2.55 2.55 0 0 1-.165 1.639.44.44 0 0 0-.045.481.454.454 0 0 0 .406.256c.361 0 .737-.571.917-1.369l.075-.316.135.15a5.922 5.922 0 0 1 1.459 2.887l.03.226-.135-.2a2.536 2.536 0 0 0-.722-.767 4.517 4.517 0 0 0-2.481-.526 10.17 10.17 0 0 1-2.752-.421c-1.233-.406-1.865-.932-3.324-2.872a13.825 13.825 0 0 0-1.459-1.714 5.1 5.1 0 0 0-2.935-1.483Z"/><path fill="#fff" d="M18.217 6.887c0-.445.093-.885.271-1.293.033-.091.078-.178.135-.256.015 0-.015.105-.06.226-.123.43-.143.883-.06 1.323.105.677.15.767.872 1.5.331.346.722.782.872.962l.256.33-.256-.24a9.153 9.153 0 0 0-1.2-.947c-.105-.06-.12-.06-.2.015-.06.06-.075.15-.075.587a3.221 3.221 0 0 1-.331 1.534c-.12.226-.135.18-.03-.075.097-.3.127-.619.09-.932 0-1.308-.15-1.624-1.068-2.151a11.439 11.439 0 0 0-.842-.436 3.332 3.332 0 0 1-.399-.196c.432.084.855.21 1.263.376.526.21.617.226.677.21.04-.041.07-.161.085-.537ZM10.393 9.115a5.314 5.314 0 0 1-.947-3.233l.03-.316.15.03c.337.073.66.194.962.36.6.362.872.858 1.128 2.09.075.362.18.783.226.918.158.383.36.746.6 1.083.165.24.06.36-.316.33a3.082 3.082 0 0 1-1.833-1.262Z"/><path fill="#fff" d="M17.45 13.898c-2.978-1.2-4.03-2.241-4.03-4 0-.256.015-.466.015-.466.09.062.175.128.256.2.6.48 1.278.692 3.158.962.78.091 1.55.252 2.3.48a4.393 4.393 0 0 1 3.218 3.5 6.08 6.08 0 0 1-.09 1.88c-.102.385-.265.75-.481 1.084-.015 0-.045-.075-.045-.2a2.446 2.446 0 0 0-.872-1.7 12.017 12.017 0 0 0-3.429-1.74Z"/><path fill="#fff" d="M17.081 13.838a3.57 3.57 0 0 0-.15-.632l-.075-.226.135.165c.214.258.377.553.481.872.099.269.135.557.105.842a1.92 1.92 0 0 1-.105.812c-.134.378-.35.723-.632 1.008a3.619 3.619 0 0 1-2.256.993c-.18.015-.692.06-1.143.09a8.82 8.82 0 0 0-2.557.421c-.09.03-.18.06-.2.045.247-.197.52-.36.812-.481a8.185 8.185 0 0 1 2.256-.6c.454-.059.903-.148 1.345-.266a2.6 2.6 0 0 0 1.984-3.043Z"/><path fill="#fff" d="M16.713 14.63a3.51 3.51 0 0 1-.27-2.436c.03-.075.06-.15.09-.15a.647.647 0 0 1 .21.105c.18.12.556.33 1.52.857a7.68 7.68 0 0 1 2.39 1.76 3.72 3.72 0 0 1 .8 1.82c.065.597.04 1.2-.075 1.79a4.433 4.433 0 0 1-2.18 2.887c-.102.059-.207.109-.317.15.028-.116.074-.228.135-.331a2.985 2.985 0 0 0 .135-2.331 9.579 9.579 0 0 0-1.2-2.166 14.286 14.286 0 0 1-1.238-1.955ZM7.475 19.231a8.174 8.174 0 0 1 3.745-1.8 5.568 5.568 0 0 1 1.94.075c.754.172 1.425.6 1.899 1.212a4.49 4.49 0 0 1 .692 2.045c.06.406.135.827.15.917.077.46.31.88.662 1.188a2.289 2.289 0 0 0 2.075.06c.082-.036.168-.061.256-.075-.19.181-.408.328-.647.436a2.13 2.13 0 0 1-1.083.256 2.172 2.172 0 0 1-1.835-1.128 8.47 8.47 0 0 1-.5-.993 3.616 3.616 0 0 0-1.414-1.985 1.852 1.852 0 0 0-1.76-.165 1.131 1.131 0 0 0-.391 1.76c.23.239.53.397.857.451a.92.92 0 0 0 1.038-.917.72.72 0 0 0-.5-.737c-.481-.211-1.008.03-.993.5a.414.414 0 0 0 .286.406c.12.06.12.06.03.045a.559.559 0 0 1-.2-.978 1.082 1.082 0 0 1 1.609.346c.124.328.134.688.03 1.023a1.406 1.406 0 0 1-1.714.812 2.454 2.454 0 0 1-1.308-.887 3.999 3.999 0 0 0-2.963-1.519l-.286-.045.325-.303Z"/><path fill="#fff" fill-rule="evenodd" d="M2.472.5c3.5 3.318 8.9 8.476 9.174 8.758.226.234.135.457-.24.621-.275.107-.564.17-.858.188a1.25 1.25 0 0 1-.722-.246c-.135-.106-.722-.774-2.045-2.38-.62-.758-1.247-1.511-1.88-2.259-.06-.023-.06-.023 1.774 2.532A19.383 19.383 0 0 1 9.21 9.965c0 .152-.06.234-.3.446a2.305 2.305 0 0 0-.722 1.583 4.566 4.566 0 0 1-1.714 2.7 4.988 4.988 0 0 0-.947 1.043 1.65 1.65 0 0 0-.3.938 2.34 2.34 0 0 0 .2 1.149c.173.407.417.78.722 1.1.242.245.43.536.556.856 0 .094.03.094.571 0a6.701 6.701 0 0 0 2.948-1.125.956.956 0 0 0 .451-.891.776.776 0 0 0-.105-.492 2.484 2.484 0 0 0-1.053-.8c-.812-.434-1.158-.785-1.248-1.254-.075-.4.015-.668.466-1.407a3.528 3.528 0 0 0 .662-1.852c.045-.492.12-.692.3-.844.236-.184.528-.279.827-.27a3.2 3.2 0 0 0 1.654-.528 1.025 1.025 0 0 0 .511-.856l.015-.27-.2-.164C11.796 8.394 2.005 0 1.964 0c-.019 0 .222.223.508.5Zm4.616 16.675a.425.425 0 0 0-.2-.645c-.256-.129-.647-.07-.647.106 0 .047.03.094.12.117.135.059.15.117.045.246s-.105.246.03.328a.49.49 0 0 0 .652-.152Z" clip-rule="evenodd"/><path fill="#fff" fill-rule="evenodd" d="M10.967 11.21a1.335 1.335 0 0 0-.812.887 1.3 1.3 0 0 0 .075.812c.165.211.316.271.737.271.827 0 1.534-.361 1.609-.8a1.162 1.162 0 0 0-.677-1.083 1.53 1.53 0 0 0-.932-.087Zm.962.752a.338.338 0 0 0-.15-.511c-.406-.256-1.023-.045-1.023.346 0 .2.316.406.617.406a.833.833 0 0 0 .556-.241Z" clip-rule="evenodd"/><path fill="#3E4062" d="M27 19a8 8 0 1 0-16 0 8 8 0 0 0 16 0Z"/><path fill="#1E1F37" d="M19 12a7 7 0 1 0 0 14 7 7 0 0 0 0-14Zm0-1a8 8 0 1 1 0 16 8 8 0 0 1 0-16Z"/><path fill="#213147" d="M14.708 17.092v4.136a.738.738 0 0 0 .37.64l3.582 2.068a.74.74 0 0 0 .739 0l3.582-2.068a.738.738 0 0 0 .37-.64v-4.136a.737.737 0 0 0-.37-.64l-3.583-2.067a.74.74 0 0 0-.739 0l-3.583 2.068a.738.738 0 0 0-.368.639Z"/><path fill="#12AAFF" d="m19.809 19.961-.511 1.4a.18.18 0 0 0 0 .12l.879 2.41 1.016-.587-1.22-3.344a.087.087 0 0 0-.164 0v.001ZM20.835 17.605a.086.086 0 0 0-.082-.058.087.087 0 0 0-.082.058l-.511 1.4a.182.182 0 0 0 0 .12l1.44 3.946 1.016-.587-1.781-4.879Z"/><path fill="#9DCCED" d="M19.028 14.539c.026 0 .05.007.073.019l3.876 2.238a.146.146 0 0 1 .073.126v4.475a.144.144 0 0 1-.073.126l-3.876 2.238a.143.143 0 0 1-.073.019.153.153 0 0 1-.073-.019l-3.876-2.236a.146.146 0 0 1-.073-.126v-4.476a.144.144 0 0 1 .073-.126l3.876-2.238a.146.146 0 0 1 .073-.02Zm0-.654a.801.801 0 0 0-.4.107l-3.875 2.237a.8.8 0 0 0-.4.693v4.475a.8.8 0 0 0 .4.693l3.876 2.238a.8.8 0 0 0 .8 0l3.876-2.238a.799.799 0 0 0 .4-.693v-4.475a.8.8 0 0 0-.4-.693l-3.877-2.237a.801.801 0 0 0-.4-.107Z"/><path fill="#213147" d="m16.464 23.08.357-.978.718.6-.671.613-.404-.236Z"/><path fill="#fff" d="M18.701 16.602h-.983a.175.175 0 0 0-.164.115l-2.106 5.775 1.016.587 2.324-6.359a.087.087 0 0 0-.087-.118ZM20.421 16.602h-.983a.174.174 0 0 0-.165.115l-2.405 6.594 1.016.587 2.618-7.178a.088.088 0 0 0-.081-.118Z"/></svg>