<svg height="40" width="40.484" xmlns="http://www.w3.org/2000/svg"><path d="M0 0h40v40H0z" fill="none"/><path d="M39.077 24.755A19.662 19.662 0 1 1 24.754.916a19.664 19.664 0 0 1 14.323 23.839z" fill="#ff007a"/><g fill="#fff"><path d="M15.809 11.749c-.316-.045-.331-.06-.18-.075a4.961 4.961 0 0 1 1.414.12 6.078 6.078 0 0 1 3.1 2.075l.271.316.391-.06a8.386 8.386 0 0 1 4.812.6 6.234 6.234 0 0 1 1.083.632 1.453 1.453 0 0 1 .105.421 2.55 2.55 0 0 1-.165 1.639.44.44 0 0 0-.045.481.453.453 0 0 0 .406.256c.361 0 .737-.571.917-1.369l.075-.316.135.15a5.922 5.922 0 0 1 1.459 2.887l.03.226-.135-.2a2.539 2.539 0 0 0-.722-.767 4.517 4.517 0 0 0-2.481-.526 10.167 10.167 0 0 1-2.752-.421c-1.233-.406-1.865-.932-3.324-2.872a13.824 13.824 0 0 0-1.459-1.714 5.1 5.1 0 0 0-2.935-1.483z"/><path d="M27.013 13.685a3.252 3.252 0 0 1 .271-1.293 1.036 1.036 0 0 1 .135-.256c.015 0-.015.105-.06.226a2.872 2.872 0 0 0-.06 1.323c.105.677.15.767.872 1.5.331.346.722.782.872.962l.256.331-.256-.241a9.151 9.151 0 0 0-1.2-.947c-.105-.06-.12-.06-.2.015-.06.06-.075.15-.075.587a3.221 3.221 0 0 1-.331 1.534c-.12.226-.135.18-.03-.075a2.192 2.192 0 0 0 .09-.932c0-1.308-.15-1.624-1.068-2.151a11.45 11.45 0 0 0-.842-.436 3.329 3.329 0 0 1-.399-.196 6.719 6.719 0 0 1 1.263.376c.526.211.617.226.677.211.04-.042.07-.162.085-.538zm-9.735 2.237a5.314 5.314 0 0 1-.947-3.233l.03-.316.15.03a3.529 3.529 0 0 1 .962.361c.6.361.872.857 1.128 2.09.075.361.18.782.226.917a5.43 5.43 0 0 0 .6 1.083c.165.241.06.361-.316.331a3.082 3.082 0 0 1-1.833-1.263zm8.968 6c-2.978-1.2-4.03-2.241-4.03-4 0-.256.015-.466.015-.466a2.829 2.829 0 0 1 .256.2c.6.481 1.278.692 3.158.962a13.1 13.1 0 0 1 2.3.481 4.393 4.393 0 0 1 3.218 3.5 6.083 6.083 0 0 1-.09 1.88 3.77 3.77 0 0 1-.481 1.083c-.015 0-.045-.075-.045-.2a2.447 2.447 0 0 0-.872-1.7 12.018 12.018 0 0 0-3.429-1.74zm-1.57.325a3.563 3.563 0 0 0-.15-.632l-.075-.226.135.165a2.648 2.648 0 0 1 .481.872 1.877 1.877 0 0 1 .105.842 1.919 1.919 0 0 1-.105.812 2.721 2.721 0 0 1-.632 1.008 3.619 3.619 0 0 1-2.256.993c-.18.015-.692.06-1.143.09a8.821 8.821 0 0 0-2.557.421c-.09.03-.18.06-.2.045a3.408 3.408 0 0 1 .812-.481 8.185 8.185 0 0 1 2.256-.6 10.309 10.309 0 0 0 1.345-.266 2.6 2.6 0 0 0 1.984-3.043z"/><path d="M25.509 24.166a3.51 3.51 0 0 1-.271-2.436c.03-.075.06-.15.09-.15a.647.647 0 0 1 .211.105c.18.12.556.331 1.519.857a7.68 7.68 0 0 1 2.391 1.76 3.719 3.719 0 0 1 .8 1.82 5.965 5.965 0 0 1-.075 1.79 4.433 4.433 0 0 1-2.181 2.887 2.09 2.09 0 0 1-.316.15 1.194 1.194 0 0 1 .135-.331 2.985 2.985 0 0 0 .135-2.331 9.576 9.576 0 0 0-1.2-2.166 14.289 14.289 0 0 1-1.238-1.955zm-10.597 4.601a8.175 8.175 0 0 1 3.745-1.8 5.572 5.572 0 0 1 1.94.075 3.349 3.349 0 0 1 1.899 1.212 4.491 4.491 0 0 1 .692 2.045c.06.406.135.827.15.917A2.019 2.019 0 0 0 24 32.404a2.289 2.289 0 0 0 2.075.06 1.014 1.014 0 0 1 .256-.075 2.3 2.3 0 0 1-.647.436 2.129 2.129 0 0 1-1.083.256 2.171 2.171 0 0 1-1.835-1.128 8.455 8.455 0 0 1-.5-.993 3.617 3.617 0 0 0-1.414-1.985 1.853 1.853 0 0 0-1.76-.165 1.133 1.133 0 0 0-.391 1.76 1.538 1.538 0 0 0 .857.451.918.918 0 0 0 1.038-.917.72.72 0 0 0-.5-.737c-.481-.211-1.008.03-.993.5a.414.414 0 0 0 .286.406c.12.06.12.06.03.045a.558.558 0 0 1-.2-.978 1.082 1.082 0 0 1 1.609.346 1.576 1.576 0 0 1 .03 1.023 1.406 1.406 0 0 1-1.714.812 2.453 2.453 0 0 1-1.308-.887 4 4 0 0 0-2.963-1.519l-.286-.045z"/><path d="M7.897 6.253c3.5 3.967 8.9 10.134 9.174 10.471.226.28.135.547-.241.743a2.431 2.431 0 0 1-.857.224 1.125 1.125 0 0 1-.722-.294c-.135-.126-.722-.925-2.045-2.845a150.345 150.345 0 0 0-1.881-2.699c-.06-.028-.06-.028 1.775 3.028a23.974 23.974 0 0 1 1.534 2.691c0 .182-.06.28-.3.533a3 3 0 0 0-.722 1.892 5.711 5.711 0 0 1-1.714 3.224 5.773 5.773 0 0 0-.947 1.248 2.244 2.244 0 0 0-.3 1.121 3.286 3.286 0 0 0 .2 1.374 4.568 4.568 0 0 0 .722 1.318 3.174 3.174 0 0 1 .556 1.023c0 .112.03.112.571 0a6.12 6.12 0 0 0 2.942-1.352 1.225 1.225 0 0 0 .447-1.064 1.076 1.076 0 0 0-.105-.589 2.613 2.613 0 0 0-1.053-.953c-.812-.519-1.158-.939-1.248-1.5-.075-.477.015-.8.466-1.682a4.77 4.77 0 0 0 .665-2.212c.045-.589.12-.827.3-1.009a1.16 1.16 0 0 1 .827-.322 2.862 2.862 0 0 0 1.654-.631 1.283 1.283 0 0 0 .511-1.023l.015-.322-.2-.2c-.7-.757-10.491-10.793-10.532-10.793-.019 0 .222.266.508.6zm4.616 19.935a.556.556 0 0 0-.2-.771c-.256-.154-.647-.084-.647.126a.145.145 0 0 0 .12.14c.135.07.15.14.045.294s-.105.294.03.392a.445.445 0 0 0 .652-.181z" fill-rule="evenodd"/><path d="M17.923 18.877a1.335 1.335 0 0 0-.812.887 1.3 1.3 0 0 0 .075.812c.165.211.316.271.737.271.827 0 1.534-.361 1.609-.8a1.163 1.163 0 0 0-.677-1.083 1.529 1.529 0 0 0-.932-.087zm.962.752a.338.338 0 0 0-.15-.511c-.406-.256-1.023-.045-1.023.346 0 .2.316.406.617.406a.831.831 0 0 0 .555-.241z" fill-rule="evenodd"/></g><rect fill="#3e4062" height="16" rx="8" width="16" x="24.484" y="24"/><path d="M32.484 25a7 7 0 1 0 7 7 7 7 0 0 0-7-7m0-1a8 8 0 1 1-8 8 8 8 0 0 1 8-8z" fill="#1e1f37"/><path d="M24.484 24h16v16h-16z" fill="none"/><path d="m33.725 31.56.774-1.313 2.086 3.249v.624-4.289a.323.323 0 0 0-.149-.257l-3.756-2.16a.331.331 0 0 0-.287 0l-.034.019-.013.008-3.645 2.113-.014.006a.329.329 0 0 0-.054.031.324.324 0 0 0-.135.243l.006 3.5 1.943-3.012a1.425 1.425 0 0 1 1.272-.521l.581.015-3.422 5.487.4.232 3.463-5.714 1.531-.006-3.453 5.856 1.439.828.172.1a.33.33 0 0 0 .232 0l3.808-2.207-.728.422zm.3 4.253-1.455-2.282.887-1.506 1.91 3.006z" fill="#2d374b"/><path d="m32.57 33.531 1.454 2.282 1.343-.778-1.909-3.009zm4.02.588v-.624l-2.086-3.249-.774 1.313 2.014 3.257.728-.422a.323.323 0 0 0 .119-.235z" fill="#28a0f0"/><path d="m27.848 34.707 1.028.592 3.422-5.487-.581-.015a1.425 1.425 0 0 0-1.272.521l-1.943 3.012-.654 1zm6.425-4.895-1.531.006-3.463 5.714 1.21.7.329-.558z" fill="#fff"/><path d="M37.23 29.804a.975.975 0 0 0-.458-.784l-3.8-2.188a.99.99 0 0 0-.873 0c-.032.016-3.7 2.144-3.7 2.144a.974.974 0 0 0-.551.826v4.532l.654-1-.006-3.5a.311.311 0 0 1 0-.038.322.322 0 0 1 .13-.2c.017-.012 3.748-2.172 3.76-2.178a.331.331 0 0 1 .287 0l3.756 2.16a.323.323 0 0 1 .149.257v4.331a.316.316 0 0 1-.112.235l-.728.422-.376.218-1.343.778-1.362.789a.33.33 0 0 1-.232 0l-1.611-.927-.329.558 1.448.834.126.071.1.057a.941.941 0 0 0 .384.079.968.968 0 0 0 .355-.067l3.964-2.299a.967.967 0 0 0 .373-.729v-4.381z" fill="#96bedc"/></svg>