<svg xmlns="http://www.w3.org/2000/svg" width="24" height="24"><g data-name="Group 423"><path fill="#50af95" d="M23.73 11.178A9 9 0 1 1 17.176.269a9 9 0 0 1 6.554 10.909Z" data-name="Path 1467"/><path fill="#fff" fill-rule="evenodd" d="M16.061 10.148a14.38 14.38 0 0 1-1.049.026c-.543 0-.929-.019-1.064-.026-2.1-.106-3.667-.524-3.667-1.024s1.567-.918 3.667-1.025v1.633c.137.011.53.038 1.074.038.652 0 .978-.031 1.037-.037V8.099c2.1.107 3.659.525 3.659 1.024s-1.563.918-3.659 1.024Zm0-2.217V6.469h2.924V4.24h-7.961v2.229h2.923V7.93c-2.376.125-4.163.663-4.163 1.308s1.787 1.183 4.163 1.308v4.684h2.113v-4.685c2.371-.125 4.155-.663 4.155-1.307S18.432 8.056 16.06 7.93Zm0 0Z" data-name="Path 1483"/></g><g data-name="Group 429"><path fill="#50af95" d="M17.73 17.176a9 9 0 1 1-6.554-10.909 9 9 0 0 1 6.554 10.909Z" data-name="Path 1467"/><path fill="#fff" fill-rule="evenodd" d="M10.061 16.146a14.38 14.38 0 0 1-1.049.026c-.543 0-.929-.019-1.064-.026-2.1-.106-3.667-.524-3.667-1.024s1.567-.918 3.667-1.025v1.633c.137.011.53.038 1.074.038.652 0 .978-.031 1.037-.037v-1.634c2.1.107 3.659.525 3.659 1.024s-1.563.918-3.659 1.024Zm0-2.217v-1.462h2.924v-2.229H5.024v2.229h2.923v1.461c-2.376.125-4.163.663-4.163 1.308s1.787 1.183 4.163 1.308v4.684h2.113v-4.685c2.371-.125 4.155-.663 4.155-1.307s-1.783-1.182-4.155-1.308Zm0 0Z" data-name="Path 1483"/></g></svg>