<svg id="ic_uni_24" xmlns="http://www.w3.org/2000/svg" width="24" height="24" viewBox="0 0 24 24">
  <rect id="Rectangle_179" data-name="Rectangle 179" width="24" height="24" fill="none"/>
  <path id="Path_1467" data-name="Path 1467" d="M23.246,14.657A11.8,11.8,0,1,1,14.653.354a11.8,11.8,0,0,1,8.594,14.3h0Z" transform="translate(0.2 0.196)" fill="#ff007a"/>
  <g id="uniswap-uni-logo_1_" data-name="uniswap-uni-logo (1)" transform="translate(4.426 3.394)">
    <path id="Path_1470" data-name="Path 1470" d="M64.349,43.553c-.19-.027-.2-.036-.108-.045a2.979,2.979,0,0,1,.849.072,3.65,3.65,0,0,1,1.86,1.246l.163.19.235-.036a5.035,5.035,0,0,1,2.89.361,3.743,3.743,0,0,1,.65.379.872.872,0,0,1,.063.253,1.531,1.531,0,0,1-.1.984.264.264,0,0,0-.027.289.272.272,0,0,0,.244.154c.217,0,.442-.343.551-.822l.045-.19.081.09a3.556,3.556,0,0,1,.876,1.734l.018.135-.081-.117a1.525,1.525,0,0,0-.433-.461,2.712,2.712,0,0,0-1.49-.316,6.1,6.1,0,0,1-1.653-.253c-.74-.244-1.12-.56-2-1.725a8.3,8.3,0,0,0-.876-1.029A3.063,3.063,0,0,0,64.349,43.553Z" transform="translate(-59.29 -39.893)" fill="#fff"/>
    <path id="Path_1471" data-name="Path 1471" d="M128.214,47.43a1.953,1.953,0,0,1,.163-.777.622.622,0,0,1,.081-.154c.009,0-.009.063-.036.135a1.725,1.725,0,0,0-.036.795c.063.406.09.461.524.9.2.208.433.47.524.578l.154.2-.154-.144a5.5,5.5,0,0,0-.722-.569c-.063-.036-.072-.036-.117.009s-.045.09-.045.352a1.935,1.935,0,0,1-.2.921c-.072.135-.081.108-.018-.045a1.316,1.316,0,0,0,.054-.56c0-.786-.09-.975-.641-1.291-.135-.081-.37-.2-.506-.262a2,2,0,0,1-.244-.117,4.034,4.034,0,0,1,.759.226c.316.126.37.135.406.126C128.187,47.728,128.2,47.656,128.214,47.43Z" transform="translate(-116.427 -42.607)" fill="#fff"/>
    <path id="Path_1472" data-name="Path 1472" d="M64.293,50.231a3.191,3.191,0,0,1-.569-1.942l.018-.19.09.018a2.119,2.119,0,0,1,.578.217c.361.217.524.515.677,1.255.045.217.108.47.135.551a3.26,3.26,0,0,0,.361.65c.1.144.036.217-.19.2A1.85,1.85,0,0,1,64.293,50.231Z" transform="translate(-58.353 -44.065)" fill="#fff"/>
    <path id="Path_1473" data-name="Path 1473" d="M111.02,88.182c-1.788-.722-2.42-1.346-2.42-2.4,0-.154.009-.28.009-.28a1.7,1.7,0,0,1,.154.117,3.61,3.61,0,0,0,1.9.578,7.866,7.866,0,0,1,1.382.289,2.638,2.638,0,0,1,1.932,2.1,3.652,3.652,0,0,1-.054,1.129,2.264,2.264,0,0,1-.289.65c-.009,0-.027-.045-.027-.117a1.469,1.469,0,0,0-.524-1.02A7.216,7.216,0,0,0,111.02,88.182Z" transform="translate(-99.694 -78.413)" fill="#fff"/>
    <path id="Path_1474" data-name="Path 1474" d="M82.73,113.315a2.139,2.139,0,0,0-.09-.379l-.045-.135.081.1a1.59,1.59,0,0,1,.289.524,1.127,1.127,0,0,1,.063.506,1.152,1.152,0,0,1-.063.488,1.634,1.634,0,0,1-.379.605,2.173,2.173,0,0,1-1.355.6c-.108.009-.415.036-.686.054a5.3,5.3,0,0,0-1.535.253c-.054.018-.108.036-.117.027a2.046,2.046,0,0,1,.488-.289,4.915,4.915,0,0,1,1.355-.361,6.191,6.191,0,0,0,.8-.163A1.561,1.561,0,0,0,82.73,113.315Z" transform="translate(-72.347 -103.351)" fill="#fff"/>
    <path id="Path_1475" data-name="Path 1475" d="M128.194,118.953a2.108,2.108,0,0,1-.163-1.463c.018-.045.036-.09.054-.09a.389.389,0,0,1,.126.063c.108.072.334.2.912.515a4.612,4.612,0,0,1,1.436,1.057,2.233,2.233,0,0,1,.479,1.093,3.582,3.582,0,0,1-.045,1.075,2.662,2.662,0,0,1-1.309,1.734,1.254,1.254,0,0,1-.19.09.718.718,0,0,1,.081-.2,1.792,1.792,0,0,0,.081-1.4,5.751,5.751,0,0,0-.722-1.3A8.58,8.58,0,0,1,128.194,118.953Z" transform="translate(-117.311 -107.837)" fill="#fff"/>
    <path id="Path_1476" data-name="Path 1476" d="M54.09,153.972a4.909,4.909,0,0,1,2.249-1.084,3.346,3.346,0,0,1,1.165.045,2.011,2.011,0,0,1,1.138.731,2.7,2.7,0,0,1,.415,1.228c.036.244.081.5.09.551a1.212,1.212,0,0,0,.4.713,1.374,1.374,0,0,0,1.246.036.607.607,0,0,1,.154-.045,1.384,1.384,0,0,1-.388.262,1.278,1.278,0,0,1-.65.154,1.3,1.3,0,0,1-1.1-.677,5.076,5.076,0,0,1-.3-.6,2.172,2.172,0,0,0-.849-1.192A1.113,1.113,0,0,0,56.6,154a.68.68,0,0,0-.235,1.057.923.923,0,0,0,.515.271.551.551,0,0,0,.623-.551.432.432,0,0,0-.3-.442c-.289-.126-.605.018-.6.3a.248.248,0,0,0,.172.244c.072.036.072.036.018.027a.335.335,0,0,1-.117-.587.65.65,0,0,1,.966.208.946.946,0,0,1,.018.614.845.845,0,0,1-1.029.488,1.473,1.473,0,0,1-.786-.533,2.4,2.4,0,0,0-1.779-.912l-.172-.027Z" transform="translate(-49.57 -140.092)" fill="#fff"/>
    <path id="Path_1477" data-name="Path 1477" d="M.3.362c2.1,2.382,5.346,6.085,5.509,6.287.135.168.081.328-.144.446a1.46,1.46,0,0,1-.515.135.675.675,0,0,1-.433-.177c-.081-.076-.433-.556-1.228-1.709-.605-.884-1.12-1.616-1.129-1.624A13.167,13.167,0,0,0,3.427,5.538a14.4,14.4,0,0,1,.921,1.616c0,.109-.036.168-.181.32A1.8,1.8,0,0,0,3.735,8.61a3.43,3.43,0,0,1-1.029,1.936,3.466,3.466,0,0,0-.569.749,1.348,1.348,0,0,0-.181.673,1.973,1.973,0,0,0,.117.825,2.743,2.743,0,0,0,.433.791,1.906,1.906,0,0,1,.334.614c0,.067.018.067.343,0a3.675,3.675,0,0,0,1.77-.808.736.736,0,0,0,.271-.64.646.646,0,0,0-.063-.354,1.569,1.569,0,0,0-.632-.572c-.488-.311-.7-.564-.75-.9-.045-.286.009-.48.28-1.01a2.864,2.864,0,0,0,.4-1.33c.027-.354.072-.5.181-.606a.7.7,0,0,1,.5-.194,1.719,1.719,0,0,0,.993-.379.771.771,0,0,0,.307-.614L6.444,6.6l-.117-.118C5.9,6.027.023,0,0,0-.013,0,.131.16.3.362ZM3.075,12.331a.334.334,0,0,0-.117-.463c-.154-.093-.388-.051-.388.076a.087.087,0,0,0,.072.084c.081.042.09.084.027.177s-.063.177.018.236A.267.267,0,0,0,3.075,12.331Z" transform="translate(0.004)" fill="#fff"/>
    <path id="Path_1478" data-name="Path 1478" d="M69.5,93.678a.8.8,0,0,0-.488.533.778.778,0,0,0,.045.488c.1.126.19.163.442.163.5,0,.921-.217.966-.479a.7.7,0,0,0-.406-.65A.918.918,0,0,0,69.5,93.678Zm.578.452a.2.2,0,0,0-.09-.307c-.244-.154-.614-.027-.614.208,0,.117.19.244.37.244A.5.5,0,0,0,70.08,94.129Z" transform="translate(-63.175 -85.737)" fill="#fff"/>
  </g>
</svg>
