<svg id="ic_uni_40" xmlns="http://www.w3.org/2000/svg" width="40" height="40.005" viewBox="0 0 40 40.005">
  <rect id="Rectangle_179" data-name="Rectangle 179" width="40" height="40" transform="translate(0 0.005)" fill="none"/>
  <path id="Path_1467" data-name="Path 1467" d="M39.4,24.842A20,20,0,1,1,24.836.6,20,20,0,0,1,39.4,24.842h0Z" transform="translate(0 -0.001)" fill="#ff007a"/>
  <g id="uniswap-uni-logo_1_" data-name="uniswap-uni-logo (1)" transform="translate(7.167 5.42)">
    <path id="Path_1470" data-name="Path 1470" d="M64.463,43.591c-.321-.046-.337-.061-.184-.077a5.049,5.049,0,0,1,1.439.122,6.186,6.186,0,0,1,3.153,2.112l.275.321.4-.061a8.535,8.535,0,0,1,4.9.612,6.345,6.345,0,0,1,1.1.643,1.479,1.479,0,0,1,.107.429,2.6,2.6,0,0,1-.168,1.668.448.448,0,0,0-.046.49.461.461,0,0,0,.413.26c.367,0,.75-.582.934-1.393l.077-.321L77,48.55a6.027,6.027,0,0,1,1.485,2.939l.031.23-.138-.2a2.584,2.584,0,0,0-.735-.781,4.6,4.6,0,0,0-2.525-.536,10.348,10.348,0,0,1-2.8-.429c-1.255-.413-1.9-.949-3.383-2.923a14.069,14.069,0,0,0-1.485-1.745A5.192,5.192,0,0,0,64.463,43.591Z" transform="translate(-55.893 -37.387)" fill="#fff"/>
    <path id="Path_1471" data-name="Path 1471" d="M129.061,48.077a3.31,3.31,0,0,1,.275-1.316,1.055,1.055,0,0,1,.138-.26c.015,0-.015.107-.061.23a2.923,2.923,0,0,0-.061,1.347c.107.689.153.781.888,1.531.337.352.735.8.888.98l.26.337-.26-.245a9.316,9.316,0,0,0-1.224-.964c-.107-.061-.122-.061-.2.015-.061.061-.077.153-.077.6a3.279,3.279,0,0,1-.337,1.561c-.122.23-.138.184-.031-.077a2.231,2.231,0,0,0,.092-.949c0-1.332-.153-1.653-1.087-2.189-.23-.138-.628-.337-.857-.444a3.39,3.39,0,0,1-.413-.2,6.839,6.839,0,0,1,1.286.383c.536.214.628.23.689.214C129.015,48.582,129.046,48.459,129.061,48.077Z" transform="translate(-109.089 -39.902)" fill="#fff"/>
    <path id="Path_1472" data-name="Path 1472" d="M64.694,51.712a5.408,5.408,0,0,1-.964-3.291l.031-.321.153.031a3.592,3.592,0,0,1,.98.367c.612.367.888.872,1.148,2.128.077.367.184.8.23.934a5.526,5.526,0,0,0,.612,1.1c.168.245.061.367-.321.337A3.136,3.136,0,0,1,64.694,51.712Z" transform="translate(-54.63 -41.261)" fill="#fff"/>
    <path id="Path_1473" data-name="Path 1473" d="M112.7,90.046c-3.031-1.224-4.1-2.281-4.1-4.071,0-.26.015-.474.015-.474a2.875,2.875,0,0,1,.26.2c.612.49,1.3.7,3.214.98a13.332,13.332,0,0,1,2.342.49,4.471,4.471,0,0,1,3.275,3.566,6.191,6.191,0,0,1-.092,1.913,3.837,3.837,0,0,1-.49,1.1c-.015,0-.046-.077-.046-.2a2.491,2.491,0,0,0-.888-1.73A12.232,12.232,0,0,0,112.7,90.046Z" transform="translate(-93.51 -73.489)" fill="#fff"/>
    <path id="Path_1474" data-name="Path 1474" d="M85.4,113.672a3.626,3.626,0,0,0-.153-.643l-.077-.23.138.168a2.7,2.7,0,0,1,.49.888,1.91,1.91,0,0,1,.107.857,1.953,1.953,0,0,1-.107.827,2.77,2.77,0,0,1-.643,1.025,3.684,3.684,0,0,1-2.3,1.01c-.184.015-.7.061-1.163.092a8.978,8.978,0,0,0-2.6.429c-.092.031-.184.061-.2.046a3.467,3.467,0,0,1,.827-.49,8.33,8.33,0,0,1,2.3-.612,10.491,10.491,0,0,0,1.362-.276A2.646,2.646,0,0,0,85.4,113.672Z" transform="translate(-67.804 -96.784)" fill="#fff"/>
    <path id="Path_1475" data-name="Path 1475" d="M128.353,120.033a3.572,3.572,0,0,1-.275-2.48c.031-.077.061-.153.092-.153a.659.659,0,0,1,.214.107c.184.122.566.337,1.546.872a7.817,7.817,0,0,1,2.434,1.791,3.785,3.785,0,0,1,.811,1.852,6.072,6.072,0,0,1-.077,1.821,4.512,4.512,0,0,1-2.219,2.939,2.126,2.126,0,0,1-.321.153,1.217,1.217,0,0,1,.138-.337,3.038,3.038,0,0,0,.138-2.372,9.747,9.747,0,0,0-1.224-2.2A14.541,14.541,0,0,1,128.353,120.033Z" transform="translate(-109.911 -101.191)" fill="#fff"/>
    <path id="Path_1476" data-name="Path 1476" d="M54.221,154.746a8.32,8.32,0,0,1,3.811-1.837,5.672,5.672,0,0,1,1.974.077,3.408,3.408,0,0,1,1.929,1.24,4.571,4.571,0,0,1,.7,2.082c.061.413.138.842.153.934a2.054,2.054,0,0,0,.673,1.209,2.329,2.329,0,0,0,2.112.061,1.029,1.029,0,0,1,.26-.077,2.346,2.346,0,0,1-.658.444,2.167,2.167,0,0,1-1.1.26,2.21,2.21,0,0,1-1.867-1.148,8.606,8.606,0,0,1-.505-1.01,3.681,3.681,0,0,0-1.439-2.02,1.886,1.886,0,0,0-1.791-.168,1.153,1.153,0,0,0-.4,1.791,1.565,1.565,0,0,0,.872.459.934.934,0,0,0,1.056-.934.733.733,0,0,0-.505-.75c-.49-.214-1.025.031-1.01.505a.421.421,0,0,0,.291.413c.122.061.122.061.031.046a.568.568,0,0,1-.2-.995,1.1,1.1,0,0,1,1.638.352,1.6,1.6,0,0,1,.031,1.041,1.431,1.431,0,0,1-1.745.827,2.5,2.5,0,0,1-1.332-.9,4.067,4.067,0,0,0-3.015-1.546l-.291-.046Z" transform="translate(-46.566 -131.221)" fill="#fff"/>
    <path id="Path_1477" data-name="Path 1477" d="M.517.613C4.083,4.651,9.578,10.928,9.853,11.27c.23.285.138.556-.245.756a2.474,2.474,0,0,1-.872.228,1.145,1.145,0,0,1-.735-.3c-.138-.128-.735-.942-2.082-2.9-1.025-1.5-1.9-2.739-1.913-2.753-.061-.029-.061-.029,1.806,3.081a24.4,24.4,0,0,1,1.561,2.739c0,.185-.061.285-.306.542a3.051,3.051,0,0,0-.735,1.926,5.813,5.813,0,0,1-1.745,3.281,5.875,5.875,0,0,0-.964,1.27,2.284,2.284,0,0,0-.306,1.141,3.345,3.345,0,0,0,.2,1.4,4.649,4.649,0,0,0,.735,1.341,3.23,3.23,0,0,1,.566,1.041c0,.114.031.114.582,0a6.229,6.229,0,0,0,3-1.37,1.247,1.247,0,0,0,.459-1.084,1.1,1.1,0,0,0-.107-.6,2.66,2.66,0,0,0-1.071-.97c-.827-.528-1.179-.956-1.27-1.526-.077-.485.015-.813.474-1.712a4.854,4.854,0,0,0,.673-2.254c.046-.6.122-.842.306-1.027a1.18,1.18,0,0,1,.842-.328,2.913,2.913,0,0,0,1.684-.642,1.306,1.306,0,0,0,.52-1.041l.015-.328-.2-.2C10.006,10.215.042,0,0,0-.019,0,.226.271.517.613ZM5.216,20.9a.565.565,0,0,0-.2-.785c-.26-.157-.658-.086-.658.128a.148.148,0,0,0,.122.143c.138.071.153.143.046.3s-.107.3.031.4A.453.453,0,0,0,5.216,20.9Z" transform="translate(0)" fill="#fff"/>
    <path id="Path_1478" data-name="Path 1478" d="M69.854,93.693a1.359,1.359,0,0,0-.827.9,1.319,1.319,0,0,0,.077.827c.168.214.321.276.75.276.842,0,1.561-.367,1.638-.811a1.183,1.183,0,0,0-.689-1.1A1.556,1.556,0,0,0,69.854,93.693Zm.98.765a.344.344,0,0,0-.153-.52c-.413-.26-1.041-.046-1.041.352,0,.2.321.413.628.413A.845.845,0,0,0,70.833,94.458Z" transform="translate(-59.133 -80.234)" fill="#fff"/>
  </g>
</svg>
