<svg xmlns="http://www.w3.org/2000/svg" width="30" height="30"><path data-name="Rectangle 547" fill="none" opacity=".684" d="M0 0h30v30H0z"/><g data-name="Group 408"><path data-name="Path 1467" d="M26.562 17.961a11.916 11.916 0 1 1-8.68-14.443 11.917 11.917 0 0 1 8.68 14.443Z" fill="#ff007a"/><g data-name="uniswap-uni-logo (1)" fill="#fff"><path data-name="Path 1470" d="M10.013 7.891c-.316-.045-.331-.06-.18-.075a4.961 4.961 0 0 1 1.414.12 6.078 6.078 0 0 1 3.1 2.075l.271.316.391-.06a8.386 8.386 0 0 1 4.812.6 6.234 6.234 0 0 1 1.083.632 1.453 1.453 0 0 1 .105.421 2.55 2.55 0 0 1-.165 1.639.44.44 0 0 0-.045.481.453.453 0 0 0 .406.256c.361 0 .737-.571.917-1.369l.075-.316.135.15a5.922 5.922 0 0 1 1.459 2.887l.03.226-.135-.2a2.539 2.539 0 0 0-.722-.767 4.517 4.517 0 0 0-2.481-.526 10.167 10.167 0 0 1-2.752-.421c-1.233-.406-1.865-.932-3.324-2.872a13.824 13.824 0 0 0-1.459-1.714 5.1 5.1 0 0 0-2.935-1.483Z"/><path data-name="Path 1471" d="M21.217 9.887a3.252 3.252 0 0 1 .271-1.293 1.036 1.036 0 0 1 .135-.256c.015 0-.015.105-.06.226a2.872 2.872 0 0 0-.06 1.323c.105.677.15.767.872 1.5.331.346.722.782.872.962l.256.331-.256-.241a9.151 9.151 0 0 0-1.2-.947c-.105-.06-.12-.06-.2.015-.06.06-.075.15-.075.587a3.221 3.221 0 0 1-.331 1.534c-.12.226-.135.18-.03-.075a2.192 2.192 0 0 0 .09-.932c0-1.308-.15-1.624-1.068-2.151a11.45 11.45 0 0 0-.842-.436 3.329 3.329 0 0 1-.399-.196 6.719 6.719 0 0 1 1.263.376c.526.211.617.226.677.211.04-.042.07-.162.085-.538Z"/><path data-name="Path 1472" d="M13.393 12.115a5.314 5.314 0 0 1-.947-3.233l.03-.316.15.03a3.529 3.529 0 0 1 .962.361c.6.361.872.857 1.128 2.09.075.361.18.782.226.917a5.43 5.43 0 0 0 .6 1.083c.165.241.06.361-.316.331a3.082 3.082 0 0 1-1.833-1.263Z"/><path data-name="Path 1473" d="M20.45 16.898c-2.978-1.2-4.03-2.241-4.03-4 0-.256.015-.466.015-.466a2.829 2.829 0 0 1 .256.2c.6.481 1.278.692 3.158.962a13.1 13.1 0 0 1 2.3.481 4.393 4.393 0 0 1 3.218 3.5 6.083 6.083 0 0 1-.09 1.88 3.77 3.77 0 0 1-.481 1.083c-.015 0-.045-.075-.045-.2a2.447 2.447 0 0 0-.872-1.7 12.018 12.018 0 0 0-3.429-1.74Z"/><path data-name="Path 1474" d="M20.081 16.838a3.563 3.563 0 0 0-.15-.632l-.075-.226.135.165a2.648 2.648 0 0 1 .481.872 1.877 1.877 0 0 1 .105.842 1.919 1.919 0 0 1-.105.812 2.721 2.721 0 0 1-.632 1.008 3.619 3.619 0 0 1-2.256.993c-.18.015-.692.06-1.143.09a8.821 8.821 0 0 0-2.557.421c-.09.03-.18.06-.2.045a3.408 3.408 0 0 1 .812-.481 8.185 8.185 0 0 1 2.256-.6 10.309 10.309 0 0 0 1.345-.266 2.6 2.6 0 0 0 1.984-3.043Z"/><path data-name="Path 1475" d="M19.713 17.63a3.51 3.51 0 0 1-.271-2.436c.03-.075.06-.15.09-.15a.647.647 0 0 1 .211.105c.18.12.556.331 1.519.857a7.68 7.68 0 0 1 2.391 1.76 3.719 3.719 0 0 1 .8 1.82 5.965 5.965 0 0 1-.075 1.79 4.433 4.433 0 0 1-2.181 2.887 2.09 2.09 0 0 1-.316.15 1.194 1.194 0 0 1 .135-.331 2.985 2.985 0 0 0 .135-2.331 9.576 9.576 0 0 0-1.2-2.166 14.289 14.289 0 0 1-1.238-1.955Z"/><path data-name="Path 1476" d="M10.475 22.231a8.175 8.175 0 0 1 3.745-1.8 5.572 5.572 0 0 1 1.94.075 3.349 3.349 0 0 1 1.899 1.212 4.491 4.491 0 0 1 .692 2.045c.06.406.135.827.15.917a2.019 2.019 0 0 0 .662 1.188 2.289 2.289 0 0 0 2.075.06 1.014 1.014 0 0 1 .256-.075 2.3 2.3 0 0 1-.647.436 2.129 2.129 0 0 1-1.083.256 2.171 2.171 0 0 1-1.835-1.128 8.455 8.455 0 0 1-.5-.993 3.617 3.617 0 0 0-1.414-1.985 1.853 1.853 0 0 0-1.76-.165 1.133 1.133 0 0 0-.391 1.76 1.538 1.538 0 0 0 .857.451.918.918 0 0 0 1.038-.917.72.72 0 0 0-.5-.737c-.481-.211-1.008.03-.993.5a.414.414 0 0 0 .286.406c.12.06.12.06.03.045a.558.558 0 0 1-.2-.978 1.082 1.082 0 0 1 1.609.346 1.576 1.576 0 0 1 .03 1.023 1.406 1.406 0 0 1-1.714.812 2.453 2.453 0 0 1-1.308-.887 4 4 0 0 0-2.963-1.519l-.286-.045Z"/><path data-name="Path 1477" d="M5.472 3.5c3.5 3.318 8.9 8.476 9.174 8.758.226.234.135.457-.241.621a2.818 2.818 0 0 1-.857.188 1.251 1.251 0 0 1-.722-.246c-.135-.106-.722-.774-2.045-2.38A168.38 168.38 0 0 0 8.9 8.182c-.06-.023-.06-.023 1.775 2.532a19.383 19.383 0 0 1 1.534 2.251c0 .152-.06.234-.3.446a2.305 2.305 0 0 0-.722 1.583 4.566 4.566 0 0 1-1.714 2.7 4.988 4.988 0 0 0-.947 1.043 1.649 1.649 0 0 0-.3.938 2.339 2.339 0 0 0 .2 1.149 3.675 3.675 0 0 0 .722 1.1 2.535 2.535 0 0 1 .556.856c0 .094.03.094.571 0a6.7 6.7 0 0 0 2.948-1.125.956.956 0 0 0 .451-.891.775.775 0 0 0-.105-.492 2.484 2.484 0 0 0-1.053-.8c-.812-.434-1.158-.785-1.248-1.254-.075-.4.015-.668.466-1.407a3.528 3.528 0 0 0 .662-1.852c.045-.492.12-.692.3-.844a1.284 1.284 0 0 1 .827-.27 3.2 3.2 0 0 0 1.654-.528 1.025 1.025 0 0 0 .511-.856l.015-.27-.2-.164C14.796 11.394 5.005 3 4.964 3c-.019 0 .222.223.508.5Zm4.616 16.675a.425.425 0 0 0-.2-.645c-.256-.129-.647-.07-.647.106 0 .047.03.094.12.117.135.059.15.117.045.246s-.105.246.03.328a.491.491 0 0 0 .652-.152Z" fill-rule="evenodd"/><path data-name="Path 1478" d="M13.967 14.21a1.335 1.335 0 0 0-.812.887 1.3 1.3 0 0 0 .075.812c.165.211.316.271.737.271.827 0 1.534-.361 1.609-.8a1.163 1.163 0 0 0-.677-1.083 1.529 1.529 0 0 0-.932-.087Zm.962.752a.338.338 0 0 0-.15-.511c-.406-.256-1.023-.045-1.023.346 0 .2.316.406.617.406a.831.831 0 0 0 .555-.241Z" fill-rule="evenodd"/></g></g><g data-name="Group 292" transform="translate(14 14)"><rect width="16" height="16" rx="8" fill="#3e4062"/><path data-name="base - Outline" d="M8 1a7 7 0 1 0 7 7 7 7 0 0 0-7-7m0-1a8 8 0 1 1-8 8 8 8 0 0 1 8-8Z" fill="#1e1f37"/><path data-name="Rectangle 213" fill="none" d="M0 0h16v16H0z"/><path data-name="Path 348" d="m9.241 7.56.774-1.313 2.086 3.249v.624-4.289a.323.323 0 0 0-.149-.257l-3.756-2.16a.331.331 0 0 0-.287 0l-.034.019-.013.008-3.645 2.113-.014.006a.329.329 0 0 0-.054.031.324.324 0 0 0-.135.243l.006 3.5 1.943-3.012a1.425 1.425 0 0 1 1.272-.521l.581.015-3.422 5.487.4.232 3.463-5.714 1.531-.006-3.453 5.856 1.439.828.172.1a.33.33 0 0 0 .232 0l3.808-2.207-.728.422Zm.3 4.253L8.086 9.531l.887-1.506 1.91 3.006Z" fill="#2d374b"/><path data-name="Path 349" d="m8.086 9.531 1.454 2.282 1.343-.778-1.909-3.009Z" fill="#28a0f0"/><path data-name="Path 350" d="M12.106 10.119v-.624L10.02 6.246l-.774 1.313 2.014 3.257.728-.422a.323.323 0 0 0 .119-.235Z" fill="#28a0f0"/><path data-name="Path 351" d="m3.364 10.707 1.028.592 3.422-5.487-.581-.015a1.425 1.425 0 0 0-1.272.521L4.018 9.33l-.654 1Z" fill="#fff"/><path data-name="Path 352" d="m9.789 5.812-1.531.006-3.463 5.714 1.21.7.329-.558Z" fill="#fff"/><path data-name="Path 353" d="M12.746 5.804a.975.975 0 0 0-.458-.784l-3.8-2.188a.99.99 0 0 0-.873 0c-.032.016-3.7 2.144-3.7 2.144a.974.974 0 0 0-.551.826v4.532l.654-1-.006-3.5a.311.311 0 0 1 0-.038.322.322 0 0 1 .13-.2c.017-.012 3.748-2.172 3.76-2.178a.331.331 0 0 1 .287 0l3.756 2.16a.323.323 0 0 1 .149.257v4.331a.316.316 0 0 1-.112.235l-.728.422-.376.218-1.343.778-1.362.789a.33.33 0 0 1-.232 0l-1.611-.927-.329.558 1.448.834.126.071.1.057a.941.941 0 0 0 .384.079.968.968 0 0 0 .355-.067l3.964-2.299a.967.967 0 0 0 .373-.729V5.804Z" fill="#96bedc"/></g></svg>
