<svg xmlns="http://www.w3.org/2000/svg" width="24" height="24"><defs><linearGradient id="a" x1=".5" x2=".5" y1="1.142" y2="-.105" gradientUnits="objectBoundingBox"><stop offset="0" stop-color="#f9a606"/><stop offset="1" stop-color="#fbcc5f"/></linearGradient></defs><path fill="none" d="M0 0h24v24H0z" data-name="Rectangle 568"/><g data-name="Group 425" transform="translate(-198.5 -3338.004)"><circle cx="9" cy="9" r="9" fill="url(#a)" data-name="Ellipse 82" transform="translate(204.5 3338.004)"/><path fill="#fff" d="M218.638 3345.574h-1.028a4.157 4.157 0 0 0-4.1-2.649h-3.3v2.649h-1.144v.95h1.147v1h-1.147v.95h1.147v2.617h3.3a4.171 4.171 0 0 0 4.075-2.617h1.048v-.95h-.817a4.314 4.314 0 0 0 .032-.514v-.023c0-.156-.009-.309-.023-.459h.812v-.95Zm-7.5-1.8h2.377a3.241 3.241 0 0 1 3.073 1.8h-5.45Zm2.377 6.461h-2.377v-1.765h5.444a3.245 3.245 0 0 1-3.068 1.762Zm3.382-3.206a3.416 3.416 0 0 1-.035.491h-5.725v-1h5.729a3.755 3.755 0 0 1 .032.482Z" data-name="Path 1564"/></g><g data-name="Group 424"><path fill="#2775ca" d="M9 24a9 9 0 1 0-9-9 8.978 8.978 0 0 0 9 9Z" data-name="Path 1479"/><path fill="#fff" d="M11.536 16.454c0-1.344-.806-1.8-2.419-2-1.152-.154-1.382-.461-1.382-1s.384-.883 1.152-.883a1.136 1.136 0 0 1 1.267.806.289.289 0 0 0 .269.192h.614a.262.262 0 0 0 .269-.269v-.038a1.918 1.918 0 0 0-1.728-1.574v-.921c0-.154-.115-.269-.307-.307h-.576c-.154 0-.269.115-.307.307v.883a1.958 1.958 0 0 0-1.881 1.881c0 1.267.768 1.766 2.38 1.958 1.075.192 1.421.422 1.421 1.037s-.538 1.037-1.267 1.037c-1 0-1.344-.422-1.459-1a.281.281 0 0 0-.269-.23H6.66a.262.262 0 0 0-.269.269v.038a2.145 2.145 0 0 0 2.035 1.843v.922c0 .154.115.269.307.307h.576c.154 0 .269-.115.307-.307v-.922a2.1 2.1 0 0 0 1.92-2.029Z" data-name="Path 1480"/><path fill="#fff" d="M7.103 20.317a5.557 5.557 0 0 1 0-10.44.373.373 0 0 0 .223-.372v-.52a.282.282 0 0 0-.223-.3.224.224 0 0 0-.149.037 6.683 6.683 0 0 0 0 12.744.226.226 0 0 0 .335-.149c.037-.037.037-.074.037-.149v-.52a.5.5 0 0 0-.223-.331Zm3.944-11.592a.226.226 0 0 0-.335.149c-.037.037-.037.074-.037.149v.52a.493.493 0 0 0 .223.372 5.557 5.557 0 0 1 0 10.44.373.373 0 0 0-.223.372v.52a.282.282 0 0 0 .223.3.224.224 0 0 0 .149-.037 6.673 6.673 0 0 0 4.353-8.4 6.743 6.743 0 0 0-4.353-4.386Z" data-name="Path 1481"/></g></svg>