<svg xmlns="http://www.w3.org/2000/svg" width="1em" height="1em" viewBox="0 0 20 20" fill="none">
  <g clip-path="url(#clip0_4448_68096)">
    <path d="M10 20C15.5228 20 20 15.5228 20 10C20 4.47715 15.5228 0 10 0C4.47715 0 0 4.47715 0 10C0 15.5228 4.47715 20 10 20Z" fill="#363A59"/>
    <path d="M13.5 12.0217C13.5 12.7435 13.2432 13.3478 12.7295 13.8348C12.2245 14.313 11.5106 14.5913 10.5877 14.6696V16H9.34701V14.6435C8.76368 14.5652 8.25435 14.3913 7.81903 14.1217C7.39241 13.8435 7.06592 13.5043 6.83955 13.1043C6.61318 12.6957 6.5 12.2565 6.5 11.787H7.87127C7.87127 12.2652 8.06716 12.6652 8.45896 12.987C8.85075 13.3 9.38619 13.4565 10.0653 13.4565C10.7618 13.4565 11.2799 13.3261 11.6194 13.0652C11.959 12.7957 12.1287 12.4478 12.1287 12.0217C12.1287 11.3087 11.6325 10.8652 10.6399 10.6913L8.98134 10.3783C7.45771 10.1 6.6959 9.3 6.6959 7.97826C6.6959 7.28261 6.93097 6.69565 7.40112 6.21739C7.87127 5.73043 8.5199 5.43913 9.34701 5.34348V4H10.5877V5.34348C11.4757 5.45652 12.1723 5.77826 12.6772 6.3087C13.1822 6.83044 13.4347 7.46522 13.4347 8.21304H12.0634C12.0634 7.9087 11.9764 7.63043 11.8022 7.37826C11.6368 7.12609 11.393 6.92609 11.0709 6.77826C10.7488 6.62174 10.37 6.54348 9.9347 6.54348C9.34266 6.54348 8.88122 6.67826 8.55037 6.94783C8.22823 7.21739 8.06716 7.56087 8.06716 7.97826C8.06716 8.63913 8.52861 9.05652 9.45149 9.23043L10.8881 9.4913C11.8022 9.65652 12.4639 9.94348 12.8731 10.3522C13.291 10.7522 13.5 11.3087 13.5 12.0217Z" fill="#A0A3C4"/>
  </g>
  <defs>
    <clipPath id="clip0_4448_68096">
      <rect width="20" height="20" fill="white"/>
    </clipPath>
  </defs>
</svg>
