<svg xmlns="http://www.w3.org/2000/svg" width="24" height="24" fill="none"><g clip-path="url(#a)"><path fill="#309076" d="M23.64 14.905A12 12 0 1 1 .353 9.1a12 12 0 0 1 23.287 5.805Z"/><path fill="#fff" d="m14.063 11.286-3.42-1a.936.936 0 0 1-.398-1.555.933.933 0 0 1 .66-.273h2.1c.386 0 .762.116 1.08.332a.493.493 0 0 0 .617-.063l1.101-1.076a.512.512 0 0 0-.057-.775 4.474 4.474 0 0 0-2.734-.95V4.408a.508.508 0 0 0-.506-.507h-1.012a.508.508 0 0 0-.507.507v1.518h-.079A3.467 3.467 0 0 0 7.459 9.71a3.622 3.622 0 0 0 2.652 3.057l3.243.949a.94.94 0 0 1 .6 1.253.933.933 0 0 1-.863.576h-2.1a1.93 1.93 0 0 1-1.08-.333.493.493 0 0 0-.616.063l-1.101 1.077a.512.512 0 0 0 .057.775 4.474 4.474 0 0 0 2.736.95v1.518a.508.508 0 0 0 .507.506h1.012a.508.508 0 0 0 .506-.506V18.07a3.574 3.574 0 0 0 3.345-2.3 3.474 3.474 0 0 0-2.294-4.484Z"/></g><defs><clipPath id="a"><path fill="#fff" d="M0 0h24v24H0z"/></clipPath></defs></svg>