<svg xmlns="http://www.w3.org/2000/svg" width="24" height="24"><defs><clipPath id="a"><path d="M2.703 3.148h18.594v17.704H2.703Zm0 0"/></clipPath></defs><path style="stroke:none;fill-rule:evenodd;fill:#000;fill-opacity:1" d="M24 12c0 6.629-5.371 12-12 12S0 18.629 0 12 5.371 0 12 0s12 5.371 12 12Zm0 0"/><g clip-path="url(#a)"><path style="stroke:none;fill-rule:nonzero;fill:#fff;fill-opacity:1" d="M15.152 3.488v.785a8.345 8.345 0 0 1 5.2 7.727 8.336 8.336 0 0 1-5.2 7.723v.789a9.077 9.077 0 0 0 0-17.024M2.922 12a9.091 9.091 0 0 0 5.996 8.54v-.786A8.339 8.339 0 0 1 3.656 12a8.339 8.339 0 0 1 5.262-7.754v-.785A9.091 9.091 0 0 0 2.922 12"/><path style="stroke:none;fill-rule:nonzero;fill:#fff;fill-opacity:1" d="m9.137 20.852-.297-.106a9.304 9.304 0 0 1 0-17.492l.297-.106v1.247l-.14.054A8.124 8.124 0 0 0 3.874 12a8.124 8.124 0 0 0 5.121 7.55l.14.055Zm-.442-17.07A8.86 8.86 0 0 0 3.137 12a8.862 8.862 0 0 0 5.558 8.223v-.317a8.567 8.567 0 0 1 0-15.805Zm6.242 17.042v-1.246l.137-.055a8.123 8.123 0 0 0 0-15.043l-.137-.058V3.176l.297.11a9.294 9.294 0 0 1 0 17.429Zm.438-.953v.317A8.847 8.847 0 0 0 20.859 12a8.85 8.85 0 0 0-5.484-8.188v.317A8.557 8.557 0 0 1 20.566 12a8.557 8.557 0 0 1-5.191 7.871"/></g><path style="stroke:none;fill-rule:nonzero;fill:#fff;fill-opacity:1" d="M12.492 19.203H11.43v-1.578a2.969 2.969 0 0 1-2.633-1.04 3.24 3.24 0 0 1-.68-2.151h1.035c.032.254.078.5.137.746.149.765.8 1.332 1.578 1.375.805.054 1.61.047 2.41-.032a1.47 1.47 0 0 0 1.418-1.664c0-.18-.011-.363 0-.543a1.458 1.458 0 0 0-1.308-1.59c-.903-.175-1.813-.296-2.707-.492a5.214 5.214 0 0 1-1.39-.507 1.972 1.972 0 0 1-1.044-1.793 6.653 6.653 0 0 1 .168-1.946c.313-.984 1.168-1.39 2.145-1.535.265-.039.539-.05.851-.078V4.844h1.078v1.55a2.864 2.864 0 0 1 2.535 1.028c.415.55.625 1.23.59 1.918a8.982 8.982 0 0 1-.918-.012c-.066-.008-.156-.191-.168-.3a1.655 1.655 0 0 0-1.187-1.5 1.367 1.367 0 0 0-.332-.051c-.703-.004-1.406-.024-2.11.007a1.466 1.466 0 0 0-1.152.45c-.3.312-.45.738-.41 1.168v.476a1.416 1.416 0 0 0 1.246 1.563c.965.199 1.945.332 2.902.562.493.121.961.317 1.391.586.61.387.965 1.07.926 1.793v.848a2.482 2.482 0 0 1-2.207 2.62c-.356.06-.715.067-1.102.102Zm0 0"/></svg>