<svg viewBox="0 0 20 20" fill="none" xmlns="http://www.w3.org/2000/svg">
  <g clip-path="url(#clip0_1678_83315)">
    <circle cx="10" cy="10" r="10" fill="black" />
    <path
      d="M16.6853 9.16568H3.3151C3.03857 9.16568 2.8125 8.95081 2.8125 8.68737C2.8125 5.55035 6.03734 3 10.0002 3C11.8069 3 13.6379 3.64086 15.0243 4.75815C16.3975 5.86611 17.186 7.29729 17.186 8.68363C17.1879 8.94894 16.9618 9.16568 16.6853 9.16568ZM3.48699 8.49493H16.5096C16.3639 6.2211 13.5725 3.66888 10.0002 3.66888C6.55114 3.66888 3.62338 5.8605 3.48699 8.49493Z"
      fill="white" />
    <path
      d="M14.9511 16H5.03371C3.81739 16 2.82715 15.0041 2.82715 13.7822V12.9153C2.82715 12.635 3.05509 12.4071 3.33348 12.4071H4.20602C4.22096 12.4071 4.2546 12.4071 4.29383 12.4145C4.31438 12.4183 4.34054 12.4239 4.3667 12.4332C4.37978 12.437 4.39286 12.4426 4.40407 12.4463L4.46759 12.4781C4.48628 12.4893 4.49935 12.4986 4.5143 12.5098C4.56848 12.5491 4.61519 12.6032 4.64883 12.663L4.66564 12.6967C4.67125 12.7097 4.67872 12.7247 4.68246 12.7378C4.70301 12.7938 4.71422 12.8536 4.71422 12.9134V13.4926C4.71422 13.685 4.91787 13.8663 5.13461 13.8663C5.33452 13.8663 5.54191 13.7149 5.54191 13.4627V13.1824C5.54191 13.1413 5.54378 13.104 5.55126 13.0685C5.55312 13.0535 5.55499 13.0404 5.55873 13.0255C5.5606 13.0124 5.56433 13.0012 5.56807 12.9881L5.57741 12.9526C5.59236 12.9097 5.60731 12.8685 5.62599 12.833C5.63907 12.8088 5.65402 12.7826 5.66896 12.7602L5.70633 12.706C5.73623 12.6705 5.76612 12.6369 5.79788 12.6088C5.8147 12.5939 5.83338 12.5771 5.8502 12.564C5.86141 12.5547 5.87822 12.5416 5.90064 12.5285C5.91372 12.5192 5.9268 12.5117 5.93988 12.5042C5.9978 12.4706 6.05946 12.4463 6.12485 12.4295C6.14167 12.4257 6.15661 12.4201 6.17343 12.4183C6.19024 12.4145 6.20893 12.4108 6.22574 12.4089L6.26124 12.4052C6.27432 12.4052 6.2874 12.4033 6.30235 12.4033C6.30795 12.4033 6.3229 12.4033 6.33598 12.4033C6.34906 12.4033 6.36214 12.4033 6.37521 12.4052L6.39016 12.4071C6.39016 12.4071 6.45369 12.4145 6.47798 12.4201C6.51721 12.4276 6.55645 12.4407 6.58634 12.4519C6.61997 12.4612 6.65174 12.4762 6.68537 12.4949C6.71152 12.5079 6.73581 12.5229 6.7601 12.5416C6.80308 12.5715 6.83857 12.6014 6.87034 12.635C7.03476 12.7994 7.0796 13.0274 7.09268 13.117C7.09828 13.1656 7.10389 13.1843 7.11136 13.2161C7.11696 13.2385 7.12257 13.2628 7.13004 13.2983C7.13004 13.2983 7.19731 13.4907 7.41591 13.4907C7.58967 13.4907 7.66627 13.4347 7.71111 13.274C7.72419 13.2291 7.73166 13.1301 7.73914 13.0498C7.75969 12.8088 7.79519 12.4052 8.167 12.4052C8.39307 12.4052 16.6569 12.4033 16.6569 12.4033C16.9372 12.4033 17.1651 12.6313 17.1651 12.9115V13.7785C17.1577 15.006 16.1674 16 14.9511 16ZM3.4979 13.0778V13.7822C3.4979 14.636 4.18733 15.3311 5.03371 15.3311H14.9511C15.7975 15.3311 16.4869 14.636 16.4869 13.7822V13.0778C15.4425 13.0778 9.67105 13.0797 8.40241 13.0797C8.40055 13.0909 8.40055 13.1021 8.39868 13.1133C8.38934 13.231 8.37813 13.3525 8.3501 13.4552C8.22679 13.9074 7.883 14.1671 7.4103 14.1671C6.81429 14.1671 6.51908 13.6794 6.46863 13.4421C6.46303 13.4122 6.45742 13.3898 6.45369 13.373C6.44248 13.3226 6.435 13.2908 6.42379 13.2123C6.41819 13.1675 6.3995 13.1245 6.39016 13.1114L6.38082 13.1021C6.38082 13.1021 6.37708 13.1002 6.37335 13.0984L6.34719 13.0871C6.33972 13.0853 6.33411 13.0834 6.32851 13.0815H6.32664H6.31543L6.28366 13.0871C6.27806 13.089 6.27432 13.0909 6.27058 13.0909L6.24069 13.1133C6.23882 13.1152 6.23695 13.1152 6.23695 13.117C6.23509 13.1189 6.23509 13.1208 6.23322 13.1226L6.21827 13.1451C6.21827 13.1451 6.21827 13.1488 6.2164 13.1544L6.2108 13.1824V13.4664C6.2108 14.0587 5.72688 14.5408 5.13274 14.5408C4.54233 14.5408 4.0416 14.0624 4.0416 13.4963V13.0797L3.4979 13.0778ZM6.30422 13.0778L6.27993 13.0797C6.2874 13.0797 6.29301 13.0797 6.29861 13.0797C6.30048 13.0797 6.30235 13.0797 6.30608 13.0797L6.30422 13.0778Z"
      fill="white" />
    <path d="M17.1111 10.1841H2.87402V11.4023H17.1111V10.1841Z"
      fill="url(#paint0_linear_1678_83315)" />
  </g>
  <defs>
    <linearGradient id="paint0_linear_1678_83315" x1="2.87402" y1="10.7932" x2="17.1111"
      y2="10.7932" gradientUnits="userSpaceOnUse">
      <stop stop-color="#9D00FF" />
      <stop offset="1" stop-color="#592AFB" />
    </linearGradient>
    <clipPath id="clip0_1678_83315">
      <rect width="20" height="20" fill="white" />
    </clipPath>
  </defs>
</svg>
