<svg width="24" height="24" viewBox="0 0 24 24" fill="none" xmlns="http://www.w3.org/2000/svg">
<g clip-path="url(#clip0_1218_24193)">
<path d="M12 24C18.6274 24 24 18.6274 24 12C24 5.37258 18.6274 0 12 0C5.37258 0 0 5.37258 0 12C0 18.6274 5.37258 24 12 24Z" fill="#FF007A"/>
<path d="M9.1957 4.3253C8.98195 4.2923 8.97295 4.2878 9.07345 4.2728C9.2662 4.2428 9.7222 4.28405 10.0364 4.3583C10.7692 4.53305 11.4359 4.9793 12.1484 5.77205L12.3374 5.98205L12.6074 5.9393C13.7474 5.75555 14.9077 5.9018 15.8774 6.34955C16.1444 6.47255 16.5652 6.7178 16.6177 6.78155C16.6349 6.80105 16.6657 6.9308 16.6859 7.0688C16.7579 7.54655 16.7219 7.91255 16.5764 8.1863C16.4969 8.3348 16.4924 8.3813 16.5457 8.5088C16.571 8.56147 16.6105 8.60598 16.6598 8.63727C16.7092 8.66856 16.7663 8.68538 16.8247 8.6858C17.0662 8.6858 17.3257 8.2958 17.4457 7.75355L17.4937 7.5383L17.5882 7.64555C18.1072 8.23355 18.5144 9.0353 18.5842 9.6053L18.6029 9.75455L18.5152 9.61955C18.3652 9.38705 18.2152 9.22805 18.0217 9.0998C17.6737 8.86955 17.3054 8.79155 16.3304 8.7398C15.4499 8.6933 14.9512 8.6183 14.4577 8.45705C13.6169 8.1833 13.1932 7.81805 12.1942 6.5078C11.7509 5.9258 11.4764 5.60405 11.2042 5.3453C10.5839 4.7558 9.97495 4.4468 9.1957 4.3253Z" fill="white"/>
<path d="M16.8165 5.62499C16.839 5.23499 16.8915 4.97774 16.998 4.74299C17.04 4.64999 17.0798 4.57349 17.0858 4.57349C17.0791 4.62613 17.0652 4.67761 17.0445 4.72649C16.9673 4.95449 16.9545 5.26649 17.0078 5.62874C17.0753 6.08924 17.1143 6.15524 17.6003 6.65249C17.829 6.88574 18.0945 7.17974 18.1905 7.30649L18.3653 7.53599L18.1905 7.37174C17.9768 7.17149 17.4848 6.77924 17.376 6.72374C17.3033 6.68624 17.292 6.68699 17.247 6.73124C17.2058 6.77324 17.1968 6.83474 17.1915 7.12799C17.1825 7.58399 17.1203 7.87799 16.9695 8.17049C16.8885 8.32799 16.8758 8.29499 16.9493 8.11574C17.004 7.98224 17.0093 7.92374 17.0093 7.48199C17.0093 6.59399 16.9035 6.38099 16.2848 6.01499C16.0986 5.90695 15.9074 5.80784 15.7118 5.71799C15.6151 5.67922 15.5214 5.6336 15.4313 5.58149C15.4485 5.56424 16.0515 5.73974 16.2938 5.83349C16.6553 5.97224 16.7145 5.99024 16.7588 5.97299C16.788 5.96174 16.8023 5.87624 16.8165 5.62499ZM9.61128 7.14374C9.17703 6.54599 8.90853 5.62874 8.96628 4.94324L8.98428 4.73099L9.08328 4.74899C9.26928 4.78274 9.58953 4.90199 9.73953 4.99349C10.1505 5.24324 10.329 5.57249 10.5098 6.41699C10.563 6.66449 10.6328 6.94424 10.665 7.03949C10.716 7.19174 10.911 7.54799 11.07 7.77974C11.184 7.94624 11.1075 8.02499 10.8555 8.00249C10.47 7.96724 9.94803 7.60724 9.61128 7.14374ZM16.29 11.595C14.2598 10.7775 13.545 10.068 13.545 8.87099C13.545 8.69474 13.551 8.55074 13.5578 8.55074C13.5653 8.55074 13.644 8.60849 13.7325 8.67974C14.1443 9.00974 14.6055 9.15074 15.8813 9.33674C16.632 9.44699 17.055 9.53549 17.445 9.66449C18.684 10.0755 19.4505 10.9095 19.6335 12.045C19.686 12.375 19.6553 12.9937 19.569 13.32C19.5015 13.578 19.2938 14.0422 19.239 14.0602C19.224 14.0647 19.209 14.007 19.2045 13.9267C19.1835 13.5007 18.9683 13.0852 18.606 12.774C18.1943 12.4207 17.6423 12.1387 16.29 11.595ZM14.865 11.934C14.841 11.7891 14.8082 11.6459 14.7668 11.505L14.7143 11.3505L14.811 11.4585C14.9438 11.6085 15.0495 11.799 15.138 12.054C15.2063 12.2482 15.2138 12.306 15.213 12.6217C15.213 12.9322 15.2048 12.9967 15.1418 13.1722C15.0542 13.4296 14.9075 13.6628 14.7135 13.8532C14.3423 14.2312 13.866 14.4397 13.1775 14.5267C13.0575 14.5417 12.7095 14.5672 12.4028 14.583C11.6303 14.6235 11.1225 14.706 10.6658 14.8665C10.6246 14.8849 10.5803 14.8956 10.5353 14.898C10.5173 14.8792 10.8278 14.694 11.085 14.5702C11.4473 14.3955 11.8073 14.3002 12.615 14.166C13.014 14.0992 13.4265 14.019 13.5308 13.9867C14.5193 13.6837 15.0278 12.9022 14.865 11.934Z" fill="white"/>
<path d="M15.7949 13.587C15.5249 13.0072 15.4634 12.447 15.6112 11.925C15.6269 11.8695 15.6524 11.8237 15.6674 11.8237C15.7182 11.8421 15.766 11.8679 15.8092 11.9002C15.9337 11.9842 16.1827 12.1252 16.8464 12.4867C17.6752 12.939 18.1477 13.2892 18.4694 13.6882C18.7507 14.0385 18.9247 14.4375 19.0087 14.9235C19.0559 15.1987 19.0282 15.861 18.9577 16.1385C18.7349 17.013 18.2167 17.7 17.4787 18.1005C17.409 18.1408 17.3369 18.1766 17.2627 18.2077C17.2522 18.2077 17.2912 18.108 17.3504 17.985C17.5979 17.466 17.6272 16.9605 17.4389 16.398C17.3242 16.0537 17.0894 15.633 16.6162 14.9235C16.0657 14.0985 15.9307 13.878 15.7949 13.587ZM8.16968 16.7152C8.92343 16.0792 9.86018 15.6277 10.7144 15.489C11.0819 15.429 11.6954 15.453 12.0359 15.54C12.5819 15.6795 13.0709 15.993 13.3252 16.3657C13.5727 16.7302 13.6799 17.0482 13.7902 17.7547C13.8352 18.0337 13.8824 18.3135 13.8967 18.3772C13.9792 18.7432 14.1419 19.0365 14.3429 19.1835C14.6617 19.4167 15.2114 19.431 15.7514 19.221C15.8079 19.1951 15.8673 19.1764 15.9284 19.1655C15.9479 19.185 15.6764 19.3672 15.4844 19.4632C15.2579 19.5845 15.0041 19.6459 14.7472 19.6417C14.2522 19.6417 13.8412 19.3905 13.4984 18.8767C13.4309 18.7755 13.2794 18.4732 13.1609 18.204C12.7994 17.379 12.6209 17.127 12.2009 16.8517C11.8342 16.6117 11.3624 16.569 11.0077 16.743C10.5412 16.9717 10.4114 17.568 10.7452 17.9452C10.8779 18.0952 11.1254 18.225 11.3279 18.2497C11.4163 18.2614 11.5061 18.254 11.5913 18.228C11.6766 18.202 11.7552 18.1581 11.822 18.099C11.8887 18.04 11.9421 17.9674 11.9783 17.886C12.0146 17.8046 12.033 17.7163 12.0322 17.6272C12.0322 17.3782 11.9362 17.2372 11.6962 17.1285C11.3684 16.9807 11.0159 17.1532 11.0174 17.4615C11.0182 17.5927 11.0752 17.6752 11.2072 17.7352C11.2919 17.7727 11.2934 17.7765 11.2244 17.7622C10.9237 17.6992 10.8532 17.337 11.0954 17.0962C11.3857 16.8067 11.9864 16.9342 12.1927 17.3287C12.2797 17.4945 12.2894 17.8252 12.2137 18.0247C12.0449 18.471 11.5514 18.705 11.0512 18.5775C10.7107 18.4905 10.5719 18.3967 10.1617 17.9737C9.44843 17.2387 9.17168 17.0962 8.14268 16.9357L7.94543 16.905L8.17043 16.7152H8.16968Z" fill="white"/>
<path fill-rule="evenodd" clip-rule="evenodd" d="M4.64697 2.51253L4.71897 2.60028C7.49997 6.00528 8.93697 7.77228 9.02847 7.89828C9.17847 8.10678 9.12222 8.29353 8.86422 8.44053C8.72097 8.52228 8.42547 8.60478 8.27847 8.60478C8.11122 8.60478 7.92297 8.52453 7.78572 8.39478C7.68897 8.30253 7.29822 7.71903 6.39597 6.31878C5.97346 5.65697 5.54545 4.9987 5.11197 4.34403C5.07522 4.30953 5.07597 4.31028 6.32547 6.54603C7.10997 7.95003 7.37547 8.44578 7.37547 8.51253C7.37547 8.64753 7.33797 8.71803 7.17147 8.90403C6.89397 9.21378 6.77022 9.56178 6.68022 10.2818C6.57972 11.0895 6.29772 11.6595 5.51472 12.6353C5.05722 13.2068 4.98222 13.3118 4.86597 13.542C4.72047 13.8315 4.68072 13.9943 4.66422 14.3603C4.64697 14.7473 4.68072 14.9978 4.79922 15.3675C4.90272 15.6915 5.01072 15.906 5.28672 16.3335C5.52522 16.7033 5.66247 16.9778 5.66247 17.085C5.66247 17.1705 5.67897 17.1705 6.04872 17.0873C6.93297 16.8878 7.65072 16.536 8.05497 16.1055C8.30472 15.8393 8.36322 15.6923 8.36547 15.327C8.36622 15.0885 8.35797 15.0383 8.29347 14.901C8.18847 14.6775 7.99722 14.4915 7.57572 14.2035C7.02297 13.8255 6.78747 13.521 6.72222 13.1033C6.66822 12.7605 6.73047 12.5183 7.03647 11.8778C7.35222 11.2148 7.43097 10.9328 7.48422 10.2645C7.51797 9.83253 7.56522 9.66228 7.68972 9.52578C7.81872 9.38328 7.93572 9.33453 8.25597 9.29103C8.77797 9.21978 9.11022 9.08478 9.38322 8.83353C9.62022 8.61453 9.71922 8.40378 9.73422 8.08728L9.74622 7.84728L9.61347 7.69278C9.42297 7.47078 7.84722 5.73228 4.88547 2.47578L4.80597 2.38953L4.64697 2.51328V2.51253ZM5.93247 14.799C5.9848 14.7064 6.00042 14.5975 5.97625 14.4938C5.95209 14.3902 5.88989 14.2995 5.80197 14.2395C5.63097 14.1255 5.36472 14.1795 5.36472 14.328C5.36472 14.373 5.38947 14.406 5.44572 14.4353C5.54097 14.484 5.54772 14.5395 5.47347 14.6513C5.39772 14.7653 5.40372 14.8658 5.49072 14.934C5.63022 15.0435 5.82747 14.9828 5.93247 14.799ZM10.0755 9.41703C9.83022 9.49203 9.59247 9.75228 9.51822 10.0245C9.47322 10.1903 9.49872 10.482 9.56622 10.572C9.67497 10.7175 9.78072 10.7558 10.0657 10.7535C10.6237 10.7498 11.1082 10.5105 11.1652 10.2113C11.2117 9.96603 10.998 9.62628 10.7047 9.47628C10.5532 9.39978 10.2315 9.36903 10.0755 9.41703ZM10.728 9.92703C10.8142 9.80478 10.776 9.67203 10.6305 9.58353C10.3515 9.41328 9.92997 9.55353 9.92997 9.81753C9.92997 9.94803 10.1497 10.0913 10.3507 10.0913C10.4857 10.0913 10.6687 10.011 10.728 9.92703Z" fill="white"/>
</g>
<defs>
<clipPath id="clip0_1218_24193">
<rect width="24" height="24" fill="white"/>
</clipPath>
</defs>
</svg>
