<svg xmlns="http://www.w3.org/2000/svg" width="40" height="40"><defs><clipPath id="a"><path data-name="Rectangle 574" fill="none" d="M0 0h30.992v29.504H0z"/></clipPath></defs><path data-name="Path 4941" d="M40 20A20 20 0 1 1 20 0a20 20 0 0 1 20 20Z" fill-rule="evenodd"/><g data-name="Group 436"><g data-name="Group 435" clip-path="url(#a)" fill="#fff" transform="translate(4.504 5.248)"><path data-name="Path 4973" d="M20.752.568v1.309a13.9 13.9 0 0 1 0 25.749v1.309a15.124 15.124 0 0 0 0-28.367M.366 14.752a15.154 15.154 0 0 0 9.991 14.231v-1.308a13.907 13.907 0 0 1 0-25.847V.522a15.154 15.154 0 0 0-9.991 14.23"/><path data-name="Path 4974" d="m10.723 29.504-.491-.178a15.5 15.5 0 0 1 0-29.149l.491-.178v2.078l-.231.092a13.541 13.541 0 0 0 0 25.167l.231.092Zm-.732-28.45a14.762 14.762 0 0 0 0 27.4v-.528a14.273 14.273 0 0 1 0-26.339Zm10.4 28.408v-2.081l.228-.093a13.538 13.538 0 0 0 0-25.071l-.228-.093V.042l.494.183a15.491 15.491 0 0 1 0 29.054Zm.733-1.592v.529a14.757 14.757 0 0 0 0-27.293v.528a14.271 14.271 0 0 1 0 26.236"/><path data-name="Path 4975" d="M16.317 26.755h-1.773v-2.629a4.949 4.949 0 0 1-4.387-1.73 5.413 5.413 0 0 1-1.135-3.585h1.727a12.311 12.311 0 0 0 .226 1.24 2.845 2.845 0 0 0 2.634 2.292 24.005 24.005 0 0 0 4.015-.055 2.433 2.433 0 0 0 2.362-2.768c0-.3-.02-.606 0-.907a2.427 2.427 0 0 0-2.18-2.648c-1.5-.292-3.019-.494-4.51-.825a8.386 8.386 0 0 1-2.316-.844 3.293 3.293 0 0 1-1.743-2.99 11.11 11.11 0 0 1 .283-3.241c.521-1.64 1.943-2.318 3.571-2.56.446-.066.9-.084 1.42-.131V2.823h1.8v2.586a4.785 4.785 0 0 1 4.222 1.712 4.892 4.892 0 0 1 .982 3.2 13.794 13.794 0 0 1-1.524-.024c-.115-.013-.26-.317-.283-.5a2.758 2.758 0 0 0-1.977-2.5 2.187 2.187 0 0 0-.558-.084c-1.171-.006-2.344-.036-3.514.01a2.468 2.468 0 0 0-2.6 2.7v.794a2.352 2.352 0 0 0 2.076 2.6c1.606.337 3.239.558 4.833.939a8.069 8.069 0 0 1 2.322.976 3.324 3.324 0 0 1 1.538 2.989v1.417a4.131 4.131 0 0 1-3.676 4.363c-.589.1-1.192.114-1.837.171Z"/></g></g></svg>