<svg viewBox="0 0 20 20" fill="none" xmlns="http://www.w3.org/2000/svg">
  <g clip-path="url(#clip0_3144_57684)">
    <circle cx="10" cy="10" r="10" fill="#1E2431" />
    <g clip-path="url(#clip1_3144_57684)">
      <path
        d="M16.3822 7.33923L11.5496 15.1865C11.4035 15.4232 11.1935 15.6197 10.9409 15.7562C10.6882 15.8929 10.4016 15.9648 10.1099 15.9648C9.81825 15.9648 9.5317 15.8929 9.27902 15.7562C9.02633 15.6197 8.81641 15.4232 8.67028 15.1865L7.82311 13.8119C7.82039 13.8085 7.81922 13.8042 7.81986 13.8C7.82051 13.7958 7.82291 13.792 7.82654 13.7894C7.83019 13.7868 7.83476 13.7857 7.83926 13.7863C7.84377 13.7869 7.84783 13.7892 7.85055 13.7926C8.00167 13.9325 8.18492 14.0381 8.38627 14.1013C8.58761 14.1646 8.80172 14.1839 9.01222 14.1577C9.22272 14.1314 9.42404 14.0604 9.60078 13.9501C9.77751 13.8397 9.92498 13.6929 10.0319 13.5209L14.0774 6.94534C14.184 6.77173 14.2466 6.57744 14.2603 6.37752C14.274 6.17759 14.2385 5.97739 14.1564 5.79241C14.0743 5.60743 13.9479 5.44265 13.787 5.31081C13.6261 5.17898 13.435 5.08363 13.2285 5.03216C13.2239 5.03216 13.2196 5.03046 13.2163 5.02745C13.2131 5.02443 13.2113 5.02034 13.2113 5.01608C13.2113 5.01181 13.2131 5.00772 13.2163 5.00471C13.2196 5.00169 13.2239 5 13.2285 5H14.9434C15.2353 5.0003 15.5218 5.07257 15.7744 5.20956C16.0271 5.34656 16.2369 5.54345 16.3826 5.78047C16.5284 6.01749 16.6051 6.2863 16.605 6.55991C16.605 6.83351 16.5281 7.10228 16.3822 7.33923ZM10.6613 5H8.98582C8.98239 5.00106 8.9794 5.0031 8.97728 5.00585C8.97517 5.00859 8.97403 5.01189 8.97403 5.01527C8.97403 5.01866 8.97517 5.02196 8.97728 5.0247C8.9794 5.02744 8.98239 5.02949 8.98582 5.03055C9.09866 5.07141 9.20078 5.13463 9.28515 5.2159C9.36954 5.29716 9.43421 5.39455 9.47476 5.5014C9.5153 5.60825 9.53075 5.72205 9.52007 5.83502C9.50938 5.94798 9.4728 6.05746 9.41283 6.15595L6.97081 10.1158C6.90772 10.2162 6.8217 10.3022 6.71892 10.3678C6.61614 10.4333 6.49914 10.4767 6.37635 10.4949C6.25355 10.513 6.12801 10.5054 6.0087 10.4727C5.8894 10.4399 5.77932 10.3828 5.68635 10.3055C5.68362 10.3021 5.67956 10.2998 5.67506 10.2992C5.67055 10.2986 5.66598 10.2997 5.66234 10.3023C5.65871 10.3048 5.6563 10.3086 5.65566 10.3128C5.65502 10.3171 5.65618 10.3214 5.65891 10.3248L6.51637 11.7203C6.61264 11.8769 6.75122 12.0069 6.91815 12.0974C7.08507 12.1878 7.27448 12.2354 7.46728 12.2354C7.66008 12.2354 7.84948 12.1878 8.01641 12.0974C8.18334 12.0069 8.32191 11.8769 8.41818 11.7203L11.613 6.54341C11.7094 6.3869 11.7601 6.20935 11.7601 6.02864C11.76 5.84792 11.7092 5.67041 11.6127 5.51395C11.5162 5.3575 11.3775 5.22763 11.2105 5.1374C11.0435 5.04718 10.854 4.99979 10.6613 5ZM4.84605 5C4.56013 5 4.28062 5.07949 4.04289 5.22841C3.80515 5.37733 3.61985 5.589 3.51044 5.83665C3.40102 6.0843 3.37239 6.35681 3.42817 6.61972C3.48395 6.88262 3.62164 7.12411 3.82381 7.31365C4.02599 7.5032 4.28359 7.63228 4.56402 7.68457C4.84445 7.73686 5.13512 7.71003 5.39928 7.60744C5.66345 7.50487 5.88922 7.33115 6.04807 7.10828C6.20692 6.8854 6.29171 6.62336 6.29171 6.35531C6.29193 6.17726 6.2547 6.00093 6.18213 5.8364C6.10956 5.67187 6.00308 5.52238 5.86879 5.39649C5.7345 5.2706 5.57505 5.17077 5.39955 5.10274C5.22406 5.0347 5.03596 4.99979 4.84605 5Z"
        fill="url(#paint0_linear_3144_57684)" />
    </g>
  </g>
  <defs>
    <linearGradient id="paint0_linear_3144_57684" x1="16.4361" y1="13.6769" x2="1.9667" y2="3.19581"
      gradientUnits="userSpaceOnUse">
      <stop stop-color="#5433FF" />
      <stop offset="0.5" stop-color="#20BDFF" />
      <stop offset="1" stop-color="#5CFFA2" />
    </linearGradient>
    <clipPath id="clip0_3144_57684">
      <rect width="20" height="20" fill="white" />
    </clipPath>
    <clipPath id="clip1_3144_57684">
      <rect width="13.2" height="11" fill="white" transform="translate(3.40039 5)" />
    </clipPath>
  </defs>
</svg>
