<svg height="64" viewBox="0 0 64 64" width="64" xmlns="http://www.w3.org/2000/svg"><path d="m32-58.437a32 32 0 0 0 -32 32 32 32 0 0 0 32 32 32 32 0 0 0 32-32 32 32 0 0 0 -32-32z" fill="#fff" transform="translate(0 58.437)"/><g transform="translate(13 51)"><path d="m25-31.25v-12.5h-20.312a4.688 4.688 0 0 0 -4.688 4.688v40.625a4.688 4.688 0 0 0 4.688 4.687h28.125a4.688 4.688 0 0 0 4.687-4.687v-32.813zm2.56 16.368-9.375 10.938a2.344 2.344 0 0 1 -1.691.815.829.829 0 0 1 -.089 0 2.347 2.347 0 0 1 -1.657-.687l-4.686-4.684a2.343 2.343 0 0 1 0-3.314 2.343 2.343 0 0 1 3.314 0l2.9 2.9 7.724-9.02a2.347 2.347 0 0 1 3.305-.253 2.344 2.344 0 0 1 .255 3.305z" fill="#303fd0"/><path d="m25-43.75v12.5h12.5zm-1 25.816-7.725 9.018-2.9-2.9a2.343 2.343 0 0 0 -3.314 0 2.343 2.343 0 0 0 0 3.314l4.688 4.688a2.347 2.347 0 0 0 1.657.687.829.829 0 0 0 .089 0 2.344 2.344 0 0 0 1.691-.815l9.374-10.94a2.344 2.344 0 0 0 -.253-3.305 2.347 2.347 0 0 0 -3.307.253z" fill="#50d0fe"/></g></svg>