<svg viewBox="0 0 24 24" fill="none" xmlns="http://www.w3.org/2000/svg">
  <path
    d="M19 3C19.55 3 20.0211 3.1959 20.4131 3.58789C20.8051 3.97989 21.0007 4.45067 21 5V19C21 19.55 20.8044 20.0211 20.4131 20.4131C20.0218 20.8051 19.5507 21.0007 19 21H5C4.45 21 3.97922 20.8044 3.58789 20.4131C3.19657 20.0218 3.00067 19.5507 3 19V5C3 4.45 3.19589 3.97922 3.58789 3.58789C3.97989 3.19656 4.45067 3.00067 5 3H19ZM5.2168 8.2998L7.8457 16H9.9248L12.5537 8.2998H11.0029L9.00098 14.2734H8.78125L6.76855 8.2998H5.2168ZM15.709 8.19043C15.203 8.19043 14.7515 8.30392 14.3555 8.53125C13.9597 8.75123 13.6516 9.06265 13.4316 9.46582C13.2117 9.86904 13.1016 10.3311 13.1016 10.8516H14.5322C14.5323 10.4778 14.6424 10.1696 14.8623 9.92773C15.0896 9.68595 15.3718 9.56543 15.709 9.56543C16.0388 9.56544 16.3099 9.67136 16.5225 9.88379C16.7351 10.0891 16.8418 10.3497 16.8418 10.665C16.8418 10.8997 16.8014 11.0941 16.7207 11.248C16.64 11.3947 16.5119 11.5565 16.3359 11.7324L13.1895 14.7568V16H18.3818V14.6475H15.2803V14.5918L17.1504 12.7656C17.5388 12.3918 17.8245 12.0545 18.0078 11.7539C18.1985 11.4459 18.2939 11.0752 18.2939 10.6426C18.2939 10.1734 18.1838 9.75182 17.9639 9.37793C17.7512 9.00397 17.4468 8.71411 17.0508 8.50879C16.6622 8.2962 16.2149 8.19044 15.709 8.19043Z"
    fill="currentColor" />
</svg>
