<svg viewBox="0 0 24 24" fill="none" xmlns="http://www.w3.org/2000/svg">
  <path
    d="M19 3C19.55 3 20.0211 3.1959 20.4131 3.58789C20.8051 3.97989 21.0007 4.45067 21 5V19C21 19.55 20.8044 20.0211 20.4131 20.4131C20.0218 20.8051 19.5507 21.0007 19 21H5C4.45 21 3.97922 20.8044 3.58789 20.4131C3.19657 20.0218 3.00067 19.5507 3 19V5C3 4.45 3.19589 3.97922 3.58789 3.58789C3.97989 3.19656 4.45067 3.00067 5 3H19ZM6.25879 8.2998L8.8877 16H10.9668L13.5957 8.2998H12.0449L10.043 14.2734H9.82324L7.81055 8.2998H6.25879ZM15.541 8.2998V8.78418C15.541 9.01872 15.4309 9.13574 15.2109 9.13574H13.9678V10.4668H15.541V16H16.9707V8.2998H15.541Z"
    fill="currentColor" />
</svg>
