<svg xmlns="http://www.w3.org/2000/svg" width="40" height="40" fill="none" viewBox="0 0 40 40">
  <g clip-path="url(#a)">
    <path fill="#CFF4EB" d="M20 40c11.046 0 20-8.954 20-20S31.046 0 20 0 0 8.954 0 20s8.954 20 20 20Z"/>
    <path fill="url(#b)" fill-rule="evenodd" d="M25.37 20.712c2.345-.82 4.547-2.212 6.234-3.727a.355.355 0 0 0 .115-.239.336.336 0 0 0-.077-.247.319.319 0 0 0-.219-.134.352.352 0 0 0-.257.048 20.632 20.632 0 0 1-5.472 2.297c.058-.724.048-1.458-.047-2.192-.22-1.62-.763-3.232-1.907-4.461-1.268-1.402-3.346-1.926-5.138-1.364-2.154.64-3.946 2.584-4.013 4.9-.085 3.05 2.755 5.529 5.643 5.815.334.038.677.057 1.02.057-.534 1.163-1.22 2.278-1.963 3.308-2.269-3.747-5.682-6.816-9.723-8.494a16.113 16.113 0 0 0-2.927-.943c-.343-.067-.667-.134-1.02-.172a.39.39 0 0 0-.247.067.325.325 0 0 0-.143.21.319.319 0 0 0 .019.247.352.352 0 0 0 .18.172 24.3 24.3 0 0 1 6.15 4.328 23.598 23.598 0 0 1 5.433 7.988c.543 1.296 2.25 1.773 3.393.934.172-.134.334-.277.477-.439a20.935 20.935 0 0 0 2.688-3.631 16.222 16.222 0 0 0 1.801-4.328ZM20.3 26.65l.028.058-.029-.058Zm1.744-7.482a8.694 8.694 0 0 0 .238-2.326c-.076-1.401-.62-3.384-2.288-3.413-1.44-.019-2.755 1.344-2.345 2.784.61 2.106 2.43 2.869 4.395 2.955Z" clip-rule="evenodd"/>
    <path fill="url(#c)" d="M32.71 15.555c.143.686.372 1.125 1.039 1.03.572-.077 1.039-.649 1.039-1.22 0-.573-.467-.935-1.039-.85-.715.115-1.153.477-1.039 1.04Z"/>
  </g>
  <defs>
    <linearGradient id="b" x1="5.329" x2="34.879" y1="10.29" y2="29.354" gradientUnits="userSpaceOnUse">
      <stop stop-color="#44BCC3"/>
      <stop offset="1" stop-color="#236D66"/>
    </linearGradient>
    <linearGradient id="c" x1="11.291" x2="40.841" y1="1.048" y2="20.112" gradientUnits="userSpaceOnUse">
      <stop stop-color="#44BCC3"/>
      <stop offset="1" stop-color="#236D66"/>
    </linearGradient>
    <clipPath id="a">
      <path fill="#fff" d="M0 0h40v40H0z"/>
    </clipPath>
  </defs>
</svg>
