<svg xmlns="http://www.w3.org/2000/svg" width="24" height="24" fill="none" viewBox="0 0 24 24">
  <g clip-path="url(#a)">
    <path fill="#CFF4EB" d="M12 24c6.627 0 12-5.373 12-12S18.627 0 12 0 0 5.373 0 12s5.373 12 12 12Z"/>
    <path fill="url(#b)" fill-rule="evenodd" d="M15.222 12.427c1.407-.492 2.728-1.327 3.74-2.236a.213.213 0 0 0 .07-.143.201.201 0 0 0-.047-.149.191.191 0 0 0-.131-.08.21.21 0 0 0-.154.029 12.38 12.38 0 0 1-3.283 1.378 6.334 6.334 0 0 0-.029-1.315c-.132-.973-.458-1.94-1.144-2.677-.76-.84-2.007-1.155-3.083-.818-1.292.383-2.367 1.55-2.407 2.94-.052 1.83 1.652 3.317 3.385 3.489.2.022.407.034.612.034a11.94 11.94 0 0 1-1.178 1.985c-1.361-2.248-3.409-4.09-5.834-5.096A9.666 9.666 0 0 0 3.984 9.2c-.206-.04-.4-.08-.612-.103a.235.235 0 0 0-.149.04.195.195 0 0 0-.086.126.191.191 0 0 0 .012.149.212.212 0 0 0 .108.103 14.581 14.581 0 0 1 3.69 2.597 14.16 14.16 0 0 1 3.26 4.792c.325.778 1.349 1.064 2.035.56.103-.08.2-.165.286-.262a12.564 12.564 0 0 0 1.613-2.18 9.738 9.738 0 0 0 1.081-2.596ZM12.18 15.99l.018.035a5.513 5.513 0 0 0-.018-.035Zm1.047-4.49c.109-.457.16-.926.143-1.395-.046-.84-.372-2.03-1.373-2.047-.863-.012-1.652.806-1.407 1.67.367 1.264 1.459 1.721 2.637 1.773Z" clip-rule="evenodd"/>
    <path fill="url(#c)" d="M19.626 9.333c.086.412.223.675.623.618.344-.046.624-.39.624-.732 0-.344-.28-.56-.624-.51-.429.07-.692.287-.623.624Z"/>
  </g>
  <defs>
    <linearGradient id="b" x1="3.197" x2="20.927" y1="6.174" y2="17.612" gradientUnits="userSpaceOnUse">
      <stop stop-color="#44BCC3"/>
      <stop offset="1" stop-color="#236D66"/>
    </linearGradient>
    <linearGradient id="c" x1="6.775" x2="24.505" y1=".629" y2="12.067" gradientUnits="userSpaceOnUse">
      <stop stop-color="#44BCC3"/>
      <stop offset="1" stop-color="#236D66"/>
    </linearGradient>
    <clipPath id="a">
      <path fill="#fff" d="M0 0h24v24H0z"/>
    </clipPath>
  </defs>
</svg>
