<svg xmlns="http://www.w3.org/2000/svg" width="24" height="24" fill="none"><path fill-rule="evenodd" clip-rule="evenodd" d="M12 0c6.626 0 12 5.373 12 12 0 6.626-5.374 12-12 12-6.627 0-12-5.374-12-12C0 5.373 5.373 0 12 0Z" fill="#fff"/><path fill-rule="evenodd" clip-rule="evenodd" d="m19.569 5.037-.658.659a9.33 9.33 0 0 1 0 12.591l.658.659a10.27 10.27 0 0 0 0-13.925v.016Zm-13.86.057a9.33 9.33 0 0 1 12.591 0l.659-.658a10.267 10.267 0 0 0-13.924 0l.674.658Zm-.615 13.199a9.328 9.328 0 0 1 0-12.584l-.658-.659a10.265 10.265 0 0 0 0 13.923l.658-.68Zm13.199.608a9.326 9.326 0 0 1-12.59 0l-.66.66a10.272 10.272 0 0 0 13.925 0l-.675-.66Z" fill="#5A5564"/><path fill-rule="evenodd" clip-rule="evenodd" d="M13.997 10.322c0 1.317-2.06 1.158-2.716 1.158V9.158c.655 0 2.716-.206 2.716 1.164Zm.537 3.605c0 1.44-2.468 1.275-3.255 1.275v-2.555c.787 0 3.255-.225 3.255 1.28ZM16.16 9.8c-.131-1.375-1.317-1.836-2.818-1.978V5.93h-1.159v1.858c-.306 0-.617 0-.928.01V5.93h-1.153v1.906h-2.35v1.241s.857-.015.843 0a.601.601 0 0 1 .66.51v5.221a.42.42 0 0 1-.14.285.427.427 0 0 1-.3.1c.014.013-.843 0-.843 0l-.231 1.386h2.341v1.938h1.161v-1.91h.926v1.9h1.162v-1.914c1.96-.12 3.326-.602 3.497-2.437.139-1.476-.555-2.135-1.665-2.401.675-.343 1.098-.947.997-1.953" fill="#F09242"/><path fill-rule="evenodd" clip-rule="evenodd" d="M11.998.936C5.892.939.946 5.89.946 11.996.948 18.103 5.897 23.05 12.003 23.05c6.105.002 11.057-4.947 11.059-11.053C23.054 5.892 18.104.944 11.997.941V.936Zm0 23.064C5.37 23.999-.002 18.626 0 12 0 5.372 5.373 0 11.999 0s12 5.371 12.001 11.997C23.993 18.624 18.623 23.993 11.998 24Z" fill="#282138"/></svg>