<svg id="ic_avalanche_24" xmlns="http://www.w3.org/2000/svg" width="24" height="24" viewBox="0 0 24 24">
  <circle id="Ellipse_81" data-name="Ellipse 81" cx="12" cy="12" r="12" fill="#e84142"/>
  <path id="Path_1563" data-name="Path 1563" d="M147.557,78.588a.793.793,0,0,1,1.5,0l2.589,4.545c.416.718.076,1.3-.756,1.3h-5.216c-.822,0-1.162-.586-.756-1.3Zm-5.008-8.75a.787.787,0,0,1,1.493,0l.576,1.039,1.361,2.391a2.484,2.484,0,0,1,0,2.164l-4.564,7.909a2.4,2.4,0,0,1-1.871,1.1h-3.789c-.831,0-1.172-.576-.756-1.3Z" transform="translate(-131.323 -66.276)" fill="#fff"/>
</svg>
