<svg viewBox="0 0 20 20" fill="none" xmlns="http://www.w3.org/2000/svg">
  <path
    d="M9.99993 4C10.6077 4 11.1741 4.28997 11.5209 4.77429L11.5878 4.87364L16.7515 13.2859C16.9085 13.5511 16.9938 13.8508 16.9997 14.157C17.0055 14.4631 16.9316 14.7657 16.7849 15.0364C16.6382 15.3071 16.4235 15.5371 16.1609 15.7047C15.8983 15.8724 15.5963 15.9723 15.2833 15.995L15.1592 16H4.83361C4.52031 15.9966 4.21301 15.9157 3.9404 15.765C3.66779 15.6144 3.43875 15.3988 3.27466 15.1383C3.11057 14.8779 3.01678 14.5812 3.00205 14.2758C2.98732 13.9704 3.05213 13.6664 3.19042 13.3921L3.25342 13.2772L8.41465 4.87116C8.5799 4.60529 8.81259 4.38545 9.09026 4.23286C9.36794 4.08027 9.68124 4.00007 9.99993 4ZM10.0063 12.2769L9.92547 12.2813C9.77079 12.2992 9.62823 12.3719 9.5248 12.4855C9.42136 12.5992 9.36423 12.7459 9.36423 12.8979C9.36423 13.0498 9.42136 13.1965 9.5248 13.3102C9.62823 13.4238 9.77079 13.4965 9.92547 13.5144L9.99993 13.5188L10.0808 13.5144C10.2354 13.4965 10.378 13.4238 10.4814 13.3102C10.5849 13.1965 10.642 13.0498 10.642 12.8979C10.642 12.7459 10.5849 12.5992 10.4814 12.4855C10.378 12.3719 10.2354 12.2992 10.0808 12.2813L10.0063 12.2769ZM9.99993 7.93046C9.84405 7.93048 9.6936 7.98631 9.57712 8.08737C9.46064 8.18843 9.38622 8.32769 9.36798 8.47873L9.36352 8.55138V11.0351L9.36798 11.1077C9.38638 11.2586 9.46087 11.3977 9.57733 11.4987C9.6938 11.5996 9.84416 11.6553 9.99993 11.6553C10.1557 11.6553 10.3061 11.5996 10.4225 11.4987C10.539 11.3977 10.6135 11.2586 10.6319 11.1077L10.6363 11.0351V8.55138L10.6319 8.47873C10.6136 8.32769 10.5392 8.18843 10.4227 8.08737C10.3063 7.98631 10.1558 7.93048 9.99993 7.93046Z"
    fill="currentColor" />
</svg>
