<svg xmlns="http://www.w3.org/2000/svg" width="32" height="32"><circle data-name="Ellipse 142" cx="16" cy="16" r="16" fill="#ec1c79"/><g data-name="Group 197"><path d="M11.456 26.134c5.2 0 5.2-.078 6.083-.339 1.152-.342-3.256-3.392-6.083-3.392s-5.122.836-5.122 1.866 2.293 1.865 5.122 1.865Z"/><path data-name="Oval" d="m23.265 10.269.239.258-.209.283c-6.783 9.17-10.691 13.323-12.348 12.77a6.953 6.953 0 0 1-3.035-2.841 20.9 20.9 0 0 1-1.457-2.496 2.2 2.2 0 0 1-.2-.578v-.023c-.016-.082-.021-.108-.033-.152A9.247 9.247 0 0 1 19.659 7.037l.035.022a22.783 22.783 0 0 1 3.571 3.21Zm-4.04-2.502a8.4 8.4 0 0 0-12.189 9.5c.019.069.027.108.046.208v.021a1.377 1.377 0 0 0 .133.377 20.148 20.148 0 0 0 1.392 2.384 6.347 6.347 0 0 0 2.605 2.515c1.044.351 4.975-3.81 11.186-12.183a21.336 21.336 0 0 0-3.173-2.822Z"/><path d="M19.227 7.767a8.4 8.4 0 0 0-12.19 9.5c.019.069.027.108.046.208v.021a1.377 1.377 0 0 0 .131.375 20.148 20.148 0 0 0 1.392 2.384 6.347 6.347 0 0 0 2.605 2.515c1.044.351 4.975-3.81 11.186-12.183a21.335 21.335 0 0 0-3.175-2.822Z" fill="#ec1c79"/><path data-name="Oval" d="M16.848 26.049a9.244 9.244 0 1 1 9.243-9.243 9.244 9.244 0 0 1-9.243 9.243Zm0-.848a8.4 8.4 0 1 0-8.4-8.4 8.4 8.4 0 0 0 8.4 8.4Z"/><path data-name="Path" d="M16.848 25.201a8.4 8.4 0 1 0-8.4-8.4 8.4 8.4 0 0 0 8.4 8.4Z" fill="#fff"/><path d="m10.568 18.525-1.111-3.348h.974l.579 1.924.641-1.933h.793l.641 1.933.579-1.924h.955l-1.111 3.348h-.8l-.672-1.915-.664 1.914Zm4.418-.024v-3.324h2.674v.782h-1.764v.5h1.6v.727h-1.6v.527h1.786v.784Zm3.98 0v-2.516h-1v-.807h2.916v.807h-1v2.517Zm2.322 0v-3.324h.92v1.244h1.183v-1.244h.921v3.324h-.921v-1.263h-1.183v1.263ZM6.46 14.178a.475.475 0 0 1 .426-.849l1.357.678a.475.475 0 1 1-.426.849Z"/><path data-name="Line" d="M6.303 16.427a.476.476 0 1 1 .4-.863l1.357.626a.475.475 0 0 1-.4.861Z"/></g></svg>
