<svg id="ic_weth_24" xmlns="http://www.w3.org/2000/svg" width="24" height="24" viewBox="0 0 24 24">
  <circle id="Ellipse_142" data-name="Ellipse 142" cx="12" cy="12" r="12" fill="#ec1c79"/>
  <g id="Group_197" data-name="Group 197" transform="translate(4.449 4.418)">
    <path id="Oval" d="M5.932,54.725c3.891,0,3.891-.058,4.551-.254.862-.256-2.436-2.538-4.551-2.538S2.1,52.559,2.1,53.33,3.815,54.725,5.932,54.725Z" transform="translate(-1.781 -39.562)"/>
    <path id="Oval-2" data-name="Oval" d="M13.768,4.08l.179.193-.156.211c-5.074,6.861-8,9.968-9.238,9.551A5.2,5.2,0,0,1,2.282,11.91c-.266-.39-.516-.8-.744-1.208-.151-.272-.28-.52-.346-.659a1.643,1.643,0,0,1-.149-.432l0-.017c-.012-.061-.016-.081-.025-.114A6.918,6.918,0,0,1,11.07,1.662l.026.017a17.044,17.044,0,0,1,2.671,2.4ZM10.747,2.208A6.285,6.285,0,0,0,1.628,9.317c.014.052.02.081.035.156l0,.015a1.031,1.031,0,0,0,.1.282c.061.128.183.363.328.624.219.392.459.786.714,1.16a4.748,4.748,0,0,0,1.949,1.882c.781.262,3.722-2.85,8.369-9.114a15.962,15.962,0,0,0-2.377-2.112Z" transform="translate(-0.782 -0.786)"/>
    <path id="Path" d="M12.738,4.2a6.285,6.285,0,0,0-9.12,7.108c.014.052.02.081.035.156l0,.015a1.031,1.031,0,0,0,.1.281c.061.128.183.363.328.624.219.392.459.786.714,1.16a4.748,4.748,0,0,0,1.949,1.882c.781.262,3.722-2.85,8.369-9.114A15.961,15.961,0,0,0,12.738,4.2Z" transform="translate(-2.773 -2.779)" fill="#ec1c79"/>
    <path id="Oval-3" data-name="Oval" d="M12.948,19.864a6.915,6.915,0,1,1,6.915-6.915,6.915,6.915,0,0,1-6.915,6.915Zm0-.634a6.281,6.281,0,1,0-6.281-6.281,6.281,6.281,0,0,0,6.281,6.281Z" transform="translate(-4.763 -4.764)"/>
    <path id="Path-2" data-name="Path" d="M14.937,21.218a6.281,6.281,0,1,0-6.281-6.281A6.281,6.281,0,0,0,14.937,21.218Z" transform="translate(-6.751 -6.752)" fill="#fff"/>
    <path id="WETH" d="M12.592,32.07l-.831-2.5h.728L12.923,31l.48-1.446H14L14.475,31l.433-1.439h.714l-.831,2.5h-.6l-.5-1.432-.5,1.432Zm3.306-.018V29.565h2v.585h-1.32v.377h1.194v.544H16.579v.394h1.336v.586Zm2.977,0V30.169h-.748v-.6h2.181v.6h-.746v1.883Zm1.737,0V29.565H21.3V30.5h.885v-.931h.689v2.487h-.689v-.945H21.3v.945Z" transform="translate(-9.105 -22.599)"/>
    <path id="Line" d="M1.876,24.385a.355.355,0,1,1,.319-.635l1.015.507a.355.355,0,1,1-.319.635Z" transform="translate(-1.462 -18.166)"/>
    <path id="Line-2" data-name="Line" d="M1.359,31.327a.355.355,0,1,1,.3-.646l1.015.469a.355.355,0,0,1-.3.644Z" transform="translate(-1.062 -23.425)"/>
  </g>
</svg>
