<svg width="1em" height="1em" viewBox="0 0 16 16" fill="none" xmlns="http://www.w3.org/2000/svg">
  <path
    d="M8 2.5C8.39279 2.50002 8.75879 2.66407 9.0127 2.94043L9.11426 3.06543L9.17285 3.15234L14.3252 11.5479C14.4357 11.7374 14.4959 11.9505 14.5 12.167C14.5041 12.3859 14.4512 12.603 14.3457 12.7979C14.2399 12.9931 14.0837 13.1606 13.8916 13.2832C13.7003 13.4053 13.4797 13.4779 13.25 13.4951L13.1396 13.5H2.83887C2.60793 13.4974 2.38226 13.4375 2.18262 13.3271C1.98294 13.2168 1.81581 13.0602 1.69727 12.8721C1.57882 12.6841 1.51254 12.4706 1.50195 12.252C1.49149 12.0352 1.53594 11.8183 1.63379 11.6221L1.67969 11.5391L6.83984 3.13184C6.95912 2.94094 7.12856 2.78217 7.33105 2.6709C7.48372 2.58701 7.65161 2.53263 7.8252 2.51074L8 2.5ZM9.13672 6.53613L9.13574 6.52051L9.13086 6.44824L9.12988 6.43359L9.12793 6.41895L9.11133 6.31641C9.06016 6.08079 8.93268 5.86846 8.75 5.70996C8.54154 5.52915 8.27477 5.4307 8 5.43066C7.72519 5.4307 7.4575 5.52909 7.24902 5.70996C7.04045 5.89108 6.90538 6.14305 6.87207 6.41895L6.87012 6.43359L6.86914 6.44824L6.86426 6.52051L6.86328 6.53613V9.05078L6.87012 9.15332L6.87207 9.16797C6.9057 9.4438 7.04125 9.69607 7.25 9.87695C7.2879 9.90978 7.32865 9.93854 7.37012 9.96582C7.29175 10.0174 7.21944 10.0789 7.15527 10.1494C6.96923 10.3539 6.86436 10.6197 6.86426 10.8975C6.86426 11.1754 6.96908 11.4419 7.15527 11.6465C7.34119 11.8507 7.59529 11.9791 7.86816 12.0107L7.88184 12.0127L7.89648 12.0137L7.9707 12.0176L7.99902 12.0195L8.02637 12.0176L8.10742 12.0137L8.12305 12.0127L8.13867 12.0107C8.41142 11.979 8.66572 11.8507 8.85156 11.6465C9.03758 11.442 9.1416 11.1753 9.1416 10.8975C9.1415 10.6198 9.03744 10.3538 8.85156 10.1494C8.7864 10.0778 8.71259 10.015 8.63281 9.96289C8.67305 9.93621 8.71314 9.90888 8.75 9.87695C8.95875 9.69607 9.0943 9.4438 9.12793 9.16797L9.12988 9.15332L9.13672 9.05078V6.53613Z"
    fill="currentColor" stroke="currentColor" />
</svg>
  
