<svg viewBox="0 0 20 20" fill="none" xmlns="http://www.w3.org/2000/svg">
  <path
    d="M15.6985 3.72363C16.2226 3.72386 16.6475 4.14873 16.6477 4.6729C16.6477 5.19725 16.2228 5.62338 15.6985 5.6236H4.67085C4.35051 5.62389 4.09091 5.88313 4.09091 6.20355C4.09095 6.52392 4.35054 6.7832 4.67085 6.78349H15.3176C16.8678 6.78349 18.125 8.04072 18.125 9.59089V11.5327C18.125 13.2067 18.1254 14.0441 17.7961 14.682C17.5149 15.2263 17.0708 15.6703 16.5265 15.9515C15.8887 16.281 15.0513 16.2805 13.3772 16.2805H4.72423C3.15076 16.2805 1.875 15.0047 1.875 13.4312V6.57287C1.875 4.9994 3.15076 3.72363 4.72423 3.72363H15.6985ZM14.4506 10.3757C13.8387 10.3757 13.3426 10.8717 13.3426 11.4836C13.343 12.0952 13.8389 12.5916 14.4506 12.5916C15.0622 12.5915 15.5581 12.0952 15.5585 11.4836C15.5585 10.8718 15.0624 10.3758 14.4506 10.3757Z"
    fill="currentColor" />
</svg>
  
