<svg width="20" height="20" viewBox="0 0 20 20" fill="none" xmlns="http://www.w3.org/2000/svg">
<g clip-path="url(#clip0_1443_71651)">
<circle cx="10" cy="10" r="10" fill="#2474DA"/>
<g clip-path="url(#clip1_1443_71651)">
<path d="M8.59382 13.7688C8.15491 13.9187 7.68172 14 7.18752 14C4.87464 14 2.99957 12.2093 2.99957 10.0005C2.99957 7.79174 4.87464 6 7.18863 6C7.68172 6 8.15491 6.0813 8.59493 6.23123C6.97304 6.78342 5.81218 8.26158 5.81218 10.0005C5.81218 11.7395 6.97304 13.2176 8.59493 13.7698L8.59382 13.7688ZM12.8116 6C12.3185 6 11.8453 6.0813 11.4053 6.23123C13.0272 6.78342 14.1881 8.26158 14.1881 10.0005C14.1881 11.7395 13.0272 13.2176 11.4053 13.7698C11.8442 13.9198 12.3174 14.0011 12.8116 14.0011C15.1245 14.0011 17.0007 12.2104 17.0007 10.0005C17.0007 7.79068 15.1245 6 12.8116 6Z" fill="white"/>
</g>
</g>
<defs>
<clipPath id="clip0_1443_71651">
<rect width="20" height="20" fill="white"/>
</clipPath>
<clipPath id="clip1_1443_71651">
<rect width="14" height="8" fill="white" transform="translate(2.99957 6)"/>
</clipPath>
</defs>
</svg>
