<svg height="24" viewBox="0 0 24 24" width="24" xmlns="http://www.w3.org/2000/svg"><circle cx="12" cy="12" fill="#ec1c79" r="12"/><path d="m5.932 54.725c3.891 0 3.891-.058 4.551-.254.862-.256-2.436-2.538-4.551-2.538s-3.832.626-3.832 1.397 1.715 1.395 3.832 1.395z" transform="translate(2.668 -35.144)"/><path d="m13.768 4.08.179.193-.156.211c-5.074 6.861-8 9.968-9.238 9.551a5.2 5.2 0 0 1 -2.271-2.125c-.266-.39-.516-.8-.744-1.208-.151-.272-.28-.52-.346-.659a1.643 1.643 0 0 1 -.149-.432v-.017c-.012-.061-.016-.081-.025-.114a6.918 6.918 0 0 1 10.052-7.818l.026.017a17.044 17.044 0 0 1 2.671 2.4zm-3.021-1.872a6.285 6.285 0 0 0 -9.119 7.109c.014.052.02.081.035.156v.015a1.031 1.031 0 0 0 .1.282c.061.128.183.363.328.624.219.392.459.786.714 1.16a4.748 4.748 0 0 0 1.949 1.882c.781.262 3.722-2.85 8.369-9.114a15.962 15.962 0 0 0 -2.377-2.112z" transform="translate(3.667 3.632)"/><path d="m12.738 4.2a6.285 6.285 0 0 0 -9.12 7.108c.014.052.02.081.035.156v.015a1.031 1.031 0 0 0 .1.281c.061.128.183.363.328.624.219.392.459.786.714 1.16a4.748 4.748 0 0 0 1.949 1.882c.781.262 3.722-2.85 8.369-9.114a15.961 15.961 0 0 0 -2.375-2.112z" fill="#ec1c79" transform="translate(1.676 1.639)"/><path d="m12.948 19.864a6.915 6.915 0 1 1 6.915-6.915 6.915 6.915 0 0 1 -6.915 6.915zm0-.634a6.281 6.281 0 1 0 -6.281-6.281 6.281 6.281 0 0 0 6.281 6.281z" transform="translate(-.314 -.346)"/><path d="m14.937 21.218a6.281 6.281 0 1 0 -6.281-6.281 6.281 6.281 0 0 0 6.281 6.281z" fill="#fff" transform="translate(-2.302 -2.334)"/><path d="m12.592 32.07-.831-2.5h.728l.434 1.43.48-1.446h.597l.475 1.446.433-1.439h.714l-.831 2.5h-.6l-.5-1.432-.5 1.432zm3.306-.018v-2.487h2v.585h-1.32v.377h1.194v.544h-1.193v.394h1.336v.586zm2.977 0v-1.883h-.748v-.6h2.181v.6h-.746v1.883zm1.737 0v-2.487h.688v.935h.885v-.931h.689v2.487h-.689v-.945h-.885v.945z" transform="translate(-4.656 -18.181)"/><path d="m1.876 24.385a.355.355 0 1 1 .319-.635l1.015.507a.355.355 0 1 1 -.319.635z" transform="translate(2.987 -13.748)"/><path d="m1.359 31.327a.355.355 0 1 1 .3-.646l1.015.469a.355.355 0 0 1 -.3.644z" transform="translate(3.387 -19.007)"/></svg>