<svg xmlns="http://www.w3.org/2000/svg" xmlns:xlink="http://www.w3.org/1999/xlink" width="24" height="24"><defs><clipPath id="b"><path d="M0 0h24v24H0z"/></clipPath><clipPath id="c"><path d="M0 0h24v24H0z"/></clipPath><clipPath id="d"><path d="M0 0h24v24H0z"/></clipPath><clipPath id="e"><path d="M0 0h24v24H0z"/></clipPath><clipPath id="f"><path d="M0 0h24v24H0z"/></clipPath><clipPath id="g"><path d="M0 0h24v24H0z"/></clipPath><mask id="i"><g filter="url(#a)"><path style="fill:#000;fill-opacity:.6;stroke:none" d="M0 0h24v24H0z"/></g></mask><mask id="k"><g filter="url(#a)"><path style="fill:#000;fill-opacity:.6;stroke:none" d="M0 0h24v24H0z"/></g></mask><mask id="m"><g filter="url(#a)"><path style="fill:#000;fill-opacity:.2;stroke:none" d="M0 0h24v24H0z"/></g></mask><mask id="o"><g filter="url(#a)"><path style="fill:#000;fill-opacity:.2;stroke:none" d="M0 0h24v24H0z"/></g></mask><mask id="q"><g filter="url(#a)"><path style="fill:#000;fill-opacity:.6;stroke:none" d="M0 0h24v24H0z"/></g></mask><mask id="s"><g filter="url(#a)"><path style="fill:#000;fill-opacity:.6;stroke:none" d="M0 0h24v24H0z"/></g></mask><g id="h" clip-path="url(#b)"><path style="stroke:none;fill-rule:nonzero;fill:#fff;fill-opacity:1" d="m12 13.55-5.445-3.152L12 20.715Zm0 0"/></g><g id="j" clip-path="url(#c)"><path style="stroke:none;fill-rule:nonzero;fill:#fff;fill-opacity:1" d="m17.445 10.469.145.215a6.419 6.419 0 0 1-.934 8.093A6.494 6.494 0 0 1 12 20.715Zm0 0"/></g><g id="l" clip-path="url(#d)"><path style="stroke:none;fill-rule:nonzero;fill:#fff;fill-opacity:1" d="m12 13.55 5.445-3.152L12 20.715Zm0 0"/></g><g id="n" clip-path="url(#e)"><path style="stroke:none;fill-rule:nonzero;fill:#fff;fill-opacity:1" d="M12 6.602v5.37l4.73-2.652Zm0 0"/></g><g id="p" clip-path="url(#f)"><path style="stroke:none;fill-rule:nonzero;fill:#fff;fill-opacity:1" d="M12 6.602 7.27 9.32 12 11.973Zm0 0"/></g><g id="r" clip-path="url(#g)"><path style="stroke:none;fill-rule:nonzero;fill:#fff;fill-opacity:1" d="m12 6.602 4.73 2.718L12 2.086Zm0 0"/></g><filter id="a" filterUnits="objectBoundingBox" x="0%" y="0%" width="100%" height="100%"><feColorMatrix in="SourceGraphic" values="0 0 0 0 1 0 0 0 0 1 0 0 0 0 1 0 0 0 1 0"/></filter></defs><path style="stroke:none;fill-rule:evenodd;fill:#00a3ff;fill-opacity:1" d="M24 12c0 6.629-5.371 12-12 12S0 18.629 0 12 5.371 0 12 0s12 5.371 12 12Zm0 0"/><path style="stroke:none;fill-rule:nonzero;fill:#fff;fill-opacity:1" d="m6.555 10.469-.145.215a6.425 6.425 0 0 0 .934 8.097A6.406 6.406 0 0 0 12 20.715Zm0 0"/><use xlink:href="#h" mask="url(#i)"/><use xlink:href="#j" mask="url(#k)"/><use xlink:href="#l" mask="url(#m)"/><use xlink:href="#n" mask="url(#o)"/><use xlink:href="#p" mask="url(#q)"/><path style="stroke:none;fill-rule:nonzero;fill:#fff;fill-opacity:1" d="M12 2.086 7.27 9.324 12 6.602Zm0 0"/><use xlink:href="#r" mask="url(#s)"/></svg>