<svg xmlns="http://www.w3.org/2000/svg" width="18" height="16" fill="none"><path fill="#fff" d="M15.162 3.464H4.446a.8.8 0 1 0 0 1.6h10.716a.8.8 0 0 1 .8.8v6.976a.8.8 0 0 1-.8.8H3.375a1.341 1.341 0 0 1-1.34-1.336V3.196a1.341 1.341 0 0 1 1.34-1.34h12.322a.8.8 0 0 0 0-1.6H3.375a2.95 2.95 0 0 0-2.947 2.94v9.108a2.95 2.95 0 0 0 2.947 2.946h11.787a2.414 2.414 0 0 0 2.411-2.411V5.875a2.414 2.414 0 0 0-2.411-2.411Zm-.8 5.893a1.072 1.072 0 0 0-2.144 0 1.072 1.072 0 0 0 1.068 1.067 1.072 1.072 0 0 0 1.072-1.067h.004Z"/></svg>