<svg xmlns="http://www.w3.org/2000/svg" width="12" height="12" fill="none"><path fill="#fff" fill-rule="evenodd" d="M.457 11.127a.375.375 0 0 1-.326-.56L5.674.825a.375.375 0 0 1 .652 0l5.542 9.742a.375.375 0 0 1-.325.56H.457ZM5.212 4.08a.075.075 0 0 1 .075-.078h1.425c.043 0 .077.036.075.078l-.126 3.655a.075.075 0 0 1-.075.072H5.414a.075.075 0 0 1-.075-.072L5.212 4.08Zm.064 4.534c0-.041.033-.075.075-.075h1.298c.041 0 .075.034.075.075v1.313a.075.075 0 0 1-.075.075H5.351a.075.075 0 0 1-.075-.075V8.614Z" clip-rule="evenodd" opacity=".5"/></svg>