<svg xmlns="http://www.w3.org/2000/svg" width="12" height="12" fill="none" viewBox="0 0 12 12">
  <path fill="currentColor" fill-rule="evenodd"
    d="M.672 11.128a.5.5 0 0 1-.434-.748l5.327-9.364a.5.5 0 0 1 .87 0l5.327 9.364a.5.5 0 0 1-.434.748H.672Zm4.541-7.022a.1.1 0 0 1 .1-.103h1.373a.1.1 0 0 1 .1.103l-.124 3.605a.1.1 0 0 1-.1.096H5.438a.1.1 0 0 1-.1-.096l-.125-3.605Zm.063 4.533a.1.1 0 0 1 .1-.1h1.248a.1.1 0 0 1 .1.1v1.264a.1.1 0 0 1-.1.1H5.376a.1.1 0 0 1-.1-.1V8.639Z"
    clip-rule="evenodd" />
</svg>