<svg width="24" height="24" viewBox="0 0 24 24" fill="none" xmlns="http://www.w3.org/2000/svg">
<g clip-path="url(#clip0_4_126)">
<path d="M23.9999 11.9988C23.9999 18.6254 18.6279 23.9976 12.0002 23.9976C5.3725 23.9976 0.000488281 18.6254 0.000488281 11.9988C0.000488281 5.37227 5.37263 0 12.0002 0C18.6278 0 23.9999 5.37176 23.9999 11.9988Z" fill="white"/>
<path d="M11.9999 0C5.37457 0 -0.00695956 5.37987 0.00147474 11.9984C0.00313605 13.3226 0.214313 14.5964 0.610661 15.7878H4.20086V5.69415L11.9999 13.4923L19.7986 5.69415V15.788H23.3895C23.7865 14.5966 23.9966 13.3229 23.9989 11.9986C24.0102 5.37316 18.6259 0.00159724 11.9999 0.00159724V0Z" fill="#F26822"/>
<path d="M10.2063 15.285L6.80276 11.8816V18.2331H4.20059L1.74512 18.2335C3.85133 21.6887 7.65775 23.9999 11.9999 23.9999C16.342 23.9999 20.1486 21.6882 22.2552 18.233H17.1962V11.8816L13.7925 15.285L11.9995 17.0778L10.2064 15.285H10.2063Z" fill="#4D4D4D"/>
</g>
<defs>
<clipPath id="clip0_4_126">
<rect width="24" height="24" fill="white"/>
</clipPath>
</defs>
</svg>
