<svg width="24" height="24" viewBox="0 0 24 24" fill="none" xmlns="http://www.w3.org/2000/svg">
<path d="M0 12C0 5.37258 5.37258 0 12 0V0C18.6274 0 24 5.37258 24 12V12C24 18.6274 18.6274 24 12 24V24C5.37258 24 0 18.6274 0 12V12Z" fill="black"/>
<path d="M5.13999 12.943C4.94142 11.3801 5.24247 9.79436 5.99999 8.41295C6.59164 7.33089 7.45538 6.42193 8.50588 5.7759C9.53891 5.14186 10.7244 4.79936 11.9365 4.78471C13.1482 4.77277 14.3404 5.0895 15.3865 5.70119L16.9706 4.85942C15.7207 3.90856 14.2255 3.33411 12.6606 3.20354C11.1006 3.07748 9.53713 3.40232 8.15645 4.13942C6.75348 4.89125 5.58634 6.01725 4.78469 7.39236C3.85098 8.98799 3.42484 10.8299 3.56293 12.6736C3.58612 12.9883 3.51919 13.3031 3.36999 13.5812C3.22117 13.8577 2.99764 14.0812 2.72705 14.2254L3 15.9729L19.2141 7L18 5.5L5.13999 12.943ZM20 8L6.21176 15.9729L3.36999 17.5L4 19.14L18.8641 11.0518C18.9035 11.367 18.9229 11.6841 18.9229 12.0018C18.9236 13.257 18.6077 14.492 18.0047 15.593C17.4124 16.6763 16.5474 17.5862 15.4952 18.2324C14.4607 18.8666 13.2735 19.2085 12.06 19.2217C10.8518 19.2335 9.66175 18.9154 8.60764 18.2988L8.52292 18.3459L7.02881 19.14C8.27823 20.0908 9.77307 20.6655 11.3376 20.7964C12.8977 20.9227 14.461 20.5981 15.8418 19.8612C17.2447 19.1101 18.4119 17.9849 19.2141 16.6106C20.1494 15.0133 20.576 13.1692 20.4371 11.3235C20.414 11.0091 20.481 10.6945 20.6299 10.4165C20.7758 10.1431 20.9994 9.91899 21.2723 9.7724L21 9.5L20 8Z" fill="white"/>
<path d="M5.13999 12.943C4.94142 11.3801 5.24247 9.79436 5.99999 8.41295C6.59164 7.33089 7.45538 6.42193 8.50588 5.7759C9.53891 5.14186 10.7244 4.79936 11.9365 4.78471C13.1482 4.77277 14.3404 5.0895 15.3865 5.70119L16.9706 4.85942C15.7207 3.90856 14.2255 3.33411 12.6606 3.20354C11.1006 3.07748 9.53713 3.40232 8.15645 4.13942C6.75348 4.89125 5.58634 6.01725 4.78469 7.39236C3.85098 8.98799 3.42484 10.8299 3.56293 12.6736C3.58612 12.9883 3.51919 13.3031 3.36999 13.5812C3.22117 13.8577 2.99764 14.0812 2.72705 14.2254L3 15.9729L19.2141 7L18 5.5L5.13999 12.943ZM20 8L6.21176 15.9729L3.36999 17.5L4 19.14L18.8641 11.0518C18.9035 11.367 18.9229 11.6841 18.9229 12.0018C18.9236 13.257 18.6077 14.492 18.0047 15.593C17.4124 16.6763 16.5474 17.5862 15.4952 18.2324C14.4607 18.8666 13.2735 19.2085 12.06 19.2217C10.8518 19.2335 9.66175 18.9154 8.60764 18.2988L8.52292 18.3459L7.02881 19.14C8.27823 20.0908 9.77307 20.6655 11.3376 20.7964C12.8977 20.9227 14.461 20.5981 15.8418 19.8612C17.2447 19.1101 18.4119 17.9849 19.2141 16.6106C20.1494 15.0133 20.576 13.1692 20.4371 11.3235C20.414 11.0091 20.481 10.6945 20.6299 10.4165C20.7758 10.1431 20.9994 9.91899 21.2723 9.7724L21 9.5L20 8Z" fill="white"/>
<path d="M5.13999 12.943C4.94142 11.3801 5.24247 9.79436 5.99999 8.41295C6.59164 7.33089 7.45538 6.42193 8.50588 5.7759C9.53891 5.14186 10.7244 4.79936 11.9365 4.78471C13.1482 4.77277 14.3404 5.0895 15.3865 5.70119L16.9706 4.85942C15.7207 3.90856 14.2255 3.33411 12.6606 3.20354C11.1006 3.07748 9.53713 3.40232 8.15645 4.13942C6.75348 4.89125 5.58634 6.01725 4.78469 7.39236C3.85098 8.98799 3.42484 10.8299 3.56293 12.6736C3.58612 12.9883 3.51919 13.3031 3.36999 13.5812C3.22117 13.8577 2.99764 14.0812 2.72705 14.2254L3 15.9729L19.2141 7L18 5.5L5.13999 12.943ZM20 8L6.21176 15.9729L3.36999 17.5L4 19.14L18.8641 11.0518C18.9035 11.367 18.9229 11.6841 18.9229 12.0018C18.9236 13.257 18.6077 14.492 18.0047 15.593C17.4124 16.6763 16.5474 17.5862 15.4952 18.2324C14.4607 18.8666 13.2735 19.2085 12.06 19.2217C10.8518 19.2335 9.66175 18.9154 8.60764 18.2988L8.52292 18.3459L7.02881 19.14C8.27823 20.0908 9.77307 20.6655 11.3376 20.7964C12.8977 20.9227 14.461 20.5981 15.8418 19.8612C17.2447 19.1101 18.4119 17.9849 19.2141 16.6106C20.1494 15.0133 20.576 13.1692 20.4371 11.3235C20.414 11.0091 20.481 10.6945 20.6299 10.4165C20.7758 10.1431 20.9994 9.91899 21.2723 9.7724L21 9.5L20 8Z" fill="white"/>
</svg>
