<svg width="24" height="24" viewBox="0 0 24 24" fill="none" xmlns="http://www.w3.org/2000/svg">
<rect width="24" height="24" rx="12" fill="black"/>
<path d="M14.1565 12.9205C14.9822 12.4392 15.5359 11.5449 15.5359 10.5193V9.34298C15.5359 7.44244 13.9962 5.89673 12.0922 5.89673C10.1882 5.89673 8.64844 7.43758 8.64844 9.34298V10.6019H10.7467V10.6845C10.4942 10.7477 10.2513 10.8449 10.0279 10.9762C9.20216 11.4574 8.64844 12.3518 8.64844 13.3774V14.5537C8.64844 16.4542 10.1882 17.9999 12.0922 17.9999C13.9962 17.9999 15.5359 16.4591 15.5359 14.5537V13.2947H13.4376V13.2121C13.6902 13.1489 13.9331 13.0517 14.1565 12.9205ZM12.7673 14.9717C12.7673 15.3411 12.4662 15.6425 12.0971 15.6425C11.7279 15.6425 11.4267 15.3411 11.4267 14.9717V8.92496C11.4267 8.55554 11.7279 8.25418 12.0971 8.25418C12.4662 8.25418 12.7673 8.55554 12.7673 8.92496V14.9717Z" fill="white"/>
</svg>
