<svg width="40" height="40" viewBox="0 0 40 40" fill="none" xmlns="http://www.w3.org/2000/svg">
<g clip-path="url(#clip0_6_8)">
<rect width="40" height="40" rx="16" fill="black"/>
</g>
<path d="M23.5967 21.6065C25.0352 20.8112 26 19.3333 26 17.6386V15.6948C26 12.5542 23.3173 10 20 10C16.6827 10 14 12.5462 14 15.6948V17.7751H17.6559V17.9117C17.2158 18.0161 16.7927 18.1767 16.4034 18.3936C14.9647 19.1888 14 20.6667 14 22.3614V24.3053C14 27.4458 16.6827 30 20 30C23.3173 30 26 27.4539 26 24.3053V22.2249H22.3442V22.0884C22.7843 21.9839 23.2074 21.8234 23.5967 21.6065ZM21.1763 24.996C21.1763 25.6065 20.6516 26.1045 20.0085 26.1045C19.3653 26.1045 18.8406 25.6065 18.8406 24.996V15.004C18.8406 14.3936 19.3653 13.8956 20.0085 13.8956C20.6516 13.8956 21.1763 14.3936 21.1763 15.004V24.996Z" fill="white"/>
<defs>
<clipPath id="clip0_6_8">
<rect width="40" height="40" rx="20" fill="white"/>
</clipPath>
</defs>
</svg>
