<svg xmlns="http://www.w3.org/2000/svg" width="19" height="19" viewBox="0 0 19 19" fill="none">
    <path
        d="M14.4809 4.90869L14.481 4.90869C14.8128 4.90863 15.132 5.03542 15.3733 5.26309C15.5373 5.41778 15.6569 5.61108 15.7227 5.823L9.08091 9.14349L2.4391 5.823C2.50495 5.61108 2.62451 5.41778 2.78848 5.26309C3.0298 5.03542 3.34904 4.90863 3.68081 4.90869H3.68091H14.4809Z"
        fill="#9CA3AF" stroke="#9CA3AF" />
    <path
        d="M16.2809 8.11475L9.08092 11.7147L1.88092 8.11475V13.4085C1.88092 13.8859 2.07056 14.3438 2.40813 14.6813C2.74569 15.0189 3.20353 15.2085 3.68092 15.2085H14.4809C14.9583 15.2085 15.4161 15.0189 15.7537 14.6813C16.0913 14.3438 16.2809 13.8859 16.2809 13.4085V8.11475Z"
        fill="#9CA3AF" />
</svg>