<svg xmlns="http://www.w3.org/2000/svg" width="21" height="16" viewBox="0 0 21 16" fill="none">
    <path
        d="M1.71289 6.66211C1.16061 6.66211 0.712891 7.10982 0.712891 7.66211C0.712891 8.21439 1.16061 8.66211 1.71289 8.66211L1.71289 6.66211ZM20.2716 8.36921C20.6621 7.97869 20.6621 7.34553 20.2716 6.955L13.9076 0.59104C13.5171 0.200516 12.8839 0.200516 12.4934 0.591041C12.1029 0.981565 12.1029 1.61473 12.4934 2.00525L18.1502 7.66211L12.4934 13.319C12.1029 13.7095 12.1029 14.3427 12.4934 14.7332C12.8839 15.1237 13.5171 15.1237 13.9076 14.7332L20.2716 8.36921ZM1.71289 8.66211L19.5645 8.66211L19.5645 6.66211L1.71289 6.66211L1.71289 8.66211Z"
        fill="white" />
</svg>