<svg width="114" height="114" viewBox="0 0 114 114" fill="none" xmlns="http://www.w3.org/2000/svg">
    <path
        d="M57 114C88.4802 114 114 88.4802 114 57C114 25.5198 88.4802 0 57 0C25.5198 0 0 25.5198 0 57C0 88.4802 25.5198 114 57 114Z"
        fill="#FF0420" />
    <path
        d="M40.3681 72.116C37.4024 72.2425 34.4759 71.402 32.0293 69.721C30.9724 68.9137 30.128 67.8611 29.5692 66.6542C29.0104 65.4472 28.7541 64.1224 28.8224 62.7941C28.8354 62.0202 28.9069 61.2483 29.0364 60.4852C29.407 58.4294 29.9343 55.9635 30.6183 53.0873C32.557 45.2475 37.5599 41.3275 45.6271 41.3275C47.6491 41.2944 49.6567 41.6728 51.528 42.4395C53.189 43.0905 54.6182 44.222 55.6329 45.6894C56.6562 47.2014 57.1791 48.9964 57.128 50.8213C57.1133 51.5809 57.0418 52.3384 56.914 53.0873C56.4861 55.6246 55.9731 58.0905 55.375 60.4852C54.3783 64.3904 52.6537 67.3124 50.2011 69.251C47.751 71.161 44.4734 72.116 40.3681 72.116ZM40.9671 65.9581C42.4482 65.9991 43.8931 65.4972 45.03 64.5471C46.2864 63.4076 47.1412 61.8928 47.467 60.2282C48.1229 57.5495 48.6213 55.2119 48.9621 53.2153C49.0768 52.6091 49.134 51.9934 49.1331 51.3764C49.1331 48.7818 47.7791 47.4848 45.0711 47.4854C43.5781 47.4496 42.1217 47.9502 40.9662 48.8964C39.733 50.0479 38.8948 51.5594 38.5712 53.2153C38.0579 55.1253 37.5449 57.4629 37.0322 60.2282C36.9162 60.8197 36.8589 61.4213 36.8612 62.0242C36.8612 64.6468 38.2299 65.9581 40.9671 65.9581Z"
        fill="white" />
    <path
        d="M59.0978 71.6891C58.9619 71.6971 58.8261 71.6743 58.7002 71.6225C58.5744 71.5708 58.4618 71.4913 58.3708 71.3901C58.2286 71.1603 58.1826 70.8837 58.2428 70.6202L64.1437 42.8247C64.1959 42.518 64.363 42.2427 64.6109 42.0547C64.8401 41.8656 65.1268 41.7602 65.4239 41.7557H76.7986C79.4767 41.6243 82.1314 42.3103 84.4105 43.7227C85.3475 44.3365 86.1085 45.1838 86.6184 46.1812C87.1283 47.1785 87.3696 48.2916 87.3184 49.4105C87.3143 50.159 87.2281 50.9048 87.0614 51.6345C86.5899 54.5156 85.0473 57.1123 82.7425 58.9043C80.6046 60.4723 77.6683 61.2563 73.9337 61.2563H68.1617L66.1948 70.6211C66.1424 70.9277 65.9754 71.203 65.7276 71.3911C65.4986 71.5799 65.2123 71.6854 64.9155 71.6901L59.0978 71.6891ZM74.2355 55.3535C75.3559 55.3782 76.4533 55.0327 77.3574 54.3705C78.2877 53.6873 78.9284 52.6805 79.1534 51.5485C79.2328 51.1253 79.2757 50.6961 79.2814 50.2655C79.3057 49.9177 79.2532 49.5688 79.1276 49.2436C79.0019 48.9184 78.8062 48.6248 78.5544 48.3836C77.8409 47.8566 76.9573 47.6129 76.0745 47.6996H70.9435L69.3186 55.3535H74.2355Z"
        fill="white" />
</svg>