<svg xmlns="http://www.w3.org/2000/svg" width="21" height="21" viewBox="0 0 21 21" fill="none">
    <path
        d="M8.27002 16.7074V11.7074C8.27002 11.2653 8.09442 10.8414 7.78186 10.5288C7.4693 10.2163 7.04538 10.0407 6.60335 10.0407H4.93669C4.49466 10.0407 4.07074 10.2163 3.75817 10.5288C3.44561 10.8414 3.27002 11.2653 3.27002 11.7074V16.7074C3.27002 17.1494 3.44561 17.5733 3.75817 17.8859C4.07074 18.1984 4.49466 18.374 4.93669 18.374H6.60335C7.04538 18.374 7.4693 18.1984 7.78186 17.8859C8.09442 17.5733 8.27002 17.1494 8.27002 16.7074ZM8.27002 16.7074V8.37402C8.27002 7.932 8.44561 7.50807 8.75818 7.19551C9.07074 6.88295 9.49466 6.70736 9.93669 6.70736H11.6034C12.0454 6.70736 12.4693 6.88295 12.7819 7.19551C13.0944 7.50807 13.27 7.932 13.27 8.37402V16.7074M8.27002 16.7074C8.27002 17.1494 8.44561 17.5733 8.75818 17.8859C9.07074 18.1984 9.49466 18.374 9.93669 18.374H11.6034C12.0454 18.374 12.4693 18.1984 12.7819 17.8859C13.0944 17.5733 13.27 17.1494 13.27 16.7074M13.27 16.7074V5.04069C13.27 4.59866 13.4456 4.17474 13.7582 3.86218C14.0707 3.54962 14.4947 3.37402 14.9367 3.37402H16.6034C17.0454 3.37402 17.4693 3.54962 17.7819 3.86218C18.0944 4.17474 18.27 4.59866 18.27 5.04069V16.7074C18.27 17.1494 18.0944 17.5733 17.7819 17.8859C17.4693 18.1984 17.0454 18.374 16.6034 18.374H14.9367C14.4947 18.374 14.0707 18.1984 13.7582 17.8859C13.4456 17.5733 13.27 17.1494 13.27 16.7074Z"
        stroke="white" stroke-opacity="0.7" stroke-width="1.5" stroke-linecap="round" stroke-linejoin="round" />
</svg>