<svg width="12" height="13" viewBox="0 0 12 13" fill="none" xmlns="http://www.w3.org/2000/svg">
<path d="M9.85404 4.01266H7.55216L10.262 0.892961C10.4 0.733194 10.4328 0.514618 10.3447 0.322365C10.2569 0.130445 10.0648 0.0141602 9.85404 0.0141602H6.0233C5.82072 0.0141602 5.6353 0.127113 5.543 0.306705L2.34383 6.51945C2.25787 6.68705 2.2652 6.90596 2.36333 7.06672C2.46079 7.22749 2.63538 7.34461 2.8243 7.34461H4.47861H4.48194H4.48494H5.17565L3.96499 11.3326C3.89036 11.5812 4.00314 11.8392 4.23388 11.9584C4.31268 11.9993 4.39731 12.0142 4.48178 12.0142C4.64388 12.0142 4.80231 11.9392 4.90777 11.8042L10.28 4.91445C10.4066 4.75152 10.4296 4.51562 10.339 4.33053C10.2484 4.14494 10.0606 4.01266 9.85404 4.01266Z" fill="#F3B50C"/>
</svg>
