<svg width="23" height="26" fill="none" xmlns="http://www.w3.org/2000/svg"><g clip-path="url(#a)" fill="#23AF91"><path d="M19.356 15.31 14.644 20l-7.521-7.44 7.507-7.43 4.726 4.705a2.137 2.137 0 0 0 3.016-3.03L16.159.62a2.14 2.14 0 0 0-3.023.007c-.003.004-.151.127-.217.193L4.275 9.37v-5.11c0-1.18-.958-2.138-2.138-2.138C.958 2.123.004 3.081 0 4.261v16.61c0 1.179.958 2.137 2.137 2.137a2.14 2.14 0 0 0 2.138-2.138v-5.122l8.644 8.551.217.218a2.14 2.14 0 0 0 3.023.007l6.213-6.184a2.14 2.14 0 0 0 .007-3.022 2.141 2.141 0 0 0-3.023-.008Z"/><path d="M14.664 14.73a2.156 2.156 0 1 0 0-4.311 2.156 2.156 0 0 0 0 4.31Z"/></g><defs><clipPath id="a"><path fill="#fff" d="M0 0h23v25.145H0z"/></clipPath></defs></svg>