<svg width="65" height="64" viewBox="0 0 65 64" fill="none" xmlns="http://www.w3.org/2000/svg">
<path d="M63.6064 12.0191L63.4533 10.7177H55.7978C56.1805 8.11483 56.4102 5.43541 56.5633 2.67943C56.6399 1.22488 55.4916 0 54.1901 0H10.3241C8.9461 0 7.87433 1.22488 7.95088 2.67943C8.02744 5.43541 8.33366 8.11483 8.71643 10.7177H1.06093L0.831265 12.0191C0.75471 12.3254 -0.0873954 20.134 4.96524 27.177C8.2571 31.7703 13.3863 34.9091 20.0466 36.5167C22.1901 38.6603 24.5633 40.2679 27.0896 41.2631C26.7834 44.4019 26.4006 47.4641 26.0179 50.2966H38.4963C38.037 47.3876 37.6542 44.4019 37.348 41.2631C39.8743 40.3445 42.2475 38.7368 44.3911 36.5167C51.0514 34.9091 56.1805 31.7703 59.4724 27.177C64.525 20.134 63.6064 12.3254 63.6064 12.0191ZM7.18533 25.2632C3.97002 20.823 3.58725 16 3.58725 13.7033H9.17576C10.6303 20.9761 13.2332 27.4067 16.525 32.2297C12.5442 30.6986 9.40543 28.3254 7.18533 25.2632ZM57.2523 25.2632C55.0322 28.3254 51.8935 30.6986 47.9126 32.2297C51.281 27.3301 53.8073 20.9761 55.2619 13.7033H60.8504C60.8504 16 60.3911 20.823 57.2523 25.2632Z" fill="#FFC54D"/>
<path d="M45.2334 61.098H19.2046C18.4391 61.098 17.8267 60.4856 17.8267 59.72V49.921C17.8267 49.1554 18.4391 48.543 19.2046 48.543H45.2334C45.9989 48.543 46.6113 49.1554 46.6113 49.921V59.72C46.6113 60.4856 45.9989 61.098 45.2334 61.098Z" fill="#C19D72"/>
<path d="M15.2999 63.9971H49.1372C49.9027 63.9971 50.5152 63.3847 50.5152 62.6191V59.71C50.5152 58.9445 49.9027 58.332 49.1372 58.332H15.2999C14.5343 58.332 13.9219 58.9445 13.9219 59.71V62.6191C13.9219 63.3081 14.5343 63.9971 15.2999 63.9971Z" fill="#A88763"/>
<path d="M38.3432 55.6574H26.0944C25.5586 55.6574 25.1758 55.2747 25.1758 54.7388V52.8249C25.1758 52.289 25.5586 51.9062 26.0944 51.9062H38.3432C38.8791 51.9062 39.2619 52.289 39.2619 52.8249V54.7388C39.2619 55.2747 38.8026 55.6574 38.3432 55.6574Z" fill="#FFC54D"/>
</svg>
