<svg width="18" height="17" viewBox="0 0 18 17" fill="none" xmlns="http://www.w3.org/2000/svg">
<path d="M4.11179 16.7361C3.9514 16.5685 3.8712 16.3551 3.8712 16.0959C3.8712 15.8368 3.9514 15.6234 4.11179 15.4558L8.28919 11.066C8.62454 10.7154 9.0401 10.5401 9.53584 10.5401C10.0316 10.5401 10.4471 10.7154 10.7825 11.066L12.5978 12.9636L16.5128 8.87106C16.6877 8.68815 16.8919 8.59669 17.1252 8.59669C17.3584 8.59669 17.5626 8.68815 17.7375 8.87106C17.9125 9.05397 18 9.27132 18 9.52313C18 9.77493 17.9125 9.99198 17.7375 10.1743L13.8445 14.2669C13.5091 14.6174 13.0974 14.7927 12.6092 14.7927C12.121 14.7927 11.709 14.6174 11.373 14.2669L9.53584 12.3463L5.33657 16.7361C5.17618 16.9038 4.97584 16.9916 4.73555 16.9995C4.49526 17.0074 4.28734 16.9196 4.11179 16.7361ZM1.7497 16.4618C1.26853 16.4618 0.856768 16.2828 0.514411 15.9249C0.172054 15.567 0.000583232 15.1363 0 14.6327V1.82908C0 1.32609 0.17147 0.895642 0.514411 0.537751C0.857351 0.17986 1.26911 0.000609695 1.7497 0H13.9976C14.4787 0 14.8908 0.17925 15.2337 0.537751C15.5767 0.896251 15.7478 1.3267 15.7473 1.82908V5.48725C15.7473 5.74637 15.6633 5.96373 15.4953 6.13932C15.3273 6.31491 15.1197 6.4024 14.8724 6.40179H1.7497V16.4618Z" fill="currentColor"/>
</svg>
