<svg width="89" height="89" viewBox="0 0 89 89" fill="none" xmlns="http://www.w3.org/2000/svg">
<circle cx="44.5634" cy="44.1347" r="43.8994" fill="url(#paint0_radial_1356_6554)"/>
<path d="M43.7451 26.2807C44.1362 25.7011 44.9894 25.7011 45.3806 26.2807L55.901 41.8713C62.0311 50.9559 55.5222 63.2003 44.5628 63.2003V63.2003C33.6034 63.2003 27.0945 50.9559 33.2246 41.8713L43.7451 26.2807Z" fill="#FF7028"/>
<path d="M43.7451 26.2807C44.1362 25.7011 44.9894 25.7011 45.3806 26.2807L55.901 41.8713C62.0311 50.9559 55.5222 63.2003 44.5628 63.2003V63.2003C33.6034 63.2003 27.0945 50.9559 33.2246 41.8713L43.7451 26.2807Z" fill="url(#paint1_linear_1356_6554)" fill-opacity="0.2"/>
<path d="M43.7451 26.2807C44.1362 25.7011 44.9894 25.7011 45.3806 26.2807L55.901 41.8713C62.0311 50.9559 55.5222 63.2003 44.5628 63.2003V63.2003C33.6034 63.2003 27.0945 50.9559 33.2246 41.8713L43.7451 26.2807Z" fill="url(#paint2_radial_1356_6554)"/>
<defs>
<radialGradient id="paint0_radial_1356_6554" cx="0" cy="0" r="1" gradientUnits="userSpaceOnUse" gradientTransform="translate(78.8604 18.4947) rotate(141.84) scale(90.0017)">
<stop stop-color="#FF7028"/>
<stop offset="0.327144" stop-color="#FF7028"/>
<stop offset="0.577536" stop-color="#FF7028"/>
<stop offset="0.808416" stop-color="#FF935D"/>
<stop offset="1" stop-color="white"/>
</radialGradient>
<linearGradient id="paint1_linear_1356_6554" x1="34.348" y1="36.1625" x2="44.3548" y2="42.8405" gradientUnits="userSpaceOnUse">
<stop/>
<stop offset="1" stop-color="#FF7028"/>
</linearGradient>
<radialGradient id="paint2_radial_1356_6554" cx="0" cy="0" r="1" gradientUnits="userSpaceOnUse" gradientTransform="translate(44.5628 44.1346) rotate(90) scale(19.0657 25.7308)">
<stop stop-color="white"/>
<stop offset="1" stop-color="white" stop-opacity="0.43"/>
</radialGradient>
</defs>
</svg>
