<svg version="1.2" xmlns="http://www.w3.org/2000/svg" viewBox="0 0 2222 195" width="1000" height="88">
	<title>logo_TRS-svg</title>
	<style>
		.s0 { fill: #3DA8F5 } 
	</style>
	<g id="b">
	</g>
	<g id="Layer">
		<path id="Layer" class="s0" d="m923 46.3v104.3h-15v-104.3h-35.1v-13.8h85.2v13.8z"/>
		<path id="Layer" fill-rule="evenodd" class="s0" d="m1023.9 142.9c-6.1 6-14.8 9.8-25.5 9.8-10.6 0-19.3-3.8-25.4-9.8-9.2-9-12-21.2-12-34.5 0-13.3 2.8-25.5 12-34.5 6.1-6 14.8-9.8 25.4-9.8 10.7 0 19.4 3.8 25.5 9.8 9.2 9 12 21.2 12 34.5 0 13.3-2.8 25.5-12 34.5zm-10.3-60.6c-3.5-3.5-8.5-6-15.2-6-6.6 0-11.6 2.5-15.1 6-6 6.1-7.9 16.3-7.9 26.1 0 9.9 1.9 20 7.9 26.2 3.5 3.5 8.5 6 15.1 6 6.7 0 11.7-2.5 15.2-6 6-6.2 7.8-16.3 7.8-26.2 0-9.8-1.8-20-7.8-26.1z"/>
		<path id="Layer" class="s0" d="m1078.9 151.7c-18.2 0-23.2-11.5-23.2-22.8v-50.5l-16.3 0.1v-12.2h16.3v-21.5l14.2-3.3v24.8h25v12.1h-25v48.8c0 8.2 3.5 11.5 11.3 11.5 6 0 14.5-1.5 14.5-1.5v12.2c-3.8 1-9 2.3-16.8 2.3z"/>
		<path id="Layer" fill-rule="evenodd" class="s0" d="m1169.1 151.7c-7.4 0-12.1-5.6-12.1-12.8h-0.3c-4.9 8.5-15.4 13.8-27.2 13.8-19.3 0-29-13-29-25.9 0-10.9 7-25 30-26.4l25.7-1.5v-6.1c0-4.2-0.5-9.4-4.4-12.8-2.8-2.7-7-4.4-13.8-4.4-7.7 0-12.5 2.2-15.3 5-2.7 2.7-4.2 6-4.2 10.2h-13.8c0.2-7.7 3-13.2 7.3-17.7 5.7-6 15.7-9 26-9 16.3 0 25.7 7 29.7 16.2q2.5 5.7 2.5 13v40.8c0 4.5 1.8 5.6 4.6 5.6 1.5 0 3.7-0.5 3.7-0.5v10.5c-3 1.5-5.8 2-9.3 2zm-13-41.8l-22.7 1.4c-8.5 0.5-18.5 4.5-18.5 15.1 0 7.5 4.7 14.5 16.7 14.5 6.5 0 12.8-2.1 17.3-6.8 5-5.2 7.2-12.2 7.2-19.2z"/>
		<path id="Layer" class="s0" d="m1209.8 151.6c-12.3 0-17.7-7.4-17.7-20.7v-100.6h14.2v99.8c0 5.6 1.8 8.6 7.7 8.6 4.6 0 5.8-0.1 5.8-0.1v12c0 0-3.2 1-10 1z"/>
		<path id="Layer" fill-rule="evenodd" class="s0" d="m1333.7 150.6l-22.3-49.2h-32.7v49.2h-14.8v-118.1h46.3c13.8 0 23.5 3.8 30 10.5 5.7 6 9.3 13.6 9.3 23.9 0 10.4-3.3 17.4-9 23.4-3.5 3.6-8.5 6.5-14.1 8.3l23.6 52c0 0-16.3 0-16.3 0zm-23.5-104.5h-31.5v41.5h31.5c14 0 24-5.7 24-20.7 0-14.9-10-20.8-24-20.8z"/>
		<path id="Layer" fill-rule="evenodd" class="s0" d="m1432.5 113.1h-59.7c0 7.7 3 16 8.2 21.1 3.8 3.9 9 6 15.5 6 6.5 0 12.1-1.8 15.6-5.5 2.4-2.3 3.9-4.6 5-9.1h13.9c-1.2 8.3-6.2 16.1-13 20.8-6 4-13.5 6.3-21.5 6.3-11.8 0-21.5-5-28-12.6-7-8.2-10.5-19.3-10.5-31.3 0-10.2 1.8-19.2 6.5-27 6-10.2 17.2-17.7 31.8-17.7 10.9 0 19.5 4.2 25.7 10.9 6.8 7.5 10.8 18.3 10.6 29.6l-0.1 8.5zm-19.5-29.3c-3.5-4.7-9.2-7.7-16.7-7.7-15.3 0-22.8 12.5-23.1 24.9h44.9c0-6.4-1.8-12.7-5.1-17.2z"/>
		<path id="Layer" class="s0" d="m1474.9 151.7c-18.1 0-23.1-11.5-23.1-22.8v-50.5l-16.4 0.1v-12.2h16.4v-21.5l14.1-3.3v24.8h25v12.1h-25v48.8c0 8.2 3.5 11.5 11.4 11.5 6 0 14.4-1.5 14.4-1.5v12.2c-3.8 1-8.9 2.3-16.8 2.3z"/>
		<path id="Layer" class="s0" d="m1557.5 150.6l-1.1-12.9c-4.4 9.7-15.2 14.9-25 14.9-19.2 0-28.8-11.5-28.8-31v-55.3h14.1v53.3c0 12.7 4.7 20.1 18 20.1 5.7 0 10.3-2.5 14-6.3 5.3-5.5 7-14.6 7-23.3v-43.8h14.2v84.3h-12.3z"/>
		<path id="Layer" class="s0" d="m1630.1 79.4c-6.6 0-12.1 3-15.9 6.7-6.9 6.5-7.7 18.2-7.7 27v37.5h-14v-84.3h12.5l1.2 14.8c4.3-10.3 14.5-15.3 25.1-15.3 2.2 0 4.5 0.2 6.7 0.5v13.8c-2.5-0.5-5.4-0.7-7.9-0.7z"/>
		<path id="Layer" class="s0" d="m1702.1 150.6v-53.5c0-12.7-5.2-20.2-18.5-20.2-8.2 0-14.7 5.4-18.3 13-2.8 6.2-3 15-3 21.5v39.2h-14.2v-84.3h12.3l1.2 12.7c4.3-9.7 16-14.9 25.5-14.9 19.1 0 29.1 11.5 29.1 31v55.5h-14.1z"/>
		<path id="Layer" class="s0" d="m1839.2 140.9c-8.2 8-20.9 11.8-33.5 11.8-14.3 0-25.8-4-33.8-11.3-7.5-7-12.7-17.2-12.7-28.3h15.5c0 7 3.5 14 8.3 18.6 5.4 5.2 14.3 7.4 22.7 7.4 9 0 16.6-1.9 22-6.9 3.6-3.3 6-7.5 6-13.8 0-9.1-5.9-16.8-19.9-19l-18.6-2.8c-17.7-2.7-31.5-12.5-31.5-31.3 0-8.8 4-17.3 10.3-23.3 8.2-7.7 18.7-11.7 31-11.7 11.5 0 22.8 3.8 30.7 11.3 7.1 6.9 11 15.4 11.3 25.4h-15.5c-0.3-5.9-2.5-11-5.8-14.9-4.5-5.1-11.7-8.1-20.8-8.1-8.5 0-15.9 2.3-21 8.1-3 3.5-4.8 7.5-4.8 12.9 0 10.6 8.8 15.5 17.6 16.6 6.7 0.8 13.2 2 19.7 3 19.6 2.8 32.8 14.8 32.8 33.5 0 9.8-4.2 17.1-10 22.8z"/>
		<path id="Layer" class="s0" d="m1948.8 150.6h-13.7l-22-64.5-22.5 64.5h-13.5l-21.6-84.3h14l16.1 63.6 21.5-62.6h12.2l21.1 62.6 16.4-63.6h13.8z"/>
		<path id="Layer" fill-rule="evenodd" class="s0" d="m2045.3 151.7c-7.5 0-12.1-5.6-12.1-12.8h-0.3c-4.9 8.5-15.4 13.8-27.2 13.8-19.3 0-29-13-29-25.9 0-10.9 7-25 30-26.4l25.7-1.5v-6.1c0-4.2-0.5-9.4-4.4-12.8-2.8-2.7-7-4.4-13.8-4.4-7.6 0-12.5 2.2-15.3 5-2.7 2.7-4.2 6-4.2 10.2h-13.8c0.2-7.7 3-13.2 7.3-17.7 5.7-6 15.7-9 26-9 16.3 0 25.7 7 29.7 16.2q2.5 5.7 2.5 13v40.8c0 4.5 1.8 5.6 4.6 5.6 1.5 0 3.7-0.5 3.7-0.5v10.5c-3 1.5-5.8 2-9.3 2zm-13-41.8l-22.7 1.4c-8.5 0.5-18.5 4.5-18.5 15.1 0 7.5 4.7 14.5 16.7 14.5 6.5 0 12.8-2.1 17.3-6.8 5-5.2 7.2-12.2 7.2-19.2z"/>
		<path id="Layer" fill-rule="evenodd" class="s0" d="m2130.6 144.4c-5.5 5.2-13.3 8.5-23.1 8.5-9.2 0-20-4.3-24.5-12v45.8h-14.2v-120.3h12.5l1 11c4.9-8.5 15.7-13.1 25.2-13.1 10.3 0 18.3 3.5 23.8 9.1 8 8.2 12.2 21 12.2 35 0 14-4.4 27.8-12.9 36zm-25.4-68.1c-6.2 0-10.4 2.5-13.7 5.5-7 6.1-9.3 16.3-9.3 26.8 0 10.5 2.3 20.6 9.3 26.8 3.3 3 7.5 5.5 13.7 5.5 18.8 0 23.8-16.8 23.8-32.3 0-15.5-5-32.3-23.8-32.3z"/>
		<path id="Layer" class="s0" d="m2215.4 143.2c-6.5 6.7-16.5 9.5-27.5 9.5-11 0-20.1-2.5-27.3-9.5-5.1-5-8.1-12.1-8.1-19.3h14.1c0.2 5.9 2.8 10.2 6.8 13.2 3.9 2.8 9.9 3.8 15.2 3.8 5.8 0 11.2-1 15.5-4.6 2.3-1.9 4.1-5.4 4.1-9.2 0-6.3-4.5-10.8-13.1-12-3.7-0.5-13.2-1.7-19-2.5-12.7-2-20.7-9.8-20.7-22.6 0-6.5 3.2-12.7 7-16.5 5.5-5.7 14.4-9.4 24.9-9.4 11.1 0 21.1 3.5 26.8 10.7 3.6 4.5 6 9.3 6 16.2h-14.2c-0.2-4.4-2.3-8.4-4.8-10.5-3.5-3.2-8.2-4.5-13.8-4.5-3.4 0-5.9 0-9.9 1.6-5.3 2.2-8.4 6.7-8.4 11.4 0 7 4.3 10 11.3 11 4.6 0.6 11.3 1.3 20.3 2.8 12 2 21.5 10.6 21.5 23.3 0 7.3-2.7 13-6.7 17.2z"/>
	</g>
	<g id="Layer">
		<path id="Layer" class="s0" d="m357.1 1v25.3l-123.4 71.2 123.4 71.2v25.4l-167.3-96.6 167.3-96.6z"/>
		<path id="Layer" class="s0" d="m168.3 1h21.9v193.1h-21.9z"/>
		<path id="Layer" class="s0" d="m1 1l167.3 96.5-167.4 96.6v-25.4l123.4-71.2-123.4-71.2v-25.3z"/>
	</g>
	<g id="Layer">
		<path id="Layer" class="s0" d="m777.2 62.6h47.8v20.1h-26.2v67.9h-21.6v-88z"/>
		<path id="Layer" class="s0" d="m527.2 62.6v20.1h-26.3l0.1 67.9h-21.6v-88h47.8z"/>
		<path id="Layer" class="s0" d="m452.7 42.5h26.7v20.1h-26.7v88h-21.5v-88h-26.3v-20.1h47.8z"/>
		<path id="Layer" class="s0" d="m638.6 85.6c-4.3 6.2-6.7 14.3-5.7 22-1 7.6 0.9 15.7 5.7 21.9 3.4 3.9 8.1 5.8 12.9 5.8 5.3 0 10.5-2.4 13.4-6.7 1.4-2.4 2.4-5.3 2.4-8.1h20.5c0 7.1-2.3 13.8-6.6 19.1-7.2 8.6-18.2 13.4-29.7 13.4-11.5 0-22.4-5.3-30.1-13.9-12.9-19.6-12.9-44.5 0-63.6 7.6-9.1 18.6-13.8 30.1-13.8 11.5-0.5 22.5 4.7 29.7 13.3 3.8 5.8 6.2 12.5 6.6 19.2h-20.5c0-2.9-1-5.8-2.4-8.2-2.9-4.7-8.1-7.1-13.4-6.6-4.8 0-9.5 1.9-12.9 6.2z"/>
		<path id="Layer" fill-rule="evenodd" class="s0" d="m731.8 61.6c12.5-0.4 24.4 5.3 31.6 15.8 5.7 8.6 8.6 19.6 7.6 30.1v5.8h-58.3c-0.5 6.2 1.9 12.4 6.2 17.2 3.4 3.8 8.2 5.7 12.9 5.7 4.8 0.5 9.6-0.9 12.9-4.3q3.6-2.8 4.3-7.2h20.1q-1.4 8.6-7.1 15.8c-7.2 8.6-18.2 12.9-29.2 12.5-10.5 0.4-20.6-3.4-27.7-10.6-9.1-9.5-13.9-21.9-13.4-34.9-0.5-12.9 3.8-25.3 12.4-34.9 7.7-7.1 17.2-10.9 27.7-10.9m-19.6 36.8l37.8 0.5c0-5.8-1.9-11-5.7-15.3-3.9-3.9-8.6-5.8-13.4-5.3-5.3-0.5-11 2.4-14.4 6.7-2.8 3.8-4.3 8.6-4.3 13.4z"/>
		<path id="Layer" fill-rule="evenodd" class="s0" d="m602.3 120.9l0.5 15.8h7.6v15.3h-24.8v-11.9c-5.8 8.6-15.8 13.3-26.3 12.9-20.6 0-31.6-12.9-31.6-27.3 0-16.7 12.5-25.8 29.2-27.2l25.3-1.9v-5.8c0-8.1-2.8-13.9-14.8-13.9-9.6 0-15.3 4.3-15.8 12.5h-20c0.9-19.6 16.2-28.2 35.8-28.2 14.8 0 27.7 4.8 32.5 17.7 1.9 5.7 2.9 11.9 2.4 17.7v24.3zm-20.6-9l-22 1.9c-6.2-0.5-11.9 4.8-12.4 11v0.4c0.5 6.3 6.2 11 12.4 10.6 13 0 22-7.2 22-20.1z"/>
	</g>
</svg>
