<svg width="36" height="32" viewBox="0 0 36 32" fill="none" xmlns="http://www.w3.org/2000/svg">
<g clip-path="url(#clip0_4_45)">
<path d="M1.83235 30.4C1.64064 30.4018 1.44917 30.3858 1.26049 30.352C1.04997 30.3201 0.848457 30.245 0.668852 30.1313C0.489248 30.0177 0.335501 29.8681 0.217445 29.692C-0.426906 28.684 0.140928 27.048 4.97759 22.336C5.05159 22.2565 5.14109 22.1926 5.24066 22.1485C5.34023 22.1043 5.44779 22.0806 5.55684 22.079C5.66588 22.0773 5.77412 22.0976 5.87501 22.1388C5.9759 22.1799 6.06733 22.2409 6.14376 22.3182C6.22019 22.3955 6.28002 22.4874 6.31964 22.5883C6.35925 22.6892 6.37782 22.7971 6.37421 22.9053C6.3706 23.0136 6.3449 23.12 6.29866 23.2181C6.25242 23.3162 6.18661 23.4039 6.1052 23.476C2.41629 27.076 1.75181 28.4 1.63904 28.8C3.22979 29.128 11.3607 26 19.5077 20.312C27.5138 14.732 33.4458 8.07601 33.8284 6.40001C33.3371 6.40001 31.8148 6.67201 27.4695 8.71201C27.3735 8.759 27.269 8.7865 27.1621 8.79292C27.0553 8.79933 26.9482 8.78453 26.8472 8.74938C26.7462 8.71422 26.6532 8.65942 26.5738 8.58818C26.4943 8.51693 26.43 8.43067 26.3845 8.33444C26.339 8.2382 26.3132 8.13392 26.3088 8.0277C26.3043 7.92148 26.3212 7.81543 26.3585 7.71577C26.3958 7.61611 26.4527 7.52483 26.5259 7.44726C26.5991 7.36969 26.6871 7.3074 26.7849 7.26401C32.9344 4.38801 34.5775 4.42801 35.242 5.42401C35.548 5.89201 36.3615 7.13201 31.2711 12.44C27.9657 15.8402 24.3424 18.9207 20.4501 21.64C14.1999 25.96 5.30782 30.4 1.83235 30.4Z" fill="url(#paint0_linear_4_45)"/>
<path d="M33.6513 13.652C33.0787 17.3335 31.2308 20.7013 28.4261 23.1745C25.6214 25.6477 22.0358 27.0713 18.2875 27.2H17.8606H17.6955C16.7955 27.1971 15.8991 27.087 15.0255 26.872L14.8926 26.948C13.0884 27.956 11.2238 28.916 9.43573 29.72C11.8801 31.1757 14.6695 31.9613 17.5194 31.9965C20.3692 32.0317 23.1774 31.3153 25.6575 29.9204C28.1375 28.5254 30.2005 26.5019 31.636 24.0564C33.0715 21.6108 33.8281 18.8308 33.8285 16C33.8289 15.214 33.7697 14.4291 33.6513 13.652Z" fill="url(#paint1_linear_4_45)"/>
<path d="M9.97934 24.128C8.37375 22.622 7.24876 20.6807 6.74399 18.5453C6.23921 16.4099 6.37687 14.1742 7.13987 12.1157C7.90288 10.0573 9.25765 8.26673 11.0361 6.9662C12.8145 5.66568 14.9382 4.91247 17.1437 4.80005C13.3913 4.93538 9.80428 6.3685 7.00267 8.85173C4.20107 11.335 2.36088 14.7123 1.80011 18.4C2.24137 21.2762 3.46383 23.9785 5.33599 26.216C6.65288 25.712 8.23557 25.008 9.97934 24.128Z" fill="url(#paint2_linear_4_45)"/>
<path d="M32.4189 13.536L32.2175 13.76C31.2188 14.788 30.1315 15.832 28.9958 16.868C28.7858 19.5908 27.5816 22.1435 25.6096 24.0462C23.6376 25.9489 21.0337 27.0705 18.2875 27.2C22.0358 27.0714 25.6214 25.6477 28.4261 23.1745C31.2308 20.7013 33.0787 17.3336 33.6512 13.652C33.5908 13.252 33.5183 12.852 33.4297 12.452C33.1116 12.8 32.7773 13.16 32.4189 13.536Z" fill="url(#paint3_linear_4_45)"/>
<path d="M17.7196 2.40776e-07C15.4005 0.00100451 13.1089 0.499362 11.0016 1.46101C8.89422 2.42265 7.02076 3.82491 5.50926 5.57192C3.99776 7.31893 2.88387 9.36951 2.24371 11.5835C1.60356 13.7974 1.45225 16.1226 1.80011 18.4C2.36088 14.7122 4.20108 11.3349 7.00268 8.85168C9.80428 6.36845 13.3913 4.93533 17.1437 4.8C17.337 4.8 17.5464 4.8 17.7236 4.8C19.8632 4.80046 21.9584 5.40547 23.7647 6.54439C25.5709 7.68331 27.0137 9.30913 27.9245 11.232C28.4481 10.712 28.93 10.216 29.3703 9.744C30.1757 8.872 30.8523 8.092 31.3396 7.452C29.887 5.16915 27.8763 3.28863 25.4948 1.98562C23.1133 0.682619 20.4385 -0.000468206 17.7196 2.40776e-07Z" fill="url(#paint4_linear_4_45)"/>
<path d="M1.83235 30.4C1.64064 30.4018 1.44917 30.3858 1.26049 30.352C1.04997 30.3201 0.848457 30.245 0.668852 30.1313C0.489248 30.0177 0.335501 29.8681 0.217445 29.692C-0.426906 28.684 0.140928 27.048 4.97759 22.336C5.05159 22.2565 5.14109 22.1926 5.24066 22.1485C5.34023 22.1043 5.44779 22.0806 5.55684 22.079C5.66588 22.0773 5.77412 22.0976 5.87501 22.1388C5.9759 22.1799 6.06733 22.2409 6.14376 22.3182C6.22019 22.3955 6.28002 22.4874 6.31964 22.5883C6.35925 22.6892 6.37782 22.7971 6.37421 22.9053C6.3706 23.0136 6.3449 23.12 6.29866 23.2181C6.25242 23.3162 6.18661 23.4039 6.1052 23.476C2.41629 27.076 1.75181 28.4 1.63904 28.8C3.22979 29.128 11.3607 26 19.5077 20.312C27.5138 14.732 33.4458 8.07601 33.8284 6.40001C33.3371 6.40001 31.8148 6.67201 27.4695 8.71201C27.3735 8.759 27.269 8.7865 27.1621 8.79292C27.0553 8.79933 26.9482 8.78453 26.8472 8.74938C26.7462 8.71422 26.6532 8.65942 26.5738 8.58818C26.4943 8.51693 26.43 8.43067 26.3845 8.33444C26.339 8.2382 26.3132 8.13392 26.3088 8.0277C26.3043 7.92148 26.3212 7.81543 26.3585 7.71577C26.3958 7.61611 26.4527 7.52483 26.5259 7.44726C26.5991 7.36969 26.6871 7.3074 26.7849 7.26401C32.9344 4.38801 34.5775 4.42801 35.242 5.42401C35.548 5.89201 36.3615 7.13201 31.2711 12.44C27.9657 15.8402 24.3424 18.9207 20.4501 21.64C14.1999 25.96 5.30782 30.4 1.83235 30.4Z" fill="url(#paint5_linear_4_45)"/>
<path d="M33.6513 13.652C33.0787 17.3335 31.2308 20.7013 28.4261 23.1745C25.6214 25.6477 22.0358 27.0713 18.2875 27.2H17.8606H17.6955C16.7955 27.1971 15.8991 27.087 15.0255 26.872L14.8926 26.948C13.0884 27.956 11.2238 28.916 9.43573 29.72C11.8801 31.1757 14.6695 31.9613 17.5194 31.9965C20.3692 32.0317 23.1774 31.3153 25.6575 29.9204C28.1375 28.5254 30.2005 26.5019 31.636 24.0564C33.0715 21.6108 33.8281 18.8308 33.8285 16C33.8289 15.214 33.7697 14.4291 33.6513 13.652Z" fill="url(#paint6_linear_4_45)"/>
<path d="M9.97934 24.128C8.37375 22.622 7.24876 20.6807 6.74399 18.5453C6.23921 16.4099 6.37687 14.1742 7.13987 12.1157C7.90288 10.0573 9.25765 8.26673 11.0361 6.9662C12.8145 5.66568 14.9382 4.91247 17.1437 4.80005C13.3913 4.93538 9.80428 6.3685 7.00267 8.85173C4.20107 11.335 2.36088 14.7123 1.80011 18.4C2.24137 21.2762 3.46383 23.9785 5.33599 26.216C6.65288 25.712 8.23557 25.008 9.97934 24.128Z" fill="url(#paint7_linear_4_45)"/>
<path d="M32.4189 13.536L32.2175 13.76C31.2188 14.788 30.1315 15.832 28.9958 16.868C28.7858 19.5908 27.5816 22.1435 25.6096 24.0462C23.6376 25.9489 21.0337 27.0705 18.2875 27.2C22.0358 27.0714 25.6214 25.6477 28.4261 23.1745C31.2308 20.7013 33.0787 17.3336 33.6512 13.652C33.5908 13.252 33.5183 12.852 33.4297 12.452C33.1116 12.8 32.7773 13.16 32.4189 13.536Z" fill="url(#paint8_linear_4_45)"/>
<path d="M17.7196 2.40776e-07C15.4005 0.00100451 13.1089 0.499362 11.0016 1.46101C8.89422 2.42265 7.02076 3.82491 5.50926 5.57192C3.99776 7.31893 2.88387 9.36951 2.24371 11.5835C1.60356 13.7974 1.45225 16.1226 1.80011 18.4C2.36088 14.7122 4.20108 11.3349 7.00268 8.85168C9.80428 6.36845 13.3913 4.93533 17.1437 4.8C17.337 4.8 17.5464 4.8 17.7236 4.8C19.8632 4.80046 21.9584 5.40547 23.7647 6.54439C25.5709 7.68331 27.0137 9.30913 27.9245 11.232C28.4481 10.712 28.93 10.216 29.3703 9.744C30.1757 8.872 30.8523 8.092 31.3396 7.452C29.887 5.16915 27.8763 3.28863 25.4948 1.98562C23.1133 0.682619 20.4385 -0.000468206 17.7196 2.40776e-07Z" fill="url(#paint9_linear_4_45)"/>
</g>
<defs>
<linearGradient id="paint0_linear_4_45" x1="-2.38117e-05" y1="17.6" x2="35.4594" y2="17.6" gradientUnits="userSpaceOnUse">
<stop stop-color="#FF5A5A"/>
<stop offset="1" stop-color="#6E6EFF"/>
</linearGradient>
<linearGradient id="paint1_linear_4_45" x1="9.43573" y1="22.824" x2="33.8325" y2="22.824" gradientUnits="userSpaceOnUse">
<stop stop-color="#FF5A5A"/>
<stop offset="1" stop-color="#773DBE"/>
</linearGradient>
<linearGradient id="paint2_linear_4_45" x1="1.80011" y1="15.52" x2="17.1437" y2="15.52" gradientUnits="userSpaceOnUse">
<stop stop-color="#FF5A5A"/>
<stop offset="1" stop-color="#773DBE"/>
</linearGradient>
<linearGradient id="paint3_linear_4_45" x1="18.2875" y1="19.816" x2="33.6512" y2="19.816" gradientUnits="userSpaceOnUse">
<stop stop-color="#773DBE"/>
<stop offset="1" stop-color="#6E6EFF"/>
</linearGradient>
<linearGradient id="paint4_linear_4_45" x1="1.61486" y1="9.204" x2="31.3396" y2="9.204" gradientUnits="userSpaceOnUse">
<stop stop-color="#773DBE"/>
<stop offset="1" stop-color="#6E6EFF"/>
</linearGradient>
<linearGradient id="paint5_linear_4_45" x1="-2.38117e-05" y1="17.6" x2="35.4594" y2="17.6" gradientUnits="userSpaceOnUse">
<stop stop-color="#FF5A5A"/>
<stop offset="1" stop-color="#6E6EFF"/>
</linearGradient>
<linearGradient id="paint6_linear_4_45" x1="9.43573" y1="22.824" x2="33.8325" y2="22.824" gradientUnits="userSpaceOnUse">
<stop stop-color="#FF5A5A"/>
<stop offset="1" stop-color="#773DBE"/>
</linearGradient>
<linearGradient id="paint7_linear_4_45" x1="1.80011" y1="15.52" x2="17.1437" y2="15.52" gradientUnits="userSpaceOnUse">
<stop stop-color="#FF5A5A"/>
<stop offset="1" stop-color="#773DBE"/>
</linearGradient>
<linearGradient id="paint8_linear_4_45" x1="18.2875" y1="19.816" x2="33.6512" y2="19.816" gradientUnits="userSpaceOnUse">
<stop stop-color="#773DBE"/>
<stop offset="1" stop-color="#6E6EFF"/>
</linearGradient>
<linearGradient id="paint9_linear_4_45" x1="1.61486" y1="9.204" x2="31.3396" y2="9.204" gradientUnits="userSpaceOnUse">
<stop stop-color="#773DBE"/>
<stop offset="1" stop-color="#6E6EFF"/>
</linearGradient>
<clipPath id="clip0_4_45">
<rect width="35.4595" height="32" fill="white"/>
</clipPath>
</defs>
</svg>
