<svg width="143" height="36" viewBox="0 0 143 36" fill="none" xmlns="http://www.w3.org/2000/svg">
<path d="M49.8307 13.0551V17.4018H57.4434V20.4563H49.8307V26.4478H46.0244V10.0007H58.4537V13.0551H49.8307ZM60.5426 13.807H64.208V26.4478H60.5426V13.807ZM62.3753 12.0448C61.7017 12.0448 61.1535 11.849 60.7306 11.4574C60.3077 11.0658 60.0962 10.5802 60.0962 10.0007C60.0962 9.42109 60.3077 8.93551 60.7306 8.54391C61.1535 8.15231 61.7017 7.95651 62.3753 7.95651C63.0488 7.95651 63.5971 8.14448 64.02 8.52041C64.4429 8.89635 64.6544 9.36627 64.6544 9.93017C64.6544 10.5411 64.4429 11.0501 64.02 11.4574C63.5971 11.849 63.0488 12.0448 62.3753 12.0448ZM75.2929 13.619C76.8593 13.619 78.1202 14.0889 79.0757 15.0288C80.0469 15.9686 80.5324 17.3627 80.5324 19.211V26.4478H76.8671V19.7749C76.8671 18.7724 76.6478 18.0284 76.2092 17.5428C75.7706 17.0416 75.1362 16.791 74.306 16.791C73.3819 16.791 72.6457 17.0807 72.0974 17.6603C71.5492 18.2242 71.2751 19.0701 71.2751 20.1979V26.4478H67.6097V13.807H71.1106V15.2872C71.5962 14.7546 72.1993 14.3474 72.9198 14.0654C73.6403 13.7678 74.4314 13.619 75.2929 13.619ZM88.9535 13.619C90.9115 13.619 92.4152 14.0889 93.4647 15.0288C94.5142 15.9529 95.0389 17.3549 95.0389 19.2345V26.4478H91.6085V24.8735C90.9193 26.0483 89.6349 26.6357 87.7552 26.6357C86.7841 26.6357 85.9382 26.4712 85.2177 26.1423C84.5128 25.8134 83.9724 25.3591 83.5965 24.7795C83.2205 24.2 83.0326 23.5421 83.0326 22.8059C83.0326 21.6311 83.4711 20.7069 84.3483 20.0334C85.2412 19.3598 86.6118 19.0231 88.4601 19.0231H91.3736C91.3736 18.2242 91.1308 17.6133 90.6452 17.1904C90.1596 16.7518 89.4313 16.5325 88.4601 16.5325C87.7865 16.5325 87.1208 16.6421 86.4629 16.8614C85.8207 17.0651 85.2725 17.347 84.8182 17.7073L83.5025 15.1462C84.1917 14.6607 85.014 14.2847 85.9695 14.0184C86.9407 13.7522 87.9354 13.619 88.9535 13.619ZM88.6716 24.1687C89.2981 24.1687 89.8542 24.0277 90.3398 23.7457C90.8253 23.4481 91.1699 23.0174 91.3736 22.4535V21.1612H88.8595C87.3558 21.1612 86.6039 21.6546 86.6039 22.6414C86.6039 23.1113 86.7841 23.4873 87.1443 23.7692C87.5203 24.0355 88.0293 24.1687 88.6716 24.1687ZM106.039 13.619C107.606 13.619 108.867 14.0889 109.822 15.0288C110.793 15.9686 111.279 17.3627 111.279 19.211V26.4478H107.614V19.7749C107.614 18.7724 107.394 18.0284 106.956 17.5428C106.517 17.0416 105.883 16.791 105.053 16.791C104.128 16.791 103.392 17.0807 102.844 17.6603C102.296 18.2242 102.022 19.0701 102.022 20.1979V26.4478H98.3563V13.807H101.857V15.2872C102.343 14.7546 102.946 14.3474 103.666 14.0654C104.387 13.7678 105.178 13.619 106.039 13.619ZM120.848 26.6357C119.501 26.6357 118.287 26.3616 117.206 25.8134C116.141 25.2495 115.303 24.4741 114.692 23.4873C114.097 22.5004 113.799 21.3805 113.799 20.1274C113.799 18.8743 114.097 17.7543 114.692 16.7675C115.303 15.7806 116.141 15.0131 117.206 14.4649C118.287 13.901 119.501 13.619 120.848 13.619C122.179 13.619 123.339 13.901 124.325 14.4649C125.328 15.0131 126.056 15.8041 126.511 16.8379L123.668 18.3652C123.01 17.206 122.062 16.6265 120.825 16.6265C119.869 16.6265 119.078 16.9398 118.451 17.5663C117.825 18.1929 117.512 19.0466 117.512 20.1274C117.512 21.2082 117.825 22.0619 118.451 22.6884C119.078 23.315 119.869 23.6283 120.825 23.6283C122.078 23.6283 123.025 23.0487 123.668 21.8896L126.511 23.4403C126.056 24.4428 125.328 25.226 124.325 25.7899C123.339 26.3538 122.179 26.6357 120.848 26.6357ZM140.843 20.1744C140.843 20.2214 140.819 20.5503 140.772 21.1612H131.209C131.382 21.9444 131.789 22.5631 132.431 23.0174C133.073 23.4716 133.872 23.6987 134.828 23.6987C135.486 23.6987 136.065 23.6048 136.566 23.4168C137.083 23.2132 137.561 22.8999 138 22.477L139.95 24.5916C138.759 25.9543 137.021 26.6357 134.734 26.6357C133.308 26.6357 132.047 26.3616 130.951 25.8134C129.854 25.2495 129.009 24.4741 128.413 23.4873C127.818 22.5004 127.52 21.3805 127.52 20.1274C127.52 18.8899 127.81 17.7778 128.39 16.791C128.985 15.7885 129.792 15.0131 130.81 14.4649C131.844 13.901 132.995 13.619 134.264 13.619C135.501 13.619 136.621 13.8853 137.624 14.4179C138.626 14.9504 139.409 15.718 139.973 16.7205C140.553 17.7073 140.843 18.8586 140.843 20.1744ZM134.287 16.3915C133.457 16.3915 132.76 16.6265 132.196 17.0964C131.632 17.5663 131.288 18.2085 131.162 19.0231H137.389C137.263 18.2242 136.919 17.5898 136.355 17.1199C135.791 16.6343 135.102 16.3915 134.287 16.3915Z" fill="white"/>
<mask id="mask0_1077_4961" style="mask-type:alpha" maskUnits="userSpaceOnUse" x="0" y="0" width="36" height="36">
<rect x="0.90625" y="0.266602" width="35.0553" height="35.0553" rx="8.04577" fill="url(#paint0_linear_1077_4961)"/>
</mask>
<g mask="url(#mask0_1077_4961)">
<rect x="-0.570312" y="0.266602" width="37.1535" height="35.0553" fill="url(#paint1_linear_1077_4961)"/>
<rect x="0.488281" y="-0.232422" width="35.96" height="36.0414" fill="#FF7028"/>
</g>
<mask id="mask1_1077_4961" style="mask-type:alpha" maskUnits="userSpaceOnUse" x="6" y="4" width="23" height="27">
<path d="M22.2087 9.21521H20.1738C20.0601 10.6039 19.6397 11.9547 18.9395 13.1673C18.1111 14.6029 16.9186 15.7948 15.4831 16.6238C14.0475 17.4528 12.4191 17.8887 10.7611 17.8887C9.10362 17.8887 7.47517 17.4528 6.03906 16.6238L7.78514 13.5994C8.68996 14.1217 9.71631 14.3971 10.7611 14.3971C11.8058 14.3971 12.8322 14.1217 13.737 13.5994C14.6418 13.077 15.3933 12.326 15.9157 11.4212C16.3087 10.74 16.5618 9.99013 16.6627 9.21521H14.6942L18.4512 4.76416L22.2087 9.21521Z" fill="#13B569"/>
<path fill-rule="evenodd" clip-rule="evenodd" d="M14.9534 11.7699V9.80615H11.4556V13.6218C12.1517 13.5404 12.8282 13.3256 13.4472 12.9863C14.0199 12.6725 14.5294 12.2598 14.9534 11.7699ZM14.9519 17.5722C13.8455 18.0595 12.6618 18.3472 11.4557 18.4221C11.4557 18.4981 11.4556 18.5742 11.4556 18.6503C11.4554 18.8579 11.455 19.0656 11.4546 19.2733C11.4519 20.727 11.4492 22.1811 11.4824 23.6343C11.5209 25.367 12.657 26.797 14.3022 27.3578C15.1745 27.6553 16.0626 27.6403 16.9578 27.6251C17.061 27.6234 17.1642 27.6217 17.2675 27.6204C17.9354 28.4968 18.8263 29.1803 19.8482 29.5984C20.9269 30.0399 22.1088 30.1682 23.2573 29.9686C24.4057 29.7695 25.475 29.2505 26.3419 28.4711C27.2088 27.6918 27.8382 26.6838 28.1582 25.5632C28.4788 24.4421 28.4766 23.2535 28.1521 22.1341C27.8276 21.0146 27.1938 20.0089 26.3241 19.2329C26.0057 18.9485 25.6595 18.6993 25.2933 18.4886L26.6006 17.1813V13.6802H19.4765C19.4678 13.694 19.459 13.7078 19.4501 13.7216V17.1813H21.9399L19.1385 19.9827L21.4688 22.313L22.9462 20.8357C23.4368 20.9572 23.8917 21.1964 24.2708 21.5348C24.7084 21.9245 25.0268 22.4301 25.1896 22.9926C25.3529 23.5551 25.354 24.1528 25.1929 24.7158C25.0323 25.2789 24.7157 25.7857 24.2797 26.1776C23.8443 26.569 23.3069 26.8299 22.7299 26.9302C22.1523 27.0306 21.5586 26.9659 21.0167 26.744C20.4743 26.5221 20.0054 26.1519 19.6642 25.6758C19.323 25.1992 19.1229 24.6367 19.0866 24.0519L17.8356 24.1294C17.7996 24.1297 17.7637 24.1301 17.7279 24.1305C17.3971 24.1342 17.0781 24.1378 16.7597 24.1232C15.6742 24.0725 15.0905 23.5128 14.9751 22.4295C14.9528 22.2183 14.9523 22.0036 14.9523 21.7901C14.9517 21.5867 14.9517 21.3833 14.9517 21.1805V21.1802C14.9511 20.6291 14.9511 20.0779 14.9511 19.5274V19.5267V19.5257C14.9511 18.8744 14.9511 18.2231 14.9519 17.5722Z" fill="#13B569"/>
</mask>
<g mask="url(#mask1_1077_4961)">
<rect x="6.03906" y="4.76416" width="22.8208" height="25.3983" fill="white"/>
</g>
<defs>
<linearGradient id="paint0_linear_1077_4961" x1="20.702" y1="3.80248" x2="33.3463" y2="39.6792" gradientUnits="userSpaceOnUse">
<stop stop-color="#0EB5FD"/>
<stop offset="1" stop-color="#2346FF"/>
</linearGradient>
<linearGradient id="paint1_linear_1077_4961" x1="25.1017" y1="0.266602" x2="19.9608" y2="35.6062" gradientUnits="userSpaceOnUse">
<stop stop-color="#A1FE9F"/>
<stop offset="0.210844" stop-color="#01F8A1"/>
<stop offset="0.542909" stop-color="#6FAAFC"/>
<stop offset="0.914268" stop-color="#5052FF"/>
</linearGradient>
</defs>
</svg>
