<svg width="49" height="19" viewBox="0 0 49 19" fill="none" xmlns="http://www.w3.org/2000/svg">
<path d="M7.97335 8.99072C7.80532 8.99072 7.73331 9.06692 7.73331 9.2447V10.7685C7.73331 10.9463 7.80532 11.0225 7.97335 11.0225H12.7502V13.6935C12.2298 14.5376 11.5063 15.2197 10.654 15.6698C9.80184 16.1199 8.8517 16.3217 7.90134 16.2544C4.32473 16.2544 2.11636 13.8205 2.11636 9.14311C2.11636 4.49536 4.7088 2.0318 7.6613 2.0318C9.96169 2.0318 11.838 2.99691 12.4381 5.33348C12.4482 5.4059 12.4831 5.47186 12.5363 5.51872C12.5894 5.56558 12.657 5.59006 12.7262 5.58746H14.2584C14.4264 5.58746 14.5225 5.51126 14.5225 5.33348C13.8744 1.77783 10.9939 0 7.6573 0C3.91266 0 0 3.0477 0 9.14311C0 15.1623 3.70063 18.2862 7.99336 18.2862C9.28794 18.3279 10.5705 18.0126 11.7152 17.3715C12.8598 16.7303 13.8273 15.7852 14.5225 14.629C14.6942 14.341 14.7781 14.004 14.7625 13.6639V9.24893C14.7625 9.07115 14.6905 8.99496 14.5225 8.99496L7.97335 8.99072ZM32.8896 0.507952C32.8896 0.330169 32.8176 0.253977 32.6495 0.253977H30.3692C30.2876 0.245327 30.2056 0.265574 30.1361 0.31154C30.0666 0.357507 30.0135 0.426591 29.9851 0.507952L25.3283 11.8098L20.6715 0.507952C20.6431 0.426591 20.59 0.357507 20.5205 0.31154C20.451 0.265574 20.369 0.245327 20.2874 0.253977H18.0071C17.839 0.253977 17.767 0.330169 17.767 0.507952V17.7783C17.767 17.956 17.839 18.0322 18.0071 18.0322H19.5433C19.7113 18.0322 19.7834 17.956 19.7834 17.7783V3.58105L24.4842 14.8322C24.5077 14.8995 24.5503 14.9576 24.6061 14.9985C24.662 15.0393 24.7283 15.0611 24.7962 15.0607H25.8604C25.9283 15.0611 25.9946 15.0393 26.0504 14.9985C26.1063 14.9576 26.1489 14.8995 26.1724 14.8322L30.8732 3.58105V17.7783C30.8732 17.956 30.9453 18.0322 31.1133 18.0322H32.6495C32.8176 18.0322 32.8896 17.956 32.8896 17.7783V0.507952ZM38.1225 0.507952C37.9544 0.279374 37.9544 0.253977 37.7864 0.253977H35.9381C35.7701 0.253977 35.6981 0.380964 35.7701 0.507952L40.8589 8.65632L35.146 17.7783C35.074 17.9053 35.146 18.0322 35.314 18.0322H37.1143C37.2823 18.0322 37.3303 18.0068 37.4984 17.7783L42.0631 10.5188L46.6199 17.7783C46.7879 18.0068 46.836 18.0322 47.004 18.0322H48.8043C48.9723 18.0322 49.0443 17.9053 48.9723 17.7783L43.2633 8.66056L48.3522 0.512185C48.4242 0.385197 48.3522 0.25821 48.1842 0.25821H46.3319C46.1638 0.25821 46.1638 0.283607 45.9958 0.512185L42.0631 6.78114L38.1225 0.507952Z" fill="white"/>
</svg>
