<svg width="254" height="254" viewBox="0 0 254 254" fill="none" xmlns="http://www.w3.org/2000/svg">
<mask id="mask0_0_1" style="mask-type:alpha" maskUnits="userSpaceOnUse" x="0" y="0" width="254" height="254">
<rect x="0.571533" y="0.843445" width="252.904" height="252.904" rx="58.0455" fill="url(#paint0_linear_0_1)"/>
</mask>
<g mask="url(#mask0_0_1)">
<rect x="-10.0945" y="0.843445" width="268.041" height="252.904" fill="url(#paint1_linear_0_1)"/>
<rect x="-2.44738" y="-2.75568" width="259.43" height="260.018" fill="#13B569"/>
</g>
<mask id="mask1_0_1" style="mask-type:alpha" maskUnits="userSpaceOnUse" x="37" y="33" width="162" height="183">
<path d="M154.266 65.4034H139.586C138.765 75.4223 135.733 85.1676 130.681 93.9155C124.704 104.272 116.101 112.871 105.744 118.852C95.3878 124.833 83.6395 127.978 71.678 127.978C59.7206 127.978 47.9723 124.833 37.6116 118.852L50.2085 97.0325C56.7362 100.801 64.1408 102.788 71.678 102.788C79.2153 102.788 86.6198 100.801 93.1475 97.0325C99.6752 93.2639 105.097 87.8463 108.866 81.3185C111.701 76.4036 113.527 70.994 114.255 65.4034H100.053L127.158 33.2917L154.266 65.4034Z" fill="#13B569"/>
<path fill-rule="evenodd" clip-rule="evenodd" d="M101.925 83.8345V69.6666H76.6907V97.1948C81.7122 96.6073 86.5929 95.0573 91.0588 92.6099C95.1906 90.3456 98.866 87.3688 101.925 83.8345ZM101.914 125.694C93.9324 129.21 85.3925 131.285 76.6912 131.826C76.6909 132.374 76.6907 132.923 76.6907 133.472C76.6887 134.97 76.6859 136.468 76.6832 137.966C76.6638 148.455 76.6444 158.945 76.8837 169.429C77.1613 181.929 85.3581 192.246 97.2271 196.292C103.52 198.438 109.927 198.329 116.386 198.22C117.13 198.208 117.875 198.195 118.62 198.186C123.439 204.509 129.866 209.44 137.238 212.456C145.021 215.642 153.547 216.567 161.833 215.127C170.118 213.691 177.832 209.946 184.086 204.324C190.341 198.701 194.882 191.429 197.19 183.345C199.503 175.257 199.487 166.682 197.146 158.605C194.805 150.529 190.232 143.273 183.958 137.675C181.661 135.624 179.164 133.826 176.521 132.305L185.953 122.874V97.6156H134.557C134.494 97.7154 134.43 97.8151 134.366 97.9146V122.874H152.329L132.118 143.084L148.93 159.896L159.588 149.238C163.128 150.115 166.41 151.84 169.145 154.282C172.302 157.093 174.599 160.741 175.773 164.799C176.951 168.858 176.959 173.169 175.797 177.231C174.639 181.294 172.354 184.95 169.209 187.777C166.068 190.601 162.191 192.483 158.028 193.207C153.861 193.931 149.578 193.464 145.668 191.863C141.755 190.263 138.372 187.592 135.911 184.157C133.449 180.718 132.005 176.66 131.744 172.441L122.719 173C122.458 173.003 122.199 173.006 121.941 173.009C119.554 173.035 117.254 173.061 114.956 172.956C107.125 172.59 102.914 168.552 102.082 160.737C101.921 159.213 101.917 157.664 101.917 156.124C101.913 154.656 101.913 153.189 101.913 151.726V151.724C101.909 147.748 101.909 143.772 101.909 139.8V139.794V139.787C101.909 135.088 101.909 130.39 101.914 125.694Z" fill="#13B569"/>
</mask>
<g mask="url(#mask1_0_1)">
<rect x="37.6104" y="33.2917" width="164.639" height="183.234" fill="white"/>
</g>
<defs>
<linearGradient id="paint0_linear_0_1" x1="143.386" y1="26.3527" x2="234.608" y2="285.183" gradientUnits="userSpaceOnUse">
<stop stop-color="#0EB5FD"/>
<stop offset="1" stop-color="#2346FF"/>
</linearGradient>
<linearGradient id="paint1_linear_0_1" x1="175.114" y1="0.843446" x2="138.026" y2="255.798" gradientUnits="userSpaceOnUse">
<stop stop-color="#A1FE9F"/>
<stop offset="0.210844" stop-color="#01F8A1"/>
<stop offset="0.542909" stop-color="#6FAAFC"/>
<stop offset="0.914268" stop-color="#5052FF"/>
</linearGradient>
</defs>
</svg>
