<svg id="logo_GMX" xmlns="http://www.w3.org/2000/svg" xmlns:xlink="http://www.w3.org/1999/xlink" width="82.878" height="21.462" viewBox="0 0 82.878 21.462">
  <defs>
    <linearGradient id="linear-gradient" x1="0.536" y1="0.026" x2="0.011" y2="1" gradientUnits="objectBoundingBox">
      <stop offset="0" stop-color="#03d1cf" stop-opacity="0.988"/>
      <stop offset="1" stop-color="#4e09f8"/>
    </linearGradient>
  </defs>
  <path id="Path_1" data-name="Path 1" d="M555.182,717.462,540.447,696l-14.78,21.462h20.592l-5.812-8.191-2.883,4.256H534.5l5.949-8.557,8.6,12.493Z" transform="translate(-525.667 -696)" fill="url(#linear-gradient)"/>
  <path id="Path_1438" data-name="Path 1438" d="M9.216-8.544c-.168,0-.24.072-.24.24v1.44c0,.168.072.24.24.24h4.776V-4.1A5.361,5.361,0,0,1,9.144-1.68c-3.576,0-5.784-2.3-5.784-6.72,0-4.392,2.592-6.72,5.544-6.72,2.3,0,4.176.912,4.776,3.12a.281.281,0,0,0,.288.24H15.5c.168,0,.264-.072.264-.24-.648-3.36-3.528-5.04-6.864-5.04-3.744,0-7.656,2.88-7.656,8.64,0,5.688,3.7,8.64,7.992,8.64a7.468,7.468,0,0,0,6.528-3.456,1.567,1.567,0,0,0,.24-.912V-8.3c0-.168-.072-.24-.24-.24ZM34.128-16.56c0-.168-.072-.24-.24-.24h-2.28a.37.37,0,0,0-.384.24L26.568-5.88,21.912-16.56a.37.37,0,0,0-.384-.24h-2.28c-.168,0-.24.072-.24.24V-.24c0,.168.072.24.24.24h1.536c.168,0,.24-.072.24-.24V-13.656l4.7,10.632a.331.331,0,0,0,.312.216H27.1a.331.331,0,0,0,.312-.216l4.7-10.632V-.24c0,.168.072.24.24.24h1.536c.168,0,.24-.072.24-.24Zm5.232,0c-.168-.216-.168-.24-.336-.24H37.176c-.168,0-.24.12-.168.24l5.088,7.7L36.384-.24c-.072.12,0,.24.168.24h1.8c.168,0,.216-.024.384-.24L43.3-7.1,47.856-.24c.168.216.216.24.384.24h1.8c.168,0,.24-.12.168-.24L44.5-8.856l5.088-7.7c.072-.12,0-.24-.168-.24H47.568c-.168,0-.168.024-.336.24L43.3-10.632Z" transform="translate(32.642 19.131)" fill="#fff"/>
</svg>
