<svg width="1016" height="254" viewBox="0 0 1016 254" fill="none" xmlns="http://www.w3.org/2000/svg">
    <path
        d="M415.739 91.1752H353.53V122.534H408.451V144.571H353.53V187.795H326.069V69.1391H415.739V91.1752ZM444.032 83.8864C434.2 83.8864 427.589 77.445 427.589 69.1391C427.589 60.8331 434.2 54.3918 444.032 54.3918C453.863 54.3918 460.474 60.4941 460.474 68.6306C460.474 77.445 453.863 83.8864 444.032 83.8864ZM430.81 187.795V96.5995H457.253V187.795H430.81ZM537.224 95.2435C558.752 95.2435 575.025 107.787 575.025 135.587V187.795H548.582V139.655C548.582 124.908 541.801 118.127 530.105 118.127C517.392 118.127 508.238 125.925 508.238 142.706V187.795H481.795V96.5995H507.052V107.279C514.171 99.4812 524.85 95.2435 537.224 95.2435ZM635.778 95.2435C663.577 95.2435 679.681 108.126 679.681 135.756V187.795H654.933V176.438C650.017 184.744 640.524 189.151 627.133 189.151C605.775 189.151 593.062 177.286 593.062 161.521C593.062 145.418 604.419 134.231 632.218 134.231H653.237C653.237 122.873 646.457 116.263 632.218 116.263C622.556 116.263 612.555 119.483 605.944 124.738L596.452 106.262C606.453 99.1422 621.2 95.2435 635.778 95.2435ZM633.744 171.353C642.558 171.353 650.186 167.285 653.237 158.979V149.656H635.1C622.726 149.656 618.827 154.233 618.827 160.335C618.827 166.946 624.421 171.353 633.744 171.353ZM759.043 95.2435C780.57 95.2435 796.843 107.787 796.843 135.587V187.795H770.4V139.655C770.4 124.908 763.62 118.127 751.923 118.127C739.21 118.127 730.057 125.925 730.057 142.706V187.795H703.613V96.5995H728.87V107.279C735.99 99.4812 746.669 95.2435 759.043 95.2435ZM865.878 189.151C836.214 189.151 815.026 169.658 815.026 142.197C815.026 114.737 836.214 95.2435 865.878 95.2435C885.033 95.2435 900.119 103.549 906.73 118.466L886.22 129.484C881.304 120.839 874.015 116.941 865.709 116.941C852.318 116.941 841.808 126.264 841.808 142.197C841.808 158.131 852.318 167.454 865.709 167.454C874.015 167.454 881.304 163.725 886.22 154.911L906.73 166.098C900.119 180.676 885.033 189.151 865.878 189.151ZM1010.13 142.536C1010.13 144.571 1009.79 147.452 1009.62 149.656H940.629C943.172 161.013 952.834 167.963 966.734 167.963C976.396 167.963 983.346 165.081 989.617 159.148L1003.69 174.404C995.211 184.066 982.498 189.151 966.056 189.151C934.527 189.151 914.016 169.319 914.016 142.197C914.016 114.906 934.866 95.2435 962.665 95.2435C989.448 95.2435 1010.13 113.211 1010.13 142.536ZM962.835 115.246C950.8 115.246 942.155 122.534 940.29 134.231H985.21C983.346 122.704 974.701 115.246 962.835 115.246Z"
        fill="white" />
    <mask id="mask0_1_80" style="mask-type:alpha" maskUnits="userSpaceOnUse" x="0" y="0" width="254" height="254">
        <rect x="0.571533" y="0.843445" width="252.904" height="252.904" rx="58.0455" fill="url(#paint0_linear_1_80)" />
    </mask>
    <g mask="url(#mask0_1_80)">
        <rect x="-10.0945" y="0.843445" width="268.041" height="252.904" fill="url(#paint1_linear_1_80)" />
        <rect x="-2.44738" y="-2.75568" width="259.43" height="260.018" fill="#13B569" />
    </g>
    <mask id="mask1_1_80" style="mask-type:alpha" maskUnits="userSpaceOnUse" x="37" y="33" width="162" height="183">
        <path
            d="M154.266 65.4034H139.586C138.765 75.4223 135.733 85.1676 130.681 93.9155C124.704 104.272 116.101 112.871 105.744 118.852C95.3878 124.833 83.6395 127.978 71.678 127.978C59.7206 127.978 47.9723 124.833 37.6116 118.852L50.2085 97.0325C56.7362 100.801 64.1408 102.788 71.678 102.788C79.2153 102.788 86.6198 100.801 93.1475 97.0325C99.6752 93.2639 105.097 87.8463 108.866 81.3185C111.701 76.4036 113.527 70.994 114.255 65.4034H100.053L127.158 33.2917L154.266 65.4034Z"
            fill="#13B569" />
        <path fill-rule="evenodd" clip-rule="evenodd"
            d="M101.925 83.8345V69.6666H76.6907V97.1948C81.7122 96.6073 86.5929 95.0573 91.0588 92.6099C95.1906 90.3456 98.866 87.3688 101.925 83.8345ZM101.914 125.694C93.9324 129.21 85.3925 131.285 76.6912 131.826C76.6909 132.374 76.6907 132.923 76.6907 133.472C76.6887 134.97 76.6859 136.468 76.6832 137.966C76.6638 148.455 76.6444 158.945 76.8837 169.429C77.1613 181.929 85.3581 192.246 97.2271 196.292C103.52 198.438 109.927 198.329 116.386 198.22C117.13 198.208 117.875 198.195 118.62 198.186C123.439 204.509 129.866 209.44 137.238 212.456C145.021 215.642 153.547 216.567 161.833 215.127C170.118 213.691 177.832 209.946 184.086 204.324C190.341 198.701 194.882 191.429 197.19 183.345C199.503 175.257 199.487 166.682 197.146 158.605C194.805 150.529 190.232 143.273 183.958 137.675C181.661 135.624 179.164 133.826 176.521 132.305L185.953 122.874V97.6156H134.557C134.494 97.7154 134.43 97.8151 134.366 97.9146V122.874H152.329L132.118 143.084L148.93 159.896L159.588 149.238C163.128 150.115 166.41 151.84 169.145 154.282C172.302 157.093 174.599 160.741 175.773 164.799C176.951 168.858 176.959 173.169 175.797 177.231C174.639 181.294 172.354 184.95 169.209 187.777C166.068 190.601 162.191 192.483 158.028 193.207C153.861 193.931 149.578 193.464 145.668 191.863C141.755 190.263 138.372 187.592 135.911 184.157C133.449 180.718 132.005 176.66 131.744 172.441L122.719 173C122.458 173.003 122.199 173.006 121.941 173.009C119.554 173.035 117.254 173.061 114.956 172.956C107.125 172.59 102.914 168.552 102.082 160.737C101.921 159.213 101.917 157.664 101.917 156.124C101.913 154.656 101.913 153.189 101.913 151.726V151.724C101.909 147.748 101.909 143.772 101.909 139.8V139.794V139.787C101.909 135.088 101.909 130.39 101.914 125.694Z"
            fill="#13B569" />
    </mask>
    <g mask="url(#mask1_1_80)">
        <rect x="37.6104" y="33.2917" width="164.639" height="183.234" fill="white" />
    </g>
    <defs>
        <linearGradient id="paint0_linear_1_80" x1="143.386" y1="26.3527" x2="234.608" y2="285.183"
            gradientUnits="userSpaceOnUse">
            <stop stop-color="#0EB5FD" />
            <stop offset="1" stop-color="#2346FF" />
        </linearGradient>
        <linearGradient id="paint1_linear_1_80" x1="175.114" y1="0.843446" x2="138.026" y2="255.798"
            gradientUnits="userSpaceOnUse">
            <stop stop-color="#A1FE9F" />
            <stop offset="0.210844" stop-color="#01F8A1" />
            <stop offset="0.542909" stop-color="#6FAAFC" />
            <stop offset="0.914268" stop-color="#5052FF" />
        </linearGradient>
    </defs>
</svg>
