<?xml version="1.0" encoding="utf-8"?>
<!-- Generator: Adobe Illustrator 24.3.0, SVG Export Plug-In . SVG Version: 6.00 Build 0)  -->
<svg version="1.1" id="katman_1" xmlns="http://www.w3.org/2000/svg" xmlns:xlink="http://www.w3.org/1999/xlink" x="0px" y="0px"
	 viewBox="0 0 560 400" style="enable-background:new 0 0 560 400;" xml:space="preserve">
<style type="text/css">
	.st0{fill:#161616;}
	.st1{fill:#E17726;stroke:#E17726;stroke-linecap:round;stroke-linejoin:round;}
	.st2{fill:#E27625;stroke:#E27625;stroke-linecap:round;stroke-linejoin:round;}
	.st3{fill:#D5BFB2;stroke:#D5BFB2;stroke-linecap:round;stroke-linejoin:round;}
	.st4{fill:#233447;stroke:#233447;stroke-linecap:round;stroke-linejoin:round;}
	.st5{fill:#CC6228;stroke:#CC6228;stroke-linecap:round;stroke-linejoin:round;}
	.st6{fill:#E27525;stroke:#E27525;stroke-linecap:round;stroke-linejoin:round;}
	.st7{fill:#F5841F;stroke:#F5841F;stroke-linecap:round;stroke-linejoin:round;}
	.st8{fill:#C0AC9D;stroke:#C0AC9D;stroke-linecap:round;stroke-linejoin:round;}
	.st9{fill:#161616;stroke:#161616;stroke-linecap:round;stroke-linejoin:round;}
	.st10{fill:#763E1A;stroke:#763E1A;stroke-linecap:round;stroke-linejoin:round;}
</style>
<g>
	<path class="st0" d="M448.8,201.1c-2.2-1.5-4.6-2.5-7-3.8c-1.5-0.8-3.1-1.6-4.4-2.7c-2.2-1.8-1.8-5.4,0.6-7c3.3-2.2,8.8-1,9.4,3.5
		c0,0.1,0.1,0.2,0.2,0.2h5c0.1,0,0.2-0.1,0.2-0.2c-0.3-3.1-1.5-5.7-3.7-7.4c-2.1-1.6-4.5-2.4-7.1-2.4c-13.2,0-14.4,14-7.3,18.4
		c0.8,0.5,7.8,4,10.3,5.6c2.5,1.5,3.2,4.3,2.2,6.5c-1,2-3.5,3.4-6,3.2c-2.8-0.2-4.9-1.7-5.7-4c-0.1-0.4-0.2-1.2-0.2-1.6
		c0-0.1-0.1-0.2-0.2-0.2h-5.4c-0.1,0-0.2,0.1-0.2,0.2c0,3.9,1,6.1,3.6,8.1c2.5,1.9,5.2,2.7,8.1,2.7c7.4,0,11.2-4.2,12-8.5
		C453.8,207.5,452.6,203.7,448.8,201.1z"/>
	<path class="st0" d="M213.1,182.1h-2.4h-2.6c-0.1,0-0.2,0.1-0.2,0.1l-4.5,14.7c-0.1,0.2-0.3,0.2-0.4,0l-4.5-14.7
		c0-0.1-0.1-0.1-0.2-0.1h-2.6h-2.4h-3.2c-0.1,0-0.2,0.1-0.2,0.2v37.5c0,0.1,0.1,0.2,0.2,0.2h5.4c0.1,0,0.2-0.1,0.2-0.2v-28.5
		c0-0.2,0.3-0.3,0.4-0.1l4.5,14.8l0.3,1c0,0.1,0.1,0.1,0.2,0.1h4.2c0.1,0,0.2-0.1,0.2-0.1l0.3-1l4.5-14.8c0.1-0.2,0.4-0.2,0.4,0.1
		v28.5c0,0.1,0.1,0.2,0.2,0.2h5.4c0.1,0,0.2-0.1,0.2-0.2v-37.5c0-0.1-0.1-0.2-0.2-0.2H213.1L213.1,182.1z"/>
	<path class="st0" d="M365.7,182.1c-0.1,0-0.2,0.1-0.2,0.1l-4.5,14.7c-0.1,0.2-0.3,0.2-0.4,0l-4.5-14.7c0-0.1-0.1-0.1-0.2-0.1h-8.3
		c-0.1,0-0.2,0.1-0.2,0.2v37.5c0,0.1,0.1,0.2,0.2,0.2h5.4c0.1,0,0.2-0.1,0.2-0.2v-28.5c0-0.2,0.3-0.3,0.4-0.1l4.5,14.8l0.3,1
		c0,0.1,0.1,0.1,0.2,0.1h4.2c0.1,0,0.2-0.1,0.2-0.1l0.3-1l4.5-14.8c0.1-0.2,0.4-0.2,0.4,0.1v28.5c0,0.1,0.1,0.2,0.2,0.2h5.4
		c0.1,0,0.2-0.1,0.2-0.2v-37.5c0-0.1-0.1-0.2-0.2-0.2H365.7L365.7,182.1z"/>
	<path class="st0" d="M295.7,182.1h-10.1h-5.4H270c-0.1,0-0.2,0.1-0.2,0.2v4.7c0,0.1,0.1,0.2,0.2,0.2h9.9v32.6
		c0,0.1,0.1,0.2,0.2,0.2h5.4c0.1,0,0.2-0.1,0.2-0.2v-32.6h9.9c0.1,0,0.2-0.1,0.2-0.2v-4.7C295.9,182.2,295.8,182.1,295.7,182.1z"/>
	<path class="st0" d="M327.7,220h4.9c0.1,0,0.2-0.1,0.2-0.3l-10.2-37.6c0-0.1-0.1-0.1-0.2-0.1h-1.9h-3.3h-1.9
		c-0.1,0-0.2,0.1-0.2,0.1l-10.2,37.6c0,0.1,0.1,0.3,0.2,0.3h4.9c0.1,0,0.2-0.1,0.2-0.1l3-11c0-0.1,0.1-0.1,0.2-0.1h10.9
		c0.1,0,0.2,0.1,0.2,0.1l3,11C327.5,219.9,327.6,220,327.7,220z M314.7,203.4l4-14.7c0.1-0.2,0.3-0.2,0.4,0l4,14.7
		c0,0.1-0.1,0.3-0.2,0.3h-7.9C314.8,203.7,314.7,203.5,314.7,203.4z"/>
	<path class="st0" d="M411.9,220h4.9c0.1,0,0.2-0.1,0.2-0.3l-10.2-37.6c0-0.1-0.1-0.1-0.2-0.1h-1.9h-3.3h-1.9
		c-0.1,0-0.2,0.1-0.2,0.1l-10.2,37.6c0,0.1,0.1,0.3,0.2,0.3h4.9c0.1,0,0.2-0.1,0.2-0.1l3-11c0-0.1,0.1-0.1,0.2-0.1h10.9
		c0.1,0,0.2,0.1,0.2,0.1l3,11C411.7,219.9,411.8,220,411.9,220z M398.9,203.4l4-14.7c0.1-0.2,0.3-0.2,0.4,0l4,14.7
		c0,0.1-0.1,0.3-0.2,0.3h-7.9C399,203.7,398.9,203.5,398.9,203.4z"/>
	<path class="st0" d="M238.5,214.4v-11.6c0-0.1,0.1-0.2,0.2-0.2h14.5c0.1,0,0.2-0.1,0.2-0.2v-4.7c0-0.1-0.1-0.2-0.2-0.2h-14.5
		c-0.1,0-0.2-0.1-0.2-0.2v-9.9c0-0.1,0.1-0.2,0.2-0.2h16.4c0.1,0,0.2-0.1,0.2-0.2v-4.7c0-0.1-0.1-0.2-0.2-0.2h-16.6h-5.6
		c-0.1,0-0.2,0.1-0.2,0.2v4.9v10.4v5.1v12v5.1c0,0.1,0.1,0.2,0.2,0.2h5.6h17.3c0.1,0,0.2-0.1,0.2-0.2v-4.9c0-0.1-0.1-0.2-0.2-0.2
		h-17.2C238.6,214.6,238.5,214.5,238.5,214.4z"/>
	<path class="st0" d="M498.4,219.6l-18.8-19.4c-0.1-0.1-0.1-0.2,0-0.3l16.9-17.6c0.1-0.1,0-0.3-0.1-0.3h-6.9c-0.1,0-0.1,0-0.1,0.1
		L475,197.1c-0.1,0.1-0.3,0-0.3-0.1v-14.6c0-0.1-0.1-0.2-0.2-0.2H469c-0.1,0-0.2,0.1-0.2,0.2v37.5c0,0.1,0.1,0.2,0.2,0.2h5.4
		c0.1,0,0.2-0.1,0.2-0.2v-16.5c0-0.2,0.2-0.3,0.3-0.1l16.2,16.8c0,0,0.1,0.1,0.1,0.1h6.9C498.4,220,498.5,219.7,498.4,219.6z"/>
</g>
<g>
	<polygon class="st1" points="152.8,161.9 120,186.3 126.1,171.9 	"/>
	<g>
		<polygon class="st2" points="77,161.9 109.6,186.5 103.8,171.9 		"/>
		<polygon class="st2" points="141,218.4 132.2,231.8 151,237 156.3,218.7 		"/>
		<polygon class="st2" points="73.6,218.7 78.9,237 97.6,231.8 88.9,218.4 		"/>
		<polygon class="st2" points="96.6,195.8 91.4,203.7 109.9,204.5 109.3,184.5 		"/>
		<polygon class="st2" points="133.3,195.8 120.4,184.3 120,204.5 138.5,203.7 		"/>
		<polygon class="st2" points="97.6,231.8 108.8,226.4 99.1,218.8 		"/>
		<polygon class="st2" points="121.1,226.4 132.2,231.8 130.7,218.8 		"/>
	</g>
	<g>
		<polygon class="st3" points="132.2,231.8 121.1,226.4 122,233.6 121.9,236.7 		"/>
		<polygon class="st3" points="97.6,231.8 108,236.7 107.9,233.6 108.8,226.4 		"/>
	</g>
	<polygon class="st4" points="108.2,214 98.9,211.3 105.4,208.3 	"/>
	<polygon class="st4" points="121.7,214 124.4,208.3 131,211.3 	"/>
	<g>
		<polygon class="st5" points="97.6,231.8 99.2,218.4 88.9,218.7 		"/>
		<polygon class="st5" points="130.7,218.4 132.2,231.8 141,218.7 		"/>
		<polygon class="st5" points="138.5,203.7 120,204.5 121.7,214 124.4,208.3 131,211.3 		"/>
		<polygon class="st5" points="98.9,211.3 105.4,208.3 108.2,214 109.9,204.5 91.4,203.7 		"/>
	</g>
	<g>
		<polygon class="st6" points="91.4,203.7 99.1,218.8 98.9,211.3 		"/>
		<polygon class="st6" points="131,211.3 130.7,218.8 138.5,203.7 		"/>
		<polygon class="st6" points="109.9,204.5 108.2,214 110.3,225.3 110.8,210.4 		"/>
		<polygon class="st6" points="120,204.5 119.1,210.4 119.5,225.3 121.7,214 		"/>
	</g>
	<polygon class="st7" points="121.7,214 119.5,225.3 121.1,226.4 130.7,218.8 131,211.3 	"/>
	<polygon class="st7" points="98.9,211.3 99.1,218.8 108.8,226.4 110.3,225.3 108.2,214 	"/>
	<polygon class="st8" points="121.9,236.7 122,233.6 121.1,232.9 108.7,232.9 107.9,233.6 108,236.7 97.6,231.8 101.2,234.8 
		108.6,239.9 121.2,239.9 128.6,234.8 132.2,231.8 	"/>
	<polygon class="st9" points="121.1,226.4 119.5,225.3 110.3,225.3 108.8,226.4 107.9,233.6 108.7,232.9 121.1,232.9 122,233.6 	"/>
	<g>
		<polygon class="st10" points="154.2,187.9 157,174.4 152.8,161.9 121.1,185.5 133.3,195.8 150.5,200.8 154.3,196.4 152.7,195.2 
			155.3,192.8 153.3,191.2 155.9,189.2 		"/>
		<polygon class="st10" points="72.9,174.4 75.7,187.9 73.9,189.2 76.5,191.2 74.5,192.8 77.2,195.2 75.5,196.4 79.3,200.8 
			96.6,195.8 108.8,185.5 77,161.9 		"/>
	</g>
	<polygon class="st7" points="150.5,200.8 133.3,195.8 138.5,203.7 130.7,218.8 141,218.7 156.3,218.7 	"/>
	<polygon class="st7" points="96.6,195.8 79.3,200.8 73.6,218.7 88.9,218.7 99.1,218.8 91.4,203.7 	"/>
	<polygon class="st7" points="120,204.5 121.1,185.5 126.1,171.9 103.8,171.9 108.8,185.5 109.9,204.5 110.3,210.5 110.3,225.3 
		119.5,225.3 119.5,210.5 	"/>
</g>
</svg>
