<svg enable-background="new 0 0 560 400" viewBox="0 0 560 400" xmlns="http://www.w3.org/2000/svg"><path d="m448.8 201.1c-2.2-1.5-4.6-2.5-7-3.8-1.5-.8-3.1-1.6-4.4-2.7-2.2-1.8-1.8-5.4.6-7 3.3-2.2 8.8-1 9.4 3.5 0 .1.1.2.2.2h5c.1 0 .2-.1.2-.2-.3-3.1-1.5-5.7-3.7-7.4-2.1-1.6-4.5-2.4-7.1-2.4-13.2 0-14.4 14-7.3 18.4.8.5 7.8 4 10.3 5.6 2.5 1.5 3.2 4.3 2.2 6.5-1 2-3.5 3.4-6 3.2-2.8-.2-4.9-1.7-5.7-4-.1-.4-.2-1.2-.2-1.6 0-.1-.1-.2-.2-.2h-5.4c-.1 0-.2.1-.2.2 0 3.9 1 6.1 3.6 8.1 2.5 1.9 5.2 2.7 8.1 2.7 7.4 0 11.2-4.2 12-8.5.6-4.2-.6-8-4.4-10.6z" fill="#161616"/><path d="m213.1 182.1h-2.4-2.6c-.1 0-.2.1-.2.1l-4.5 14.7c-.1.2-.3.2-.4 0l-4.5-14.7c0-.1-.1-.1-.2-.1h-2.6-2.4-3.2c-.1 0-.2.1-.2.2v37.5c0 .1.1.2.2.2h5.4c.1 0 .2-.1.2-.2v-28.5c0-.2.3-.3.4-.1l4.5 14.8.3 1c0 .1.1.1.2.1h4.2c.1 0 .2-.1.2-.1l.3-1 4.5-14.8c.1-.2.4-.2.4.1v28.5c0 .1.1.2.2.2h5.4c.1 0 .2-.1.2-.2v-37.5c0-.1-.1-.2-.2-.2z" fill="#161616"/><path d="m365.7 182.1c-.1 0-.2.1-.2.1l-4.5 14.7c-.1.2-.3.2-.4 0l-4.5-14.7c0-.1-.1-.1-.2-.1h-8.3c-.1 0-.2.1-.2.2v37.5c0 .1.1.2.2.2h5.4c.1 0 .2-.1.2-.2v-28.5c0-.2.3-.3.4-.1l4.5 14.8.3 1c0 .1.1.1.2.1h4.2c.1 0 .2-.1.2-.1l.3-1 4.5-14.8c.1-.2.4-.2.4.1v28.5c0 .1.1.2.2.2h5.4c.1 0 .2-.1.2-.2v-37.5c0-.1-.1-.2-.2-.2z" fill="#161616"/><path d="m295.7 182.1h-10.1-5.4-10.2c-.1 0-.2.1-.2.2v4.7c0 .1.1.2.2.2h9.9v32.6c0 .1.1.2.2.2h5.4c.1 0 .2-.1.2-.2v-32.6h9.9c.1 0 .2-.1.2-.2v-4.7c.1-.1 0-.2-.1-.2z" fill="#161616"/><path d="m327.7 220h4.9c.1 0 .2-.1.2-.3l-10.2-37.6c0-.1-.1-.1-.2-.1h-1.9-3.3-1.9c-.1 0-.2.1-.2.1l-10.2 37.6c0 .1.1.3.2.3h4.9c.1 0 .2-.1.2-.1l3-11c0-.1.1-.1.2-.1h10.9c.1 0 .2.1.2.1l3 11s.1.1.2.1zm-13-16.6 4-14.7c.1-.2.3-.2.4 0l4 14.7c0 .1-.1.3-.2.3h-7.9c-.2 0-.3-.2-.3-.3z" fill="#161616"/><path d="m411.9 220h4.9c.1 0 .2-.1.2-.3l-10.2-37.6c0-.1-.1-.1-.2-.1h-1.9-3.3-1.9c-.1 0-.2.1-.2.1l-10.2 37.6c0 .1.1.3.2.3h4.9c.1 0 .2-.1.2-.1l3-11c0-.1.1-.1.2-.1h10.9c.1 0 .2.1.2.1l3 11s.1.1.2.1zm-13-16.6 4-14.7c.1-.2.3-.2.4 0l4 14.7c0 .1-.1.3-.2.3h-7.9c-.2 0-.3-.2-.3-.3z" fill="#161616"/><path d="m238.5 214.4v-11.6c0-.1.1-.2.2-.2h14.5c.1 0 .2-.1.2-.2v-4.7c0-.1-.1-.2-.2-.2h-14.5c-.1 0-.2-.1-.2-.2v-9.9c0-.1.1-.2.2-.2h16.4c.1 0 .2-.1.2-.2v-4.7c0-.1-.1-.2-.2-.2h-16.6-5.6c-.1 0-.2.1-.2.2v4.9 10.4 5.1 12 5.1c0 .1.1.2.2.2h5.6 17.3c.1 0 .2-.1.2-.2v-4.9c0-.1-.1-.2-.2-.2h-17.2c0-.1-.1-.2-.1-.3z" fill="#161616"/><path d="m498.4 219.6-18.8-19.4c-.1-.1-.1-.2 0-.3l16.9-17.6c.1-.1 0-.3-.1-.3h-6.9c-.1 0-.1 0-.1.1l-14.4 15c-.1.1-.3 0-.3-.1v-14.6c0-.1-.1-.2-.2-.2h-5.5c-.1 0-.2.1-.2.2v37.5c0 .1.1.2.2.2h5.4c.1 0 .2-.1.2-.2v-16.5c0-.2.2-.3.3-.1l16.2 16.8s.1.1.1.1h6.9c.3-.2.4-.5.3-.6z" fill="#161616"/><g stroke-linecap="round" stroke-linejoin="round"><path d="m152.8 161.9-32.8 24.4 6.1-14.4z" fill="#e17726" stroke="#e17726"/><path d="m77 161.9 32.6 24.6-5.8-14.6z" fill="#e27625" stroke="#e27625"/><path d="m141 218.4-8.8 13.4 18.8 5.2 5.3-18.3z" fill="#e27625" stroke="#e27625"/><path d="m73.6 218.7 5.3 18.3 18.7-5.2-8.7-13.4z" fill="#e27625" stroke="#e27625"/><path d="m96.6 195.8-5.2 7.9 18.5.8-.6-20z" fill="#e27625" stroke="#e27625"/><path d="m133.3 195.8-12.9-11.5-.4 20.2 18.5-.8z" fill="#e27625" stroke="#e27625"/><path d="m97.6 231.8 11.2-5.4-9.7-7.6z" fill="#e27625" stroke="#e27625"/><path d="m121.1 226.4 11.1 5.4-1.5-13z" fill="#e27625" stroke="#e27625"/><path d="m132.2 231.8-11.1-5.4.9 7.2-.1 3.1z" fill="#d5bfb2" stroke="#d5bfb2"/><path d="m97.6 231.8 10.4 4.9-.1-3.1.9-7.2z" fill="#d5bfb2" stroke="#d5bfb2"/><path d="m108.2 214-9.3-2.7 6.5-3z" fill="#233447" stroke="#233447"/><path d="m121.7 214 2.7-5.7 6.6 3z" fill="#233447" stroke="#233447"/><path d="m97.6 231.8 1.6-13.4-10.3.3z" fill="#cc6228" stroke="#cc6228"/><path d="m130.7 218.4 1.5 13.4 8.8-13.1z" fill="#cc6228" stroke="#cc6228"/><path d="m138.5 203.7-18.5.8 1.7 9.5 2.7-5.7 6.6 3z" fill="#cc6228" stroke="#cc6228"/><path d="m98.9 211.3 6.5-3 2.8 5.7 1.7-9.5-18.5-.8z" fill="#cc6228" stroke="#cc6228"/><path d="m91.4 203.7 7.7 15.1-.2-7.5z" fill="#e27525" stroke="#e27525"/><path d="m131 211.3-.3 7.5 7.8-15.1z" fill="#e27525" stroke="#e27525"/><path d="m109.9 204.5-1.7 9.5 2.1 11.3.5-14.9z" fill="#e27525" stroke="#e27525"/><path d="m120 204.5-.9 5.9.4 14.9 2.2-11.3z" fill="#e27525" stroke="#e27525"/><path d="m121.7 214-2.2 11.3 1.6 1.1 9.6-7.6.3-7.5z" fill="#f5841f" stroke="#f5841f"/><path d="m98.9 211.3.2 7.5 9.7 7.6 1.5-1.1-2.1-11.3z" fill="#f5841f" stroke="#f5841f"/><path d="m121.9 236.7.1-3.1-.9-.7h-12.4l-.8.7.1 3.1-10.4-4.9 3.6 3 7.4 5.1h12.6l7.4-5.1 3.6-3z" fill="#c0ac9d" stroke="#c0ac9d"/><path d="m121.1 226.4-1.6-1.1h-9.2l-1.5 1.1-.9 7.2.8-.7h12.4l.9.7z" fill="#161616" stroke="#161616"/><path d="m154.2 187.9 2.8-13.5-4.2-12.5-31.7 23.6 12.2 10.3 17.2 5 3.8-4.4-1.6-1.2 2.6-2.4-2-1.6 2.6-2z" fill="#763e1a" stroke="#763e1a"/><path d="m72.9 174.4 2.8 13.5-1.8 1.3 2.6 2-2 1.6 2.7 2.4-1.7 1.2 3.8 4.4 17.3-5 12.2-10.3-31.8-23.6z" fill="#763e1a" stroke="#763e1a"/><path d="m150.5 200.8-17.2-5 5.2 7.9-7.8 15.1 10.3-.1h15.3z" fill="#f5841f" stroke="#f5841f"/><path d="m96.6 195.8-17.3 5-5.7 17.9h15.3l10.2.1-7.7-15.1z" fill="#f5841f" stroke="#f5841f"/><path d="m120 204.5 1.1-19 5-13.6h-22.3l5 13.6 1.1 19 .4 6v14.8h9.2v-14.8z" fill="#f5841f" stroke="#f5841f"/></g></svg>