<svg width="20" height="25" fill="none" xmlns="http://www.w3.org/2000/svg"><path d="M4.657 9.947H0v14.391h4.656V9.947Z" fill="#00C8A0"/><path fill-rule="evenodd" clip-rule="evenodd" d="M15.293 9.947c0-2.921-2.393-5.29-5.346-5.29V0C15.5 0 20 4.453 20 9.947c0 5.517-4.444 9.996-9.947 10.052h-.106C4.478 19.943.056 15.52.001 10.05H0a10.253 10.253 0 0 1 0-.103 10.02 10.02 0 0 1 2.885-6.945l3.576 3.09a5.332 5.332 0 0 0-1.753 3.906A5.345 5.345 0 0 0 10 15.292a5.346 5.346 0 0 0 5.293-5.345Z" fill="#00E3B4"/></svg>