<svg width="16" height="16" fill="none" xmlns="http://www.w3.org/2000/svg"><path d="M4.79392 6.96817H2.00031V15.603h2.79361V6.96817Z" fill="#00C8A0"/><path fill-rule="evenodd" clip-rule="evenodd" d="M11.1756 6.96818c0-1.75269-1.43592-3.17353-3.20727-3.17353V2.39733L7.96832 1C11.2995 1 14 3.67205 14 6.96818c0 3.31012-2.6663 5.99732-5.96832 6.03132v.0004c-.01057 0-.02112-.0001-.03168-.0001-.00701 0-.01403.0001-.02104.0001h-.01063v-.0004c-3.28138-.0337-5.93497-2.6878-5.96802-5.96931H2a6.4955 6.4955 0 0 1 .00008-.03123A6.30957 6.30957 0 0 1 2 6.96818h.00031c.01635-1.62288.67362-3.09229 1.73078-4.16719L5.8767 4.65468c-.63929.58029-1.04334 1.41508-1.05217 2.34438C4.841 8.74565 6.25353 10.1585 8 10.1753c1.75673-.017 3.1756-1.44637 3.1756-3.20712Z" fill="#00E3B4"/></svg>