<svg width="16" height="18" viewBox="0 0 16 18" fill="none" xmlns="http://www.w3.org/2000/svg">
<path d="M4.95983 15.8656C5.66073 16.7566 6.76182 17.3307 8 17.3307C9.23819 17.3307 10.3393 16.7566 11.0402 15.8656C9.02203 16.139 6.97798 16.139 4.95983 15.8656Z" fill="currentColor"/>
<path d="M13.6243 6.49739V7.08415C13.6243 7.7883 13.8252 8.47671 14.2018 9.0626L15.1247 10.4984C15.9676 11.8098 15.3241 13.5923 13.858 14.007C10.0227 15.0919 5.97728 15.0919 2.14197 14.007C0.675872 13.5923 0.0323529 11.8098 0.875299 10.4984L1.79816 9.0626C2.17476 8.47671 2.37573 7.7883 2.37573 7.08415V6.49739C2.37573 3.27573 4.8938 0.664062 8 0.664062C11.1062 0.664062 13.6243 3.27573 13.6243 6.49739Z" fill="currentColor"/>
</svg>
