<svg width="35" height="9" fill="none" xmlns="http://www.w3.org/2000/svg"><path fill-rule="evenodd" clip-rule="evenodd" d="M6.486 4.684a2.495 2.495 0 0 1-.696.098c-1.4 0-2.535-1.156-2.535-2.582 0-.254.036-.5.103-.732H.731A.738.738 0 0 0 0 2.212v5.116c0 .41.327.744.731.744h5.024a.738.738 0 0 0 .73-.744V4.684Z" fill="#F5F6FB"/><path d="M7.927 1.835c0 1.013-.806 1.834-1.801 1.834-.995 0-1.802-.821-1.802-1.834C4.324.82 5.131 0 6.126 0s1.801.821 1.801 1.835Z" fill="url(#a)"/><path d="M15.616 5.232v2.785h1.136V5.232c0-1.712-.872-2.832-2.253-2.832-.673 0-1.273.407-1.473.972v-.907h-1.135v5.552h1.136V5.24c0-.98.536-1.684 1.272-1.684.8 0 1.317.657 1.317 1.675ZM17.511 5.232c0 1.61 1.172 2.84 2.681 2.84 1.508 0 2.672-1.23 2.672-2.84 0-1.601-1.164-2.832-2.672-2.832-1.509 0-2.68 1.23-2.68 2.832Zm2.681-1.675c.872 0 1.536.722 1.536 1.675 0 .962-.664 1.684-1.536 1.684s-1.545-.722-1.545-1.684c0-.953.673-1.675 1.545-1.675ZM24.476 1.29l-.273 1.175h-.809v1.092h.81V6.11c0 1.36.544 1.906 1.844 1.906h.472V6.87h-.363c-.564 0-.818-.25-.818-.824v-2.49h1.181V2.466H25.34V1.29h-.863ZM28.446 8.017V2.465H27.31v5.552h1.136ZM34.265 8.017V2.465H31.14v-.407c0-.574.255-.833.818-.833h.364V.087h-.473c-1.3 0-1.845.537-1.845 1.906v.472h-.8v1.092h.8v4.46h1.136v-4.46h1.99v4.46h1.136Z" fill="#F5F6FB"/><path fill-rule="evenodd" clip-rule="evenodd" d="M27.747 0c-.321 0-.437.18-.437.435v.927h.89c.31 0 .448-.11.448-.421V.435c0-.291-.189-.435-.479-.435h-.422Z" fill="#F5F6FB"/><defs><linearGradient id="a" x1="7.214" y1=".286" x2="5.432" y2="3.643" gradientUnits="userSpaceOnUse"><stop stop-color="#FE7970"/><stop offset="1" stop-color="#FEB776"/></linearGradient></defs></svg>