<svg width="20" height="20" viewBox="0 0 20 20" fill="none" xmlns="http://www.w3.org/2000/svg">
    <g id="one-click-trading">
        <path fill-rule="evenodd" clip-rule="evenodd" d="M16.2853 4.13058C16.3449 3.86241 16.2147 3.58802 15.9693 3.4645C15.724 3.34097 15.426 3.39987 15.2461 3.60746L8.7462 11.1075C8.59235 11.285 8.55625 11.536 8.65382 11.7496C8.7514 11.9633 8.9647 12.1004 9.19961 12.1004H11.9516L11.1138 15.8703C11.0542 16.1384 11.1844 16.4128 11.4298 16.5363C11.6751 16.6599 11.973 16.601 12.153 16.3934L18.6529 8.89338C18.8068 8.71586 18.8429 8.46488 18.7453 8.2512C18.6477 8.03751 18.4344 7.90042 18.1995 7.90042H15.4475L16.2853 4.13058ZM12.6995 10.9004H10.5136L14.5992 6.18622L14.1138 8.37026C14.0744 8.54792 14.1176 8.7339 14.2315 8.87586C14.3454 9.01782 14.5176 9.10042 14.6995 9.10042H16.8855L12.7999 13.8146L13.2853 11.6306C13.3247 11.4529 13.2814 11.2669 13.1676 11.125C13.0537 10.983 12.8815 10.9004 12.6995 10.9004ZM3.6 6.30039C3.26863 6.30039 3 6.56902 3 6.90039C3 7.23176 3.26863 7.50039 3.6 7.50039H9.6C9.93137 7.50039 10.2 7.23176 10.2 6.90039C10.2 6.56902 9.93137 6.30039 9.6 6.30039H3.6ZM0.6 9.80039C0.268629 9.80039 0 10.069 0 10.4004C0 10.7318 0.268629 11.0004 0.6 11.0004H6.1C6.43137 11.0004 6.7 10.7318 6.7 10.4004C6.7 10.069 6.43137 9.80039 6.1 9.80039H0.6ZM3.1 13.3004C2.76863 13.3004 2.5 13.569 2.5 13.9004C2.5 14.2318 2.76863 14.5004 3.1 14.5004H7.1C7.43137 14.5004 7.7 14.2318 7.7 13.9004C7.7 13.569 7.43137 13.3004 7.1 13.3004L3.1 13.3004Z" fill="#a0a3c4"/>
    </g>
</svg>
