<svg height="310" width="310" xmlns="http://www.w3.org/2000/svg" xmlns:xlink="http://www.w3.org/1999/xlink"><filter id="a"><feOffset/><feGaussianBlur result="blur" stdDeviation="3"/><feFlood flood-opacity=".212" result="color"/><feComposite in="SourceGraphic" in2="blur" operator="out"/><feComposite in="color" operator="in"/><feComposite in2="SourceGraphic" operator="in"/></filter><filter id="b"><feOffset/><feGaussianBlur result="blur-2" stdDeviation="3"/><feFlood flood-opacity=".212" result="color-2"/><feComposite in="SourceGraphic" in2="blur-2" operator="out"/><feComposite in="color-2" operator="in"/><feComposite in2="SourceGraphic" operator="in"/></filter><filter id="c"><feOffset/><feGaussianBlur result="blur-3" stdDeviation="3"/><feFlood flood-opacity=".212" result="color-3"/><feComposite in="SourceGraphic" in2="blur-3" operator="out"/><feComposite in="color-3" operator="in"/><feComposite in2="SourceGraphic" operator="in"/></filter><g fill="none" stroke-width="2"><g opacity=".02" stroke="#4d0cec"><circle cx="155" cy="155" r="91" stroke="none"/><circle cx="155" cy="155" r="90"/></g><g opacity=".05" stroke="#804cff"><circle cx="155" cy="155" r="100" stroke="none"/><circle cx="155" cy="155" r="99"/></g><g opacity=".08" stroke="#7750fe"><circle cx="155" cy="155" r="110" stroke="none"/><circle cx="155" cy="155" r="109"/></g><g opacity=".19" stroke="#845ced"><circle cx="155" cy="155" r="123" stroke="none"/><circle cx="155" cy="155" r="122"/></g><g opacity=".11" stroke="#6c30ff"><circle cx="155" cy="155" r="139" stroke="none"/><circle cx="155" cy="155" r="138"/></g><g opacity=".04" stroke="#824eff"><circle cx="155" cy="155" r="155" stroke="none"/><circle cx="155" cy="155" r="154"/></g></g><path d="m177.1 169.033-9.8-4.886a60.887 60.887 0 0 0 .851-9.24 60.887 60.887 0 0 0 -.851-9.24l9.8-4.889a6.956 6.956 0 0 0 2.91-8.469c-2.59-7.042-7.537-13.5-12.252-19.149a7.909 7.909 0 0 0 -5.328-2.48 8.221 8.221 0 0 0 -3.49.937l-8.464 4.89a60.373 60.373 0 0 0 -15.976-9.225v-9.782a7.235 7.235 0 0 0 -5.82-6.868 79.974 79.974 0 0 0 -10.972-.913 79.987 79.987 0 0 0 -11.145.942 7.192 7.192 0 0 0 -5.707 6.823v9.823a59.692 59.692 0 0 0 -15.977 9.225l-8.468-4.892a8.216 8.216 0 0 0 -3.491-.939 7.9 7.9 0 0 0 -5.327 2.481c-4.715 5.646-9.691 12.106-12.281 19.149a8.293 8.293 0 0 0 -.435 2.418 7.667 7.667 0 0 0 3.491 6.021l9.691 4.918a60.734 60.734 0 0 0 -.851 9.225 60.734 60.734 0 0 0 .851 9.225l-9.691 4.889a7.771 7.771 0 0 0 -3.48 6.064 8.394 8.394 0 0 0 .425 2.4c2.59 7.014 7.566 13.474 12.281 19.12a7.908 7.908 0 0 0 5.328 2.48 8.221 8.221 0 0 0 3.49-.938l8.468-4.86a60.366 60.366 0 0 0 15.975 9.235v9.779a7.235 7.235 0 0 0 5.82 6.868 78.856 78.856 0 0 0 11.044.939 78.86 78.86 0 0 0 11.044-.939 7.225 7.225 0 0 0 5.737-6.855v-9.792a59.694 59.694 0 0 0 15.974-9.228l8.468 4.889a8.216 8.216 0 0 0 3.491.939 7.9 7.9 0 0 0 5.327-2.478c4.714-5.65 9.807-12.106 12.397-19.15a8.344 8.344 0 0 0 .433-2.422 7.723 7.723 0 0 0 -3.49-6.045zm-44.031 1.251c-22.408 17.228-47.989-8.352-30.76-30.76 22.41-17.224 47.991 8.352 30.765 30.76z" fill="#4d0cec"/><path d="m240.662 106.263a3.717 3.717 0 0 0 -3.542-3h-4.81a30 30 0 0 0 -4.627-7.974l2.386-4.162a4.269 4.269 0 0 0 .479-1.8 4.1 4.1 0 0 0 -1.294-2.771 38.476 38.476 0 0 0 -9.341-5.413 4.3 4.3 0 0 0 -1.279-.235 3.976 3.976 0 0 0 -3.118 1.8l-2.386 4.161a31.125 31.125 0 0 0 -4.612-.415 31.132 31.132 0 0 0 -4.613.415l-2.386-4.161a3.976 3.976 0 0 0 -3.119-1.805 4.3 4.3 0 0 0 -1.275.234 38.959 38.959 0 0 0 -9.341 5.413 4.059 4.059 0 0 0 -1.3 2.763 4.224 4.224 0 0 0 .489 1.806l2.386 4.161a30.005 30.005 0 0 0 -4.627 7.974h-4.8a3.746 3.746 0 0 0 -3.55 3.027 39.511 39.511 0 0 0 -.448 5.4 39.518 39.518 0 0 0 .448 5.4 3.717 3.717 0 0 0 3.542 3h4.811a30 30 0 0 0 4.627 7.974l-2.386 4.161a4.266 4.266 0 0 0 -.479 1.8 4.1 4.1 0 0 0 1.294 2.771 38.484 38.484 0 0 0 9.332 5.413 4.3 4.3 0 0 0 1.275.234 3.976 3.976 0 0 0 3.119-1.805l2.383-4.161a31.134 31.134 0 0 0 4.613.415 31.127 31.127 0 0 0 4.612-.415l2.386 4.162a3.976 3.976 0 0 0 3.119 1.805 4.3 4.3 0 0 0 1.28-.235 38.946 38.946 0 0 0 9.342-5.413 4.06 4.06 0 0 0 1.3-2.763 4.224 4.224 0 0 0 -.489-1.806l-2.383-4.16a30.01 30.01 0 0 0 4.627-7.974h4.8a3.746 3.746 0 0 0 3.55-3.026 39.509 39.509 0 0 0 .449-5.407 39.526 39.526 0 0 0 -.446-5.39zm-39.811 13.1c-8.614-11.2 4.161-24.009 15.366-15.366 8.611 11.2-4.161 23.977-15.366 15.363z" fill="#1494d3"/><path d="m240.662 193.248a3.717 3.717 0 0 0 -3.542-3h-4.81a29.994 29.994 0 0 0 -4.627-7.974l2.384-4.161a4.269 4.269 0 0 0 .479-1.8 4.1 4.1 0 0 0 -1.294-2.771 38.48 38.48 0 0 0 -9.342-5.413 4.3 4.3 0 0 0 -1.275-.234 3.976 3.976 0 0 0 -3.119 1.805l-2.386 4.162a31.126 31.126 0 0 0 -4.612-.415 31.133 31.133 0 0 0 -4.613.415l-2.387-4.162a3.976 3.976 0 0 0 -3.118-1.8 4.3 4.3 0 0 0 -1.275.234 38.949 38.949 0 0 0 -9.341 5.413 4.059 4.059 0 0 0 -1.3 2.763 4.224 4.224 0 0 0 .489 1.806l2.386 4.161a30 30 0 0 0 -4.627 7.974h-4.8a3.746 3.746 0 0 0 -3.55 3.026 39.519 39.519 0 0 0 -.448 5.4 39.518 39.518 0 0 0 .448 5.4 3.717 3.717 0 0 0 3.542 3h4.811a30.005 30.005 0 0 0 4.627 7.974l-2.395 4.156a4.266 4.266 0 0 0 -.479 1.8 4.1 4.1 0 0 0 1.294 2.771 38.484 38.484 0 0 0 9.341 5.413 4.3 4.3 0 0 0 1.275.234 3.976 3.976 0 0 0 3.119-1.805l2.383-4.165a31.133 31.133 0 0 0 4.613.415 31.126 31.126 0 0 0 4.612-.415l2.386 4.161a3.975 3.975 0 0 0 3.119 1.805 4.3 4.3 0 0 0 1.275-.234 38.955 38.955 0 0 0 9.342-5.413 4.06 4.06 0 0 0 1.3-2.763 4.224 4.224 0 0 0 -.489-1.806l-2.378-4.16a30.014 30.014 0 0 0 4.627-7.974h4.8a3.746 3.746 0 0 0 3.55-3.027 39.5 39.5 0 0 0 .449-5.407 39.518 39.518 0 0 0 -.444-5.389zm-39.811 13.067c-8.614-11.2 4.161-23.98 15.366-15.366 8.611 11.201-4.161 23.977-15.366 15.363z" fill="#3568f9"/><path d="m118 187.999a32.9 32.9 0 1 1 12.845-2.593 32.8 32.8 0 0 1 -12.845 2.593zm0-53a20 20 0 1 0 20 20 20.022 20.022 0 0 0 -20-19.998z" fill="#8d67f4"/><g filter="url(#a)" transform="translate(.003 .005)"><path d="m117.997 187.994a32.9 32.9 0 1 1 12.845-2.593 32.8 32.8 0 0 1 -12.845 2.593zm0-53a20 20 0 1 0 20 20 20.022 20.022 0 0 0 -20-19.998z" fill="#fff"/></g><path d="m208 128.999a17 17 0 1 1 12.02-4.979 16.888 16.888 0 0 1 -12.02 4.979zm0-27a10 10 0 1 0 10 10 10.012 10.012 0 0 0 -10-9.999z" fill="#85caf8"/><g filter="url(#b)" transform="translate(.003 .005)"><path d="m207.997 128.994a17 17 0 1 1 12.02-4.979 16.888 16.888 0 0 1 -12.02 4.979zm0-27a10 10 0 1 0 10 10 10.012 10.012 0 0 0 -10-9.999z" fill="#fff"/></g><path d="m208 215.999a17 17 0 1 1 12.02-4.979 16.888 16.888 0 0 1 -12.02 4.979zm0-26a9 9 0 1 0 9 9 9.01 9.01 0 0 0 -9-8.999z" fill="#769aff"/><g filter="url(#c)" transform="translate(.003 .005)"><path d="m207.997 215.994a17 17 0 1 1 12.02-4.979 16.888 16.888 0 0 1 -12.02 4.979zm0-26a9 9 0 1 0 9 9 9.01 9.01 0 0 0 -9-8.999z" fill="#fff"/></g></svg>