<svg width="81" height="80" viewBox="0 0 81 80" fill="none" xmlns="http://www.w3.org/2000/svg">
<path d="M77.4168 39.9987C77.4168 60.2491 61.0006 76.6654 40.7502 76.6654C20.4997 76.6654 4.0835 60.2491 4.0835 39.9987C4.0835 19.7483 20.4997 3.33203 40.7502 3.33203C61.0006 3.33203 77.4168 19.7483 77.4168 39.9987Z" fill="#7A8292"/>
<path fill-rule="evenodd" clip-rule="evenodd" d="M40.7506 74.6654C59.8965 74.6654 75.4173 59.1446 75.4173 39.9987C75.4173 20.8528 59.8965 5.33203 40.7506 5.33203C21.6048 5.33203 6.08398 20.8528 6.08398 39.9987C6.08398 59.1446 21.6048 74.6654 40.7506 74.6654ZM70.084 39.9987C70.084 56.199 56.951 69.332 40.7506 69.332C24.5503 69.332 11.4173 56.199 11.4173 39.9987C11.4173 23.7983 24.5503 10.6654 40.7506 10.6654C56.951 10.6654 70.084 23.7983 70.084 39.9987ZM58.1585 21.0175C58.9775 21.5786 59.581 22.7059 59.675 24.0477C59.7689 25.3894 59.3296 26.605 58.5985 27.2974C57.7796 26.7363 57.1761 25.609 57.0821 24.2672C56.9881 22.9255 57.4275 21.7099 58.1585 21.0175ZM62.9664 26.731C63.5855 27.507 63.833 28.7615 63.5306 30.0722C63.2281 31.3827 62.4526 32.4167 61.551 32.8651C60.9319 32.0891 60.6844 30.8346 60.9868 29.524C61.2892 28.2135 62.0648 27.1794 62.9664 26.731ZM65.9274 33.6959C66.2877 34.621 66.151 35.8924 65.4724 37.0537C64.794 38.215 63.746 38.9716 62.7518 39.1316C62.3915 38.2066 62.5283 36.9352 63.2068 35.7738C63.8853 34.6126 64.9332 33.856 65.9274 33.6959ZM58.5788 43.3675C57.8913 42.2113 57.7448 40.941 58.098 40.0132C59.0934 40.1657 60.1471 40.9142 60.8345 42.0702C61.5219 43.2264 61.6684 44.4966 61.3152 45.4244C60.3199 45.272 59.2661 44.5235 58.5788 43.3675ZM66.6878 41.2737C66.7583 42.264 66.2515 43.438 65.2597 44.3466C64.268 45.2551 63.0431 45.6678 62.0461 45.5265C61.9756 44.5363 62.4824 43.3623 63.4742 42.4537C64.4659 41.5451 65.6908 41.1325 66.6878 41.2737ZM56.8261 48.2821C56.5139 46.9738 56.7521 45.7175 57.3655 44.9368C58.2704 45.3786 59.0536 46.4068 59.3657 47.715C59.6779 49.0234 59.4397 50.2797 58.8263 51.0603C57.9215 50.6186 57.1382 49.5903 56.8261 48.2821ZM65.1886 48.6953C64.9612 49.6617 64.128 50.6316 62.9107 51.2039C61.6936 51.7761 60.4014 51.8054 59.4916 51.3739C59.719 50.4075 60.5523 49.4376 61.7695 48.8653C62.9867 48.2931 64.2789 48.2637 65.1886 48.6953ZM53.7129 52.4294C53.7971 51.087 54.3924 49.9553 55.2072 49.3882C55.9433 50.0754 56.3915 51.2877 56.3073 52.63C56.223 53.9725 55.6277 55.1041 54.8129 55.6712C54.0768 54.9841 53.6286 53.7717 53.7129 52.4294ZM49.5009 55.5052C49.9769 54.2472 50.8793 53.3412 51.8251 53.0395C52.326 53.9131 52.397 55.2037 51.9209 56.4615C51.4448 57.7195 50.5424 58.6255 49.5967 58.9272C49.0958 58.0537 49.0248 56.7631 49.5009 55.5052ZM52.893 61.3499C54.2216 61.5596 55.4557 61.2247 56.1864 60.5526C55.6757 59.6848 54.5898 58.9837 53.2613 58.774C51.9327 58.5643 50.6987 58.8992 49.968 59.5713C50.4786 60.4391 51.5645 61.1402 52.893 61.3499ZM61.5863 55.2888C61.0861 56.1464 60.0056 56.8301 58.6742 57.0213C57.3429 57.2124 56.0986 56.8625 55.3549 56.1836C55.8551 55.3261 56.9356 54.6423 58.267 54.4512C59.5983 54.2601 60.8426 54.61 61.5863 55.2888ZM58.8007 38.0878C57.8019 37.1868 57.2862 36.0167 57.349 35.026C58.3449 34.8771 59.573 35.2803 60.5716 36.1812C61.5703 37.0822 62.0861 38.2523 62.0232 39.243C61.0273 39.3919 59.7993 38.9887 58.8007 38.0878ZM57.4682 33.0451C56.2467 32.4819 55.4063 31.5182 55.1717 30.5536C56.0782 30.1152 57.3706 30.135 58.592 30.6982C59.8135 31.2614 60.6539 32.2251 60.8885 33.1897C59.982 33.6281 58.6896 33.6083 57.4682 33.0451ZM54.7458 28.6733C53.4131 28.4919 52.3276 27.816 51.8212 26.9621C52.56 26.2779 53.8017 25.9189 55.1343 26.1004C56.4671 26.2818 57.5526 26.9577 58.0589 27.8116C57.3202 28.4958 56.0785 28.8548 54.7458 28.6733ZM51.4301 23.8516C50.2278 23.2485 49.4195 22.2577 49.2168 21.2859C50.1373 20.8776 51.4283 20.9399 52.6305 21.5429C53.8328 22.146 54.641 23.1369 54.8438 24.1087C53.9233 24.517 52.6322 24.4547 51.4301 23.8516ZM23.3429 21.2801C22.5239 21.8412 21.9204 22.9685 21.8264 24.3103C21.7325 25.652 22.1718 26.8675 22.9029 27.56C23.7218 26.9989 24.3253 25.8716 24.4193 24.5298C24.5133 23.1881 24.0739 21.9725 23.3429 21.2801ZM18.5343 26.9827C17.9152 27.7587 17.6677 29.0133 17.9701 30.3239C18.2726 31.6344 19.0481 32.6684 19.9497 33.1169C20.5688 32.3408 20.8163 31.0863 20.5139 29.7757C20.2115 28.4652 19.4359 27.4312 18.5343 26.9827ZM15.5741 33.9347C15.2137 34.8597 15.3505 36.1311 16.029 37.2924C16.7075 38.4537 17.7555 39.2103 18.7496 39.3704C19.11 38.4453 18.9732 37.1739 18.2947 36.0126C17.6162 34.8513 16.5682 34.0947 15.5741 33.9347ZM22.9227 43.617C23.6101 42.4609 23.7566 41.1906 23.4034 40.2628C22.4081 40.4152 21.3543 41.1638 20.667 42.3198C19.9795 43.4759 19.833 44.7462 20.1863 45.674C21.1816 45.5216 22.2354 44.7731 22.9227 43.617ZM14.8137 41.5233C14.7432 42.5136 15.25 43.6875 16.2418 44.5962C17.2335 45.5047 18.4584 45.9173 19.4554 45.7761C19.5258 44.7858 19.019 43.6118 18.0273 42.7032C17.0356 41.7947 15.8107 41.382 14.8137 41.5233ZM24.6756 48.5202C24.9878 47.2119 24.7496 45.9556 24.1362 45.175C23.2314 45.6167 22.4481 46.645 22.136 47.9532C21.8238 49.2615 22.062 50.5178 22.6754 51.2984C23.5803 50.8567 24.3635 49.8285 24.6756 48.5202ZM16.3131 48.9335C16.5405 49.8998 17.3737 50.8697 18.591 51.442C19.8081 52.0142 21.1004 52.0436 22.0101 51.612C21.7827 50.6456 20.9494 49.6757 19.7322 49.1034C18.515 48.5312 17.2228 48.5019 16.3131 48.9335ZM27.7887 52.6815C27.7045 51.3391 27.1092 50.2074 26.2944 49.6403C25.5583 50.3275 25.1101 51.5398 25.1943 52.8821C25.2785 54.2246 25.8738 55.3563 26.6887 55.9233C27.4248 55.2362 27.8729 54.0238 27.7887 52.6815ZM32.0007 55.7783C31.5246 54.5203 30.6222 53.6143 29.6764 53.3126C29.1755 54.1862 29.1046 55.4768 29.5806 56.7346C30.0567 57.9926 30.9591 58.8986 31.9049 59.2003C32.4058 58.3268 32.4767 57.0362 32.0007 55.7783ZM28.6085 61.623C27.2799 61.8327 26.0458 61.4978 25.3152 60.8257C25.8258 59.9578 26.9117 59.2568 28.2402 59.0471C29.5688 58.8373 30.8029 59.1723 31.5335 59.8443C31.0229 60.7122 29.937 61.4133 28.6085 61.623ZM19.9145 55.541C20.4147 56.3985 21.4952 57.0823 22.8266 57.2734C24.1579 57.4645 25.4022 57.1146 26.1459 56.4358C25.6458 55.5782 24.5652 54.8945 23.2338 54.7033C21.9025 54.5122 20.6583 54.8621 19.9145 55.541ZM22.7008 38.3265C23.6995 37.4255 24.2153 36.2555 24.1524 35.2647C23.1565 35.1158 21.9285 35.519 20.9299 36.4199C19.9312 37.3209 19.4154 38.491 19.4783 39.4817C20.4741 39.6306 21.7022 39.2274 22.7008 38.3265ZM24.0325 33.2969C25.254 32.7337 26.0944 31.7699 26.329 30.8053C25.4225 30.367 24.1301 30.3867 22.9087 30.9499C21.6872 31.5131 20.8468 32.4768 20.6122 33.4415C21.5188 33.8798 22.8112 33.86 24.0325 33.2969ZM26.7556 28.9359C28.0883 28.7545 29.1738 28.0786 29.6802 27.2247C28.9414 26.5405 27.6997 26.1815 26.3671 26.3629C25.0343 26.5444 23.9488 27.2203 23.4424 28.0742C24.1812 28.7584 25.4229 29.1174 26.7556 28.9359ZM30.0721 24.1251C31.2743 23.522 32.0826 22.5311 32.2853 21.5593C31.3649 21.151 30.0738 21.2133 28.8716 21.8164C27.6694 22.4195 26.8611 23.4103 26.6584 24.3822C27.5789 24.7904 28.8699 24.7281 30.0721 24.1251ZM33.1169 47.7916V49.9888H48.4652V44.7642H45.7471L45.4867 47.4823H37.072L37.0395 47.401L43.2732 40.6138C44.1955 39.6156 44.9822 38.6661 45.6332 37.7655C46.2951 36.8649 46.7942 35.986 47.1306 35.1288C47.4778 34.2716 47.6514 33.409 47.6514 32.5409C47.6514 31.2605 47.3585 30.1266 46.7725 29.1392C46.1866 28.1518 45.3511 27.376 44.266 26.8118C43.1918 26.2367 41.906 25.9491 40.4086 25.9491C38.8135 25.9491 37.4355 26.2692 36.2745 26.9094C35.1243 27.5388 34.2454 28.4014 33.6378 29.4973C33.0301 30.5824 32.7426 31.8085 32.7751 33.1757L32.8077 33.2734H35.8839C35.8839 31.7434 36.2691 30.5607 37.0395 29.7252C37.8207 28.8897 38.9058 28.4719 40.2947 28.4719C41.6293 28.4719 42.6547 28.8788 43.3708 29.6926C44.087 30.4956 44.4451 31.4884 44.4451 32.6711C44.4451 33.3113 44.342 33.9298 44.1358 34.5266C43.9297 35.1234 43.5662 35.7907 43.0453 36.5286C42.5245 37.2556 41.8029 38.1345 40.8806 39.1653L33.1169 47.7916ZM40.7496 68.0111C44.7997 68.0111 48.0829 64.7279 48.0829 60.6778C48.0829 56.6277 44.7997 53.3445 40.7496 53.3445C36.6995 53.3445 33.4163 56.6277 33.4163 60.6778C33.4163 64.7279 36.6995 68.0111 40.7496 68.0111ZM40.7569 56.0007L45.4164 63.3337L43.477 63.3341L40.7575 59.0655L38.8763 61.9892H39.8452L40.7569 60.5351L42.5948 63.3337H36.0831L40.7569 56.0007Z" fill="#D7DAE1"/>
</svg>
