<svg width="81" height="80" viewBox="0 0 81 80" fill="none" xmlns="http://www.w3.org/2000/svg">
<path d="M76.9168 39.9987C76.9168 60.2491 60.5006 76.6654 40.2502 76.6654C19.9997 76.6654 3.5835 60.2491 3.5835 39.9987C3.5835 19.7483 19.9997 3.33203 40.2502 3.33203C60.5006 3.33203 76.9168 19.7483 76.9168 39.9987Z" fill="#A9654F"/>
<path fill-rule="evenodd" clip-rule="evenodd" d="M40.2506 74.6654C59.3965 74.6654 74.9173 59.1446 74.9173 39.9987C74.9173 20.8528 59.3965 5.33203 40.2506 5.33203C21.1048 5.33203 5.58398 20.8528 5.58398 39.9987C5.58398 59.1446 21.1048 74.6654 40.2506 74.6654ZM69.584 39.9987C69.584 56.199 56.451 69.332 40.2506 69.332C24.0503 69.332 10.9173 56.199 10.9173 39.9987C10.9173 23.7983 24.0503 10.6654 40.2506 10.6654C56.451 10.6654 69.584 23.7983 69.584 39.9987ZM57.6585 21.0175C58.4775 21.5786 59.081 22.7059 59.175 24.0477C59.2689 25.3894 58.8296 26.605 58.0985 27.2974C57.2796 26.7363 56.6761 25.609 56.5821 24.2672C56.4881 22.9255 56.9275 21.7099 57.6585 21.0175ZM62.4664 26.731C63.0855 27.507 63.333 28.7615 63.0306 30.0722C62.7281 31.3827 61.9526 32.4167 61.051 32.8651C60.4319 32.0891 60.1844 30.8346 60.4868 29.524C60.7892 28.2135 61.5648 27.1794 62.4664 26.731ZM65.4274 33.6959C65.7877 34.621 65.651 35.8924 64.9724 37.0537C64.294 38.215 63.246 38.9716 62.2518 39.1316C61.8915 38.2066 62.0283 36.9352 62.7068 35.7738C63.3853 34.6126 64.4332 33.856 65.4274 33.6959ZM58.0788 43.3675C57.3913 42.2113 57.2448 40.941 57.598 40.0132C58.5934 40.1657 59.6471 40.9142 60.3345 42.0702C61.0219 43.2264 61.1684 44.4966 60.8152 45.4244C59.8199 45.272 58.7661 44.5235 58.0788 43.3675ZM66.1878 41.2737C66.2583 42.264 65.7515 43.438 64.7597 44.3466C63.768 45.2551 62.5431 45.6678 61.5461 45.5265C61.4756 44.5363 61.9824 43.3623 62.9742 42.4537C63.9659 41.5451 65.1908 41.1325 66.1878 41.2737ZM56.3261 48.2821C56.0139 46.9738 56.2521 45.7175 56.8655 44.9368C57.7704 45.3786 58.5536 46.4068 58.8657 47.715C59.1779 49.0234 58.9397 50.2797 58.3263 51.0603C57.4215 50.6186 56.6382 49.5903 56.3261 48.2821ZM64.6886 48.6953C64.4612 49.6617 63.628 50.6316 62.4107 51.2039C61.1936 51.7761 59.9014 51.8054 58.9916 51.3739C59.219 50.4075 60.0523 49.4376 61.2695 48.8653C62.4867 48.2931 63.7789 48.2637 64.6886 48.6953ZM53.2129 52.4294C53.2971 51.087 53.8924 49.9553 54.7072 49.3882C55.4433 50.0754 55.8915 51.2877 55.8073 52.63C55.723 53.9725 55.1277 55.1041 54.3129 55.6712C53.5768 54.9841 53.1286 53.7717 53.2129 52.4294ZM49.0009 55.5052C49.4769 54.2472 50.3793 53.3412 51.3251 53.0395C51.826 53.9131 51.897 55.2037 51.4209 56.4615C50.9448 57.7195 50.0424 58.6255 49.0967 58.9272C48.5958 58.0537 48.5248 56.7631 49.0009 55.5052ZM52.393 61.3499C53.7216 61.5596 54.9557 61.2247 55.6864 60.5526C55.1757 59.6848 54.0898 58.9837 52.7613 58.774C51.4327 58.5643 50.1987 58.8992 49.468 59.5713C49.9786 60.4391 51.0645 61.1402 52.393 61.3499ZM61.0863 55.2888C60.5861 56.1464 59.5056 56.8301 58.1742 57.0213C56.8429 57.2124 55.5986 56.8625 54.8549 56.1836C55.3551 55.3261 56.4356 54.6423 57.767 54.4512C59.0983 54.2601 60.3426 54.61 61.0863 55.2888ZM58.3007 38.0878C57.3019 37.1868 56.7862 36.0167 56.849 35.026C57.8449 34.8771 59.073 35.2803 60.0716 36.1812C61.0703 37.0822 61.5861 38.2523 61.5232 39.243C60.5273 39.3919 59.2993 38.9887 58.3007 38.0878ZM56.9682 33.0451C55.7467 32.4819 54.9063 31.5182 54.6717 30.5536C55.5782 30.1152 56.8706 30.135 58.092 30.6982C59.3135 31.2614 60.1539 32.2251 60.3885 33.1897C59.482 33.6281 58.1896 33.6083 56.9682 33.0451ZM54.2458 28.6733C52.9131 28.4919 51.8276 27.816 51.3212 26.9621C52.06 26.2779 53.3017 25.9189 54.6343 26.1004C55.9671 26.2818 57.0526 26.9577 57.5589 27.8116C56.8202 28.4958 55.5785 28.8548 54.2458 28.6733ZM50.9301 23.8516C49.7278 23.2485 48.9195 22.2577 48.7168 21.2859C49.6373 20.8776 50.9283 20.9399 52.1305 21.5429C53.3328 22.146 54.141 23.1369 54.3438 24.1087C53.4233 24.517 52.1322 24.4547 50.9301 23.8516ZM22.8429 21.2801C22.0239 21.8412 21.4204 22.9685 21.3264 24.3103C21.2325 25.652 21.6718 26.8675 22.4029 27.56C23.2218 26.9989 23.8253 25.8716 23.9193 24.5298C24.0133 23.1881 23.5739 21.9725 22.8429 21.2801ZM18.0343 26.9827C17.4152 27.7587 17.1677 29.0133 17.4701 30.3239C17.7726 31.6344 18.5481 32.6684 19.4497 33.1169C20.0688 32.3408 20.3163 31.0863 20.0139 29.7757C19.7115 28.4652 18.9359 27.4312 18.0343 26.9827ZM15.0741 33.9347C14.7137 34.8597 14.8505 36.1311 15.529 37.2924C16.2075 38.4537 17.2555 39.2103 18.2496 39.3704C18.61 38.4453 18.4732 37.1739 17.7947 36.0126C17.1162 34.8513 16.0682 34.0947 15.0741 33.9347ZM22.4227 43.617C23.1101 42.4609 23.2566 41.1906 22.9034 40.2628C21.9081 40.4152 20.8543 41.1638 20.167 42.3198C19.4795 43.4759 19.333 44.7462 19.6863 45.674C20.6816 45.5216 21.7354 44.7731 22.4227 43.617ZM14.3137 41.5233C14.2432 42.5136 14.75 43.6875 15.7418 44.5962C16.7335 45.5047 17.9584 45.9173 18.9554 45.7761C19.0258 44.7858 18.519 43.6118 17.5273 42.7032C16.5356 41.7947 15.3107 41.382 14.3137 41.5233ZM24.1756 48.5202C24.4878 47.2119 24.2496 45.9556 23.6362 45.175C22.7314 45.6167 21.9481 46.645 21.636 47.9532C21.3238 49.2615 21.562 50.5178 22.1754 51.2984C23.0803 50.8567 23.8635 49.8285 24.1756 48.5202ZM15.8131 48.9335C16.0405 49.8998 16.8737 50.8697 18.091 51.442C19.3081 52.0142 20.6004 52.0436 21.5101 51.612C21.2827 50.6456 20.4494 49.6757 19.2322 49.1034C18.015 48.5312 16.7228 48.5019 15.8131 48.9335ZM27.2887 52.6815C27.2045 51.3391 26.6092 50.2074 25.7944 49.6403C25.0583 50.3275 24.6101 51.5398 24.6943 52.8821C24.7785 54.2246 25.3738 55.3563 26.1887 55.9233C26.9248 55.2362 27.3729 54.0238 27.2887 52.6815ZM31.5007 55.7783C31.0246 54.5203 30.1222 53.6143 29.1764 53.3126C28.6755 54.1862 28.6046 55.4768 29.0806 56.7346C29.5567 57.9926 30.4591 58.8986 31.4049 59.2003C31.9058 58.3268 31.9767 57.0362 31.5007 55.7783ZM28.1085 61.623C26.7799 61.8327 25.5458 61.4978 24.8152 60.8257C25.3258 59.9578 26.4117 59.2568 27.7402 59.0471C29.0688 58.8373 30.3029 59.1723 31.0335 59.8443C30.5229 60.7122 29.437 61.4133 28.1085 61.623ZM19.4145 55.541C19.9147 56.3985 20.9952 57.0823 22.3266 57.2734C23.6579 57.4645 24.9022 57.1146 25.6459 56.4358C25.1458 55.5782 24.0652 54.8945 22.7338 54.7033C21.4025 54.5122 20.1583 54.8621 19.4145 55.541ZM22.2008 38.3265C23.1995 37.4255 23.7153 36.2555 23.6524 35.2647C22.6565 35.1158 21.4285 35.519 20.4299 36.4199C19.4312 37.3209 18.9154 38.491 18.9783 39.4817C19.9741 39.6306 21.2022 39.2274 22.2008 38.3265ZM23.5325 33.2969C24.754 32.7337 25.5944 31.7699 25.829 30.8053C24.9225 30.367 23.6301 30.3867 22.4087 30.9499C21.1872 31.5131 20.3468 32.4768 20.1122 33.4415C21.0188 33.8798 22.3112 33.86 23.5325 33.2969ZM26.2556 28.9359C27.5883 28.7545 28.6738 28.0786 29.1802 27.2247C28.4414 26.5405 27.1997 26.1815 25.8671 26.3629C24.5343 26.5444 23.4488 27.2203 22.9424 28.0742C23.6812 28.7584 24.9229 29.1174 26.2556 28.9359ZM29.5721 24.1251C30.7743 23.522 31.5826 22.5311 31.7853 21.5593C30.8649 21.151 29.5738 21.2133 28.3716 21.8164C27.1694 22.4195 26.3611 23.4103 26.1584 24.3822C27.0789 24.7904 28.3699 24.7281 29.5721 24.1251ZM36.0186 49.5494C37.1471 50.0702 38.4329 50.3306 39.8761 50.3306C41.3409 50.3306 42.643 50.054 43.7823 49.5006C44.9216 48.9363 45.8114 48.1388 46.4516 47.108C47.1026 46.0663 47.4281 44.8239 47.4281 43.3808C47.4281 42.1438 47.1297 41.0262 46.5329 40.0279C45.947 39.0296 44.9433 38.2972 43.5219 37.8306C44.7046 37.3207 45.5889 36.5828 46.1749 35.6171C46.7717 34.6405 47.0701 33.664 47.0701 32.6874C47.0701 30.5281 46.419 28.868 45.1169 27.7069C43.8149 26.5351 42.0679 25.9491 39.8761 25.9491C38.4221 25.9491 37.1417 26.2367 36.0349 26.8118C34.939 27.3868 34.0872 28.1627 33.4796 29.1392C32.8828 30.1158 32.6007 31.2009 32.6332 32.3944L32.6658 32.4921H35.7419C35.7419 31.6783 35.9101 30.973 36.2465 30.3762C36.5937 29.7686 37.0766 29.302 37.6951 28.9765C38.3136 28.6401 39.0405 28.4719 39.8761 28.4719C41.189 28.4719 42.1818 28.8246 42.8546 29.5299C43.5273 30.2352 43.8637 31.266 43.8637 32.6223C43.8637 33.4687 43.7335 34.1957 43.4731 34.8033C43.2235 35.4001 42.8112 35.8612 42.2361 36.1868C41.661 36.5014 40.9014 36.6588 39.9574 36.6588H37.1579V39.1653H39.9574C41.4331 39.1653 42.5128 39.5125 43.1964 40.2069C43.88 40.9014 44.2218 41.981 44.2218 43.4459C44.2218 44.889 43.8366 45.9795 43.0662 46.7174C42.2958 47.4552 41.2324 47.8241 39.8761 47.8241C38.9863 47.8241 38.2213 47.6559 37.5811 47.3196C36.9409 46.9832 36.4472 46.5112 36.1 45.9036C35.7528 45.2959 35.5792 44.5743 35.5792 43.7388H32.5193L32.4705 43.8365C32.4379 45.1711 32.7363 46.3267 33.3656 47.3033C34.0058 48.269 34.8902 49.0177 36.0186 49.5494ZM40.2496 68.0111C44.2997 68.0111 47.5829 64.7279 47.5829 60.6778C47.5829 56.6277 44.2997 53.3445 40.2496 53.3445C36.1995 53.3445 32.9163 56.6277 32.9163 60.6778C32.9163 64.7279 36.1995 68.0111 40.2496 68.0111ZM40.2569 56.0007L44.9164 63.3337L42.977 63.3341L40.2575 59.0655L38.3763 61.9892H39.3452L40.2569 60.5351L42.0948 63.3337H35.5831L40.2569 56.0007Z" fill="#F4B9A7"/>
</svg>
