<svg width="81" height="80" viewBox="0 0 81 80" fill="none" xmlns="http://www.w3.org/2000/svg">
<path d="M76.9168 40.0026C76.9168 60.253 60.5006 76.6693 40.2502 76.6693C19.9997 76.6693 3.5835 60.253 3.5835 40.0026C3.5835 19.7522 19.9997 3.33594 40.2502 3.33594C60.5006 3.33594 76.9168 19.7522 76.9168 40.0026Z" fill="#A27A44"/>
<path fill-rule="evenodd" clip-rule="evenodd" d="M40.2507 74.6732C59.3965 74.6732 74.9173 59.1524 74.9173 40.0065C74.9173 20.8606 59.3965 5.33984 40.2507 5.33984C21.1048 5.33984 5.58398 20.8606 5.58398 40.0065C5.58398 59.1524 21.1048 74.6732 40.2507 74.6732ZM69.584 40.0065C69.584 56.2069 56.451 69.3398 40.2507 69.3398C24.0503 69.3398 10.9173 56.2069 10.9173 40.0065C10.9173 23.8062 24.0503 10.6732 40.2507 10.6732C56.451 10.6732 69.584 23.8062 69.584 40.0065ZM57.6585 21.0299C58.4774 21.5911 59.0809 22.7184 59.1749 24.0602C59.2689 25.4018 58.8295 26.6174 58.0985 27.3099C57.2795 26.7488 56.676 25.6214 56.582 24.2797C56.4881 22.938 56.9274 21.7224 57.6585 21.0299ZM62.4663 26.7434C63.0854 27.5195 63.333 28.774 63.0305 30.0846C62.7281 31.3951 61.9525 32.4291 61.051 32.8776C60.4318 32.1016 60.1843 30.847 60.4868 29.5364C60.7892 28.2259 61.5647 27.1919 62.4663 26.7434ZM65.4273 33.7084C65.7877 34.6334 65.6509 35.9048 64.9724 37.0662C64.2939 38.2275 63.2459 38.984 62.2518 39.1441C61.8915 38.219 62.0282 36.9477 62.7067 35.7863C63.3852 34.625 64.4332 33.8684 65.4273 33.7084ZM58.0787 43.3799C57.3913 42.2238 57.2448 40.9535 57.598 40.0257C58.5933 40.1781 59.6471 40.9267 60.3344 42.0827C61.0219 43.2388 61.1684 44.5091 60.8152 45.4369C59.8198 45.2845 58.7661 44.5359 58.0787 43.3799ZM66.1877 41.2862C66.2582 42.2764 65.7514 43.4504 64.7596 44.359C63.768 45.2676 62.543 45.6802 61.5461 45.539C61.4756 44.5487 61.9824 43.3747 62.9741 42.4661C63.9658 41.5576 65.1907 41.1449 66.1877 41.2862ZM56.326 48.2946C56.0139 46.9862 56.2521 45.7299 56.8654 44.9493C57.7703 45.391 58.5535 46.4193 58.8657 47.7275C59.1778 49.0358 58.9396 50.2922 58.3263 51.0728C57.4214 50.631 56.6382 49.6028 56.326 48.2946ZM64.6886 48.7078C64.4612 49.6741 63.6279 50.6441 62.4107 51.2163C61.1935 51.7885 59.9013 51.8179 58.9915 51.3863C59.219 50.42 60.0522 49.45 61.2695 48.8778C62.4866 48.3056 63.7788 48.2762 64.6886 48.7078ZM53.2128 52.4419C53.297 51.0994 53.8923 49.9677 54.7072 49.4007C55.4432 50.0878 55.8914 51.3002 55.8072 52.6425C55.723 53.9849 55.1277 55.1166 54.3128 55.6837C53.5768 54.9965 53.1286 53.7842 53.2128 52.4419ZM49.0008 55.5177C49.4769 54.2597 50.3793 53.3537 51.325 53.052C51.8259 53.9255 51.8969 55.2161 51.4208 56.474C50.9447 57.732 50.0424 58.638 49.0966 58.9397C48.5957 58.0662 48.5247 56.7756 49.0008 55.5177ZM52.393 61.3624C53.7216 61.5721 54.9556 61.2371 55.6863 60.5651C55.1757 59.6972 54.0898 58.9961 52.7613 58.7864C51.4327 58.5767 50.1986 58.9117 49.4679 59.5837C49.9786 60.4516 51.0645 61.1527 52.393 61.3624ZM61.0862 55.3013C60.5861 56.1588 59.5055 56.8426 58.1741 57.0337C56.8428 57.2249 55.5985 56.875 54.8548 56.1961C55.355 55.3386 56.4355 54.6548 57.7669 54.4637C59.0982 54.2725 60.3425 54.6225 61.0862 55.3013ZM58.3006 38.1002C57.3019 37.1993 56.7861 36.0292 56.849 35.0385C57.8449 34.8895 59.0729 35.2928 60.0715 36.1937C61.0702 37.0947 61.586 38.2647 61.5231 39.2555C60.5273 39.4044 59.2992 39.0011 58.3006 38.1002ZM56.9681 33.0576C55.7467 32.4944 54.9062 31.5306 54.6716 30.566C55.5782 30.1277 56.8706 30.1475 58.0919 30.7106C59.3134 31.2738 60.1538 32.2376 60.3884 33.2022C59.4819 33.6405 58.1895 33.6207 56.9681 33.0576ZM54.2458 28.6858C52.913 28.5043 51.8275 27.8284 51.3212 26.9746C52.0599 26.2903 53.3016 25.9314 54.6343 26.1128C55.967 26.2943 57.0525 26.9702 57.5589 27.824C56.8201 28.5083 55.5784 28.8672 54.2458 28.6858ZM50.93 23.8641C49.7277 23.261 48.9195 22.2701 48.7168 21.2983C49.6372 20.89 50.9283 20.9523 52.1304 21.5554C53.3327 22.1585 54.141 23.1494 54.3437 24.1212C53.4232 24.5294 52.1322 24.4671 50.93 23.8641ZM22.8428 21.2904C22.0238 21.8515 21.4203 22.9788 21.3264 24.3206C21.2324 25.6622 21.6717 26.8778 22.4028 27.5703C23.2218 27.0092 23.8253 25.8819 23.9192 24.5401C24.0132 23.1984 23.5739 21.9828 22.8428 21.2904ZM18.0343 26.993C17.4152 27.769 17.1676 29.0236 17.4701 30.3342C17.7725 31.6447 18.548 32.6787 19.4496 33.1272C20.0687 32.3511 20.3163 31.0966 20.0138 29.786C19.7114 28.4755 18.9358 27.4415 18.0343 26.993ZM15.074 33.9449C14.7137 34.87 14.8504 36.1414 15.529 37.3027C16.2074 38.464 17.2554 39.2206 18.2496 39.3806C18.6099 38.4556 18.4731 37.1842 17.7946 36.0228C17.1161 34.8616 16.0681 34.105 15.074 33.9449ZM22.4226 43.6273C23.1101 42.4712 23.2566 41.2009 22.9033 40.2731C21.908 40.4255 20.8543 41.174 20.1669 42.3301C19.4795 43.4862 19.333 44.7565 19.6862 45.6843C20.6815 45.5319 21.7353 44.7833 22.4226 43.6273ZM14.3136 41.5336C14.2431 42.5238 14.7499 43.6978 15.7417 44.6064C16.7334 45.515 17.9583 45.9276 18.9553 45.7864C19.0258 44.7961 18.519 43.6221 17.5272 42.7135C16.5355 41.805 15.3106 41.3923 14.3136 41.5336ZM24.1755 48.5305C24.4877 47.2222 24.2495 45.9659 23.6362 45.1853C22.7313 45.627 21.9481 46.6552 21.6359 47.9635C21.3238 49.2718 21.562 50.5281 22.1753 51.3087C23.0802 50.867 23.8634 49.8388 24.1755 48.5305ZM15.813 48.9437C16.0404 49.9101 16.8737 50.88 18.0909 51.4523C19.3081 52.0245 20.6003 52.0539 21.51 51.6223C21.2826 50.6559 20.4494 49.686 19.2321 49.1137C18.015 48.5415 16.7227 48.5121 15.813 48.9437ZM27.2887 52.6918C27.2044 51.3494 26.6091 50.2177 25.7943 49.6506C25.0582 50.3378 24.61 51.5501 24.6943 52.8924C24.7785 54.2349 25.3738 55.3665 26.1886 55.9336C26.9247 55.2465 27.3729 54.0341 27.2887 52.6918ZM31.5006 55.7886C31.0245 54.5306 30.1221 53.6246 29.1764 53.3229C28.6755 54.1964 28.6045 55.487 29.0806 56.7449C29.5567 58.0029 30.459 58.9089 31.4048 59.2106C31.9057 58.3371 31.9767 57.0465 31.5006 55.7886ZM28.1084 61.6333C26.7798 61.843 25.5458 61.5081 24.8151 60.836C25.3257 59.9681 26.4116 59.2671 27.7401 59.0574C29.0687 58.8476 30.3028 59.1826 31.0335 59.8546C30.5228 60.7225 29.4369 61.4236 28.1084 61.6333ZM19.4145 55.5512C19.9146 56.4088 20.9952 57.0926 22.3266 57.2837C23.6579 57.4748 24.9022 57.1249 25.6459 56.4461C25.1457 55.5885 24.0652 54.9047 22.7338 54.7136C21.4025 54.5225 20.1582 54.8724 19.4145 55.5512ZM22.2007 38.3368C23.1994 37.4358 23.7152 36.2657 23.6523 35.275C22.6565 35.1261 21.4284 35.5293 20.4298 36.4302C19.4311 37.3312 18.9153 38.5013 18.9782 39.492C19.9741 39.6409 21.2021 39.2377 22.2007 38.3368ZM23.5324 33.3071C24.7539 32.7439 25.5943 31.7802 25.8289 30.8156C24.9224 30.3772 23.63 30.397 22.4086 30.9602C21.1872 31.5234 20.3468 32.4871 20.1122 33.4517C21.0187 33.8901 22.3111 33.8703 23.5324 33.3071ZM26.2555 28.9462C27.5883 28.7648 28.6737 28.0889 29.1801 27.235C28.4414 26.5507 27.1996 26.1918 25.867 26.3732C24.5342 26.5547 23.4488 27.2306 22.9424 28.0845C23.6811 28.7687 24.9228 29.1277 26.2555 28.9462ZM29.572 24.1354C30.7743 23.5323 31.5825 22.5414 31.7853 21.5696C30.8648 21.1613 29.5737 21.2236 28.3716 21.8267C27.1693 22.4298 26.361 23.4206 26.1583 24.3924C27.0788 24.8007 28.3698 24.7384 29.572 24.1354ZM35.3512 47.9505V50.0013H45.8656V47.9505L42.2197 47.4948V26.3034L35.2861 27.8008V29.8027L39.0133 29.7376V47.4948L35.3512 47.9505ZM40.2497 68.013C44.2998 68.013 47.583 64.7298 47.583 60.6797C47.583 56.6296 44.2998 53.3464 40.2497 53.3464C36.1996 53.3464 32.9163 56.6296 32.9163 60.6797C32.9163 64.7298 36.1996 68.013 40.2497 68.013ZM40.257 56.0026L44.9165 63.3356L42.9771 63.3359L40.2576 59.0674L38.3764 61.9911H39.3453L40.257 60.5369L42.0948 63.3356H35.5832L40.257 56.0026Z" fill="#E5D49E"/>
</svg>
