<svg viewBox="0 0 20 20" fill="none" xmlns="http://www.w3.org/2000/svg">
  <path
    d="M8.5 11.5254C9.41074 11.5248 10.3076 11.6311 11.1904 11.8457C12.071 12.0598 12.9409 12.3805 13.8008 12.8086H13.8018C14.1167 12.9715 14.3683 13.2058 14.5635 13.5234C14.7549 13.8351 14.85 14.1723 14.8496 14.5488V15.25C14.8496 15.5577 14.7481 15.8052 14.5264 16.0273C14.3053 16.2487 14.0587 16.3499 13.751 16.3496H3.25C2.94235 16.3496 2.69501 16.2477 2.47363 16.0264C2.28023 15.8328 2.17815 15.6193 2.15527 15.3623L2.15039 15.249V14.5498C2.15042 14.1722 2.24517 13.8345 2.43652 13.5234C2.63004 13.2089 2.87953 12.9759 3.19043 12.8125C4.05282 12.3813 4.9256 12.0603 5.80859 11.8467C6.69177 11.6331 7.58886 11.526 8.5 11.5254ZM8.5 3.65039C9.28874 3.65039 9.94821 3.92281 10.5127 4.4873C11.0772 5.0518 11.3496 5.71126 11.3496 6.5C11.3496 7.28874 11.0772 7.9482 10.5127 8.5127C9.94821 9.07719 9.28874 9.34961 8.5 9.34961C7.71126 9.34961 7.0518 9.07719 6.4873 8.5127C5.92281 7.9482 5.65039 7.28874 5.65039 6.5C5.65039 5.71126 5.92281 5.0518 6.4873 4.4873C7.0518 3.92281 7.71126 3.65039 8.5 3.65039Z"
    stroke="currentColor" stroke-width="1.3" />
  <path d="M16 6L16 10" stroke="currentColor" stroke-width="1.3" stroke-linecap="round" />
  <path d="M18 8L14 8" stroke="currentColor" stroke-width="1.3" stroke-linecap="round" />
</svg>
  
