<svg width="89" height="89" viewBox="0 0 89 89" fill="none" xmlns="http://www.w3.org/2000/svg">
<circle cx="44.3095" cy="44.1347" r="43.8994" fill="url(#paint0_radial_1356_6563)"/>
<path d="M40.4931 32.0601C33.2352 34.7154 26.9215 32.4289 24.6719 30.9538V55.5153C26.7165 57.6304 32.7431 60.8944 40.4931 57.0293C48.243 53.1642 59.359 54.4095 63.9482 55.5153V32.0601C60.961 28.409 49.5653 28.741 40.4931 32.0601Z" fill="#FF7028"/>
<path d="M40.4931 32.0601C33.2352 34.7154 26.9215 32.4289 24.6719 30.9538V55.5153C26.7165 57.6304 32.7431 60.8944 40.4931 57.0293C48.243 53.1642 59.359 54.4095 63.9482 55.5153V32.0601C60.961 28.409 49.5653 28.741 40.4931 32.0601Z" fill="url(#paint1_linear_1356_6563)" fill-opacity="0.2"/>
<path d="M40.4931 32.0601C33.2352 34.7154 26.9215 32.4289 24.6719 30.9538V55.5153C26.7165 57.6304 32.7431 60.8944 40.4931 57.0293C48.243 53.1642 59.359 54.4095 63.9482 55.5153V32.0601C60.961 28.409 49.5653 28.741 40.4931 32.0601Z" fill="url(#paint2_radial_1356_6563)"/>
<defs>
<radialGradient id="paint0_radial_1356_6563" cx="0" cy="0" r="1" gradientUnits="userSpaceOnUse" gradientTransform="translate(78.6065 18.4947) rotate(141.84) scale(90.0017)">
<stop stop-color="#FF7028"/>
<stop offset="0.327144" stop-color="#FF7028"/>
<stop offset="0.577536" stop-color="#FF7028"/>
<stop offset="0.808416" stop-color="#FF935D"/>
<stop offset="1" stop-color="white"/>
</radialGradient>
<linearGradient id="paint1_linear_1356_6563" x1="26.217" y1="42.1899" x2="38.7386" y2="44.1277" gradientUnits="userSpaceOnUse">
<stop/>
<stop offset="0.765625" stop-color="#FF894E"/>
<stop offset="1" stop-color="#FF894E" stop-opacity="0"/>
</linearGradient>
<radialGradient id="paint2_radial_1356_6563" cx="0" cy="0" r="1" gradientUnits="userSpaceOnUse" gradientTransform="translate(44.3101 44.1348) rotate(90) scale(14.69 19.6382)">
<stop stop-color="white"/>
<stop offset="1" stop-color="white" stop-opacity="0.63"/>
</radialGradient>
</defs>
</svg>
