<svg xmlns="http://www.w3.org/2000/svg" width="8" height="8" fill="none"><path d="M7.98752 3.99376c0 .10867-.09279.19235-.20145.19118-2.35778-.02538-3.62596 1.24278-3.60059 3.60055.00117.10897-.08274.20203-.19172.20203-.10926 0-.19338-.09329-.19223-.20254.02476-2.35619-1.24279-3.62373-3.59897-3.59897C.0933 4.18716 0 4.10303 0 3.99376c0-.10878.0929-.19254.20167-.19136 2.35818.02552 3.62651-1.24282 3.60098-3.601C3.80147.09277 3.88513 0 3.99376 0c.10836 0 .19181.09255.19062.2009-.026 2.35942 1.24283 3.62825 3.60225 3.60226.10835-.0012.20089.08225.20089.1906Z" fill="#D9D9D9"/><path d="M7.98752 3.99376c0 .10867-.09279.19235-.20145.19118-2.35778-.02538-3.62596 1.24278-3.60059 3.60055.00117.10897-.08274.20203-.19172.20203-.10926 0-.19338-.09329-.19223-.20254.02476-2.35619-1.24279-3.62373-3.59897-3.59897C.0933 4.18716 0 4.10303 0 3.99376c0-.10878.0929-.19254.20167-.19136 2.35818.02552 3.62651-1.24282 3.60098-3.601C3.80147.09277 3.88513 0 3.99376 0c.10836 0 .19181.09255.19062.2009-.026 2.35942 1.24283 3.62825 3.60225 3.60226.10835-.0012.20089.08225.20089.1906Z" fill="url(#a)"/><defs><linearGradient id="a" x1="4.28131" y1=".20768" x2="1.5" y2="6" gradientUnits="userSpaceOnUse"><stop stop-color="#00FFFD" stop-opacity=".988"/><stop offset=".61814" stop-color="#649CFF" stop-opacity=".99542"/><stop offset="1" stop-color="#9469FF"/><stop offset="1" stop-color="#B469FF"/></linearGradient></defs></svg>