<svg width="8" height="8" viewBox="0 0 8 8" fill="none" xmlns="http://www.w3.org/2000/svg">
<g id="Subtract">
<path d="M7.98752 3.99376C7.98752 4.10243 7.89473 4.18611 7.78607 4.18494C5.42829 4.15956 4.16011 5.42772 4.18548 7.78549C4.18665 7.89446 4.10274 7.98752 3.99376 7.98752C3.8845 7.98752 3.80038 7.89423 3.80153 7.78498C3.82629 5.42879 2.55874 4.16125 0.202559 4.18601C0.0932986 4.18716 0 4.10303 0 3.99376C0 3.88498 0.092895 3.80122 0.201667 3.8024C2.55985 3.82792 3.82818 2.55958 3.80265 0.201398C3.80147 0.0927704 3.88513 0 3.99376 0C4.10212 0 4.18557 0.0925473 4.18438 0.200903C4.15838 2.56032 5.42721 3.82915 7.78663 3.80316C7.89498 3.80196 7.98752 3.88541 7.98752 3.99376Z" fill="#D9D9D9"/>
<path d="M7.98752 3.99376C7.98752 4.10243 7.89473 4.18611 7.78607 4.18494C5.42829 4.15956 4.16011 5.42772 4.18548 7.78549C4.18665 7.89446 4.10274 7.98752 3.99376 7.98752C3.8845 7.98752 3.80038 7.89423 3.80153 7.78498C3.82629 5.42879 2.55874 4.16125 0.202559 4.18601C0.0932986 4.18716 0 4.10303 0 3.99376C0 3.88498 0.092895 3.80122 0.201667 3.8024C2.55985 3.82792 3.82818 2.55958 3.80265 0.201398C3.80147 0.0927704 3.88513 0 3.99376 0C4.10212 0 4.18557 0.0925473 4.18438 0.200903C4.15838 2.56032 5.42721 3.82915 7.78663 3.80316C7.89498 3.80196 7.98752 3.88541 7.98752 3.99376Z" fill="url(#paint0_linear_4691_44752)"/>
</g>
<defs>
<linearGradient id="paint0_linear_4691_44752" x1="4.28131" y1="0.207676" x2="1.5" y2="6" gradientUnits="userSpaceOnUse">
<stop stop-color="#00FFFD" stop-opacity="0.988"/>
<stop offset="0.61814" stop-color="#649CFF" stop-opacity="0.995418"/>
<stop offset="1" stop-color="#9469FF"/>
<stop offset="1" stop-color="#B469FF"/>
</linearGradient>
</defs>
</svg>
