<svg width="88" height="89" viewBox="0 0 88 89" fill="none" xmlns="http://www.w3.org/2000/svg">
<circle cx="44.0556" cy="44.1347" r="43.8994" fill="url(#paint0_radial_1356_6571)"/>
<path fill-rule="evenodd" clip-rule="evenodd" d="M50.9884 55.9072C49.8838 55.9072 48.9884 55.0118 48.9884 53.9072V43.2123L43.6914 43.2123C41.9515 43.2123 41.0414 41.1443 42.2167 39.8614L52.4977 28.6383C53.2904 27.7729 54.6545 27.7729 55.4472 28.6383L65.7282 39.8614C66.9035 41.1443 65.9934 43.2123 64.2535 43.2123L58.9565 43.2123V53.9072C58.9565 55.0118 58.0611 55.9072 56.9565 55.9072H50.9884Z" fill="#FF7028"/>
<path fill-rule="evenodd" clip-rule="evenodd" d="M50.9884 55.9072C49.8838 55.9072 48.9884 55.0118 48.9884 53.9072V43.2123L43.6914 43.2123C41.9515 43.2123 41.0414 41.1443 42.2167 39.8614L52.4977 28.6383C53.2904 27.7729 54.6545 27.7729 55.4472 28.6383L65.7282 39.8614C66.9035 41.1443 65.9934 43.2123 64.2535 43.2123L58.9565 43.2123V53.9072C58.9565 55.0118 58.0611 55.9072 56.9565 55.9072H50.9884Z" fill="url(#paint1_linear_1356_6571)" fill-opacity="0.2"/>
<path fill-rule="evenodd" clip-rule="evenodd" d="M50.9884 55.9072C49.8838 55.9072 48.9884 55.0118 48.9884 53.9072V43.2123L43.6914 43.2123C41.9515 43.2123 41.0414 41.1443 42.2167 39.8614L52.4977 28.6383C53.2904 27.7729 54.6545 27.7729 55.4472 28.6383L65.7282 39.8614C66.9035 41.1443 65.9934 43.2123 64.2535 43.2123L58.9565 43.2123V53.9072C58.9565 55.0118 58.0611 55.9072 56.9565 55.9072H50.9884Z" fill="url(#paint2_radial_1356_6571)"/>
<path fill-rule="evenodd" clip-rule="evenodd" d="M31.1564 32.3628C30.0518 32.3628 29.1564 33.2582 29.1564 34.3628V45.0577L23.8594 45.0577C22.1195 45.0577 21.2094 47.1257 22.3847 48.4086L32.6657 59.6317C33.4584 60.4971 34.8224 60.4971 35.6152 59.6317L45.8962 48.4086C47.0715 47.1257 46.1613 45.0577 44.4214 45.0577L39.1245 45.0577V34.3628C39.1245 33.2582 38.229 32.3628 37.1245 32.3628H31.1564Z" fill="#FF7028"/>
<path fill-rule="evenodd" clip-rule="evenodd" d="M31.1564 32.3628C30.0518 32.3628 29.1564 33.2582 29.1564 34.3628V45.0577L23.8594 45.0577C22.1195 45.0577 21.2094 47.1257 22.3847 48.4086L32.6657 59.6317C33.4584 60.4971 34.8224 60.4971 35.6152 59.6317L45.8962 48.4086C47.0715 47.1257 46.1613 45.0577 44.4214 45.0577L39.1245 45.0577V34.3628C39.1245 33.2582 38.229 32.3628 37.1245 32.3628H31.1564Z" fill="url(#paint3_linear_1356_6571)" fill-opacity="0.2"/>
<path fill-rule="evenodd" clip-rule="evenodd" d="M31.1564 32.3628C30.0518 32.3628 29.1564 33.2582 29.1564 34.3628V45.0577L23.8594 45.0577C22.1195 45.0577 21.2094 47.1257 22.3847 48.4086L32.6657 59.6317C33.4584 60.4971 34.8224 60.4971 35.6152 59.6317L45.8962 48.4086C47.0715 47.1257 46.1613 45.0577 44.4214 45.0577L39.1245 45.0577V34.3628C39.1245 33.2582 38.229 32.3628 37.1245 32.3628H31.1564Z" fill="url(#paint4_radial_1356_6571)"/>
<defs>
<radialGradient id="paint0_radial_1356_6571" cx="0" cy="0" r="1" gradientUnits="userSpaceOnUse" gradientTransform="translate(78.3525 18.4947) rotate(141.84) scale(90.0017)">
<stop stop-color="#FF7028"/>
<stop offset="0.327144" stop-color="#FF7028"/>
<stop offset="0.577536" stop-color="#FF7028"/>
<stop offset="0.808416" stop-color="#FF935D"/>
<stop offset="1" stop-color="white"/>
</radialGradient>
<linearGradient id="paint1_linear_1356_6571" x1="43.961" y1="57.736" x2="50.1301" y2="57.644" gradientUnits="userSpaceOnUse">
<stop/>
<stop offset="1" stop-opacity="0"/>
</linearGradient>
<radialGradient id="paint2_radial_1356_6571" cx="0" cy="0" r="1" gradientUnits="userSpaceOnUse" gradientTransform="translate(53.7362 33.0158) rotate(89.071) scale(25.8644 22.7626)">
<stop stop-color="white"/>
<stop offset="1" stop-color="white" stop-opacity="0.2"/>
</radialGradient>
<linearGradient id="paint3_linear_1356_6571" x1="24.129" y1="30.534" x2="30.298" y2="30.626" gradientUnits="userSpaceOnUse">
<stop/>
<stop offset="1" stop-opacity="0"/>
</linearGradient>
<radialGradient id="paint4_radial_1356_6571" cx="0" cy="0" r="1" gradientUnits="userSpaceOnUse" gradientTransform="translate(33.9042 55.2542) rotate(-89.071) scale(25.8644 22.7626)">
<stop stop-color="white"/>
<stop offset="1" stop-color="white" stop-opacity="0.2"/>
</radialGradient>
</defs>
</svg>
