<svg xmlns="http://www.w3.org/2000/svg" xmlns:xlink="http://www.w3.org/1999/xlink" width="160" height="40" viewBox="0 0 160 40">
  <defs>
    <linearGradient id="linear-gradient" x1="1" y1="0.386" x2="0.027" y2="0.362" gradientUnits="objectBoundingBox">
      <stop offset="0" stop-color="#fd00fe"/>
      <stop offset="1" stop-color="#724be1"/>
    </linearGradient>
    <radialGradient id="radial-gradient" cx="0.5" cy="0.5" r="0.5" xlink:href="#linear-gradient"/>
  </defs>
  <g id="Synapse" transform="translate(-466 -429)">
    <rect id="Rectangle_107" data-name="Rectangle 107" width="160" height="40" rx="4" transform="translate(466 429)" fill="#08173c"/>
    <path id="Path_1449" data-name="Path 1449" d="M-33.516-9.414c0,2.124,1.71,3.006,4.158,3.636,1.746.432,3.294.936,3.294,2.2,0,1.6-1.188,2.322-3.132,2.322-1.854,0-3.078-1.116-3.132-2.556,0-.126-.054-.18-.18-.18H-33.66c-.126,0-.18.054-.18.18,0,2.376,2.034,4,4.644,4,2.718,0,4.644-1.26,4.644-3.852,0-2-1.818-2.826-4.122-3.456C-30.564-7.614-32-8.154-32-9.486c0-1.17,1.188-1.854,2.718-1.854s2.718.846,2.808,2.07c0,.126.054.18.18.18h1.152c.126,0,.18-.054.18-.18-.054-1.836-1.6-3.51-4.32-3.51C-31.536-12.78-33.516-11.628-33.516-9.414Zm10.008.378a.132.132,0,0,0-.144.144c0,.018.018.072.036.144l3.6,8.874c-.432,1.584-.954,2.286-1.908,2.286-.81,0-1.008-.4-1.3-.4-.09,0-.144.054-.144.18v.972a.272.272,0,0,0,.18.288,2.7,2.7,0,0,0,1.332.288c1.35,0,2.34-.648,3.114-2.862l3.294-9.666a.267.267,0,0,0,.018-.126c0-.09-.054-.126-.144-.126h-1.242c-.162,0-.18.054-.234.18L-19.314-1.98l-2.664-6.876a.217.217,0,0,0-.234-.18ZM-13.842-.18c0,.126.054.18.18.18h1.044c.126,0,.18-.054.18-.18V-4.608c0-2.178,1.152-3.276,2.664-3.276a1.885,1.885,0,0,1,2.052,2.16V-.18c0,.126.054.18.18.18H-6.5c.126,0,.18-.054.18-.18V-5.94A2.954,2.954,0,0,0-9.45-9.216,3.74,3.74,0,0,0-12.438-7.83V-8.856c0-.126-.054-.18-.18-.18h-1.044c-.126,0-.18.054-.18.18Zm11.2-6.174c.126,0,.2-.018.252-.162A2.1,2.1,0,0,1-.27-7.884,1.924,1.924,0,0,1,1.908-5.8v.5a9.37,9.37,0,0,0-2.538-.4c-2.016,0-3.654,1.008-3.654,3.006A2.976,2.976,0,0,0-1.044.18a3.586,3.586,0,0,0,2.952-1.3V-.18c0,.126.054.18.18.18H3.51c.09,0,.144-.036.144-.09,0-.018-.018-.036-.036-.09a2.626,2.626,0,0,1-.306-1.548V-6.066c0-1.89-1.494-3.15-3.582-3.15A3.484,3.484,0,0,0-3.906-6.642a.675.675,0,0,0-.018.18c0,.072.036.108.126.108ZM1.908-3.96A2.658,2.658,0,0,1-.882-1.152c-1.224,0-1.926-.558-1.926-1.62,0-1.116.972-1.584,2.268-1.584A6.848,6.848,0,0,1,1.908-3.96ZM5.742,3.384c0,.126.054.18.18.18H6.966c.126,0,.18-.054.18-.18V-1.044A4.13,4.13,0,0,0,10.1.18c2.43,0,4.032-1.908,4.032-4.7s-1.6-4.7-4.032-4.7A4.055,4.055,0,0,0,7.146-8.01v-.846c0-.126-.054-.18-.18-.18H5.922c-.126,0-.18.054-.18.18ZM7-4.518C7-6.48,8.082-7.884,9.864-7.884c1.818,0,2.79,1.4,2.79,3.366,0,1.98-.972,3.366-2.79,3.366C8.082-1.152,7-2.538,7-4.518ZM23.094-2.646c0-1.692-1.512-2.232-3.24-2.52-1.8-.324-2.538-.63-2.538-1.512,0-.81.81-1.206,1.962-1.206a2.06,2.06,0,0,1,2.16,1.26c.054.126.054.18.18.18h1.008c.126,0,.18-.054.18-.18-.216-1.584-1.44-2.592-3.474-2.592-1.908,0-3.42.918-3.42,2.574,0,1.584.918,2.286,3.078,2.628,1.854.288,2.628.612,2.628,1.548s-.864,1.314-2.088,1.314c-1.368,0-2.2-.54-2.34-1.6-.018-.126-.072-.18-.18-.18H15.858c-.126,0-.18.054-.18.18,0,1.692,1.692,2.934,3.8,2.934S23.094-.846,23.094-2.646Zm10.35-1.44c.126,0,.18-.054.18-.18v-.288a4.4,4.4,0,0,0-4.41-4.662,4.493,4.493,0,0,0-4.5,4.7,4.41,4.41,0,0,0,4.5,4.7,4.108,4.108,0,0,0,4.194-2.844.266.266,0,0,0,.036-.18c0-.09-.036-.126-.126-.126h-1.17c-.126,0-.2.018-.252.162A2.593,2.593,0,0,1,29.25-1.152a2.9,2.9,0,0,1-3.024-2.934Zm-4.23-3.8a2.874,2.874,0,0,1,2.9,2.466H26.3A2.894,2.894,0,0,1,29.214-7.884Z" transform="translate(561.582 454.5)" stroke="rgba(0,0,0,0)" stroke-width="1" fill="url(#linear-gradient)"/>
    <g id="Group_110" data-name="Group 110" transform="translate(418.925 374.838)">
      <path id="Union_1" data-name="Union 1" d="M10.174,24.852A1.147,1.147,0,1,1,11.322,26,1.147,1.147,0,0,1,10.174,24.852ZM5.141,21.811a1.147,1.147,0,1,1,1.145,1.148A1.146,1.146,0,0,1,5.141,21.811Zm10.068-.038a1.147,1.147,0,1,1,1.145,1.148A1.146,1.146,0,0,1,15.209,21.772ZM9.954,18.825a1.368,1.368,0,1,1,1.368,1.369A1.367,1.367,0,0,1,9.954,18.825ZM0,19a1.147,1.147,0,1,1,1.148,1.148A1.148,1.148,0,0,1,0,19Zm20.348-.038a1.147,1.147,0,1,1,1.145,1.148A1.145,1.145,0,0,1,20.348,18.959ZM15.1,15.988a1.352,1.352,0,0,1,.059-.4L12,13.767a1.034,1.034,0,0,1-1.388-.034L7.483,15.577a1.39,1.39,0,0,1,.063.411,1.369,1.369,0,1,1-2.672-.419L1.949,13.815a1.147,1.147,0,1,1-.006-1.673l2.824-1.728a1.369,1.369,0,1,1,2.609-.032L10.6,12.243A1.036,1.036,0,0,1,12,12.2l3.052-1.8a1.368,1.368,0,1,1,2.673-.412,1.379,1.379,0,0,1-.06.4L20.7,12.157a1.146,1.146,0,1,1,.008,1.655L17.767,15.57a1.368,1.368,0,1,1-2.671.418Zm.368-.934a1.368,1.368,0,0,1,1.986-.015l2.939-1.757a1.172,1.172,0,0,1-.04-.3,1.189,1.189,0,0,1,.037-.29l-3.035-1.77a1.369,1.369,0,0,1-1.988,0l-3.038,1.792a1.077,1.077,0,0,1,.034.263,1.041,1.041,0,0,1-.033.258Zm-8.295-.009,3.138-1.852a.99.99,0,0,1-.022-.211.97.97,0,0,1,.019-.193l-3.239-1.87a1.367,1.367,0,0,1-1.974.024L2.265,12.669a1.131,1.131,0,0,1,.043.313,1.106,1.106,0,0,1-.041.3l2.925,1.754a1.368,1.368,0,0,1,1.977.006ZM9.954,7.064a1.368,1.368,0,1,1,1.368,1.369A1.367,1.367,0,0,1,9.954,7.064ZM20.361,7.1a1.146,1.146,0,1,1,1.147,1.148A1.146,1.146,0,0,1,20.361,7.1ZM.014,7.064A1.147,1.147,0,1,1,1.16,8.211,1.147,1.147,0,0,1,.014,7.064ZM15.222,4.288a1.147,1.147,0,1,1,1.145,1.148A1.145,1.145,0,0,1,15.222,4.288ZM5.155,4.25A1.146,1.146,0,1,1,6.3,5.4,1.145,1.145,0,0,1,5.155,4.25Zm5.019-3.1a1.147,1.147,0,1,1,1.148,1.145A1.147,1.147,0,0,1,10.174,1.148Z" transform="translate(77.87 61.162)" stroke="rgba(0,0,0,0)" stroke-width="1" fill="url(#radial-gradient)"/>
    </g>
  </g>
</svg>
