<svg width="37" height="37" viewBox="0 0 37 37" fill="none" xmlns="http://www.w3.org/2000/svg">
<mask id="mask0_673_10046" style="mask-type:alpha" maskUnits="userSpaceOnUse" x="0" y="0" width="37" height="37">
<rect x="0.519531" y="0.34375" width="36" height="36" rx="7.86929" fill="url(#paint0_linear_673_10046)"/>
</mask>
<g mask="url(#mask0_673_10046)">
<rect x="-1" y="0.34375" width="38.1547" height="36" fill="url(#paint1_linear_673_10046)"/>
<rect x="0.0898438" y="-0.167969" width="36.929" height="37.0127" fill="#FF7028"/>
</g>
<mask id="mask1_673_10046" style="mask-type:alpha" maskUnits="userSpaceOnUse" x="5" y="4" width="24" height="27">
<path d="M22.3983 9.53389H20.3086C20.1918 10.96 19.7602 12.3472 19.0411 13.5925C18.1903 15.0667 16.9657 16.2908 15.4915 17.1421C14.0172 17.9934 12.3449 18.4411 10.6422 18.4411C8.94011 18.4411 7.26778 17.9934 5.79297 17.1421L7.5861 14.0362C8.5153 14.5726 9.56931 14.8555 10.6422 14.8555C11.7151 14.8555 12.7691 14.5726 13.6983 14.0362C14.6275 13.4997 15.3993 12.7285 15.9357 11.7993C16.3394 11.0997 16.5993 10.3297 16.7029 9.53389H14.6813L18.5395 4.96289L22.3983 9.53389Z" fill="#13B569"/>
<path fill-rule="evenodd" clip-rule="evenodd" d="M14.9461 12.1572V10.1406H11.3541V14.059C12.0689 13.9754 12.7637 13.7548 13.3994 13.4064C13.9875 13.0841 14.5107 12.6603 14.9461 12.1572ZM14.9446 18.1158C13.8084 18.6163 12.5928 18.9117 11.3542 18.9886C11.3542 19.0668 11.3541 19.1449 11.3541 19.2231C11.3539 19.4363 11.3535 19.6496 11.3531 19.8628C11.3503 21.3558 11.3476 22.849 11.3816 24.3414C11.4211 26.1208 12.5879 27.5893 14.2774 28.1653C15.1733 28.4707 16.0852 28.4553 17.0046 28.4398C17.1105 28.438 17.2166 28.4362 17.3227 28.4349C18.0085 29.3349 18.9234 30.0368 19.9729 30.4662C21.0807 30.9197 22.2944 31.0513 23.4738 30.8464C24.6532 30.642 25.7513 30.109 26.6416 29.3086C27.5318 28.5082 28.1782 27.4731 28.5068 26.3223C28.836 25.171 28.8337 23.9504 28.5005 22.8008C28.1673 21.6511 27.5164 20.6183 26.6232 19.8214C26.2963 19.5294 25.9408 19.2735 25.5647 19.057L26.9072 17.7145V14.1191H19.5911C19.5821 14.1332 19.5731 14.1473 19.5641 14.1614V17.7145H22.1209L19.244 20.5914L21.6372 22.9845L23.1543 21.4674C23.6582 21.5922 24.1253 21.8378 24.5147 22.1853C24.9641 22.5855 25.291 23.1048 25.4582 23.6824C25.6259 24.2601 25.6271 24.8738 25.4616 25.4521C25.2967 26.0303 24.9715 26.5508 24.5238 26.9532C24.0767 27.3551 23.5248 27.6231 22.9322 27.7261C22.3391 27.8292 21.7293 27.7628 21.1729 27.5349C20.6158 27.3071 20.1343 26.9269 19.7839 26.438C19.4335 25.9485 19.228 25.3708 19.1908 24.7702L17.9061 24.8498C17.869 24.8502 17.8322 24.8506 17.7955 24.851C17.4557 24.8548 17.1282 24.8585 16.8011 24.8435C15.6864 24.7914 15.087 24.2166 14.9685 23.1042C14.9456 22.8872 14.945 22.6668 14.945 22.4475C14.9444 22.2386 14.9444 22.0297 14.9444 21.8214V21.8212C14.9438 21.2552 14.9438 20.6892 14.9438 20.1238V20.1231V20.1216C14.9438 19.4529 14.9438 18.7842 14.9446 18.1158Z" fill="#13B569"/>
</mask>
<g mask="url(#mask1_673_10046)">
<rect x="5.79297" y="4.96289" width="23.4358" height="26.0828" fill="white"/>
</g>
<defs>
<linearGradient id="paint0_linear_673_10046" x1="20.8487" y1="3.97491" x2="33.8338" y2="40.8184" gradientUnits="userSpaceOnUse">
<stop stop-color="#0EB5FD"/>
<stop offset="1" stop-color="#2346FF"/>
</linearGradient>
<linearGradient id="paint1_linear_673_10046" x1="25.3638" y1="0.34375" x2="20.0844" y2="36.6357" gradientUnits="userSpaceOnUse">
<stop stop-color="#A1FE9F"/>
<stop offset="0.210844" stop-color="#01F8A1"/>
<stop offset="0.542909" stop-color="#6FAAFC"/>
<stop offset="0.914268" stop-color="#5052FF"/>
</linearGradient>
</defs>
</svg>
