<svg width="143" height="36" viewBox="0 0 143 36" fill="none" xmlns="http://www.w3.org/2000/svg">
<path d="M58.481 12.791H49.858V17.1377H57.4707V20.1921H49.858V26.1836H46.0517V9.73649H58.481V12.791ZM62.4026 11.7806C61.0399 11.7806 60.1235 10.8878 60.1235 9.73649C60.1235 8.5852 61.0399 7.69235 62.4026 7.69235C63.7654 7.69235 64.6817 8.5382 64.6817 9.66601C64.6817 10.8878 63.7654 11.7806 62.4026 11.7806ZM60.57 26.1836V13.5428H64.2353V26.1836H60.57ZM75.3202 13.3549C78.3042 13.3549 80.5598 15.0935 80.5598 18.9469V26.1836H76.8944V19.5108C76.8944 17.4666 75.9546 16.5268 74.3334 16.5268C72.5712 16.5268 71.3024 17.6076 71.3024 19.9337V26.1836H67.6371V13.5428H71.138V15.0231C72.1248 13.9423 73.605 13.3549 75.3202 13.3549ZM88.9809 13.3549C92.8342 13.3549 95.0663 15.1405 95.0663 18.9704V26.1836H91.6359V24.6094C90.9545 25.7607 89.6387 26.3716 87.7826 26.3716C84.8221 26.3716 83.0599 24.7269 83.0599 22.5417C83.0599 20.3096 84.6341 18.7589 88.4874 18.7589H91.4009C91.4009 17.1847 90.4611 16.2683 88.4874 16.2683C87.1482 16.2683 85.7619 16.7148 84.8456 17.4431L83.5298 14.8821C84.9161 13.8953 86.9602 13.3549 88.9809 13.3549ZM88.6989 23.9045C89.9207 23.9045 90.978 23.3406 91.4009 22.1893V20.897H88.8869C87.1717 20.897 86.6313 21.5314 86.6313 22.3773C86.6313 23.2936 87.4066 23.9045 88.6989 23.9045ZM106.067 13.3549C109.051 13.3549 111.306 15.0935 111.306 18.9469V26.1836H107.641V19.5108C107.641 17.4666 106.701 16.5268 105.08 16.5268C103.318 16.5268 102.049 17.6076 102.049 19.9337V26.1836H98.3836V13.5428H101.884V15.0231C102.871 13.9423 104.352 13.3549 106.067 13.3549ZM120.875 26.3716C116.764 26.3716 113.827 23.6695 113.827 19.8632C113.827 16.0569 116.764 13.3549 120.875 13.3549C123.53 13.3549 125.622 14.5062 126.538 16.5738L123.695 18.101C123.014 16.9027 122.003 16.3623 120.852 16.3623C118.996 16.3623 117.539 17.6546 117.539 19.8632C117.539 22.0718 118.996 23.3641 120.852 23.3641C122.003 23.3641 123.014 22.8472 123.695 21.6254L126.538 23.1761C125.622 25.1968 123.53 26.3716 120.875 26.3716ZM140.87 19.9102C140.87 20.1921 140.823 20.5916 140.799 20.897H131.237C131.589 22.4712 132.928 23.4346 134.855 23.4346C136.194 23.4346 137.158 23.0351 138.027 22.2128L139.977 24.3274C138.802 25.6667 137.04 26.3716 134.761 26.3716C130.391 26.3716 127.548 23.6225 127.548 19.8632C127.548 16.0804 130.438 13.3549 134.291 13.3549C138.003 13.3549 140.87 15.8454 140.87 19.9102ZM134.315 16.1274C132.646 16.1274 131.448 17.1377 131.19 18.7589H137.416C137.158 17.1612 135.959 16.1274 134.315 16.1274Z" fill="black"/>
<mask id="mask0_839_7375" style="mask-type:alpha" maskUnits="userSpaceOnUse" x="0" y="0" width="36" height="36">
<rect x="0.933594" y="0.00195312" width="35.0553" height="35.0553" rx="8.04577" fill="url(#paint0_linear_839_7375)"/>
</mask>
<g mask="url(#mask0_839_7375)">
<rect x="-0.542969" y="0.00195312" width="37.1535" height="35.0553" fill="url(#paint1_linear_839_7375)"/>
<rect x="0.515625" y="-0.49707" width="35.96" height="36.0414" fill="#FF7028"/>
</g>
<mask id="mask1_839_7375" style="mask-type:alpha" maskUnits="userSpaceOnUse" x="6" y="4" width="23" height="26">
<path d="M22.236 8.95105H20.2012C20.0874 10.3398 19.6671 11.6906 18.9669 12.9031C18.1384 14.3387 16.9459 15.5306 15.5104 16.3596C14.0748 17.1886 12.4464 17.6246 10.7884 17.6246C9.13096 17.6246 7.50252 17.1886 6.06641 16.3596L7.81248 13.3352C8.7173 13.8576 9.74365 14.133 10.7884 14.133C11.8331 14.133 12.8595 13.8576 13.7643 13.3352C14.6691 12.8128 15.4206 12.0619 15.943 11.1571C16.336 10.4758 16.5892 9.72597 16.6901 8.95105H14.7215L18.4785 4.5L22.236 8.95105Z" fill="#13B569"/>
<path fill-rule="evenodd" clip-rule="evenodd" d="M14.9807 11.5058V9.54199H11.483V13.3577C12.179 13.2762 12.8555 13.0614 13.4746 12.7222C14.0473 12.4083 14.5567 11.9957 14.9807 11.5058ZM14.9792 17.308C13.8729 17.7954 12.6892 18.083 11.4831 18.1579C11.483 18.234 11.483 18.31 11.483 18.3861C11.4827 18.5938 11.4823 18.8014 11.4819 19.0091C11.4793 20.4629 11.4766 21.9169 11.5097 23.3701C11.5482 25.1028 12.6844 26.5328 14.3296 27.0937C15.2019 27.3911 16.0899 27.3761 16.9852 27.361C17.0883 27.3592 17.1916 27.3575 17.2949 27.3562C17.9628 28.2326 18.8536 28.9161 19.8755 29.3342C20.9543 29.7758 22.1362 29.904 23.2846 29.7044C24.4331 29.5054 25.5023 28.9864 26.3693 28.207C27.2362 27.4276 27.8656 26.4196 28.1856 25.2991C28.5061 24.1779 28.5039 22.9894 28.1794 21.8699C27.855 20.7505 27.2211 19.7447 26.3514 18.9687C26.0331 18.6844 25.6869 18.4352 25.3206 18.2244L26.6279 16.9171V13.416H19.5039C19.4951 13.4299 19.4863 13.4437 19.4775 13.4575V16.9171H21.9673L19.1658 19.7185L21.4962 22.0489L22.9735 20.5715C23.4641 20.693 23.9191 20.9322 24.2982 21.2706C24.7358 21.6603 25.0541 22.1659 25.2169 22.7285C25.3803 23.291 25.3814 23.8886 25.2203 24.4517C25.0597 25.0147 24.743 25.5215 24.3071 25.9134C23.8717 26.3048 23.3342 26.5657 22.7572 26.6661C22.1797 26.7664 21.5859 26.7017 21.044 26.4798C20.5016 26.258 20.0327 25.8878 19.6916 25.4117C19.3504 24.935 19.1502 24.3725 19.114 23.7877L17.863 23.8652C17.8269 23.8656 17.791 23.866 17.7552 23.8664C17.4244 23.8701 17.1055 23.8736 16.787 23.8591C15.7016 23.8083 15.1179 23.2486 15.0025 22.1654C14.9802 21.9541 14.9796 21.7395 14.9796 21.5259C14.979 21.3225 14.979 21.1191 14.979 20.9163V20.916C14.9785 20.3649 14.9785 19.8138 14.9785 19.2632V19.2625V19.2615C14.9785 18.6102 14.9785 17.959 14.9792 17.308Z" fill="#13B569"/>
</mask>
<g mask="url(#mask1_839_7375)">
<rect x="6.06641" y="4.5" width="22.8208" height="25.3983" fill="white"/>
</g>
<defs>
<linearGradient id="paint0_linear_839_7375" x1="20.7293" y1="3.53783" x2="33.3737" y2="39.4146" gradientUnits="userSpaceOnUse">
<stop stop-color="#0EB5FD"/>
<stop offset="1" stop-color="#2346FF"/>
</linearGradient>
<linearGradient id="paint1_linear_839_7375" x1="25.129" y1="0.00195334" x2="19.9882" y2="35.3416" gradientUnits="userSpaceOnUse">
<stop stop-color="#A1FE9F"/>
<stop offset="0.210844" stop-color="#01F8A1"/>
<stop offset="0.542909" stop-color="#6FAAFC"/>
<stop offset="0.914268" stop-color="#5052FF"/>
</linearGradient>
</defs>
</svg>
