<svg width="14" height="16" viewBox="0 0 14 16" fill="none" xmlns="http://www.w3.org/2000/svg">
<path d="M2 15V14H1C0.716667 14 0.479333 13.904 0.288 13.712C0.0966668 13.52 0.000666667 13.2827 0 13V3C0 2.71667 0.0960001 2.47934 0.288 2.288C0.48 2.09667 0.717333 2.00067 1 2H2V1C2 0.71667 2.096 0.479337 2.288 0.288004C2.48 0.0966702 2.71733 0.000670115 3 3.44827e-06C3.28267 -0.000663218 3.52033 0.0953369 3.713 0.288004C3.90567 0.48067 4.00133 0.718003 4 1V2H5C5.28333 2 5.521 2.096 5.713 2.288C5.905 2.48 6.00067 2.71734 6 3V13C6 13.2833 5.904 13.521 5.712 13.713C5.52 13.905 5.28267 14.0007 5 14H4V15C4 15.2833 3.904 15.521 3.712 15.713C3.52 15.905 3.28267 16.0007 3 16C2.71733 15.9993 2.48 15.9033 2.288 15.712C2.096 15.5207 2 15.2833 2 15ZM10 15V11H9C8.71667 11 8.47933 10.904 8.288 10.712C8.09667 10.52 8.00067 10.2827 8 10V5C8 4.71667 8.096 4.47934 8.288 4.288C8.48 4.09667 8.71733 4.00067 9 4H10V1C10 0.71667 10.096 0.479337 10.288 0.288004C10.48 0.0966702 10.7173 0.000670115 11 3.44827e-06C11.2827 -0.000663218 11.5203 0.0953369 11.713 0.288004C11.9057 0.48067 12.0013 0.718003 12 1V4H13C13.2833 4 13.521 4.096 13.713 4.288C13.905 4.48 14.0007 4.71734 14 5V10C14 10.2833 13.904 10.521 13.712 10.713C13.52 10.905 13.2827 11.0007 13 11H12V15C12 15.2833 11.904 15.521 11.712 15.713C11.52 15.905 11.2827 16.0007 11 16C10.7173 15.9993 10.48 15.9033 10.288 15.712C10.096 15.5207 10 15.2833 10 15Z" fill="currentColor"/>
</svg>
