<svg viewBox="0 0 20 20" fill="none" xmlns="http://www.w3.org/2000/svg">
  <path
    d="M5.44824 1.25977C5.80713 1.2598 6.09851 1.55129 6.09863 1.91016V3.28223H6.27051C7.29216 3.28223 8.12 4.11119 8.12012 5.13281V14.8672C8.12002 15.8888 7.29217 16.7168 6.27051 16.7168H6.09863V18.0898C6.0984 18.4486 5.80706 18.7392 5.44824 18.7393C5.08946 18.7392 4.79809 18.4486 4.79785 18.0898V16.7168H4.62598C3.60437 16.7167 2.77549 15.8888 2.77539 14.8672L2.77539 5.13281C2.77551 4.11123 3.60438 3.2823 4.62598 3.28223H4.79785V1.91016C4.79797 1.55132 5.08939 1.25984 5.44824 1.25977ZM14.5488 1.25977C14.9077 1.25979 15.1991 1.55129 15.1992 1.91016V5.30469H15.3711C16.3927 5.30469 17.2206 6.13365 17.2207 7.15527V12.8447C17.2206 13.8664 16.3928 14.6943 15.3711 14.6943H15.1992V18.0898C15.199 18.4486 14.9076 18.7392 14.5488 18.7393C14.1902 18.7391 13.8987 18.4485 13.8984 18.0898V14.6943H13.7266C12.7051 14.6941 11.876 13.8663 11.876 12.8447V7.15527C11.8761 6.13377 12.7051 5.30489 13.7266 5.30469H13.8984V1.91016C13.8986 1.5514 14.1901 1.25997 14.5488 1.25977ZM4.62598 4.58301C4.32235 4.58308 4.07629 4.8292 4.07617 5.13281V14.8672C4.07627 15.1708 4.32234 15.4169 4.62598 15.417H6.27051C6.5742 15.417 6.82021 15.1709 6.82031 14.8672V5.13281C6.82019 4.82916 6.57419 4.58301 6.27051 4.58301H4.62598ZM13.7266 6.60449C13.4231 6.60469 13.1769 6.85174 13.1768 7.15527V12.8447C13.1768 13.1483 13.423 13.3943 13.7266 13.3945H15.3711C15.6748 13.3945 15.9208 13.1484 15.9209 12.8447V7.15527C15.9208 6.85162 15.6748 6.60449 15.3711 6.60449H13.7266Z"
    fill="currentColor" />
</svg>
  
