<svg enable-background="new 0 0 844.7 558.2" viewBox="0 0 844.7 558.2" xmlns="http://www.w3.org/2000/svg"><path d="m-162.7 119.5-24.5 88.1h-25.5l-34.1-129h28l20.3 93.4h.7l24.1-93.4h22.8l24.1 93.4h.7l20.4-93.4h28l-34.2 129h-25.5l-24.5-88.1zm122.2 70.7c11.3 0 20.7-7.4 20.7-17.8v-7l-20.2 1.2c-9.7.7-15.3 5.1-15.3 11.9 0 7.3 5.9 11.7 14.8 11.7zm-8.6 18.9c-18.2 0-32.1-11.8-32.1-29 0-17.4 13.4-27.5 37.3-29l24.1-1.4v-6.3c0-8.9-6.3-14.1-16.1-14.1-9.7 0-15.9 4.8-17.2 11.9h-23.9c1-18.6 16.8-31.4 42.2-31.4 24.6 0 40.6 12.7 40.6 32v65.9h-25.2v-14.7h-.5c-5.4 10.1-17.2 16.1-29.2 16.1zm72.4-130.5h26.1v129h-26.1zm44.3 0h26.1v129h-26.1zm86.7 50.4c-11.4 0-19.7 8.7-20.6 20.6h40.7c-.5-12.2-8.5-20.6-20.1-20.6zm20.5 49.3h24c-2.9 18.8-20 31.4-43.7 31.4-29.5 0-47.2-18.9-47.2-49.5s17.9-50.4 46.2-50.4c27.9 0 45.5 18.9 45.5 48v8h-66v1.6c0 13.7 8.7 23.1 22 23.1 9.4-.2 16.7-4.9 19.2-12.2zm45.1-88.6h26.1v22.1h17.7v19.7h-17.7v45.8c0 7.3 3.6 10.8 11.3 10.8 2.3 0 4.7-.2 6.3-.4v19.2c-2.7.6-7.2 1.1-12.4 1.1-22.5 0-31.3-7.5-31.3-26.2v-50.3h-13.5v-19.7h13.5zm117.3 120.1c-37.5 0-61-25.1-61-66.8 0-41.6 23.7-66.7 61-66.7 31 0 54.6 19.7 56.7 48.5h-26.3c-2.5-15.8-14.7-26.2-30.4-26.2-20.4 0-33.5 17.1-33.5 44.2 0 27.5 13 44.5 33.6 44.5 16 0 27.5-9.4 30.4-24.7h26.3c-3.1 29-25.1 47.2-56.8 47.2zm115.1-.2c-29 0-47.5-18.6-47.5-50 0-31 18.8-49.9 47.5-49.9s47.5 18.8 47.5 49.9c0 31.5-18.5 50-47.5 50zm0-19.9c12.8 0 20.9-10.8 20.9-30 0-19-8.2-30-20.9-30s-21 11-21 30c0 19.2 8.2 30 21 30zm60.9 17.9v-95.8h25.2v17.1h.5c5.1-11.9 15.2-18.9 30-18.9 21.3 0 33.2 13.4 33.2 35.8v61.8h-26.1v-56.3c0-12.5-5.9-19.7-17.6-19.7s-19.1 8.6-19.1 21v55zm105.4 0v-95.8h25.2v17.1h.5c5.1-11.9 15.2-18.9 29.9-18.9 21.3 0 33.2 13.4 33.2 35.8v61.8h-26.1v-56.3c0-12.5-5.9-19.7-17.6-19.7s-19.1 8.6-19.1 21v55zm148.5-78.6c-11.4 0-19.7 8.7-20.6 20.6h40.7c-.5-12.2-8.5-20.6-20.1-20.6zm20.4 49.3h24c-2.9 18.8-20 31.4-43.7 31.4-29.5 0-47.2-18.9-47.2-49.5s17.9-50.4 46.2-50.4c27.9 0 45.5 18.9 45.5 48v8h-66v1.6c0 13.7 8.7 23.1 22 23.1 9.5-.2 16.8-4.9 19.2-12.2zm125.2-30.9h-24.2c-1.5-10.1-8.2-17.2-18.9-17.2-12.9 0-20.9 10.9-20.9 29.4 0 18.9 8 29.6 21 29.6 10.5 0 17.2-6.3 18.9-16.7h24.3c-1.3 22.6-18.2 37.2-43.4 37.2-28.9 0-47.2-18.8-47.2-50 0-30.7 18.3-49.9 47-49.9 25.8-.1 42.3 15.9 43.4 37.6zm19.7-57.7h26.1v22.1h17.7v19.7h-17.7v45.8c0 7.3 3.6 10.8 11.3 10.8 2.3 0 4.7-.2 6.3-.4v19.2c-2.7.6-7.1 1.1-12.4 1.1-22.5 0-31.3-7.5-31.3-26.2v-50.3h-13.5v-19.7h13.5z" fill="#3999fa" transform="matrix(.38999999 0 0 .38999999 389.28232580961 237.91599816447)"/><path d="m54.1 47.7c77.3-75.7 202.6-75.7 280 0l9.3 9.1c3.9 3.8 3.9 9.9 0 13.7l-31.8 31.2c-1.9 1.9-5.1 1.9-7 0l-12.8-12.5c-53.9-52.8-141.4-52.8-195.3 0l-13.7 13.4c-1.9 1.9-5.1 1.9-7 0l-31.9-31.2c-3.9-3.8-3.9-9.9 0-13.7zm345.8 64.4 28.3 27.7c3.9 3.8 3.9 9.9 0 13.7l-127.7 125.1c-3.9 3.8-10.1 3.8-14 0l-90.7-88.8c-1-.9-2.5-.9-3.5 0l-90.6 88.8c-3.9 3.8-10.1 3.8-14 0l-127.8-125c-3.9-3.8-3.9-9.9 0-13.7l28.3-27.7c3.9-3.8 10.1-3.8 14 0l90.7 88.8c1 .9 2.5.9 3.5 0l90.6-88.8c3.9-3.8 10.1-3.8 14 0l90.7 88.8c1 .9 2.5.9 3.5 0l90.7-88.8c3.8-3.9 10.1-3.9 14-.1z" fill="#3a99fb" transform="matrix(.38999999 0 0 .38999999 91.41905422713 226.00033081)"/></svg>