<?xml version="1.0" encoding="utf-8"?>
<!-- Generator: Adobe Illustrator 25.0.1, SVG Export Plug-In . SVG Version: 6.00 Build 0)  -->
<svg version="1.0" id="katman_1" xmlns="http://www.w3.org/2000/svg" xmlns:xlink="http://www.w3.org/1999/xlink" x="0px" y="0px"
	 viewBox="0 0 844.7 558.2" style="enable-background:new 0 0 844.7 558.2;" xml:space="preserve">
<style type="text/css">
	.st0{display:none;opacity:9.390311e-03;}
	.st1{display:inline;}
	.st2{fill:#E6E6E6;}
	.st3{fill:#797979;}
	.st4{fill:#3E3C55;}
	.st5{fill:#FFFFFF;}
	.st6{fill:#5FBE91;}
	.st7{display:none;opacity:0.4742;}
	.st8{fill:#4D4D4D;}
	.st9{fill:#747474;}
	.st10{display:none;opacity:1.087934e-02;}
	.st11{fill:#8A8A8A;}
	.st12{fill:#4E4E4E;}
	.st13{display:none;opacity:1.057603e-02;}
	.st14{display:none;opacity:1.012066e-02;}
	.st15{fill:#5E5E5E;}
	.st16{display:none;opacity:0.8114;}
	.st17{display:none;opacity:9.095758e-03;}
	.st18{display:none;}
	.st19{display:none;opacity:2.063961e-02;}
	.st20{fill:#343434;}
	.st21{fill:#8B8B8B;}
	.st22{fill:#3B3B3A;}
	.st23{fill:#131313;}
	.st24{fill:#393939;}
	.st25{fill:#3999FA;}
	.st26{fill:#3A99FB;}
	.st27{display:none;opacity:2.587139e-02;}
	.st28{fill:#E60079;}
	.st29{display:none;opacity:2.537146e-02;}
	.st30{fill:#EC1B6C;}
	.st31{display:none;opacity:2.517080e-02;}
	.st32{fill:#00A6C4;}
	.st33{display:none;opacity:1.973308e-03;}
	.st34{fill:#0090FF;}
	.st35{display:none;opacity:1;}
	.st36{fill:#529BEE;}
	.st37{display:none;opacity:2.397605e-02;}
</style>
<g>
	<g transform="matrix(0.6700000166893005,0,0,0.6700000166893005,-69.53985595703125,38.55474853515625)" class="st0">
		<g transform="matrix(1,0,0,1,551.0499877929688,1412.6600341796875)" class="st1">
			<path class="st2" d="M214.7,83.3h-85.5l2.9-37.8h79.7L214.7,83.3z"/>
		</g>
		<g transform="matrix(1,0,0,1,551.802978515625,1431.77001953125)" class="st1">
			<path class="st2" d="M124,68.6h96v-8.5h-96V68.6z"/>
		</g>
		<g transform="matrix(1,0,0,1,551.552001953125,1253.81494140625)" class="st1">
			<path class="st3" d="M336.2-40.3H7.8c-2.3,0-4.5,0.9-6.2,2.6c-1.6,1.6-2.6,3.9-2.6,6.2V169h345.8V-31.5c0-1.1-0.2-2.3-0.7-3.3
				c-0.4-1.1-1.1-2-1.9-2.8c-0.8-0.8-1.8-1.5-2.8-1.9C338.4-40.1,337.3-40.3,336.2-40.3z"/>
		</g>
		<g transform="matrix(1,0,0,1,551.552001953125,1379.3800048828125)" class="st1">
			<path class="st2" d="M-0.9,43.4v33c0,1.2,0.2,2.3,0.7,3.4c0.4,1.1,1.1,2,1.9,2.9s1.8,1.5,2.8,1.9c1.1,0.4,2.2,0.7,3.3,0.7h328.4
				c2.3,0,4.5-0.9,6.2-2.6s2.6-3.9,2.6-6.2v-33H-0.9z"/>
		</g>
		<g transform="matrix(1,0,0,1,551.8040161132812,1255.074951171875)" class="st1">
			<path class="st2" d="M327.6-23.4H16.4v175.5h311.2V-23.4z"/>
		</g>
		<g transform="matrix(1,0,0,1,551.8040161132812,1379.1300048828125)" class="st1">
			<path class="st4" d="M172,72.9c4.9,0,8.8-3.8,8.8-8.6c0-4.7-3.9-8.6-8.8-8.6c-4.9,0-8.8,3.8-8.8,8.6
				C163.2,69.1,167.1,72.9,172,72.9z"/>
		</g>
		<g transform="matrix(1,0,0,1,405.7760009765625,1173.135009765625)" class="st1">
			<path class="st5" d="M172,66.1c0.8,0,1.5-0.8,1.5-1.8c0-1-0.7-1.8-1.5-1.8c-0.8,0-1.5,0.8-1.5,1.8
				C170.5,65.3,171.1,66.1,172,66.1z"/>
		</g>
		<g transform="matrix(1,0,0,1,412.05999755859375,1173.135009765625)" class="st1">
			<path class="st5" d="M172,66.1c1,0,1.8-0.8,1.8-1.8c0-1-0.8-1.8-1.8-1.8c-1,0-1.8,0.8-1.8,1.8C170.2,65.3,171,66.1,172,66.1z"/>
		</g>
		<g transform="matrix(1,0,0,1,418.3429870605469,1173.135009765625)" class="st1">
			<path class="st5" d="M172,66.1c0.8,0,1.5-0.8,1.5-1.8c0-1-0.7-1.8-1.5-1.8c-0.8,0-1.5,0.8-1.5,1.8
				C170.5,65.3,171.1,66.1,172,66.1z"/>
		</g>
		<g transform="matrix(1,0,0,1,551.301025390625,1252.5550537109375)" class="st1">
			<path class="st5" d="M319-9.3H24.9V138H319V-9.3z"/>
		</g>
		<g transform="matrix(1,0,0,1,454.2850036621094,1228.60498046875)" class="st1">
			<path class="st2" d="M141.6,36.9c-0.3,0-0.5,0.1-0.7,0.3c-0.2,0.2-0.3,0.5-0.3,0.7v52.9c0,0.3,0.1,0.5,0.3,0.7
				c0.2,0.2,0.5,0.3,0.7,0.3h60.8c0.3,0,0.5-0.1,0.7-0.3c0.2-0.2,0.3-0.5,0.3-0.7V37.9c0-0.3-0.1-0.6-0.3-0.7
				c-0.2-0.2-0.5-0.3-0.7-0.3H141.6z"/>
		</g>
		<g transform="matrix(1,0,0,1,551.552001953125,1228.85498046875)" class="st1">
			<path class="st2" d="M141.8,37.1c-0.3,0-0.5,0.1-0.7,0.3c-0.2,0.2-0.3,0.5-0.3,0.7v52.4c0,0.3,0.1,0.5,0.3,0.7
				c0.2,0.2,0.5,0.3,0.7,0.3h60.3c0.3,0,0.5-0.1,0.7-0.3c0.2-0.2,0.3-0.5,0.3-0.7V38.1c0-0.3-0.1-0.5-0.3-0.7
				c-0.2-0.2-0.5-0.3-0.7-0.3H141.8z"/>
		</g>
		<g transform="matrix(1,0,0,1,648.5689697265625,1228.35498046875)" class="st1">
			<path class="st2" d="M141.3,36.6c-0.3,0-0.5,0.1-0.7,0.3c-0.2,0.2-0.3,0.5-0.3,0.7V91c0,0.3,0.1,0.5,0.3,0.7
				c0.2,0.2,0.5,0.3,0.7,0.3h61.3c0.3,0,0.5-0.1,0.7-0.3c0.2-0.2,0.3-0.5,0.3-0.7V37.6c0-0.3-0.1-0.5-0.3-0.7
				c-0.2-0.2-0.5-0.3-0.7-0.3H141.3z"/>
		</g>
		<g transform="matrix(1,0,0,1,453.531005859375,1284.324951171875)" class="st1">
			<path class="st2" d="M143.5,62.3c-0.6,0-1.1,0.2-1.5,0.6c-0.4,0.4-0.6,0.9-0.6,1.4c0,0.5,0.2,1,0.6,1.4c0.4,0.4,0.9,0.6,1.5,0.6
				h57c0.6,0,1.1-0.2,1.5-0.6c0.4-0.4,0.6-0.9,0.6-1.4c0-0.5-0.2-1.1-0.6-1.4c-0.4-0.4-0.9-0.6-1.5-0.6H143.5z"/>
		</g>
		<g transform="matrix(1,0,0,1,437.6960144042969,1294.6600341796875)" class="st1">
			<path class="st6" d="M159.3,62.1c-0.6,0-1.1,0.2-1.5,0.7c-0.4,0.4-0.6,1-0.6,1.6c0,0.6,0.2,1.2,0.6,1.6c0.4,0.4,0.9,0.7,1.5,0.7
				h25.4c0.6,0,1.1-0.2,1.5-0.7c0.4-0.4,0.6-1,0.6-1.6c0-0.6-0.2-1.2-0.6-1.6c-0.4-0.4-0.9-0.7-1.5-0.7H159.3z"/>
		</g>
		<g transform="matrix(1,0,0,1,552.0560302734375,1284.324951171875)" class="st1">
			<path class="st2" d="M143.5,62.3c-0.6,0-1.1,0.2-1.5,0.6c-0.4,0.4-0.6,0.9-0.6,1.4c0,0.5,0.2,1,0.6,1.4c0.4,0.4,0.9,0.6,1.5,0.6
				h57c0.6,0,1.1-0.2,1.5-0.6c0.4-0.4,0.6-0.9,0.6-1.4c0-0.5-0.2-1.1-0.6-1.4c-0.4-0.4-0.9-0.6-1.5-0.6H143.5z"/>
		</g>
		<g transform="matrix(1,0,0,1,536.2210083007812,1294.6600341796875)" class="st1">
			<path class="st6" d="M159.3,62.1c-0.6,0-1.1,0.2-1.5,0.7c-0.4,0.4-0.6,1-0.6,1.6c0,0.6,0.2,1.2,0.6,1.6c0.4,0.4,0.9,0.7,1.5,0.7
				h25.4c0.6,0,1.1-0.2,1.5-0.7c0.4-0.4,0.6-1,0.6-1.6c0-0.6-0.2-1.2-0.6-1.6c-0.4-0.4-0.9-0.7-1.5-0.7H159.3z"/>
		</g>
		<g transform="matrix(1,0,0,1,648.0670166015625,1284.324951171875)" class="st1">
			<path class="st2" d="M143.5,62.3c-0.6,0-1.1,0.2-1.5,0.6c-0.4,0.4-0.6,0.9-0.6,1.4c0,0.5,0.2,1,0.6,1.4c0.4,0.4,0.9,0.6,1.5,0.6
				h57c0.6,0,1.1-0.2,1.5-0.6c0.4-0.4,0.6-0.9,0.6-1.4c0-0.5-0.2-1.1-0.6-1.4c-0.4-0.4-0.9-0.6-1.5-0.6H143.5z"/>
		</g>
		<g transform="matrix(1,0,0,1,453.531005859375,1273.7349853515625)" class="st1">
			<path class="st2" d="M143.5,62.3c-0.6,0-1.1,0.2-1.5,0.6c-0.4,0.4-0.6,0.9-0.6,1.4c0,0.5,0.2,1,0.6,1.4c0.4,0.4,0.9,0.6,1.5,0.6
				h57c0.6,0,1.1-0.2,1.5-0.6c0.4-0.4,0.6-0.9,0.6-1.4c0-0.5-0.2-1.1-0.6-1.4c-0.4-0.4-0.9-0.6-1.5-0.6H143.5z"/>
		</g>
		<g transform="matrix(1,0,0,1,552.0560302734375,1273.7349853515625)" class="st1">
			<path class="st2" d="M143.5,62.3c-0.6,0-1.1,0.2-1.5,0.6c-0.4,0.4-0.6,0.9-0.6,1.4c0,0.5,0.2,1,0.6,1.4c0.4,0.4,0.9,0.6,1.5,0.6
				h57c0.6,0,1.1-0.2,1.5-0.6c0.4-0.4,0.6-0.9,0.6-1.4c0-0.5-0.2-1.1-0.6-1.4c-0.4-0.4-0.9-0.6-1.5-0.6H143.5z"/>
		</g>
		<g transform="matrix(1,0,0,1,648.0670166015625,1273.7349853515625)" class="st1">
			<path class="st2" d="M143.5,62.3c-0.6,0-1.1,0.2-1.5,0.6c-0.4,0.4-0.6,0.9-0.6,1.4c0,0.5,0.2,1,0.6,1.4c0.4,0.4,0.9,0.6,1.5,0.6
				h57c0.6,0,1.1-0.2,1.5-0.6c0.4-0.4,0.6-0.9,0.6-1.4c0-0.5-0.2-1.1-0.6-1.4c-0.4-0.4-0.9-0.6-1.5-0.6H143.5z"/>
		</g>
		<g transform="matrix(1,0,0,1,632.4829711914062,1294.6600341796875)" class="st1">
			<path class="st6" d="M159.1,62.1c-0.6,0-1.1,0.2-1.5,0.7c-0.4,0.4-0.6,1-0.6,1.6c0,0.6,0.2,1.2,0.6,1.6c0.4,0.4,1,0.7,1.5,0.7
				h25.8c0.6,0,1.1-0.2,1.5-0.7c0.4-0.4,0.6-1,0.6-1.6c0-0.6-0.2-1.2-0.6-1.6c-0.4-0.4-1-0.7-1.5-0.7H159.1z"/>
		</g>
	</g>
	<g transform="matrix(0.6399999856948853,0,0,0.6399999856948853,-457.61920166015625,72.67938232421875)" class="st7">
		<g transform="matrix(1,0,0,1,1183.780029296875,1265.8790283203125)" class="st1">
			<path class="st8" d="M263.9-45.1H96.1v224.9h167.8V-45.1z"/>
		</g>
		<g transform="matrix(1,0,0,1,1183.780029296875,1191.2049560546875)" class="st1">
			<path class="st9" d="M292.8,22.7H67.3V112h225.5V22.7z"/>
		</g>
		<g transform="matrix(1,0,0,1,1183.780029296875,1290.7760009765625)" class="st1">
			<path class="st9" d="M292.8,22.7H67.3V112h225.5V22.7z"/>
		</g>
		<g transform="matrix(1,0,0,1,1183.780029296875,1390.344970703125)" class="st1">
			<path class="st9" d="M292.8,22.7H67.3V112h225.5V22.7z"/>
		</g>
		<g transform="matrix(1,0,0,1,1183.780029296875,1191.2850341796875)" class="st1">
			<path class="st6" d="M292.8,60.5H67.3v13.7h225.5V60.5z"/>
		</g>
		<g transform="matrix(1,0,0,1,1183.780029296875,1290.85400390625)" class="st1">
			<path class="st6" d="M292.8,60.5H67.3v13.7h225.5V60.5z"/>
		</g>
		<g transform="matrix(1,0,0,1,1183.780029296875,1390.426025390625)" class="st1">
			<path class="st6" d="M292.8,60.5H67.3v13.7h225.5V60.5z"/>
		</g>
		<g transform="matrix(1,0,0,1,1252.625,1159.43994140625)" class="st1">
			<path class="st6" d="M180,72.5c2.9,0,5.2-2.3,5.2-5.2c0-2.8-2.3-5.1-5.2-5.1c-2.9,0-5.2,2.3-5.2,5.1
				C174.9,70.2,177.2,72.5,180,72.5z"/>
		</g>
		<g transform="matrix(1,0,0,1,1270.6949462890625,1159.43994140625)" class="st1">
			<path class="st6" d="M180,72.5c2.9,0,5.2-2.3,5.2-5.2c0-2.8-2.3-5.1-5.2-5.1c-2.9,0-5.2,2.3-5.2,5.1
				C174.9,70.2,177.2,72.5,180,72.5z"/>
		</g>
		<g transform="matrix(1,0,0,1,1288.7640380859375,1159.43994140625)" class="st1">
			<path class="st6" d="M180,72.5c2.9,0,5.2-2.3,5.2-5.2c0-2.8-2.3-5.1-5.2-5.1c-2.9,0-5.2,2.3-5.2,5.1
				C174.9,70.2,177.2,72.5,180,72.5z"/>
		</g>
		<g transform="matrix(1,0,0,1,1252.625,1257.300048828125)" class="st1">
			<path class="st6" d="M180,72.5c2.9,0,5.2-2.3,5.2-5.2c0-2.8-2.3-5.2-5.2-5.2c-2.9,0-5.2,2.3-5.2,5.2
				C174.9,70.2,177.2,72.5,180,72.5z"/>
		</g>
		<g transform="matrix(1,0,0,1,1270.6949462890625,1257.300048828125)" class="st1">
			<path class="st6" d="M180,72.5c2.9,0,5.2-2.3,5.2-5.2c0-2.8-2.3-5.2-5.2-5.2c-2.9,0-5.2,2.3-5.2,5.2
				C174.9,70.2,177.2,72.5,180,72.5z"/>
		</g>
		<g transform="matrix(1,0,0,1,1288.7640380859375,1257.300048828125)" class="st1">
			<path class="st6" d="M180,72.5c2.9,0,5.2-2.3,5.2-5.2c0-2.8-2.3-5.2-5.2-5.2c-2.9,0-5.2,2.3-5.2,5.2
				C174.9,70.2,177.2,72.5,180,72.5z"/>
		</g>
		<g transform="matrix(1,0,0,1,1252.625,1355.1500244140625)" class="st1">
			<path class="st6" d="M180,72.5c2.9,0,5.2-2.3,5.2-5.1c0-2.9-2.3-5.2-5.2-5.2c-2.9,0-5.2,2.3-5.2,5.2
				C174.9,70.2,177.2,72.5,180,72.5z"/>
		</g>
		<g transform="matrix(1,0,0,1,1270.6949462890625,1355.1500244140625)" class="st1">
			<path class="st6" d="M180,72.5c2.9,0,5.2-2.3,5.2-5.1c0-2.9-2.3-5.2-5.2-5.2c-2.9,0-5.2,2.3-5.2,5.2
				C174.9,70.2,177.2,72.5,180,72.5z"/>
		</g>
		<g transform="matrix(1,0,0,1,1288.7640380859375,1355.1500244140625)" class="st1">
			<path class="st6" d="M180,72.5c2.9,0,5.2-2.3,5.2-5.1c0-2.9-2.3-5.2-5.2-5.2c-2.9,0-5.2,2.3-5.2,5.2
				C174.9,70.2,177.2,72.5,180,72.5z"/>
		</g>
	</g>
	<g transform="matrix(1,0,0,1,-596.4180297851562,-462)" class="st10">
		<g transform="matrix(1,0,0,1,858.1649780273438,1406.77001953125)" class="st1">
			<path class="st11" d="M110.6,14.5c-0.4,0-0.7,0.1-1,0.4c-0.3,0.2-0.4,0.6-0.4,1v54.4c0,0.4,0.1,0.7,0.4,1c0.3,0.3,0.6,0.4,1,0.4
				h9.3c0.4,0,0.7-0.1,1-0.4c0.3-0.2,0.4-0.6,0.4-1V15.9c0-0.4-0.1-0.7-0.4-1c-0.3-0.3-0.6-0.4-1-0.4H110.6z"/>
		</g>
		<g transform="matrix(1,0,0,1,935.1929931640625,1406.77001953125)" class="st1">
			<path class="st11" d="M110.6,14.5c-0.4,0-0.7,0.1-1,0.4c-0.3,0.2-0.4,0.6-0.4,1v54.4c0,0.4,0.1,0.7,0.4,1c0.3,0.3,0.6,0.4,1,0.4
				h9.3c0.4,0,0.7-0.1,1-0.4c0.3-0.2,0.4-0.6,0.4-1V15.9c0-0.4-0.1-0.7-0.4-1c-0.3-0.3-0.6-0.4-1-0.4H110.6z"/>
		</g>
		<g transform="matrix(1,0,0,1,938.3270263671875,1334.2900390625)" class="st1">
			<path class="st11" d="M150.7,43.8l-71-5.5l56.7,9.6l13.6-2.4L150.7,43.8z"/>
		</g>
		<g transform="matrix(1,0,0,1,938.8489990234375,1334.6409912109375)" class="st1">
			<path class="st12" d="M136.4,46.7l13.6-2.3l0.1-0.3l0.6,0.1l-0.8,1.8l-13.6,2.3L79.7,37.9l16.8,2L136.4,46.7z"/>
		</g>
		<g transform="matrix(1,0,0,1,777.4810180664062,1334.2900390625)" class="st1">
			<path class="st11" d="M150.7,43.8l-71-5.5l56.7,9.6l13.6-2.4L150.7,43.8z"/>
		</g>
		<g transform="matrix(1,0,0,1,776.697021484375,1334.6409912109375)" class="st1">
			<path class="st12" d="M136.4,46.7l13.6-2.3l0.1-0.3l0.6,0.1l-0.8,1.8l-13.6,2.3L79.7,37.9l16.8,2L136.4,46.7z"/>
		</g>
		<g transform="matrix(1,0,0,1,897.85400390625,1373.7550048828125)" class="st1">
			<path class="st11" d="M203.2,32.7l-6,0.3l-55,23.2l-3.1,2.6l-10,8.3H97.7l-9.4-8.3l-3.6-3.2L31.9,33.2l-4.7-0.5l15.7-7.6H43
				c3.6-3.4,34.3-6,71.7-6c37.4,0,68.2,2.6,71.7,6h0.3L203.2,32.7z"/>
		</g>
		<g transform="matrix(1,0,0,1,817.8209838867188,1346.405029296875)" class="st1">
			<path class="st11" d="M122.5,52.9c0.1-0.3,0.2-0.6,0.2-1V39.5c0-0.8-0.3-1.5-0.9-2.1c-0.6-0.5-1.3-0.9-2.1-0.9h-1.2
				c1-1,1.6-2.2,1.9-3.6c0.3-1.4,0.1-2.8-0.4-4.1c-0.5-1.3-1.4-2.4-2.6-3.1c-1.2-0.8-2.5-1.2-3.9-1.2c-1.4,0-2.8,0.4-3.9,1.2
				c-1.2,0.8-2.1,1.9-2.6,3.1c-0.5,1.3-0.7,2.7-0.4,4.1c0.3,1.4,0.9,2.6,1.9,3.6h-1.2c-0.4,0-0.8,0.1-1.1,0.2
				c-0.4,0.1-0.7,0.4-1,0.6c-0.3,0.3-0.5,0.6-0.6,1c-0.1,0.3-0.2,0.7-0.2,1.1v12.4c0,0.5,0.1,1,0.4,1.5c-0.9,0.2-1.8,0.3-2.7,0.5
				c-0.5,0.1-1,0.4-1.4,0.9c-0.3,0.4-0.5,1-0.5,1.5v2.9c0,0.6,0.3,1.3,0.7,1.7c0.5,0.5,1.1,0.7,1.7,0.7h27.6v-7.3
				C127.7,53.7,125.1,53.2,122.5,52.9z"/>
		</g>
		<g transform="matrix(1,0,0,1,975.2739868164062,1346.405029296875)" class="st1">
			<path class="st11" d="M128.3,53.9c-0.9-0.2-1.8-0.4-2.7-0.5c0.3-0.4,0.4-0.9,0.4-1.5V39.5c0-0.4-0.1-0.8-0.2-1.1
				c-0.1-0.4-0.4-0.7-0.6-1c-0.3-0.3-0.6-0.5-1-0.6c-0.4-0.2-0.7-0.2-1.1-0.2h-1.2c1-1,1.6-2.2,1.9-3.6c0.3-1.4,0.1-2.8-0.4-4.1
				c-0.5-1.3-1.4-2.4-2.6-3.1c-1.2-0.8-2.5-1.2-3.9-1.2c-1.4,0-2.8,0.4-3.9,1.2c-1.2,0.8-2.1,1.9-2.6,3.1c-0.5,1.3-0.7,2.7-0.4,4.1
				c0.3,1.4,0.9,2.6,1.9,3.6h-1.2c-0.4,0-0.8,0.1-1.1,0.2c-0.4,0.1-0.7,0.4-1,0.6c-0.3,0.3-0.5,0.6-0.6,1c-0.1,0.3-0.2,0.7-0.2,1.1
				v12.4c0,0.3,0.1,0.7,0.2,1c-2.6,0.3-5.2,0.8-7.7,1.4v7.3h27.6c0.6,0,1.3-0.3,1.7-0.7c0.5-0.4,0.7-1.1,0.7-1.7v-2.9
				c0-0.6-0.2-1.1-0.5-1.5C129.4,54.3,128.9,54,128.3,53.9z"/>
		</g>
		<g transform="matrix(1,0,0,1,1015.6179809570312,1334.2900390625)" class="st1">
			<path class="st11" d="M79.7,43.8l71-5.5l-56.7,9.6l-13.6-2.4L79.7,43.8z"/>
		</g>
		<g transform="matrix(1,0,0,1,896.0260009765625,1406.7049560546875)" class="st1">
			<path class="st11" d="M120.7,31.8h-11c-0.4,0-0.8,0.1-1.2,0.2c-0.4,0.2-0.7,0.4-1,0.7c-0.3,0.3-0.5,0.6-0.7,1
				c-0.2,0.4-0.2,0.8-0.2,1.2v2.4c0,0.6,0.2,1.2,0.6,1.8c0.4,0.5,0.9,0.9,1.5,1.1c-0.5,0.5-0.7,1.2-0.7,1.9v0.7c0,0.5,0.1,1,0.3,1.4
				c0.2,0.4,0.6,0.8,1,1.1v9.1h12v-9.1c0.4-0.3,0.7-0.7,1-1.1c0.2-0.4,0.3-0.9,0.3-1.4v-0.7c0-0.7-0.2-1.4-0.7-1.9
				c0.6-0.2,1.1-0.6,1.5-1.1c0.4-0.5,0.6-1.1,0.6-1.8v-2.4c0-0.4-0.1-0.8-0.2-1.2c-0.2-0.4-0.4-0.7-0.7-1c-0.3-0.3-0.6-0.5-1-0.7
				C121.5,31.9,121.1,31.8,120.7,31.8z"/>
		</g>
		<g transform="matrix(1,0,0,1,896.0260009765625,1425.97998046875)" class="st1">
			<path class="st12" d="M104,33.9c-0.5,0-1,0.2-1.3,0.5c-0.3,0.4-0.5,0.8-0.5,1.3v14.8c0,0.5,0.2,0.9,0.5,1.3
				c0.3,0.4,0.8,0.5,1.3,0.5h22.4c0.5,0,1-0.2,1.3-0.5c0.3-0.3,0.5-0.8,0.5-1.3V35.7c0-0.5-0.2-1-0.5-1.3c-0.3-0.3-0.8-0.5-1.3-0.5
				H104z"/>
		</g>
		<g transform="matrix(1,0,0,1,896.2979736328125,1391.4649658203125)" class="st1">
			<path class="st12" d="M140.6,41l-10,8.3H99.3L89.8,41h9.4l0.4-2c0.1-0.6,0.4-1.1,0.9-1.5c0.5-0.4,1.1-0.6,1.7-0.6h26.2
				c0.6,0,1.2,0.2,1.7,0.6c0.5,0.4,0.8,0.9,0.9,1.5l0.4,2H140.6z"/>
		</g>
		<g transform="matrix(1,0,0,1,896.0260009765625,1425.9849853515625)" class="st1">
			<path class="st11" d="M115.2,50.4c4,0,7.3-3.3,7.3-7.3c0-4-3.3-7.3-7.3-7.3s-7.3,3.3-7.3,7.3C107.9,47.1,111.2,50.4,115.2,50.4z"
				/>
		</g>
		<g transform="matrix(1,0,0,1,896.0260009765625,1425.97998046875)" class="st1">
			<path class="st2" d="M115.2,47.3c2.3,0,4.2-1.9,4.2-4.2c0-2.3-1.9-4.2-4.2-4.2c-2.3,0-4.2,1.9-4.2,4.2
				C111,45.4,112.9,47.3,115.2,47.3z"/>
		</g>
		<g transform="matrix(1,0,0,1,896.468994140625,1426.425048828125)" class="st1">
			<path class="st5" d="M117.3,39.4c0.6,0.8,0.9,1.8,0.8,2.8c-0.1,1-0.5,1.9-1.2,2.7c-0.7,0.7-1.7,1.1-2.7,1.2c-1,0.1-2-0.2-2.8-0.8
				c0.4,0.5,0.8,0.9,1.3,1.1c0.5,0.3,1.1,0.5,1.7,0.5s1.2,0,1.7-0.3c0.6-0.2,1.1-0.5,1.5-1c0.4-0.4,0.7-0.9,1-1.5
				c0.2-0.6,0.3-1.2,0.3-1.8s-0.2-1.2-0.5-1.7C118.2,40.2,117.8,39.7,117.3,39.4z"/>
		</g>
		<g transform="matrix(1,0,0,1,896.6790161132812,1360.8599853515625)" class="st1">
			<path class="st2" d="M209,42.5H21.5v1.2H209V42.5z"/>
		</g>
		<g transform="matrix(1,0,0,1,1016.1389770507812,1334.6409912109375)" class="st1">
			<path class="st12" d="M94.1,46.7l-13.6-2.3l-0.1-0.3l-0.7,0.1l0.8,1.8l13.6,2.3l56.7-10.3l-16.8,2L94.1,46.7z"/>
		</g>
		<g transform="matrix(1,0,0,1,854.77001953125,1334.2900390625)" class="st1">
			<path class="st11" d="M79.7,43.8l71-5.5l-56.7,9.6l-13.6-2.4L79.7,43.8z"/>
		</g>
		<g transform="matrix(1,0,0,1,855.5540161132812,1334.6409912109375)" class="st1">
			<path class="st12" d="M94.1,46.7l-13.6-2.3l-0.1-0.3l-0.7,0.1l0.8,1.8l13.6,2.3l56.7-10.3l-16.8,2L94.1,46.7z"/>
		</g>
		<g transform="matrix(1,0,0,1,896.4169921875,1389.5150146484375)" class="st1">
			<path class="st2" d="M125.7,41h-20.9v4.2h20.9V41z"/>
		</g>
	</g>
	<g transform="matrix(1,0,0,1,221.21600341796875,858.5)" class="st13">
		<g transform="matrix(1,0,0,1,33.779998779296875,40.112998962402344)" class="st1">
			<path class="st5" d="M96.6,24.1h37.2v38H96.6V24.1z"/>
		</g>
		<g transform="matrix(1,0,0,1,78.53700256347656,38.84600067138672)" class="st1">
			<path class="st2" d="M96.6,21.2h37.2v43.9H96.6V21.2z"/>
		</g>
		<g transform="matrix(1,0,0,1,124.13999938964844,41.380001068115234)" class="st1">
			<path class="st5" d="M96.6,21.2h37.2v43.9H96.6V21.2z"/>
		</g>
		<g transform="matrix(1,0,0,1,47.29199981689453,71.35900115966797)" class="st1">
			<path class="st6" d="M96.6,34.2h37.2V52H96.6V34.2z"/>
		</g>
		<g transform="matrix(1,0,0,1,111.47200012207031,71.35900115966797)" class="st1">
			<path class="st6" d="M96.6,34.2h37.2V52H96.6V34.2z"/>
		</g>
		<g transform="matrix(1,0,0,1,79,53.5)" class="st1">
			<path class="st3" d="M192.7,38.7c-1.6-14.3-4.7-25.9-9.3-34.2c-6.7-12.3-15.2-14.9-21.1-14.9c-17,0-26.5,3.2-30.8,10.2
				c-0.6,0.9-1.6,1.4-2.7,1.4h-27.7c-1.1,0-2.2-0.6-2.7-1.4c-4.3-7.1-13.8-10.2-30.8-10.2c-5.9,0-14.3,2.6-21.1,14.9
				c-4.6,8.4-7.7,19.9-9.3,34.2c-1.6,14.1-1.4,25.8,0.5,34.8c2.4,11.4,7.6,18.6,15.5,21.3c2.4,0.8,4.8,1.2,7.1,1.2
				c10.5,0,20.8-7.8,28.4-21.8c1.6,0.6,3.3,0.9,5.1,0.9c0.2,0,0.5,0,0.7,0c3.8-0.2,7.4-1.9,10-4.7c2.3-2.6,3.7-5.8,3.7-9.3h13.5v0.3
				c0.2,3.8,1.9,7.4,4.7,10c2.7,2.4,6.1,3.7,9.7,3.7c0.2,0,0.5,0,0.7,0c1.5-0.1,3-0.4,4.4-0.9c9.3,17.2,22.6,25.1,35.5,20.6
				c7.9-2.7,13.1-9.9,15.5-21.3C194.1,64.5,194.3,52.8,192.7,38.7z M160.7,14.2c3.2,0,5.8,2.6,5.8,5.8c0,3.2-2.6,5.8-5.8,5.8
				c-3.2,0-5.8-2.6-5.8-5.8C154.9,16.8,157.5,14.2,160.7,14.2z M97.9,9c1,0.3,2.1,0.5,3.3,0.5h27.7c1.1,0,2.2-0.2,3.3-0.5v14.3
				c0,3-2.4,5.4-5.4,5.4h-23.3c-3,0-5.4-2.4-5.4-5.4L97.9,9L97.9,9z M76.6,35.4c-0.8,0-1.6,0.7-1.6,1.6v6.4c0,0.8-0.7,1.6-1.6,1.6
				h-8.4c-0.8,0-1.6-0.7-1.6-1.6v-6.4c0-0.8-0.7-1.6-1.6-1.6h-6.4c-0.8,0-1.6-0.7-1.6-1.6v-8.4c0-0.8,0.7-1.6,1.6-1.6h6.4
				c0.8,0,1.6-0.7,1.6-1.6v-6.7c0-0.8,0.7-1.6,1.6-1.6h8.4c0.8,0,1.6,0.7,1.6,1.6v6.7c0,0.8,0.7,1.6,1.6,1.6H83
				c0.8,0,1.6,0.7,1.6,1.6v8.4c0,0.8-0.7,1.6-1.6,1.6H76.6z M94.1,66.9c-1.7,0.1-3.3-0.5-4.5-1.6c-0.1-0.1-0.2-0.2-0.3-0.3
				c-0.1-0.1-0.1-0.1-0.2-0.2c-0.1-0.1-0.1-0.1-0.2-0.2c-0.1-0.1-0.2-0.2-0.2-0.3c0,0,0-0.1-0.1-0.1c-0.7-0.9-1.1-2.1-1.2-3.4
				c-0.1-2.4,1.1-4.5,3-5.7c0.9-0.5,1.9-0.8,2.9-0.9h0.4c0.1,0,0.3,0,0.4,0h0.1c0.4,0,0.8,0.1,1.1,0.2h0c0.2,0.1,0.4,0.1,0.5,0.2h0
				c1.5,0.6,2.6,1.7,3.3,3.2c0,0,0,0,0,0.1c0.3,0.7,0.5,1.5,0.6,2.3C100.3,63.8,97.6,66.8,94.1,66.9z M115,49.7
				c-2.4,0-4.4-2-4.4-4.4c0-2.4,2-4.4,4.4-4.4c2.4,0,4.4,2,4.4,4.4C119.4,47.7,117.4,49.7,115,49.7z M136.4,66.9
				c-3.5,0.2-6.4-2.5-6.6-6c-0.1-1.1,0.2-2.1,0.6-3c0,0,0,0,0-0.1c0.1-0.2,0.2-0.3,0.3-0.5c0,0,0,0,0-0.1c0.3-0.5,0.7-0.9,1.1-1.3
				l0,0c0.3-0.3,0.6-0.5,0.9-0.7c0,0,0,0,0.1,0c0.1-0.1,0.3-0.2,0.4-0.2c0,0,0.1,0,0.1-0.1c0.1-0.1,0.3-0.1,0.4-0.2c0,0,0.1,0,0.1,0
				c0.2-0.1,0.4-0.1,0.5-0.2c0.1,0,0.1,0,0.2,0c0.1,0,0.3-0.1,0.4-0.1c0.1,0,0.1,0,0.2,0c0.2,0,0.4,0,0.6-0.1h0.5h0.3
				c0.1,0,0.2,0,0.3,0c0.1,0,0.2,0,0.3,0c0.1,0,0.2,0,0.3,0.1c0.1,0,0.2,0,0.3,0.1c0.1,0,0.2,0.1,0.3,0.1c0.1,0,0.2,0.1,0.3,0.1
				c0.1,0,0.2,0.1,0.3,0.1c0.1,0,0.2,0.1,0.3,0.1c0.1,0,0.2,0.1,0.3,0.2c0.1,0,0.2,0.1,0.2,0.1c0.1,0.1,0.2,0.1,0.3,0.2
				c0.1,0.1,0.2,0.1,0.2,0.2c0.1,0.1,0.2,0.1,0.2,0.2c0.1,0.1,0.2,0.1,0.2,0.2c0.1,0.1,0.1,0.1,0.2,0.2c0.1,0.1,0.1,0.1,0.2,0.2
				c0.1,0.1,0.1,0.2,0.2,0.2c0.1,0.1,0.1,0.2,0.2,0.2c0.1,0.1,0.1,0.2,0.2,0.3c0.1,0.1,0.1,0.2,0.2,0.3c0.1,0.1,0.1,0.2,0.2,0.3
				c0,0.1,0.1,0.2,0.1,0.3c0,0.1,0.1,0.2,0.1,0.3c0,0.1,0.1,0.2,0.1,0.3c0,0.1,0.1,0.2,0.1,0.3c0,0.1,0.1,0.2,0.1,0.3
				c0,0.1,0.1,0.3,0.1,0.4c0,0.1,0,0.1,0,0.2c0,0.2,0.1,0.4,0.1,0.6v0.6V61c0,0.2,0,0.4-0.1,0.6v0.1c0,0.2-0.1,0.4-0.1,0.6v0
				c-0.3,1-0.8,1.9-1.4,2.6l-0.4,0.4c0,0-0.1,0-0.1,0.1C139.3,66.2,137.9,66.9,136.4,66.9z M145.4,29.5c0-3.2,2.6-5.8,5.8-5.8
				s5.8,2.6,5.8,5.8s-2.6,5.8-5.8,5.8S145.4,32.7,145.4,29.5z M160.7,44.7c-3.2,0-5.8-2.6-5.8-5.8c0-3.2,2.6-5.8,5.8-5.8
				c3.2,0,5.8,2.6,5.8,5.8C166.5,42.1,163.9,44.7,160.7,44.7z M170.2,35.3c-3.2,0-5.8-2.6-5.8-5.8s2.6-5.8,5.8-5.8s5.8,2.6,5.8,5.8
				S173.4,35.3,170.2,35.3z"/>
		</g>
	</g>
	<g transform="matrix(1,0,0,1,186.28700256347656,-456)" class="st14">
		<g transform="matrix(1,0,0,1,113.71299743652344,1348.9749755859375)" class="st1">
			<path class="st15" d="M158.4-2.5h-1v-26.2c0-4-1.6-7.9-4.4-10.7c-2.8-2.8-6.7-4.4-10.7-4.4H87.1c-2,0-3.9,0.4-5.8,1.2
				c-1.8,0.8-3.5,1.9-4.9,3.3c-1.4,1.4-2.5,3.1-3.3,4.9c-0.8,1.8-1.1,3.8-1.1,5.8v143.6c0,2,0.4,4,1.1,5.8c0.8,1.8,1.9,3.5,3.3,4.9
				c1.4,1.4,3.1,2.5,4.9,3.3c1.8,0.8,3.8,1.2,5.8,1.2h55.2c4,0,7.8-1.6,10.7-4.4c2.8-2.8,4.4-6.7,4.4-10.7V16.1h1V-2.5z"/>
		</g>
		<g transform="matrix(1,0,0,1,113.71299743652344,1348.969970703125)" class="st1">
			<path class="st5" d="M143-39.9h-7.2c0.3,0.8,0.5,1.7,0.4,2.6c-0.1,0.9-0.4,1.7-0.9,2.4c-0.5,0.7-1.2,1.3-1.9,1.8
				c-0.8,0.4-1.6,0.6-2.5,0.6H99.2c-0.9,0-1.7-0.2-2.5-0.6c-0.8-0.4-1.4-1-1.9-1.8c-0.5-0.7-0.8-1.6-0.9-2.4c-0.1-0.9,0-1.8,0.4-2.6
				h-6.7c-3,0-5.9,1.2-8,3.3c-2.1,2.1-3.3,5-3.3,8v143.4c0,1.5,0.3,3,0.9,4.3c0.6,1.4,1.4,2.6,2.4,3.7c1,1.1,2.3,1.9,3.7,2.5
				c1.4,0.6,2.8,0.9,4.3,0.9H143c1.5,0,2.9-0.3,4.3-0.9c1.4-0.6,2.6-1.4,3.7-2.5c1-1.1,1.9-2.3,2.4-3.7c0.6-1.4,0.9-2.9,0.9-4.3
				V-28.6c0-1.5-0.3-3-0.9-4.3c-0.6-1.4-1.4-2.6-2.4-3.7c-1-1-2.3-1.9-3.7-2.5C145.9-39.6,144.4-39.9,143-39.9z"/>
		</g>
		<g transform="matrix(1,0,0,1,97.48200225830078,1320.333984375)" class="st1">
			<path class="st2" d="M131.4,15.4H99.1v55.4h32.3V15.4z"/>
		</g>
		<g transform="matrix(1,0,0,1,132.5709991455078,1383.699951171875)" class="st1">
			<path class="st2" d="M128.6,11.8h-26.8v62.7h26.8V11.8z"/>
		</g>
		<g transform="matrix(1,0,0,1,132.63299560546875,1300.27001953125)" class="st1">
			<path class="st2" d="M128.7,35.5h-26.9v15.2h26.9V35.5z"/>
		</g>
		<g transform="matrix(1,0,0,1,132.63299560546875,1320.3399658203125)" class="st1">
			<path class="st2" d="M128.7,34.9h-26.9v16.4h26.9V34.9z"/>
		</g>
		<g transform="matrix(1,0,0,1,132.63299560546875,1340.4000244140625)" class="st1">
			<path class="st2" d="M128.7,35.5h-26.9v15.2h26.9V35.5z"/>
		</g>
		<g transform="matrix(1,0,0,1,97.52100372314453,1364.425048828125)" class="st1">
			<path class="st6" d="M131.4,31H99.1v24.1h32.3V31z"/>
		</g>
		<g transform="matrix(1,0,0,1,97.52100372314453,1398.1300048828125)" class="st1">
			<path class="st2" d="M131.4,26.2H99.1v33.9h32.3V26.2z"/>
		</g>
	</g>
	<g transform="matrix(1,0,0,1,-596.4180297851562,-462)" class="st16">
		<g transform="matrix(1,0,0,1,858.1649780273438,1406.77001953125)" class="st1">
			<path class="st11" d="M110.6,14.5c-0.4,0-0.7,0.1-1,0.4c-0.3,0.2-0.4,0.6-0.4,1v54.4c0,0.4,0.1,0.7,0.4,1c0.3,0.3,0.6,0.4,1,0.4
				h9.3c0.4,0,0.7-0.1,1-0.4c0.3-0.2,0.4-0.6,0.4-1V15.9c0-0.4-0.1-0.7-0.4-1c-0.3-0.3-0.6-0.4-1-0.4H110.6z"/>
		</g>
		<g transform="matrix(1,0,0,1,935.1929931640625,1406.77001953125)" class="st1">
			<path class="st11" d="M110.6,14.5c-0.4,0-0.7,0.1-1,0.4c-0.3,0.2-0.4,0.6-0.4,1v54.4c0,0.4,0.1,0.7,0.4,1c0.3,0.3,0.6,0.4,1,0.4
				h9.3c0.4,0,0.7-0.1,1-0.4c0.3-0.2,0.4-0.6,0.4-1V15.9c0-0.4-0.1-0.7-0.4-1c-0.3-0.3-0.6-0.4-1-0.4H110.6z"/>
		</g>
		<g transform="matrix(1,0,0,1,938.3270263671875,1334.2900390625)" class="st1">
			<path class="st11" d="M150.7,43.8l-71-5.5l56.7,9.6l13.6-2.4L150.7,43.8z"/>
		</g>
		<g transform="matrix(1,0,0,1,938.8489990234375,1334.6409912109375)" class="st1">
			<path class="st12" d="M136.4,46.7l13.6-2.3l0.1-0.3l0.6,0.1l-0.8,1.8l-13.6,2.3L79.7,37.9l16.8,2L136.4,46.7z"/>
		</g>
		<g transform="matrix(1,0,0,1,777.4810180664062,1334.2900390625)" class="st1">
			<path class="st11" d="M150.7,43.8l-71-5.5l56.7,9.6l13.6-2.4L150.7,43.8z"/>
		</g>
		<g transform="matrix(1,0,0,1,776.697021484375,1334.6409912109375)" class="st1">
			<path class="st12" d="M136.4,46.7l13.6-2.3l0.1-0.3l0.6,0.1l-0.8,1.8l-13.6,2.3L79.7,37.9l16.8,2L136.4,46.7z"/>
		</g>
		<g transform="matrix(1,0,0,1,897.85400390625,1373.7550048828125)" class="st1">
			<path class="st11" d="M203.2,32.7l-6,0.3l-55,23.2l-3.1,2.6l-10,8.3H97.7l-9.4-8.3l-3.6-3.2L31.9,33.2l-4.7-0.5l15.7-7.6H43
				c3.6-3.4,34.3-6,71.7-6c37.4,0,68.2,2.6,71.7,6h0.3L203.2,32.7z"/>
		</g>
		<g transform="matrix(1,0,0,1,817.8209838867188,1346.405029296875)" class="st1">
			<path class="st11" d="M122.5,52.9c0.1-0.3,0.2-0.6,0.2-1V39.5c0-0.8-0.3-1.5-0.9-2.1c-0.6-0.5-1.3-0.9-2.1-0.9h-1.2
				c1-1,1.6-2.2,1.9-3.6c0.3-1.4,0.1-2.8-0.4-4.1c-0.5-1.3-1.4-2.4-2.6-3.1c-1.2-0.8-2.5-1.2-3.9-1.2c-1.4,0-2.8,0.4-3.9,1.2
				c-1.2,0.8-2.1,1.9-2.6,3.1c-0.5,1.3-0.7,2.7-0.4,4.1c0.3,1.4,0.9,2.6,1.9,3.6h-1.2c-0.4,0-0.8,0.1-1.1,0.2
				c-0.4,0.1-0.7,0.4-1,0.6c-0.3,0.3-0.5,0.6-0.6,1c-0.1,0.3-0.2,0.7-0.2,1.1v12.4c0,0.5,0.1,1,0.4,1.5c-0.9,0.2-1.8,0.3-2.7,0.5
				c-0.5,0.1-1,0.4-1.4,0.9c-0.3,0.4-0.5,1-0.5,1.5v2.9c0,0.6,0.3,1.3,0.7,1.7c0.5,0.5,1.1,0.7,1.7,0.7h27.6v-7.3
				C127.7,53.7,125.1,53.2,122.5,52.9z"/>
		</g>
		<g transform="matrix(1,0,0,1,975.2739868164062,1346.405029296875)" class="st1">
			<path class="st11" d="M128.3,53.9c-0.9-0.2-1.8-0.4-2.7-0.5c0.3-0.4,0.4-0.9,0.4-1.5V39.5c0-0.4-0.1-0.8-0.2-1.1
				c-0.1-0.4-0.4-0.7-0.6-1c-0.3-0.3-0.6-0.5-1-0.6c-0.4-0.2-0.7-0.2-1.1-0.2h-1.2c1-1,1.6-2.2,1.9-3.6c0.3-1.4,0.1-2.8-0.4-4.1
				c-0.5-1.3-1.4-2.4-2.6-3.1c-1.2-0.8-2.5-1.2-3.9-1.2c-1.4,0-2.8,0.4-3.9,1.2c-1.2,0.8-2.1,1.9-2.6,3.1c-0.5,1.3-0.7,2.7-0.4,4.1
				c0.3,1.4,0.9,2.6,1.9,3.6h-1.2c-0.4,0-0.8,0.1-1.1,0.2c-0.4,0.1-0.7,0.4-1,0.6c-0.3,0.3-0.5,0.6-0.6,1c-0.1,0.3-0.2,0.7-0.2,1.1
				v12.4c0,0.3,0.1,0.7,0.2,1c-2.6,0.3-5.2,0.8-7.7,1.4v7.3h27.6c0.6,0,1.3-0.3,1.7-0.7c0.5-0.4,0.7-1.1,0.7-1.7v-2.9
				c0-0.6-0.2-1.1-0.5-1.5C129.4,54.3,128.9,54,128.3,53.9z"/>
		</g>
		<g transform="matrix(1,0,0,1,1015.6179809570312,1334.2900390625)" class="st1">
			<path class="st11" d="M79.7,43.8l71-5.5l-56.7,9.6l-13.6-2.4L79.7,43.8z"/>
		</g>
		<g transform="matrix(1,0,0,1,896.0260009765625,1406.7049560546875)" class="st1">
			<path class="st11" d="M120.7,31.8h-11c-0.4,0-0.8,0.1-1.2,0.2c-0.4,0.2-0.7,0.4-1,0.7c-0.3,0.3-0.5,0.6-0.7,1
				c-0.2,0.4-0.2,0.8-0.2,1.2v2.4c0,0.6,0.2,1.2,0.6,1.8c0.4,0.5,0.9,0.9,1.5,1.1c-0.5,0.5-0.7,1.2-0.7,1.9v0.7c0,0.5,0.1,1,0.3,1.4
				c0.2,0.4,0.6,0.8,1,1.1v9.1h12v-9.1c0.4-0.3,0.7-0.7,1-1.1c0.2-0.4,0.3-0.9,0.3-1.4v-0.7c0-0.7-0.2-1.4-0.7-1.9
				c0.6-0.2,1.1-0.6,1.5-1.1c0.4-0.5,0.6-1.1,0.6-1.8v-2.4c0-0.4-0.1-0.8-0.2-1.2c-0.2-0.4-0.4-0.7-0.7-1c-0.3-0.3-0.6-0.5-1-0.7
				C121.5,31.9,121.1,31.8,120.7,31.8z"/>
		</g>
		<g transform="matrix(1,0,0,1,896.0260009765625,1425.97998046875)" class="st1">
			<path class="st12" d="M104,33.9c-0.5,0-1,0.2-1.3,0.5c-0.3,0.4-0.5,0.8-0.5,1.3v14.8c0,0.5,0.2,0.9,0.5,1.3
				c0.3,0.4,0.8,0.5,1.3,0.5h22.4c0.5,0,1-0.2,1.3-0.5c0.3-0.3,0.5-0.8,0.5-1.3V35.7c0-0.5-0.2-1-0.5-1.3c-0.3-0.3-0.8-0.5-1.3-0.5
				H104z"/>
		</g>
		<g transform="matrix(1,0,0,1,896.2979736328125,1391.4649658203125)" class="st1">
			<path class="st12" d="M140.6,41l-10,8.3H99.3L89.8,41h9.4l0.4-2c0.1-0.6,0.4-1.1,0.9-1.5c0.5-0.4,1.1-0.6,1.7-0.6h26.2
				c0.6,0,1.2,0.2,1.7,0.6c0.5,0.4,0.8,0.9,0.9,1.5l0.4,2H140.6z"/>
		</g>
		<g transform="matrix(1,0,0,1,896.0260009765625,1425.9849853515625)" class="st1">
			<path class="st11" d="M115.2,50.4c4,0,7.3-3.3,7.3-7.3c0-4-3.3-7.3-7.3-7.3s-7.3,3.3-7.3,7.3C107.9,47.1,111.2,50.4,115.2,50.4z"
				/>
		</g>
		<g transform="matrix(1,0,0,1,896.0260009765625,1425.97998046875)" class="st1">
			<path class="st2" d="M115.2,47.3c2.3,0,4.2-1.9,4.2-4.2c0-2.3-1.9-4.2-4.2-4.2c-2.3,0-4.2,1.9-4.2,4.2
				C111,45.4,112.9,47.3,115.2,47.3z"/>
		</g>
		<g transform="matrix(1,0,0,1,896.468994140625,1426.425048828125)" class="st1">
			<path class="st5" d="M117.3,39.4c0.6,0.8,0.9,1.8,0.8,2.8c-0.1,1-0.5,1.9-1.2,2.7c-0.7,0.7-1.7,1.1-2.7,1.2c-1,0.1-2-0.2-2.8-0.8
				c0.4,0.5,0.8,0.9,1.3,1.1c0.5,0.3,1.1,0.5,1.7,0.5s1.2,0,1.7-0.3c0.6-0.2,1.1-0.5,1.5-1c0.4-0.4,0.7-0.9,1-1.5
				c0.2-0.6,0.3-1.2,0.3-1.8s-0.2-1.2-0.5-1.7C118.2,40.2,117.8,39.7,117.3,39.4z"/>
		</g>
		<g transform="matrix(1,0,0,1,896.6790161132812,1360.8599853515625)" class="st1">
			<path class="st2" d="M209,42.5H21.5v1.2H209V42.5z"/>
		</g>
		<g transform="matrix(1,0,0,1,1016.1389770507812,1334.6409912109375)" class="st1">
			<path class="st12" d="M94.1,46.7l-13.6-2.3l-0.1-0.3l-0.7,0.1l0.8,1.8l13.6,2.3l56.7-10.3l-16.8,2L94.1,46.7z"/>
		</g>
		<g transform="matrix(1,0,0,1,854.77001953125,1334.2900390625)" class="st1">
			<path class="st11" d="M79.7,43.8l71-5.5l-56.7,9.6l-13.6-2.4L79.7,43.8z"/>
		</g>
		<g transform="matrix(1,0,0,1,855.5540161132812,1334.6409912109375)" class="st1">
			<path class="st12" d="M94.1,46.7l-13.6-2.3l-0.1-0.3l-0.7,0.1l0.8,1.8l13.6,2.3l56.7-10.3l-16.8,2L94.1,46.7z"/>
		</g>
		<g transform="matrix(1,0,0,1,896.4169921875,1389.5150146484375)" class="st1">
			<path class="st2" d="M125.7,41h-20.9v4.2h20.9V41z"/>
		</g>
	</g>
	<g transform="matrix(0.6399999856948853,0,0,0.6399999856948853,-457.61920166015625,72.67938232421875)" class="st17">
		<g transform="matrix(1,0,0,1,1183.780029296875,1265.8790283203125)" class="st1">
			<path class="st8" d="M263.9-45.1H96.1v224.9h167.8V-45.1z"/>
		</g>
		<g transform="matrix(1,0,0,1,1183.780029296875,1191.2049560546875)" class="st1">
			<path class="st9" d="M292.8,22.7H67.3V112h225.5V22.7z"/>
		</g>
		<g transform="matrix(1,0,0,1,1183.780029296875,1290.7760009765625)" class="st1">
			<path class="st9" d="M292.8,22.7H67.3V112h225.5V22.7z"/>
		</g>
		<g transform="matrix(1,0,0,1,1183.780029296875,1390.344970703125)" class="st1">
			<path class="st9" d="M292.8,22.7H67.3V112h225.5V22.7z"/>
		</g>
		<g transform="matrix(1,0,0,1,1183.780029296875,1191.2850341796875)" class="st1">
			<path class="st6" d="M292.8,60.5H67.3v13.7h225.5V60.5z"/>
		</g>
		<g transform="matrix(1,0,0,1,1183.780029296875,1290.85400390625)" class="st1">
			<path class="st6" d="M292.8,60.5H67.3v13.7h225.5V60.5z"/>
		</g>
		<g transform="matrix(1,0,0,1,1183.780029296875,1390.426025390625)" class="st1">
			<path class="st6" d="M292.8,60.5H67.3v13.7h225.5V60.5z"/>
		</g>
		<g transform="matrix(1,0,0,1,1252.625,1159.43994140625)" class="st1">
			<path class="st6" d="M180,72.5c2.9,0,5.2-2.3,5.2-5.2c0-2.8-2.3-5.1-5.2-5.1c-2.9,0-5.2,2.3-5.2,5.1
				C174.9,70.2,177.2,72.5,180,72.5z"/>
		</g>
		<g transform="matrix(1,0,0,1,1270.6949462890625,1159.43994140625)" class="st1">
			<path class="st6" d="M180,72.5c2.9,0,5.2-2.3,5.2-5.2c0-2.8-2.3-5.1-5.2-5.1c-2.9,0-5.2,2.3-5.2,5.1
				C174.9,70.2,177.2,72.5,180,72.5z"/>
		</g>
		<g transform="matrix(1,0,0,1,1288.7640380859375,1159.43994140625)" class="st1">
			<path class="st6" d="M180,72.5c2.9,0,5.2-2.3,5.2-5.2c0-2.8-2.3-5.1-5.2-5.1c-2.9,0-5.2,2.3-5.2,5.1
				C174.9,70.2,177.2,72.5,180,72.5z"/>
		</g>
		<g transform="matrix(1,0,0,1,1252.625,1257.300048828125)" class="st1">
			<path class="st6" d="M180,72.5c2.9,0,5.2-2.3,5.2-5.2c0-2.8-2.3-5.2-5.2-5.2c-2.9,0-5.2,2.3-5.2,5.2
				C174.9,70.2,177.2,72.5,180,72.5z"/>
		</g>
		<g transform="matrix(1,0,0,1,1270.6949462890625,1257.300048828125)" class="st1">
			<path class="st6" d="M180,72.5c2.9,0,5.2-2.3,5.2-5.2c0-2.8-2.3-5.2-5.2-5.2c-2.9,0-5.2,2.3-5.2,5.2
				C174.9,70.2,177.2,72.5,180,72.5z"/>
		</g>
		<g transform="matrix(1,0,0,1,1288.7640380859375,1257.300048828125)" class="st1">
			<path class="st6" d="M180,72.5c2.9,0,5.2-2.3,5.2-5.2c0-2.8-2.3-5.2-5.2-5.2c-2.9,0-5.2,2.3-5.2,5.2
				C174.9,70.2,177.2,72.5,180,72.5z"/>
		</g>
		<g transform="matrix(1,0,0,1,1252.625,1355.1500244140625)" class="st1">
			<path class="st6" d="M180,72.5c2.9,0,5.2-2.3,5.2-5.1c0-2.9-2.3-5.2-5.2-5.2c-2.9,0-5.2,2.3-5.2,5.2
				C174.9,70.2,177.2,72.5,180,72.5z"/>
		</g>
		<g transform="matrix(1,0,0,1,1270.6949462890625,1355.1500244140625)" class="st1">
			<path class="st6" d="M180,72.5c2.9,0,5.2-2.3,5.2-5.1c0-2.9-2.3-5.2-5.2-5.2c-2.9,0-5.2,2.3-5.2,5.2
				C174.9,70.2,177.2,72.5,180,72.5z"/>
		</g>
		<g transform="matrix(1,0,0,1,1288.7640380859375,1355.1500244140625)" class="st1">
			<path class="st6" d="M180,72.5c2.9,0,5.2-2.3,5.2-5.1c0-2.9-2.3-5.2-5.2-5.2c-2.9,0-5.2,2.3-5.2,5.2
				C174.9,70.2,177.2,72.5,180,72.5z"/>
		</g>
	</g>
	<g transform="matrix(0.6700000166893005,0,0,0.6700000166893005,-69.53985595703125,38.55474853515625)" class="st18">
		<g transform="matrix(1,0,0,1,551.0499877929688,1412.6600341796875)" class="st1">
			<path class="st2" d="M214.7,83.3h-85.5l2.9-37.8h79.7L214.7,83.3z"/>
		</g>
		<g transform="matrix(1,0,0,1,551.802978515625,1431.77001953125)" class="st1">
			<path class="st2" d="M124,68.6h96v-8.5h-96V68.6z"/>
		</g>
		<g transform="matrix(1,0,0,1,551.552001953125,1253.81494140625)" class="st1">
			<path class="st3" d="M336.2-40.3H7.8c-2.3,0-4.5,0.9-6.2,2.6c-1.6,1.6-2.6,3.9-2.6,6.2V169h345.8V-31.5c0-1.1-0.2-2.3-0.7-3.3
				c-0.4-1.1-1.1-2-1.9-2.8c-0.8-0.8-1.8-1.5-2.8-1.9C338.4-40.1,337.3-40.3,336.2-40.3z"/>
		</g>
		<g transform="matrix(1,0,0,1,551.552001953125,1379.3800048828125)" class="st1">
			<path class="st2" d="M-0.9,43.4v33c0,1.2,0.2,2.3,0.7,3.4c0.4,1.1,1.1,2,1.9,2.9s1.8,1.5,2.8,1.9c1.1,0.4,2.2,0.7,3.3,0.7h328.4
				c2.3,0,4.5-0.9,6.2-2.6s2.6-3.9,2.6-6.2v-33H-0.9z"/>
		</g>
		<g transform="matrix(1,0,0,1,551.8040161132812,1255.074951171875)" class="st1">
			<path class="st2" d="M327.6-23.4H16.4v175.5h311.2V-23.4z"/>
		</g>
		<g transform="matrix(1,0,0,1,551.8040161132812,1379.1300048828125)" class="st1">
			<path class="st4" d="M172,72.9c4.9,0,8.8-3.8,8.8-8.6c0-4.7-3.9-8.6-8.8-8.6c-4.9,0-8.8,3.8-8.8,8.6
				C163.2,69.1,167.1,72.9,172,72.9z"/>
		</g>
		<g transform="matrix(1,0,0,1,405.7760009765625,1173.135009765625)" class="st1">
			<path class="st5" d="M172,66.1c0.8,0,1.5-0.8,1.5-1.8c0-1-0.7-1.8-1.5-1.8c-0.8,0-1.5,0.8-1.5,1.8
				C170.5,65.3,171.1,66.1,172,66.1z"/>
		</g>
		<g transform="matrix(1,0,0,1,412.05999755859375,1173.135009765625)" class="st1">
			<path class="st5" d="M172,66.1c1,0,1.8-0.8,1.8-1.8c0-1-0.8-1.8-1.8-1.8c-1,0-1.8,0.8-1.8,1.8C170.2,65.3,171,66.1,172,66.1z"/>
		</g>
		<g transform="matrix(1,0,0,1,418.3429870605469,1173.135009765625)" class="st1">
			<path class="st5" d="M172,66.1c0.8,0,1.5-0.8,1.5-1.8c0-1-0.7-1.8-1.5-1.8c-0.8,0-1.5,0.8-1.5,1.8
				C170.5,65.3,171.1,66.1,172,66.1z"/>
		</g>
		<g transform="matrix(1,0,0,1,551.301025390625,1252.5550537109375)" class="st1">
			<path class="st5" d="M319-9.3H24.9V138H319V-9.3z"/>
		</g>
		<g transform="matrix(1,0,0,1,454.2850036621094,1228.60498046875)" class="st1">
			<path class="st2" d="M141.6,36.9c-0.3,0-0.5,0.1-0.7,0.3c-0.2,0.2-0.3,0.5-0.3,0.7v52.9c0,0.3,0.1,0.5,0.3,0.7
				c0.2,0.2,0.5,0.3,0.7,0.3h60.8c0.3,0,0.5-0.1,0.7-0.3c0.2-0.2,0.3-0.5,0.3-0.7V37.9c0-0.3-0.1-0.6-0.3-0.7
				c-0.2-0.2-0.5-0.3-0.7-0.3H141.6z"/>
		</g>
		<g transform="matrix(1,0,0,1,551.552001953125,1228.85498046875)" class="st1">
			<path class="st2" d="M141.8,37.1c-0.3,0-0.5,0.1-0.7,0.3c-0.2,0.2-0.3,0.5-0.3,0.7v52.4c0,0.3,0.1,0.5,0.3,0.7
				c0.2,0.2,0.5,0.3,0.7,0.3h60.3c0.3,0,0.5-0.1,0.7-0.3c0.2-0.2,0.3-0.5,0.3-0.7V38.1c0-0.3-0.1-0.5-0.3-0.7
				c-0.2-0.2-0.5-0.3-0.7-0.3H141.8z"/>
		</g>
		<g transform="matrix(1,0,0,1,648.5689697265625,1228.35498046875)" class="st1">
			<path class="st2" d="M141.3,36.6c-0.3,0-0.5,0.1-0.7,0.3c-0.2,0.2-0.3,0.5-0.3,0.7V91c0,0.3,0.1,0.5,0.3,0.7
				c0.2,0.2,0.5,0.3,0.7,0.3h61.3c0.3,0,0.5-0.1,0.7-0.3c0.2-0.2,0.3-0.5,0.3-0.7V37.6c0-0.3-0.1-0.5-0.3-0.7
				c-0.2-0.2-0.5-0.3-0.7-0.3H141.3z"/>
		</g>
		<g transform="matrix(1,0,0,1,453.531005859375,1284.324951171875)" class="st1">
			<path class="st2" d="M143.5,62.3c-0.6,0-1.1,0.2-1.5,0.6c-0.4,0.4-0.6,0.9-0.6,1.4c0,0.5,0.2,1,0.6,1.4c0.4,0.4,0.9,0.6,1.5,0.6
				h57c0.6,0,1.1-0.2,1.5-0.6c0.4-0.4,0.6-0.9,0.6-1.4c0-0.5-0.2-1.1-0.6-1.4c-0.4-0.4-0.9-0.6-1.5-0.6H143.5z"/>
		</g>
		<g transform="matrix(1,0,0,1,437.6960144042969,1294.6600341796875)" class="st1">
			<path class="st6" d="M159.3,62.1c-0.6,0-1.1,0.2-1.5,0.7c-0.4,0.4-0.6,1-0.6,1.6c0,0.6,0.2,1.2,0.6,1.6c0.4,0.4,0.9,0.7,1.5,0.7
				h25.4c0.6,0,1.1-0.2,1.5-0.7c0.4-0.4,0.6-1,0.6-1.6c0-0.6-0.2-1.2-0.6-1.6c-0.4-0.4-0.9-0.7-1.5-0.7H159.3z"/>
		</g>
		<g transform="matrix(1,0,0,1,552.0560302734375,1284.324951171875)" class="st1">
			<path class="st2" d="M143.5,62.3c-0.6,0-1.1,0.2-1.5,0.6c-0.4,0.4-0.6,0.9-0.6,1.4c0,0.5,0.2,1,0.6,1.4c0.4,0.4,0.9,0.6,1.5,0.6
				h57c0.6,0,1.1-0.2,1.5-0.6c0.4-0.4,0.6-0.9,0.6-1.4c0-0.5-0.2-1.1-0.6-1.4c-0.4-0.4-0.9-0.6-1.5-0.6H143.5z"/>
		</g>
		<g transform="matrix(1,0,0,1,536.2210083007812,1294.6600341796875)" class="st1">
			<path class="st6" d="M159.3,62.1c-0.6,0-1.1,0.2-1.5,0.7c-0.4,0.4-0.6,1-0.6,1.6c0,0.6,0.2,1.2,0.6,1.6c0.4,0.4,0.9,0.7,1.5,0.7
				h25.4c0.6,0,1.1-0.2,1.5-0.7c0.4-0.4,0.6-1,0.6-1.6c0-0.6-0.2-1.2-0.6-1.6c-0.4-0.4-0.9-0.7-1.5-0.7H159.3z"/>
		</g>
		<g transform="matrix(1,0,0,1,648.0670166015625,1284.324951171875)" class="st1">
			<path class="st2" d="M143.5,62.3c-0.6,0-1.1,0.2-1.5,0.6c-0.4,0.4-0.6,0.9-0.6,1.4c0,0.5,0.2,1,0.6,1.4c0.4,0.4,0.9,0.6,1.5,0.6
				h57c0.6,0,1.1-0.2,1.5-0.6c0.4-0.4,0.6-0.9,0.6-1.4c0-0.5-0.2-1.1-0.6-1.4c-0.4-0.4-0.9-0.6-1.5-0.6H143.5z"/>
		</g>
		<g transform="matrix(1,0,0,1,453.531005859375,1273.7349853515625)" class="st1">
			<path class="st2" d="M143.5,62.3c-0.6,0-1.1,0.2-1.5,0.6c-0.4,0.4-0.6,0.9-0.6,1.4c0,0.5,0.2,1,0.6,1.4c0.4,0.4,0.9,0.6,1.5,0.6
				h57c0.6,0,1.1-0.2,1.5-0.6c0.4-0.4,0.6-0.9,0.6-1.4c0-0.5-0.2-1.1-0.6-1.4c-0.4-0.4-0.9-0.6-1.5-0.6H143.5z"/>
		</g>
		<g transform="matrix(1,0,0,1,552.0560302734375,1273.7349853515625)" class="st1">
			<path class="st2" d="M143.5,62.3c-0.6,0-1.1,0.2-1.5,0.6c-0.4,0.4-0.6,0.9-0.6,1.4c0,0.5,0.2,1,0.6,1.4c0.4,0.4,0.9,0.6,1.5,0.6
				h57c0.6,0,1.1-0.2,1.5-0.6c0.4-0.4,0.6-0.9,0.6-1.4c0-0.5-0.2-1.1-0.6-1.4c-0.4-0.4-0.9-0.6-1.5-0.6H143.5z"/>
		</g>
		<g transform="matrix(1,0,0,1,648.0670166015625,1273.7349853515625)" class="st1">
			<path class="st2" d="M143.5,62.3c-0.6,0-1.1,0.2-1.5,0.6c-0.4,0.4-0.6,0.9-0.6,1.4c0,0.5,0.2,1,0.6,1.4c0.4,0.4,0.9,0.6,1.5,0.6
				h57c0.6,0,1.1-0.2,1.5-0.6c0.4-0.4,0.6-0.9,0.6-1.4c0-0.5-0.2-1.1-0.6-1.4c-0.4-0.4-0.9-0.6-1.5-0.6H143.5z"/>
		</g>
		<g transform="matrix(1,0,0,1,632.4829711914062,1294.6600341796875)" class="st1">
			<path class="st6" d="M159.1,62.1c-0.6,0-1.1,0.2-1.5,0.7c-0.4,0.4-0.6,1-0.6,1.6c0,0.6,0.2,1.2,0.6,1.6c0.4,0.4,1,0.7,1.5,0.7
				h25.8c0.6,0,1.1-0.2,1.5-0.7c0.4-0.4,0.6-1,0.6-1.6c0-0.6-0.2-1.2-0.6-1.6c-0.4-0.4-1-0.7-1.5-0.7H159.1z"/>
		</g>
	</g>
	<g transform="matrix(0.6299999952316284,0,0,0.6299999952316284,-135.32937622070312,-10.194061279296875)" class="st19">
		<g transform="matrix(1,0,0,1,741.8179931640625,233.39300537109375)" class="st1">
			<path class="st20" d="M132-49l-2.3,7.7v224.8l2.3,2.3l104-61.7L132-49z"/>
		</g>
		<g transform="matrix(1,0,0,1,638.9840087890625,233.3939971923828)" class="st1">
			<path class="st21" d="M234.9-49l-104,173.1l104,61.7V76.7V-49z"/>
		</g>
		<g transform="matrix(1,0,0,1,742.343994140625,382.4119873046875)" class="st1">
			<path class="st22" d="M131.5,56.6l-1.3,1.6v80.1l1.3,3.8l104-147L131.5,56.6z"/>
		</g>
		<g transform="matrix(1,0,0,1,638.9840087890625,382.4110107421875)" class="st1">
			<path class="st21" d="M234.9,141.9V56.6l-104-61.6L234.9,141.9z"/>
		</g>
		<g transform="matrix(1,0,0,1,742.9520263671875,296.239990234375)" class="st1">
			<path class="st23" d="M130.9,123l104-61.7l-104-47.4V123z"/>
		</g>
		<g transform="matrix(1,0,0,1,638.9840087890625,296.239013671875)" class="st1">
			<path class="st24" d="M130.9,61.3l104,61.7V13.9L130.9,61.3z"/>
		</g>
	</g>
	<g transform="matrix(0.38999998569488525,0,0,0.38999998569488525,15.647125244140625,179.59033203125)">
		<g transform="matrix(1,0,0,1,958.0390014648438,149.55299377441406)">
			<path class="st25" d="M-162.7,119.5l-24.5,88.1h-25.5l-34.1-129h28l20.3,93.4h0.7l24.1-93.4h22.8l24.1,93.4h0.7l20.4-93.4h28
				l-34.2,129h-25.5l-24.5-88.1H-162.7z M-40.5,190.2c11.3,0,20.7-7.4,20.7-17.8v-7l-20.2,1.2c-9.7,0.7-15.3,5.1-15.3,11.9
				C-55.3,185.8-49.4,190.2-40.5,190.2z M-49.1,209.1c-18.2,0-32.1-11.8-32.1-29c0-17.4,13.4-27.5,37.3-29l24.1-1.4v-6.3
				c0-8.9-6.3-14.1-16.1-14.1c-9.7,0-15.9,4.8-17.2,11.9h-23.9c1-18.6,16.8-31.4,42.2-31.4c24.6,0,40.6,12.7,40.6,32v65.9h-25.2
				v-14.7h-0.5C-25.3,203.1-37.1,209.1-49.1,209.1z M23.3,78.6h26.1v129H23.3V78.6z M67.6,78.6h26.1v129H67.6V78.6z M154.3,129
				c-11.4,0-19.7,8.7-20.6,20.6h40.7C173.9,137.4,165.9,129,154.3,129z M174.8,178.3h24c-2.9,18.8-20,31.4-43.7,31.4
				c-29.5,0-47.2-18.9-47.2-49.5c0-30.6,17.9-50.4,46.2-50.4c27.9,0,45.5,18.9,45.5,48v8h-66v1.6c0,13.7,8.7,23.1,22,23.1
				C165,190.3,172.3,185.6,174.8,178.3z M219.9,89.7H246v22.1h17.7v19.7H246v45.8c0,7.3,3.6,10.8,11.3,10.8c2.3,0,4.7-0.2,6.3-0.4
				v19.2c-2.7,0.6-7.2,1.1-12.4,1.1c-22.5,0-31.3-7.5-31.3-26.2v-50.3h-13.5v-19.7h13.5V89.7z M337.2,209.8c-37.5,0-61-25.1-61-66.8
				c0-41.6,23.7-66.7,61-66.7c31,0,54.6,19.7,56.7,48.5h-26.3c-2.5-15.8-14.7-26.2-30.4-26.2c-20.4,0-33.5,17.1-33.5,44.2
				c0,27.5,13,44.5,33.6,44.5c16,0,27.5-9.4,30.4-24.7H394C390.9,191.6,368.9,209.8,337.2,209.8z M452.3,209.6
				c-29,0-47.5-18.6-47.5-50c0-31,18.8-49.9,47.5-49.9c28.7,0,47.5,18.8,47.5,49.9C499.8,191.1,481.3,209.6,452.3,209.6z
				 M452.3,189.7c12.8,0,20.9-10.8,20.9-30c0-19-8.2-30-20.9-30c-12.7,0-21,11-21,30C431.3,178.9,439.5,189.7,452.3,189.7z
				 M513.2,207.6v-95.8h25.2v17.1h0.5C544,117,554.1,110,568.9,110c21.3,0,33.2,13.4,33.2,35.8v61.8H576v-56.3
				c0-12.5-5.9-19.7-17.6-19.7c-11.7,0-19.1,8.6-19.1,21v55H513.2z M618.6,207.6v-95.8h25.2v17.1h0.5c5.1-11.9,15.2-18.9,29.9-18.9
				c21.3,0,33.2,13.4,33.2,35.8v61.8h-26.1v-56.3c0-12.5-5.9-19.7-17.6-19.7c-11.7,0-19.1,8.6-19.1,21v55H618.6z M767.1,129
				c-11.4,0-19.7,8.7-20.6,20.6h40.7C786.7,137.4,778.7,129,767.1,129z M787.5,178.3h24c-2.9,18.8-20,31.4-43.7,31.4
				c-29.5,0-47.2-18.9-47.2-49.5c0-30.6,17.9-50.4,46.2-50.4c27.9,0,45.5,18.9,45.5,48v8h-66v1.6c0,13.7,8.7,23.1,22,23.1
				C777.8,190.3,785.1,185.6,787.5,178.3z M912.7,147.4h-24.2c-1.5-10.1-8.2-17.2-18.9-17.2c-12.9,0-20.9,10.9-20.9,29.4
				c0,18.9,8,29.6,21,29.6c10.5,0,17.2-6.3,18.9-16.7h24.3c-1.3,22.6-18.2,37.2-43.4,37.2c-28.9,0-47.2-18.8-47.2-50
				c0-30.7,18.3-49.9,47-49.9C895.1,109.7,911.6,125.7,912.7,147.4z M932.4,89.7h26.1v22.1h17.7v19.7h-17.7v45.8
				c0,7.3,3.6,10.8,11.3,10.8c2.3,0,4.7-0.2,6.3-0.4v19.2c-2.7,0.6-7.1,1.1-12.4,1.1c-22.5,0-31.3-7.5-31.3-26.2v-50.3h-13.5v-19.7
				h13.5V89.7z"/>
		</g>
		<g transform="matrix(1,0,0,1,194.28700256347656,119)">
			<path class="st26" d="M54.1,47.7c77.3-75.7,202.6-75.7,280,0l9.3,9.1c3.9,3.8,3.9,9.9,0,13.7l-31.8,31.2c-1.9,1.9-5.1,1.9-7,0
				l-12.8-12.5c-53.9-52.8-141.4-52.8-195.3,0l-13.7,13.4c-1.9,1.9-5.1,1.9-7,0L43.9,71.4c-3.9-3.8-3.9-9.9,0-13.7L54.1,47.7z
				 M399.9,112.1l28.3,27.7c3.9,3.8,3.9,9.9,0,13.7L300.5,278.6c-3.9,3.8-10.1,3.8-14,0l-90.7-88.8c-1-0.9-2.5-0.9-3.5,0l-90.6,88.8
				c-3.9,3.8-10.1,3.8-14,0L-40.1,153.6c-3.9-3.8-3.9-9.9,0-13.7l28.3-27.7c3.9-3.8,10.1-3.8,14,0l90.7,88.8c1,0.9,2.5,0.9,3.5,0
				l90.6-88.8c3.9-3.8,10.1-3.8,14,0l90.7,88.8c1,0.9,2.5,0.9,3.5,0l90.7-88.8C389.7,108.3,396,108.3,399.9,112.1z"/>
		</g>
	</g>
	<g transform="matrix(1.6299999952316284,0,0,1.6299999952316284,155.8493194580078,191.76559448242188)" class="st27">
		<g transform="matrix(1,0,0,1,86.01000213623047,20.88800048828125)" class="st1">
			<path class="st5" d="M26.1,23.3c-3.3,0-6.5,1.5-8.5,4.2c-2.3,2.8-3.5,6.3-3.4,9.9c-0.1,2.3,0.6,4.6,2.1,6.3
				c1.4,1.6,3.5,2.5,5.7,2.4c3.2,0,6.2-1.5,8.1-4c2.4-2.9,3.7-6.5,3.7-10.3c0.1-2.2-0.5-4.4-1.8-6.2C30.8,24.1,28.8,23.3,26.1,23.3z
				 M26.2,40.2c-1.1,1.1-2.5,1.7-4.1,1.7c-1,0.1-2-0.4-2.7-1.2c-0.7-1-1-2.1-1-3.3c-0.1-2.5,0.6-5,2.1-7.1c1.1-1.8,3.1-2.9,5.3-2.9
				c2.4,0,3.6,1.5,3.6,4.4C29.5,34.9,28.3,37.9,26.2,40.2z M155.1,33.8c-1-0.3-2.1,0.1-2.5,1.1c-1.9,4.7-4.1,7-6.9,7
				c-1.5,0-2.2-1.3-2.2-3.7c0.2-2.7,0.6-5.4,1.2-8.1l0.6-2.8h5.7c1,0,1.8-0.7,2-1.7c0.2-1.1-0.5-2.2-1.6-2.4c-0.1,0-0.3,0-0.4,0
				h-4.8l1-4.7c0.2-1.2-0.5-2.3-1.7-2.6c-0.1,0-0.3,0-0.4,0c-1,0-1.9,0.7-2.1,1.7l-1.2,5.5h-13.3c-3.4,0-6.5,1.6-8.5,4.3
				c-2.3,2.8-3.5,6.3-3.4,9.9c0,1,0.1,1.9,0.3,2.9c-0.9,1-2.1,1.6-3.5,1.7c-0.7,0.1-1.3-0.2-1.8-0.7c-0.4-0.7-0.6-1.6-0.5-2.4
				c0.1-2.4,0.4-4.8,1-7.1l3.5-16.1c0.3-1.1-0.4-2.3-1.6-2.5c-1.1-0.3-2.3,0.4-2.5,1.6l-2,9.8c-1.4-0.8-3-1.3-4.7-1.3
				c-3.3,0-6.5,1.4-8.7,4c-2.3,2.8-3.6,6.4-3.5,10.1c0,1.2,0.1,2.3,0.5,3.5c-0.8,0.7-1.9,1.1-2.9,1.1c-0.7,0.1-1.4-0.2-1.9-0.7
				c-0.5-0.7-0.7-1.5-0.6-2.4c0.1-1.6,0.3-3.2,0.7-4.8c0.2-1.2-0.5-2.3-1.7-2.6c-0.1,0-0.1,0-0.2,0c-1.1-0.1-2.1,0.6-2.3,1.6
				c-0.6,2.3-1.6,4.4-2.9,6.3c-1,1.5-2.6,2.5-4.4,2.6c-0.9,0-1.8-0.5-2.3-1.3c-0.6-1.1-0.9-2.3-0.9-3.5c-0.1-2.5,0.6-5,2.1-7
				c1.2-1.8,3.3-2.8,5.5-2.8c1.1,0,2.2,0.2,3.2,0.7c0.6,0.3,1.3,0.2,1.9-0.1c1-0.6,1.3-1.8,0.7-2.8c-0.2-0.4-0.6-0.7-1-0.8
				c-0.5-0.2-1.1-0.4-1.7-0.5c-1-0.3-2.1-0.4-3.1-0.5c-3.3,0-6.5,1.5-8.6,4c-1.3,1.4-2.2,3.1-2.7,4.9c-2.1,6.6-4.7,9.8-7.9,9.8
				c-0.9,0.1-1.8-0.3-2.4-1.1c-0.5-0.8-0.8-1.7-0.7-2.6c0-0.3,0-0.6,0.1-0.9c1.9-0.8,3.6-2,4.9-3.7c1.2-1.6,1.9-3.5,1.9-5.5
				c0-3.3-1.8-5-5.5-5c-2.5,0-5,1-6.8,2.8l2.3-10.5c0.2-1.1-0.5-2.3-1.6-2.5c-0.1,0-0.3,0-0.4,0c-1,0-1.9,0.7-2.1,1.7l-6.2,28.9
				c-0.2,1.1,0.5,2.2,1.6,2.5c0.1,0,0.3,0,0.4,0c1,0,1.8-0.8,2-1.7l1.9-8.9c0.3-1.2,0.8-2.3,1.3-3.4c0.7-1.2,1.7-2.3,2.8-3.2
				c1.2-1,2.7-1.6,4.2-1.5c0.8-0.1,1.5,0.4,1.6,1.2c0,0.1,0,0.3,0,0.4c-0.1,1.4-0.8,2.7-2,3.5c-1.2,1.1-2.7,1.8-4.3,2.1
				c-0.1,1.3-0.2,2.2-0.2,2.7c-0.1,2.3,0.6,4.6,1.9,6.4c1.3,1.6,3.3,2.5,5.3,2.3c2.8,0,5.5-1.4,7.3-3.6l0.8-1
				c0.3,0.8,0.7,1.5,1.3,2.1c1.3,1.6,3.3,2.5,5.3,2.4c2.9,0,5.3-1.3,7.3-4.1c0.9,2.8,2.9,4.1,6.2,4.1c1.9,0,3.7-0.7,5.1-1.9
				c1.3,1.2,3,1.9,4.8,1.8c2.9,0,5.3-1.3,7.3-4.1c0.9,2.8,2.9,4.1,6.2,4.1c2.1,0,4.2-0.8,5.7-2.2c1.4,1.5,3.4,2.3,5.4,2.2
				c3.2,0,6.2-1.5,8.1-4c2.4-2.9,3.7-6.5,3.7-10.3c0-1.5-0.2-3-0.8-4.5h5.5l-0.5,2.4c-0.7,2.8-1.1,5.6-1.3,8.5
				c0,5.2,2.1,7.9,6.3,7.9c4.8,0,8.3-3.2,10.9-9.5c0.4-1,0-2.1-0.9-2.5C155.3,33.8,155.2,33.8,155.1,33.8z M107.9,31.3
				c-0.7,3.7-1.9,6.3-3.3,8.1c-1.4,1.7-2.9,2.6-4.5,2.6c-0.9,0-1.8-0.5-2.3-1.3c-0.6-1.1-0.9-2.2-0.9-3.5c-0.1-2.5,0.6-5,2.1-7
				c1.9-2.9,5.7-3.7,8.5-1.8c0.3,0.2,0.5,0.4,0.8,0.6L107.9,31.3z M131.1,36.3c-0.6,1.4-1.4,2.7-2.4,3.9c-1.1,1.1-2.5,1.8-4.1,1.8
				c-1,0.1-2-0.4-2.7-1.2c-0.7-1-1-2.1-1-3.3c-0.1-2.5,0.6-5,2.1-7.1c1.2-1.8,3.1-2.9,5.3-2.9c2.4,0,3.6,1.5,3.6,4.4
				C131.9,33.3,131.6,34.8,131.1,36.3L131.1,36.3z M44.1,12.9c-1,0-1.9,0.7-2.1,1.7l-6.2,28.9c-0.2,1.1,0.5,2.2,1.6,2.5
				c0.1,0,0.3,0,0.4,0c1,0,1.9-0.7,2.1-1.7l6.2-28.9c0.2-1.2-0.5-2.3-1.7-2.5C44.4,13,44.3,13,44.1,12.9z M-0.1,6.6
				c-8.4,0-15.1,6.8-15.2,15.2c0,1.7,0.3,3.3,0.8,4.9c0.4,1.1,1.6,1.7,2.7,1.3c1.1-0.4,1.6-1.6,1.3-2.7c-0.4-1.2-0.7-2.6-0.6-3.9
				c0.2-6,5.2-10.8,11.3-10.6c6,0.2,10.8,5.2,10.6,11.3c-0.2,5.7-4.6,10.3-10.3,10.6c0,0-2.1,0.1-3.2,0.3c-0.4,0.1-0.8,0.1-1.2,0.2
				c-0.1,0-0.2,0-0.2,0c0-0.1,0-0.1,0-0.2l0.3-1.8l2-9.1c0.2-1.1-0.5-2.2-1.6-2.5c-1.1-0.2-2.2,0.5-2.5,1.6c0,0-4.8,22.1-4.8,22.3
				c-0.3,1.1,0.4,2.2,1.5,2.4c0,0,0.1,0,0.1,0c1.1,0.3,2.2-0.4,2.4-1.5c0,0,0-0.1,0-0.1c0.1-0.3,0.7-3.2,0.7-3.2
				c0.5-2.2,2.2-3.9,4.5-4.2C-0.9,37,1,36.8,1,36.8c8.3-0.8,14.5-8.2,13.7-16.5C14,12.6,7.6,6.7-0.1,6.6z"/>
		</g>
		<g transform="matrix(1,0,0,1,174.21600341796875,38.465999603271484)" class="st1">
			<path class="st28" d="M71.3,23.9c-1.4-0.3-2.7,0.6-3,2c0,0,0,0,0,0c-0.3,1.4,0.6,2.7,1.9,3c0,0,0,0,0.1,0c1.3,0.3,2.7-0.5,3-1.9
				c0,0,0-0.1,0-0.1C73.5,25.6,72.7,24.3,71.3,23.9z"/>
		</g>
	</g>
	<g transform="matrix(0.16099999845027924,0,0,0.16099999845027924,140.20750427246094,118.52912139892578)" class="st29">
		<g transform="matrix(1,0,0,1,1180.260009765625,95.81800079345703)" class="st1">
			<path class="st30" d="M732.8,256.5c-2.2,1.5-3.3,2.3-4.4,3.1c-9,6.2-18.1,12.5-27.2,18.7c-0.8,0.5-1.8,0.6-2.7,1
				c0.6-0.6,1.1-1.4,1.8-1.8c9.7-7,19.5-14,29.2-20.9C730,256.2,730.9,256.5,732.8,256.5z"/>
		</g>
		<g transform="matrix(1,0,0,1,1099.6199951171875,203.57400512695312)" class="st1">
			<path class="st30" d="M711.3,274.4c-0.6-0.1-0.8-0.1-0.9-0.2c0.1-0.4,0-1,0.2-1.3c3.1-3.9,6.3-7.7,9.5-11.5
				c0.1-0.2,0.4-0.2,0.7-0.4c0,0.1,0.2,0.3,0.2,0.4C717.7,265.9,714.4,270.2,711.3,274.4z"/>
		</g>
		<g transform="matrix(1,0,0,1,1121.1500244140625,171.7899932861328)" class="st1">
			<path class="st30" d="M703.5,281.7c-0.6-0.2-0.7-0.2-0.9-0.3c0.1-0.4,0.1-1,0.4-1.2c3.5-3.5,7.1-7,10.6-10.5
				c0.2-0.2,4.2-4.7,4.5-4.8c1.4-1.3,10.7-11.1,0.8,0C715.2,269,707.1,277.9,703.5,281.7z"/>
		</g>
		<g transform="matrix(1,0,0,1,1135.2900390625,133.91099548339844)" class="st1">
			<path class="st30" d="M695.3,287.5c2.4-3.1,11.3-12.5,24.2-25c3.7-3.3,10-9.2,13.8-12.5c0.2-0.2,2.4-1.8,2.6-1.9
				c0,0.1-1.8,2-1.8,2C730.3,253.9,703.3,277.6,695.3,287.5z"/>
		</g>
		<g transform="matrix(1,0,0,1,1099.6800537109375,228.00799560546875)" class="st1">
			<path class="st30" d="M720.2,261.9c-2.5,3.7-5,7.5-7.6,11.2c-0.2,0.3-0.9,0.4-1.3,0.6c0-0.3-0.2-0.8,0-1
				C714.2,269.1,717.2,265.5,720.2,261.9z"/>
		</g>
		<g transform="matrix(1,0,0,1,1048.14501953125,255.7169952392578)" class="st1">
			<path class="st30" d="M719.6,261.4c-2.1,4-4.2,8-6.3,12c-0.2,0.3-0.8,0.5-1.3,0.7c-0.1-0.3-0.3-0.8-0.1-1
				C714.4,269.2,717,265.4,719.6,261.4z"/>
		</g>
		<g transform="matrix(1,0,0,1,1552.5450439453125,971.0960083007812)" class="st1">
			<path class="st30" d="M710.9,268.4c1.2-0.3,2.3-0.8,3.5-0.9c2-0.3,4.1-0.3,6.1-0.4c-2.1,0.5-4.1,1-6.2,1.4
				C713.2,268.5,712,268.3,710.9,268.4L710.9,268.4z"/>
		</g>
		<g transform="matrix(1,0,0,1,1203.3349609375,80.88400268554688)" class="st1">
			<path class="st30" d="M717.9,266.7c-0.2,0.3-0.5,0.6-0.8,0.7c-1.1,0.6-2.3,1.1-3.5,1.8c0-0.3-0.1-0.8,0-0.9
				c1.3-0.6,2.7-1.3,4-1.9C717.7,266.5,717.8,266.6,717.9,266.7z"/>
		</g>
		<g transform="matrix(1,0,0,1,1158.97998046875,111.17900085449219)" class="st1">
			<path class="st30" d="M714.5,270.1c-0.7-0.9-0.9-1.1-0.9-1.1c1.2-1.1,2.4-2.3,3.7-3.4c0,0,0.5,0.4,0.5,0.4
				C716.7,267.2,715.7,268.5,714.5,270.1z"/>
		</g>
		<g transform="matrix(1,0,0,1,1110.875,214.61599731445312)" class="st1">
			<path class="st30" d="M717.7,266.5c-1.4,1.1-2.5,2-3.7,3c-0.1-0.2-0.4-0.5-0.4-0.5c1.1-1,2.2-1.9,3.4-2.9
				C717,266,717.3,266.3,717.7,266.5z"/>
		</g>
		<g transform="matrix(1,0,0,1,1129.5150146484375,184.73300170898438)" class="st1">
			<path class="st30" d="M713.9,269.2c0.4-0.4,0.8-0.8,1.2-1.1c0.7-0.6,1.4-1.1,2-1.8c0.1,0.1,0.2,0.1,0.2,0.3
				C716.3,267.5,715.1,268.4,713.9,269.2z"/>
		</g>
		<g transform="matrix(1,0,0,1,1090.7550048828125,200.2729949951172)" class="st1">
			<path class="st30" d="M714.9,268.1c0.5-0.5,0.9-0.8,1.2-1.1c0.1,0.1,0.3,0.4,0.3,0.4c-0.3,0.4-0.6,0.8-1,1.1
				C715.4,268.6,715.1,268.3,714.9,268.1z"/>
		</g>
		<g transform="matrix(1,0,0,1,1162.72998046875,153.7550048828125)" class="st1">
			<path class="st30" d="M715.8,266.9c0.4,0,0.9-0.1,1.3-0.1c-0.9,0.7-1.9,1.4-2.8,2C714.7,268.1,715.3,267.5,715.8,266.9z"/>
		</g>
		<g transform="matrix(1,0,0,1,1114.97998046875,844.1240234375)" class="st1">
			<path class="st30" d="M714.6,266.6c0.8,0.8,1.5,1.6,2.2,2.4C716,268.2,715.3,267.4,714.6,266.6z"/>
		</g>
		<g transform="matrix(1,0,0,1,1039.344970703125,257.4989929199219)" class="st1">
			<path class="st30" d="M717.1,265.1c-0.3,0.4-2.3,4.9-2.5,5.3c-0.1-0.2-0.4-0.5-0.3-0.6C714.5,269.4,716.9,265.4,717.1,265.1z"/>
		</g>
		<g transform="matrix(1,0,0,1,1104.574951171875,213.03799438476562)" class="st1">
			<path class="st30" d="M714.7,268.3c0.7-0.4,1.3-0.7,2-1.1C716,267.6,715.3,267.9,714.7,268.3z"/>
		</g>
		<g transform="matrix(1,0,0,1,1206.7650146484375,78.84100341796875)" class="st1">
			<path class="st30" d="M717.1,267.1c-0.9,0.5-1.8,1.1-2.7,1.6c-0.1-0.1-0.1-0.2-0.2-0.3c0.9-0.5,1.8-1.1,2.7-1.6
				C716.9,266.9,717,267,717.1,267.1z"/>
		</g>
		<g transform="matrix(1,0,0,1,1150.6199951171875,173.70799255371094)" class="st1">
			<path class="st30" d="M715.5,267.3c0.4,0,0.9-0.1,1.3-0.1c-0.8,0.4-1.5,0.7-2.3,1.1C714.9,268,715.2,267.7,715.5,267.3z"/>
		</g>
		<g transform="matrix(1,0,0,1,1077.7449951171875,793.4249877929688)" class="st1">
			<path class="st30" d="M716.2,268.7c-0.4-0.5-0.8-1.1-1.3-1.6c0.2,0,0.4-0.1,0.4-0.1c0.4,0.5,0.7,1,1,1.5
				C716.3,268.5,716.3,268.6,716.2,268.7z"/>
		</g>
		<g transform="matrix(1,0,0,1,1104.864990234375,221.39100646972656)" class="st1">
			<path class="st30" d="M715.1,268.5c0.3-0.5,0.6-1,0.8-1.5c0.1,0.1,0.3,0.2,0.4,0.3C715.9,267.7,715.5,268.1,715.1,268.5
				C715,268.5,715.1,268.5,715.1,268.5z"/>
		</g>
		<g transform="matrix(1,0,0,1,1546.0889892578125,971.9210205078125)" class="st1">
			<path class="st30" d="M717.3,267.5c-1.1,0.2-2.2,0.3-3.3,0.5l0,0C715.1,267.9,716.2,267.7,717.3,267.5L717.3,267.5z"/>
		</g>
		<g transform="matrix(1,0,0,1,1268.0899658203125,970.593994140625)" class="st1">
			<path class="st30" d="M720.8,269.4c1.8,0.7,3.6,1.4,5.4,2.2c0.3,0.4,0.7,0.7,1,1.1l0,0c-7.8-3.2-15.5-6.5-23.2-9.7
				C709.6,265.1,715.2,267.2,720.8,269.4z"/>
		</g>
		<g transform="matrix(1,0,0,1,1069.3349609375,807.8410034179688)" class="st1">
			<path class="st30" d="M715.3,266.6c0.2,0.8,0.5,1.5,0.8,2.3C715.8,268.2,715.5,267.4,715.3,266.6z"/>
		</g>
		<g transform="matrix(1,0,0,1,1496.385009765625,35.150001525878906)" class="st1">
			<path class="st30" d="M784.4,271.6c-0.2,0-0.4-0.1-0.6-0.1c-4.3-0.5-13.2,3.3-47-5.7c-4-1.1-7.5-1.9-10.6-2.5
				c-6.8-0.7-13.5-1.2-19.9-1.6c-8.6,0.7-13.6,3.2-25.1,1.9c-6.3-0.7-12.8,0.1-17.9,1.3c-11.3,2.6-16.3,6.9,0,0
				c0.2-0.1,0.5-0.2,0.7-0.3c8-3.5,24-3.9,42.4-2.9c4.9-0.4,10.9-0.2,19.9,1.6c21.4,2.1,43.2,5.5,57.7,8.2
				C784.1,271.5,784.2,271.6,784.4,271.6z"/>
		</g>
		<g transform="matrix(1,0,0,1,1499.22998046875,506)" class="st1">
			<path class="st30" d="M1102.9,568.7c1.6-2.1,3.2-4.1,4.8-6.2c1-1.5,1.9-2.9,2.9-4.3v0c1.7-2.6,3.5-5.1,5.2-7.8
				c1.1-1.6,2.2-3.2,3.4-4.8v0c1.3-1.7,2.6-3.4,3.7-5.2c3.7-5.9,7.4-11.9,10.8-18c1.3-2.5,2.7-4.9,4-7.4v0v0l0,0
				c5.3-9.6,10.6-19.3,15.2-29.2c4.1-8.8,7.6-17.8,11.1-26.9v0v0c1.3-3.5,2.7-7,4.1-10.4c0.4-1.1,0.9-2.2,1.3-3.3v0v0v0
				c2.1-5.2,4.1-10.3,5.8-15.6c3.5-11.2,6.7-22.4,9.7-33.8c0.1-0.6,0.3-1.1,0.4-1.7l0.3-1c3-11.4,6.1-22.9,8.4-34.5
				c2.2-11.1,3.7-22.5,4.9-33.9c1.2-11.2,2.1-22.4,2.2-33.6c0-4.8,0.1-9.8,0.2-14.8v0v0v0v0c0.2-10.2,0.3-20.7,0-30.5
				c-0.3-3.8-0.5-7.6-0.8-11.4v0c-0.5-8.2-1-16.3-2.2-24.4c-3.3-21.5-7.4-43-11.5-64.4c-12.5-64.5-44.2-123.9-83.8-175.6
				c-33.9-44.1-71.1-83.1-117.5-114.7c-66.5-45.4-136.4-75.2-217.1-86.9c-13.6-1.9-27.2-3.3-40.9-4.6c-3.2-0.3-6.4-0.6-9.6-0.9
				c-4.2-0.4-8.4-0.6-12.6-0.7c-2-0.1-3.9-0.2-5.9-0.3h-5.9h-3.8h-1.6c-0.9,0.3-1.8,0.6-2.7,0.9c-0.1,0-0.3-0.1-0.5-0.2
				c-0.1,0-0.2-0.1-0.2-0.1c0.1-0.1,0.3-0.2,0.4-0.3c0.1-0.1,0.3-0.2,0.4-0.3h-2.7c-2.1,0.1-4.2,0.3-6.3,0.4
				c-3.1,0.2-6.2,0.4-9.4,0.6c-10,0.8-19.9,1.6-29.9,2.5c-2.1,0.2-4.1,0.3-6.2,0.5c-6.5,0.5-13.1,1.1-19.5,2
				c-10.1,1.5-20.1,3.4-29.9,5.8c-13.3,3.2-26.6,6.8-39.8,10.7c-3.2,1-6.3,2.3-9.4,3.7c-2.4,1.1-4.7,2.1-7.1,3
				c-3.4,1.2-6.8,2.2-10.3,3.2c-2.6,0.8-5.2,1.5-7.8,2.4c-0.6,0.2-1.2,0.7-1.7,1.3c-0.5,0.5-1,1-1.6,1.2c-3,1.2-6,2.4-8.9,3.5v0
				c-4.6,1.8-9.1,3.5-13.6,5.5c-8.1,3.6-16.1,7.6-24,11.7c-9.8,5.2-19.5,10.6-29.2,16.1c-1,0.6-1.8,1.5-2.6,2.3v0
				c-0.4,0.4-0.8,0.9-1.2,1.3c0.1,0,0.1,0.1,0.2,0.2c0,0,0,0.1,0.1,0.1c4.4-2.3,8.7-4.6,13-6.8c8.5-4.5,17-9,25.6-13.2
				c9.4-4.6,19-8.8,28.6-13.1h0c3.9-1.7,7.8-3.5,11.6-5.2c1.3-0.6,2.6-1.2,3.9-1.8c3.6-1.7,7.2-3.4,11-4.6c2.8-0.9,5.8-1.5,8.8-2
				c3.8-0.7,7.6-1.5,11.1-2.9l0.6-0.2l0.6-0.2c6.6-2.5,13.1-5.1,20.1-6.3c6.3-1.2,12.6-2.6,18.8-4.1c3.9-0.9,7.7-1.8,11.6-2.6
				c1.3-0.3,2.6-0.3,4-0.3c1.3,0,2.6-0.1,3.8-0.3c2.6-0.5,5.3-1.2,7.9-1.8c4.4-1.1,8.7-2.1,13.1-2.7c9.1-1.1,18.3-1.6,27.5-2.1
				c1.5-0.1,3.1-0.2,4.7-0.2c5.3-0.3,10.7-0.4,16-0.5c2.7-0.1,5.3-0.1,8-0.2c1.2,0,2.4-0.1,3.6-0.1c3.6-0.1,7.2-0.2,10.8-0.2
				c2.1,0,4.1,0.1,6.2,0.2c1.9,0.1,3.7,0.2,5.6,0.2c1.8,0,3.6,0,5.4-0.1c2.6-0.1,5.2-0.1,7.9,0c11.6,0.8,23.2,1.8,34.8,2.9
				c1,0.1,1.9,0.5,2.9,0.8c0.4,0.2,0.8,0.3,1.2,0.5c-0.5,0-0.9,0-1.4,0c-0.9,0-1.8,0.1-2.8,0.1c-1.2,0-2.3,0-3.5,0
				c-3.4-0.1-6.7-0.3-10.1-0.5c-6.7-0.3-13.4-0.7-20.1-0.8c-3.5-0.1-6.9-0.1-10.3-0.1c0.2,0,0.4-0.1,0.5-0.1c0.2,0,0.4-0.1,0.5-0.1
				c-0.2-0.1-0.4-0.2-0.6-0.3c-0.4-0.2-0.8-0.4-1.3-0.5c-2.5-0.1-4.9-0.2-7.4-0.3c-6.6-0.3-13.2-0.5-19.8-0.4
				c-13.2,0.4-26.5,1.1-39.7,2.3c-5.5,0.5-10.9,1.6-16.3,2.6c-2.4,0.5-4.9,0.9-7.3,1.4c-1.9,0.3-3.7,0.7-5.6,1l0,0
				c-4.1,0.7-8.3,1.5-12.4,2.2c-4,0.7-8,1.4-12,2.1c-10.2,1.8-20.4,3.6-30.5,5.8c-7.7,1.7-15,4.5-22.4,7.4
				c-9.1,3.6-18.2,7.3-27.3,11l0,0c-5.1,2.1-10.1,4.2-15.2,6.2c-2.4,1-4.9,1.9-7.4,2.8c-4.6,1.7-9.2,3.4-13.6,5.6
				c-11.7,5.7-23.3,11.8-34.6,18.3c-12.8,7.3-25.6,14.8-37.8,23c-4.1,2.7-7.5,6.3-11,9.9c-1.5,1.6-3.1,3.2-4.7,4.8
				c-0.5,0.5-0.9,0.9-1.3,1.4c-0.5,0.5-0.9,0.9-1.3,1.4c-1.2,1-2.5,2.1-3.7,3.1l0,0v0c-2.8,2.4-5.6,4.8-8.5,7.1
				c-2.1,1.7-4.3,3.4-6.5,5.1v0c-4.2,3.3-8.4,6.6-12.4,10.2c-2.1,1.9-3.9,4.2-5.7,6.5c-1.2,1.5-2.3,3-3.6,4.4
				c-3.3,3.6-6.8,7.2-10.2,10.8v0l0,0v0v0c-1.6,1.6-3.1,3.2-4.7,4.9c0,0.2,0,0.4,0,0.5v0c0,0.3,0,0.7,0,1c0,0.1-0.3,0.1-0.5,0.2
				c-0.1,0-0.2,0-0.3,0.1c0.1-0.2,0.2-0.5,0.2-0.7v0c0.1-0.2,0.2-0.5,0.2-0.7c-1.6,1.8-3.2,3.5-4.8,5.3c0.3-0.3,0.7-0.5,1-0.8
				c0.2-0.1,0.3-0.2,0.4-0.3l0.2,0.3c-0.3,0.2-0.5,0.3-0.8,0.5c-0.3,0.2-0.6,0.3-0.8,0.5c-0.7,1-1.5,2-2.2,3
				c-1.7,2.3-3.4,4.6-5.3,6.8c-2.5,2.8-5,5.5-7.6,8.3c-4.1,4.4-8.2,8.8-12,13.5c-2.6,3.2-4.9,6.8-7.1,10.4v0c-1.2,2-2.4,3.9-3.7,5.8
				c-3.2,4.8-6.5,9.8-9.8,14.8l0,0c-3.3,5-6.6,10-9.8,14.8c2-2.9,4.6-5.8,7.1-8.7c2.2-2.5,4.3-5,6.1-7.4
				c5.6-7.5,11.3-14.8,17.2-22.1c3.3-4.1,6.8-8,10.2-11.9v0l0,0v0v0v0c1.1-1.2,2.1-2.4,3.2-3.6c0.3-0.3,0.7-0.5,1.1-0.7
				c0.2-0.1,0.4-0.2,0.6-0.3c-0.1,0.2-0.1,0.5-0.1,0.7c-0.1,0.5-0.1,1-0.4,1.2c-0.6,0.6-1.2,1.2-1.9,1.8c-1,0.9-1.9,1.7-2.7,2.7
				c-5,6.7-9.9,13.5-14.8,20.4c-2.6,3.8-4.9,7.6-7.2,11.4v0c-1.9,3.2-3.8,6.4-5.9,9.5l-0.1,0.1c-0.1,0.1-0.1,0.1-0.1,0.2L271,7.6
				l-0.1,0.1c-0.1,0.2-0.4,0.6-1.2,1.7v0l0,0v0c0.4-0.3,0.5-0.5,0.7-0.7c0.2-0.2,0.4-0.4,0.8-0.8v0c0.6-0.9,1.3-1.8,1.9-2.7
				c2.6-3.7,5.2-7.3,8-10.9c2.5-3.2,4.9-6.4,7.4-9.5v0v0v0v0c7.8-10.1,15.5-20.2,24-29.7c11.6-13.1,24-25.5,36.3-37.8c1-1,2-2,3-3
				c8.1-8.1,16.8-15.9,25.5-23.4c2.9-2.5,6.2-4.7,9.5-6.9v0v0c1.9-1.2,3.7-2.5,5.5-3.8c2.3-1.7,4.6-3.4,6.9-5.2
				c3.9-3,7.8-5.9,11.9-8.6c5.5-3.6,11.2-7,16.8-10.4c3.9-2.4,7.8-4.7,11.7-7.1c18.4-11.5,37.8-21.2,58.1-29.1c2.5-1,4.9-2,7.4-3v0
				c8.8-3.5,17.5-7.1,26.5-10.2c10.3-3.5,20.7-6.6,31.2-9.6l0,0c1.6-0.5,3.3-0.9,4.9-1.4c5.9-1.7,11.9-3.3,17.9-4.4
				c3.8-0.7,7.6-1.1,11.4-1.6c3.2-0.4,6.5-0.8,9.8-1.3c2.5-0.4,4.9-1,7.3-1.6c2.8-0.7,5.6-1.4,8.5-1.7c7.7-1,15.5-1.8,23.3-2.6
				c3.2-0.3,6.4-0.7,9.6-1c0.9-0.1,1.8-0.2,2.7-0.3c2.6-0.3,5.3-0.7,7.9-0.7c4.6,0,9.2,0.1,13.8,0.1c2.8,0.1,5.5,0.1,8.3,0.1
				c3,0,6,0,9,0c7.5,0,15,0.1,22.5,0.2c1.1,0,2.3,0.5,3.5,0.9c0.4,0.2,0.9,0.3,1.3,0.5c-1.1,0-2.2,0.1-3.3,0.2
				c-2.6,0.1-5.2,0.3-7.8,0.2c-1.4,0-2.8-0.2-4.2-0.4c-1.7-0.2-3.4-0.5-5.1-0.4c-10.5,0.3-21,0.9-31.5,1.4c-1.6,0.1-3.1,0.2-4.7,0.2
				c-1.6,0.1-3.2,0.2-4.7,0.2c-7.4,0.4-14.8,0.7-22.1,1.4c-4.2,0.4-8.3,1.1-12.4,1.8c-3,0.5-5.9,1-8.9,1.4c-2.3,0.3-4.7,0.5-7.1,0.7
				c-3.6,0.3-7.2,0.6-10.8,1.3c-3.4,0.6-6.8,1.7-10.1,2.7c-2.2,0.7-4.5,1.4-6.7,2c-3,0.8-6,1.4-9,2c-5.4,1.2-10.9,2.3-16,4.1
				c-1.9,0.7-3.8,1.3-5.7,2c-20.3,7.1-40.5,14.3-60.3,22.7c-12.8,5.5-25.1,12.2-37.3,19c-3.6,2-7.3,4-11,6
				c-7.6,4.1-14.9,8.6-22.1,13.4c-8.8,5.9-17.4,12-25.8,18.4c-7.4,5.5-14.6,11.3-21.6,17.3c-4.5,3.9-8.8,8-13.2,12.1v0
				c-1.7,1.6-3.3,3.1-5,4.7c-0.5,0.5-0.9,1.1-1.4,1.7c-0.2,0.3-0.3,0.5-0.5,0.7c0.3-0.2,0.6-0.3,0.8-0.5c0.7-0.4,1.4-0.7,2-1.2
				c4.2-3.6,8.4-7.3,12.6-11v0c2.5-2.2,5.1-4.5,7.6-6.7c0.4-0.4,0.9-0.5,1.4-0.7c0.2-0.1,0.4-0.1,0.6-0.2c-0.2,0.2-0.3,0.4-0.4,0.6
				c-0.2,0.4-0.5,0.8-0.8,1.1c-3,2.8-6,5.5-9.1,8.2v0v0v0l0,0c-5.8,5.3-11.7,10.5-17.3,16c-7.6,7.4-15,15.1-22.4,22.7v0l0,0v0v0
				c-2.5,2.5-4.9,5.1-7.4,7.6c-0.3,0.3-0.6,0.8-0.8,1.2c-0.1,0.2-0.2,0.5-0.4,0.7c0.2-0.1,0.5-0.3,0.7-0.4c0.4-0.2,0.9-0.5,1.2-0.8
				c2.1-2.1,4.2-4.2,6.3-6.4c3.4-3.4,6.7-6.9,10.1-10.2l1.2-1.1c8.8-8.4,17.5-16.9,26.6-24.9c6.1-5.4,12.4-10.5,18.7-15.6l0,0
				c2.8-2.3,5.6-4.5,8.4-6.8c0.3-0.2,0.7-0.3,1.1-0.5c0.2-0.1,0.4-0.1,0.6-0.2c-0.1,0.2-0.2,0.4-0.3,0.6c-0.2,0.4-0.4,0.8-0.7,1.1
				c-2.7,2.3-5.5,4.5-8.2,6.8v0v0h0v0c-5.6,4.6-11.3,9.3-16.7,14.2c-9.6,8.7-19,17.6-28,26.9c-7.5,7.7-14.7,15.8-21.8,23.9
				c-1.5,1.7-3,3.3-4.4,5c-0.9,1-1.5,2.2-2.1,3.5c-0.5,1-1,1.9-1.6,2.8c-0.9,1.2-1.8,2.4-2.6,3.7l0,0
				c-18.9,26.3-37.8,52.7-51.2,82.4c-2.2,4.9-12.3,32-9.7,27c9.8-21.1,20.2-42.8,32.8-62.5c18.2-28.7,37.5-54.7,61.2-77.1
				c0.2-0.2,0.4-0.4,0.6-0.6v0c0.2-0.2,0.4-0.4,0.6-0.6l1.7-2.5c0.1,0.2,0.2,0.5,0.3,0.7c0.1,0.1,0.1,0.1,0.2,0.2c0,0,0.1,0,0.1,0.1
				c1.4-1.4,2.7-2.7,4.1-4.1l0,0c4-4.1,8.1-8.1,12.2-12.1c3.3-3.2,6.6-6.2,10-9.3l0,0v0l0,0c1.2-1.1,2.5-2.2,3.7-3.3
				c0.3-0.4,0.7-0.9,1-1.3v0c0.2-0.2,0.4-0.5,0.6-0.7c0.3-0.3,0.5-0.5,0.8-0.7c0.3-0.2,0.5-0.5,0.8-0.7c-0.1,0.4-0.1,0.8-0.1,1.1
				v0.1c0.5-0.3,1.1-0.6,1.6-1c4.8-3.6,9.5-7.2,14.3-10.8v0c11.6-8.8,23.1-17.6,35.1-25.8c12.2-8.4,25.3-15.5,38.4-22.6
				c11.8-6.3,23.8-12.3,36.2-17.4c14.8-6.1,29.9-11.5,45.1-16.2c16.3-5,32.8-9.4,49.6-12.9c43.5-8.7,87.5-10.7,131.7-6.8
				c37,3.3,73.2,10.5,108.5,22.1c12.1,4,23.9,8.5,35.5,13.5c-9.8-4.1-19.7-7.7-30-10.7c-1.7-0.6-3.6-1.3-5.5-2v0
				c-1.9-0.7-3.7-1.4-5.5-2c-3.2-1-7-2.3-10.1-3.1c-2.9-0.8-5.8-1.6-8.7-2.5c-6.7-1.9-13.5-3.9-20.2-5.3c-12.1-2.5-27.6-5.6-39.8-7
				c-19.7-2.2-33.6-3.1-54.7-3.9c-1.7,0-3.8,0-5.9,0c-4.7,0-9.9-0.1-13.6,0c-8,0.2-12.6,0.6-20.4,1.4l-0.5,0.1
				c-14.6,1.4-29.3,3.2-43.9,5.4c-13.6,2-27.2,4.7-40.7,7.5c-2.3,0.5-4.5,1.4-6.7,2.4c-1.6,0.7-3.1,1.3-4.7,1.8
				c-3.4,1.1-6.9,2.1-10.4,3.1c-6.2,1.8-12.4,3.5-18.3,5.8c-14.2,5.3-28.3,11.2-42.1,17.4c-12.1,5.5-23.9,11.4-35.5,17.9
				c-7.8,4.3-15.2,9.2-22.6,14.1v0c-2,1.3-4.1,2.7-6.1,4c-2.6,1.7-5.1,3.6-7.6,5.5v0c-0.9,0.7-1.8,1.4-2.7,2.1
				c-3.7,2.8-7.3,5.5-10.9,8.3l0,0l0,0l0,0v0l0,0c-3.6,2.8-7.3,5.5-10.9,8.2c-1.5,1.1-3.1,2.2-4.7,3.4c-3.2,2.3-6.5,4.6-9.4,7.3
				c-9.5,8.8-18.7,17.8-27.9,26.9v0l0,0c-1.5,1.4-2.9,2.9-4.4,4.3c-4.7,4.6-9.2,9.4-13.7,14.2c-2.5,2.7-4.9,5.6-7.2,8.5v0v0
				c-0.4,0.4-0.7,0.9-1.1,1.3c-0.2,0.3-0.2,0.8-0.2,1.2c0,0.2,0,0.5,0,0.7c0.2-0.1,0.5-0.1,0.7-0.2c0.6-0.1,1.1-0.2,1.4-0.5
				c0.8-0.9,1.5-1.9,2.2-2.9c0.9-1.2,1.7-2.4,2.7-3.5c1.8-1.9,3.6-3.7,5.4-5.5c1.3-1.2,2.5-2.5,3.8-3.8c4.4-4.6,8.9-9.3,13.3-13.9v0
				v0l0,0v0c2.1-2.3,4.3-4.5,6.4-6.8l1-1c0.2-0.1,0.5-0.1,0.7-0.2c0.4-0.1,0.7-0.2,1.1-0.3c2.4-2.2,4.8-4.5,7.1-6.8
				c5-4.8,9.9-9.6,15.3-13.8c14-11,28.5-21.4,43.1-31.7c7.1-5,14.6-9.4,22-13.8c1-0.6,2-1.1,2.9-1.7c3.9-2.3,8-4.4,12-6.6
				c2-1.1,4-2.1,6.1-3.2c0.3-0.2,0.7-0.4,1-0.6c0.3-0.2,0.7-0.4,1-0.6c0,0.3,0,0.6-0.1,1v0c2.5-1.2,5-2.4,7.4-3.6v0
				c5.1-2.5,10.2-4.9,15.4-7.2c10.9-4.7,21.8-9.5,33-13.5c10.6-3.8,21.3-7.1,32.2-9.8c0.8-0.2,1.6-0.4,2.4-0.6
				c15.3-3.8,30.7-7.5,46.3-9.8c20.5-3,41.2-5.2,61.9-6.2c25.1-1.2,50.1,0.2,75,3.5c28.4,3.8,56.2,10.1,83.5,18.8
				c31.4,9.9,61.6,22.7,89.7,39.8c19.6,11.9,38.5,24.9,56.6,38.9c16.6,13,32.2,27.6,47.4,42.4c20.7,20.2,38.2,43.2,54,67.4
				c30.2,46,52,95.6,64.5,149.3c10.9,47.3,14.4,95,10.7,143.4c-2.6,34.3-8.9,67.9-19,100.8c-13.1,42.6-32.2,82.5-56.7,119.7
				c-19.2,29.1-41.4,55.8-66.5,79.9c-26.2,25.1-55.1,46.9-86.9,64.5c-2.2,1.2-4.5,2.5-6.7,3.8l0,0c-11,6.2-22,12.3-33.6,17.4
				c-19.7,8.6-39.9,16.1-60,23.4c-9.9,3.6-20.1,6.3-30.4,8.6c-8.7,2-17.5,3.6-26.4,5.2l0,0l0,0l0,0v0c-3.8,0.7-7.5,1.4-11.2,2.1
				c-1.3,0.2-2.5,0.4-3.8,0.7v0l0,0c-0.3,0-0.5,0.1-0.8,0.1c-0.4,0.1-0.8,0.1-1.1,0.2c0.8-0.3,1.6-0.6,2.4-0.9
				c0.8-0.3,1.6-0.6,2.4-0.9c0.1,0,0.1-0.1,0.2-0.2l0.1,0l0,0c0,0,0,0,0,0c-2.9,0.3-5.9,0.7-8.8,1c-8,0.9-16,1.8-24,2.9
				c-28.2,3.9-56.5,3-84.7,1.1c-30-2-59.7-7.3-88.5-15.9c-68.2-20.3-129.8-52.2-183.9-98.8c-24.5-21.1-47.3-44-68.3-68.7
				c-0.4-0.5-1-0.8-1.5-1.1c-0.2-0.1-0.4-0.2-0.7-0.4c0.1,0.3,0.1,0.6,0.2,0.9c0.1,0.6,0.3,1.3,0.6,1.8c1.4,2.1,2.8,4.3,4.2,6.5
				c3.5,5.5,7.1,11,11.3,15.8c10.3,12,21.2,23.5,32.4,34.7c5.9,5.9,12.2,11.4,18.4,16.9v0c2.7,2.4,5.4,4.8,8.1,7.2
				c-1-0.7-2-1.4-3-2.1v0c-2.6-1.8-5.2-3.6-7.4-5.8c-2.5-2.4-5-4.8-7.5-7.2v0c-13.7-13.1-27.3-26.3-40.5-39.9
				c-5.6-5.8-10.6-12.2-15.6-18.6c-2.2-2.8-4.4-5.7-6.7-8.5l-0.2,0.2c0.6,0.9,1.1,1.8,1.7,2.8v0v0v0c1.3,2.1,2.5,4.3,4,6.3
				c3.7,5.1,7.4,10,11.2,15l1,1.4c0.4,0.5,0.7,0.9,1.1,1.4l0.4,0.5c2.7,3.5,5.4,7.1,8.1,10.6c2.7,3.5,5.4,7.1,8.1,10.6
				c0.7,0.9,1.4,1.7,2.2,2.5v0c3.3,3.7,6.6,7.5,9.9,11.2c0.2,0.2,0.4,0.5,0.5,0.8v0c0.1,0.1,0.1,0.3,0.2,0.4
				c-0.1-0.1-0.2-0.1-0.4-0.2c-0.2-0.1-0.5-0.3-0.7-0.4c-0.8-0.7-1.7-1.3-2.5-2v0c-1.9-1.5-3.8-3-5.4-4.8
				c-10.2-11.5-20.5-23.1-30.3-34.9c-1.5-1.8-3-3.6-4.5-5.3v0l0,0c-7.4-8.8-14.9-17.6-21.1-27.2c-8.9-13.7-17.2-27.9-25.4-42.1v0v0
				c-2.9-5-5.8-10-8.7-15c-1.9-3.2-3.7-5.9-5.4-8.7c-1.9-2.9-3.8-5.8-5.8-9.3c-0.3-0.5-0.6-1-1-1.6v0v0v0v0
				c-0.5-0.8-1.2-1.8-2.1-3.3c0.7,1.4,1.4,3.3,2,4.8l0.1,0.2c1.4,3.4,2.7,6.7,4,10.1c2.4,6.2,4.8,12.3,7.4,18.4
				c1.9,4.6,4.2,9.1,6.6,13.5c7.6,13.3,15.2,26.6,23.1,39.6c2.5,4.2,5.5,8.1,8.5,12v0c1.3,1.7,2.6,3.4,3.9,5.2
				c0.1,0.4,0.3,0.8,0.4,1.1c0.1,0.4,0.3,0.8,0.4,1.1c0.5,0.5,1,1.1,1.4,1.6v0v0c1.4,1.5,2.8,3.1,4.2,4.7c1.2,1.4,2.4,2.7,3.5,4.1v0
				v0v0c3.7,4.3,7.4,8.6,11.2,12.9c0.7,0.8,1.4,1.5,2.1,2.3v0c1.3,1.4,2.6,2.7,3.7,4.2c1.7,2.1,3.3,4.3,4.9,6.5
				c2.3,3.2,4.7,6.4,7.2,9.4c5.7,6.8,11.5,13.6,17.8,19.9c8.6,8.6,17.3,17.2,26.7,24.9c8.7,7.1,17.7,13.7,26.8,20.3
				c3.8,2.8,7.7,5.6,11.5,8.5c43.6,33,98.9,53.8,151.6,68.2c55.8,15.3,108,17.3,165.3,13.5c58.6-4,116.3-14.9,170.3-38.3
				c9.4-4.1,18.8-8.4,28.1-12.7c5.8-2.7,11.6-5.5,17.2-8.5c4.2-2.2,8.3-4.6,12.3-7c7.2-4.4,14.4-8.8,21.5-13.3
				c3.9-2.5,7.7-5.3,11.5-8.1c3-2.3,6-4.6,8.9-6.9c2.1-1.6,4.1-3.3,6.2-4.9c2.9-2.3,5.8-4.5,8.7-6.7l0,0c5.8-4.4,11.6-8.8,17.2-13.5
				c6.2-5.2,12.1-10.9,17.9-16.6c10-10,19.9-20.2,29.5-30.6c6.6-7.1,12.8-14.7,18.9-22.2C1095.9,577.8,1099.4,573.2,1102.9,568.7z
				 M378.4,639.8c0,0.1,0.1,0.2,0.1,0.3c0.1,0.3,0.2,0.6,0.5,0.8c2.2,1.6,4.4,3.3,6.6,4.9c2.2,1.6,20.8,14.2,20.8,14.2
				s-24.1-17.6-25.9-19.1c-0.4-0.3-0.9-0.5-1.3-0.8C378.8,640,378.6,639.9,378.4,639.8z M724.4-217.6c-0.1,0.2-0.3,0.3-0.4,0.5
				c-0.2,0.2-0.3,0.4-0.5,0.6c0.2,0,0.3,0.1,0.4,0.1c0.3,0.1,0.7,0.2,1,0.2c1.3,0.1,2.5,0.1,3.8,0.2c2.5,0.1,5,0.2,7.5,0.6
				c4.9,0.6,9.8,1.1,14.7,1.5c12.2,1.1,24.4,2.2,36.1,6.4c0.9,0.3,2,0.3,3,0.3c0.8,0,1.7,0,2.5,0.2c5.5,1.2,11,2.4,16.5,3.6l0,0
				c3.9,0.9,7.8,1.7,11.7,2.5c1,0.2,2.1,0.4,3.2,0.5c1.5,0.2,3,0.4,4.4,0.8c2.1,0.6,4.1,1.5,6.2,2.4c0.9,0.4,1.8,0.8,2.7,1.1
				c0.2-0.4,8.5,0,13.2,0.2c2,0.1,3.5,0.2,3.3,0.1c-8.6-2.3-25.8-5.8-39.7-8.7c-6.4-1.3-12.1-2.5-16.1-3.3
				c-13.4-2.9-26.9-5.5-40.4-7.4c-7.6-1.1-15.4-1.5-23-1.9C731.1-217.2,727.7-217.4,724.4-217.6L724.4-217.6z M837.7-195.9l0.9,0.3
				v0c1.9,0.6,3.8,1.2,5.7,1.7c0.2,0.1,0.5,0.1,0.7,0.1c0.1,0,0.2,0,0.3,0c-0.1-0.1-0.1-0.1-0.2-0.2c-0.1-0.2-0.3-0.3-0.5-0.4
				C842.3-194.9,840-195.4,837.7-195.9z M702.1-228.5c-2.3-0.1-4.7-0.2-7-0.2c-3.1-0.1-6.3-0.2-9.4-0.3c-0.3,0-0.6,0.1-0.9,0.1
				c-0.2,0-0.3,0.1-0.4,0.1c0.2,0,0.3,0.1,0.5,0.2c0.3,0.1,0.6,0.2,0.9,0.2c3.5,0,7,0,10.5,0C698.2-228.5,700.2-228.5,702.1-228.5z
				 M681.5-198.4c-0.8-0.1-1.6-0.1-2.4-0.1c-0.2,0-0.3,0.1-0.5,0.2c-0.1,0.1-0.2,0.1-0.3,0.2h0C679.4-198.2,680.4-198.3,681.5-198.4
				z M682-198.4c0.7,0,1.4-0.1,2.1-0.1c0-0.1-0.1-0.2-0.1-0.2C683.3-198.7,682.6-198.6,682-198.4z M1164.9,235.1v-1.1
				C1164.9,234.4,1164.9,234.8,1164.9,235.1z M1164.9,235.1c0,0.4,0.1,0.8,0.2,1.2C1165,236,1165,235.5,1164.9,235.1z M1164.9,229.9
				L1164.9,229.9C1164.9,229.8,1164.9,229.8,1164.9,229.9z M1166.1,241.2L1166.1,241.2C1166.1,241.2,1166.1,241.2,1166.1,241.2z
				 M317.8-56c-0.2,0.3-7.5,7.8-7.5,7.8c0.3-0.5,7.1-9.1,7.1-9.1s10.4-11,15.6-16.6c0.3-0.3,0.6-0.6,0.9-0.9v0
				c0.2-0.2,0.4-0.4,0.6-0.6c1-1,1.9-2,2.8-3c-0.2,0.4-0.4,0.8-0.6,1.2c-0.5,0.9-0.9,1.8-1.6,2.6c-3.8,4.2-7.7,8.3-11.6,12.4v0
				C321.6-60.2,319.7-58.1,317.8-56z M435.6-140.8c0.2,0,0.5,0,0.9,0c-0.5,0.4-0.8,0.7-1.1,1c-0.3,0.3-0.6,0.5-0.8,0.7
				c-3.1,2-6.1,4-9.2,6c-0.4,0.2-0.8,0.4-1.2,0.5c0.1-0.1,0.1-0.2,0.2-0.4c0.1-0.3,0.2-0.5,0.4-0.7c3.3-2.4,6.7-4.7,10.1-7
				C434.9-140.8,435.2-140.8,435.6-140.8z M399.4-137.4c-1.3,0.9-2.6,1.8-3.8,2.6c-0.4-0.1-0.6-0.2-0.8-0.2c0-0.1,0.1-0.2,0.1-0.3
				c0.1-0.2,0.1-0.5,0.3-0.6c2.4-1.6,4.8-3.2,7.2-4.8c0.1-0.1,0.5-0.1,0.7,0c0.1,0,0.1,0.5,0,0.6C402-139.1,400.7-138.2,399.4-137.4
				z M1161.6,203.7c-0.2,0.2-0.2,0.3-0.2,0.5C1161.5,204,1161.5,203.9,1161.6,203.7z M348.4-89c0.2,0.1,0.4,0.2,0.6,0.3
				c-1.3,1.2-2.5,2.3-3.7,3.3v0l0,0c-0.9,0.8-1.8,1.6-2.7,2.5c0,0-0.3-0.2-0.4-0.3c1-1,1.9-2,2.9-3c1-1,1.9-2,2.9-3
				C348-89.2,348.2-89.1,348.4-89z M338.4,628.6h0.7c0.9,0.9,7.8,6.9,15.1,13.4l0.1,0.1l0,0l0,0l0,0c8.4,7.4,17.4,15.3,18.5,16.4
				c26.1,23.4-1.6-0.8-1.6-0.8l-26.9-23c-1.9-1.8-3.9-3.6-5.8-5.4c-0.1-0.1-0.1-0.3-0.1-0.4C338.4,628.7,338.4,628.7,338.4,628.6z
				 M355.6-101.5c0.1,0.1,0.3,0.2,0.4,0.3c-1.1,0.9-2.1,1.8-3,2.7v0v0c-0.6,0.6-1.2,1.1-1.9,1.6l-0.3-0.4c1.5-1.5,3-2.9,4.6-4.4
				C355.4-101.7,355.4-101.6,355.6-101.5z M662.3-197L662.3-197c-1.3,0.1-2.7,0.2-3.9,0.3c-1.3-0.1-2.5-0.2-3.7-0.4
				c0.5-0.1,0.9-0.2,1.4-0.3c1.1-0.2,2.2-0.4,3.3-0.5c0.6,0,1.3,0.2,2,0.4C661.6-197.2,661.9-197,662.3-197L662.3-197z M348.3,623.2
				c0.1-0.1,0.2-0.3,0.3-0.4c0.6,0.7,1.2,1.4,1.7,2v0c0.6,0.7,1.1,1.4,1.7,2l22.3,21.4c-1.2-1.1-25.2-23.3-26.4-24.5
				C347.9,623.8,348.1,623.6,348.3,623.2z M410.7-123.5c-0.5,0.4-1,0.8-1.5,1.2c-0.2-0.3-0.4-0.5-0.3-0.5l0,0
				c1.6-1.1,3.1-2.3,4.8-3.4c0,0,0.1,0.1,0.2,0.1c0.1,0.1,0.1,0.1,0.2,0.2C412.9-125.2,411.8-124.4,410.7-123.5L410.7-123.5
				L410.7-123.5z M1162.1,206.7C1162.1,206.7,1162.1,206.7,1162.1,206.7C1162.1,206.7,1162.1,206.7,1162.1,206.7z M362-106.3
				C362-106.2,362-106.2,362-106.3l-0.1,0.2l-0.2,0.1v0c-0.6,0.5-1.1,1-1.6,1.4c0,0-0.2-0.1-0.4-0.3c0,0-0.1,0-0.1-0.1
				c0,0-0.1,0-0.1-0.1c0.2-0.2,0.4-0.4,0.6-0.5v0v0c0.4-0.3,0.8-0.7,1.2-1c0,0,0.2,0.1,0.5,0.2l0.1,0
				C361.9-106.3,361.9-106.3,362-106.3z M1200.3,278.7C1200.3,278.8,1200.3,278.8,1200.3,278.7L1200.3,278.7z M1182.6,133.3
				L1182.6,133.3C1182.6,133.3,1182.6,133.3,1182.6,133.3C1182.6,133.3,1182.6,133.3,1182.6,133.3
				C1182.6,133.3,1182.6,133.3,1182.6,133.3z M1181.9,131.2L1181.9,131.2C1181.9,131.2,1181.9,131.2,1181.9,131.2z M390.4-131.3
				c-0.4,0.4-0.8,0.7-1.2,1.2c0-0.1,0-0.2-0.1-0.2c0-0.2-0.1-0.3,0-0.4c0.6-0.6,1.2-1.2,1.8-1.8c0,0,0.3,0.2,0.4,0.3
				C391.1-132,390.8-131.7,390.4-131.3z M877.6-182.8c0.2,0.1,0.5,0.3,0.9,0.5c-0.4,0-0.8,0.1-1,0.2c-0.3,0.1-0.6,0.1-0.8,0.1
				c-0.3-0.1-0.6-0.4-0.9-0.6c-0.1-0.1-0.2-0.2-0.4-0.3c0.1,0,0.1,0,0.2,0c0,0,0.1,0,0.1,0h0c0.3-0.1,0.6-0.1,0.9-0.1
				C876.9-183.2,877.2-183,877.6-182.8z M665-228.4c0.2,0.1,0.4,0.2,0.6,0.4c-0.4,0-0.7,0-0.9,0c-0.5,0-0.9,0-1.2,0
				c-0.2,0-0.3-0.2-0.5-0.4c-0.1-0.1-0.1-0.2-0.2-0.3c0.1,0,0.3,0,0.4,0c0.3,0,0.7-0.1,1.1,0C664.5-228.8,664.6-228.7,665-228.4z
				 M434-157.2c0.1,0.1,0.2,0.1,0.3,0.2c-0.1,0.1-0.2,0.2-0.3,0.3c-0.4,0.3-0.7,0.6-1,0.8c0,0-0.2-0.2-0.3-0.3
				c-0.1-0.1-0.1-0.2-0.2-0.2c0.1-0.1,0.2-0.2,0.3-0.2c0.3-0.2,0.6-0.4,0.9-0.6C433.8-157.3,433.9-157.3,434-157.2z M1187.9,156
				C1187.9,156,1187.9,156,1187.9,156c0.1,0.3,0.1,0.5,0.1,0.8c0-0.2,0-0.3,0-0.5C1187.9,156.2,1187.9,156.1,1187.9,156z
				 M736.1,738.6c0.1,0.1,0.3,0.1,0.5,0.2c-0.1,0-0.2,0.1-0.3,0.1l0,0c-0.4,0.2-0.7,0.2-1,0.2c-0.1,0-0.2-0.1-0.3-0.2
				c-0.1,0-0.1-0.1-0.1-0.1c0.1,0,0.2-0.1,0.3-0.1c0.2-0.1,0.4-0.2,0.6-0.2C735.8,738.4,735.9,738.5,736.1,738.6z M275.8,552.6
				L275.8,552.6c0.2,0.2,0.2,0.3,0.3,0.4l0,0l-0.1,0c-0.1,0.1-0.2,0.2-0.3,0.2c-0.3-0.3-0.6-0.6-0.8-1c0,0,0.2-0.2,0.3-0.3
				c0.1,0.1,0.1,0.2,0.2,0.2c0.1,0.1,0.1,0.1,0.2,0.2l0.1,0.1l0,0v0L275.8,552.6L275.8,552.6z M797.6-219c0,0.1,0,0.1,0,0.2
				c-0.1,0-0.3,0-0.4,0c-0.3,0-0.5,0-0.8-0.1c-0.1,0-0.3-0.1-0.4-0.3c0,0-0.1,0-0.1-0.1c0,0,0,0,0,0c0,0,0,0-0.1,0
				c0.1,0,0.3,0,0.4,0c0.2,0,0.4,0,0.6,0c0.2,0,0.4,0.1,0.6,0.1c0.1,0,0.2,0.1,0.3,0.1C797.6-219.1,797.6-219,797.6-219z
				 M637.6-213.5c0.2-0.1,0.4-0.2,0.5-0.3c0.2,0.1,0.4,0.1,0.5,0.1c-0.1,0.1-0.2,0.1-0.4,0.2c-0.2,0.1-0.5,0.3-0.7,0.4
				c-0.1,0.1-0.2,0-0.4-0.1c-0.1,0-0.1-0.1-0.2-0.1C637.3-213.4,637.5-213.4,637.6-213.5z M842.7-207.8L842.7-207.8
				c0.2,0,0.4,0.1,0.7,0.1c-0.2,0.1-0.3,0.2-0.4,0.2c-0.3,0.2-0.4,0.3-0.5,0.3c-0.2,0-0.4-0.2-0.6-0.3v0c-0.1-0.1-0.2-0.1-0.3-0.1
				c0,0,0,0,0.1-0.1c0,0,0,0,0,0l0,0v0c0.1-0.1,0.1-0.2,0.2-0.2C842.2-207.9,842.4-207.8,842.7-207.8z M811.7-215.5
				c0.1,0,0.2-0.1,0.4-0.1c0.3,0.1,0.6,0.2,0.8,0.2c-0.1,0-0.1,0-0.2,0.1c-0.3,0.1-0.6,0.1-0.9,0.1c-0.2,0-0.3,0-0.4-0.1
				c-0.1,0-0.2-0.1-0.3-0.1C811.3-215.4,811.5-215.4,811.7-215.5L811.7-215.5z M333.3,623L333.3,623l0.1,0.1
				c0.1,0.1,0.2,0.1,0.3,0.2c-0.2,0.1,1.5,2,2.5,3.1v0c0.4,0.5,0.7,0.8,0.7,0.8c-0.3-0.2-4.3-3.9-4.5-4.2c0,0,0.3-0.4,0.4-0.4
				C332.9,622.7,333.1,622.8,333.3,623z M483.5-166.1c-0.1,0.3-0.3,0.6-0.3,0.7c-0.6-0.1-0.7-0.1-0.9-0.1c0.1-0.1,0.1-0.1,0.2-0.2
				l0,0v0c0.1-0.2,0.3-0.3,0.4-0.4c0.1-0.1,0.2,0,0.4,0l0,0C483.4-166.1,483.5-166.1,483.5-166.1z M879.4-192.2L879.4-192.2
				L879.4-192.2c0,0.1-0.1,0.2-0.1,0.4c-0.3-0.2-0.6-0.4-0.8-0.5l-0.1-0.1c-0.1-0.1-0.2-0.2-0.3-0.2c0.1,0,0.1,0,0.2-0.1
				c0.1,0,0.2-0.1,0.3-0.1c0.3,0.1,0.6,0.2,0.9,0.4C879.5-192.4,879.5-192.4,879.4-192.2z M306.7-43.7c-0.1,0.1-0.2,0.3-0.4,0.4
				c0,0,0,0-0.1-0.1c-0.1-0.1-0.2-0.2-0.2-0.2c0.1-0.1,0.2-0.3,0.4-0.4L306.7-43.7z M768.6-224.3L768.6-224.3L768.6-224.3
				L768.6-224.3c0.1,0,0.1,0.1,0.2,0.1c-0.1,0-0.1,0.1-0.2,0.1c-0.1,0.1-0.2,0.1-0.3,0.1c-0.1,0-0.3-0.1-0.4-0.2
				c-0.1,0-0.1-0.1-0.2-0.1c0,0,0.1,0,0.1-0.1c0.1-0.1,0.2-0.1,0.3-0.1C768.3-224.5,768.4-224.4,768.6-224.3z M729.6-227.7
				c0,0,0.1,0.1,0.2,0.1c-0.1,0-0.2,0-0.2,0.1c-0.2,0.1-0.4,0.1-0.6,0.1c-0.1,0-0.2-0.1-0.3-0.2c0,0-0.1-0.1-0.1-0.1
				c0.1,0,0.3,0,0.4,0c0.1,0,0.2,0,0.4,0C729.4-227.8,729.5-227.8,729.6-227.7z M634-232.5c0.1,0,0.2,0,0.4,0
				c-0.2,0.1-0.3,0.2-0.4,0.3c-0.2,0.1-0.3,0.2-0.4,0.3c-0.1,0-0.2,0-0.3,0c0,0-0.1,0-0.2,0c0-0.1,0.1-0.1,0.1-0.2
				c0.1-0.1,0.1-0.3,0.2-0.3C633.6-232.5,633.8-232.5,634-232.5z M342.6-86.9c0.1-0.1,0.2-0.3,0.3-0.4c0,0.1,0.1,0.1,0.1,0.1
				c0.1,0.1,0.1,0.2,0.1,0.2c-0.1,0.1-0.2,0.3-0.3,0.4c-0.1,0-0.2,0-0.2,0l0,0c0,0,0,0,0,0c0,0-0.1,0-0.1,0
				C342.4-86.7,342.5-86.7,342.6-86.9z M646.8,756.9l0.5,0C647.2,757,647,757,646.8,756.9z M745.6,754.2c-0.4,0.1-0.8,0.1-1.2,0.2
				c1.7-0.5,3.1-1.1,4.4-1.8c1.9-1.1,3.6-1.9,4.9-2.6c-3.8,1.3-9.4,2.6-15.5,2.5c-6.7-0.1-11.2,1.4-16.1,3v0c-2.1,0.7-4.3,1.4-6.7,2
				c-7.5,0.5-14.9,0.9-22.2,1.1c-1.8-0.2-3.8-0.5-5.8-0.8c-22.9-3.6-32.2-2-37-1.1c-1.3,0.2-2.2,0.4-3,0.4
				c7.9,0.6,18.2,1.2,29.4,1.6c-9.7-0.1-19.3-0.6-28.7-1.3c-94.2-8.1-172-47.7-245.6-93.7c37.7,31.3,128.2,84.5,245.6,93.7
				c11.2,1,22.6,1.5,34.3,1.5c5.1,0.1,10.3,0.2,15.5,0.2c3.9,0.2,7.2,0.1,10.1-0.2c14.7-0.4,28.1-1.7,36.4-4.4
				C744.7,754.3,745.1,754.3,745.6,754.2z M756.1,752.6c-3.6,0.6-7.1,1.1-10.6,1.6C749.1,753.7,752.6,753.2,756.1,752.6z M708,758.7
				c-3.3,0.1-6.7,0.1-10.1,0.2c-1.2-0.1-2.5-0.2-3.8-0.3c6.9-0.2,13.9-0.5,21-1.1C712.9,758.1,710.6,758.5,708,758.7z M801.2,752.5
				c-90.5,22.5-155.3,16-227.8-0.8c3.2,0.2,8.1,1.2,14.8,2.5v0C620.3,760.5,692.1,774.6,801.2,752.5z M579.7,735.2
				c62.2,17.6,109.3,23.6,194.9,3.2c-93.1,20.8-154.8,6-182.2-0.6C586.7,736.5,582.4,735.5,579.7,735.2z M580.2,755.9
				c-91-20.3-146.1-55.1-203.4-102.5c2.8,1.7,6.9,4.9,12.3,9.3C414.8,683.4,471.6,729.2,580.2,755.9z"/>
		</g>
		<g transform="matrix(1,0,0,1,92.01799774169922,506.8599853515625)" class="st1">
			<path class="st5" d="M715.8,305l-69.5-144.3h-22.7v214.1h22.7V207.3L707.1,332h17.3L785,207.3v167.6h22.7V160.7H785L715.8,305z"
				/>
		</g>
		<g transform="matrix(1,0,0,1,298.3320007324219,506.8599853515625)" class="st1">
			<path class="st5" d="M706.2,160.7l-77.9,214.1h23.9l15.5-44.5l9-26.3h-0.1l38.8-111.7l25,71.6l14,40.1h-0.1l8.6,24.7l16.1,46.1
				H803l-77.9-214.1H706.2z"/>
		</g>
		<g transform="matrix(1,0,0,1,490.6990051269531,506.8599853515625)" class="st1">
			<path class="st5" d="M771.1,332.7L660.3,160.7h-22.7v214.1h22.7V202.3l110.8,172.5h22.7V160.7h-22.7V332.7z"/>
		</g>
		<g transform="matrix(1,0,0,1,668.3079833984375,506.8599853515625)" class="st1">
			<path class="st5" d="M643.4,181.2h61.1v193.7h22.4V181.2H788v-20.5H643.4V181.2z"/>
		</g>
		<g transform="matrix(1,0,0,1,842.2509765625,506.8599853515625)" class="st1">
			<path class="st5" d="M773.2,258.8c8.1-9.9,12.1-22.6,12.1-37.9c0-19.2-5.7-34.1-17.2-44.6c-11.4-10.4-27.2-15.6-47.3-15.6h-79.4
				v214.1H664v-94h51.5l48.4,94H790l-50.6-96.2C753.9,275.3,765.1,268.7,773.2,258.8z M664,261.2v-80.1h54.9
				c14.1,0,24.8,3.3,32.5,10.1c7.4,6.8,11.2,16.8,11.2,30c0,12.9-3.8,22.7-11.5,29.6c-7.6,6.9-18.4,10.4-32.3,10.4H664z"/>
		</g>
		<g transform="matrix(1,0,0,1,1273.8699951171875,506.8599853515625)" class="st1">
			<path class="st5" d="M715.2,160.7H642v214.1h73.2c22.8,0,40.8-6.6,54.2-19.7c13.3-13.1,20-33.9,20-62.2v-50.3
				c0-28.4-6.7-49-20-62.2C755.9,167.3,737.9,160.7,715.2,160.7z M766.3,294.2c0,40.1-16.9,60.2-50.8,60.2h-50.5V181.2h50.5
				c16.4,0,29,5,37.7,14.9c8.8,9.9,13.2,25.7,13.2,47.5v50.7H766.3z"/>
		</g>
		<g transform="matrix(1,0,0,1,1638.9000244140625,506.6700134277344)" class="st1">
			<path class="st5" d="M769.7,177.8c-13.3-13.1-31.3-19.7-53.8-19.7c-22.8,0-40.8,6.6-54.3,19.7c-13.4,13.1-20.2,33.9-20.2,62.2
				v55.5c0,28.4,6.7,49,20,62.2c13.3,13.1,31.4,19.7,54.2,19.7c22.6,0,40.6-6.6,54-19.7c13.4-13.1,20.2-33.9,20.2-62.2V240
				C789.8,211.7,783.2,191,769.7,177.8z M767.2,296.9c0,39.9-17,59.9-51.2,59.9c-16.9,0-29.8-4.8-38.7-14.3s-13.2-24.8-13.2-45.6
				V241c0-21.9,4.4-37.8,13-47.6c8.7-9.8,21.6-14.8,38.8-14.8c34.1,0,51.2,20.8,51.2,62.4L767.2,296.9L767.2,296.9z"/>
		</g>
		<g transform="matrix(1,0,0,1,1457.47998046875,506.8599853515625)" class="st1">
			<path class="st5" d="M803,374.8l-77.9-214.1h-18.9l-77.9,214.1h23.9l12.9-36.8l11.7-34l9-25.9l29.8-85.8l39.1,111.7h-0.1
				l11.2,32.4l13.3,38.4H803z"/>
		</g>
		<g transform="matrix(1,0,0,1,1018.47998046875,506.8599853515625)" class="st1">
			<path class="st5" d="M803,374.8l-77.9-214.1h-18.9l-77.9,214.1h23.9l15.1-43.4l9.4-27.3h-0.1l38.8-111.7L751,293.9l3.5,10.2
				l9.4,27.3l15.1,43.4H803z"/>
		</g>
	</g>
	<g transform="matrix(0.05999999865889549,0,0,0.05999999865889549,225.00018310546875,121)" class="st31">
		<g transform="matrix(1,0,0,1,1248.93798828125,1561.5)" class="st1">
			<path class="st32" d="M2933.2-218l-92,92c73.1,115,96.1,259.2,46,397.1c-83.6,234.1-342.8,357.5-579,273.9
				c-33.5-12.5-64.8-27.1-92-46l-294.8,294.8l-257.1-259.2c-119.1,79.4-271.8,102.4-416,52.2C1005.8,499,880.4,233.5,968.2-6.9
				c12.5-37.6,31.4-71.1,52.2-102.4L909.7-220l-20.9,35.5C773.8,3.6,711.2,221,711.2,444.6C709.1,1111.4,1252.6,1657,1919.3,1657
				h2.1c666.8,0,1208.2-541.4,1210.2-1208.2c0-221.6-60.6-439-175.6-629.1L2933.2-218z"/>
		</g>
		<g transform="matrix(1,0,0,1,1247.875,726.375)" class="st1">
			<path class="st32" d="M1157.5,861.8c-31.4,41.8-50.1,94.1-50.1,150.5c0,135.9,110.8,246.6,246.6,246.6
				c56.5,0,108.8-18.9,150.5-52.2L1157.5,861.8z M2367.7,1185.6c39.8,27.1,85.8,41.8,138,41.8c135.9,0,246.6-110.8,246.6-246.6
				c0-50.1-14.6-98.2-41.8-138L2367.7,1185.6z M1926.6,1444.9L927.5,441.5l39.8-41.7C1213.9,138.5,1550.4-7.9,1912-7.9h2.1
				c365.8,0,717,156.7,961.5,428.5l37.6,41.7L1926.6,1444.9z M1090.6,441.5l836.1,838.2l825.6-821.5
				c-221.6-221.5-522.6-349.1-836.1-349.1h-2.1C1602.6,109.1,1312.1,226.3,1090.6,441.5z"/>
		</g>
	</g>
	<g transform="matrix(3.700000047683716,0,0,3.700000047683716,226,122)" class="st33">
		<g transform="matrix(1,0,0,1,20,20)" class="st1">
			<path class="st34" d="M31.1,31.7c-11,0-20-9-20-20.1c0.1-11,9-20,20.1-19.9c11,0.1,19.9,9,19.9,20.2C51,22.8,42.1,31.7,31.1,31.7
				z"/>
		</g>
		<g transform="matrix(1,0,0,1,20.149999618530273,19.950000762939453)" class="st1">
			<path class="st5" d="M32.9,9.3l-0.6,3.2l5.7,0.8l-0.4,1.5L32,14c-0.4,1.3-0.6,2.7-1.1,3.9c-0.5,1.4-1,2.8-1.6,4.1
				c-0.8,1.7-2.2,2.9-4.1,3.2c-1.1,0.2-2.3,0.1-3.2-0.6c-0.3-0.2-0.6-0.6-0.6-0.9c0-0.4,0.2-0.9,0.5-1.1c0.2-0.1,0.7,0,1,0.1
				c0.3,0.3,0.6,0.7,0.8,1.1c0.6,0.8,1.4,0.9,2.2,0.3c0.9-0.8,1.4-1.9,1.7-3c0.6-2.4,1.2-4.7,1.7-7.1v-0.4L24,12.8l0.2-1.5l5.5,0.8
				L30.4,9l-5.7-0.9l0.2-1.6l5.9,0.8c0.2-0.6,0.3-1.1,0.5-1.6c0.5-1.8,1-3.6,2.2-5.2c1.2-1.6,2.6-2.6,4.7-2.5c0.9,0,1.8,0.3,2.4,1
				c0.1,0.1,0.3,0.3,0.3,0.5c0,0.4,0,0.9-0.3,1.2c-0.4,0.3-0.9,0.2-1.3-0.2c-0.3-0.3-0.5-0.6-0.8-0.9c-0.6-0.8-1.5-0.9-2.2-0.2
				c-0.5,0.5-1,1.2-1.3,1.9c-0.7,2.1-1.2,4.3-1.9,6.5l5.5,0.8l-0.4,1.5L32.9,9.3z"/>
		</g>
	</g>
	<g transform="matrix(6.833000183105469,0,0,6.833000183105469,215.86526489257812,110.54943084716797)" class="st35">
		<g transform="matrix(1,0,0,1,12.314000129699707,12.314000129699707)" class="st1">
			<path class="st36" d="M23.2,12.7c-0.8,0.8-2,0.8-2.8,0c-0.8-0.8-0.8-2,0-2.8c0.8-0.8,2-0.8,2.8,0C24,10.6,24,11.9,23.2,12.7z
				 M14.7,16.9l2.8-2.8c0.4-0.4,1-0.4,1.4,0c0.4,0.4,0.4,1,0,1.4l-2.8,2.8c-0.4,0.4-1,0.4-1.4,0C14.4,17.9,14.4,17.3,14.7,16.9z
				 M26.1,14.1l2.8,2.8c0.4,0.4,0.4,1,0,1.4c-0.4,0.4-1,0.4-1.4,0l-2.8-2.8c-0.4-0.4-0.4-1,0-1.4C25,13.7,25.7,13.7,26.1,14.1z
				 M13.3,2.8c-0.8,0.8-2,0.8-2.8,0c-0.8-0.8-0.8-2,0-2.8c0.8-0.8,2-0.8,2.8,0C14.1,0.7,14.1,2,13.3,2.8z M14.7-2.9l2.8-2.8
				c0.4-0.4,1-0.4,1.4,0s0.4,1,0,1.4l-2.8,2.8c-0.4,0.4-1,0.4-1.4,0C14.4-1.9,14.4-2.5,14.7-2.9z M16.2,4.2L19,7
				c0.4,0.4,0.4,1,0,1.4c-0.4,0.4-1,0.4-1.4,0l-2.8-2.8c-0.4-0.4-0.4-1,0-1.4C15.1,3.8,15.8,3.8,16.2,4.2z M6.3-5.7l2.8,2.8
				c0.4,0.4,0.4,1,0,1.4c-0.4,0.4-1,0.4-1.4,0L4.8-4.3c-0.4-0.4-0.4-1,0-1.4S5.9-6.1,6.3-5.7z"/>
		</g>
	</g>
	<g transform="matrix(0.6499999761581421,0,0,0.6499999761581421,99.15000915527344,101.33000183105469)" class="st37">
		<g transform="matrix(1,0,0,1,322.25,133.85000610351562)" class="st1">
			<path class="st5" d="M148.5,66.6v-0.2c0-15.4,12.3-28.2,28.8-28.2c16.6,0,28.7,12.6,28.7,28v0.2c0,15.3-12.3,28.1-28.9,28.1
				C160.7,94.5,148.5,81.9,148.5,66.6z M193.7,66.6v-0.2c0-9.5-6.8-17.4-16.6-17.4c-9.9,0-16.3,7.8-16.3,17.2v0.2
				c0,9.4,6.8,17.3,16.5,17.3C187.4,83.6,193.7,75.9,193.7,66.6z"/>
		</g>
		<g transform="matrix(1,0,0,1,385.70001220703125,133.9499969482422)" class="st1">
			<path class="st5" d="M152.3,66.5v-0.2c0-15.3,11.9-28.2,28.1-28.2c10.1,0,16.5,3.8,21.6,9.3l-7.8,8.3c-3.8-4-7.8-6.7-13.9-6.7
				c-9,0-15.6,7.8-15.6,17.2v0.2c0,9.6,6.6,17.3,16.1,17.3c5.8,0,10.1-2.7,14-6.6l7.5,7.4c-5.3,5.9-11.5,10.1-22.1,10.1
				C164.1,94.4,152.3,81.8,152.3,66.5z"/>
		</g>
		<g transform="matrix(1,0,0,1,502.1499938964844,133.85000610351562)" class="st1">
			<path class="st5" d="M151.1,66.5v-0.2c0-15.4,10.9-28.1,26.4-28.1c17.2,0,25.9,13.5,25.9,29c0,1.1-0.1,2.2-0.2,3.5h-39.7
				c1.3,8.8,7.6,13.7,15.5,13.7c6,0,10.3-2.2,14.6-6.4l7.3,6.4c-5.1,6.1-12.2,10.1-22.1,10.1C163.1,94.5,151.1,83.1,151.1,66.5z
				 M191,62.5c-0.8-8-5.5-14.2-13.7-14.2c-7.6,0-12.9,5.8-14,14.2H191z"/>
		</g>
		<g transform="matrix(1,0,0,1,565.2000122070312,112.0999984741211)" class="st1">
			<path class="st5" d="M172.4,61h9.8v10.6h-9.8V61z"/>
		</g>
		<g transform="matrix(1,0,0,1,553.0999755859375,126.80000305175781)" class="st1">
			<path class="st5" d="M179.8,83.4V60.9V45.6V31.5h-12.4v14.8h-6.8v10.6h6.8v28.4c0,11.9,6.4,15.8,15.5,15.8c4.7,0,8.1-1,11.1-2.8
				V88.2c-2.5,1.2-4.9,1.8-7.7,1.8C182.2,90.1,179.8,88.2,179.8,83.4z"/>
		</g>
		<g transform="matrix(1,0,0,1,446.04998779296875,133.5)" class="st1">
			<path class="st5" d="M156.4,93.2V39.5l10.7-0.1v18.9l16.2-19h13.3l-29.4,35.4l-0.1,18.6h-10.7V93.2z M185.9,93.2l-10.5-15.1
				l6.3-8c0,0,16.4,22.9,16.4,23.1H185.9z"/>
		</g>
		<g transform="matrix(1,0,0,1,446.1000061035156,133.5)" class="st1">
			<path class="st5" d="M198.6,93.7h-13L174.8,78l6.9-8.8l0.4,0.5c16.5,23.1,16.5,23.2,16.5,23.4V93.7z M167.6,93.7H156V39l11.7-0.1
				V57l15.5-18.1h14.6l-30.1,35.9L167.6,93.7z"/>
		</g>
		<g transform="matrix(1,0,0,1,260.25,154.89999389648438)" class="st1">
			<path class="st5" d="M192.6,26c-3,2.4-6.1,4.9-9,7.5l-0.1,0.1c2.3,3,3.6,6.9,3.6,11.1v0.2c0,4.2-1.3,8-3.6,11
				c-0.1,0.1-0.2,0.2-0.2,0.3c-3.3,3.6-7.3,5.4-11.9,5.4l-16.5-0.1v45.1h9.7V72.2c0,0,4,0.6,6.1,0.6c16.7,0,28.9-12.8,28.9-28.1
				v-0.2C199.5,37.4,196.9,31,192.6,26z"/>
		</g>
		<g transform="matrix(1,0,0,1,176.0500030517578,143.7989959716797)" class="st1">
			<path class="st5" d="M190.8,67.4c0,27.3-17.3,50.6-41.6,59.5v14.4c32.4-9.5,56.1-39.5,56.1-75s-23.7-65.5-56.1-75V7.9
				C173.4,16.8,190.8,40.1,190.8,67.4z"/>
		</g>
		<g transform="matrix(1,0,0,1,76.0999984741211,143.85000610351562)" class="st1">
			<path class="st5" d="M149.1,66.4c0,35.6,23.8,65.6,56.4,75v-14.5c-24.3-8.9-41.6-32.1-41.6-59.5c0-27.3,17.3-50.6,41.6-59.5V-8.7
				C172.9,0.8,149.1,30.8,149.1,66.4z"/>
		</g>
		<g transform="matrix(1,0,0,1,111.44999694824219,220.5500030517578)" class="st1">
			<path class="st5" d="M170.1,37.8v57.5h14.3V37.4c-2,1.7-4.6,2.7-7.4,2.7C174.4,40.1,172,39.2,170.1,37.8z"/>
		</g>
		<g transform="matrix(1,0,0,1,144.64999389648438,155.89999389648438)" class="st1">
			<path class="st5" d="M192.8,31.7c-4.5,3.6-9,7.3-13.3,11.1c-0.1,0-0.1,0.1-0.2,0.1c3.4,4.5,5.4,10.2,5.4,16.4v0.3
				c0,6.2-1.9,11.9-5.3,16.3c-0.1,0.1-0.2,0.3-0.3,0.4c-4.9,5.4-10.8,8.1-17.7,8.1c0,0-4.7,0-10-0.1c2.4,2.1,4,5.3,4,8.7
				c0,2.8-1,5.3-2.6,7.3c2,0.2,5.4,0.6,7.4,0.6c24.7,0,42.9-18.9,42.9-41.7v-0.3C203,48.6,199.2,39,192.8,31.7z"/>
		</g>
		<g transform="matrix(1,0,0,1,140.85000610351562,67.05000305175781)" class="st1">
			<path class="st5" d="M184.4,94.9V37.4h-14.3v57.9c2-1.7,4.6-2.7,7.4-2.7C180.1,92.7,182.5,93.5,184.4,94.9z"/>
		</g>
		<g transform="matrix(1,0,0,1,107.55000305175781,131.6999969482422)" class="st1">
			<path class="st5" d="M161.7,100.9c4.5-3.6,9-7.3,13.3-11.1c0.1,0,0.1-0.1,0.2-0.1c-3.4-4.5-5.4-10.2-5.4-16.4V73
				c0-6.2,1.9-11.9,5.3-16.3c0.1-0.1,0.2-0.3,0.3-0.4c4.9-5.4,10.8-8.1,17.7-8.1c0,0,4.7,0,10,0.1c-2.4-2.1-4-5.3-4-8.7
				c0-2.8,1-5.3,2.6-7.3c-2-0.2-5.4-0.6-7.4-0.6c-24.7,0-42.9,18.9-42.9,41.7v0.3C151.5,84.1,155.3,93.6,161.7,100.9z"/>
		</g>
		<g transform="matrix(1,0,0,1,141.10000610351562,104.9000015258789)" class="st1">
			<path class="st5" d="M177.3,74.6c2.9,0,5.4-1.5,6.9-3.7c0.9-1.3,1.4-2.9,1.4-4.6c0-1.7-0.5-3.3-1.4-4.6c-1.5-2.2-4-3.7-6.9-3.7
				c-4.6,0-8.3,3.7-8.3,8.3S172.8,74.6,177.3,74.6z"/>
		</g>
		<g transform="matrix(1,0,0,1,111.0999984741211,183)" class="st1">
			<path class="st5" d="M177.3,58c-2.9,0-5.4,1.5-6.9,3.7c-0.9,1.3-1.4,2.9-1.4,4.6c0,1.7,0.5,3.3,1.4,4.6c1.5,2.2,4,3.7,6.9,3.7
				c4.6,0,8.3-3.7,8.3-8.3C185.6,61.7,181.9,58,177.3,58z"/>
		</g>
	</g>
</g>
</svg>
