<svg height="40.005" width="40" xmlns="http://www.w3.org/2000/svg"><path d="M0 .005h40v40H0z" fill="none"/><path d="M39.4 24.841A20 20 0 1 1 24.836.599 20 20 0 0 1 39.4 24.841z" fill="#fff"/><g fill="#5a5564"><path d="m31.039 9.85-.961.961a13.6 13.6 0 0 1 0 18.361l.961.961a14.978 14.978 0 0 0 0-20.3zM10.83 9.934a13.6 13.6 0 0 1 18.361 0l.961-.961a14.978 14.978 0 0 0-20.3 0zM9.93 29.18a13.6 13.6 0 0 1 0-18.351l-.961-.961a14.978 14.978 0 0 0 0 20.3zM29.178 30.069a13.6 13.6 0 0 1-18.361 0l-.961.961a14.978 14.978 0 0 0 20.3 0z"/></g><path d="M26.068 16.799c-.192-2.005-1.922-2.678-4.11-2.883v-2.761h-1.691v2.71h-1.351v-2.71h-1.679v2.78h-3.431v1.81s1.249-.022 1.23 0a.874.874 0 0 1 .961.743v7.611a.593.593 0 0 1-.205.413.586.586 0 0 1-.436.147c.022.019-1.23 0-1.23 0l-.32 2.021h3.4v2.825h1.69v-2.783h1.352v2.771h1.694V26.7c2.857-.173 4.85-.878 5.1-3.552a2.88 2.88 0 0 0-2.428-3.5 2.615 2.615 0 0 0 1.454-2.849zm-2.37 6.016c0 2.1-3.6 1.861-4.747 1.861v-3.729c1.146.008 4.746-.327 4.746 1.868zm-.782-5.254c0 1.922-3 1.688-3.959 1.688V15.86c.951 0 3.959-.305 3.959 1.701z" fill="#f09242"/><path d="M20.002 37.506a17.5 17.5 0 1 1 17.5-17.5 17.5 17.5 0 0 1-17.5 17.5zm0-33.633A16.125 16.125 0 1 0 31.41 8.591a16.125 16.125 0 0 0-11.408-4.72z" fill="#282138"/></svg>
