<svg height="40.005" width="40" xmlns="http://www.w3.org/2000/svg"><path d="M0 .005h40v40H0z" fill="none"/><path d="M39.4 24.841A20 20 0 1 1 24.836.599 20 20 0 0 1 39.4 24.841z" fill="#fff"/><path d="m19.997 6.047-.187.636v18.459l.187.187 8.568-5.065z" fill="#343434"/><path d="m19.997 6.047-8.568 14.217 8.568 5.065z" fill="#8c8c8c"/><path d="m19.998 26.951-.106.129v6.575l.106.308 8.573-12.074z" fill="#3c3c3b"/><path d="M19.997 33.963v-7.012l-8.568-5.062z" fill="#8c8c8c"/><path d="m19.997 25.328 8.568-5.065-8.568-3.895z" fill="#141414"/><path d="m11.429 20.264 8.568 5.065v-8.96z" fill="#393939"/></svg>
