<svg height="40.005" width="40" xmlns="http://www.w3.org/2000/svg"><path d="M0 .005h40v40H0z" fill="none"/><path d="M39.4 24.841A20 20 0 1 1 24.836.599 20 20 0 0 1 39.4 24.841z" fill="#101124"/><path d="M12 17.338H9.333v-2.667H12zM12 22.672H9.333v-2.667H12zM12 20.005H9.333v-2.667H12z" fill="#fed955"/><path d="M12 25.338H9.333v-2.667H12zM22.667 12.005H20V9.338h2.667zM22.667 30.672H20v-2.667h2.667z" fill="#fed955"/><path d="M25.333 12.005h-2.667V9.338h2.667z" fill="#fed955"/><path d="M28 12.005h-2.667V9.338H28zM12 9.338h2.667v2.667H12zM28 25.338h2.667v2.667H28zM12 28.005H9.333v-2.667H12zM25.333 9.338h-2.667V6.671h2.667z" fill="#9695f8"/><path d="M25.333 6.672h-2.667V4.005h2.667zM25.333 36.005h-2.667v-2.667h2.667z" fill="#5552fd"/><path d="M25.333 33.338h-2.667v-2.667h2.667zM20 9.338h-2.667V6.671H20z" fill="#9695f8"/><path d="M20 6.672h-2.667V4.005H20zM20 36.005h-2.667v-2.667H20z" fill="#5552fd"/><path d="M20 33.338h-2.667v-2.667H20zM22.667 9.338H20V6.671h2.667z" fill="#9695f8"/><path d="M22.667 6.672H20V4.005h2.667zM22.667 36.005H20v-2.667h2.667z" fill="#5552fd"/><path d="M22.667 33.338H20v-2.667h2.667zM17.333 9.338h-2.667V6.671h2.667z" fill="#9695f8"/><path d="M17.333 6.672h-2.667V4.005h2.667zM17.333 36.005h-2.667v-2.667h2.667z" fill="#5552fd"/><path d="M17.333 33.338h-2.667v-2.667h2.667zM30.667 14.672H28v-2.667h2.667zM9.333 12.005H12v2.667H9.333zM25.333 28.005H28v2.667h-2.667z" fill="#9695f8"/><path d="M14.667 30.672H12v-2.667h2.667zM33.333 17.338h-2.667v-2.667h2.667zM9.333 17.338H6.666v-2.667h2.667z" fill="#9695f8"/><path d="M6.667 17.338H4v-2.667h2.667z" fill="#5552fd"/><path d="M9.333 14.672H6.666v-2.667h2.667zM30.667 12.005h2.667v2.667h-2.667zM28 33.338h-2.667v-2.667H28zM6.667 28.005v-2.667h2.667v2.667zM12 12.005H9.333V9.338H12zM28 9.338h2.667v2.667H28zM30.667 30.672H28v-2.667h2.667zM9.333 30.672v-2.667H12v2.667zM14.667 9.338H12V6.671h2.667zM25.333 6.672H28v2.667h-2.667zM33.333 28.005h-2.667v-2.667h2.667zM12 33.338v-2.667h2.667v2.667z" fill="#5552fd"/><path d="M36 17.338h-2.667v-2.667H36z" fill="#5552fd"/><path d="M33.333 20.005h-2.667v-2.667h2.667zM9.333 20.005H6.666v-2.667h2.667z" fill="#9695f8"/><path d="M6.667 20.005H4v-2.667h2.667zM36 20.005h-2.667v-2.667H36z" fill="#5552fd"/><path d="M33.333 22.672h-2.667v-2.667h2.667zM9.333 22.672H6.666v-2.667h2.667z" fill="#9695f8"/><path d="M6.667 22.672H4v-2.667h2.667zM36 22.672h-2.667v-2.667H36z" fill="#5552fd"/><path d="M33.333 25.338h-2.667v-2.667h2.667zM9.333 25.338H6.666v-2.667h2.667z" fill="#9695f8"/><path d="M6.667 25.338H4v-2.667h2.667zM36 25.338h-2.667v-2.667H36z" fill="#5552fd"/><g fill="#fed955"><path d="M25.333 30.672h-2.667v-2.667h2.667zM22.667 17.338H20v-2.667h2.667zM22.667 22.672H20v-2.667h2.667z"/><path d="M22.667 25.338H20v-2.667h2.667zM22.667 14.672H20v-2.667h2.667zM22.667 28.005H20v-2.667h2.667zM17.333 22.672h-2.667v-2.667h2.667zM17.333 20.005h-2.667v-2.667h2.667z"/><path d="M17.333 25.338h-2.667v-2.667h2.667zM17.333 14.672h-2.667v-2.667h2.667zM17.333 28.005h-2.667v-2.667h2.667zM25.333 22.672h-2.667v-2.667h2.667zM25.333 20.005h-2.667v-2.667h2.667z"/><path d="M25.333 25.338h-2.667v-2.667h2.667zM25.333 14.672h-2.667v-2.667h2.667zM25.333 28.005h-2.667v-2.667h2.667zM20 12.005h-2.667V9.338H20zM20 30.672h-2.667v-2.667H20zM17.333 12.005h-2.667V9.338h2.667zM17.333 30.672h-2.667v-2.667h2.667zM20 17.338h-2.667v-2.667H20zM20 22.672h-2.667v-2.667H20z"/></g><path d="M17.333 17.338h-2.667v-2.667h2.667zM22.667 20.005H20v-2.667h2.667zM28 17.338h-2.667v-2.667H28zM28 22.672h-2.667v-2.667H28zM28 20.005h-2.667v-2.667H28z" fill="#5552fd"/><path d="M28 25.338h-2.667v-2.667H28zM28 14.672h-2.667v-2.667H28zM28 28.005h-2.667v-2.667H28zM14.667 17.338H12v-2.667h2.667zM14.667 22.672H12v-2.667h2.667zM14.667 20.005H12v-2.667h2.667z" fill="#5552fd"/><path d="M14.667 25.338H12v-2.667h2.667zM14.667 14.672H12v-2.667h2.667zM14.667 28.005H12v-2.667h2.667zM25.333 17.338h-2.667v-2.667h2.667zM20 20.005h-2.667v-2.667H20z" fill="#5552fd"/><path d="M20 25.338h-2.667v-2.667H20zM20 14.672h-2.667v-2.667H20zM20 28.005h-2.667v-2.667H20zM30.667 17.338H28v-2.667h2.667zM30.667 22.672H28v-2.667h2.667zM30.667 20.005H28v-2.667h2.667z" fill="#fed955"/><path d="M30.667 25.338H28v-2.667h2.667z" fill="#fed955"/></svg>
