<svg width="40" height="41" fill="none" xmlns="http://www.w3.org/2000/svg"><g clip-path="url(#a)"><path d="M39.4 24.841A20 20 0 1 1 .588 15.167 20 20 0 0 1 39.4 24.84Z" fill="#fff"/></g><path d="M14.87 32.105c6.442 0 6.442-.096 7.535-.42 1.427-.424-4.03-4.202-7.535-4.202-3.504 0-6.345 1.035-6.345 2.311s2.841 2.311 6.345 2.311Z" fill="#000"/><path d="m29.498 12.454.297.319-.26.35c-8.401 11.36-13.241 16.504-15.295 15.814-1.25-.42-2.505-1.684-3.76-3.52a25.892 25.892 0 0 1-1.804-3.091c-.14-.295-.2-.477-.247-.715l-.006-.029a2.446 2.446 0 0 0-.04-.189A11.466 11.466 0 0 1 8 18.45C8 12.126 13.126 7 19.45 7a11.4 11.4 0 0 1 5.582 1.45l.043.028c1.386.964 2.859 2.29 4.423 3.976Zm-5.002-3.1A10.349 10.349 0 0 0 19.45 8.05c-5.744 0-10.4 4.656-10.4 10.4 0 .912.118 1.809.347 2.674.023.086.033.134.057.258l.005.025c.03.154.063.253.165.467a24.886 24.886 0 0 0 1.724 2.951c1.133 1.658 2.257 2.79 3.227 3.116 1.293.434 6.162-4.72 13.856-15.09-1.397-1.475-2.71-2.64-3.935-3.496Z" fill="#000"/><path d="M24.496 9.355A10.349 10.349 0 0 0 19.45 8.05c-5.744 0-10.4 4.656-10.4 10.4 0 .912.118 1.809.347 2.674.023.085.033.134.057.258l.005.025c.03.154.063.253.165.467a24.886 24.886 0 0 0 1.724 2.951c1.133 1.658 2.257 2.79 3.227 3.116 1.293.434 6.162-4.72 13.856-15.09-1.397-1.475-2.71-2.64-3.935-3.496Z" fill="#EC1C79"/><path d="M21.55 32c-6.323 0-11.45-5.126-11.45-11.45 0-6.323 5.127-11.45 11.45-11.45C27.874 9.1 33 14.228 33 20.55 33 26.874 27.874 32 21.55 32Zm0-1.05c5.744 0 10.4-4.656 10.4-10.4 0-5.743-4.656-10.399-10.4-10.399-5.743 0-10.399 4.656-10.399 10.4 0 5.743 4.656 10.399 10.4 10.399Z" fill="#000"/><path d="M21.55 30.95c5.744 0 10.4-4.656 10.4-10.4 0-5.743-4.656-10.399-10.4-10.399-5.743 0-10.399 4.656-10.399 10.4 0 5.743 4.656 10.399 10.4 10.399Z" fill="#fff"/><path fill-rule="evenodd" clip-rule="evenodd" d="m13.771 22.68-1.376-4.146h1.206l.717 2.382.795-2.394h.982l.794 2.394.718-2.382h1.182l-1.376 4.147h-.994l-.83-2.37-.824 2.37h-.994Zm5.471-.029v-4.117h3.312v.97H20.37v.624h1.977v.9H20.37v.653h2.212v.97h-3.341Zm4.93 0v-3.117h-1.236v-1h3.612v1h-1.235v3.117H24.17Zm2.876 0v-4.117h1.141v1.54h1.465v-1.54h1.141v4.117h-1.141v-1.564h-1.465v1.564h-1.141Z" fill="#000"/><path d="M8.682 17.295a.588.588 0 1 1 .526-1.052l1.681.84a.588.588 0 1 1-.526 1.052l-1.68-.84ZM8.489 20.082a.588.588 0 0 1 .493-1.068l1.68.775a.588.588 0 0 1-.493 1.068l-1.68-.775Z" fill="#000"/><defs><clipPath id="a"><path fill="#fff" d="M0 0h40v40.005H0z"/></clipPath></defs></svg>
