<svg xmlns="http://www.w3.org/2000/svg" version="1.0" width="266.667" height="266.667" viewBox="0 0 200 200"><path d="M84.5 50.5c-7.7 1.6-12.9 4-18.5 8.4-6.3 5-7.2 6-11 11.5-5.9 8.7-7.3 13.8-7.3 26.2 0 10.3.2 11.6 3 17.5 1.6 3.5 5 9 7.6 12l4.5 5.7-4.2 1.6c-2.3.9-4.6 1.6-5.2 1.6-1.8 0-4.4 3.5-4.4 5.9 0 2.8 8.3 6.7 18.8 8.7 14.7 2.8 41.6 1.3 54.7-3.1 14.6-4.9 25.9-17.4 30-33.2 7.3-27.9-14.3-55.7-48.7-62.7-9-1.9-11.3-1.9-19.3-.1zm29.6 9.5c32 6.1 46.3 42.8 26.8 68.7-4.3 5.7-13.5 12.6-20 14.9-5.6 1.9-22.2 1.9-28-.1-6.5-2.3-15.8-9.3-20.3-15.3C56.8 107 64 76 87.5 64.4c10.2-5 17.2-6.2 26.6-4.4z"/><path d="M74 102.7c3.2 11.7 5.2 13.2 6.9 5.3.6-2.8 1.1-6.1 1.1-7.3.1-3.2 1.6-.2 2.4 4.8 1.1 6.2 1.6 7.5 3.1 7.5 1.3 0 2.3-2.5 5.4-14.5 1.4-5.3 1.4-5.5-.8-5.5-1.6 0-2.2 1.2-3.2 5.7-1.3 6.3-1.2 6.4-3.3-3-.5-2.2-1.2-2.8-2.9-2.5-1.8.2-2.3 1.2-3.1 6-1 6.5-2.6 7.7-2.6 2 0-6-1-8.2-3.5-8.2h-2.2l2.7 9.7zM97 103v10h6.5c5.8 0 6.5-.2 6.5-2 0-1.7-.7-2-5.1-2-4.7 0-5-.2-4.7-2.3.2-1.8 1-2.3 4.6-2.5 2.8-.2 4.2-.8 4.2-1.7 0-.9-1.4-1.5-4.2-1.7-3.6-.2-4.4-.7-4.6-2.6-.3-2 0-2.2 4.7-2.2 3.9 0 5.1-.4 5.1-1.5 0-1.2-1.4-1.5-6.5-1.5H97v10zM112 94.5c0 .9.9 1.5 2.5 1.5 2.5 0 2.5.1 2.5 8.5 0 7.8.2 8.5 2 8.5s2-.7 2-8.5V96h3c2 0 3-.5 3-1.5 0-1.2-1.5-1.5-7.5-1.5s-7.5.3-7.5 1.5zM128.5 103c0 9.8 0 10 2.3 10 2.1 0 2.3-.4 2-4.3-.3-4.1-.2-4.2 3-4.5 3.2-.3 3.2-.3 3.2 4.2 0 3.9.3 4.6 2 4.6 1.9 0 2-.7 2-10s-.1-10-2-10c-1.6 0-2 .7-2 3.5 0 3.2-.2 3.5-3 3.5s-3-.3-3-3.5c0-3-.3-3.5-2.2-3.5-2.2 0-2.3.3-2.3 10z"/></svg>
