<svg width="16" height="16" viewBox="0 0 16 16" fill="none" xmlns="http://www.w3.org/2000/svg">
<path fill-rule="evenodd" clip-rule="evenodd" d="M2.30968 2.30968C1.33337 3.286 1.33337 4.85734 1.33337 8.00004C1.33337 11.1427 1.33337 12.7141 2.30968 13.6904C3.286 14.6667 4.85734 14.6667 8.00004 14.6667C11.1427 14.6667 12.7141 14.6667 13.6904 13.6904C14.6667 12.7141 14.6667 11.1427 14.6667 8.00004C14.6667 4.85734 14.6667 3.286 13.6904 2.30968C12.7141 1.33337 11.1427 1.33337 8.00004 1.33337C4.85734 1.33337 3.286 1.33337 2.30968 2.30968ZM11.3334 8.16671C11.6095 8.16671 11.8334 8.39056 11.8334 8.66671V12C11.8334 12.2762 11.6095 12.5 11.3334 12.5C11.0572 12.5 10.8334 12.2762 10.8334 12V8.66671C10.8334 8.39056 11.0572 8.16671 11.3334 8.16671ZM8.50004 4.00004C8.50004 3.7239 8.27618 3.50004 8.00004 3.50004C7.7239 3.50004 7.50004 3.7239 7.50004 4.00004V12C7.50004 12.2762 7.7239 12.5 8.00004 12.5C8.27618 12.5 8.50004 12.2762 8.50004 12V4.00004ZM4.66671 5.50004C4.94285 5.50004 5.16671 5.7239 5.16671 6.00004V12C5.16671 12.2762 4.94285 12.5 4.66671 12.5C4.39056 12.5 4.16671 12.2762 4.16671 12V6.00004C4.16671 5.7239 4.39056 5.50004 4.66671 5.50004Z" fill="#A3A3A3"/>
</svg>
