<svg width="1024" height="768" viewBox="0 0 1024 768" fill="none" xmlns="http://www.w3.org/2000/svg">
<circle cx="512" cy="384" r="384" fill="#010610"/>
<path d="M355.537 302.414H343.651L268.604 465.559H281.423L349.478 315.465L417.765 465.559H430.584L355.537 302.414Z" fill="white" stroke="white" stroke-width="16.185" stroke-miterlimit="2"/>
<path d="M485.018 460.664C495.739 464.859 507.159 466.724 519.278 466.724C532.097 466.724 543.05 464.86 551.907 460.897C560.763 457.168 567.289 451.808 571.484 445.282C575.679 438.756 578.01 431.531 578.01 423.607C578.01 414.052 575.446 406.36 570.319 400.767C565.192 395.173 559.132 390.745 552.14 387.948C544.915 385.152 535.359 382.355 523.473 379.325C512.752 376.761 504.129 374.198 498.069 371.867C491.776 369.536 486.649 366.273 482.454 361.845C478.259 357.65 476.161 351.823 476.161 344.365C476.161 334.81 479.89 326.886 487.814 320.826C495.505 314.766 506.926 311.736 522.075 311.736C529.533 311.736 537.224 312.902 545.148 315.232C553.072 317.563 560.297 321.059 566.823 325.487L571.251 315.932C564.725 311.503 557.267 308.007 548.644 305.211C539.788 302.647 530.931 301.249 522.075 301.249C509.023 301.249 498.302 303.346 489.679 307.075C481.055 311.037 474.763 316.398 470.568 322.924C466.372 329.449 464.275 336.674 464.275 344.598C464.275 354.387 466.606 362.311 471.733 368.138C476.86 373.965 482.92 378.16 490.145 380.956C497.37 383.753 506.926 386.783 519.045 389.58C529.533 392.144 537.923 394.474 544.216 396.805C550.276 399.135 555.636 402.631 559.831 406.827C564.026 411.255 566.124 417.081 566.124 424.306C566.124 433.862 562.162 441.553 554.238 447.38C546.313 453.439 534.427 456.236 519.045 456.236C508.324 456.236 498.069 454.372 488.28 450.643C478.492 446.914 470.801 441.786 465.207 435.727L459.847 444.583C465.906 451.109 474.297 456.469 485.018 460.664V460.664Z" fill="white" stroke="white" stroke-width="16.185" stroke-miterlimit="2"/>
<path d="M720.619 408.458C732.739 404.962 742.294 398.902 748.82 390.046C755.346 381.189 758.842 370.468 758.842 357.417C758.842 340.403 753.015 326.886 741.362 317.097C729.709 307.308 713.627 302.414 693.118 302.414H634.619V313.135H693.118C710.365 313.135 723.649 317.097 732.972 324.788C742.061 332.479 746.722 343.433 746.722 357.417C746.722 371.634 742.061 382.588 732.972 390.279C723.649 397.97 710.365 401.699 693.118 401.699H634.619V465.559H646.505V412.187H693.118C697.779 412.187 703.14 411.954 708.966 411.022L747.888 465.559H761.406L720.619 408.458Z" fill="white" stroke="white" stroke-width="16.185" stroke-miterlimit="2"/>
</svg>
