<svg width="1024" height="768" viewBox="0 0 1024 768" fill="none" xmlns="http://www.w3.org/2000/svg">
<path d="M304.386 344.391H298.612L262.155 423.645H268.382L301.442 350.731L334.616 423.645H340.843L304.386 344.391Z" fill="#ffffff" stroke="#ffffff" stroke-width="7.8625" stroke-miterlimit="2"/>
<path d="M367.273 421.267C372.482 423.305 378.029 424.211 383.917 424.211C390.144 424.211 395.465 423.305 399.768 421.381C404.07 419.569 407.24 416.965 409.278 413.795C411.316 410.625 412.448 407.115 412.448 403.265C412.448 398.623 411.203 394.887 408.712 392.17C406.221 389.453 403.277 387.301 399.881 385.943C396.371 384.584 391.729 383.225 385.955 381.754C380.747 380.508 376.557 379.263 373.614 378.131C370.557 376.998 368.066 375.413 366.028 373.262C363.99 371.224 362.971 368.394 362.971 364.771C362.971 360.129 364.783 356.279 368.632 353.335C372.368 350.392 377.916 348.92 385.275 348.92C388.898 348.92 392.635 349.486 396.484 350.618C400.334 351.75 403.843 353.449 407.014 355.6L409.165 350.958C405.995 348.807 402.372 347.108 398.182 345.75C393.88 344.504 389.578 343.825 385.275 343.825C378.935 343.825 373.727 344.844 369.538 346.655C365.349 348.58 362.292 351.184 360.254 354.354C358.216 357.525 357.197 361.034 357.197 364.884C357.197 369.639 358.329 373.489 360.82 376.319C363.311 379.15 366.254 381.187 369.764 382.546C373.274 383.905 377.916 385.377 383.804 386.735C388.898 387.981 392.974 389.113 396.031 390.245C398.975 391.377 401.579 393.076 403.617 395.114C405.655 397.265 406.674 400.095 406.674 403.605C406.674 408.247 404.749 411.983 400.9 414.814C397.05 417.758 391.276 419.116 383.804 419.116C378.595 419.116 373.614 418.21 368.859 416.399C364.103 414.587 360.367 412.097 357.65 409.153L355.046 413.455C357.989 416.625 362.065 419.229 367.273 421.267V421.267Z" fill="#ffffff" stroke="#ffffff" stroke-width="7.8625" stroke-miterlimit="2"/>
<path d="M447.534 415.493C453.082 421.381 460.894 424.211 470.97 424.211C480.934 424.211 488.746 421.381 494.407 415.493C499.955 409.719 502.785 401.227 502.785 390.019V344.391H497.011V389.792C497.011 399.529 494.747 406.888 490.331 411.644C485.802 416.512 479.462 418.89 471.084 418.89C462.592 418.89 456.139 416.512 451.723 411.644C447.194 406.888 445.043 399.529 445.043 389.792V344.391H439.269V390.019C439.269 401.227 441.986 409.719 447.534 415.493V415.493Z" fill="#ffffff" stroke="#ffffff" stroke-width="7.8625" stroke-miterlimit="2"/>
<path d="M579.36 395.906C585.247 394.208 589.889 391.264 593.059 386.962C596.229 382.659 597.928 377.451 597.928 371.111C597.928 362.846 595.097 356.279 589.436 351.524C583.775 346.769 575.963 344.391 566 344.391H537.582V349.599H566C574.378 349.599 580.832 351.524 585.36 355.26C589.776 358.996 592.04 364.318 592.04 371.111C592.04 378.017 589.776 383.339 585.36 387.075C580.832 390.811 574.378 392.623 566 392.623H537.582V423.645H543.356V397.718H566C568.264 397.718 570.868 397.604 573.699 397.152L592.606 423.645H599.173L579.36 395.906Z" fill="#ffffff" stroke="#ffffff" stroke-width="7.8625" stroke-miterlimit="2"/>
<path d="M656.035 344.391H650.261L613.804 423.645H620.031L653.091 350.731L686.264 423.645H692.492L656.035 344.391Z" fill="#010610" stroke="#ffffff" stroke-width="7.8625" stroke-miterlimit="2"/>
<path d="M718.922 421.267C724.13 423.305 729.678 424.211 735.565 424.211C741.793 424.211 747.114 423.305 751.416 421.381C755.719 419.569 758.889 416.965 760.927 413.795C762.965 410.625 764.097 407.115 764.097 403.265C764.097 398.623 762.851 394.887 760.361 392.17C757.87 389.453 754.926 387.301 751.529 385.943C748.02 384.584 743.378 383.225 737.603 381.754C732.395 380.508 728.206 379.263 725.262 378.131C722.205 376.998 719.715 375.413 717.677 373.262C715.639 371.224 714.62 368.394 714.62 364.771C714.62 360.129 716.431 356.279 720.281 353.335C724.017 350.392 729.565 348.92 736.924 348.92C740.547 348.92 744.283 349.486 748.133 350.618C751.982 351.75 755.492 353.449 758.662 355.6L760.814 350.958C757.643 348.807 754.02 347.108 749.831 345.75C745.529 344.504 741.226 343.825 736.924 343.825C730.584 343.825 725.376 344.844 721.187 346.655C716.997 348.58 713.94 351.184 711.902 354.354C709.865 357.525 708.846 361.034 708.846 364.884C708.846 369.639 709.978 373.489 712.469 376.319C714.959 379.15 717.903 381.187 721.413 382.546C724.923 383.905 729.565 385.377 735.452 386.735C740.547 387.981 744.623 389.113 747.68 390.245C750.624 391.377 753.228 393.076 755.266 395.114C757.304 397.265 758.323 400.095 758.323 403.605C758.323 408.247 756.398 411.983 752.548 414.814C748.699 417.758 742.925 419.116 735.452 419.116C730.244 419.116 725.262 418.21 720.507 416.399C715.752 414.587 712.016 412.097 709.298 409.153L706.694 413.455C709.638 416.625 713.714 419.229 718.922 421.267V421.267Z" fill="#ffffff" stroke="#ffffff" stroke-width="7.8625" stroke-miterlimit="2"/>
</svg>
