<svg width="40" height="40" viewBox="0 0 40 40" fill="none" xmlns="http://www.w3.org/2000/svg">
<g clip-path="url(#clip0_741_153)">
<path d="M15.5471 1.6772C15.3975 1.46788 15.2001 1.29728 14.9713 1.17958C14.7425 1.06189 14.4889 1.00049 14.2316 1.00049C13.9743 1.00049 13.7207 1.06189 13.4919 1.17958C13.2631 1.29728 13.0657 1.46788 12.9161 1.6772C9.89311 6.0552 2.69312 16.9702 2.69312 21.7572C2.69312 27.8172 7.85912 32.7312 14.2311 32.7312C20.6031 32.7312 25.7701 27.8172 25.7701 21.7572C25.7701 16.9702 18.5731 6.0552 15.5471 1.6772Z" fill="#00B4C9" fill-opacity="0.5"/>
<path d="M27.0862 7.44624C26.9366 7.23692 26.7392 7.06632 26.5104 6.94863C26.2816 6.83093 26.028 6.76953 25.7707 6.76953C25.5134 6.76953 25.2598 6.83093 25.031 6.94863C24.8022 7.06632 24.6048 7.23692 24.4552 7.44624C21.4322 11.8242 14.2322 22.7392 14.2322 27.5262C14.2322 33.5862 19.3982 38.5002 25.7702 38.5002C32.1422 38.5002 37.3092 33.5862 37.3092 27.5262C37.3092 22.7392 30.1122 11.8242 27.0862 7.44624Z" fill="#00B4C9"/>
<path d="M14.2312 27.5262C14.2312 23.8742 18.4212 16.6532 21.7522 11.4912C23.9522 15.3912 25.7692 19.3492 25.7692 21.7572C25.709 24.5111 24.635 27.1459 22.7529 29.1571C20.8709 31.1684 18.313 32.4146 15.5692 32.6572C14.6918 31.0894 14.2311 29.3228 14.2312 27.5262H14.2312Z" fill="#00B4C9"/>
</g>
<defs>
<clipPath id="clip0_741_153">
<rect width="40" height="40" fill="white"/>
</clipPath>
</defs>
</svg>
