<svg width="47" height="40" viewBox="0 0 47 40" fill="none" xmlns="http://www.w3.org/2000/svg">
<g clip-path="url(#clip0_741_148)">
<path d="M36 0H4C1.79086 0 0 1.79086 0 4V28C0 30.2091 1.79086 32 4 32H36C38.2091 32 40 30.2091 40 28V4C40 1.79086 38.2091 0 36 0Z" fill="#00B4C9" fill-opacity="0.5"/>
<path d="M43 8H11C8.79086 8 7 9.79086 7 12V36C7 38.2091 8.79086 40 11 40H43C45.2091 40 47 38.2091 47 36V12C47 9.79086 45.2091 8 43 8Z" fill="#00B4C9"/>
<path d="M11 8H40V28C40 29.0609 39.5786 30.0783 38.8284 30.8284C38.0783 31.5786 37.0609 32 36 32H7V12C7 10.9391 7.42143 9.92172 8.17157 9.17157C8.92172 8.42143 9.93913 8 11 8V8Z" fill="#00B4C9" fill-opacity="0.25"/>
<path d="M41.3759 10.25H29.3849C28.9027 10.2497 28.4312 10.3925 28.0302 10.6602C27.6291 10.928 27.3165 11.3087 27.132 11.7542C26.9474 12.1997 26.8991 12.6899 26.9933 13.1629C27.0874 13.6358 27.3198 14.0702 27.6609 14.411L30.9519 17.702L23.4999 25.15L16.0479 17.698C15.7461 17.3955 15.3876 17.1555 14.993 16.9918C14.5983 16.8281 14.1752 16.7438 13.7479 16.7438C13.3206 16.7438 12.8976 16.8281 12.5029 16.9918C12.1082 17.1555 11.7497 17.3955 11.4479 17.698L4.47593 24.679C4.32475 24.8299 4.20481 25.0092 4.12298 25.2065C4.04114 25.4038 3.99902 25.6154 3.99902 25.829C3.99902 26.0426 4.04114 26.2542 4.12298 26.4515C4.20481 26.6488 4.32475 26.8281 4.47593 26.979L6.77593 29.279C6.92686 29.4302 7.10611 29.5501 7.30344 29.632C7.50077 29.7138 7.7123 29.7559 7.92593 29.7559C8.13955 29.7559 8.35108 29.7138 8.54841 29.632C8.74574 29.5501 8.925 29.4302 9.07593 29.279L13.7539 24.6L21.1999 32.05C21.5017 32.3525 21.8602 32.5925 22.2549 32.7562C22.6496 32.9199 23.0726 33.0042 23.4999 33.0042C23.9272 33.0042 24.3503 32.9199 24.745 32.7562C25.1396 32.5925 25.4981 32.3525 25.7999 32.05L35.5499 22.3L38.8409 25.591C39.1822 25.9311 39.6165 26.1624 40.0891 26.2559C40.5618 26.3493 41.0515 26.3006 41.4964 26.1159C41.9414 25.9313 42.3217 25.6189 42.5893 25.2183C42.8569 24.8177 42.9998 24.3468 42.9999 23.865V11.875C43.0002 11.6616 42.9584 11.4503 42.8769 11.2531C42.7954 11.0559 42.6758 10.8767 42.5249 10.7257C42.3741 10.5748 42.1949 10.4551 41.9978 10.3734C41.8006 10.2918 41.5893 10.2499 41.3759 10.25V10.25Z" fill="white"/>
</g>
<defs>
<clipPath id="clip0_741_148">
<rect width="47" height="40" fill="white"/>
</clipPath>
</defs>
</svg>
