<svg width="40" height="40" viewBox="0 0 40 40" fill="none" xmlns="http://www.w3.org/2000/svg">
<g clip-path="url(#clip0_741_160)">
<path d="M19.9999 18.49C19.9989 18.3233 19.9322 18.1636 19.8143 18.0457C19.6963 17.9278 19.5367 17.8611 19.3699 17.86H18.7849V12.82C18.7839 12.6533 18.7172 12.4936 18.5993 12.3757C18.4813 12.2578 18.3217 12.1911 18.1549 12.19H16.3549C16.2447 12.1918 16.1374 12.2252 16.0455 12.2861C15.9537 12.3471 15.8813 12.4331 15.8369 12.534L15.2069 13.704C15.1582 13.8012 15.1353 13.9093 15.1404 14.0178C15.1455 14.1264 15.1784 14.2318 15.2359 14.324C15.292 14.4147 15.3701 14.4898 15.4629 14.5422C15.5558 14.5946 15.6603 14.6228 15.7669 14.624H16.3539V17.863H15.7689C15.6022 17.8641 15.4425 17.9308 15.3246 18.0487C15.2067 18.1666 15.14 18.3263 15.1389 18.493V19.662C15.14 19.8288 15.2067 19.9884 15.3246 20.1064C15.4425 20.2243 15.6022 20.291 15.7689 20.292H19.3689C19.5357 20.291 19.6953 20.2243 19.8133 20.1064C19.9312 19.9884 19.9979 19.8288 19.9989 19.662L19.9999 18.49ZM32.1489 8.46104C32.1581 7.95444 32.0216 7.45587 31.7557 7.02458C31.4898 6.59328 31.1057 6.2474 30.6489 6.02804C28.9654 5.26767 27.1362 4.88374 25.2889 4.90304C22.558 5.02832 19.8558 5.51695 17.2539 6.35604C14.8609 7.13511 12.3754 7.59442 9.86194 7.72204C8.68521 7.7317 7.51512 7.5448 6.39994 7.16904C6.1313 7.0748 5.84863 7.02679 5.56394 7.02704C4.87302 7.03888 4.21501 7.32434 3.73432 7.82078C3.25362 8.31722 2.98951 8.98409 2.99994 9.67504V24.016C2.99078 24.5226 3.12727 25.0212 3.39317 25.4525C3.65907 25.8838 4.04322 26.2297 4.49994 26.449C6.18353 27.2094 8.01272 27.5933 9.85994 27.574C12.5926 27.4495 15.2964 26.9612 17.8999 26.122C20.293 25.343 22.7785 24.8836 25.2919 24.756C26.4693 24.7458 27.6401 24.9324 28.7559 25.308C29.0246 25.4023 29.3073 25.4503 29.5919 25.45C30.2831 25.4366 30.9408 25.1497 31.4209 24.6523C31.9009 24.1548 32.1642 23.4873 32.1529 22.796L32.1489 8.46104Z" fill="#00B4C9" fill-opacity="0.5"/>
<path d="M25.851 26.013C25.85 25.8462 25.7833 25.6866 25.6653 25.5687C25.5474 25.4507 25.3878 25.384 25.221 25.383H24.636V20.343C24.635 20.1762 24.5683 20.0166 24.4503 19.8987C24.3324 19.7807 24.1728 19.714 24.006 19.713H22.206C22.0958 19.7148 21.9884 19.7481 21.8966 19.8091C21.8048 19.8701 21.7324 19.9561 21.688 20.057L21.058 21.227C21.0093 21.3241 20.9864 21.4322 20.9915 21.5408C20.9965 21.6494 21.0294 21.7548 21.087 21.847C21.1431 21.9377 21.2212 22.0127 21.314 22.0652C21.4068 22.1176 21.5114 22.1457 21.618 22.147H22.205V25.386H21.62C21.4533 25.387 21.2936 25.4537 21.1757 25.5717C21.0578 25.6896 20.9911 25.8492 20.99 26.016V27.185C20.9911 27.3517 21.0578 27.5114 21.1757 27.6293C21.2936 27.7472 21.4533 27.8139 21.62 27.815H25.22C25.3868 27.8139 25.5464 27.7472 25.6643 27.6293C25.7823 27.5114 25.849 27.3517 25.85 27.185L25.851 26.013ZM38 15.984C38.0092 15.4774 37.8727 14.9788 37.6068 14.5475C37.3409 14.1162 36.9567 13.7703 36.5 13.551C34.8164 12.7906 32.9872 12.4067 31.14 12.426C28.409 12.5513 25.7069 13.0399 23.105 13.879C20.712 14.6581 18.2264 15.1174 15.713 15.245C14.5363 15.2547 13.3662 15.0677 12.251 14.692C11.9824 14.5978 11.6997 14.5497 11.415 14.55C10.7241 14.5618 10.0661 14.8473 9.58539 15.3437C9.1047 15.8402 8.84059 16.507 8.85102 17.198V31.539C8.84186 32.0456 8.97834 32.5442 9.24424 32.9754C9.51015 33.4067 9.89429 33.7526 10.351 33.972C12.0346 34.7324 13.8638 35.1163 15.711 35.097C18.4436 34.9725 21.1475 34.4842 23.751 33.645C26.1441 32.8659 28.6296 32.4066 31.143 32.279C32.3204 32.2688 33.4912 32.4553 34.607 32.831C34.8757 32.9252 35.1583 32.9732 35.443 32.973C36.1342 32.9596 36.7919 32.6727 37.272 32.1752C37.752 31.6777 38.0153 31.0102 38.004 30.319L38 15.984Z" fill="#00B4C9"/>
<g style="mix-blend-mode:screen">
<path d="M8.84991 27.5398V17.1978C8.83947 16.5073 9.10314 15.8407 9.58316 15.3442C10.0632 14.8477 10.7204 14.5617 11.4109 14.5488C11.6957 14.5488 11.9784 14.5971 12.2469 14.6918C13.3624 15.0675 14.5329 15.2541 15.7099 15.2438C18.2233 15.1162 20.7089 14.6569 23.1019 13.8778C25.7042 13.0388 28.4066 12.5502 31.1379 12.4248C31.4792 12.4248 31.8166 12.4365 32.1499 12.4598V22.7958C32.1614 23.4874 31.8982 24.1553 31.4179 24.653C30.9376 25.1508 30.2795 25.4377 29.5879 25.4508C29.3036 25.4508 29.0213 25.4028 28.7529 25.3088C27.6367 24.9331 26.4656 24.7466 25.2879 24.7568C22.774 24.8846 20.2881 25.3446 17.8949 26.1248C15.2929 26.9635 12.5908 27.4518 9.85991 27.5768C9.51991 27.5748 9.18324 27.5625 8.84991 27.5398Z" fill="#00B4C9" fill-opacity="0.5"/>
</g>
</g>
<defs>
<clipPath id="clip0_741_160">
<rect width="40" height="40" fill="white"/>
</clipPath>
</defs>
</svg>
