<svg width="43" height="40" viewBox="0 0 43 40" fill="none" xmlns="http://www.w3.org/2000/svg">
<g clip-path="url(#clip0_741_142)">
<path d="M14.6376 31.4637L4.69075 21.5168C4.22789 21.054 3.91266 20.4644 3.78493 19.8225C3.6572 19.1806 3.72271 18.5152 3.97317 17.9105C4.22363 17.3058 4.6478 16.789 5.19201 16.4253C5.73623 16.0617 6.37606 15.8677 7.03057 15.8677L11.4267 15.8656L11.4281 6.76939C11.4283 5.89178 11.777 5.05017 12.3975 4.42961C13.0181 3.80904 13.8597 3.46033 14.7373 3.46013L18.0459 3.46084C18.9237 3.46085 19.7656 3.80958 20.3864 4.43031C21.0071 5.05105 21.3558 5.89295 21.3558 6.7708L21.3573 15.8656L25.754 15.8656C26.4088 15.8653 27.0489 16.0592 27.5933 16.4228C28.1378 16.7864 28.5622 17.3033 28.8128 17.9082C29.0634 18.513 29.1289 19.1786 29.001 19.8208C28.8732 20.4629 28.5577 21.0526 28.0946 21.5154L18.1463 31.4637C17.6809 31.9287 17.0499 32.1899 16.392 32.1899C15.734 32.1899 15.103 31.9287 14.6376 31.4637V31.4637Z" fill="#00B4C9" fill-opacity="0.5"/>
<path d="M28.237 4.569L38.1831 14.5152C38.646 14.9779 38.9612 15.5676 39.089 16.2095C39.2167 16.8514 39.1512 17.5168 38.9007 18.1215C38.6503 18.7262 38.2261 19.243 37.6819 19.6066C37.1377 19.9702 36.4978 20.1643 35.8433 20.1642L31.4458 20.165L31.4451 29.2619C31.4449 30.1395 31.0962 30.9811 30.4756 31.6017C29.8551 32.2222 29.0135 32.5709 28.1359 32.5711H24.828C23.9502 32.5711 23.1083 32.2224 22.4875 31.6017C21.8668 30.9809 21.5181 30.139 21.518 29.2612V20.165L17.1213 20.165C16.4665 20.1653 15.8264 19.9714 15.282 19.6078C14.7375 19.2442 14.3131 18.7273 14.0625 18.1224C13.8119 17.5175 13.7464 16.8519 13.8743 16.2098C14.0021 15.5677 14.3176 14.9779 14.7807 14.5152L24.7269 4.569C25.1924 4.10354 25.8237 3.84204 26.4819 3.84204C27.1402 3.84204 27.7715 4.10354 28.237 4.569V4.569Z" fill="#00B4C9"/>
<g style="mix-blend-mode:screen">
<path d="M21.5176 20.1649H17.1176C16.4632 20.1647 15.8236 19.9704 15.2797 19.6065C14.7357 19.2427 14.3119 18.7258 14.0619 18.121C13.8118 17.5163 13.7467 16.851 13.8748 16.2093C14.0029 15.5676 14.3185 14.9783 14.7816 14.5159L21.3546 7.94092V15.8659H25.7546C26.4091 15.8658 27.0489 16.0599 27.5931 16.4235C28.1374 16.7871 28.5616 17.3039 28.812 17.9086C29.0625 18.5133 29.1281 19.1786 29.0003 19.8206C28.8726 20.4625 28.5574 21.0521 28.0946 21.5149L21.5176 28.0889V20.1649Z" fill="#00B4C9" fill-opacity="0.5"/>
</g>
</g>
<defs>
<clipPath id="clip0_741_142">
<rect width="42.872" height="40" fill="white"/>
</clipPath>
</defs>
</svg>
