<svg width="49" height="50" viewBox="0 0 49 50" fill="none" xmlns="http://www.w3.org/2000/svg">
<g clip-path="url(#clip0_741_86)">
<path d="M37.207 6.3L21.536 0.320999C20.9817 0.109304 20.3934 0.000523351 19.8 0C19.206 0.00027995 18.617 0.109064 18.062 0.320999L2.389 6.3C1.68653 6.56796 1.082 7.04292 0.655397 7.66202C0.228798 8.28112 0.000250052 9.01516 1.03422e-06 9.767V29.829C-0.000560567 30.5815 0.22761 31.3164 0.654262 31.9363C1.08091 32.5562 1.6859 33.0318 2.389 33.3L18.06 39.275C18.6153 39.4885 19.205 39.5987 19.8 39.6C20.394 39.5997 20.983 39.4909 21.538 39.279L37.207 33.3C37.9109 33.0324 38.5167 32.5571 38.9441 31.9372C39.3715 31.3173 39.6003 30.582 39.6 29.829V9.767C39.5994 9.01469 39.3703 8.2803 38.943 7.66115C38.5156 7.04201 37.9102 6.56732 37.207 6.3V6.3Z" fill="#00B4C9" fill-opacity="0.5"/>
<path d="M46.6111 16.4958L30.9401 10.5168C30.3857 10.3051 29.7974 10.1963 29.2041 10.1958C28.61 10.1961 28.021 10.3049 27.4661 10.5168L11.7931 16.4958C11.0906 16.7638 10.486 17.2387 10.0594 17.8578C9.63285 18.4769 9.4043 19.211 9.40405 19.9628V40.0248C9.40349 40.7773 9.63166 41.5122 10.0583 42.1321C10.485 42.752 11.0899 43.2276 11.7931 43.4958L27.4641 49.4708C28.0194 49.6843 28.6091 49.7945 29.2041 49.7958C29.7981 49.7955 30.3871 49.6867 30.9421 49.4748L46.6111 43.4958C47.3149 43.2282 47.9207 42.7529 48.3481 42.133C48.7755 41.5131 49.0043 40.7778 49.0041 40.0248V19.9628C49.0035 19.2105 48.7744 18.4761 48.347 17.857C47.9197 17.2378 47.3143 16.7631 46.6111 16.4958V16.4958Z" fill="#00B4C9"/>
<path d="M18.0601 39.2758L9.40405 35.9728V19.9628C9.40458 19.211 9.63324 18.4771 10.0598 17.858C10.4864 17.239 11.0907 16.764 11.7931 16.4958L27.4641 10.5158C28.5834 10.0891 29.8207 10.0891 30.9401 10.5158L39.5961 13.8158V29.8258C39.5962 30.5785 39.3675 31.3134 38.9403 31.9332C38.5131 32.5529 37.9076 33.0281 37.2041 33.2958L21.5361 39.2758C20.4167 39.7024 19.1794 39.7024 18.0601 39.2758V39.2758Z" fill="#00B4C9" fill-opacity="0.5"/>
<path d="M16.9814 5.85724L9.64303 13.1956C9.3016 13.5368 9.06904 13.9716 8.97477 14.445C8.8805 14.9183 8.92874 15.4091 9.11341 15.855C9.29837 16.3014 9.61181 16.6828 10.0139 16.9507C10.4161 17.2186 10.8887 17.361 11.3719 17.3597L14.6119 17.3612L14.6119 25.7828C14.6121 26.4299 14.8692 27.0505 15.3268 27.5081C15.7844 27.9657 16.405 28.2228 17.0521 28.223L19.4923 28.2237C20.1397 28.2237 20.7605 27.9665 21.2183 27.5088C21.6761 27.051 21.9332 26.4302 21.9333 25.7828L21.9325 17.3619L25.1768 17.3619C25.6595 17.3619 26.1314 17.2187 26.5329 16.9505C26.9343 16.6823 27.2471 16.301 27.4319 15.855C27.6166 15.409 27.665 14.9182 27.5708 14.4447C27.4766 13.9712 27.2442 13.5363 26.9028 13.1949L19.568 5.86007C19.2251 5.51718 18.7602 5.32431 18.2753 5.32378C17.7903 5.32325 17.325 5.5151 16.9814 5.85724V5.85724ZM30.0261 43.7242L37.3588 36.3915C37.7001 36.0501 37.9326 35.6152 38.0268 35.1417C38.121 34.6682 38.0726 34.1774 37.8879 33.7314C37.7031 33.2854 37.3902 32.9042 36.9888 32.6359C36.5874 32.3677 36.1155 32.2246 35.6327 32.2245L32.3871 32.2217L32.3864 23.8008C32.3864 23.1534 32.1292 22.5326 31.6715 22.0748C31.2137 21.617 30.5929 21.3599 29.9455 21.3598L27.5067 21.3606C26.8593 21.3606 26.2384 21.6177 25.7807 22.0755C25.3229 22.5333 25.0658 23.1541 25.0657 23.8015L25.0657 32.2217L21.8222 32.2224C21.3395 32.2224 20.8675 32.3656 20.4661 32.6338C20.0647 32.902 19.7519 33.2833 19.5671 33.7293C19.3824 34.1753 19.334 34.6661 19.4282 35.1396C19.5224 35.6131 19.7548 36.048 20.0962 36.3894L27.431 43.7242C27.7744 44.0676 28.2401 44.2605 28.7257 44.2605C29.2113 44.2605 29.6771 44.0676 30.0204 43.7242L30.0261 43.7242Z" fill="white"/>
</g>
<defs>
<clipPath id="clip0_741_86">
<rect width="49" height="49.792" fill="white"/>
</clipPath>
</defs>
</svg>
