<svg width="47" height="41" viewBox="0 0 47 41" fill="none" xmlns="http://www.w3.org/2000/svg">
<g clip-path="url(#clip0_741_91)">
<path d="M27 0H5C2.23858 0 0 2.23858 0 5V27C0 29.7614 2.23858 32 5 32H27C29.7614 32 32 29.7614 32 27V5C32 2.23858 29.7614 0 27 0Z" fill="#00B4C9" fill-opacity="0.5"/>
<path d="M42 9H20C17.2386 9 15 11.2386 15 14V36C15 38.7614 17.2386 41 20 41H42C44.7614 41 47 38.7614 47 36V14C47 11.2386 44.7614 9 42 9Z" fill="#00B4C9"/>
<path d="M15 32V14C15 12.6739 15.5272 11.4022 16.4648 10.4645C17.4025 9.5268 18.6739 9 20 9H32V27C32 28.3261 31.4728 29.5978 30.5352 30.5355C29.5975 31.4732 28.3261 32 27 32H15Z" fill="#00B4C9" fill-opacity="0.5"/>
<path d="M10.4989 20.072C11.5219 20.0712 12.5027 19.6645 13.226 18.9412C13.9494 18.2178 14.3561 17.237 14.3569 16.214C14.3558 15.1912 13.949 14.2107 13.2257 13.4875C12.5024 12.7644 11.5217 12.3578 10.4989 12.357C9.47628 12.3581 8.49585 12.7648 7.77275 13.4879C7.04965 14.211 6.64295 15.1914 6.64189 16.214C6.64269 17.2368 7.04927 18.2175 7.7724 18.9408C8.49552 19.6641 9.4761 20.071 10.4989 20.072ZM37.4989 20.072C38.5219 20.0712 39.5027 19.6645 40.226 18.9412C40.9494 18.2178 41.3561 17.237 41.3569 16.214C41.3561 15.1911 40.9494 14.2102 40.226 13.4869C39.5027 12.7635 38.5219 12.3568 37.4989 12.356C36.4759 12.3568 35.4951 12.7635 34.7718 13.4869C34.0484 14.2102 33.6417 15.1911 33.6409 16.214C33.6417 17.2375 34.0488 18.2188 34.7728 18.9422C35.4968 19.6657 36.4784 20.072 37.5019 20.072H37.4989ZM39.4309 21.999H35.5729C34.5542 21.998 33.5767 22.4011 32.8549 23.12C34.0758 23.7845 35.1224 24.7282 35.9091 25.8742C36.6959 27.0201 37.2005 28.3359 37.3819 29.714H41.3599C41.6133 29.7143 41.8642 29.6646 42.0984 29.5677C42.3326 29.4709 42.5453 29.3288 42.7245 29.1496C42.9037 28.9704 43.0457 28.7577 43.1426 28.5235C43.2394 28.2894 43.2892 28.0384 43.2889 27.785V25.858C43.2884 24.8349 42.8818 23.8538 42.1584 23.1302C41.435 22.4067 40.454 21.9998 39.4309 21.999V21.999ZM24.0009 21.999C24.8876 21.9996 25.7657 21.8253 26.585 21.4862C27.4043 21.1471 28.1488 20.6499 28.7757 20.0229C29.4027 19.3959 29.9 18.6514 30.2391 17.8321C30.5782 17.0128 30.7524 16.1347 30.7519 15.248C30.7522 14.3615 30.5777 13.4836 30.2385 12.6645C29.8993 11.8454 29.402 11.1012 28.775 10.4745C28.1481 9.84769 27.4037 9.35061 26.5845 9.01165C25.7654 8.67269 24.8874 8.4985 24.0009 8.49902C23.1142 8.4985 22.2361 8.67276 21.4168 9.01184C20.5975 9.35093 19.853 9.84818 19.226 10.4752C18.599 11.1022 18.1018 11.8466 17.7627 12.6659C17.4236 13.4852 17.2494 14.3633 17.2499 15.25C17.2496 16.1366 17.4241 17.0145 17.7633 17.8335C18.1025 18.6526 18.5998 19.3968 19.2267 20.0236C19.8537 20.6504 20.5981 21.1474 21.4172 21.4864C22.2364 21.8254 23.1144 21.9996 24.0009 21.999V21.999ZM28.6299 23.929H28.1299C26.8438 24.5575 25.4323 24.887 24.0009 24.893C22.5696 24.8863 21.1582 24.5568 19.8719 23.929H19.3719C17.5303 23.9293 15.7642 24.661 14.462 25.9632C13.1598 27.2654 12.4282 29.0314 12.4279 30.873V32.609C12.429 33.3757 12.7342 34.1106 13.2766 34.6525C13.819 35.1943 14.5542 35.4988 15.3209 35.499H32.6799C33.4466 35.4988 34.1818 35.1943 34.7242 34.6525C35.2666 34.1106 35.5718 33.3757 35.5729 32.609V30.873C35.5726 29.0316 34.8411 27.2657 33.5391 25.9635C32.2371 24.6614 30.4713 23.9296 28.6299 23.929V23.929ZM15.1459 23.122C14.4244 22.4024 13.4469 21.9985 12.4279 21.999H8.57089C7.54776 21.9998 6.56677 22.4067 5.8434 23.1302C5.12003 23.8538 4.71342 24.8349 4.71289 25.858V27.787C4.71263 28.0404 4.76234 28.2914 4.85919 28.5255C4.95604 28.7597 5.09812 28.9724 5.2773 29.1516C5.45647 29.3308 5.66923 29.4729 5.90338 29.5697C6.13754 29.6666 6.3885 29.7163 6.64189 29.716H10.6129C10.7966 28.3378 11.3029 27.0225 12.0905 25.8767C12.8781 24.7309 13.9249 23.7872 15.1459 23.122V23.122Z" fill="white"/>
</g>
<defs>
<clipPath id="clip0_741_91">
<rect width="47" height="41" fill="white"/>
</clipPath>
</defs>
</svg>
