<svg xmlns="http://www.w3.org/2000/svg" width="28" height="28" fill="none" viewBox="0 0 28 28">
  <g clip-path="url(#a)">
    <path fill="#7885FF" d="m13.975 6.73 1.902 3.431-1.902 3.431-1.903-3.43 1.903-3.432Zm6.333 10.883-3.922-.068-2.02-3.363 3.922.068 2.02 3.363Zm-12.591.043 2.02-3.363 3.923-.068-2.02 3.363-3.923.068Z" opacity=".5"/>
    <path fill="#7885FF" d="m20.283 10.344-2.02 3.363-3.923.068 2.02-3.363 3.923-.068Z"/>
    <path fill="#7885FF" d="m14.025 21.27-1.902-3.431 1.902-3.431 1.903 3.43-1.903 3.431Z"/>
    <path fill="#7885FF" d="m7.692 10.387 3.922.068 2.02 3.363-3.922-.068-2.02-3.363Z"/>
  </g>
  <defs>
    <clipPath id="a">
      <path fill="#fff" d="M0 0h28v28H0z"/>
    </clipPath>
  </defs>
</svg>
