<svg xmlns="http://www.w3.org/2000/svg" width="28" height="28" fill="none" viewBox="0 0 28 28">
  <path fill="#7885FF" d="m9.277 11.127 9.034 9.039.17.17h-2.129l-2.446-2.446-2.256 2.256H9.512l.17-.17 3.143-3.167-.377-.377-2.347 2.347H7.925l.171-.17 3.267-3.261-4.25-4.25h2.134l.03.029Z" opacity=".5"/>
  <path fill="#7885FF" d="m8.77 7.72 5.232 5.225 5.254-5.254h2.17l-.17.17-6.17 6.166.362.362 3.11-3.06.03-.028.04-.001h2.063l-4.165 4.165 3.383 3.378.172.17h-2.185L6.574 7.692l.24.001H8.74l.03.029Zm5.302 5.295 5.226-5.224h1.887l-1.888-.001-5.225 5.225Z"/>
</svg>
